<svg width="36" height="24" viewBox="0 0 36 24" fill="none" xmlns="http://www.w3.org/2000/svg">
<path d="M28.0236 19.9931C26.9164 19.9931 26.2597 19.4265 26.2095 18.6103H27.2682C27.2682 18.8824 27.4189 19.2445 28.0739 19.267C28.5279 19.267 28.7791 18.995 28.7791 18.7906C28.7289 18.4735 28.3251 18.4509 27.9231 18.3816C27.5599 18.3387 27.2039 18.2478 26.8645 18.1113C26.6919 18.0147 26.549 17.8728 26.4513 17.7008C26.3535 17.5289 26.3047 17.3335 26.31 17.1358C26.31 16.4098 26.9164 15.8432 27.9734 15.8432C28.9818 15.8432 29.6368 16.3647 29.6853 17.1583H28.6786C28.6786 16.9556 28.6284 16.6142 28.0236 16.6142C27.6199 16.6142 27.3687 16.6818 27.3184 16.9763C27.3184 17.3853 28.1744 17.3628 28.8294 17.5205C29.4341 17.6799 29.8378 18.0645 29.8378 18.6103C29.8378 19.6084 29.0321 19.9931 28.0236 19.9931" fill="black"/>
<path d="M8.73193 13.297L12.2078 11.2783L14.0722 14.477H9.38698" fill="black"/>
<path fill-rule="evenodd" clip-rule="evenodd" d="M16.5494 15.8355V19.8727H15.5322V15.8355H16.5494Z" fill="black"/>
<path d="M7.11858 17.9138C7.11858 18.548 7.67305 19.0695 8.27603 19.0695C8.93274 19.0695 9.43522 18.548 9.43522 17.9138C9.43522 17.3022 8.93274 16.7581 8.27603 16.7581C7.97264 16.7684 7.68447 16.8935 7.46965 17.108C7.25483 17.3225 7.12937 17.6104 7.11858 17.9138V17.9138ZM8.22579 20C7.11858 20 6.16211 19.0696 6.16211 17.9138C6.16211 16.7581 7.11858 15.8501 8.22579 15.8501C8.67976 15.8501 9.08348 15.9645 9.43522 16.2123V15.8952H10.4437V19.9082H9.43522V19.6587C9.13373 19.8856 8.67976 20 8.22579 20Z" fill="black"/>
<path d="M21.6793 14.476L16.8433 6.04115L20.3192 4L26.3647 14.476" fill="black"/>
<path d="M11.7535 17.9138C11.7535 18.548 12.2577 19.0695 12.9127 19.0695C13.5157 19.0695 14.0719 18.548 14.0719 17.9138C14.0606 17.6103 13.9348 17.3223 13.7197 17.1078C13.5046 16.8934 13.2162 16.7684 12.9127 16.7581C12.6063 16.7594 12.3127 16.8815 12.0957 17.0979C11.8787 17.3142 11.7558 17.6074 11.7535 17.9138V17.9138ZM12.8624 20C12.5893 20.0005 12.3188 19.9467 12.0666 19.8417C11.8145 19.7368 11.5857 19.5828 11.3935 19.3887C11.2014 19.1946 11.0497 18.9643 10.9473 18.7111C10.8449 18.4579 10.7938 18.1869 10.797 17.9138C10.797 16.7581 11.7032 15.8501 12.8624 15.8501C13.3147 15.8501 13.7184 15.9645 14.0719 16.2123V14.5124H15.0786V19.9082H14.0719V19.6586C13.7107 19.888 13.2902 20.0067 12.8624 20" fill="black"/>
<path d="M12.813 9.69174L16.3392 7.6974L20.2187 14.4758H16.5401V15.4738H15.5334V14.4758" fill="black"/>
<path d="M29.1849 15.5053C29.0533 15.5014 28.928 15.4478 28.8344 15.3552C28.7408 15.2625 28.6859 15.1379 28.6807 15.0063C28.6859 14.8747 28.7408 14.75 28.8344 14.6574C28.928 14.5648 29.0533 14.5111 29.1849 14.5073C29.2512 14.5054 29.3172 14.517 29.3788 14.5413C29.4405 14.5657 29.4966 14.6022 29.5438 14.6489C29.5909 14.6955 29.6281 14.7513 29.6531 14.8127C29.678 14.8741 29.6903 14.94 29.6891 15.0063C29.6903 15.0726 29.678 15.1384 29.6531 15.1999C29.6281 15.2613 29.5909 15.317 29.5438 15.3637C29.4966 15.4103 29.4405 15.4469 29.3788 15.4713C29.3172 15.4956 29.2512 15.5072 29.1849 15.5053V15.5053ZM29.1849 14.5766C28.9319 14.5766 28.7812 14.7793 28.7812 15.0063C28.7812 15.2333 28.9319 15.4377 29.1849 15.4377C29.4361 15.4377 29.5869 15.2333 29.5869 15.0063C29.5869 14.7793 29.4361 14.5766 29.1849 14.5766Z" fill="black"/>
<path d="M29.2885 15.28L29.188 15.053H29.0875V15.28H29.0113V14.7359H29.2383C29.2885 14.7359 29.389 14.8053 29.389 14.8954C29.3908 14.9288 29.382 14.962 29.364 14.9903C29.346 15.0185 29.3196 15.0405 29.2885 15.053L29.389 15.28H29.2885ZM29.188 14.8053H29.0875V14.9855H29.188C29.2885 14.9855 29.2885 14.9629 29.2885 14.8954C29.2885 14.8486 29.2885 14.8053 29.188 14.8053ZM22.5309 17.9138C22.5309 18.5479 23.0351 19.0695 23.6901 19.0695C24.2948 19.0695 24.8476 18.5479 24.8476 17.9138C24.8372 17.6103 24.7118 17.322 24.4969 17.1074C24.282 16.8928 23.9936 16.768 23.6901 16.7581C23.3837 16.7594 23.0902 16.8815 22.8732 17.0979C22.6562 17.3142 22.5332 17.6074 22.5309 17.9138V17.9138ZM23.6381 20C23.3651 20.0002 23.0948 19.9463 22.8429 19.8412C22.5909 19.7362 22.3623 19.5821 22.1703 19.3881C21.9784 19.194 21.8268 18.9638 21.7245 18.7107C21.6222 18.4576 21.5712 18.1867 21.5744 17.9138C21.5744 16.758 22.4807 15.8501 23.6381 15.8501C24.0921 15.8501 24.4958 15.9645 24.8476 16.2122V15.8951H25.8058V19.9081H24.8476V19.6586C24.4866 19.8885 24.066 20.0072 23.6381 20V20ZM17.8993 17.9138C17.8993 18.5479 18.4538 19.0695 19.0585 19.0695C19.7135 19.0695 20.2177 18.5479 20.2177 17.9138C20.2154 17.6074 20.0925 17.3142 19.8755 17.0979C19.6585 16.8815 19.3649 16.7594 19.0585 16.7581C18.7548 16.768 18.4662 16.8928 18.251 17.1073C18.0359 17.3219 17.9102 17.6101 17.8993 17.9138V17.9138ZM20.2177 14.5124H21.2244V19.9081H20.2177V19.6586C19.8782 19.8943 19.4716 20.0141 19.0585 20C17.8993 20 16.9429 19.0695 16.9429 17.9138C16.9429 16.758 17.8993 15.8501 19.0585 15.8501C19.5108 15.8501 19.9145 15.9645 20.2177 16.2122V14.5124Z" fill="black"/>
</svg>
