<svg width="65" height="64" viewBox="0 0 65 64" fill="none" xmlns="http://www.w3.org/2000/svg">
<path d="M21.833 24.6667C21.833 24.2985 22.1315 24 22.4997 24H42.4997C42.8679 24 43.1663 24.2985 43.1663 24.6667V57.588C43.1663 58.0835 42.6448 58.4059 42.2015 58.1843L32.7978 53.4824C32.6101 53.3885 32.3892 53.3885 32.2015 53.4824L22.7978 58.1843C22.3545 58.4059 21.833 58.0835 21.833 57.588V24.6667Z" fill="#EEF1F4"/>
<path d="M38.4778 8.90207C41.2418 8.4962 43.6432 9.0208 45.2279 10.6056C46.8127 12.1903 47.3373 14.5917 46.9314 17.3557C49.1729 19.0231 50.5 21.0921 50.5 23.3333C50.5 25.5745 49.1729 27.6435 46.9314 29.311C47.3373 32.0751 46.8127 34.4766 45.2279 36.0614C43.6432 37.6461 41.2417 38.1707 38.4776 37.7649C36.8101 40.0063 34.7412 41.3333 32.5 41.3333C30.2589 41.3333 28.1899 40.0063 26.5224 37.7649C23.7583 38.1708 21.3569 37.6462 19.7721 36.0614C18.1873 34.4766 17.6627 32.0751 18.0686 29.311C15.8271 27.6435 14.5 25.5745 14.5 23.3333C14.5 21.0921 15.8271 19.0231 18.0686 17.3557C17.6628 14.5917 18.1874 12.1903 19.7721 10.6055C21.3569 9.0208 23.7583 8.4962 26.5223 8.902C28.1897 6.6605 30.2587 5.33334 32.5 5.33334C34.7413 5.33334 36.8103 6.66052 38.4778 8.90207Z" fill="#FFBB0D"/>
<path fill-rule="evenodd" clip-rule="evenodd" d="M39.0629 7.4904C41.7871 7.24447 44.3557 7.8474 46.1711 9.66273C47.9864 11.4781 48.5893 14.0467 48.3435 16.7709C50.4437 18.5234 51.8337 20.766 51.8337 23.3333C51.8337 25.9007 50.4437 28.1433 48.3435 29.8957C48.5894 32.6201 47.9865 35.1888 46.1711 37.0042C44.3557 38.8196 41.7871 39.4225 39.0627 39.1765C37.3102 41.2767 35.0676 42.6667 32.5003 42.6667C29.9331 42.6667 27.6905 41.2768 25.938 39.1766C23.2137 39.4225 20.645 38.8196 18.8296 37.0042C17.0142 35.1888 16.4113 32.6201 16.6573 29.8958C14.557 28.1433 13.167 25.9007 13.167 23.3333C13.167 20.766 14.557 18.5234 16.6573 16.7709C16.4114 14.0466 17.0143 11.4781 18.8297 9.66273C20.645 7.8474 23.2135 7.24447 25.9378 7.49033C27.6903 5.39001 29.933 4 32.5003 4C35.0677 4 37.3104 5.39003 39.0629 7.4904ZM38.4781 8.90207C36.8106 6.66051 34.7416 5.33333 32.5003 5.33333C30.2591 5.33333 28.1901 6.66049 26.5226 8.902C23.7586 8.4962 21.3572 9.0208 19.7725 10.6055C18.1877 12.1903 17.6631 14.5917 18.0689 17.3557C15.8275 19.0231 14.5003 21.0921 14.5003 23.3333C14.5003 25.5745 15.8275 27.6435 18.0689 29.311C17.6631 32.0751 18.1876 34.4766 19.7724 36.0614C21.3572 37.6462 23.7587 38.1708 26.5227 37.7649C28.1902 40.0063 30.2592 41.3333 32.5003 41.3333C34.7415 41.3333 36.8105 40.0063 38.4779 37.7649C41.2421 38.1707 43.6435 37.6461 45.2283 36.0614C46.8131 34.4766 47.3377 32.0751 46.9317 29.311C49.1732 27.6435 50.5003 25.5745 50.5003 23.3333C50.5003 21.0921 49.1732 19.0231 46.9317 17.3557C47.3376 14.5917 46.813 12.1903 45.2283 10.6056C43.6435 9.0208 41.2421 8.4962 38.4781 8.90207Z" fill="#E89B05"/>
<path d="M36.9283 12.6435C38.9757 12.3429 40.7545 12.7315 41.9284 13.9053C43.1023 15.0793 43.4909 16.8581 43.1903 18.9055C44.8506 20.1406 45.8337 21.6732 45.8337 23.3333C45.8337 24.9935 44.8506 26.5261 43.1903 27.7612C43.4909 29.8087 43.1024 31.5876 41.9285 32.7615C40.7545 33.9354 38.9757 34.324 36.9282 34.0233C35.6931 35.6837 34.1605 36.6667 32.5003 36.6667C30.8402 36.6667 29.3077 35.6837 28.0725 34.0234C26.025 34.3241 24.2461 33.9355 23.0723 32.7615C21.8983 31.5876 21.5097 29.8087 21.8104 27.7613C20.1501 26.5261 19.167 24.9935 19.167 23.3333C19.167 21.6732 20.1501 20.1406 21.8104 18.9054C21.5098 16.858 21.8984 15.0792 23.0723 13.9053C24.2461 12.7315 26.0249 12.3429 28.0723 12.6435C29.3075 10.9831 30.8401 10 32.5003 10C34.1605 10 35.6931 10.9831 36.9283 12.6435Z" fill="#FFDD28"/>
<path fill-rule="evenodd" clip-rule="evenodd" d="M23.0716 32.7615C21.8977 31.5876 21.5091 29.8087 21.8097 27.7613C20.1494 26.5261 19.1663 24.9935 19.1663 23.3333C19.1663 21.6732 20.1494 20.1406 21.8097 18.9054C21.5091 16.858 21.8977 15.0792 23.0716 13.9053C24.2455 12.7315 26.0243 12.3429 28.0717 12.6435C29.3069 10.9831 30.8395 10 32.4997 10C34.1599 10 35.6925 10.9831 36.9277 12.6435C38.9751 12.3429 40.7539 12.7315 41.9277 13.9053C43.1017 15.0793 43.4903 16.8581 43.1896 18.9055C44.8499 20.1406 45.833 21.6732 45.833 23.3333C45.833 24.9935 44.8499 26.5261 43.1896 27.7612C43.4903 29.8087 43.1017 31.5876 41.9278 32.7615C40.7539 33.9354 38.975 34.324 36.9275 34.0233C35.6924 35.6837 34.1598 36.6667 32.4997 36.6667C30.8395 36.6667 29.307 35.6837 28.0718 34.0234C26.0243 34.3241 24.2455 33.9355 23.0716 32.7615ZM27.4901 35.4279C25.4693 35.5741 23.5271 35.1027 22.1288 33.7043C20.7304 32.3059 20.259 30.3639 20.4052 28.343C18.8729 27.0175 17.833 25.3109 17.833 23.3333C17.833 21.3557 18.8729 19.6491 20.4052 18.3236C20.2591 16.3029 20.7305 14.3609 22.1288 12.9625C23.5271 11.5642 25.4692 11.0928 27.4899 11.2389C28.8155 9.70666 30.5221 8.66666 32.4997 8.66666C34.4773 8.66666 36.1839 9.70666 37.5095 11.239C39.5302 11.0928 41.4722 11.5642 42.8706 12.9625C44.2689 14.3609 44.7403 16.3029 44.5941 18.3237C46.1264 19.6492 47.1663 21.3557 47.1663 23.3333C47.1663 25.3109 46.1264 27.0175 44.5941 28.343C44.7403 30.3638 44.269 32.3059 42.8706 33.7043C41.4722 35.1027 39.5301 35.5741 37.5093 35.4279C36.1838 36.9601 34.4772 38 32.4997 38C30.5221 38 28.8156 36.9601 27.4901 35.4279Z" fill="#E89B05"/>
</svg>
