<svg width="303" height="183" viewBox="0 0 303 183" fill="none" xmlns="http://www.w3.org/2000/svg">
<g clip-path="url(#clip0_417_55282)">
<rect width="303" height="183" rx="20" fill="#F18C53"/>
<path d="M227.762 -0.322532L243.992 15.8419L217.168 42.5581L200.939 26.3937L227.762 -0.322532ZM168.705 -5.71068L184.934 10.4538L211.758 -16.2624L195.529 -32.4269L168.705 -5.71068ZM177.496 81.8466L193.725 98.0111L233.398 58.498L217.168 42.3336L177.496 81.8466ZM145.262 49.7423L161.492 65.9067L201.164 26.3937L184.934 10.2292L145.262 49.7423ZM243.766 15.6174L259.996 31.7818L299.668 -7.73123L283.439 -23.8957L243.766 15.6174ZM275.098 48.6198L291.328 64.7842L331 25.2711L314.77 9.10671L275.098 48.6198ZM211.533 -16.487L227.762 -0.322532L267.434 -39.8356L251.205 -56L211.533 -16.487ZM215.139 172.547L198.91 156.383L225.734 129.666L241.963 145.831L215.139 172.547ZM274.197 177.935L257.967 161.771L231.143 188.487L247.373 204.651L274.197 177.935ZM265.406 90.3779L249.176 74.2134L209.729 113.726L225.959 129.891L265.406 90.3779ZM297.639 122.482L281.41 106.318L241.738 145.831L257.967 161.995L297.639 122.482ZM198.91 156.383L182.68 140.218L143.008 179.731L159.238 195.896L198.91 156.383ZM166.902 124.503L150.672 108.338L111 147.851L127.23 164.016L166.902 124.503ZM231.143 188.487L214.914 172.323L175.242 211.836L191.471 228L231.143 188.487Z" fill="url(#paint0_linear_417_55282)"/>
</g>
<defs>
<linearGradient id="paint0_linear_417_55282" x1="221" y1="-56" x2="221" y2="228" gradientUnits="userSpaceOnUse">
<stop stop-color="white" stop-opacity="0.14"/>
<stop offset="1" stop-color="white" stop-opacity="0"/>
</linearGradient>
<clipPath id="clip0_417_55282">
<rect width="303" height="183" rx="20" fill="white"/>
</clipPath>
</defs>
</svg>
