<svg width="87" height="57" viewBox="0 0 87 57" fill="none" xmlns="http://www.w3.org/2000/svg">
<path d="M11.3667 36.6864H11.8884V38.2152H13.8884V36.6864H14.3928V40.2535H13.8884V38.6228H11.8884V40.2535H11.3666V36.6864H11.3667ZM22.4795 38.9626C22.4795 39.8629 21.923 40.3385 20.9665 40.3385C19.9926 40.3385 19.4013 39.9138 19.4013 38.9626V36.6865H19.923V38.9626C19.923 39.5911 20.3056 39.9478 20.9665 39.9478C21.6099 39.9478 21.9752 39.5911 21.9752 38.9626V36.6865H22.4795V38.9626ZM28.7924 40.3555C27.6446 40.4234 26.9489 39.4722 26.9489 38.5379C26.9489 37.5017 27.5576 36.6015 28.775 36.6015C29.6098 36.6015 30.2706 36.9412 30.4098 37.7905H29.9054C29.8011 37.2469 29.3315 36.9922 28.775 36.9922C27.8359 36.9922 27.4533 37.7566 27.4533 38.521C27.4533 39.2683 27.9403 39.9818 28.862 39.9648C29.3315 39.9478 29.7141 39.8629 29.9054 39.5571C30.0445 39.3702 30.0097 39.0306 29.9924 38.7757H28.7751V38.3681H30.4446V39.71C30.0097 40.2366 29.488 40.3215 28.7924 40.3554V40.3555ZM36.6879 39.9478C37.6096 39.9478 38.0096 39.1834 38.0096 38.47C38.0096 37.7566 37.6096 36.9921 36.6879 36.9921C35.7488 36.9921 35.3662 37.7566 35.3662 38.47C35.3662 39.1834 35.7488 39.9478 36.6879 39.9478V39.9478ZM36.6879 36.6015C37.9052 36.6015 38.5139 37.5017 38.5139 38.47C38.5139 39.4382 37.9052 40.3385 36.6879 40.3385C35.4705 40.3385 34.8618 39.4382 34.8618 38.47C34.8618 37.5017 35.4705 36.6015 36.6879 36.6015V36.6015ZM48.7571 38.2151H49.7658C50.3398 38.2151 50.5832 38.0283 50.5832 37.6546C50.5832 37.162 50.2179 37.0771 49.7658 37.0771H48.7571V38.2151V38.2151ZM48.7571 39.8629H50.0266C50.4614 39.8629 50.7397 39.6081 50.7397 39.2174C50.7397 38.7588 50.3398 38.6229 49.905 38.6229H48.757V39.8629H48.7571ZM48.2527 36.6864H49.6267C49.9746 36.6864 50.4093 36.6864 50.6354 36.8053C50.8962 36.9582 51.0875 37.213 51.0875 37.5527C51.0875 37.9434 50.8789 38.2322 50.531 38.3681C51.0006 38.453 51.2615 38.7927 51.2615 39.2344C51.2615 39.761 50.844 40.2535 50.0963 40.2535H48.2528V36.6864H48.2527ZM57.6439 39.9478C58.583 39.9478 58.9656 39.1834 58.9656 38.47C58.9656 37.7566 58.583 36.9921 57.6439 36.9921C56.7222 36.9921 56.3222 37.7566 56.3222 38.47C56.3222 39.1834 56.7222 39.9478 57.6439 39.9478V39.9478ZM57.6439 36.6015C58.8612 36.6015 59.4873 37.5017 59.4873 38.47C59.4873 39.4382 58.8612 40.3385 57.6439 40.3385C56.4266 40.3385 55.8179 39.4382 55.8179 38.47C55.8179 37.5017 56.4265 36.6015 57.6438 36.6015H57.6439ZM66.4959 37.7395C66.4437 37.213 66.0785 36.9922 65.5568 36.9922C65.122 36.9922 64.7045 37.145 64.7045 37.6037C64.7045 38.0454 65.3133 38.1133 65.9219 38.2491C66.5306 38.3681 67.1394 38.5719 67.1394 39.2853C67.1394 40.0328 66.3393 40.3385 65.6437 40.3385C64.7915 40.3385 64.0785 39.9478 64.0785 39.0815H64.5481C64.5481 39.676 65.0872 39.9478 65.6611 39.9478C66.1307 39.9478 66.635 39.8119 66.635 39.2853C66.635 38.7927 66.0264 38.7248 65.4176 38.5889C64.809 38.47 64.1829 38.3001 64.1829 37.6377C64.1829 36.9242 64.8786 36.6015 65.5742 36.6015C66.3568 36.6015 66.948 36.9412 66.9828 37.7395H66.4959H66.4959ZM74.7391 37.7395C74.6696 37.213 74.3044 36.9922 73.7826 36.9922C73.3652 36.9922 72.9305 37.145 72.9305 37.6037C72.9305 38.0454 73.5392 38.1133 74.1653 38.2491C74.7739 38.3681 75.3826 38.5719 75.3826 39.2853C75.3826 40.0328 74.5826 40.3385 73.887 40.3385C73.0347 40.3385 72.3044 39.9478 72.3044 39.0815H72.7914C72.7914 39.676 73.3305 39.9478 73.9044 39.9478C74.3566 39.9478 74.8783 39.8119 74.8783 39.2853C74.8783 38.7927 74.2522 38.7248 73.6436 38.5889C73.0348 38.47 72.4262 38.3001 72.4262 37.6377C72.4262 36.9242 73.1044 36.6015 73.8174 36.6015C74.5826 36.6015 75.1913 36.9412 75.2087 37.7395H74.7391ZM15.8536 17.8314V24.2523H18.2362C18.2362 24.2523 18.4448 24.2353 18.5666 24.2014C19.9578 24.0824 20.8447 22.4517 20.9317 21.2627C21.0708 19.9887 20.2709 17.8824 18.271 17.8314C17.6796 17.8145 15.8536 17.8314 15.8536 17.8314V17.8314ZM15.8536 24.9997V32.6946H18.01C18.01 32.6946 19.2275 32.7795 20.323 31.9132C21.4012 31.0639 21.9578 29.8069 21.8361 28.363C21.7491 27.0721 20.7404 25.2375 18.4796 24.9998H15.8536V24.9997ZM20.9318 17.0841C22.7231 17.1859 23.8882 18.1202 23.9926 18.2391C24.9143 19.0714 25.1926 20.3284 24.9665 21.5345C24.6709 23.5559 22.097 24.4051 22.097 24.4051C24.2534 24.66 25.8708 26.2397 26.1143 27.9384C26.323 29.603 25.6969 31.0808 24.2883 32.117C22.8622 33.1532 20.7753 33.493 19.6448 33.493H10.4277V32.7795C11.6103 32.7965 11.7494 32.7965 11.7494 32.3378C11.7321 30.6052 11.7494 18.5109 11.7494 18.1881C11.7494 17.8145 11.5581 17.7975 10.4277 17.7975C10.4103 17.5087 10.4451 17.0841 10.4451 17.0841H20.9318V17.0841ZM35.1574 17.9673C34.0096 18.7147 33.2097 20.4304 32.8271 21.8572C32.2184 24.0145 32.3401 26.5625 32.9488 29.1784C33.5749 31.7943 35.2966 32.7115 36.3227 32.9324C38.2357 33.357 39.4878 32.2699 40.1661 31.2677C41.4877 29.3143 41.8182 25.2885 41.4008 22.9783C41.0182 20.8381 40.4269 19.3432 39.2791 18.341C37.9922 17.2369 36.1487 17.3219 35.1574 17.9673V17.9673ZM45.4703 28.1252C44.6703 30.4524 43.0703 31.9132 41.2268 32.8645C38.8095 34.1384 35.3487 34.3423 32.9314 32.9324C31.4359 32.0661 27.6273 29.7559 28.1315 24.3033C28.2358 23.1312 28.8446 20.1926 32.201 17.9842C34.4966 16.5235 37.8009 16.0989 40.8791 17.4917C45.679 19.632 46.6876 24.9148 45.4703 28.1252V28.1252ZM59.5742 17.8484C59.5917 19.0714 59.5742 21.6024 59.5742 21.6024L58.9656 21.6194C58.6004 20.0397 57.8178 18.6808 56.4788 18.0523C55.1918 17.4408 53.244 17.135 51.9744 18.2221C51.2267 18.8675 51.1223 19.5301 51.3832 20.2775C51.8354 21.3816 53.0875 21.7213 54.0614 22.146C54.8614 22.4517 56.5656 22.9953 56.5656 22.9953C58.4612 23.6408 60.5656 24.8978 61.1395 26.9871C61.4003 27.8874 61.4003 28.9067 61.1916 29.8239C60.7221 31.8622 59.383 32.3548 58.6178 32.8644C58.2352 33.1192 54.6526 34.4612 50.3398 33.0853C49.4528 32.7965 48.4266 32.4568 48.4266 32.4568V27.8874C48.4266 27.8874 48.8963 27.9044 49.0876 27.9044C49.3832 28.6348 49.6441 29.5181 50.2702 30.4014C51.7309 32.4738 53.8005 33.1022 56.0787 32.6266C56.9831 32.4228 57.9743 31.8113 58.2352 30.8941C58.5656 29.8579 58.4612 28.1422 55.2613 26.9871C52.9483 25.9509 50.0441 25.5263 48.6702 23.0123C48.1311 21.6024 48.2876 19.1564 50.0614 17.9673C51.8528 16.7783 53.5918 16.5065 55.6961 16.7783C57.7831 17.067 58.3395 17.3388 59.5742 17.8484V17.8484ZM74.8087 17.8484C74.8261 19.0714 74.8087 21.6024 74.8087 21.6024L74.2001 21.6194C73.8348 20.0397 73.0522 18.6808 71.7131 18.0523C70.4262 17.4408 68.4784 17.135 67.2089 18.2221C66.4611 18.8675 66.3568 19.5301 66.6176 20.2775C67.0698 21.3816 68.3219 21.7213 69.2958 22.146C70.0958 22.4517 71.8001 22.9953 71.8001 22.9953C73.6957 23.6408 75.7999 24.8978 76.3739 26.9871C76.6348 27.8874 76.6348 28.9067 76.426 29.8239C75.9565 31.8622 74.6174 32.3548 73.8522 32.8644C73.4696 33.1192 69.8871 34.4612 65.5742 33.0853C64.6872 32.7965 63.6611 32.4568 63.6611 32.4568V27.8874C63.6611 27.8874 64.1307 27.9044 64.322 27.9044C64.6176 28.6348 64.8785 29.5181 65.5046 30.4014C66.9654 32.4738 69.0349 33.1022 71.3132 32.6266C72.2175 32.4228 73.2088 31.8113 73.4696 30.8941C73.8 29.8579 73.6957 28.1422 70.4958 26.9871C68.1827 25.9509 65.2785 25.5263 63.9046 23.0123C63.3655 21.6024 63.522 19.1564 65.3133 17.9673C67.0871 16.7783 68.8262 16.5065 70.9132 16.7783C73.0174 17.067 73.574 17.3388 74.8087 17.8484V17.8484Z" fill="#231F20"/>
</svg>
