<svg width="72" height="72" viewBox="0 0 72 72" fill="none" xmlns="http://www.w3.org/2000/svg">
<g clip-path="url(#clip0_417_34132)">
<rect x="1" y="1" width="70" height="70" rx="35" fill="white" stroke="#F18C53" stroke-width="2"/>
<mask id="mask0_417_34132" style="mask-type:alpha" maskUnits="userSpaceOnUse" x="2" y="2" width="68" height="68">
<rect x="2" y="2" width="68" height="68" rx="34" fill="white"/>
</mask>
<g mask="url(#mask0_417_34132)">
<path opacity="0.17" d="M29.0551 -0.0193316C28.8142 -0.420938 28.3801 -0.666672 27.9118 -0.666672H15.0217C13.9853 -0.666672 13.3451 0.463955 13.8783 1.35266L28.2783 25.3527C28.5193 25.7543 28.9533 26 29.4217 26H42.3118C43.3482 26 43.9883 24.8694 43.4551 23.9807L29.0551 -0.0193316Z" fill="#9CA3AF"/>
<path d="M42.9448 -0.0193316C43.1858 -0.420938 43.6198 -0.666672 44.0882 -0.666672H56.9783C58.0147 -0.666672 58.6548 0.463955 58.1216 1.35266L43.7216 25.3527C43.4807 25.7543 43.0467 26 42.5783 26H29.6882C28.6518 26 28.0116 24.8694 28.5448 23.9807L42.9448 -0.0193316Z" fill="#EEF1F4"/>
<path d="M41.9778 20.2354C44.7418 19.8295 47.1432 20.3541 48.7279 21.9389C50.3127 23.5237 50.8373 25.925 50.4314 28.689C52.6729 30.3565 54 32.4255 54 34.6667C54 36.9079 52.6729 38.9769 50.4314 40.6443C50.8373 43.4085 50.3127 45.8099 48.7279 47.3947C47.1432 48.9795 44.7417 49.5041 41.9776 49.0982C40.3101 51.3396 38.2412 52.6667 36 52.6667C33.7589 52.6667 31.6899 51.3396 30.0224 49.0982C27.2583 49.5041 24.8569 48.9795 23.2721 47.3947C21.6873 45.8099 21.1627 43.4085 21.5686 40.6443C19.3271 38.9769 18 36.9079 18 34.6667C18 32.4255 19.3271 30.3565 21.5686 28.689C21.1628 25.925 21.6874 23.5236 23.2721 21.9389C24.8569 20.3541 27.2583 19.8295 30.0223 20.2353C31.6897 17.9938 33.7587 16.6667 36 16.6667C38.2413 16.6667 40.3103 17.9939 41.9778 20.2354Z" fill="#DCA16A"/>
<path d="M40.4281 23.9769C42.4755 23.6762 44.2543 24.0648 45.4281 25.2387C46.6021 26.4126 46.9907 28.1914 46.69 30.2388C48.3503 31.4739 49.3334 33.0065 49.3334 34.6667C49.3334 36.3268 48.3503 37.8594 46.69 39.0945C46.9907 41.1421 46.6021 42.9209 45.4282 44.0949C44.2543 45.2687 42.4754 45.6573 40.4279 45.3567C39.1928 47.017 37.6602 48 36.0001 48C34.3399 48 32.8074 47.017 31.5722 45.3567C29.5247 45.6574 27.7459 45.2688 26.572 44.0949C25.3981 42.9209 25.0095 41.1421 25.3101 39.0946C23.6498 37.8594 22.6667 36.3268 22.6667 34.6667C22.6667 33.0065 23.6498 31.4739 25.3101 30.2387C25.0095 28.1913 25.3981 26.4125 26.572 25.2387C27.7459 24.0648 29.5247 23.6762 31.5721 23.9768C32.8073 22.3164 34.3399 21.3333 36.0001 21.3333C37.6603 21.3333 39.1929 22.3164 40.4281 23.9769Z" fill="#F7BA82"/>
<path fill-rule="evenodd" clip-rule="evenodd" d="M38.6224 39.2422C39.362 38.6328 39.7318 37.8229 39.7318 36.8125C39.7318 36.1875 39.5729 35.6459 39.2552 35.1875C39.2037 35.1121 39.1479 35.0397 39.0875 34.9705C38.7813 34.6191 38.3607 34.3477 37.8255 34.1563C38.3078 33.9371 38.7035 33.629 39.0126 33.2321C39.034 33.2046 39.055 33.1767 39.0755 33.1485C39.3932 32.7109 39.5521 32.2318 39.5521 31.7109C39.5521 30.7005 39.2109 29.9089 38.5287 29.3359C37.8463 28.7578 36.9037 28.4687 35.7005 28.4687C35.0078 28.4687 34.3724 28.6015 33.7943 28.8672C33.2213 29.1328 32.7735 29.5026 32.4505 29.9765C32.3931 30.0613 32.3408 30.1481 32.2937 30.237C32.0805 30.6395 31.9739 31.0839 31.9739 31.5703H34.2318C34.2318 31.1901 34.3776 30.8828 34.6693 30.6485C34.9609 30.4089 35.3229 30.2891 35.7552 30.2891C36.2344 30.2891 36.6094 30.4167 36.8802 30.6719C37.1563 30.9271 37.2943 31.2839 37.2943 31.7422C37.2943 32.2161 37.1563 32.5963 36.8802 32.8828C36.6041 33.1693 36.1797 33.3125 35.6068 33.3125H34.4037V35.0781H35.5989C36.8489 35.0781 37.4739 35.6459 37.4739 36.7813C37.4739 37.25 37.3203 37.6276 37.013 37.9141C36.7109 38.1953 36.2917 38.3359 35.7552 38.3359C35.2865 38.3359 34.8906 38.2005 34.5677 37.9297C34.25 37.6589 34.0911 37.3099 34.0911 36.8828H31.8333C31.8333 37.3755 31.9234 37.82 32.1035 38.2161C32.2831 38.6115 32.5525 38.9587 32.9115 39.2578C33.6354 39.8568 34.5651 40.1563 35.7005 40.1563C36.9141 40.1563 37.888 39.8515 38.6224 39.2422Z" fill="#C28044"/>
</g>
</g>
<defs>
<clipPath id="clip0_417_34132">
<rect width="72" height="72" rx="36" fill="white"/>
</clipPath>
</defs>
</svg>
