<svg width="87" height="57" viewBox="0 0 87 57" fill="none" xmlns="http://www.w3.org/2000/svg">
<path d="M59.7067 32.591L57.6553 29.0756C58.5639 28.6506 59.1426 27.7545 59.1436 26.7704C59.1436 25.3559 57.965 24.2051 56.5166 24.2051H52.1291V32.5906H54.0803V29.3358H55.6332L57.5325 32.591H59.7067ZM54.0482 27.717V25.8279H56.1511L56.143 25.8311C56.7831 25.8646 57.1909 26.227 57.1909 26.7743C57.1909 27.3156 56.754 27.6949 56.1027 27.7175H54.0482V27.717ZM44.1609 32.591V24.2051H50.5755V25.8051H46.1647V27.4828H50.0321V29.1185H46.1647V30.9073H50.7937V32.591H44.1609ZM35.0118 32.591L32.9604 29.0756C33.8689 28.6506 34.4476 27.7543 34.4484 26.7704C34.4484 25.3559 33.2701 24.2051 31.8219 24.2051H27.4341V32.5906H29.3854V29.3358H30.9388L32.8378 32.591H35.0118ZM29.3529 27.717V25.8279H31.456L31.4478 25.8311C32.0879 25.8646 32.4961 26.227 32.4961 26.7743C32.4961 27.3156 32.059 27.6949 31.4075 27.7175H29.3529V27.717ZM22.2343 32.7976C24.5818 32.7976 25.9837 31.4793 25.9837 29.2714V24.2112H23.98V29.1406C23.98 30.3344 23.3437 31.0191 22.2345 31.0191H22.2333C21.1241 31.0191 20.4882 30.3345 20.4882 29.1406V24.2112H18.4836V29.2718C18.4836 31.4794 19.8856 32.7978 22.2333 32.7978H22.2343V32.7976ZM15.8629 27.9465C17.0192 28.3316 17.5829 29.2924 17.5829 30.2189C17.5829 31.5241 16.4977 32.5868 15.1625 32.591H10.4229V24.2044H14.7882C15.9246 24.2147 16.8407 25.1168 16.842 26.2269C16.8435 26.9271 16.4728 27.578 15.8629 27.9462V27.9465ZM12.3899 31.0262H14.5806C15.2693 31.0262 15.6295 30.5246 15.6295 30.0286C15.6295 29.6291 15.3043 29.0667 14.5806 29.0667H12.3899V31.0262ZM13.994 27.5025C14.4985 27.5025 14.8943 27.1218 14.8943 26.6359C14.8943 26.166 14.4813 25.7693 13.9937 25.7693H12.3899V27.5025H13.994ZM41.3651 27.9449C42.5214 28.3297 43.085 29.2908 43.085 30.2172C43.085 31.5227 41.9999 32.5848 40.6647 32.5893L35.9252 32.589V24.2028L40.2899 24.2026C41.4265 24.2131 42.3426 25.1154 42.344 26.2256C42.3453 26.9258 41.9748 27.5765 41.3649 27.9445L41.3651 27.9449ZM37.892 31.0246H40.0826C40.7712 31.0246 41.1315 30.523 41.1315 30.027C41.1315 29.6277 40.8059 29.0651 40.0826 29.0651H37.892V31.0246ZM39.4957 27.5008C40.0008 27.5008 40.3966 27.1202 40.3966 26.6343C40.3966 26.1644 39.9836 25.7677 39.4957 25.7677H37.892V27.5008H39.4957ZM68.1978 32.591L66.1463 29.0756C67.0549 28.6506 67.6333 27.7543 67.6342 26.7704C67.6342 25.3559 66.4561 24.2051 65.0079 24.2051H60.6202V32.5906H62.5715V29.3358H64.1248L66.0238 32.591H68.198H68.1978ZM62.5388 27.717V25.8279H64.642L64.6337 25.8311C65.2738 25.8646 65.6822 26.227 65.6822 26.7743C65.6822 27.3156 65.2451 27.6949 64.5934 27.7175H62.5388V27.717ZM71.0489 32.591V29.1738L67.6429 24.2051H70.145L72.1056 27.0881L74.0746 24.2051H76.5767L73.1625 29.1738V32.591H71.0489Z" fill="black"/>
</svg>
