<svg width="87" height="57" viewBox="0 0 87 57" fill="none" xmlns="http://www.w3.org/2000/svg">
<path d="M24.4232 19.5142C23.8575 19.5129 23.2257 19.5772 22.5404 19.7475C22.5404 19.7475 19.0265 20.5993 15.1536 24.1316C15.1536 24.1316 13.3069 25.9604 11.9988 28.3153C11.9988 28.3153 10.6394 30.7704 10.4342 32.8247C10.4342 32.8247 10.229 35.1295 11.5628 36.307C11.5628 36.307 13.1017 37.6848 16.4616 37.4093C16.4616 37.4093 18.5648 37.1587 20.8476 35.7558C20.8476 35.7558 21.9505 35.0544 22.6686 34.403C22.6686 34.403 22.3352 35.5805 22.8225 36.4322C22.8225 36.4322 23.2842 37.2339 24.3358 37.4093C24.3358 37.4093 25.1052 37.5596 26.2081 37.1587C26.2081 37.1587 26.9006 36.8581 27.3623 36.6327C27.3623 36.6327 28.3113 36.1316 29.2347 35.4301C29.2347 35.4301 29.0551 36.1316 29.4655 36.7329C29.4655 36.7329 29.9528 37.4093 30.8505 37.4844C30.8505 37.4844 33.2615 37.6598 36.6215 33.6264L34.2618 37.3341L36.4163 37.3091L38.2886 34.1525C38.2886 34.1525 40.2379 30.8957 40.6483 30.4949C40.6483 30.4949 41.6486 29.1922 43.1619 28.8915L44.1622 28.9667C44.1622 28.9667 44.5726 29.1671 44.5726 29.618L43.8288 29.4928C43.8288 29.4928 43.3927 29.5429 43.1619 29.9938C43.1619 29.9938 42.9567 30.4197 43.0593 30.8456C43.0593 30.8456 43.1875 31.1963 43.521 31.3216L43.7518 31.3967L44.4956 31.2965C44.4956 31.2965 45.8037 30.8205 47.5991 28.616L47.1887 29.3425L45.6755 31.8727L43.9057 34.9291C43.9057 34.9291 43.3927 35.9312 43.6236 36.5324C43.6236 36.5324 43.8544 37.1086 44.6239 37.259L46.291 37.1337C46.291 37.1337 47.24 36.8581 48.0095 36.2068L49.1124 35.3299C49.1124 35.3299 50.4461 34.2276 51.6516 32.9249L51.5746 33.0251C51.5746 33.0251 50.5231 34.9041 50.3435 35.5304C50.3435 35.5304 49.9331 36.8581 50.8821 37.3842L51.9594 37.4844C51.9594 37.4844 52.8571 37.3592 53.7548 36.7329L55.2168 35.5053C55.2168 35.5053 56.4735 34.3529 57.1404 33.5262C57.1404 33.5262 56.807 34.2777 56.73 34.8289C56.73 34.8289 56.4735 36.5825 58.1407 37.284L59.7053 37.4093C59.7053 37.4093 60.3208 37.3592 61.2698 37.0335C61.2698 37.0335 63.4756 36.332 66.5791 33.5512C66.5791 33.5512 68.1437 32.1483 69.2466 30.8957L65.348 37.284H67.2716L68.7079 34.9291L70.5547 31.998C70.5547 31.998 71.6062 30.3696 73.5299 29.3174C73.5299 29.3174 74.2994 28.8665 74.8893 28.7663C74.8893 28.7663 75.5048 28.641 75.6331 28.9416C75.6331 28.9416 74.761 28.7663 74.5558 29.6431C74.5558 29.6431 74.3507 30.5199 75.0688 30.7955C75.0688 30.7955 75.6074 30.9709 76.0435 30.6702C76.0435 30.6702 76.4282 30.3947 76.5564 29.8686C76.5564 29.8686 76.659 29.3425 76.4025 28.9667C76.4025 28.9667 76.0948 28.5157 75.3766 28.4656C75.3766 28.4656 74.5815 28.4406 72.9913 29.4677C72.9913 29.4677 71.8114 30.2193 71.3241 30.6953L72.6322 28.5157H70.6829C70.6829 28.5157 68.8362 31.5721 65.5788 34.2026C65.5788 34.2026 62.3984 36.7329 60.603 36.808C60.603 36.808 58.8589 36.9333 58.6793 35.6306C58.6793 35.6306 58.5767 34.8539 59.0384 33.7517C59.0384 33.7517 60.1156 33.8519 61.552 33.4009C61.552 33.4009 62.9114 32.975 64.0399 32.2235C64.0399 32.2235 65.2454 31.4218 65.6814 30.57C65.6814 30.57 66.1944 29.618 65.6045 28.8164C65.6045 28.8164 64.5272 27.7892 62.1932 28.7412C62.1932 28.7412 59.7822 29.7183 57.9868 32.0481L57.5251 32.7245L57.4738 32.7997L56.1914 34.2527L54.8833 35.5304C54.8833 35.5304 53.2931 37.0585 52.498 36.6076C52.498 36.6076 52.1902 36.4072 52.1902 35.9312C52.1902 35.9312 52.1902 35.4552 52.5493 34.879L56.2683 28.5659H54.6012C54.6012 28.5659 53.6778 30.0439 52.6006 31.4469C52.6006 31.4469 50.4974 34.1775 48.2147 35.7558C48.2147 35.7558 46.6501 36.9333 45.7781 36.5324C45.7781 36.5324 45.3933 36.3571 45.419 35.8811C45.419 35.8811 45.4446 35.355 45.9576 34.6285L49.5997 28.5659L51.6259 28.5408L51.8824 28.2903H49.8305L52.0107 24.5074L50.164 24.5325C50.164 24.5325 48.8815 26.6619 47.9069 27.9395C47.9069 27.9395 46.1115 30.2443 44.6239 30.8707C44.6239 30.8707 44.8803 30.545 44.906 30.0439L44.8803 29.6431C44.8803 29.6431 44.7778 29.117 44.2648 28.8665L43.8031 28.7412L42.931 28.8164C42.931 28.8164 41.9051 29.0418 40.9561 29.8435L41.7512 28.5408H39.9045C39.9045 28.5408 38.2373 31.4469 36.0572 33.927C36.0572 33.927 33.2102 37.1337 31.6456 36.7579C31.6456 36.7579 31.184 36.5324 31.1583 35.9813C31.1583 35.9813 31.1583 35.4301 31.6456 34.6535L35.3647 28.5157L33.518 28.5408L32.9281 29.5429L32.5433 30.2694C32.5433 30.2694 32.6203 30.0439 32.5433 29.5679C32.5433 29.5679 32.3895 28.4406 31.2866 28.2151L30.4145 28.14C30.4145 28.14 28.2087 28.1149 25.6952 30.2694C25.6952 30.2694 23.9767 31.7725 22.6686 34.0523C22.6686 34.0523 20.0525 36.4322 17.2824 36.9583C17.2824 36.9583 14.8201 37.4594 13.7685 36.3821C13.7685 36.3821 12.6143 35.2297 12.6143 33.2256C12.6143 33.2256 12.64 30.8456 14.3841 27.6139C14.3841 27.6139 16.2308 24.9583 17.3593 23.7558C17.3593 23.7558 20.232 20.6744 23.2072 19.8978C23.2072 19.8978 25.6439 19.2715 27.0032 20.3487C27.0032 20.3487 28.1574 21.2757 28.26 23.1546L28.9269 22.0523C28.9269 22.0523 29.7733 20.7496 30.5171 19.998C30.5171 19.998 29.8246 20.2986 28.9782 20.3988C28.9782 20.3988 27.9266 20.5241 27.4136 20.2235C27.4136 20.2235 26.271 19.5186 24.4231 19.5142L24.4232 19.5142ZM30.687 28.367C31.4385 28.3707 31.8252 28.7162 31.8252 28.7162C32.7229 29.5178 32.0047 31.021 32.0047 31.021C30.6197 33.8268 28.5935 35.5304 28.5935 35.5304L27.3623 36.3821C25.4387 37.3091 24.6179 36.6577 24.6179 36.6577C23.951 36.1066 24.2332 34.8539 24.2332 34.8539C24.4127 34.0022 25.1309 32.7746 25.1309 32.7746L26.5159 30.7955C27.7727 29.4427 29.209 28.7412 29.209 28.7412C29.7997 28.4571 30.2934 28.3651 30.687 28.367ZM63.6816 28.5878C63.7074 28.5875 63.7329 28.5886 63.7578 28.5909C63.7578 28.5909 64.1681 28.641 64.3477 28.8414C64.3477 28.8414 64.5272 29.0919 64.4759 29.593C64.4759 29.593 64.3477 30.9208 62.8344 32.1734C62.8344 32.1734 61.1159 33.6013 59.1153 33.5512L59.5001 32.7746C59.5001 32.7746 60.3721 31.1212 61.6546 29.8435C61.6546 29.8435 62.882 28.5973 63.6816 28.5878Z" fill="black"/>
<path d="M55.8838 25.7851C55.8838 25.7851 55.8838 26.1107 56.1403 26.3613C56.1403 26.3613 56.3711 26.5867 56.7302 26.5867C56.7302 26.5867 57.0636 26.5867 57.2945 26.3613C57.2945 26.3613 57.5253 26.1107 57.5253 25.7851L57.2945 25.2089C57.2945 25.2089 57.038 24.9834 56.7302 24.9834C56.7302 24.9834 56.3711 24.9834 56.1403 25.2089C56.1403 25.2089 55.8838 25.4343 55.8838 25.7851" fill="black"/>
</svg>
