<svg width="48" height="32" viewBox="0 0 48 32" fill="none" xmlns="http://www.w3.org/2000/svg">
<path d="M13.3527 10.8652C13.037 10.8645 12.6843 10.9013 12.3018 10.9986C12.3018 10.9986 10.3406 11.4853 8.17897 13.5038C8.17897 13.5038 7.14825 14.5488 6.41816 15.8945C6.41816 15.8945 5.65944 17.2974 5.54491 18.4713C5.54491 18.4713 5.43039 19.7883 6.1748 20.4611C6.1748 20.4611 7.03373 21.2485 8.90906 21.091C8.90906 21.091 10.0829 20.9479 11.357 20.1462C11.357 20.1462 11.9726 19.7454 12.3734 19.3731C12.3734 19.3731 12.1873 20.046 12.4593 20.5327C12.4593 20.5327 12.717 20.9908 13.3039 21.091C13.3039 21.091 13.7334 21.1769 14.349 20.9479C14.349 20.9479 14.7355 20.7761 14.9932 20.6472C14.9932 20.6472 15.5228 20.3609 16.0382 19.9601C16.0382 19.9601 15.938 20.3609 16.167 20.7045C16.167 20.7045 16.439 21.091 16.9401 21.134C16.9401 21.134 18.2857 21.2342 20.1611 18.9294L18.844 21.0481L20.0465 21.0337L21.0916 19.23C21.0916 19.23 22.1796 17.369 22.4086 17.1399C22.4086 17.1399 22.9669 16.3955 23.8115 16.2237L24.3698 16.2667C24.3698 16.2667 24.5989 16.3812 24.5989 16.6389L24.1837 16.5673C24.1837 16.5673 23.9404 16.5959 23.8115 16.8536C23.8115 16.8536 23.697 17.097 23.7543 17.3403C23.7543 17.3403 23.8258 17.5408 24.0119 17.6123L24.1408 17.6553L24.5559 17.598C24.5559 17.598 25.286 17.326 26.2881 16.0663L26.0591 16.4814L25.2144 17.9273L24.2267 19.6738C24.2267 19.6738 23.9404 20.2464 24.0692 20.59C24.0692 20.59 24.198 20.9192 24.6275 21.0051L25.558 20.9335C25.558 20.9335 26.0877 20.7761 26.5172 20.4039L27.1327 19.9028C27.1327 19.9028 27.8771 19.2729 28.55 18.5285L28.507 18.5858C28.507 18.5858 27.9201 19.6595 27.8199 20.0173C27.8199 20.0173 27.5908 20.7761 28.1205 21.0767L28.7218 21.134C28.7218 21.134 29.2228 21.0624 29.7238 20.7045L30.5398 20.003C30.5398 20.003 31.2413 19.3445 31.6135 18.8721C31.6135 18.8721 31.4274 19.3016 31.3844 19.6165C31.3844 19.6165 31.2413 20.6186 32.1718 21.0194L33.045 21.091C33.045 21.091 33.3886 21.0624 33.9183 20.8763C33.9183 20.8763 35.1494 20.4754 36.8816 18.8864C36.8816 18.8864 37.7549 18.0848 38.3704 17.369L36.1945 21.0194H37.2681L38.0698 19.6738L39.1005 17.9989C39.1005 17.9989 39.6874 17.0683 40.7611 16.4671C40.7611 16.4671 41.1906 16.2094 41.5198 16.1522C41.5198 16.1522 41.8634 16.0806 41.935 16.2524C41.935 16.2524 41.4483 16.1522 41.3337 16.6532C41.3337 16.6532 41.2192 17.1542 41.62 17.3117C41.62 17.3117 41.9207 17.4119 42.164 17.2401C42.164 17.2401 42.3788 17.0827 42.4503 16.782C42.4503 16.782 42.5076 16.4814 42.3645 16.2667C42.3645 16.2667 42.1927 16.009 41.7918 15.9804C41.7918 15.9804 41.348 15.9661 40.4605 16.553C40.4605 16.553 39.802 16.9825 39.53 17.2545L40.2601 16.009H39.1721C39.1721 16.009 38.1414 17.7555 36.3233 19.2586C36.3233 19.2586 34.5482 20.7045 33.5461 20.7474C33.5461 20.7474 32.5726 20.819 32.4724 20.0746C32.4724 20.0746 32.4152 19.6308 32.6728 19.0009C32.6728 19.0009 33.2741 19.0582 34.0758 18.8005C34.0758 18.8005 34.8345 18.5572 35.4644 18.1277C35.4644 18.1277 36.1372 17.6696 36.3806 17.1829C36.3806 17.1829 36.6669 16.6389 36.3376 16.1808C36.3376 16.1808 35.7364 15.5938 34.4336 16.1378C34.4336 16.1378 33.088 16.6961 32.0859 18.0275L31.8282 18.414L31.7996 18.457L31.0838 19.2873L30.3537 20.0173C30.3537 20.0173 29.4662 20.8906 29.0224 20.6329C29.0224 20.6329 28.8506 20.5184 28.8506 20.2464C28.8506 20.2464 28.8506 19.9744 29.051 19.6451L31.1268 16.0376H30.1962C30.1962 16.0376 29.6809 16.8822 29.0796 17.6839C29.0796 17.6839 27.9058 19.2443 26.6317 20.1462C26.6317 20.1462 25.7584 20.819 25.2717 20.59C25.2717 20.59 25.057 20.4898 25.0713 20.2178C25.0713 20.2178 25.0856 19.9171 25.3719 19.502L27.4047 16.0376L28.5356 16.0233L28.6788 15.8802H27.5336L28.7504 13.7185L27.7197 13.7328C27.7197 13.7328 27.0039 14.9497 26.4599 15.6797C26.4599 15.6797 25.4578 16.9968 24.6275 17.3547C24.6275 17.3547 24.7707 17.1686 24.785 16.8822L24.7707 16.6532C24.7707 16.6532 24.7134 16.3526 24.4271 16.2094L24.1694 16.1378L23.6827 16.1808C23.6827 16.1808 23.1101 16.3096 22.5804 16.7677L23.0242 16.0233H21.9935C21.9935 16.0233 21.0629 17.6839 19.8461 19.1012C19.8461 19.1012 18.2571 20.9335 17.3839 20.7188C17.3839 20.7188 17.1262 20.59 17.1119 20.275C17.1119 20.275 17.1119 19.9601 17.3839 19.5163L19.4596 16.009L18.4289 16.0233L18.0996 16.5959L17.8849 17.0111C17.8849 17.0111 17.9278 16.8822 17.8849 16.6103C17.8849 16.6103 17.799 15.9661 17.1834 15.8372L16.6967 15.7943C16.6967 15.7943 15.4656 15.78 14.0627 17.0111C14.0627 17.0111 13.1035 17.87 12.3734 19.1727C12.3734 19.1727 10.9132 20.5327 9.36716 20.8333C9.36716 20.8333 7.99287 21.1196 7.40593 20.5041C7.40593 20.5041 6.76173 19.8456 6.76173 18.7003C6.76173 18.7003 6.77605 17.3403 7.74951 15.4936C7.74951 15.4936 8.78022 13.9762 9.41011 13.2891C9.41011 13.2891 11.0134 11.5282 12.674 11.0845C12.674 11.0845 14.034 10.7266 14.7927 11.3421C14.7927 11.3421 15.4369 11.8718 15.4942 12.9455L15.8664 12.3156C15.8664 12.3156 16.3388 11.5712 16.754 11.1417C16.754 11.1417 16.3675 11.3135 15.895 11.3708C15.895 11.3708 15.3081 11.4423 15.0218 11.2706C15.0218 11.2706 14.3841 10.8678 13.3527 10.8653L13.3527 10.8652ZM16.8488 15.924C17.2682 15.9261 17.4841 16.1235 17.4841 16.1235C17.9851 16.5816 17.5843 17.4406 17.5843 17.4406C16.8112 19.0439 15.6803 20.0173 15.6803 20.0173L14.9932 20.5041C13.9195 21.0337 13.4614 20.6615 13.4614 20.6615C13.0892 20.3466 13.2467 19.6308 13.2467 19.6308C13.3469 19.1441 13.7477 18.4426 13.7477 18.4426L14.5207 17.3117C15.2222 16.5387 16.0239 16.1378 16.0239 16.1378C16.3536 15.9755 16.6291 15.9229 16.8488 15.924ZM35.2644 16.0502C35.2788 16.05 35.293 16.0506 35.3069 16.0519C35.3069 16.0519 35.5359 16.0806 35.6362 16.1951C35.6362 16.1951 35.7364 16.3383 35.7077 16.6246C35.7077 16.6246 35.6362 17.3833 34.7915 18.0991C34.7915 18.0991 33.8324 18.9151 32.7158 18.8864L32.9305 18.4426C32.9305 18.4426 33.4172 17.4978 34.133 16.7677C34.133 16.7677 34.8181 16.0556 35.2644 16.0502Z" fill="black"/>
<path d="M30.9121 14.4486C30.9121 14.4486 30.9121 14.6347 31.0553 14.7778C31.0553 14.7778 31.1841 14.9067 31.3845 14.9067C31.3845 14.9067 31.5706 14.9067 31.6995 14.7778C31.6995 14.7778 31.8283 14.6347 31.8283 14.4486L31.6995 14.1193C31.6995 14.1193 31.5563 13.9905 31.3845 13.9905C31.3845 13.9905 31.1841 13.9905 31.0553 14.1193C31.0553 14.1193 30.9121 14.2482 30.9121 14.4486Z" fill="black"/>
</svg>
