<svg width="87" height="57" viewBox="0 0 87 57" fill="none" xmlns="http://www.w3.org/2000/svg">
<path fill-rule="evenodd" clip-rule="evenodd" d="M22.2555 44.7114C22.2445 44.7317 22.235 44.7528 22.227 44.7744C21.4557 46.1974 19.9413 47.1668 18.213 47.1668C15.706 47.1668 13.6494 45.1161 13.6494 42.5836C13.6494 40.0653 15.7062 38.0003 18.213 38.0003C19.9488 38.0003 21.4701 38.9909 22.2341 40.4351C22.2557 40.463 22.2626 40.4768 22.2841 40.5186C22.2914 40.5257 20.8272 41.5582 20.8128 41.5374C20.8055 41.5095 20.7987 41.4885 20.7845 41.4744C20.3627 40.4489 19.3632 39.7653 18.213 39.7863C16.6775 39.8004 15.4132 41.0419 15.4132 42.5834C15.4132 44.1393 16.6775 45.3952 18.213 45.3952C19.3274 45.3952 20.2986 44.7253 20.7413 43.7766C20.763 43.7418 20.7701 43.7138 20.7845 43.6859L22.2555 44.7114V44.7114ZM24.1482 38.0842H25.9051V41.2863H30.5191V38.0842H32.2902V46.9926H30.5191V43.079H25.9051V46.9926H24.1482V38.0842ZM57.088 46.9926V38.0842H63.4658V39.8839H58.8662V41.6627H63.1158V43.4416H58.8662V45.2204H64.1155V46.9926H57.088ZM66.6082 46.9926V38.0842H68.3937V45.2204H73.3505V46.9926H66.608H66.6082ZM47.5029 46.9926H45.7175V38.0842H48.1957L52.1024 43.4416V38.0842H53.8737V46.9926H52.4596L47.5029 40.2747V46.9926V46.9926ZM38.9965 39.8837L37.4397 43.4416H40.6251L38.9965 39.8839V39.8837ZM36.6396 45.2204L35.8256 46.9926H33.7112L37.7537 38.0842H40.2248L44.2959 46.9926H42.1817L41.3606 45.2204H36.6394H36.6396ZM44.4173 34.6533C42.5016 35.7352 40.21 36.3782 37.7685 36.3782C32.7726 36.3782 28.3969 33.7179 26.0304 29.7733C26.0304 29.7552 26.0121 29.7552 26.0121 29.7367C26.0121 29.7184 25.9928 29.7184 25.9928 29.7001L27.9085 28.7282L29.8242 27.7737C29.8433 27.793 29.8626 27.8103 29.8809 27.8479C31.5148 30.434 34.4448 32.1588 37.7685 32.1588C38.8397 32.1588 39.8724 31.9756 40.7928 31.6814C38.7455 29.3887 37.506 26.3804 37.506 23.0962C37.506 19.8313 38.7271 16.823 40.7554 14.511C39.835 14.1995 38.8205 14.0346 37.7685 14.0346C34.4824 14.0346 31.4397 15.7586 29.7682 18.5288C29.7491 18.5471 29.7491 18.5664 29.7491 18.5837L25.8995 16.6397C25.9179 16.6032 25.937 16.5666 25.9553 16.5473C28.3036 12.5303 32.7352 9.8335 37.7685 9.8335C40.21 9.8335 42.5018 10.4757 44.4173 11.5766C46.333 10.4755 48.6246 9.8335 51.0653 9.8335C56.0988 9.8335 60.5312 12.5305 62.8787 16.5473C62.8974 16.5666 62.9162 16.6032 62.9349 16.6397L59.0849 18.5837C59.0849 18.5664 59.0849 18.5471 59.0662 18.5288C57.3949 15.7586 54.3524 14.0346 51.0653 14.0346C50.0143 14.0346 48.9998 14.1995 48.0794 14.511C50.1075 16.823 51.3289 19.8313 51.3289 23.0962C51.3289 26.3804 50.0892 29.3887 48.0418 31.6816C48.9622 31.9756 49.9949 32.1588 51.0653 32.1588C54.3899 32.1588 57.3198 30.434 58.9537 27.8479C58.9724 27.8103 58.9911 27.7928 59.0098 27.7737L60.9252 28.7282L62.8411 29.7001C62.8411 29.7184 62.8223 29.7184 62.8223 29.7367C62.8223 29.7552 62.8036 29.7552 62.8036 29.7733C60.4374 33.7179 56.0612 36.3782 51.0653 36.3782C48.6246 36.3782 46.333 35.7352 44.4175 34.6533H44.4173ZM44.4173 29.3887C42.8392 27.7562 41.8256 25.5366 41.8256 23.0962C41.8256 20.6934 42.7834 18.5105 44.4173 16.8781C46.0512 18.5105 47.009 20.6935 47.009 23.0962C47.009 25.5366 45.9944 27.7562 44.4173 29.3887Z" fill="#161413"/>
</svg>
