<svg width="136" height="136" viewBox="0 0 136 136" fill="none" xmlns="http://www.w3.org/2000/svg">
<circle cx="68" cy="68" r="68" fill="#F9FAFB"/>
<mask id="mask0_377_26930" style="mask-type:alpha" maskUnits="userSpaceOnUse" x="0" y="0" width="136" height="136">
<circle cx="68" cy="68" r="68" fill="#EFF4FF"/>
</mask>
<g mask="url(#mask0_377_26930)">
<path d="M68.5469 36.4614L85.501 1" stroke="white" stroke-width="2" stroke-miterlimit="10" stroke-linecap="round" stroke-linejoin="round"/>
<g filter="url(#filter0_d_377_26930)">
<path d="M108.426 29.0881V130.733C108.426 133.63 106.041 136 103.126 136H33.7019C30.7871 136 28.4023 133.63 28.4023 130.733V29.0881C28.4023 26.1915 30.7871 23.8215 33.7019 23.8215H103.126C106.041 23.8215 108.426 26.1915 108.426 29.0881Z" fill="white"/>
</g>
<path d="M33.3044 70.9576H30.7871V73.4592H33.3044V70.9576Z" fill="#F9FAFB"/>
<path d="M33.3044 65.9543H30.7871V68.456H33.3044V65.9543Z" fill="#F9FAFB"/>
<path d="M33.3044 60.951H30.7871V63.4527H33.3044V60.951Z" fill="#F9FAFB"/>
<path d="M33.3044 56.0795H30.7871V58.5811H33.3044V56.0795Z" fill="#F9FAFB"/>
<path d="M33.3044 46.0729H30.7871V48.5746H33.3044V46.0729Z" fill="#F9FAFB"/>
<path d="M38.4714 75.8292H35.9541V78.3308H38.4714V75.8292Z" fill="#F9FAFB"/>
<path d="M38.4714 70.9576H35.9541V73.4592H38.4714V70.9576Z" fill="#F9FAFB"/>
<path d="M38.4714 56.0795H35.9541V58.5811H38.4714V56.0795Z" fill="#F9FAFB"/>
<path d="M38.4714 36.1981H35.9541V38.6997H38.4714V36.1981Z" fill="#F9FAFB"/>
<path d="M43.6384 75.8292H41.1211V78.3308H43.6384V75.8292Z" fill="#F9FAFB"/>
<path d="M43.6384 65.9543H41.1211V68.456H43.6384V65.9543Z" fill="#F9FAFB"/>
<path d="M43.6384 60.951H41.1211V63.4527H43.6384V60.951Z" fill="#F9FAFB"/>
<path d="M43.6384 56.0795H41.1211V58.5811H43.6384V56.0795Z" fill="#F9FAFB"/>
<path d="M43.6384 51.0762H41.1211V53.5779H43.6384V51.0762Z" fill="#F9FAFB"/>
<path d="M43.6384 46.0729H41.1211V48.5746H43.6384V46.0729Z" fill="#F9FAFB"/>
<path d="M43.6384 36.1981H41.1211V38.6997H43.6384V36.1981Z" fill="#F9FAFB"/>
<path d="M43.6384 31.1948H41.1211V33.6964H43.6384V31.1948Z" fill="#F9FAFB"/>
<path d="M48.8054 70.9576H46.2881V73.4592H48.8054V70.9576Z" fill="#F9FAFB"/>
<path d="M48.8054 65.9543H46.2881V68.456H48.8054V65.9543Z" fill="#F9FAFB"/>
<path d="M48.8054 51.0762H46.2881V53.5779H48.8054V51.0762Z" fill="#F9FAFB"/>
<path d="M48.8054 41.2013H46.2881V43.7029H48.8054V41.2013Z" fill="#F9FAFB"/>
<path d="M54.1052 75.8292H51.5879V78.3308H54.1052V75.8292Z" fill="#F9FAFB"/>
<path d="M54.1052 70.9576H51.5879V73.4592H54.1052V70.9576Z" fill="#F9FAFB"/>
<path d="M54.1052 56.0795H51.5879V58.5811H54.1052V56.0795Z" fill="#F9FAFB"/>
<path d="M54.1052 51.0762H51.5879V53.5779H54.1052V51.0762Z" fill="#F9FAFB"/>
<path d="M54.1052 46.0729H51.5879V48.5746H54.1052V46.0729Z" fill="#F9FAFB"/>
<path d="M59.2722 75.8292H56.7549V78.3308H59.2722V75.8292Z" fill="#F9FAFB"/>
<path d="M59.2722 70.9576H56.7549V73.4592H59.2722V70.9576Z" fill="#F9FAFB"/>
<path d="M59.2722 65.9543H56.7549V68.456H59.2722V65.9543Z" fill="#F9FAFB"/>
<path d="M59.2722 60.951H56.7549V63.4527H59.2722V60.951Z" fill="#F9FAFB"/>
<path d="M59.2722 56.0795H56.7549V58.5811H59.2722V56.0795Z" fill="#F9FAFB"/>
<path d="M59.2722 51.0762H56.7549V53.5779H59.2722V51.0762Z" fill="#F9FAFB"/>
<path d="M59.2722 36.1981H56.7549V38.6997H59.2722V36.1981Z" fill="#F9FAFB"/>
<path d="M64.4392 75.8292H61.9219V78.3308H64.4392V75.8292Z" fill="#F9FAFB"/>
<path d="M64.4392 70.9576H61.9219V73.4592H64.4392V70.9576Z" fill="#F9FAFB"/>
<path d="M64.4392 65.9543H61.9219V68.456H64.4392V65.9543Z" fill="#F9FAFB"/>
<path d="M64.4392 56.0795H61.9219V58.5811H64.4392V56.0795Z" fill="#F9FAFB"/>
<path d="M64.4392 51.0762H61.9219V53.5779H64.4392V51.0762Z" fill="#F9FAFB"/>
<path d="M69.6071 75.8292H67.0898V78.3308H69.6071V75.8292Z" fill="#F9FAFB"/>
<path d="M69.6071 70.9576H67.0898V73.4592H69.6071V70.9576Z" fill="#F9FAFB"/>
<path d="M69.6071 65.9543H67.0898V68.456H69.6071V65.9543Z" fill="#F9FAFB"/>
<path d="M69.6071 60.951H67.0898V63.4527H69.6071V60.951Z" fill="#F9FAFB"/>
<path d="M69.6071 56.0795H67.0898V58.5811H69.6071V56.0795Z" fill="#F9FAFB"/>
<path d="M69.6071 46.0729H67.0898V48.5746H69.6071V46.0729Z" fill="#F9FAFB"/>
<path d="M74.7741 75.8292H72.2568V78.3308H74.7741V75.8292Z" fill="#F9FAFB"/>
<path d="M74.7741 70.9576H72.2568V73.4592H74.7741V70.9576Z" fill="#F9FAFB"/>
<path d="M74.7741 65.9543H72.2568V68.456H74.7741V65.9543Z" fill="#F9FAFB"/>
<path d="M74.7741 60.951H72.2568V63.4527H74.7741V60.951Z" fill="#F9FAFB"/>
<path d="M74.7741 56.0795H72.2568V58.5811H74.7741V56.0795Z" fill="#F9FAFB"/>
<path d="M74.7741 51.0762H72.2568V53.5779H74.7741V51.0762Z" fill="#F9FAFB"/>
<path d="M79.9401 75.8292H77.4229V78.3308H79.9401V75.8292Z" fill="#F9FAFB"/>
<path d="M79.9401 70.9576H77.4229V73.4592H79.9401V70.9576Z" fill="#F9FAFB"/>
<path d="M79.9401 65.9543H77.4229V68.456H79.9401V65.9543Z" fill="#F9FAFB"/>
<path d="M79.9401 56.0795H77.4229V58.5811H79.9401V56.0795Z" fill="#F9FAFB"/>
<path d="M79.9401 46.0729H77.4229V48.5746H79.9401V46.0729Z" fill="#F9FAFB"/>
<path d="M79.9401 31.1948H77.4229V33.6964H79.9401V31.1948Z" fill="#F9FAFB"/>
<path d="M85.1071 70.9576H82.5898V73.4592H85.1071V70.9576Z" fill="#F9FAFB"/>
<path d="M85.1071 65.9543H82.5898V68.456H85.1071V65.9543Z" fill="#F9FAFB"/>
<path d="M85.1071 60.951H82.5898V63.4527H85.1071V60.951Z" fill="#F9FAFB"/>
<path d="M85.1071 41.2013H82.5898V43.7029H85.1071V41.2013Z" fill="#F9FAFB"/>
<path d="M90.2751 75.8292H87.7578V78.3308H90.2751V75.8292Z" fill="#F9FAFB"/>
<path d="M90.2751 65.9543H87.7578V68.456H90.2751V65.9543Z" fill="#F9FAFB"/>
<path d="M90.2751 60.951H87.7578V63.4527H90.2751V60.951Z" fill="#F9FAFB"/>
<path d="M90.2751 56.0795H87.7578V58.5811H90.2751V56.0795Z" fill="#F9FAFB"/>
<path d="M90.2751 51.0762H87.7578V53.5779H90.2751V51.0762Z" fill="#F9FAFB"/>
<path d="M90.2751 46.0729H87.7578V48.5746H90.2751V46.0729Z" fill="#F9FAFB"/>
<path d="M95.5749 75.8292H93.0576V78.3308H95.5749V75.8292Z" fill="#F9FAFB"/>
<path d="M95.5749 60.951H93.0576V63.4527H95.5749V60.951Z" fill="#F9FAFB"/>
<path d="M95.5749 51.0762H93.0576V53.5779H95.5749V51.0762Z" fill="#F9FAFB"/>
<path d="M100.742 75.8292H98.2246V78.3308H100.742V75.8292Z" fill="#F9FAFB"/>
<path d="M100.742 70.9576H98.2246V73.4592H100.742V70.9576Z" fill="#F9FAFB"/>
<path d="M100.742 65.9543H98.2246V68.456H100.742V65.9543Z" fill="#F9FAFB"/>
<path d="M100.742 60.951H98.2246V63.4527H100.742V60.951Z" fill="#F9FAFB"/>
<path d="M100.742 56.0795H98.2246V58.5811H100.742V56.0795Z" fill="#F9FAFB"/>
<path d="M100.742 41.2013H98.2246V43.7029H100.742V41.2013Z" fill="#F9FAFB"/>
<path d="M105.909 75.8292H103.392V78.3308H105.909V75.8292Z" fill="#F9FAFB"/>
<path d="M105.909 65.9543H103.392V68.456H105.909V65.9543Z" fill="#F9FAFB"/>
<path d="M105.909 60.951H103.392V63.4527H105.909V60.951Z" fill="#F9FAFB"/>
<path d="M103.348 93.3097L105.865 93.3097L105.865 90.8081L103.348 90.8081L103.348 93.3097Z" fill="#F9FAFB"/>
<path d="M103.348 88.2686L105.865 88.2686L105.865 85.767L103.348 85.767L103.348 88.2686Z" fill="#F9FAFB"/>
<path d="M103.348 83.3591L105.865 83.3591L105.865 80.8575L103.348 80.8575L103.348 83.3591Z" fill="#F9FAFB"/>
<path d="M98.1497 98.2192L100.667 98.2192L100.667 95.7175L98.1497 95.7175L98.1497 98.2192Z" fill="#F9FAFB"/>
<path d="M98.1497 93.3097L100.667 93.3097L100.667 90.8081L98.1497 90.8081L98.1497 93.3097Z" fill="#F9FAFB"/>
<path d="M98.1497 83.3591L100.667 83.3591L100.667 80.8575L98.1497 80.8575L98.1497 83.3591Z" fill="#F9FAFB"/>
<path d="M92.9505 98.2192L95.4678 98.2192L95.4678 95.7175L92.9505 95.7175L92.9505 98.2192Z" fill="#F9FAFB"/>
<path d="M92.9505 93.3097L95.4678 93.3097L95.4678 90.8081L92.9505 90.8081L92.9505 93.3097Z" fill="#F9FAFB"/>
<path d="M92.9505 88.2686L95.4678 88.2686L95.4678 85.767L92.9505 85.767L92.9505 88.2686Z" fill="#F9FAFB"/>
<path d="M92.9505 83.3591L95.4678 83.3591L95.4678 80.8575L92.9505 80.8575L92.9505 83.3591Z" fill="#F9FAFB"/>
<path d="M87.8831 98.2192L90.4004 98.2192L90.4004 95.7175L87.8831 95.7175L87.8831 98.2192Z" fill="#F9FAFB"/>
<path d="M87.8831 93.3097L90.4004 93.3097L90.4004 90.8081L87.8831 90.8081L87.8831 93.3097Z" fill="#F9FAFB"/>
<path d="M87.8831 88.2686L90.4004 88.2686L90.4004 85.767L87.8831 85.767L87.8831 88.2686Z" fill="#F9FAFB"/>
<path d="M87.8831 83.3591L90.4004 83.3591L90.4004 80.8575L87.8831 80.8575L87.8831 83.3591Z" fill="#F9FAFB"/>
<path d="M82.6849 98.2192L85.2021 98.2192L85.2021 95.7175L82.6849 95.7175L82.6849 98.2192Z" fill="#F9FAFB"/>
<path d="M82.6849 93.3097L85.2021 93.3097L85.2021 90.8081L82.6849 90.8081L82.6849 93.3097Z" fill="#F9FAFB"/>
<path d="M82.6849 88.2686L85.2021 88.2686L85.2021 85.767L82.6849 85.767L82.6849 88.2686Z" fill="#F9FAFB"/>
<path d="M77.4856 98.2192L80.0029 98.2192L80.0029 95.7175L77.4856 95.7175L77.4856 98.2192Z" fill="#F9FAFB"/>
<path d="M77.4856 93.3097L80.0029 93.3097L80.0029 90.8081L77.4856 90.8081L77.4856 93.3097Z" fill="#F9FAFB"/>
<path d="M77.4856 88.2686L80.0029 88.2686L80.0029 85.767L77.4856 85.767L77.4856 88.2686Z" fill="#F9FAFB"/>
<path d="M77.4856 83.3591L80.0029 83.3591L80.0029 80.8575L77.4856 80.8575L77.4856 83.3591Z" fill="#F9FAFB"/>
<path d="M72.2874 98.2192L74.8047 98.2192L74.8047 95.7175L72.2874 95.7175L72.2874 98.2192Z" fill="#F9FAFB"/>
<path d="M72.2874 93.3097L74.8047 93.3097L74.8047 90.8081L72.2874 90.8081L72.2874 93.3097Z" fill="#F9FAFB"/>
<path d="M72.2874 88.2686L74.8047 88.2686L74.8047 85.767L72.2874 85.767L72.2874 88.2686Z" fill="#F9FAFB"/>
<path d="M67.0898 98.2122H69.6071V95.7106H67.0898V98.2122Z" fill="#F9FAFB"/>
<path d="M67.0882 93.3097L69.6055 93.3097L69.6055 90.8081L67.0882 90.8081L67.0882 93.3097Z" fill="#F9FAFB"/>
<path d="M67.0882 88.2686L69.6055 88.2686L69.6055 85.767L67.0882 85.767L67.0882 88.2686Z" fill="#F9FAFB"/>
<path d="M67.0882 83.3591L69.6055 83.3591L69.6055 80.8575L67.0882 80.8575L67.0882 83.3591Z" fill="#F9FAFB"/>
<path d="M61.889 98.2192L64.4062 98.2192L64.4062 95.7175L61.889 95.7175L61.889 98.2192Z" fill="#F9FAFB"/>
<path d="M61.889 93.3097L64.4062 93.3097L64.4062 90.8081L61.889 90.8081L61.889 93.3097Z" fill="#F9FAFB"/>
<path d="M61.9219 88.3373H64.4392V85.8357H61.9219V88.3373Z" fill="#F9FAFB"/>
<path d="M61.889 83.3591L64.4062 83.3591L64.4062 80.8575L61.889 80.8575L61.889 83.3591Z" fill="#F9FAFB"/>
<path d="M56.6907 98.2192L59.208 98.2192L59.208 95.7175L56.6907 95.7175L56.6907 98.2192Z" fill="#F9FAFB"/>
<path d="M56.6907 93.3097L59.208 93.3097L59.208 90.8081L56.6907 90.8081L56.6907 93.3097Z" fill="#F9FAFB"/>
<path d="M56.6907 88.2686L59.208 88.2686L59.208 85.767L56.6907 85.767L56.6907 88.2686Z" fill="#F9FAFB"/>
<path d="M51.4915 93.3097L54.0088 93.3097L54.0088 90.8081L51.4915 90.8081L51.4915 93.3097Z" fill="#F9FAFB"/>
<path d="M51.4915 88.2686L54.0088 88.2686L54.0088 85.767L51.4915 85.767L51.4915 88.2686Z" fill="#F9FAFB"/>
<path d="M51.4915 83.3591L54.0088 83.3591L54.0088 80.8575L51.4915 80.8575L51.4915 83.3591Z" fill="#F9FAFB"/>
<path d="M46.4251 98.2192L48.9424 98.2192L48.9424 95.7175L46.4251 95.7175L46.4251 98.2192Z" fill="#F9FAFB"/>
<path d="M46.4251 88.2686L48.9424 88.2686L48.9424 85.767L46.4251 85.767L46.4251 88.2686Z" fill="#F9FAFB"/>
<path d="M46.2881 83.3341H48.9379V80.8325H46.2881V83.3341Z" fill="#F9FAFB"/>
<path d="M41.2259 98.2192L43.7432 98.2192L43.7432 95.7175L41.2259 95.7175L41.2259 98.2192Z" fill="#F9FAFB"/>
<path d="M41.2259 83.3591L43.7432 83.3591L43.7432 80.8575L41.2259 80.8575L41.2259 83.3591Z" fill="#F9FAFB"/>
<path d="M36.0276 98.2192L38.5449 98.2192L38.5449 95.7175L36.0276 95.7175L36.0276 98.2192Z" fill="#F9FAFB"/>
<path d="M36.0276 93.3097L38.5449 93.3097L38.5449 90.8081L36.0276 90.8081L36.0276 93.3097Z" fill="#F9FAFB"/>
<path d="M36.0276 88.2686L38.5449 88.2686L38.5449 85.767L36.0276 85.767L36.0276 88.2686Z" fill="#F9FAFB"/>
<path d="M30.8284 98.2192L33.3457 98.2192L33.3457 95.7175L30.8284 95.7175L30.8284 98.2192Z" fill="#F9FAFB"/>
<path d="M30.8284 88.2686L33.3457 88.2686L33.3457 85.767L30.8284 85.767L30.8284 88.2686Z" fill="#F9FAFB"/>
<path d="M30.8284 83.3591L33.3457 83.3591L33.3457 80.8575L30.8284 80.8575L30.8284 83.3591Z" fill="#F9FAFB"/>
<path d="M68.4142 41.5963C71.4874 41.5963 73.9787 39.1205 73.9787 36.0664C73.9787 33.0123 71.4874 30.5365 68.4142 30.5365C65.3409 30.5365 62.8496 33.0123 62.8496 36.0664C62.8496 39.1205 65.3409 41.5963 68.4142 41.5963Z" fill="#F9FAFB"/>
<path d="M68.2811 36.4614L50.5 0.5" stroke="white" stroke-width="2" stroke-miterlimit="10" stroke-linecap="round" stroke-linejoin="round"/>
<path d="M92.2625 90.6118C91.7325 91.1384 91.3351 91.6651 90.8051 92.0601C84.8431 97.59 76.8938 100.882 68.017 100.882C60.9951 100.882 54.3706 98.775 48.9385 94.9567C47.3487 93.9034 45.8913 92.5867 44.5664 91.2701C45.2289 90.3484 46.5537 89.6901 49.2035 88.6368L50.2634 88.2418C52.2508 87.4518 55.033 86.3985 58.6103 84.9502C59.1402 84.6868 59.6702 84.4235 59.9351 83.8968C60.0676 83.6335 60.3326 83.3702 60.3326 83.1069C60.5976 82.7119 60.5976 82.1852 60.5976 81.6585V74.9436C60.4651 74.812 60.4651 74.6803 60.3326 74.5486C59.8027 73.627 59.4052 72.7053 59.2727 71.652L58.7427 71.3887C57.0204 71.7837 57.1529 69.9404 56.7554 66.3854C56.6229 64.9371 56.7554 64.6738 57.4179 64.4104L57.9478 63.6205C56.6229 60.7238 56.093 58.3539 56.093 56.2472C56.093 52.9556 57.5503 50.7173 59.5377 49.664C58.6103 47.5573 58.4778 46.6357 58.4778 46.6357C58.4778 46.6357 65.4997 47.8207 67.8845 47.294C70.9317 46.6357 75.7013 47.4257 77.4237 51.5073C77.8212 51.6389 78.0862 51.7706 78.4836 51.9023C80.7359 53.0873 81.5309 54.6672 81.7958 56.3789C82.1933 59.5388 80.471 62.9621 80.0735 64.4104C80.0735 64.4104 80.0735 64.5421 80.206 64.5421C80.7359 64.8054 80.8684 65.2004 80.6034 66.5171C80.206 69.9404 80.3385 71.9153 78.6161 71.5203L77.0262 74.1536C77.0262 74.417 76.8938 74.5486 76.8938 74.812C76.8938 75.3386 76.8938 76.2603 76.8938 81.7902C76.8938 81.9219 76.8938 82.1852 76.8938 82.3169C76.8938 82.8435 77.1587 83.2385 77.4237 83.6335C77.5562 83.7652 77.6887 83.8968 77.8212 84.0285C78.2186 84.4235 78.6161 84.6868 79.1461 84.9502C83.1207 86.6618 86.0355 87.7151 88.1553 88.5051C90.1427 89.4268 91.4676 90.0851 92.2625 90.6118Z" fill="#F9FAFB"/>
<path d="M95.4419 100.487C89.4799 106.017 76.8934 101.013 68.0166 101.013C60.9947 101.013 46.2884 106.543 40.8564 102.857C39.7964 102.067 41.1213 99.0384 41.5188 98.1167C42.1813 96.2734 42.8437 94.4301 43.7711 92.7184C45.7585 88.9002 54.9002 87.0569 58.6099 85.0819C59.2723 84.6869 59.6698 84.4236 59.9348 84.0286C64.3069 90.0851 73.3162 90.0851 77.6883 84.1602C78.0858 84.5552 78.4833 84.8186 79.0132 85.0819C79.1457 85.0819 79.2782 85.2135 79.4107 85.2135C91.7322 90.2168 92.5271 89.5585 94.117 94.1668C94.382 94.9567 95.9718 99.96 95.4419 100.487Z" fill="#E4E7EA"/>
<path d="M95.4419 100.487C89.4799 106.017 76.8934 101.013 68.0166 101.013C60.9947 101.013 46.2884 106.543 40.8564 102.857C39.7964 102.067 41.1213 99.0383 41.5188 98.1167C42.1813 96.2734 42.8437 94.4301 43.7711 92.7184C45.7585 88.9001 54.9002 87.0568 58.6099 85.0818C58.6099 85.0818 58.6099 85.0818 58.7424 85.0818C63.777 92.0601 74.2436 92.0601 79.2782 85.2135H79.4107C91.7322 90.2168 92.5271 89.5585 94.117 94.1667C94.382 94.9567 95.9718 99.96 95.4419 100.487Z" fill="#EEF1F4"/>
<path d="M80.0734 64.4104C80.2059 63.6204 79.8084 62.5671 79.5434 61.7771C79.5434 61.6455 79.4109 61.5138 79.4109 61.3821C78.086 58.7489 75.0388 57.5639 72.2565 57.4322C64.9696 57.0372 64.3072 58.4855 61.9224 56.3789C62.5848 57.4322 62.7173 59.1438 61.6574 61.2505C60.8625 62.6988 59.4051 63.3571 58.0802 63.7521C54.768 56.2472 56.3578 51.5073 59.6701 49.7956C58.6101 47.5573 58.4777 46.6357 58.4777 46.6357C58.4777 46.6357 65.4996 47.8207 67.8844 47.294C70.9316 46.6357 75.7012 47.4257 77.4236 51.5073C80.3384 52.6923 81.5308 54.5356 81.7957 56.5105C82.3257 59.6705 80.4708 63.0938 80.0734 64.4104Z" fill="#17181B"/>
<path d="M60.7298 81.9219V75.207C60.5973 75.0753 60.4648 74.9437 60.4648 74.812V74.417C60.8623 75.0753 61.2598 75.602 61.9222 75.997L67.2218 79.6836C68.4142 80.7369 70.269 80.7369 71.4614 79.6836L76.3635 75.207C76.496 75.0753 76.761 74.9436 76.8935 74.6803C76.8935 75.207 76.8935 76.1286 76.8935 81.6586C76.8935 82.0536 76.8935 82.3169 77.026 82.5802H60.5973C60.7298 82.5802 60.7298 82.1852 60.7298 81.9219Z" fill="url(#paint0_linear_377_26930)"/>
<path d="M108.426 98.4755V130.733C108.426 133.63 106.041 136 103.126 136H33.7019C30.7871 136 28.4023 133.63 28.4023 130.733V98.4755H108.426Z" fill="white"/>
<path d="M78.7478 110.852H58.0795C57.0195 110.852 56.2246 110.062 56.2246 109.009C56.2246 107.955 57.0195 107.165 58.0795 107.165H78.7478C79.8077 107.165 80.6026 107.955 80.6026 109.009C80.6026 110.062 79.8077 110.852 78.7478 110.852Z" fill="#EEF1F4"/>
<path d="M87.2272 119.015H49.7328C48.6729 119.015 47.8779 118.225 47.8779 117.172C47.8779 116.119 48.6729 115.329 49.7328 115.329H87.2272C88.2871 115.329 89.082 116.119 89.082 117.172C89.082 118.225 88.1546 119.015 87.2272 119.015Z" fill="#EEF1F4"/>
<path d="M75.8333 127.31H61.127C60.4645 127.31 59.9346 126.783 59.9346 126.125V124.809C59.9346 124.15 60.4645 123.624 61.127 123.624H75.8333C76.4957 123.624 77.0257 124.15 77.0257 124.809V126.125C77.0257 126.783 76.4957 127.31 75.8333 127.31Z" fill="#EEF1F4"/>
</g>
<defs>
<filter id="filter0_d_377_26930" x="-41.5977" y="-47.1785" width="220.023" height="252.178" filterUnits="userSpaceOnUse" color-interpolation-filters="sRGB">
<feFlood flood-opacity="0" result="BackgroundImageFix"/>
<feColorMatrix in="SourceAlpha" type="matrix" values="0 0 0 0 0 0 0 0 0 0 0 0 0 0 0 0 0 0 127 0" result="hardAlpha"/>
<feOffset dy="-1"/>
<feGaussianBlur stdDeviation="35"/>
<feComposite in2="hardAlpha" operator="out"/>
<feColorMatrix type="matrix" values="0 0 0 0 0 0 0 0 0 0.170527 0 0 0 0 0.504167 0 0 0 0.14 0"/>
<feBlend mode="normal" in2="BackgroundImageFix" result="effect1_dropShadow_377_26930"/>
<feBlend mode="normal" in="SourceGraphic" in2="effect1_dropShadow_377_26930" result="shape"/>
</filter>
<linearGradient id="paint0_linear_377_26930" x1="68.7454" y1="74.417" x2="68.7454" y2="82.5802" gradientUnits="userSpaceOnUse">
<stop stop-color="#EEF1F4"/>
<stop offset="1" stop-color="#EEF1F4" stop-opacity="0"/>
</linearGradient>
</defs>
</svg>
