<svg width="48" height="32" viewBox="0 0 48 32" fill="none" xmlns="http://www.w3.org/2000/svg">
<path fill-rule="evenodd" clip-rule="evenodd" d="M40.7775 23.2398H40.8861C40.9417 23.2398 41.0018 23.2505 41.0018 23.3205C41.0018 23.404 40.9355 23.4077 40.8634 23.4077H40.7775V23.2398ZM40.6958 23.7006H40.7775V23.4734H40.8644L41.008 23.7006H41.096L40.9451 23.4675C41.0234 23.4596 41.0838 23.4194 41.0838 23.3242C41.0838 23.2227 41.025 23.1735 40.8994 23.1735H40.6957V23.7006H40.6958ZM40.4991 23.4349C40.4991 23.2194 40.6605 23.0525 40.8714 23.0525C41.0802 23.0525 41.2422 23.2193 41.2422 23.4349C41.2422 23.6557 41.0801 23.8224 40.8714 23.8224C40.6605 23.8224 40.4991 23.6557 40.4991 23.4349ZM40.417 23.4349C40.417 23.6941 40.6244 23.8888 40.8714 23.8888C40.9311 23.8892 40.9902 23.8776 41.0453 23.8549C41.1004 23.8322 41.1505 23.7988 41.1926 23.7565C41.2347 23.7143 41.268 23.6641 41.2906 23.6089C41.3131 23.5537 41.3244 23.4946 41.3239 23.4349C41.3239 23.1804 41.1176 22.9864 40.8714 22.9864C40.6244 22.9864 40.417 23.1804 40.417 23.4349ZM35.3652 22.7644V23.5182H33.4769V24.3699H34.7739C34.8788 24.3698 34.9826 24.3905 35.0794 24.4306C35.1763 24.4707 35.2643 24.5295 35.3384 24.6036C35.4125 24.6777 35.4713 24.7657 35.5114 24.8626C35.5515 24.9594 35.5721 25.0632 35.5721 25.1681V25.8683C35.5721 25.9731 35.5515 26.0769 35.5114 26.1738C35.4713 26.2706 35.4125 26.3586 35.3384 26.4328C35.2643 26.5069 35.1763 26.5657 35.0794 26.6058C34.9826 26.6459 34.8788 26.6665 34.7739 26.6665H32.5802V25.9128H34.7475V25.1236H33.4504C33.3456 25.1236 33.2418 25.103 33.1449 25.0629C33.0481 25.0228 32.9601 24.964 32.8859 24.8898C32.8118 24.8157 32.753 24.7277 32.7129 24.6309C32.6728 24.534 32.6522 24.4302 32.6522 24.3254V23.5626C32.6523 23.3509 32.7364 23.1479 32.886 22.9982C33.0357 22.8486 33.2387 22.7645 33.4504 22.7644H35.3652ZM39.6928 26.6666H37.778C37.6732 26.6666 37.5694 26.646 37.4726 26.6059C37.3757 26.5658 37.2877 26.507 37.2136 26.4328C37.1395 26.3587 37.0807 26.2707 37.0406 26.1739C37.0005 26.077 36.9799 25.9732 36.9799 25.8684V23.5626C36.9799 23.3509 37.064 23.1479 37.2137 22.9982C37.3634 22.8486 37.5664 22.7645 37.778 22.7644H39.6928V23.5182H37.8046V24.3874H39.6928V25.1413H37.8046V25.9128H39.6928V26.6666ZM26.7627 26.6666H24.8479C24.7431 26.6666 24.6393 26.6459 24.5425 26.6058C24.4457 26.5657 24.3577 26.5069 24.2836 26.4328C24.2095 26.3587 24.1507 26.2707 24.1106 26.1738C24.0705 26.077 24.0499 25.9732 24.0499 25.8684V23.5626C24.05 23.3509 24.1341 23.148 24.2837 22.9983C24.4334 22.8487 24.6363 22.7645 24.8479 22.7644H26.7627V23.5182H24.8747V24.3874H26.7627V25.1413H24.8747V25.9128H26.7627V26.6666ZM15.7481 22.7644H17.566C17.7777 22.7645 17.9807 22.8486 18.1304 22.9982C18.28 23.1479 18.3642 23.3509 18.3642 23.5626V26.6666H17.5395V23.5182H16.165V26.6666H15.3402V22.7644H15.7481ZM29.0684 24.3875H30.5309V23.5182H29.0684V24.3875ZM31.3556 23.6695V24.3432C31.3556 24.5381 31.2843 24.7264 31.1551 24.8723C31.0259 25.0183 30.8477 25.1119 30.6542 25.1355L31.4274 26.6666H30.499L29.8246 25.1414H29.0684V26.6666H28.2438V22.7644H30.5577C30.7694 22.7645 30.9723 22.8486 31.122 22.9983C31.2716 23.148 31.3557 23.3509 31.3558 23.5626V23.6695H31.3556ZM20.2534 22.7644L21.1756 26.0106L22.1512 22.7644H23.0912L21.8319 26.6666H20.5371L19.331 22.7644H20.2534ZM6.67578 23.5626C6.67587 23.3509 6.75998 23.148 6.90962 22.9983C7.05927 22.8487 7.2622 22.7645 7.47384 22.7644H9.52247V23.5182H7.50064V25.9128H9.52259V26.6665H7.47396C7.36915 26.6665 7.26536 26.6458 7.16853 26.6057C7.07169 26.5656 6.98371 26.5068 6.9096 26.4327C6.83549 26.3586 6.77671 26.2706 6.73661 26.1737C6.69651 26.0769 6.67588 25.9731 6.6759 25.8683V23.5626H6.67578ZM10.7818 23.5626C10.7819 23.3509 10.866 23.1479 11.0157 22.9983C11.1654 22.8486 11.3683 22.7645 11.58 22.7644H13.2826C13.4943 22.7645 13.6973 22.8486 13.847 22.9982C13.9967 23.1479 14.0808 23.3509 14.0809 23.5626V25.8684C14.0809 25.9732 14.0603 26.077 14.0202 26.1739C13.98 26.2708 13.9212 26.3588 13.8471 26.4329C13.773 26.507 13.685 26.5658 13.5881 26.6059C13.4913 26.646 13.3874 26.6666 13.2826 26.6666H11.58C11.4752 26.6666 11.3714 26.646 11.2745 26.6059C11.1777 26.5658 11.0897 26.507 11.0156 26.4328C10.9414 26.3587 10.8827 26.2707 10.8425 26.1739C10.8024 26.077 10.7818 25.9732 10.7818 25.8684V23.5626ZM11.6067 23.5183H13.2563V25.9129H11.6067V23.5183ZM23.4501 8.2154L24.5107 11.4798H27.9431L25.1662 13.4969L26.2269 16.7619L23.4501 14.7443L20.6733 16.7619L21.7339 13.4969L18.9572 11.4798H22.3894L23.4501 8.2154ZM29.8486 12.827C29.8486 16.3608 26.9839 19.2252 23.45 19.2252C19.9161 19.2252 17.0513 16.3607 17.0513 12.827C17.0513 9.29319 19.9162 6.42813 23.45 6.42813C26.9838 6.42813 29.8486 9.29319 29.8486 12.827ZM23.4501 5.33325C19.3115 5.33325 15.9565 8.688 15.9565 12.8271C15.9565 16.9656 19.3115 20.3203 23.4501 20.3203C27.5887 20.3203 30.9436 16.9656 30.9436 12.8271C30.9435 8.68789 27.5887 5.33325 23.4501 5.33325Z" fill="black"/>
</svg>
