<svg width="48" height="32" viewBox="0 0 48 32" fill="none" xmlns="http://www.w3.org/2000/svg">
<path d="M13.105 14.7387H13.6349V14.23C13.6349 13.6154 13.974 13.2126 14.6523 13.2126L14.9914 13.2762V13.8909L14.6311 13.8273C14.4191 13.8273 14.3343 13.9545 14.3343 14.1664V14.7387H15.0126V15.3534H14.3343V17.8969H13.6561V15.3534H13.105V14.7387Z" fill="#D70F64"/>
<path d="M16.7294 14.6752C17.5984 14.6752 18.3827 15.3534 18.3827 16.3284C18.3827 17.3034 17.6196 17.9817 16.7294 17.9817C15.8392 17.9817 15.0762 17.3034 15.0762 16.3284C15.0762 15.3322 15.8604 14.6752 16.7294 14.6752ZM16.7294 17.367C17.3653 17.367 17.7044 16.9007 17.7044 16.3284C17.7044 15.7561 17.3653 15.2898 16.7294 15.2898C16.0936 15.2898 15.7544 15.7561 15.7544 16.3284C15.7544 16.8795 16.0936 17.367 16.7294 17.367Z" fill="#D70F64"/>
<path d="M20.3115 14.6752C21.1805 14.6752 21.9647 15.3534 21.9647 16.3284C21.9647 17.3034 21.2017 17.9817 20.3115 17.9817C19.4212 17.9817 18.6582 17.3034 18.6582 16.3284C18.6794 15.3322 19.4424 14.6752 20.3115 14.6752ZM20.3115 17.367C20.9473 17.367 21.2865 16.9007 21.2865 16.3284C21.2865 15.7561 20.9473 15.2898 20.3115 15.2898C19.6756 15.2898 19.3365 15.7561 19.3365 16.3284C19.3365 16.8795 19.6756 17.367 20.3115 17.367Z" fill="#D70F64"/>
<path d="M25.4831 17.8969H24.8685L24.8049 17.6214L24.7625 17.579L24.7201 17.6214C24.5082 17.8333 24.1902 17.9605 23.8511 17.9605C22.9821 17.9605 22.2402 17.2822 22.2402 16.3072C22.2402 15.3322 22.9821 14.654 23.8511 14.654C24.1902 14.654 24.5293 14.7812 24.7201 14.9931L24.7625 15.0355L24.8049 14.9931V13.2339H25.4831V17.8969ZM23.8935 15.2687C23.2576 15.2687 22.9185 15.735 22.9185 16.3072C22.9185 16.8795 23.2576 17.3458 23.8935 17.3458C24.4658 17.3458 24.8685 16.8795 24.8685 16.3072C24.8685 15.7562 24.4658 15.2687 23.8935 15.2687Z" fill="#D70F64"/>
<path d="M26.1616 14.7388H26.7763L26.8399 15.0143L26.8823 15.0567L26.9247 15.0143C27.1366 14.8023 27.4545 14.6752 27.7937 14.6752C28.6627 14.6752 29.4045 15.3534 29.4045 16.3284C29.4045 17.3034 28.6627 17.9817 27.7937 17.9817C27.4545 17.9817 27.1154 17.8545 26.9247 17.6425L26.8823 17.6002L26.8399 17.6425V19.3382H26.1828V14.7388H26.1616ZM27.7301 17.367C28.366 17.367 28.7051 16.9007 28.7051 16.3284C28.7051 15.7561 28.366 15.2898 27.7301 15.2898C27.1578 15.2898 26.7551 15.7561 26.7551 16.3284C26.7551 16.8795 27.1578 17.367 27.7301 17.367Z" fill="#D70F64"/>
<path d="M31.0788 15.9257H31.6299V15.7773C31.6299 15.3958 31.3755 15.2262 31.0152 15.2262C30.7185 15.2262 30.5277 15.3746 30.4217 15.6501L29.8282 15.5229C29.9554 14.9931 30.4217 14.6539 31.0364 14.6539C31.8842 14.6539 32.3081 15.0778 32.3081 15.9045V17.8757H31.757L31.6935 17.4517C31.4815 17.7697 31.1424 17.918 30.6973 17.918C30.125 17.918 29.7223 17.5789 29.7223 16.943C29.7011 16.3284 30.2522 15.9257 31.0788 15.9257ZM30.782 17.367C30.994 17.367 31.206 17.3034 31.3543 17.155C31.5239 17.0066 31.6087 16.8159 31.6087 16.5615V16.4979H31.0364C30.6337 16.4979 30.3793 16.6887 30.3793 16.9854C30.3793 17.1974 30.5277 17.367 30.782 17.367Z" fill="#D70F64"/>
<path d="M32.9014 14.7388H33.516L33.5796 15.0143L33.622 15.0567L33.6644 15.0143C33.7916 14.8023 34.1307 14.6752 34.4063 14.6752C35.2117 14.6752 35.678 15.2051 35.678 15.9469V17.8969H34.9997V15.9469C34.9785 15.523 34.7666 15.2686 34.3215 15.2686C33.9188 15.2686 33.6008 15.5866 33.5796 15.9893V17.8969H32.9014V14.7388Z" fill="#D70F64"/>
<path d="M39.3025 17.8969H38.6878L38.6242 17.6214L38.5818 17.579L38.5394 17.6214C38.3275 17.8333 38.0096 17.9605 37.6704 17.9605C36.8014 17.9605 36.0596 17.2822 36.0596 16.3072C36.0596 15.3322 36.8014 14.654 37.6704 14.654C38.0096 14.654 38.3487 14.7812 38.5394 14.9931L38.5818 15.0355L38.6242 14.9931V13.2339H39.3025V17.8969ZM37.734 15.2687C37.0982 15.2687 36.759 15.735 36.759 16.3072C36.759 16.8795 37.0982 17.3458 37.734 17.3458C38.3063 17.3458 38.709 16.8795 38.709 16.3072C38.709 15.7562 38.3063 15.2687 37.734 15.2687Z" fill="#D70F64"/>
<path d="M41.2316 15.9257H41.7827V15.7773C41.7827 15.3958 41.5284 15.2262 41.1681 15.2262C40.8713 15.2262 40.6806 15.3746 40.5746 15.6501L39.9811 15.5229C40.1083 14.9931 40.5746 14.6539 41.1893 14.6539C42.0371 14.6539 42.461 15.0778 42.461 15.9045V17.8757H41.9099L41.8463 17.4517C41.6344 17.7697 41.2952 17.918 40.8501 17.918C40.2778 17.918 39.8751 17.5789 39.8751 16.943C39.8539 16.3284 40.3838 15.9257 41.2316 15.9257ZM40.9349 17.367C41.1469 17.367 41.3588 17.3034 41.5072 17.155C41.6767 17.0066 41.7615 16.8159 41.7615 16.5615V16.4979H41.1893C40.7865 16.4979 40.5322 16.6887 40.5322 16.9854C40.5322 17.1974 40.6806 17.367 40.9349 17.367Z" fill="#D70F64"/>
<path d="M8.42064 16.9007C8.80216 16.9007 9.12009 16.6251 9.12009 16.286H7.72119C7.72119 16.6251 8.01793 16.9007 8.42064 16.9007Z" fill="#D70F64"/>
<path d="M10.7734 13.9757C10.9429 13.8486 11.0277 13.6366 11.0277 13.4035C11.0277 12.9796 10.6886 12.6616 10.2647 12.6616C9.98915 12.6616 9.756 12.7888 9.62882 13.0007C9.2473 12.81 8.82339 12.7252 8.39948 12.7252C7.95438 12.7252 7.53047 12.8312 7.17014 13.0007C7.04297 12.7888 6.80982 12.6616 6.53428 12.6616C6.11036 12.6616 5.77123 13.0007 5.77123 13.4035C5.77123 13.6366 5.87722 13.8274 6.02558 13.9757C5.70765 14.442 5.53809 14.9719 5.53809 15.5654C5.53809 17.1339 6.80982 18.4268 8.39948 18.4268C9.96795 18.4268 11.2609 17.1551 11.2609 15.5654C11.2609 14.9719 11.0913 14.4209 10.7734 13.9757ZM8.42068 18.1937C6.97938 18.1937 5.79243 17.0067 5.79243 15.5654C5.79243 15.0143 5.962 14.5056 6.23754 14.0817C6.49189 13.7002 6.85221 13.3823 7.27612 13.1915C7.61525 13.0219 8.01796 12.9372 8.42068 12.9372C8.82339 12.9372 9.22611 13.0219 9.56524 13.1915C9.98915 13.4035 10.3283 13.7002 10.6038 14.0817C10.8794 14.5056 11.0489 15.0143 11.0489 15.5654C11.0489 17.0067 9.86197 18.1937 8.42068 18.1937Z" fill="#D70F64"/>
<path d="M8.42081 16.1165C8.4632 16.1377 8.90831 15.9681 8.90831 15.7562C8.90831 15.629 8.54799 15.6078 8.42081 15.6078C8.29364 15.6078 7.93332 15.629 7.93332 15.7562C7.91212 15.9681 8.37842 16.1377 8.42081 16.1165Z" fill="#D70F64"/>
<path d="M10.0739 14.3361C9.81958 14.1665 9.2685 14.0818 9.05655 14.3573C9.05655 14.3573 8.781 14.654 9.05655 14.9508C9.33209 15.2475 9.52285 15.5443 9.58643 15.7774C9.65002 16.0318 9.756 16.1165 9.94676 16.1165C10.1375 16.1165 10.519 15.8198 10.5826 15.3323C10.625 14.8448 10.3283 14.4845 10.0739 14.3361ZM9.50165 14.9508C9.41687 14.9508 9.35328 14.8872 9.35328 14.8024C9.35328 14.7176 9.41687 14.654 9.50165 14.654C9.58643 14.654 9.65002 14.7176 9.65002 14.8024C9.65002 14.8872 9.58643 14.9508 9.50165 14.9508Z" fill="#D70F64"/>
<path d="M7.76355 14.3573C7.55159 14.0818 7.00051 14.1665 6.74616 14.3361C6.49182 14.5057 6.19508 14.8448 6.23747 15.3323C6.27986 15.8198 6.66138 16.1165 6.87334 16.1165C7.0641 16.1165 7.17007 16.0106 7.23366 15.7774C7.29725 15.5231 7.5092 15.2475 7.76355 14.9508C8.03909 14.6328 7.76355 14.3573 7.76355 14.3573ZM7.36083 14.9508C7.27605 14.9508 7.21246 14.8872 7.21246 14.8024C7.21246 14.7176 7.27605 14.654 7.36083 14.654C7.44561 14.654 7.5092 14.7176 7.5092 14.8024C7.5092 14.8872 7.44561 14.9508 7.36083 14.9508Z" fill="#D70F64"/>
</svg>
