<svg width="87" height="57" viewBox="0 0 87 57" fill="none" xmlns="http://www.w3.org/2000/svg">
<path d="M66.0978 31.3619C66.0771 31.2404 66.0771 31.1344 66.697 30.9454C67.3144 30.7588 68.816 30.2617 69.7283 29.7686C70.6407 29.2714 70.7928 29.2017 71.0069 29.3411C71.2216 29.4782 71.1591 29.8158 71.1591 30.0543V32.4714C71.4935 31.9356 72.5898 30.1534 73.4603 29.6292C74.1444 29.215 74.3862 29.1816 74.8109 29.1724C75.3198 29.1631 76.5224 29.4696 76.5754 30.7092C76.6167 31.6793 75.8842 32.0687 75.4189 32.0077C75.0456 31.9558 74.7784 31.6206 74.5573 31.283C74.3332 30.9408 73.9793 30.7386 73.6243 30.8556C73.2692 30.9748 71.2812 32.2346 71.1685 34.0261C71.0877 35.3447 71.1685 39.4559 71.1685 39.4559C71.1685 40.0792 71.4127 40.32 71.6981 40.4864C71.9812 40.6552 73.0251 40.6639 73.3176 40.7048C73.6148 40.7451 73.6036 40.8125 73.6036 40.9024C73.6036 40.9905 73.6036 41.0331 73.3406 41.0331H66.3514C66.1272 41.0331 66.0382 40.9905 66.0382 40.862C66.0382 40.684 66.3307 40.7157 66.5542 40.684C66.7772 40.6552 67.959 40.7497 68.2981 40.169C68.5464 39.7889 68.5164 39.1765 68.5164 39.1765L68.4822 31.9558C68.4822 31.3729 68.3052 31.2876 68.1413 31.1954C67.9756 31.1033 67.7013 31.0537 67.1228 31.245C66.5772 31.4201 66.2016 31.5848 66.0978 31.3619V31.3619ZM41.6528 31.3642C41.5584 31.1862 41.7336 31.0716 42.252 30.9385C42.83 30.7882 44.0968 30.412 45.1017 29.8561C46.1061 29.3031 46.2789 29.2444 46.4906 29.3118C46.7047 29.3815 46.684 29.7484 46.684 30.0456V39.3879C46.684 39.9121 46.7554 40.131 46.9972 40.3488C47.2414 40.5677 47.85 40.6956 48.6403 40.6956C48.9971 40.6956 49.108 40.7359 49.108 40.8845C49.108 41.0331 48.9971 41.0331 48.8544 41.0331H41.917C41.7029 41.0331 41.6516 40.9433 41.6516 40.8551C41.6516 40.7451 41.7466 40.6754 42.0692 40.6754C42.3405 40.6754 43.5967 40.7676 43.8821 40.1305C43.993 39.8879 44.0455 39.5481 44.0455 39.2307V31.8187C44.0455 31.2559 43.599 31.0065 43.083 31.1275C42.4791 31.2628 41.7767 31.5958 41.6522 31.3636L41.6528 31.3642ZM45.189 24.9016C45.6412 24.9014 46.0749 24.726 46.3949 24.4139C46.7148 24.1018 46.895 23.6785 46.8958 23.2368C46.8957 23.018 46.8515 22.8013 46.7657 22.5992C46.6798 22.3971 46.5541 22.2134 46.3956 22.0588C46.2371 21.9041 46.049 21.7815 45.8419 21.6979C45.6349 21.6143 45.413 21.5713 45.189 21.5715C44.7369 21.5715 44.3033 21.7469 43.9836 22.0591C43.6639 22.3714 43.4843 22.7949 43.4843 23.2365C43.4843 23.6781 43.6639 24.1016 43.9836 24.4139C44.3033 24.7261 44.7369 24.9016 45.189 24.9016V24.9016ZM53.5264 35.4973C53.8697 38.5285 55.7174 40.8868 58.0068 40.4905C60.3016 40.0947 61.451 37.9547 61.1744 34.5278C60.8914 31.0428 59.1268 29.3031 56.7512 29.5122C54.2955 29.7305 53.1808 32.4645 53.5264 35.4973V35.4973ZM55.7976 28.9788C58.7535 28.4391 62.9573 29.0756 63.9139 33.5941C64.8675 38.112 61.684 40.5181 58.9216 41.1051C56.2216 41.6766 51.6374 41.2693 50.8076 36.4086C50.0616 32.0457 53.3023 29.4333 55.7976 28.9788V28.9788ZM20.8036 40.3015H22.5181C28.8945 40.3015 30.606 39.7232 32.8506 36.8119C35.0941 33.9 35.3613 29.719 35.3613 28.306C35.3613 26.893 34.9767 23.3462 32.7327 20.3474C30.4863 17.3479 26.7384 16.5691 23.4599 16.5691H20.7901C20.1567 16.5691 20.1242 16.8439 20.1242 17.2759V39.7531C20.1242 40.2428 20.3011 40.3015 20.8036 40.3015V40.3015ZM10.4209 40.828C10.4209 40.6011 10.7229 40.5631 11.0036 40.5538C14.2496 40.464 14.8553 40.3534 15.2263 39.9778C15.4291 39.7704 15.7264 39.6016 15.7264 38.1327V17.917C15.7264 16.1013 13.4688 16.3894 11.8747 16.2292C11.3144 16.1751 11.2684 16.1013 11.2684 15.9412C11.2684 15.7839 11.3745 15.7073 11.6671 15.6958H24.7456C39.1257 15.6958 39.8605 25.9638 39.8605 28.7023C39.8605 34.586 35.8773 41.0579 27.5517 41.0579H10.8402C10.635 41.0579 10.4209 41.0308 10.4209 40.828" fill="#211E1E"/>
</svg>
