<svg width="87" height="57" viewBox="0 0 87 57" fill="none" xmlns="http://www.w3.org/2000/svg">
<path fill-rule="evenodd" clip-rule="evenodd" d="M10.4229 25.5611H12.5774C14.0829 25.5611 15.3483 26.8631 15.3483 28.5009C15.3483 30.1048 14.0826 31.4068 12.5774 31.4408H10.4229V25.5611ZM11.3464 26.2623V30.7393H12.3382C13.7066 30.7054 14.3904 29.637 14.3904 28.5334C14.3904 27.3971 13.7063 26.462 12.5774 26.2947L11.3464 26.2623ZM18.9743 25.4262C20.8217 25.4262 22.2919 26.7962 22.2919 28.5006C22.2919 30.2036 20.8214 31.5738 18.9743 31.5738C17.1613 31.5738 15.6567 30.2038 15.6567 28.5006C15.6564 26.7965 17.1613 25.4262 18.9743 25.4262V25.4262ZM18.9743 26.1616C20.3086 26.1616 21.4028 27.1973 21.4028 28.5009C21.4028 29.7702 20.3086 30.8059 18.9743 30.8059C17.6748 30.8059 16.5796 29.7702 16.5796 28.5009C16.5796 27.1973 17.6744 26.1616 18.9743 26.1616ZM22.5658 25.5611H23.455V30.7396H25.1652V31.4407H22.5659L22.5658 25.5611ZM28.0386 25.3938C28.7226 25.3938 29.3729 25.5935 29.9198 25.928V26.9977C29.4746 26.4619 28.7909 26.1277 28.0386 26.1277C26.7043 26.1277 25.6439 27.1973 25.6439 28.5009C25.6439 29.7702 26.7043 30.8387 28.0386 30.8387C28.7912 30.8387 29.4749 30.5057 29.9198 29.9702V31.0726C29.3726 31.4071 28.7223 31.6083 28.0386 31.6083C26.2256 31.6083 24.721 30.2041 24.721 28.5012C24.721 26.7965 26.2259 25.3938 28.0386 25.3938V25.3938ZM31.117 30.7393H33.2721V31.4404H30.1934V25.5611H33.2721V26.2283H31.117V27.9652H33.2721V28.6679H31.117V30.7393ZM36.6586 31.0399C36.5559 31.1405 36.4529 31.2071 36.3161 31.2735C36.2134 31.3401 36.0769 31.3741 35.9398 31.4065C35.9057 31.4065 35.8715 31.4065 35.8374 31.4404H35.7348C35.632 31.4404 35.5635 31.4065 35.4608 31.4065C35.3581 31.3741 35.2896 31.3399 35.1869 31.2735C35.1186 31.2068 35.0504 31.1062 34.9821 31.0056C34.9477 30.9065 34.9136 30.806 34.8794 30.7054V30.5384H34.9136V30.472C34.9474 30.3047 35.0163 30.1717 35.1527 30.0369C35.2892 29.9378 35.4261 29.8372 35.5632 29.7366C35.4944 29.6367 35.4259 29.5366 35.3578 29.4363C35.2892 29.3696 35.2551 29.2366 35.2551 29.136V29.0015C35.2892 29.0015 35.2892 28.9691 35.2892 28.9691C35.3237 28.836 35.3922 28.7355 35.4949 28.6346C35.6315 28.5679 35.7341 28.5339 35.8709 28.5339H35.9736C36.1101 28.5339 36.2814 28.6021 36.4185 28.7012C36.5209 28.8018 36.5891 28.9348 36.5891 29.1363C36.5891 29.3036 36.5553 29.4366 36.4523 29.5372C36.3155 29.6702 36.2131 29.7709 36.0763 29.8375L36.7262 30.6054C36.7604 30.5387 36.8289 30.4723 36.8975 30.3717C36.9657 30.3051 36.9999 30.2387 37.0687 30.172L37.2738 30.3717C37.2396 30.4384 37.1711 30.5062 37.137 30.5729C37.1028 30.6396 37.0343 30.7059 36.9657 30.7726L36.9316 30.8065C36.9316 30.8065 36.9316 30.839 36.8975 30.839L37.3762 31.3747H36.9657L36.6586 31.0399ZM35.8715 31.1405C35.9742 31.1405 36.0769 31.1065 36.1793 31.0399C36.2479 30.9732 36.3502 30.9068 36.4191 30.8387H36.4529L36.4873 30.8063L35.735 29.9702C35.735 30.0042 35.735 30.0042 35.7006 30.0042L35.6665 30.0366C35.5979 30.0705 35.5638 30.1048 35.4959 30.1372C35.4267 30.2038 35.3932 30.2378 35.3587 30.3045C35.3249 30.3045 35.3249 30.3384 35.3249 30.3711C35.2905 30.405 35.2905 30.4378 35.2905 30.4717C35.2564 30.5057 35.2564 30.5384 35.2564 30.5384V30.639C35.2564 30.772 35.2905 30.8726 35.3935 31.0059C35.53 31.1065 35.6327 31.1404 35.8036 31.1404H35.8716L35.8715 31.1405ZM35.5979 29.0691V29.1354C35.5979 29.2021 35.5979 29.2684 35.6324 29.3351C35.6665 29.4018 35.7351 29.4696 35.7689 29.5024C35.7913 29.525 35.8142 29.5472 35.8374 29.569L35.8715 29.603H35.9057C35.9057 29.603 35.9398 29.603 35.9398 29.569C36.0084 29.5366 36.0769 29.5024 36.1455 29.436C36.2137 29.3693 36.2482 29.303 36.282 29.2024V29.136C36.282 29.0354 36.2479 28.9688 36.1793 28.9024C36.1108 28.8685 36.0428 28.8357 35.9742 28.8357H35.9057C35.8374 28.8357 35.7689 28.8357 35.7003 28.9024C35.6324 28.9342 35.5979 29.0009 35.5979 29.0691V29.0691ZM42.1996 25.3599C43.3968 25.3599 44.4571 25.962 45.0729 26.8307L44.2862 27.2316C43.8416 26.5628 43.0887 26.1277 42.2337 26.1277C40.8656 26.1277 39.8053 27.1973 39.8053 28.5009C39.8053 29.803 40.8656 30.8387 42.2337 30.8387C43.3626 30.8387 44.2517 30.3045 44.3206 29.1682H42.3708V28.467H45.2786V28.5009C45.2786 30.3384 44.2518 31.6404 42.1999 31.6404C40.1474 31.6404 38.8476 30.2378 38.8476 28.5009C38.8476 26.7622 40.3525 25.3599 42.1996 25.3599H42.1996ZM44.7649 31.4407L47.2622 25.5611H47.8439L50.3403 31.4408H49.383L48.6989 29.7702H46.4069L45.7232 31.4408L44.7649 31.4407ZM46.7494 29.0348L47.5697 26.9295L48.3567 29.0348H46.7494ZM59.0972 31.4408L61.56 25.5611H62.1411L64.6382 31.4408H63.6808L62.9971 29.7702H60.7045L60.0204 31.4408H59.0972ZM61.0469 29.0348L61.8678 26.9295L62.6887 29.0348H61.0469ZM71.0003 31.4408L73.4977 25.5611H74.0793L76.5767 31.4408H75.6184L74.9005 29.7702H72.6427L71.9589 31.4408H71.0003ZM72.9845 29.0348L73.7716 26.9295L74.5922 29.0348H72.9845ZM52.4955 26.2283C53.1113 26.295 53.316 26.5286 53.316 27.131C53.316 27.6991 52.9056 27.9994 52.3925 27.9994H51.6057V26.2283H52.4955L52.4955 26.2283ZM52.5641 28.7006H52.5979C53.0427 28.7006 53.8295 28.8012 53.8295 29.7702C53.8295 30.5381 53.1457 30.7393 52.4955 30.7393H52.6317H51.6054V28.7003H52.5641V28.7006ZM51.4013 31.4407H52.9403C54.0007 31.4407 54.7878 30.7396 54.7878 29.7702C54.7878 29.0009 54.3081 28.4342 53.6244 28.2003C54.0007 27.9651 54.2061 27.5315 54.2061 26.9973C54.2061 26.1274 53.6244 25.5607 52.7008 25.5607C52.2215 25.5268 51.7087 25.5607 51.2301 25.5607H50.6828V31.4404H51.4013V31.4407ZM57.0788 26.2283C57.6605 26.2949 57.8658 26.5286 57.8996 27.131C57.8996 27.6991 57.4892 27.9994 56.9761 27.9994H56.1893V26.2283H57.0788V26.2283ZM57.1135 28.7006H57.1476C57.5922 28.7006 58.3783 28.8012 58.3783 29.7702C58.3783 30.538 57.6943 30.7393 57.0447 30.7393H57.2156H56.1893V28.7003H57.1135L57.1135 28.7006ZM55.9502 31.4407H57.524C58.5843 31.4407 59.3363 30.7396 59.3363 29.7702C59.3363 29.0009 58.8576 28.4342 58.1739 28.2003C58.5843 27.9651 58.7887 27.5315 58.7887 26.9973C58.7887 26.1274 58.1739 25.5607 57.2838 25.5607C56.771 25.5268 56.2923 25.5607 55.7786 25.5607H55.232V31.4404H55.9502V31.4407ZM65.0489 25.5611H65.6306L69.8379 29.9036V25.5611H70.6588V31.4408H70.043L65.9039 27.1306V31.4407H65.0489V25.5611Z" fill="black"/>
</svg>
