<svg width="432" height="422" viewBox="0 0 432 422" fill="none" xmlns="http://www.w3.org/2000/svg">
<path d="M49.8542 2.04636H299.317C332.792 2.04636 359.928 29.1828 359.928 62.6572V219.447C359.928 305.071 290.516 374.483 204.891 374.483C119.267 374.483 49.8542 305.071 49.8542 219.446V2.04636Z" stroke="url(#paint0_radial_377_7787)" stroke-width="4.09272"/>
<path d="M0 16.3708H279.748C316.108 16.3708 345.583 45.8464 345.583 82.2063V239.208C345.583 334.638 268.222 412 172.792 412C77.3615 412 0 334.639 0 239.208V16.3708Z" fill="#F0F4F9"/>
<mask id="mask0_377_7787" style="mask-type:alpha" maskUnits="userSpaceOnUse" x="17" y="34" width="314" height="359">
<path d="M17.7573 34.106H330.558V236.5C330.558 322.878 260.535 392.901 174.158 392.901C87.7801 392.901 17.7573 322.878 17.7573 236.5V34.106Z" fill="white"/>
</mask>
<g mask="url(#mask0_377_7787)">
<g clip-path="url(#clip0_377_7787)">
<rect x="46.4419" y="65.4834" width="256.797" height="555.358" rx="32.7417" fill="white"/>
<path fill-rule="evenodd" clip-rule="evenodd" d="M349.303 44.7372H40.6611L40.6611 85.8891H68.6092C70.1967 79.389 75.3131 74.2725 81.8131 72.6849V45.5942H90.3865V72.6848C96.8866 74.2724 102.003 79.389 103.591 85.8891H157.259V45.5942H165.832V85.8891H219.501C221.089 79.3889 226.205 74.2723 232.705 72.6848V45.5942H241.279V72.6849C247.779 74.2726 252.895 79.3891 254.483 85.8891H308.151V45.5942H316.724V85.8891H349.303V94.4625H316.724V201.63H349.303V210.203H316.724V317.371H349.303V325.945H316.724V433.111H349.303V44.7372ZM349.303 441.684H316.724V731.465H308.151V441.684H241.32L122.366 684.365L231.863 731.466H210.166L118.588 692.073L99.2793 731.466H89.7314L110.703 688.681L55.0602 664.745L40.6611 694.121V674.642L47.1749 661.353L40.6611 658.552V649.219L50.953 653.646L86.0617 582.019L40.6611 562.49V553.157L89.8397 574.312L125.148 502.279L40.6611 465.937V456.604L128.926 494.571L154.849 441.684H40.6611L40.6611 456.604L32.5553 453.117L29.1675 460.992L40.6611 465.937V553.157L40.6195 553.139L37.2317 561.015L40.6611 562.49V649.219L32.5553 645.732L29.1675 653.607L40.6611 658.552V674.642L28.1121 700.244L35.8104 704.018L40.6611 694.121V731.466H89.7314L89.2919 732.362L96.9902 736.136L99.2793 731.466H210.166L237.765 743.337L241.153 735.462L231.863 731.466H349.303V576.287H316.724V567.714H349.303V441.684ZM40.6611 433.111H81.8131V339.148C75.3134 337.56 70.1972 332.444 68.6094 325.945H40.6611V433.111ZM40.6611 317.371H68.6091C70.1964 310.871 75.3129 305.754 81.8131 304.167V223.406C75.3137 221.818 70.1976 216.703 68.6096 210.203H40.6611V317.371ZM40.6611 201.63H68.6088C70.196 195.129 75.3126 190.012 81.8131 188.424V107.666C75.3132 106.079 70.1969 100.962 68.6093 94.4625H40.6611V201.63ZM90.3865 339.148V433.111H157.259V325.945H103.59C102.003 332.444 96.8863 337.56 90.3865 339.148ZM103.591 317.371H157.259V210.203H103.59C102.002 216.703 96.886 221.818 90.3865 223.406V304.167C96.8867 305.754 102.003 310.871 103.591 317.371ZM103.59 94.4625C102.003 100.962 96.8864 106.079 90.3865 107.666V188.424C96.887 190.012 102.004 195.129 103.591 201.63H157.259V94.4625H103.59ZM165.832 94.4625H219.501C221.089 100.962 226.205 106.079 232.705 107.666V188.424C226.205 190.012 221.088 195.129 219.501 201.63H165.832V94.4625ZM241.279 188.425V107.666C247.779 106.079 252.895 100.962 254.482 94.4625H308.151V201.63H254.483C252.896 195.129 247.779 190.012 241.279 188.425ZM165.832 210.203H219.502C221.09 216.703 226.206 221.818 232.705 223.406V304.167C226.205 305.754 221.088 310.871 219.501 317.371H165.832V210.203ZM254.483 317.371C252.895 310.871 247.779 305.754 241.279 304.167V223.406C247.778 221.818 252.894 216.703 254.482 210.203H308.151V317.371H254.483ZM241.279 339.148C247.778 337.56 252.895 332.444 254.482 325.945H308.151V433.111H241.279V339.148ZM219.501 325.945C221.089 332.444 226.205 337.561 232.705 339.148V433.111H165.832V325.945H219.501ZM164.397 441.684L136.811 497.963L192.454 521.898L231.772 441.684H164.397ZM133.033 505.671L97.7251 577.703L153.368 601.639L188.676 529.606L133.033 505.671ZM93.947 585.411L58.8383 657.038L114.481 680.973L149.59 609.346L93.947 585.411ZM236.992 215.346C242.2 215.346 246.423 211.124 246.423 205.915C246.423 200.707 242.2 196.484 236.992 196.484C231.783 196.484 227.561 200.707 227.561 205.915C227.561 211.124 231.783 215.346 236.992 215.346ZM95.5302 205.915C95.5302 211.124 91.308 215.346 86.0995 215.346C80.8911 215.346 76.6688 211.124 76.6688 205.915C76.6688 200.707 80.8911 196.484 86.0995 196.484C91.308 196.484 95.5302 200.707 95.5302 205.915ZM236.992 99.6062C242.2 99.6062 246.423 95.3839 246.423 90.1755C246.423 84.967 242.2 80.7447 236.992 80.7447C231.783 80.7447 227.561 84.967 227.561 90.1755C227.561 95.3839 231.783 99.6062 236.992 99.6062ZM95.5302 90.1755C95.5302 95.3839 91.308 99.6062 86.0995 99.6062C80.8911 99.6062 76.6688 95.3839 76.6688 90.1755C76.6688 84.967 80.8911 80.7447 86.0995 80.7447C91.308 80.7447 95.5302 84.967 95.5302 90.1755ZM236.992 331.088C242.2 331.088 246.423 326.866 246.423 321.657C246.423 316.449 242.2 312.227 236.992 312.227C231.783 312.227 227.561 316.449 227.561 321.657C227.561 326.866 231.783 331.088 236.992 331.088ZM95.5302 321.657C95.5302 326.866 91.308 331.088 86.0995 331.088C80.8911 331.088 76.6688 326.866 76.6688 321.657C76.6688 316.449 80.8911 312.227 86.0995 312.227C91.308 312.227 95.5302 316.449 95.5302 321.657Z" fill="#F9FAFB"/>
<rect x="305.578" y="215.347" width="13.7174" height="25.7202" transform="rotate(90 305.578 215.347)" fill="white"/>
<rect x="154.687" y="215.347" width="13.7174" height="25.7202" transform="rotate(90 154.687 215.347)" fill="white"/>
<rect x="154.687" y="331.088" width="13.7174" height="25.7202" transform="rotate(90 154.687 331.088)" fill="white"/>
<rect x="305.578" y="331.088" width="13.7174" height="25.7202" transform="rotate(90 305.578 331.088)" fill="white"/>
<rect x="305.578" y="99.6062" width="13.7174" height="25.7202" transform="rotate(90 305.578 99.6062)" fill="white"/>
<rect x="154.687" y="99.6062" width="13.7174" height="25.7202" transform="rotate(90 154.687 99.6062)" fill="white"/>
<rect x="269.57" y="226.493" width="13.7174" height="25.7202" transform="rotate(90 269.57 226.493)" fill="white"/>
<rect x="118.679" y="226.493" width="13.7174" height="25.7202" transform="rotate(90 118.679 226.493)" fill="white"/>
<rect x="118.679" y="342.233" width="13.7174" height="25.7202" transform="rotate(90 118.679 342.233)" fill="white"/>
<rect x="269.57" y="342.233" width="13.7174" height="25.7202" transform="rotate(90 269.57 342.233)" fill="white"/>
<rect x="269.57" y="110.753" width="13.7174" height="25.7202" transform="rotate(90 269.57 110.753)" fill="white"/>
<rect x="118.679" y="110.753" width="13.7174" height="25.7202" transform="rotate(90 118.679 110.753)" fill="white"/>
<rect x="305.578" y="235.924" width="13.7174" height="25.7202" transform="rotate(90 305.578 235.924)" fill="white"/>
<rect x="154.687" y="235.924" width="13.7174" height="25.7202" transform="rotate(90 154.687 235.924)" fill="white"/>
<rect x="154.687" y="351.665" width="13.7174" height="25.7202" transform="rotate(90 154.687 351.665)" fill="white"/>
<rect x="305.578" y="351.665" width="13.7174" height="25.7202" transform="rotate(90 305.578 351.665)" fill="white"/>
<rect x="305.578" y="120.183" width="13.7174" height="25.7202" transform="rotate(90 305.578 120.183)" fill="white"/>
<rect x="305.578" y="65.3129" width="13.7174" height="25.7202" transform="rotate(90 305.578 65.3129)" fill="white"/>
<rect x="196.696" y="65.3129" width="13.7174" height="25.7202" transform="rotate(90 196.696 65.3129)" fill="white"/>
<rect x="152.115" y="65.3129" width="13.7174" height="25.7202" transform="rotate(90 152.115 65.3129)" fill="white"/>
<rect x="154.687" y="120.183" width="13.7174" height="25.7202" transform="rotate(90 154.687 120.183)" fill="white"/>
<rect x="269.57" y="247.069" width="13.7174" height="25.7202" transform="rotate(90 269.57 247.069)" fill="white"/>
<rect x="118.679" y="247.069" width="13.7174" height="25.7202" transform="rotate(90 118.679 247.069)" fill="white"/>
<rect x="118.679" y="362.81" width="13.7174" height="25.7202" transform="rotate(90 118.679 362.81)" fill="white"/>
<rect x="269.57" y="362.81" width="13.7174" height="25.7202" transform="rotate(90 269.57 362.81)" fill="white"/>
<rect x="269.57" y="131.328" width="13.7174" height="25.7202" transform="rotate(90 269.57 131.328)" fill="white"/>
<rect x="118.679" y="131.328" width="13.7174" height="25.7202" transform="rotate(90 118.679 131.328)" fill="white"/>
<rect x="305.578" y="256.5" width="13.7174" height="25.7202" transform="rotate(90 305.578 256.5)" fill="white"/>
<rect x="154.687" y="256.5" width="13.7174" height="25.7202" transform="rotate(90 154.687 256.5)" fill="white"/>
<rect x="154.687" y="372.241" width="13.7174" height="25.7202" transform="rotate(90 154.687 372.241)" fill="white"/>
<rect x="305.578" y="372.241" width="13.7174" height="25.7202" transform="rotate(90 305.578 372.241)" fill="white"/>
<rect x="305.578" y="140.759" width="13.7174" height="25.7202" transform="rotate(90 305.578 140.759)" fill="white"/>
<rect x="154.687" y="140.759" width="13.7174" height="25.7202" transform="rotate(90 154.687 140.759)" fill="white"/>
<rect x="269.57" y="267.645" width="13.7174" height="25.7202" transform="rotate(90 269.57 267.645)" fill="white"/>
<rect x="118.679" y="267.645" width="13.7174" height="25.7202" transform="rotate(90 118.679 267.645)" fill="white"/>
<rect x="118.679" y="383.386" width="13.7174" height="25.7202" transform="rotate(90 118.679 383.386)" fill="white"/>
<rect x="269.57" y="383.386" width="13.7174" height="25.7202" transform="rotate(90 269.57 383.386)" fill="white"/>
<rect x="269.57" y="151.904" width="13.7174" height="25.7202" transform="rotate(90 269.57 151.904)" fill="white"/>
<rect x="118.679" y="151.904" width="13.7174" height="25.7202" transform="rotate(90 118.679 151.904)" fill="white"/>
<rect x="305.578" y="277.076" width="13.7174" height="25.7202" transform="rotate(90 305.578 277.076)" fill="white"/>
<rect x="154.687" y="277.076" width="13.7174" height="25.7202" transform="rotate(90 154.687 277.076)" fill="white"/>
<rect x="154.687" y="392.817" width="13.7174" height="25.7202" transform="rotate(90 154.687 392.817)" fill="white"/>
<rect x="305.578" y="392.817" width="13.7174" height="25.7202" transform="rotate(90 305.578 392.817)" fill="white"/>
<rect x="305.578" y="161.335" width="13.7174" height="25.7202" transform="rotate(90 305.578 161.335)" fill="white"/>
<rect x="154.687" y="161.335" width="13.7174" height="25.7202" transform="rotate(90 154.687 161.335)" fill="white"/>
<rect x="305.578" y="297.653" width="13.7174" height="25.7202" transform="rotate(90 305.578 297.653)" fill="white"/>
<rect x="154.687" y="297.653" width="13.7174" height="25.7202" transform="rotate(90 154.687 297.653)" fill="white"/>
<rect x="305.578" y="181.911" width="13.7174" height="25.7202" transform="rotate(90 305.578 181.911)" fill="white"/>
<rect x="154.687" y="181.911" width="13.7174" height="25.7202" transform="rotate(90 154.687 181.911)" fill="white"/>
<rect x="269.57" y="288.221" width="13.7174" height="25.7202" transform="rotate(90 269.57 288.221)" fill="white"/>
<rect x="118.679" y="288.221" width="13.7174" height="25.7202" transform="rotate(90 118.679 288.221)" fill="white"/>
<rect x="269.57" y="172.48" width="13.7174" height="25.7202" transform="rotate(90 269.57 172.48)" fill="white"/>
<rect x="118.679" y="172.48" width="13.7174" height="25.7202" transform="rotate(90 118.679 172.48)" fill="white"/>
<rect x="169.262" y="99.6062" width="25.7202" height="75.4458" fill="white"/>
<rect x="169.262" y="215.347" width="25.7202" height="13.7174" fill="white"/>
<rect x="169.262" y="331.088" width="25.7202" height="13.7174" fill="white"/>
<rect x="203.555" y="372.241" width="25.7202" height="13.7174" fill="white"/>
<rect x="203.555" y="235.924" width="25.7202" height="13.7174" fill="white"/>
<rect x="50.949" y="110.753" width="25.7202" height="13.7174" fill="white"/>
<rect x="50.949" y="226.493" width="25.7202" height="13.7174" fill="white"/>
<rect x="50.949" y="342.233" width="25.7202" height="13.7174" fill="white"/>
<rect x="203.555" y="256.5" width="25.7202" height="13.7174" fill="white"/>
<rect x="50.949" y="172.48" width="25.7202" height="13.7174" fill="white"/>
<rect x="50.949" y="55.883" width="25.7202" height="13.7174" fill="white"/>
<rect x="50.949" y="288.221" width="25.7202" height="13.7174" fill="white"/>
<rect x="50.949" y="151.904" width="25.7202" height="13.7174" fill="white"/>
<rect x="50.949" y="267.645" width="25.7202" height="13.7174" fill="white"/>
<rect x="50.949" y="383.386" width="25.7202" height="13.7174" fill="white"/>
<rect x="50.949" y="362.81" width="25.7202" height="13.7174" fill="white"/>
<rect x="169.262" y="235.924" width="25.7202" height="13.7174" fill="white"/>
<rect x="169.262" y="351.665" width="25.7202" height="13.7174" fill="white"/>
<rect x="203.555" y="392.817" width="25.7202" height="13.7174" fill="white"/>
<rect x="169.262" y="256.5" width="25.7202" height="13.7174" fill="white"/>
<rect x="169.262" y="372.241" width="25.7202" height="13.7174" fill="white"/>
<rect x="169.262" y="277.076" width="25.7202" height="34.2936" fill="white"/>
<rect x="169.262" y="181.911" width="25.7202" height="13.7174" fill="white"/>
<rect x="213.843" y="113.325" width="15.4321" height="72.0165" fill="white"/>
<g filter="url(#filter0_d_377_7787)">
<rect x="57.3853" y="98.2252" width="234.591" height="32.829" rx="8.20726" fill="white" shape-rendering="crispEdges"/>
<path d="M77.6182 119.769C80.6086 119.769 83.0328 117.345 83.0328 114.355C83.0328 111.364 80.6086 108.94 77.6182 108.94C74.6279 108.94 72.2037 111.364 72.2037 114.355C72.2037 117.345 74.6279 119.769 77.6182 119.769Z" stroke="#12143D" stroke-width="1.02591" stroke-linecap="round" stroke-linejoin="round"/>
<path d="M83.6027 120.339L82.4628 119.199" stroke="#12143D" stroke-width="1.02591" stroke-linecap="round" stroke-linejoin="round"/>
<path d="M95.22 119.488V116.999H98.1013C98.3851 116.999 98.5597 117.141 98.5597 117.436V119.488H100.109V117.152C100.109 116.388 99.8039 115.941 99.2145 115.788V115.755C99.662 115.428 99.9349 114.915 99.9349 114.216C99.9349 112.896 98.8871 112.176 97.4137 112.176H93.6703V119.488H95.22ZM95.22 113.682H97.3046C97.9158 113.682 98.3851 114.042 98.3851 114.631C98.3851 115.242 97.9267 115.592 97.2937 115.592H95.22V113.682ZM103.713 113.889C102.043 113.889 100.875 115.155 100.875 116.77C100.875 118.298 101.868 119.652 103.702 119.652C104.99 119.652 106.07 118.975 106.43 117.763H104.891C104.695 118.113 104.204 118.342 103.702 118.32C102.949 118.287 102.468 117.818 102.381 117.261H106.485C106.681 115.341 105.524 113.889 103.713 113.889ZM103.702 115.21C104.335 115.21 104.826 115.548 104.99 116.115H102.392C102.545 115.57 103.058 115.21 103.702 115.21ZM109.873 113.889C108.203 113.889 107.035 115.155 107.035 116.77C107.035 118.298 108.029 119.652 109.862 119.652C111.15 119.652 112.23 118.975 112.591 117.763H111.052C110.855 118.113 110.364 118.342 109.862 118.32C109.109 118.287 108.629 117.818 108.542 117.261H112.645C112.842 115.341 111.685 113.889 109.873 113.889ZM109.862 115.21C110.495 115.21 110.986 115.548 111.15 116.115H108.552C108.705 115.57 109.218 115.21 109.862 115.21ZM116.691 113.889C115.894 113.889 115.272 114.271 114.923 114.773H114.879V111.63H113.416V119.488H114.879V118.778H114.923C115.261 119.27 115.894 119.641 116.68 119.652C118.219 119.652 119.277 118.44 119.277 116.759C119.277 115.046 118.164 113.878 116.691 113.889ZM116.33 118.255C115.479 118.255 114.879 117.611 114.879 116.77C114.879 115.963 115.457 115.286 116.33 115.286C117.193 115.286 117.793 115.919 117.793 116.77C117.793 117.622 117.193 118.255 116.33 118.255ZM122.739 119.652C124.508 119.652 125.664 118.396 125.664 116.77C125.664 115.155 124.518 113.889 122.739 113.889C120.96 113.889 119.815 115.155 119.815 116.77C119.815 118.396 120.971 119.652 122.739 119.652ZM122.739 118.222C121.866 118.222 121.288 117.578 121.288 116.77C121.288 115.963 121.866 115.308 122.739 115.308C123.613 115.308 124.191 115.963 124.191 116.77C124.191 117.578 123.602 118.222 122.739 118.222ZM131.669 114.053H130.065L128.996 115.963H127.871V111.63H126.398V119.488H127.871V117.316H129.661C129.934 117.316 130.098 117.458 130.098 117.72V119.488H131.571V117.229C131.571 116.519 131.135 116.083 130.545 115.984L131.669 114.053Z" fill="#12143D"/>
<path fill-rule="evenodd" clip-rule="evenodd" d="M277.613 114.64C277.613 112.751 276.082 111.22 274.194 111.22C272.305 111.22 270.774 112.751 270.774 114.64C270.774 116.528 272.305 118.059 274.194 118.059C276.082 118.059 277.613 116.528 277.613 114.64ZM274.899 113.5L274.194 114.205L273.489 113.5L273.054 113.935L273.759 114.64L273.054 115.345L273.489 115.78L274.194 115.074L274.899 115.78L275.334 115.345L274.628 114.64L275.334 113.935L274.899 113.5Z" fill="#12143D"/>
</g>
<g filter="url(#filter1_d_377_7787)">
<rect x="57.3853" y="328.931" width="56.0829" height="27.7933" rx="8.20726" transform="rotate(-90 57.3853 328.931)" fill="white"/>
</g>
<rect x="57.3853" y="301.136" width="0.683938" height="27.7933" rx="0.341969" transform="rotate(-90 57.3853 301.136)" fill="white"/>
<path fill-rule="evenodd" clip-rule="evenodd" d="M75.7485 285.627C75.7485 287.478 74.2486 288.978 72.3984 288.978C71.6249 288.978 70.9127 288.715 70.3456 288.275C70.3243 288.32 70.2949 288.363 70.2575 288.4L67.5775 291.08C67.403 291.255 67.1202 291.255 66.9458 291.08C66.7713 290.906 66.7713 290.623 66.9458 290.448L69.6258 287.768C69.6632 287.731 69.7056 287.702 69.7507 287.68C69.3105 287.113 69.0483 286.401 69.0483 285.627C69.0483 283.777 70.5482 282.277 72.3984 282.277C74.2486 282.277 75.7485 283.777 75.7485 285.627ZM74.8552 285.627C74.8552 284.271 73.7552 283.171 72.3984 283.171C71.0416 283.171 69.9417 284.271 69.9417 285.627C69.9417 286.984 71.0416 288.084 72.3984 288.084C73.7552 288.084 74.8552 286.984 74.8552 285.627ZM72.8451 284.511C72.8451 284.264 72.6451 284.064 72.3984 284.064C72.1517 284.064 71.9517 284.264 71.9517 284.511V285.181H71.2817C71.035 285.181 70.835 285.381 70.835 285.627C70.835 285.874 71.035 286.074 71.2817 286.074H71.9517V286.744C71.9517 286.991 72.1517 287.191 72.3984 287.191C72.6451 287.191 72.8451 286.991 72.8451 286.744V286.074H73.5151C73.7618 286.074 73.9618 285.874 73.9618 285.627C73.9618 285.381 73.7618 285.181 73.5151 285.181H72.8451V284.511Z" fill="#12143D"/>
<path fill-rule="evenodd" clip-rule="evenodd" d="M72.3984 317.268C74.2486 317.268 75.7485 315.768 75.7485 313.918C75.7485 312.068 74.2486 310.568 72.3984 310.568C70.5482 310.568 69.0483 312.068 69.0483 313.918C69.0483 314.691 69.3105 315.404 69.7507 315.971C69.7056 315.992 69.6632 316.021 69.6258 316.059L66.9458 318.739C66.7713 318.913 66.7713 319.196 66.9458 319.371C67.1202 319.545 67.403 319.545 67.5775 319.371L70.2575 316.69C70.2949 316.653 70.3243 316.611 70.3456 316.566C70.9127 317.006 71.6249 317.268 72.3984 317.268ZM72.3984 311.461C73.7552 311.461 74.8552 312.561 74.8552 313.918C74.8552 315.275 73.7552 316.375 72.3984 316.375C71.0416 316.375 69.9417 315.275 69.9417 313.918C69.9417 312.561 71.0416 311.461 72.3984 311.461ZM70.835 313.918C70.835 314.165 71.035 314.365 71.2817 314.365H73.5151C73.7618 314.365 73.9618 314.165 73.9618 313.918C73.9618 313.671 73.7618 313.471 73.5151 313.471H71.2817C71.035 313.471 70.835 313.671 70.835 313.918Z" fill="#12143D"/>
<g filter="url(#filter2_d_377_7787)">
<rect x="264.618" y="328.931" width="27.3575" height="27.3575" rx="8.20726" transform="rotate(-90 264.618 328.931)" fill="white"/>
</g>
<path d="M278.14 320.381C280.973 320.381 283.269 318.085 283.269 315.252C283.269 312.419 280.973 310.122 278.14 310.122C275.307 310.122 273.01 312.419 273.01 315.252C273.01 318.085 275.307 320.381 278.14 320.381Z" stroke="#292D32" stroke-width="1.02591" stroke-linecap="round" stroke-linejoin="round"/>
<path d="M278.139 317.304C279.273 317.304 280.191 316.385 280.191 315.252C280.191 314.119 279.273 313.2 278.139 313.2C277.006 313.2 276.088 314.119 276.088 315.252C276.088 316.385 277.006 317.304 278.139 317.304Z" stroke="#292D32" stroke-width="1.02591" stroke-linecap="round" stroke-linejoin="round"/>
<path d="M278.14 309.78V308.412" stroke="#292D32" stroke-width="1.02591" stroke-linecap="round" stroke-linejoin="round"/>
<path d="M272.668 315.252H271.3" stroke="#292D32" stroke-width="1.02591" stroke-linecap="round" stroke-linejoin="round"/>
<path d="M278.14 320.723V322.091" stroke="#292D32" stroke-width="1.02591" stroke-linecap="round" stroke-linejoin="round"/>
<path d="M283.611 315.252H284.979" stroke="#292D32" stroke-width="1.02591" stroke-linecap="round" stroke-linejoin="round"/>
<g filter="url(#filter3_bd_377_7787)">
<circle cx="207.851" cy="241.714" r="16.4145" fill="white" fill-opacity="0.7" shape-rendering="crispEdges"/>
<circle cx="207.851" cy="241.714" r="16.0725" stroke="#12143D" stroke-opacity="0.1" stroke-width="0.683938" shape-rendering="crispEdges"/>
</g>
<g filter="url(#filter4_d_377_7787)">
<circle cx="207.851" cy="241.714" r="7.52332" fill="#F18C53"/>
<circle cx="207.851" cy="241.714" r="5.47151" stroke="white" stroke-width="4.10363"/>
</g>
<g filter="url(#filter5_d_377_7787)">
<rect x="227.002" y="272.848" width="64.829" height="22.943" rx="8.20726" fill="white" shape-rendering="crispEdges"/>
<path d="M237.819 281.82H235.39V282.953H236.653V287.319H237.819V281.82ZM239.773 283.232C239.026 283.232 238.452 283.733 238.452 284.438C238.452 284.988 238.862 285.423 239.453 285.546L241.012 285.883C241.103 285.908 241.152 285.981 241.152 286.063C241.152 286.17 241.078 286.244 240.971 286.244H238.624V287.319H240.988C241.735 287.319 242.317 286.81 242.317 286.088C242.317 285.514 241.923 285.087 241.308 284.955L239.773 284.644C239.691 284.627 239.634 284.553 239.634 284.471C239.634 284.373 239.699 284.299 239.806 284.299H242.022V283.232H239.773ZM245.838 283.232H244.156V281.82H243.048V283.232H242.473V284.299H243.048V286.121C243.048 286.86 243.532 287.319 244.279 287.319H245.838V286.244H244.484C244.287 286.244 244.156 286.129 244.156 285.932V284.299H245.838V283.232ZM251.537 282.485V281.41H249.969C249.247 281.41 248.746 281.894 248.746 282.608V283.232H248.172V284.299H248.746V287.319H249.854V284.299H251.537V283.232H249.854V282.789C249.854 282.6 249.986 282.485 250.183 282.485H251.537ZM252.057 286.137C252.057 286.876 252.501 287.319 253.28 287.319H254.043V286.244H253.494C253.288 286.244 253.165 286.129 253.165 285.94V281.41H252.057V286.137ZM256.457 287.442C257.786 287.442 258.656 286.498 258.656 285.276C258.656 284.061 257.794 283.109 256.457 283.109C255.119 283.109 254.257 284.061 254.257 285.276C254.257 286.498 255.127 287.442 256.457 287.442ZM256.457 286.367C255.8 286.367 255.365 285.883 255.365 285.276C255.365 284.668 255.8 284.176 256.457 284.176C257.113 284.176 257.548 284.668 257.548 285.276C257.548 285.883 257.105 286.367 256.457 286.367ZM261.241 287.442C262.571 287.442 263.441 286.498 263.441 285.276C263.441 284.061 262.579 283.109 261.241 283.109C259.904 283.109 259.042 284.061 259.042 285.276C259.042 286.498 259.912 287.442 261.241 287.442ZM261.241 286.367C260.585 286.367 260.15 285.883 260.15 285.276C260.15 284.668 260.585 284.176 261.241 284.176C261.898 284.176 262.333 284.668 262.333 285.276C262.333 285.883 261.89 286.367 261.241 286.367ZM266.077 283.232C265.601 283.232 265.24 283.47 265.092 283.872H265.051V283.232H264.001V287.319H265.109V285.284C265.109 284.717 265.486 284.34 266.02 284.34H266.939V283.232H266.077Z" fill="#111827"/>
<path d="M281.763 282.951L278.79 285.924C278.439 286.275 277.865 286.275 277.514 285.924L274.541 282.951" stroke="#12143D" stroke-width="1.02591" stroke-miterlimit="10" stroke-linecap="round" stroke-linejoin="round"/>
</g>
<path d="M154.071 159.698C152.874 154.432 148.28 152.061 144.245 152.061C144.245 152.061 144.245 152.061 144.234 152.061C140.21 152.061 135.605 154.421 134.408 159.687C133.074 165.569 136.676 170.55 139.936 173.685C141.145 174.848 142.695 175.429 144.245 175.429C145.795 175.429 147.346 174.848 148.543 173.685C151.803 170.55 155.405 165.58 154.071 159.698ZM144.245 165.409C142.262 165.409 140.655 163.802 140.655 161.819C140.655 159.835 142.262 158.228 144.245 158.228C146.229 158.228 147.836 159.835 147.836 161.819C147.836 163.802 146.229 165.409 144.245 165.409Z" fill="#F18C53"/>
<path d="M204.09 242.056H168.183C165.539 242.056 163.395 239.912 163.395 237.268V172.294C163.395 169.65 161.252 167.507 158.608 167.507H154.162" stroke="#F18C53" stroke-width="2.05181" stroke-linecap="round"/>
</g>
<rect x="47.124" y="66.1655" width="255.433" height="553.994" rx="32.0596" stroke="white" stroke-width="1.36424"/>
</g>
<path d="M19.8037 36.1523H270.759C302.655 36.1523 328.512 62.0091 328.512 93.9051V236.5C328.512 321.748 259.405 390.854 174.158 390.854C88.9103 390.854 19.8037 321.748 19.8037 236.5V36.1523Z" stroke="white" stroke-width="4.09272"/>
<g filter="url(#filter6_bdii_377_7787)">
<rect x="107.909" y="300.132" width="269.091" height="73.6689" rx="21.8278" fill="#17181B" fill-opacity="0.85" shape-rendering="crispEdges"/>
<rect x="108.592" y="300.815" width="267.726" height="72.3046" rx="21.1457" stroke="#D8D8D8" stroke-opacity="0.2" stroke-width="1.36424" shape-rendering="crispEdges"/>
</g>
<rect x="121.569" y="308.318" width="56.6937" height="56.6937" rx="28.3469" fill="white"/>
<path d="M139.585 341.511C138.772 341.48 138.107 341.272 137.587 340.886C137.488 340.812 137.251 340.591 137.172 340.497C136.961 340.249 136.818 340.008 136.722 339.74C136.428 338.916 136.579 337.834 137.155 336.647C137.648 335.63 138.409 334.622 139.737 333.226C139.933 333.02 140.515 332.419 140.519 332.419C140.52 332.419 140.489 332.471 140.449 332.533C140.103 333.074 139.808 333.711 139.647 334.263C139.389 335.148 139.42 335.907 139.738 336.496C139.958 336.902 140.335 337.253 140.759 337.448C141.501 337.788 142.587 337.816 143.913 337.53C144.004 337.51 148.53 336.387 153.969 335.033C159.408 333.68 163.86 332.573 163.86 332.574C163.862 332.575 151.223 337.633 144.662 340.258C143.623 340.673 143.345 340.778 142.857 340.938C141.608 341.349 140.489 341.544 139.585 341.511Z" fill="black"/>
<path d="M201.592 327.3H199.976L195.115 319.944V327.3H193.499V317.436H195.115L199.976 324.778V317.436H201.592V327.3ZM203.175 323.36C203.175 322.576 203.336 321.882 203.657 321.277C203.988 320.672 204.432 320.204 204.989 319.874C205.556 319.533 206.18 319.363 206.86 319.363C207.475 319.363 208.008 319.486 208.462 319.732C208.925 319.968 209.293 320.266 209.568 320.625V319.491H211.197V327.3H209.568V326.138C209.293 326.507 208.92 326.814 208.448 327.06C207.975 327.305 207.437 327.428 206.832 327.428C206.161 327.428 205.547 327.258 204.989 326.918C204.432 326.568 203.988 326.086 203.657 325.472C203.336 324.848 203.175 324.145 203.175 323.36ZM209.568 323.389C209.568 322.85 209.454 322.382 209.227 321.985C209.01 321.589 208.722 321.286 208.363 321.078C208.004 320.87 207.616 320.767 207.201 320.767C206.785 320.767 206.397 320.87 206.038 321.078C205.679 321.277 205.386 321.574 205.16 321.971C204.942 322.359 204.834 322.822 204.834 323.36C204.834 323.899 204.942 324.371 205.16 324.778C205.386 325.184 205.679 325.496 206.038 325.713C206.407 325.921 206.794 326.025 207.201 326.025C207.616 326.025 208.004 325.921 208.363 325.713C208.722 325.505 209.01 325.203 209.227 324.806C209.454 324.4 209.568 323.927 209.568 323.389ZM216.339 325.855L218.55 319.491H220.265L217.288 327.3H215.361L212.398 319.491H214.128L216.339 325.855ZM222.308 318.456C222.015 318.456 221.769 318.357 221.571 318.159C221.373 317.96 221.273 317.715 221.273 317.422C221.273 317.129 221.373 316.883 221.571 316.685C221.769 316.486 222.015 316.387 222.308 316.387C222.592 316.387 222.833 316.486 223.031 316.685C223.229 316.883 223.329 317.129 223.329 317.422C223.329 317.715 223.229 317.96 223.031 318.159C222.833 318.357 222.592 318.456 222.308 318.456ZM223.102 319.491V327.3H221.486V319.491H223.102ZM228.37 319.363C228.974 319.363 229.508 319.486 229.971 319.732C230.444 319.968 230.812 320.266 231.077 320.625V319.491H232.707V327.428C232.707 328.146 232.556 328.784 232.253 329.341C231.951 329.908 231.511 330.352 230.935 330.674C230.368 330.995 229.688 331.156 228.894 331.156C227.836 331.156 226.957 330.905 226.258 330.404C225.559 329.913 225.162 329.242 225.067 328.392H226.669C226.792 328.798 227.052 329.124 227.448 329.37C227.855 329.625 228.337 329.752 228.894 329.752C229.546 329.752 230.07 329.554 230.467 329.157C230.874 328.76 231.077 328.184 231.077 327.428V326.124C230.803 326.493 230.43 326.804 229.957 327.06C229.494 327.305 228.965 327.428 228.37 327.428C227.689 327.428 227.066 327.258 226.499 326.918C225.941 326.568 225.497 326.086 225.166 325.472C224.845 324.848 224.685 324.145 224.685 323.36C224.685 322.576 224.845 321.882 225.166 321.277C225.497 320.672 225.941 320.204 226.499 319.874C227.066 319.533 227.689 319.363 228.37 319.363ZM231.077 323.389C231.077 322.85 230.963 322.382 230.737 321.985C230.519 321.589 230.231 321.286 229.872 321.078C229.513 320.87 229.126 320.767 228.71 320.767C228.294 320.767 227.907 320.87 227.548 321.078C227.189 321.277 226.896 321.574 226.669 321.971C226.452 322.359 226.343 322.822 226.343 323.36C226.343 323.899 226.452 324.371 226.669 324.778C226.896 325.184 227.189 325.496 227.548 325.713C227.916 325.921 228.304 326.025 228.71 326.025C229.126 326.025 229.513 325.921 229.872 325.713C230.231 325.505 230.519 325.203 230.737 324.806C230.963 324.4 231.077 323.927 231.077 323.389ZM234.29 323.36C234.29 322.576 234.451 321.882 234.772 321.277C235.103 320.672 235.547 320.204 236.105 319.874C236.672 319.533 237.295 319.363 237.975 319.363C238.59 319.363 239.124 319.486 239.577 319.732C240.04 319.968 240.409 320.266 240.683 320.625V319.491H242.313V327.3H240.683V326.138C240.409 326.507 240.035 326.814 239.563 327.06C239.09 327.305 238.552 327.428 237.947 327.428C237.276 327.428 236.662 327.258 236.105 326.918C235.547 326.568 235.103 326.086 234.772 325.472C234.451 324.848 234.29 324.145 234.29 323.36ZM240.683 323.389C240.683 322.85 240.569 322.382 240.342 321.985C240.125 321.589 239.837 321.286 239.478 321.078C239.119 320.87 238.731 320.767 238.316 320.767C237.9 320.767 237.512 320.87 237.153 321.078C236.794 321.277 236.501 321.574 236.275 321.971C236.057 322.359 235.949 322.822 235.949 323.36C235.949 323.899 236.057 324.371 236.275 324.778C236.501 325.184 236.794 325.496 237.153 325.713C237.522 325.921 237.909 326.025 238.316 326.025C238.731 326.025 239.119 325.921 239.478 325.713C239.837 325.505 240.125 325.203 240.342 324.806C240.569 324.4 240.683 323.927 240.683 323.389ZM246.32 320.809V325.132C246.32 325.425 246.386 325.637 246.518 325.77C246.66 325.893 246.896 325.954 247.227 325.954H248.219V327.3H246.944C246.216 327.3 245.658 327.13 245.271 326.79C244.884 326.45 244.69 325.897 244.69 325.132V320.809H243.769V319.491H244.69V317.549H246.32V319.491H248.219V320.809H246.32ZM250.53 318.456C250.237 318.456 249.992 318.357 249.793 318.159C249.595 317.96 249.496 317.715 249.496 317.422C249.496 317.129 249.595 316.883 249.793 316.685C249.992 316.486 250.237 316.387 250.53 316.387C250.814 316.387 251.055 316.486 251.253 316.685C251.452 316.883 251.551 317.129 251.551 317.422C251.551 317.715 251.452 317.96 251.253 318.159C251.055 318.357 250.814 318.456 250.53 318.456ZM251.324 319.491V327.3H249.708V319.491H251.324ZM257.386 319.363C258 319.363 258.548 319.491 259.03 319.746C259.521 320.001 259.904 320.379 260.178 320.88C260.452 321.381 260.589 321.985 260.589 322.694V327.3H258.987V322.935C258.987 322.236 258.812 321.702 258.463 321.333C258.113 320.956 257.636 320.767 257.031 320.767C256.427 320.767 255.945 320.956 255.586 321.333C255.236 321.702 255.061 322.236 255.061 322.935V327.3H253.445V319.491H255.061V320.384C255.326 320.063 255.661 319.812 256.068 319.633C256.483 319.453 256.923 319.363 257.386 319.363ZM265.796 319.363C266.401 319.363 266.935 319.486 267.398 319.732C267.87 319.968 268.239 320.266 268.504 320.625V319.491H270.133V327.428C270.133 328.146 269.982 328.784 269.68 329.341C269.378 329.908 268.938 330.352 268.362 330.674C267.795 330.995 267.115 331.156 266.321 331.156C265.263 331.156 264.384 330.905 263.685 330.404C262.985 329.913 262.588 329.242 262.494 328.392H264.096C264.218 328.798 264.478 329.124 264.875 329.37C265.281 329.625 265.763 329.752 266.321 329.752C266.973 329.752 267.497 329.554 267.894 329.157C268.3 328.76 268.504 328.184 268.504 327.428V326.124C268.229 326.493 267.856 326.804 267.384 327.06C266.921 327.305 266.392 327.428 265.796 327.428C265.116 327.428 264.492 327.258 263.925 326.918C263.368 326.568 262.924 326.086 262.593 325.472C262.272 324.848 262.111 324.145 262.111 323.36C262.111 322.576 262.272 321.882 262.593 321.277C262.924 320.672 263.368 320.204 263.925 319.874C264.492 319.533 265.116 319.363 265.796 319.363ZM268.504 323.389C268.504 322.85 268.39 322.382 268.163 321.985C267.946 321.589 267.658 321.286 267.299 321.078C266.94 320.87 266.552 320.767 266.137 320.767C265.721 320.767 265.333 320.87 264.974 321.078C264.615 321.277 264.322 321.574 264.096 321.971C263.878 322.359 263.77 322.822 263.77 323.36C263.77 323.899 263.878 324.371 264.096 324.778C264.322 325.184 264.615 325.496 264.974 325.713C265.343 325.921 265.73 326.025 266.137 326.025C266.552 326.025 266.94 325.921 267.299 325.713C267.658 325.505 267.946 325.203 268.163 324.806C268.39 324.4 268.504 323.927 268.504 323.389ZM277.823 320.809V325.132C277.823 325.425 277.889 325.637 278.021 325.77C278.163 325.893 278.399 325.954 278.73 325.954H279.722V327.3H278.446C277.719 327.3 277.161 327.13 276.774 326.79C276.386 326.45 276.193 325.897 276.193 325.132V320.809H275.271V319.491H276.193V317.549H277.823V319.491H279.722V320.809H277.823ZM284.598 327.428C283.861 327.428 283.195 327.263 282.6 326.932C282.005 326.592 281.537 326.119 281.197 325.515C280.857 324.9 280.687 324.192 280.687 323.389C280.687 322.595 280.861 321.891 281.211 321.277C281.561 320.663 282.038 320.19 282.642 319.859C283.247 319.529 283.923 319.363 284.669 319.363C285.416 319.363 286.091 319.529 286.696 319.859C287.301 320.19 287.778 320.663 288.128 321.277C288.477 321.891 288.652 322.595 288.652 323.389C288.652 324.182 288.473 324.886 288.113 325.5C287.754 326.115 287.263 326.592 286.639 326.932C286.025 327.263 285.345 327.428 284.598 327.428ZM284.598 326.025C285.014 326.025 285.402 325.926 285.761 325.727C286.129 325.529 286.427 325.231 286.654 324.834C286.88 324.437 286.994 323.956 286.994 323.389C286.994 322.822 286.885 322.344 286.668 321.957C286.45 321.56 286.162 321.263 285.803 321.064C285.444 320.866 285.057 320.767 284.641 320.767C284.225 320.767 283.838 320.866 283.479 321.064C283.129 321.263 282.85 321.56 282.642 321.957C282.435 322.344 282.331 322.822 282.331 323.389C282.331 324.23 282.543 324.882 282.968 325.345C283.403 325.798 283.946 326.025 284.598 326.025Z" fill="#9CA3AF"/>
<path d="M195.875 355.029V351.259H200.241C200.671 351.259 200.935 351.474 200.935 351.92V355.029H203.283V351.49C203.283 350.333 202.82 349.655 201.928 349.423V349.374C202.605 348.878 203.019 348.101 203.019 347.042C203.019 345.041 201.431 343.95 199.199 343.95H193.527V355.029H195.875ZM195.875 346.232H199.034C199.96 346.232 200.671 346.778 200.671 347.671C200.671 348.597 199.976 349.126 199.017 349.126H195.875V346.232ZM208.743 346.546C206.213 346.546 204.443 348.464 204.443 350.912C204.443 353.227 205.948 355.277 208.726 355.277C210.677 355.277 212.314 354.252 212.86 352.416H210.529C210.231 352.945 209.487 353.293 208.726 353.26C207.585 353.21 206.858 352.499 206.725 351.656H212.943C213.24 348.745 211.488 346.546 208.743 346.546ZM208.726 348.547C209.685 348.547 210.429 349.06 210.677 349.919H206.742C206.973 349.093 207.751 348.547 208.726 348.547ZM218.076 346.546C215.546 346.546 213.777 348.464 213.777 350.912C213.777 353.227 215.282 355.277 218.06 355.277C220.011 355.277 221.648 354.252 222.194 352.416H219.862C219.564 352.945 218.82 353.293 218.06 353.26C216.919 353.21 216.191 352.499 216.059 351.656H222.276C222.574 348.745 220.821 346.546 218.076 346.546ZM218.06 348.547C219.019 348.547 219.763 349.06 220.011 349.919H216.075C216.307 349.093 217.084 348.547 218.06 348.547ZM228.406 346.546C227.198 346.546 226.256 347.125 225.727 347.886H225.661V343.123H223.445V355.029H225.661V353.954H225.727C226.239 354.698 227.198 355.26 228.389 355.277C230.721 355.277 232.324 353.442 232.324 350.895C232.324 348.299 230.638 346.53 228.406 346.546ZM227.86 353.16C226.57 353.16 225.661 352.185 225.661 350.912C225.661 349.688 226.537 348.663 227.86 348.663C229.166 348.663 230.076 349.622 230.076 350.912C230.076 352.201 229.166 353.16 227.86 353.16ZM237.57 355.277C240.249 355.277 242.002 353.375 242.002 350.912C242.002 348.464 240.265 346.546 237.57 346.546C234.875 346.546 233.139 348.464 233.139 350.912C233.139 353.375 234.891 355.277 237.57 355.277ZM237.57 353.111C236.247 353.111 235.371 352.135 235.371 350.912C235.371 349.688 236.247 348.696 237.57 348.696C238.893 348.696 239.769 349.688 239.769 350.912C239.769 352.135 238.876 353.111 237.57 353.111ZM251.1 346.794H248.669L247.049 349.688H245.346V343.123H243.113V355.029H245.346V351.738H248.057C248.471 351.738 248.719 351.953 248.719 352.35V355.029H250.951V351.606C250.951 350.531 250.29 349.87 249.397 349.721L251.1 346.794ZM258.748 346.794C257.243 346.794 256.085 347.803 256.085 349.225C256.085 350.333 256.912 351.209 258.103 351.457L261.245 352.135C261.426 352.185 261.526 352.334 261.526 352.499C261.526 352.714 261.377 352.863 261.162 352.863H256.433V355.029H261.195C262.7 355.029 263.874 354.004 263.874 352.549C263.874 351.391 263.08 350.531 261.84 350.267L258.748 349.638C258.582 349.605 258.467 349.456 258.467 349.291C258.467 349.093 258.599 348.944 258.814 348.944H263.278V346.794H258.748ZM270.968 346.794H267.578V343.95H265.345V346.794H264.188V348.944H265.345V352.615C265.345 354.103 266.321 355.029 267.826 355.029H270.968V352.863H268.239C267.842 352.863 267.578 352.631 267.578 352.234V348.944H270.968V346.794ZM276.067 355.277C278.746 355.277 280.499 353.375 280.499 350.912C280.499 348.464 278.763 346.546 276.067 346.546C273.372 346.546 271.636 348.464 271.636 350.912C271.636 353.375 273.388 355.277 276.067 355.277ZM276.067 353.111C274.744 353.111 273.868 352.135 273.868 350.912C273.868 349.688 274.744 348.696 276.067 348.696C277.39 348.696 278.266 349.688 278.266 350.912C278.266 352.135 277.374 353.111 276.067 353.111ZM285.81 346.794C284.851 346.794 284.123 347.274 283.826 348.084H283.743V346.794H281.626V355.029H283.859V350.928C283.859 349.787 284.619 349.027 285.694 349.027H287.546V346.794H285.81ZM292.261 346.546C289.731 346.546 287.961 348.464 287.961 350.912C287.961 353.227 289.466 355.277 292.244 355.277C294.195 355.277 295.832 354.252 296.378 352.416H294.047C293.749 352.945 293.005 353.293 292.244 353.26C291.103 353.21 290.376 352.499 290.243 351.656H296.461C296.758 348.745 295.006 346.546 292.261 346.546ZM292.244 348.547C293.203 348.547 293.947 349.06 294.195 349.919H290.26C290.491 349.093 291.269 348.547 292.244 348.547Z" fill="white"/>
<defs>
<filter id="filter0_d_377_7787" x="-11.6925" y="49.6655" width="372.746" height="170.985" filterUnits="userSpaceOnUse" color-interpolation-filters="sRGB">
<feFlood flood-opacity="0" result="BackgroundImageFix"/>
<feColorMatrix in="SourceAlpha" type="matrix" values="0 0 0 0 0 0 0 0 0 0 0 0 0 0 0 0 0 0 127 0" result="hardAlpha"/>
<feOffset dy="20.5181"/>
<feGaussianBlur stdDeviation="34.5389"/>
<feComposite in2="hardAlpha" operator="out"/>
<feColorMatrix type="matrix" values="0 0 0 0 0.0156863 0 0 0 0 0.0235294 0 0 0 0 0.0588235 0 0 0 0.08 0"/>
<feBlend mode="normal" in2="BackgroundImageFix" result="effect1_dropShadow_377_7787"/>
<feBlend mode="normal" in="SourceGraphic" in2="effect1_dropShadow_377_7787" result="shape"/>
</filter>
<filter id="filter1_d_377_7787" x="-11.6925" y="240.019" width="165.949" height="194.238" filterUnits="userSpaceOnUse" color-interpolation-filters="sRGB">
<feFlood flood-opacity="0" result="BackgroundImageFix"/>
<feColorMatrix in="SourceAlpha" type="matrix" values="0 0 0 0 0 0 0 0 0 0 0 0 0 0 0 0 0 0 127 0" result="hardAlpha"/>
<feOffset dy="36.2487"/>
<feGaussianBlur stdDeviation="34.5389"/>
<feComposite in2="hardAlpha" operator="out"/>
<feColorMatrix type="matrix" values="0 0 0 0 0.0156863 0 0 0 0 0.0235294 0 0 0 0 0.0588235 0 0 0 0.08 0"/>
<feBlend mode="normal" in2="BackgroundImageFix" result="effect1_dropShadow_377_7787"/>
<feBlend mode="normal" in="SourceGraphic" in2="effect1_dropShadow_377_7787" result="shape"/>
</filter>
<filter id="filter2_d_377_7787" x="195.54" y="268.744" width="165.513" height="165.513" filterUnits="userSpaceOnUse" color-interpolation-filters="sRGB">
<feFlood flood-opacity="0" result="BackgroundImageFix"/>
<feColorMatrix in="SourceAlpha" type="matrix" values="0 0 0 0 0 0 0 0 0 0 0 0 0 0 0 0 0 0 127 0" result="hardAlpha"/>
<feOffset dy="36.2487"/>
<feGaussianBlur stdDeviation="34.5389"/>
<feComposite in2="hardAlpha" operator="out"/>
<feColorMatrix type="matrix" values="0 0 0 0 0.0156863 0 0 0 0 0.0235294 0 0 0 0 0.0588235 0 0 0 0.08 0"/>
<feBlend mode="normal" in2="BackgroundImageFix" result="effect1_dropShadow_377_7787"/>
<feBlend mode="normal" in="SourceGraphic" in2="effect1_dropShadow_377_7787" result="shape"/>
</filter>
<filter id="filter3_bd_377_7787" x="175.022" y="214.356" width="76.601" height="76.6011" filterUnits="userSpaceOnUse" color-interpolation-filters="sRGB">
<feFlood flood-opacity="0" result="BackgroundImageFix"/>
<feGaussianBlur in="BackgroundImageFix" stdDeviation="0.683938"/>
<feComposite in2="SourceAlpha" operator="in" result="effect1_backgroundBlur_377_7787"/>
<feColorMatrix in="SourceAlpha" type="matrix" values="0 0 0 0 0 0 0 0 0 0 0 0 0 0 0 0 0 0 127 0" result="hardAlpha"/>
<feOffset dx="5.47151" dy="10.943"/>
<feGaussianBlur stdDeviation="10.943"/>
<feComposite in2="hardAlpha" operator="out"/>
<feColorMatrix type="matrix" values="0 0 0 0 0.419608 0 0 0 0 0.447059 0 0 0 0 0.501961 0 0 0 0.1 0"/>
<feBlend mode="normal" in2="effect1_backgroundBlur_377_7787" result="effect2_dropShadow_377_7787"/>
<feBlend mode="normal" in="SourceGraphic" in2="effect2_dropShadow_377_7787" result="shape"/>
</filter>
<filter id="filter4_d_377_7787" x="178.442" y="215.04" width="58.8187" height="58.8187" filterUnits="userSpaceOnUse" color-interpolation-filters="sRGB">
<feFlood flood-opacity="0" result="BackgroundImageFix"/>
<feColorMatrix in="SourceAlpha" type="matrix" values="0 0 0 0 0 0 0 0 0 0 0 0 0 0 0 0 0 0 127 0" result="hardAlpha"/>
<feOffset dy="2.73575"/>
<feGaussianBlur stdDeviation="10.943"/>
<feComposite in2="hardAlpha" operator="out"/>
<feColorMatrix type="matrix" values="0 0 0 0 0.419608 0 0 0 0 0.447059 0 0 0 0 0.501961 0 0 0 0.4 0"/>
<feBlend mode="normal" in2="BackgroundImageFix" result="effect1_dropShadow_377_7787"/>
<feBlend mode="normal" in="SourceGraphic" in2="effect1_dropShadow_377_7787" result="shape"/>
</filter>
<filter id="filter5_d_377_7787" x="192.805" y="240.019" width="133.223" height="91.3368" filterUnits="userSpaceOnUse" color-interpolation-filters="sRGB">
<feFlood flood-opacity="0" result="BackgroundImageFix"/>
<feColorMatrix in="SourceAlpha" type="matrix" values="0 0 0 0 0 0 0 0 0 0 0 0 0 0 0 0 0 0 127 0" result="hardAlpha"/>
<feOffset dy="1.36788"/>
<feGaussianBlur stdDeviation="17.0985"/>
<feComposite in2="hardAlpha" operator="out"/>
<feColorMatrix type="matrix" values="0 0 0 0 0.419608 0 0 0 0 0.447059 0 0 0 0 0.501961 0 0 0 0.12 0"/>
<feBlend mode="normal" in2="BackgroundImageFix" result="effect1_dropShadow_377_7787"/>
<feBlend mode="normal" in="SourceGraphic" in2="effect1_dropShadow_377_7787" result="shape"/>
</filter>
<filter id="filter6_bdii_377_7787" x="53.3399" y="238.742" width="378.23" height="182.808" filterUnits="userSpaceOnUse" color-interpolation-filters="sRGB">
<feFlood flood-opacity="0" result="BackgroundImageFix"/>
<feGaussianBlur in="BackgroundImageFix" stdDeviation="6.13907"/>
<feComposite in2="SourceAlpha" operator="in" result="effect1_backgroundBlur_377_7787"/>
<feColorMatrix in="SourceAlpha" type="matrix" values="0 0 0 0 0 0 0 0 0 0 0 0 0 0 0 0 0 0 127 0" result="hardAlpha"/>
<feOffset dy="-6.82119"/>
<feGaussianBlur stdDeviation="27.2848"/>
<feComposite in2="hardAlpha" operator="out"/>
<feColorMatrix type="matrix" values="0 0 0 0 0.392157 0 0 0 0 0.454902 0 0 0 0 0.545098 0 0 0 0.05 0"/>
<feBlend mode="normal" in2="effect1_backgroundBlur_377_7787" result="effect2_dropShadow_377_7787"/>
<feBlend mode="normal" in="SourceGraphic" in2="effect2_dropShadow_377_7787" result="shape"/>
<feColorMatrix in="SourceAlpha" type="matrix" values="0 0 0 0 0 0 0 0 0 0 0 0 0 0 0 0 0 0 127 0" result="hardAlpha"/>
<feOffset dx="-12.1872" dy="12.1872"/>
<feGaussianBlur stdDeviation="6.0936"/>
<feComposite in2="hardAlpha" operator="arithmetic" k2="-1" k3="1"/>
<feColorMatrix type="matrix" values="0 0 0 0 1 0 0 0 0 1 0 0 0 0 1 0 0 0 0.1 0"/>
<feBlend mode="normal" in2="shape" result="effect3_innerShadow_377_7787"/>
<feColorMatrix in="SourceAlpha" type="matrix" values="0 0 0 0 0 0 0 0 0 0 0 0 0 0 0 0 0 0 127 0" result="hardAlpha"/>
<feOffset dx="12.1872" dy="-12.1872"/>
<feGaussianBlur stdDeviation="11.596"/>
<feComposite in2="hardAlpha" operator="arithmetic" k2="-1" k3="1"/>
<feColorMatrix type="matrix" values="0 0 0 0 0.76 0 0 0 0 0.76 0 0 0 0 0.76 0 0 0 0.03 0"/>
<feBlend mode="normal" in2="effect3_innerShadow_377_7787" result="effect4_innerShadow_377_7787"/>
</filter>
<radialGradient id="paint0_radial_377_7787" cx="0" cy="0" r="1" gradientUnits="userSpaceOnUse" gradientTransform="translate(47.8079 321.246) rotate(-16.4919) scale(315.803 312.773)">
<stop stop-color="#F18C53"/>
<stop offset="1" stop-color="#E83A64"/>
</radialGradient>
<clipPath id="clip0_377_7787">
<rect x="46.4419" y="65.4834" width="256.797" height="555.358" rx="32.7417" fill="white"/>
</clipPath>
</defs>
</svg>
