<svg width="48" height="48" viewBox="0 0 48 48" fill="none" xmlns="http://www.w3.org/2000/svg">
<circle cx="24" cy="24" r="24" fill="#F9FAFB"/>
<mask id="mask0_377_25393" style="mask-type:alpha" maskUnits="userSpaceOnUse" x="0" y="0" width="48" height="48">
<circle cx="24" cy="24" r="24" fill="#EFF4FF"/>
</mask>
<g mask="url(#mask0_377_25393)">
<path d="M41.8939 46.1754C41.8939 45.9607 41.7866 45.6387 41.6792 45.4241C41.5719 44.9948 41.4646 44.6728 41.3572 44.3508C41.2499 44.0288 41.1426 43.8141 41.0353 43.5995C39.962 41.3456 38.2447 39.199 35.8834 38.0183C34.7028 37.4817 33.4148 37.0524 32.0196 37.0524C31.5902 37.0524 31.2682 37.0524 30.9463 37.0524C29.9803 37.0524 29.3363 36.945 29.0143 36.8377C28.4777 36.7304 28.3703 36.5157 28.3703 36.5157V32.5445C29.6583 31.4712 30.7316 30.3979 31.6976 29.1099C32.5562 27.822 33.3075 26.4267 33.6295 24.9241C35.1321 24.6021 36.2054 23.2068 35.9908 21.5969C35.8834 20.8455 35.4541 20.3089 35.4541 19.5576C35.4541 19.2356 35.4541 18.8063 35.4541 18.4843C35.4541 18.2696 35.4541 18.055 35.4541 17.733C35.4541 17.5183 35.4541 17.3037 35.3468 16.9817C35.2395 16.123 35.0248 15.1571 34.5955 14.0838C34.4881 13.7618 34.2735 13.4398 34.1662 13.1178C32.2342 9.46859 28.3703 7 23.9698 7C23.1112 7 22.2525 7.10733 21.3939 7.32199C19.8913 7.64398 18.3887 8.39529 17.1007 9.36126C16.8861 9.57592 16.5641 9.79058 16.3494 10.0052C16.3494 10.0052 16.2421 10.1126 16.1347 10.1126C14.7395 11.4005 13.6662 13.0105 13.1295 14.8351C12.4855 16.6597 12.3782 18.4843 12.5929 20.4162V20.5236V20.6309C12.5929 20.9529 12.7002 20.9529 12.4855 21.1675C12.3782 21.2749 12.3782 21.3822 12.2709 21.4895C11.9489 22.0262 11.7342 22.7775 12.0562 23.6361C12.5929 25.2461 13.7735 25.0314 14.9541 25.9974C14.8468 25.9974 14.8468 26.1047 14.7395 26.1047L13.3442 26.6414C8.62165 28.144 6.58238 31.9005 7.76301 34.7984C7.97767 35.1204 8.085 35.5497 8.40699 35.8717C9.26563 36.945 10.6609 37.8037 12.7002 38.233C12.1635 38.233 11.6269 38.555 11.3049 38.877C8.94364 40.7016 7.44102 43.5995 7.0117 46.3901C6.90437 47.2487 7.54835 48 8.40699 48H40.3913C41.3573 47.8927 42.1086 47.034 41.8939 46.1754ZM16.9934 30.2906C17.3154 30.7199 17.6374 31.1492 18.0667 31.5785C18.3887 31.9005 18.7107 32.1152 19.14 32.4372C19.3546 32.6518 19.6766 32.7592 19.8913 32.9738L19.9986 33.0812C20.1059 33.0812 20.1059 33.1885 20.2133 33.2958V35.6571L20.1059 35.5497C19.8913 35.3351 19.6766 35.1204 19.462 35.0131C19.14 34.7984 18.7107 34.5838 18.3887 34.3691C18.2813 34.2618 18.174 34.2618 18.0667 34.1544C16.9934 33.5105 15.9201 32.7592 15.9201 32.0079C15.9201 31.4712 16.2421 30.9346 16.9934 30.2906Z" fill="#F9FAFB"/>
<path d="M42.1087 46.39C41.1427 47.356 39.6401 47.1413 38.5668 47.8926H8.51443C7.76312 47.8926 7.22647 47.356 7.11914 46.712C7.11914 46.6046 7.11914 46.39 7.11914 46.2827C7.54846 43.4921 9.05108 40.7015 11.4123 38.7696C11.7343 38.4476 12.271 38.2329 12.8076 38.1256C10.7684 37.6963 9.37307 36.8376 8.51443 35.7643C8.19244 35.4423 8.08511 35.1204 7.87045 34.691H15.4909L15.8129 35.1204C17.5301 37.4816 20.2134 38.8769 23.1113 38.8769C25.2579 38.8769 27.4045 38.1256 29.0144 36.7303C29.3364 36.8376 29.7657 36.8376 30.4097 36.945C30.6244 36.945 30.7317 36.945 30.9464 36.945C31.2684 36.945 31.5903 36.945 32.0197 36.945C33.4149 36.945 34.7029 37.3743 35.8835 37.9109C38.2448 39.0916 40.0694 41.2382 41.0354 43.4921C41.1427 43.7067 41.25 44.0287 41.3574 44.2434C41.4647 44.6727 42.0013 46.068 42.1087 46.39Z" fill="white"/>
<path d="M42.1086 46.3901C41.1426 47.3561 39.64 47.1414 38.5667 47.8927H8.83633C8.19235 47.5708 7.6557 47.1414 7.01172 46.7121C7.01172 46.6048 7.01172 46.3901 7.01172 46.2828C7.44104 43.4922 8.94366 40.7016 11.3049 38.7697C11.6269 38.4477 12.1635 38.2331 12.7002 38.1257C10.6609 37.6964 9.26564 36.8378 8.40701 35.7645H14.8468C16.6714 38.3404 19.6766 39.9503 23.0039 39.9503C25.9018 39.9503 28.3704 38.7697 30.3023 36.8378C30.517 36.8378 30.6243 36.8378 30.8389 36.8378C31.1609 36.8378 31.4829 36.8378 31.9122 36.8378C33.3075 36.8378 34.5955 37.2671 35.7761 37.8037C38.1374 38.9844 39.962 41.131 40.9279 43.3849C41.0353 43.5995 41.1426 43.9215 41.2499 44.1362C41.4646 44.6728 42.0012 46.0681 42.1086 46.3901Z" fill="#EEF1F4"/>
<path d="M28.3706 32.5444C28.2633 32.5444 28.2633 32.5444 28.3706 32.5444L28.2633 36.8376L17.5303 37.1596L18.0669 34.1544C18.1743 34.2617 18.2816 34.2617 18.3889 34.369C18.7109 34.5837 19.1402 34.7984 19.4622 35.013C19.6769 35.1203 19.8915 35.335 20.1062 35.5497L20.2135 35.657V33.2957C20.1062 33.2957 20.1062 33.1884 19.9989 33.1884C22.1455 34.1544 24.7214 34.691 28.3706 32.5444Z" fill="url(#paint0_linear_377_25393)"/>
<path d="M35.2396 17.8403C33.0931 18.5916 30.8391 18.8063 28.5852 18.699C25.0433 18.377 21.6088 16.9817 18.9255 14.6204C18.1742 17.1963 15.9203 19.1283 13.4517 20.2016C13.1297 20.3089 12.8077 20.5236 12.4857 20.6309V20.5236C12.2711 18.699 12.3784 16.767 13.0224 14.9424C13.6664 13.1178 14.6323 11.5079 16.0276 10.2199C16.1349 10.1126 16.1349 10.1126 16.2423 10.1126C16.4569 9.89791 16.7789 9.68325 16.9936 9.46859C18.2815 8.50262 19.6768 7.85864 21.2868 7.53665C22.1454 7.32199 23.004 7.21466 23.8627 7.21466C28.2632 7.21466 32.1271 9.68325 34.059 13.3325C34.8103 14.7277 35.1323 16.0157 35.2396 17.089C35.2396 17.411 35.2396 17.6257 35.2396 17.8403Z" fill="#17181B"/>
<path d="M21.7158 42.8482C20.7498 44.0288 19.0326 44.0288 17.53 44.0288C19.1399 42.5262 18.1739 37.589 12.7001 38.1257H12.5928C5.07969 36.7304 5.93833 28.8953 13.2368 26.6414L14.4174 26.212C14.5247 26.3194 14.5247 26.3194 14.632 26.4267C15.1687 27.9293 16.0273 29.2173 16.886 30.2906C13.8807 32.7592 18.0666 33.6178 20.1059 35.4424C21.9305 36.5157 23.4331 40.8089 21.7158 42.8482Z" fill="#17181B"/>
</g>
<defs>
<linearGradient id="paint0_linear_377_25393" x1="22.9504" y1="32.5444" x2="22.9504" y2="37.1596" gradientUnits="userSpaceOnUse">
<stop stop-color="#EEF1F4"/>
<stop offset="1" stop-color="#EEF1F4" stop-opacity="0"/>
</linearGradient>
</defs>
</svg>
