<svg width="137" height="136" viewBox="0 0 137 136" fill="none" xmlns="http://www.w3.org/2000/svg">
<circle cx="68.5" cy="68" r="68" fill="#F9FAFB"/>
<mask id="mask0_314_18304" style="mask-type:alpha" maskUnits="userSpaceOnUse" x="0" y="0" width="137" height="136">
<circle cx="68.5" cy="68" r="68" fill="#EFF4FF"/>
</mask>
<g mask="url(#mask0_314_18304)">
<g filter="url(#filter0_d_314_18304)">
<path d="M86.7695 56.5466C96.7272 52.6656 110.933 44.6359 116.775 41.1563C117.572 40.621 118.634 41.5578 118.236 42.4946C116.377 46.911 114.917 48.9184 114.917 48.9184C114.917 48.9184 117.97 49.5875 119.962 51.3273C120.758 51.9964 120.626 53.2009 119.696 53.6024C114.518 56.1451 107.88 57.3496 107.88 57.3496L90.0888 58.8217L86.7695 56.5466Z" fill="#F18C53"/>
</g>
<g filter="url(#filter1_d_314_18304)">
<path d="M50.7895 56.3497C40.8318 52.4686 26.6256 44.4389 20.7837 40.9594C19.9871 40.4241 18.925 41.3609 19.3233 42.2977C21.182 46.714 22.6425 48.7214 22.6425 48.7214C22.6425 48.7214 19.5888 49.3906 17.5973 51.1303C16.8007 51.7995 16.9334 53.0039 17.8628 53.4054C23.0408 55.9482 29.6793 57.1526 29.6793 57.1526L47.4703 58.6248L50.7895 56.3497Z" fill="#F18C53"/>
</g>
<g filter="url(#filter2_d_314_18304)">
<path d="M108.411 38.4161C108.013 40.8251 106.95 42.9663 105.49 44.8399C102.436 48.7209 97.9222 51.2637 93.6736 53.4049C90.4871 55.0109 87.1679 56.483 83.7159 57.4198C81.4589 57.9551 77.4758 56.7507 74.8204 55.68C73.2272 55.0109 72.165 54.6094 72.165 54.6094V51.3975C72.8289 46.1782 73.2272 40.6912 75.3515 35.8734C77.2103 31.4571 80.2639 27.4422 84.247 24.6318C88.0973 21.8214 92.7442 19.1448 97.7894 20.7508C103.897 22.7582 108.411 28.7805 108.809 35.2043C108.676 36.2749 108.544 37.3455 108.411 38.4161Z" fill="#F18C53"/>
</g>
<path d="M78.9364 47.517C77.3432 47.9185 75.8828 46.4464 76.4138 44.8405C78.6709 36.6769 81.5918 33.1974 84.38 30.6546C86.9026 28.3795 91.1512 26.3721 95.0015 25.5691C96.4619 25.3015 97.6568 26.5059 97.5241 27.9781C96.993 33.1974 94.8687 38.2829 91.0184 41.2271C86.106 45.1081 81.7246 46.8479 78.9364 47.517Z" fill="white"/>
<g filter="url(#filter3_d_314_18304)">
<path d="M66.0573 51.2642V54.4761C66.0573 54.4761 65.7918 54.6099 65.3935 54.7437C63.4019 55.6805 57.4273 58.0895 54.5064 57.2865C51.0544 56.4835 47.7352 54.8776 44.5488 53.2716C40.3002 51.1304 35.6532 48.5876 32.7323 44.7066C31.2719 42.833 30.2097 40.6917 29.8114 38.2828C29.4131 35.2048 29.8114 32.2605 31.1391 29.4501C31.6702 28.3795 32.2013 27.3089 32.8651 26.3721C34.8566 23.6955 37.512 21.5542 40.6985 20.4836C45.6109 18.8777 50.2578 21.5542 54.2409 24.3646C58.224 27.175 61.2776 31.0561 63.1364 35.6062C64.8624 40.5579 65.3935 46.0449 66.0573 51.2642Z" fill="#F18C53"/>
</g>
<g filter="url(#filter4_d_314_18304)">
<path d="M69.2449 67.9221C74.4511 67.9221 78.6715 63.668 78.6715 58.4203C78.6715 53.1726 74.4511 48.9185 69.2449 48.9185C64.0388 48.9185 59.8184 53.1726 59.8184 58.4203C59.8184 63.668 64.0388 67.9221 69.2449 67.9221Z" fill="#F18C53"/>
</g>
<path d="M59.0206 47.517C60.6138 47.9185 62.0743 46.4464 61.5432 44.8405C59.2861 36.6769 56.3652 33.1974 53.5771 30.6546C51.0545 28.3795 46.8059 26.3721 42.9556 25.5691C41.4951 25.3015 40.3002 26.5059 40.4329 27.9781C40.964 33.1974 43.0883 38.2829 46.9386 41.2271C51.9838 45.1081 56.2324 46.8479 59.0206 47.517Z" fill="white"/>
<g filter="url(#filter5_d_314_18304)">
<path d="M111.199 69.7326V135.576C111.199 139.056 108.411 141.866 104.959 141.866H33.2636C29.8116 141.866 27.0234 139.056 27.0234 135.576V69.7326C27.0234 66.253 29.8116 63.4426 33.2636 63.4426H104.959C108.411 63.4426 111.199 66.253 111.199 69.7326Z" fill="white"/>
</g>
<path d="M111.199 69.7326V84.3199H27.0234V69.7326C27.0234 66.253 29.8116 63.4426 33.2636 63.4426H104.959C108.411 63.4426 111.199 66.253 111.199 69.7326Z" fill="#F9FAFB"/>
<g filter="url(#filter6_d_314_18304)">
<path d="M115.581 58.6248V75.4872C115.581 77.4946 113.988 79.2344 111.863 79.2344H26.3601C24.3686 79.2344 22.6426 77.6284 22.6426 75.4872V58.6248C22.6426 56.6173 24.2358 54.8776 26.3601 54.8776H111.996C113.988 54.8776 115.581 56.6173 115.581 58.6248Z" fill="white"/>
</g>
<path d="M79.4671 70.4017H56.6309V142H79.4671V70.4017Z" fill="#F18C53"/>
<path opacity="0.6" d="M79.4671 70.4017H56.6309V84.3199H79.4671V70.4017Z" fill="#F18C53"/>
<path d="M81.0608 54.8776H55.0381V79.2344H81.0608V54.8776Z" fill="#F18C53"/>
</g>
<defs>
<filter id="filter0_d_314_18304" x="78.7695" y="38" width="49.7148" height="33.8217" filterUnits="userSpaceOnUse" color-interpolation-filters="sRGB">
<feFlood flood-opacity="0" result="BackgroundImageFix"/>
<feColorMatrix in="SourceAlpha" type="matrix" values="0 0 0 0 0 0 0 0 0 0 0 0 0 0 0 0 0 0 127 0" result="hardAlpha"/>
<feOffset dy="5"/>
<feGaussianBlur stdDeviation="4"/>
<feColorMatrix type="matrix" values="0 0 0 0 0.968627 0 0 0 0 0.254902 0 0 0 0 0.564706 0 0 0 0.18 0"/>
<feBlend mode="normal" in2="BackgroundImageFix" result="effect1_dropShadow_314_18304"/>
<feBlend mode="normal" in="SourceGraphic" in2="effect1_dropShadow_314_18304" result="shape"/>
</filter>
<filter id="filter1_d_314_18304" x="9.07422" y="37.803" width="49.7148" height="33.8217" filterUnits="userSpaceOnUse" color-interpolation-filters="sRGB">
<feFlood flood-opacity="0" result="BackgroundImageFix"/>
<feColorMatrix in="SourceAlpha" type="matrix" values="0 0 0 0 0 0 0 0 0 0 0 0 0 0 0 0 0 0 127 0" result="hardAlpha"/>
<feOffset dy="5"/>
<feGaussianBlur stdDeviation="4"/>
<feColorMatrix type="matrix" values="0 0 0 0 0.968627 0 0 0 0 0.254902 0 0 0 0 0.564706 0 0 0 0.18 0"/>
<feBlend mode="normal" in2="BackgroundImageFix" result="effect1_dropShadow_314_18304"/>
<feBlend mode="normal" in="SourceGraphic" in2="effect1_dropShadow_314_18304" result="shape"/>
</filter>
<filter id="filter2_d_314_18304" x="64.165" y="17.2672" width="52.6445" height="53.2841" filterUnits="userSpaceOnUse" color-interpolation-filters="sRGB">
<feFlood flood-opacity="0" result="BackgroundImageFix"/>
<feColorMatrix in="SourceAlpha" type="matrix" values="0 0 0 0 0 0 0 0 0 0 0 0 0 0 0 0 0 0 127 0" result="hardAlpha"/>
<feOffset dy="5"/>
<feGaussianBlur stdDeviation="4"/>
<feColorMatrix type="matrix" values="0 0 0 0 0.968627 0 0 0 0 0.254902 0 0 0 0 0.564706 0 0 0 0.18 0"/>
<feBlend mode="normal" in2="BackgroundImageFix" result="effect1_dropShadow_314_18304"/>
<feBlend mode="normal" in="SourceGraphic" in2="effect1_dropShadow_314_18304" result="shape"/>
</filter>
<filter id="filter3_d_314_18304" x="21.6641" y="17" width="52.3936" height="53.4478" filterUnits="userSpaceOnUse" color-interpolation-filters="sRGB">
<feFlood flood-opacity="0" result="BackgroundImageFix"/>
<feColorMatrix in="SourceAlpha" type="matrix" values="0 0 0 0 0 0 0 0 0 0 0 0 0 0 0 0 0 0 127 0" result="hardAlpha"/>
<feOffset dy="5"/>
<feGaussianBlur stdDeviation="4"/>
<feColorMatrix type="matrix" values="0 0 0 0 0.968627 0 0 0 0 0.254902 0 0 0 0 0.564706 0 0 0 0.18 0"/>
<feBlend mode="normal" in2="BackgroundImageFix" result="effect1_dropShadow_314_18304"/>
<feBlend mode="normal" in="SourceGraphic" in2="effect1_dropShadow_314_18304" result="shape"/>
</filter>
<filter id="filter4_d_314_18304" x="51.8184" y="45.9185" width="34.8535" height="35.0037" filterUnits="userSpaceOnUse" color-interpolation-filters="sRGB">
<feFlood flood-opacity="0" result="BackgroundImageFix"/>
<feColorMatrix in="SourceAlpha" type="matrix" values="0 0 0 0 0 0 0 0 0 0 0 0 0 0 0 0 0 0 127 0" result="hardAlpha"/>
<feOffset dy="5"/>
<feGaussianBlur stdDeviation="4"/>
<feColorMatrix type="matrix" values="0 0 0 0 0.968627 0 0 0 0 0.254902 0 0 0 0 0.564706 0 0 0 0.18 0"/>
<feBlend mode="normal" in2="BackgroundImageFix" result="effect1_dropShadow_314_18304"/>
<feBlend mode="normal" in="SourceGraphic" in2="effect1_dropShadow_314_18304" result="shape"/>
</filter>
<filter id="filter5_d_314_18304" x="-42.9766" y="-7.55737" width="224.176" height="218.424" filterUnits="userSpaceOnUse" color-interpolation-filters="sRGB">
<feFlood flood-opacity="0" result="BackgroundImageFix"/>
<feColorMatrix in="SourceAlpha" type="matrix" values="0 0 0 0 0 0 0 0 0 0 0 0 0 0 0 0 0 0 127 0" result="hardAlpha"/>
<feOffset dy="-1"/>
<feGaussianBlur stdDeviation="35"/>
<feComposite in2="hardAlpha" operator="out"/>
<feColorMatrix type="matrix" values="0 0 0 0 0 0 0 0 0 0.170527 0 0 0 0 0.504167 0 0 0 0.14 0"/>
<feBlend mode="normal" in2="BackgroundImageFix" result="effect1_dropShadow_314_18304"/>
<feBlend mode="normal" in="SourceGraphic" in2="effect1_dropShadow_314_18304" result="shape"/>
</filter>
<filter id="filter6_d_314_18304" x="-47.3574" y="-16.1224" width="232.938" height="164.357" filterUnits="userSpaceOnUse" color-interpolation-filters="sRGB">
<feFlood flood-opacity="0" result="BackgroundImageFix"/>
<feColorMatrix in="SourceAlpha" type="matrix" values="0 0 0 0 0 0 0 0 0 0 0 0 0 0 0 0 0 0 127 0" result="hardAlpha"/>
<feOffset dy="-1"/>
<feGaussianBlur stdDeviation="35"/>
<feComposite in2="hardAlpha" operator="out"/>
<feColorMatrix type="matrix" values="0 0 0 0 0 0 0 0 0 0.170527 0 0 0 0 0.504167 0 0 0 0.14 0"/>
<feBlend mode="normal" in2="BackgroundImageFix" result="effect1_dropShadow_314_18304"/>
<feBlend mode="normal" in="SourceGraphic" in2="effect1_dropShadow_314_18304" result="shape"/>
</filter>
</defs>
</svg>
