<svg width="72" height="72" viewBox="0 0 72 72" fill="none" xmlns="http://www.w3.org/2000/svg">
<g clip-path="url(#clip0_417_34167)">
<rect width="72" height="72" rx="36" fill="#EEF1F4"/>
<path opacity="0.17" d="M29.0551 -0.0193316C28.8142 -0.420938 28.3801 -0.666672 27.9118 -0.666672H15.0217C13.9853 -0.666672 13.3451 0.463955 13.8783 1.35266L28.2783 25.3527C28.5193 25.7543 28.9533 26 29.4217 26H42.3118C43.3482 26 43.9883 24.8694 43.4551 23.9807L29.0551 -0.0193316Z" fill="#9CA3AF"/>
<path d="M42.9448 -0.0193316C43.1858 -0.420938 43.6198 -0.666672 44.0882 -0.666672H56.9783C58.0147 -0.666672 58.6548 0.463955 58.1216 1.35266L43.7216 25.3527C43.4807 25.7543 43.0467 26 42.5783 26H29.6882C28.6518 26 28.0116 24.8694 28.5448 23.9807L42.9448 -0.0193316Z" fill="#EEF1F4"/>
<path d="M41.9778 20.2354C44.7418 19.8295 47.1432 20.3541 48.7279 21.9389C50.3127 23.5237 50.8373 25.925 50.4314 28.689C52.6729 30.3565 54 32.4255 54 34.6667C54 36.9079 52.6729 38.9769 50.4314 40.6443C50.8373 43.4085 50.3127 45.8099 48.7279 47.3947C47.1432 48.9795 44.7417 49.5041 41.9776 49.0982C40.3101 51.3396 38.2412 52.6667 36 52.6667C33.7589 52.6667 31.6899 51.3396 30.0224 49.0982C27.2583 49.5041 24.8569 48.9795 23.2721 47.3947C21.6873 45.8099 21.1627 43.4085 21.5686 40.6443C19.3271 38.9769 18 36.9079 18 34.6667C18 32.4255 19.3271 30.3565 21.5686 28.689C21.1628 25.925 21.6874 23.5236 23.2721 21.9389C24.8569 20.3541 27.2583 19.8295 30.0223 20.2353C31.6897 17.9938 33.7587 16.6667 36 16.6667C38.2413 16.6667 40.3103 17.9939 41.9778 20.2354Z" fill="#FFB700"/>
<path d="M40.4281 23.9769C42.4755 23.6762 44.2543 24.0648 45.4281 25.2387C46.6021 26.4126 46.9907 28.1914 46.69 30.2388C48.3503 31.4739 49.3334 33.0065 49.3334 34.6667C49.3334 36.3268 48.3503 37.8594 46.69 39.0945C46.9907 41.1421 46.6021 42.9209 45.4282 44.0949C44.2543 45.2687 42.4754 45.6573 40.4279 45.3567C39.1928 47.017 37.6602 48 36.0001 48C34.3399 48 32.8074 47.017 31.5722 45.3567C29.5247 45.6574 27.7459 45.2688 26.572 44.0949C25.3981 42.9209 25.0095 41.1421 25.3101 39.0946C23.6498 37.8594 22.6667 36.3268 22.6667 34.6667C22.6667 33.0065 23.6498 31.4739 25.3101 30.2387C25.0095 28.1913 25.3981 26.4125 26.572 25.2387C27.7459 24.0648 29.5247 23.6762 31.5721 23.9768C32.8073 22.3164 34.3399 21.3333 36.0001 21.3333C37.6603 21.3333 39.1929 22.3164 40.4281 23.9769Z" fill="#FFC93F"/>
<path fill-rule="evenodd" clip-rule="evenodd" d="M35.3334 31.2969V40H37.5912V28.6094H37.349L32.638 30.2969V32.1328L35.3334 31.2969Z" fill="#FFF2D1"/>
</g>
<defs>
<clipPath id="clip0_417_34167">
<rect width="72" height="72" rx="36" fill="white"/>
</clipPath>
</defs>
</svg>
