<svg width="87" height="57" viewBox="0 0 87 57" fill="none" xmlns="http://www.w3.org/2000/svg">
<path fill-rule="evenodd" clip-rule="evenodd" d="M60.2265 36.2798C60.2265 42.2905 55.2342 47.1666 49.0805 47.1666C47.3077 47.1666 45.6369 46.7688 44.1291 46.0322C42.6414 46.7489 40.9502 47.1666 39.198 47.1666C33.044 47.1666 28.0518 42.2905 28.0518 36.2798C28.0518 30.2692 33.044 25.3931 39.1977 25.3931C40.9706 25.3931 42.6414 25.7912 44.1288 26.5076C45.6165 25.7912 47.3077 25.3931 49.0805 25.3931C55.2342 25.3931 60.2265 30.2692 60.2265 36.2798V36.2798ZM58.026 36.2798C58.026 31.4635 54.0115 27.5427 49.0805 27.5427C48.1432 27.5427 47.2263 27.6819 46.3908 27.9408C48.1024 29.3338 49.3455 31.2046 49.9566 33.3543H47.654C47.0073 31.5598 45.7763 30.0217 44.1495 28.9756C42.5396 30.0104 41.3169 31.5432 40.665 33.3543H38.3625C38.9655 31.2345 40.208 29.3411 41.9283 27.9208C41.0504 27.6565 40.1368 27.5223 39.2182 27.5228C34.2871 27.5228 30.273 31.4436 30.273 36.2599C30.273 41.0763 34.2871 44.9974 39.2182 44.9974C40.1554 44.9974 41.0519 44.8581 41.8874 44.5993C39.6665 42.7882 38.2199 40.1212 37.9957 37.1358H43.2935V39.2652L40.7056 39.3051C41.3781 41.0566 42.5804 42.5297 44.1495 43.5445C45.7182 42.5294 46.9205 41.0566 47.5931 39.3051L45.0051 39.2652V37.1358H50.3032C50.0586 40.1212 48.5916 42.7683 46.3704 44.5793C47.2263 44.8382 48.1432 44.9974 49.0805 44.9974C54.0319 45.0173 58.026 41.1161 58.026 36.2798Z" fill="black"/>
<path d="M58.3758 12.108L58.3074 12.1303C58.0411 11.5653 57.6605 11.1155 57.1657 10.7809C56.6787 10.4466 56.0662 10.2794 55.3281 10.2794C54.9171 10.2794 54.5251 10.3649 54.1522 10.5359C53.7792 10.6992 53.452 10.9334 53.1705 11.2382C52.8964 11.5355 52.6757 11.8961 52.5084 12.3199C52.3409 12.7434 52.2572 13.2117 52.2572 13.7247C52.2572 14.2375 52.3409 14.7057 52.5084 15.1294C52.6759 15.5531 52.8966 15.9174 53.1705 16.2223C53.452 16.5195 53.7791 16.7499 54.1519 16.9135C54.525 17.0771 54.9171 17.1589 55.3281 17.1589C56.0586 17.1589 56.6521 17.0474 57.1087 16.8244C57.5729 16.5938 57.9648 16.2444 58.2846 15.7761L58.353 15.7984L58.3302 16.5119C58.1551 16.6903 57.9534 16.8502 57.7251 16.9915C57.497 17.1254 57.2497 17.2407 56.9832 17.3374C56.7245 17.4263 56.4544 17.4931 56.1729 17.5379C55.8912 17.5899 55.6096 17.6159 55.3281 17.6159C54.742 17.6159 54.1827 17.5231 53.6501 17.3374C53.1172 17.1513 52.6492 16.8911 52.2458 16.5568C51.8424 16.2147 51.5228 15.8059 51.2869 15.3302C51.051 14.8471 50.933 14.312 50.933 13.7247C50.933 13.1374 51.0511 12.6059 51.2872 12.13C51.5229 11.6469 51.8424 11.2344 52.2458 10.8926C52.6492 10.5506 53.1172 10.2904 53.6501 10.112C54.1827 9.92632 54.7419 9.8335 55.3278 9.8335C55.6095 9.8335 55.8912 9.85568 56.1729 9.90004C56.4544 9.94479 56.7245 10.0154 56.9832 10.112C57.2495 10.2013 57.4968 10.3166 57.7251 10.4579C57.9534 10.5916 58.1551 10.7476 58.3302 10.926L58.3758 12.108ZM33.2207 14.2377C33.137 14.2748 33.0572 14.3231 32.9812 14.3825C32.9051 14.4419 32.8671 14.5237 32.8671 14.6279V15.9995C32.5016 16.5123 32.0334 16.91 31.4625 17.1926C30.8919 17.475 30.2603 17.6162 29.5679 17.6162C28.9818 17.6162 28.4224 17.5232 27.8896 17.3374C27.3569 17.1515 26.889 16.8913 26.4856 16.5568C26.0822 16.2147 25.7626 15.806 25.5267 15.3305C25.2908 14.8472 25.1729 14.312 25.1729 13.7247C25.1729 13.1376 25.2909 12.6061 25.527 12.1303C25.7627 11.6472 26.0822 11.2346 26.4856 10.8926C26.889 10.5506 27.3569 10.2905 27.8896 10.1123C28.4224 9.92642 28.9818 9.8335 29.5679 9.8335C29.8494 9.8335 30.1309 9.85578 30.4124 9.90033C30.6941 9.94489 30.9642 10.0155 31.2227 10.1123C31.4893 10.2014 31.7367 10.3166 31.9649 10.4579C32.1932 10.5918 32.3949 10.7478 32.57 10.926L32.6159 12.108L32.5472 12.1303C32.2811 11.5655 31.9006 11.1158 31.4058 10.7812C30.9186 10.4467 30.306 10.2794 29.5679 10.2794C29.1569 10.2794 28.7649 10.3649 28.392 10.5359C28.0192 10.6994 27.6921 10.9336 27.4106 11.2382C27.1365 11.5357 26.9157 11.8963 26.7482 12.3199C26.5807 12.7436 26.497 13.2119 26.497 13.7247C26.497 14.2301 26.577 14.6946 26.7371 15.1183C26.9044 15.5422 27.125 15.9065 27.3989 16.2111C27.6806 16.5084 28.0078 16.7425 28.3806 16.9135C28.7535 17.0771 29.1493 17.1589 29.5679 17.1589C30.3594 17.1589 31.0367 17.0102 31.5997 16.713V14.6279C31.5997 14.5239 31.5579 14.4421 31.4742 14.3825C31.3982 14.3231 31.3222 14.2747 31.2461 14.2374L31.2564 14.1817C31.2944 14.1885 31.3629 14.196 31.4619 14.204C31.561 14.2108 31.6637 14.2182 31.7702 14.2263H32.7519C32.8433 14.2194 32.9308 14.212 33.0145 14.204C33.0981 14.1971 33.1627 14.1897 33.2084 14.1817L33.2207 14.2377ZM41.4891 10.0674C41.413 10.1046 41.337 10.1529 41.261 10.2125C41.1847 10.2719 41.1428 10.3834 41.1352 10.547C41.1282 10.7254 41.1206 10.9521 41.1124 11.2271C41.1124 11.4948 41.109 11.7997 41.1022 12.1417C41.1022 12.4835 41.0987 12.8551 41.0917 13.2565V14.5053C41.0847 14.9884 41.0238 15.401 40.9089 15.743C40.7949 16.085 40.6427 16.3711 40.4524 16.6013C40.2698 16.8319 40.0643 17.0141 39.836 17.1477C39.6153 17.2816 39.3946 17.382 39.1739 17.4488C38.9608 17.5231 38.7591 17.5677 38.5689 17.5828C38.3786 17.605 38.2301 17.6162 38.1235 17.6162C37.6897 17.6162 37.2711 17.5605 36.8678 17.4491C36.4644 17.3449 36.1106 17.1739 35.8062 16.9361C35.5019 16.698 35.2584 16.3896 35.0757 16.0106C34.893 15.6315 34.8017 15.1706 34.8017 14.6279V12.2083C34.8017 11.8516 34.7982 11.5321 34.7912 11.2497C34.7912 10.9597 34.7877 10.7254 34.7807 10.547C34.7739 10.3834 34.7321 10.272 34.6553 10.2128C34.5792 10.1532 34.5032 10.1048 34.4272 10.0674L34.4374 10.0117C34.4754 10.0186 34.5364 10.026 34.6204 10.034C34.7117 10.0408 34.8029 10.0483 34.8941 10.0563C34.9932 10.0563 35.0882 10.0597 35.1793 10.0665H35.5904C35.6819 10.0597 35.777 10.0563 35.8759 10.0563C35.9749 10.0494 36.0662 10.042 36.1499 10.034C36.2411 10.0272 36.3057 10.0197 36.3437 10.0117L36.3543 10.0674C36.2706 10.1046 36.1907 10.1529 36.1145 10.2125C36.046 10.2719 36.008 10.3834 36.0004 10.547C35.9934 10.7254 35.9858 10.9596 35.9776 11.2494V14.6279C35.9776 15.4381 36.1717 16.0365 36.5598 16.4231C36.948 16.8096 37.5225 17.0029 38.2834 17.0029C38.5041 17.0029 38.7552 16.9768 39.0368 16.9246C39.3185 16.8652 39.5811 16.7463 39.8246 16.5679C40.0757 16.3895 40.285 16.1368 40.4524 15.8098C40.6275 15.4827 40.715 15.0478 40.715 14.5053C40.715 13.9181 40.7115 13.4163 40.7045 13C40.7045 12.5763 40.701 12.2158 40.694 11.9183C40.694 11.6135 40.6905 11.3533 40.6835 11.138C40.6767 10.9224 40.6691 10.7254 40.6607 10.547C40.6539 10.3834 40.6121 10.2719 40.5353 10.2125C40.4592 10.1531 40.3832 10.1048 40.3072 10.0674L40.3174 10.0117C40.4012 10.0266 40.4964 10.0415 40.6028 10.0566C40.7094 10.0632 40.8085 10.0665 40.8999 10.0665C40.9834 10.0665 41.0784 10.0632 41.185 10.0566C41.2991 10.0417 41.398 10.0268 41.4819 10.0117L41.4891 10.0674ZM49.7725 12.108L49.704 12.1303C49.4375 11.5653 49.057 11.1155 48.5624 10.7809C48.0754 10.4466 47.4627 10.2794 46.7244 10.2794C46.3136 10.2794 45.9218 10.3649 45.5488 10.5359C45.1759 10.6992 44.8486 10.9334 44.5671 11.2382C44.293 11.5355 44.0723 11.8961 43.9051 12.3199C43.7376 12.7434 43.6539 13.2117 43.6539 13.7247C43.6539 14.2375 43.7376 14.7057 43.9051 15.1294C44.0723 15.5531 44.293 15.9174 44.5671 16.2223C44.8486 16.5195 45.1758 16.7499 45.5485 16.9135C45.9217 17.0771 46.3136 17.1589 46.7244 17.1589C47.4551 17.1589 48.0488 17.0474 48.5053 16.8244C48.9695 16.5938 49.3615 16.2444 49.6812 15.7761L49.7497 15.7984L49.7269 16.5119C49.5518 16.6903 49.3501 16.8502 49.1218 16.9915C48.8937 17.1254 48.6464 17.2407 48.3799 17.3374C48.1212 17.4263 47.8511 17.4931 47.5696 17.5379C47.2878 17.5899 47.0062 17.6159 46.7247 17.6159C46.1385 17.6159 45.579 17.5231 45.0464 17.3374C44.5138 17.1513 44.0458 16.8911 43.6424 16.5568C43.2391 16.2147 42.9195 15.8059 42.6836 15.3302C42.4475 14.8471 42.3294 14.312 42.3294 13.7247C42.3294 13.1374 42.4475 12.6059 42.6836 12.13C42.9197 11.6469 43.2393 11.2344 43.6424 10.8926C44.0458 10.5506 44.5138 10.2904 45.0464 10.112C45.5792 9.92632 46.1387 9.8335 46.7247 9.8335C47.0062 9.8335 47.2877 9.85568 47.5693 9.90004C47.851 9.94479 48.1211 10.0154 48.3796 10.112C48.6461 10.2013 48.8935 10.3166 49.1218 10.4579C49.3501 10.5916 49.5518 10.7476 49.7269 10.926L49.7725 12.108ZM61.8164 17.4262C61.7784 17.4196 61.7138 17.4122 61.6225 17.4042C61.5389 17.4042 61.4476 17.4008 61.3485 17.394C61.2495 17.394 61.1544 17.3906 61.0631 17.384H60.3785C60.2871 17.3906 60.1957 17.398 60.1042 17.406C60.0206 17.4128 59.956 17.4203 59.9103 17.4283L59.8998 17.3837C59.9759 17.3466 60.0519 17.2982 60.1279 17.2386C60.2042 17.1792 60.2461 17.0677 60.2537 16.9041C60.2607 16.7257 60.2642 16.5398 60.2642 16.3466C60.2712 16.1533 60.2747 15.934 60.2747 15.6888V11.753C60.2747 11.5075 60.2712 11.2919 60.2642 11.106C60.2642 10.9128 60.2607 10.727 60.2537 10.5488C60.2467 10.3852 60.2049 10.2737 60.1282 10.2143C60.0522 10.1473 59.9762 10.0952 59.9001 10.058L59.9103 10.0135C59.956 10.0283 60.0206 10.0395 60.1042 10.0469C60.1957 10.0469 60.287 10.0503 60.3782 10.0572C60.4773 10.064 60.5724 10.0674 60.6636 10.0674H61.0631C61.1544 10.0606 61.2494 10.0572 61.3482 10.0572C61.4475 10.0503 61.5389 10.0429 61.6225 10.0349C61.7138 10.028 61.7784 10.0206 61.8164 10.0126L61.8269 10.0575C61.7433 10.0946 61.6634 10.1466 61.5871 10.2134C61.5187 10.2728 61.4807 10.3842 61.4731 10.5476C61.4661 10.7262 61.4585 10.9122 61.4503 11.1054V16.346C61.4573 16.5391 61.4649 16.7248 61.4731 16.9032C61.4799 17.0668 61.5179 17.1783 61.5871 17.2377C61.6632 17.2971 61.7431 17.3455 61.8269 17.3828L61.8164 17.4262Z" fill="black"/>
</svg>
