<svg width="87" height="57" viewBox="0 0 87 57" fill="none" xmlns="http://www.w3.org/2000/svg">
<path d="M55.2484 10.9659C57.3529 9.95635 58.3958 10.0888 58.4192 11.1121C58.4474 12.4415 58.2462 14.2092 58.1012 15.4884C57.3201 22.4403 56.0152 28.1211 55.9171 35.2591C59.3545 26.5671 62.2355 20.5258 65.9487 13.0854C67.1274 10.7146 67.8803 11.1577 68.8484 10.7374C72.6179 9.09755 72.7583 10.1026 72.2671 12.1079C70.4385 19.5355 65.7569 42.9219 65.0415 46.523C64.8357 47.5649 63.6759 47.1232 63.3765 46.7157C62.0343 44.9022 60.5191 44.8739 60.6874 43.6679C61.5292 37.6642 64.5597 22.6007 65.3502 19.0513C61.3233 27.1147 57.1471 37.1951 55.0004 42.9106C54.5467 44.1243 53.7189 44.0352 53.2045 43.1472C52.4796 41.8998 51.0719 41.2628 50.838 39.7887C50.1038 35.102 51.6799 26.1687 51.8996 20.5171C49.7063 26.6908 46.0256 38.6769 44.4121 44.0922C43.748 46.3329 41.5312 45.9674 42.1204 43.7835C44.571 34.6954 49.8513 18.6219 52.1336 12.8434C52.6715 11.482 54.0791 11.5277 55.2484 10.9659V10.9659ZM41.8822 9.85125C41.1713 9.68227 39.1089 10.7695 37.8414 10.9841C37.4392 11.0526 37.0557 11.4683 36.92 11.7653C34.8902 16.3196 33.071 20.661 31.4949 24.6161C29.4792 24.9523 27.1222 25.3949 24.4844 25.9737C26.3739 21.2398 28.282 16.5708 30.1433 12.0804C31.06 9.86946 28.6469 9.65944 27.7114 11.8977C26.4954 14.8076 24.2178 20.2595 21.697 26.6141C19.7301 27.0851 17.7732 27.5951 15.8276 28.1439C14.3357 28.5646 14.275 28.9529 14.9203 29.8268C15.2757 30.3134 16.01 30.2644 16.3467 30.6111C17.2166 31.5097 17.7451 32.5845 19.3024 32.7471C17.9135 36.3764 16.5244 40.119 15.2663 43.7227C14.476 45.9848 16.7255 46.4475 17.5908 44.0538C18.9844 40.1952 20.4529 36.29 21.9635 32.3962C23.2216 32.1107 26.2661 31.4702 29.0769 30.8745C26.8461 36.8468 25.3775 41.3824 24.821 43.5902C24.7182 44.015 24.8912 44.2507 24.9847 44.4239C25.7377 45.4941 26.4532 45.5379 27.4213 46.8612C27.6833 47.2222 28.5625 47.4167 28.8618 46.5282C30.9289 40.4294 33.0569 34.7071 35.0398 29.5772C35.8629 29.4013 37.3454 29.0519 38.2527 27.7294C39.8661 25.3824 40.3292 25.8583 40.7174 25.1448C41.2039 24.249 40.881 23.408 39.1601 23.6158C39.1601 23.6158 38.5101 23.661 37.308 23.7949C39.2162 18.9962 40.8859 14.926 42.0877 11.8244C42.4995 10.774 42.551 10.0066 41.8822 9.85125Z" fill="#CC071E"/>
<path d="M39.0664 40.9753C39.5107 42.072 40.8997 41.7399 40.3713 40.4161C39.8333 39.0676 38.4958 35.008 38.1449 33.7001C37.668 31.9378 39.7352 32.4198 38.6875 33.5719C37.7896 34.5626 37.1909 34.9596 35.5308 36.8434C33.9266 38.662 34.3616 41.0219 36.0779 41.5431C38.014 42.1314 39.7211 40.0475 40.778 38.5186C41.8022 37.0381 40.8107 36.1697 39.7773 37.045C39.1131 37.6078 38.3461 38.4721 37.5698 38.938C36.9383 39.313 36.4425 38.9101 37.2844 37.7782C38.2619 36.4677 39.3562 35.3695 40.17 34.131C41.8303 31.6072 38.5471 30.1523 37.1347 31.7917C36.377 32.6656 36.5689 33.5236 36.7746 34.2599C37.1068 35.4394 38.3414 39.2043 39.0664 40.9752" fill="#CC071E"/>
</svg>
