<svg width="87" height="57" viewBox="0 0 87 57" fill="none" xmlns="http://www.w3.org/2000/svg">
<path d="M76.5672 41.6214H10.4229V15.3789H76.5767V41.6214H76.5672Z" fill="#0058A3"/>
<path d="M11.7124 28.5001C11.7124 34.8431 25.0323 40.112 43.5001 40.112C61.9677 40.112 75.2781 34.8431 75.2781 28.5001C75.2781 22.157 61.9583 16.8882 43.5 16.8882C25.0418 16.8882 11.7124 22.157 11.7124 28.5001V28.5001Z" fill="#FFDB00"/>
<path d="M32.7875 23.4533C32.6452 23.7312 32.6452 23.9997 32.6452 24.2775V27.75C32.6452 27.75 34.5508 25.3331 34.9869 24.7589C35.3187 24.333 35.7264 23.7312 35.7264 23.4533H41.9455C41.5189 23.7312 41.0449 24.2311 40.6562 24.6941C40.3149 25.1016 38.3808 27.4073 38.3808 27.4073C38.3808 27.4073 41.2534 31.6761 41.6231 32.2224C41.8317 32.5188 42.0592 32.7965 42.3247 33.0466H35.167C35.167 32.7688 34.8921 32.2039 34.5887 31.7594C34.2854 31.3149 32.6452 28.8796 32.6452 28.8796V32.2224C32.6452 32.5003 32.6452 32.7688 32.7874 33.0466H26.8243C26.9665 32.7688 26.9665 32.5003 26.9665 32.2224V24.2775C26.9665 23.9997 26.9665 23.7312 26.8243 23.4533H32.7875ZM54.8671 23.4533H43.3581C43.5002 23.7312 43.5002 23.9997 43.5002 24.2775V32.2224C43.5002 32.5003 43.5002 32.7688 43.358 33.0466H54.8671V30.389C54.5828 30.5279 54.3078 30.5279 54.0234 30.5279H49.179V29.2685H53.8338V27.2406H49.179V25.9719H54.0234C54.3078 25.9719 54.5828 25.9719 54.8671 26.1016V23.4533ZM70.8131 32.2224C70.9079 32.528 71.0691 32.8058 71.2776 33.0466H65.0395C65.068 32.7688 64.9637 32.5003 64.85 32.2224C64.85 32.2224 64.7552 32.0002 64.6224 31.6761L64.5655 31.5372H60.9725L60.9156 31.6854C60.9156 31.6854 60.8114 31.9539 60.7165 32.2317C60.6217 32.5095 60.5174 32.778 60.5554 33.0558H55.6351C55.8367 32.8118 55.988 32.5319 56.0807 32.2317L59.029 24.2866C59.1334 24.0089 59.2376 23.7403 59.1997 23.4625H67.514C67.4381 23.7403 67.5898 24.0089 67.6941 24.2866C67.9406 24.8885 70.6045 31.6853 70.8131 32.2223V32.2224ZM63.7787 29.5092L62.9065 27.2868C62.8306 27.0831 62.7643 26.8702 62.7169 26.6572C62.679 26.8715 62.6219 27.0822 62.5463 27.2868C62.5178 27.3795 62.1481 28.3517 61.7215 29.5092H63.7787ZM23.857 24.2774C23.857 23.9996 23.857 23.7311 23.9992 23.4532H17.5146C17.6568 23.7311 17.6568 23.9996 17.6568 24.2774V32.2223C17.6568 32.5002 17.6568 32.7687 17.5146 33.0465H23.9992C23.857 32.7687 23.857 32.5002 23.857 32.2223V24.2774ZM68.8222 24.2126C68.8033 24.9071 69.3626 25.4905 70.0831 25.5089C70.7942 25.5274 71.3914 24.9811 71.4104 24.2774V24.2126C71.4199 23.5273 70.87 22.9625 70.1685 22.9533H70.1211C69.957 22.9464 69.7932 22.9715 69.6392 23.0272C69.4852 23.0828 69.344 23.1678 69.224 23.2773C69.104 23.3867 69.0075 23.5185 68.9401 23.6647C68.8728 23.811 68.8359 23.9689 68.8317 24.1292C68.8127 24.157 68.8127 24.1848 68.8222 24.2126V24.2126ZM71.1449 24.2126C71.1638 24.7682 70.7089 25.2404 70.14 25.2497C69.5711 25.2682 69.0877 24.8237 69.0782 24.2681V24.2033C69.0593 23.6663 69.4858 23.2125 70.0357 23.194H70.1116C70.6709 23.1847 71.1354 23.6199 71.1449 24.1662V24.2126ZM70.7467 24.9719H70.4907L70.1874 24.4348H69.8556V24.9719H69.628V23.4532H70.2064C70.4813 23.4626 70.6898 23.6755 70.6898 23.944C70.6898 24.1292 70.5856 24.2959 70.4149 24.3885L70.7467 24.9719ZM70.1684 24.2126C70.3201 24.2218 70.4529 24.1107 70.4529 23.9625C70.4529 23.8144 70.3486 23.6848 70.1969 23.6848H69.8556V24.2218H70.1684" fill="#0058A3"/>
</svg>
