<svg width="266" height="302" viewBox="0 0 266 302" fill="none" xmlns="http://www.w3.org/2000/svg">
<path d="M37 1.5H219.572C244.109 1.5 264 21.3912 264 45.9283V161C264 223.684 213.184 274.5 150.5 274.5C87.8157 274.5 37 223.684 37 161V1.5Z" stroke="#F9FAFB" stroke-width="3"/>
<path d="M0.5 12H205.242C231.894 12 253.5 33.6059 253.5 60.258V175.5C253.5 245.364 196.864 302 127 302V302C57.136 302 0.5 245.364 0.5 175.5V12Z" fill="#F0F4F9"/>
<mask id="mask0_313_9006" style="mask-type:alpha" maskUnits="userSpaceOnUse" x="13" y="25" width="230" height="263">
<path d="M13.5 25H242.5V173.5C242.5 236.737 191.237 288 128 288V288C64.7634 288 13.5 236.737 13.5 173.5V25Z" fill="white"/>
</mask>
<g mask="url(#mask0_313_9006)">
<g clip-path="url(#clip0_313_9006)">
<rect x="34.5" y="48" width="188" height="407" rx="24" fill="white"/>
<rect x="42.6182" y="67.7878" width="23.3399" height="23.3399" rx="11.67" stroke="#EEF1F4" stroke-width="0.507389"/>
<path d="M55.3022 82.1371L53.0967 79.9316C52.8363 79.6712 52.8363 79.245 53.0967 78.9845L55.3022 76.7791" stroke="#12143D" stroke-width="0.761084" stroke-miterlimit="10" stroke-linecap="round" stroke-linejoin="round"/>
<path d="M100.214 77.9448C101.278 77.9448 102.106 78.7404 102.106 79.812C102.106 80.9161 101.262 81.6792 100.214 81.6792H98.6394V83.384H97.4866V77.9448H100.214ZM98.6394 80.5832H100.125C100.58 80.5832 100.937 80.2829 100.937 79.812C100.937 79.3655 100.572 79.0651 100.125 79.0651H98.6394V80.5832ZM102.474 77.5389H103.57V78.8216H102.474V77.5389ZM102.474 79.3412H103.57V83.384H102.474V79.3412ZM108.135 80.8755H106.99C106.861 80.5264 106.528 80.2748 106.089 80.2748C105.448 80.2748 105.05 80.77 105.05 81.3626C105.05 81.9552 105.448 82.4423 106.089 82.4423C106.52 82.4423 106.861 82.1988 106.99 81.8416H108.135C107.965 82.8076 107.185 83.5058 106.081 83.5058C104.774 83.5058 103.954 82.5641 103.954 81.3626C103.954 80.1611 104.774 79.2194 106.081 79.2194C107.193 79.2194 107.973 79.9094 108.135 80.8755ZM112.387 79.3412L111.551 80.7781C111.989 80.8511 112.314 81.1759 112.314 81.7036V83.384H111.218V82.0689C111.218 81.874 111.096 81.7685 110.893 81.7685H109.562V83.384H108.466V77.5389H109.562V80.7618H110.398L111.194 79.3412H112.387ZM117.489 77.9448C118.553 77.9448 119.381 78.7404 119.381 79.812C119.381 80.9161 118.537 81.6792 117.489 81.6792H115.914V83.384H114.762V77.9448H117.489ZM115.914 80.5832H117.4C117.855 80.5832 118.212 80.2829 118.212 79.812C118.212 79.3655 117.847 79.0651 117.4 79.0651H115.914V80.5832ZM122.659 79.8607V79.3412H123.746V83.384H122.659V82.8482H122.618C122.366 83.2217 121.904 83.4977 121.311 83.5058C120.215 83.5058 119.387 82.6453 119.387 81.3707C119.387 80.1205 120.174 79.2113 121.319 79.2194C121.904 79.2194 122.366 79.4954 122.618 79.8607H122.659ZM121.579 82.4667C122.228 82.4667 122.659 81.9633 122.659 81.3626C122.659 80.7375 122.212 80.2585 121.579 80.2585C120.938 80.2585 120.491 80.7294 120.491 81.3626C120.491 81.9958 120.938 82.4667 121.579 82.4667ZM126.46 79.3412H127.312V80.4371H126.403C125.875 80.4371 125.502 80.8106 125.502 81.3707V83.384H124.406V79.3412H125.445V79.9744H125.486C125.632 79.5766 125.989 79.3412 126.46 79.3412ZM131.509 79.3412L130.673 80.7781C131.111 80.8511 131.436 81.1759 131.436 81.7036V83.384H130.34V82.0689C130.34 81.874 130.218 81.7685 130.016 81.7685H128.684V83.384H127.588V77.5389H128.684V80.7618H129.52L130.316 79.3412H131.509ZM132.055 77.5389H133.151V78.8216H132.055V77.5389ZM132.055 79.3412H133.151V83.384H132.055V79.3412ZM136.132 79.2275C137.114 79.2275 137.739 79.8851 137.739 81.046V83.384H136.644V81.2083C136.644 80.6238 136.27 80.2991 135.815 80.2991C135.32 80.2991 134.898 80.6807 134.898 81.2895V83.384H133.802V79.3412H134.866V79.8283H134.906C135.174 79.4548 135.629 79.2275 136.132 79.2275ZM141.329 79.8607V79.3412H142.417V83.7981C142.417 84.5774 141.97 85.0077 141.183 85.0077H138.585V83.9117H140.947C141.183 83.9117 141.329 83.7818 141.329 83.5464V82.8482H141.288C141.037 83.2217 140.574 83.4977 139.981 83.5058C138.885 83.5058 138.057 82.6453 138.057 81.3707C138.057 80.1205 138.845 79.2113 139.989 79.2194C140.574 79.2194 141.037 79.4954 141.288 79.8607H141.329ZM140.249 82.4667C140.899 82.4667 141.329 81.9633 141.329 81.3626C141.329 80.7375 140.882 80.2585 140.249 80.2585C139.608 80.2585 139.161 80.7294 139.161 81.3626C139.161 81.9958 139.608 82.4667 140.249 82.4667ZM146.245 77.9448H149.046V79.0651H146.326C146.034 79.0651 145.888 79.2519 145.888 79.4548C145.888 79.6253 146.001 79.8039 146.229 79.8607L148.169 80.3153C149.013 80.5102 149.403 81.1678 149.403 81.8091C149.403 82.6047 148.843 83.384 147.763 83.384H144.848V82.2556H147.722C148.006 82.2556 148.177 82.0445 148.177 81.8253C148.177 81.6467 148.063 81.4681 147.812 81.4113L145.863 80.9486C145.027 80.7456 144.637 80.1043 144.637 79.4792C144.637 78.6998 145.189 77.9448 146.245 77.9448ZM152.241 79.2194C153.385 79.2113 154.173 80.1205 154.173 81.3707C154.173 82.6453 153.345 83.5058 152.249 83.5058C151.656 83.4977 151.194 83.2217 150.942 82.8482H150.901V85.0077H149.813V79.3412H150.901V79.8607H150.942C151.194 79.4954 151.664 79.2194 152.241 79.2194ZM151.981 82.4667C152.622 82.4667 153.069 81.9958 153.069 81.3626C153.069 80.7294 152.622 80.2585 151.981 80.2585C151.348 80.2585 150.901 80.7375 150.901 81.3626C150.901 81.9633 151.332 82.4667 151.981 82.4667ZM156.545 83.5058C155.23 83.5058 154.37 82.5722 154.37 81.3626C154.37 80.1611 155.222 79.2194 156.545 79.2194C157.869 79.2194 158.721 80.1611 158.721 81.3626C158.721 82.5722 157.86 83.5058 156.545 83.5058ZM156.545 82.4423C157.187 82.4423 157.625 81.9633 157.625 81.3626C157.625 80.7618 157.195 80.2748 156.545 80.2748C155.896 80.2748 155.466 80.7618 155.466 81.3626C155.466 81.9633 155.896 82.4423 156.545 82.4423ZM162.06 79.3412V80.3965H160.396V82.0121C160.396 82.2069 160.526 82.3205 160.72 82.3205H162.06V83.384H160.517C159.779 83.384 159.3 82.9294 159.3 82.1988V80.3965H158.731V79.3412H159.3V77.9448H160.396V79.3412H162.06Z" fill="#12143D"/>
<rect x="42.6182" y="101.783" width="41.2365" height="20.2956" rx="4.05911" fill="#E83A64"/>
<path d="M52.6725 110.351V114.431H51.8079V111.192H50.8703V110.351H52.6725ZM54.1223 111.399H55.7906V112.19H54.1467C54.0675 112.19 54.0188 112.245 54.0188 112.318C54.0188 112.379 54.0615 112.434 54.1223 112.446L55.2609 112.677C55.7176 112.775 56.0098 113.091 56.0098 113.518C56.0098 114.053 55.5775 114.431 55.0235 114.431H53.2699V113.633H55.0113C55.0904 113.633 55.1452 113.578 55.1452 113.499C55.1452 113.438 55.1087 113.384 55.0417 113.365L53.8849 113.116C53.4465 113.024 53.1421 112.702 53.1421 112.294C53.1421 111.77 53.5683 111.399 54.1223 111.399ZM58.6219 111.399V112.19H57.3737V113.402C57.3737 113.548 57.4711 113.633 57.6172 113.633H58.6219V114.431H57.465C56.911 114.431 56.5517 114.09 56.5517 113.542V112.19H56.1255V111.399H56.5517V110.351H57.3737V111.399H58.6219ZM63.781 110.351V111.192H61.5282V112.05H63.5557V112.854H61.5282V114.431H60.6636V110.351H63.781ZM64.1393 113.554V110.047H64.9613V113.408C64.9613 113.548 65.0526 113.633 65.2048 113.633H65.6128V114.431H65.0465C64.4681 114.431 64.1393 114.102 64.1393 113.554ZM67.4029 114.522C66.4166 114.522 65.7712 113.822 65.7712 112.915C65.7712 112.014 66.4105 111.307 67.4029 111.307C68.3954 111.307 69.0347 112.014 69.0347 112.915C69.0347 113.822 68.3893 114.522 67.4029 114.522ZM67.4029 113.725C67.8839 113.725 68.2127 113.365 68.2127 112.915C68.2127 112.464 67.89 112.099 67.4029 112.099C66.9158 112.099 66.5931 112.464 66.5931 112.915C66.5931 113.365 66.9158 113.725 67.4029 113.725ZM70.9527 114.522C69.9663 114.522 69.3209 113.822 69.3209 112.915C69.3209 112.014 69.9602 111.307 70.9527 111.307C71.9451 111.307 72.5844 112.014 72.5844 112.915C72.5844 113.822 71.939 114.522 70.9527 114.522ZM70.9527 113.725C71.4337 113.725 71.7625 113.365 71.7625 112.915C71.7625 112.464 71.4398 112.099 70.9527 112.099C70.4656 112.099 70.1429 112.464 70.1429 112.915C70.1429 113.365 70.4656 113.725 70.9527 113.725ZM74.5401 111.399H75.1794V112.221H74.4975C74.1017 112.221 73.8216 112.501 73.8216 112.921V114.431H72.9996V111.399H73.779V111.874H73.8094C73.919 111.575 74.1869 111.399 74.5401 111.399Z" fill="white"/>
<rect x="87.9141" y="101.783" width="44.1429" height="20.2956" rx="4.05911" fill="#F9FAFB"/>
<rect x="136.115" y="101.783" width="43.1281" height="20.2956" rx="4.05911" fill="#F9FAFB"/>
<rect x="183.303" y="101.783" width="43.6355" height="20.2956" rx="4.05911" fill="#F9FAFB"/>
<rect x="73.0615" y="135" width="24.2365" height="20.2956" rx="6.08867" fill="#F9FAFB"/>
<path d="M82.8906 143.288H83.8283L85.4661 147.648H84.5589L84.1997 146.607H82.5192L82.16 147.648H81.2528L82.8906 143.288ZM83.9318 145.852L83.5421 144.762L83.3838 144.232H83.3351L83.1768 144.762L82.7871 145.852H83.9318ZM87.4986 144.969C87.6569 144.969 87.8112 145.003 87.9614 145.072C88.1116 145.137 88.2455 145.228 88.3632 145.346C88.4809 145.464 88.5743 145.606 88.6433 145.772C88.7164 145.939 88.7529 146.121 88.7529 146.32C88.7529 146.527 88.7123 146.718 88.6311 146.893C88.5499 147.067 88.4403 147.217 88.3023 147.343C88.1684 147.469 88.0121 147.569 87.8335 147.642C87.659 147.711 87.4743 147.745 87.2794 147.745C87.0521 147.745 86.8471 147.707 86.6645 147.629C86.4818 147.548 86.3235 147.443 86.1896 147.313C86.0597 147.179 85.9582 147.025 85.8851 146.85C85.8161 146.671 85.7816 146.485 85.7816 146.29C85.7816 146.01 85.8364 145.754 85.946 145.523C86.0597 145.287 86.2017 145.048 86.3722 144.804L87.3829 143.361L87.9979 143.787L87.1455 144.993L87.1759 145.03C87.2693 144.989 87.3769 144.969 87.4986 144.969ZM87.2673 147.008C87.3566 147.008 87.4438 146.992 87.5291 146.96C87.6143 146.927 87.6894 146.881 87.7544 146.82C87.8193 146.759 87.87 146.688 87.9066 146.607C87.9472 146.521 87.9675 146.428 87.9675 146.326C87.9675 146.225 87.9472 146.132 87.9066 146.046C87.87 145.961 87.8193 145.888 87.7544 145.827C87.6894 145.766 87.6143 145.72 87.5291 145.687C87.4438 145.655 87.3566 145.638 87.2673 145.638C87.1739 145.638 87.0846 145.655 86.9994 145.687C86.9182 145.72 86.8431 145.766 86.7741 145.827C86.7091 145.888 86.6564 145.961 86.6158 146.046C86.5792 146.132 86.561 146.225 86.561 146.326C86.561 146.428 86.5792 146.521 86.6158 146.607C86.6564 146.688 86.7091 146.759 86.7741 146.82C86.8431 146.881 86.9182 146.927 86.9994 146.96C87.0846 146.992 87.1739 147.008 87.2673 147.008Z" fill="#12143D"/>
<path d="M46.1435 147.582H43.02V143.502H46.1435V144.342H43.8846V145.103H45.8817V145.907H43.8846V146.741H46.1435V147.582ZM48.4045 144.464C49.1413 144.464 49.6101 144.957 49.6101 145.828V147.582H48.7881V145.95C48.7881 145.511 48.508 145.268 48.1671 145.268C47.7957 145.268 47.4791 145.554 47.4791 146.011V147.582H46.6571V144.549H47.4547V144.915H47.4852C47.6861 144.635 48.027 144.464 48.4045 144.464ZM52.4064 144.549V145.341H51.1582V146.553C51.1582 146.699 51.2557 146.784 51.4018 146.784H52.4064V147.582H51.2496C50.6955 147.582 50.3363 147.241 50.3363 146.693V145.341H49.9101V144.549H50.3363V143.502H51.1582V144.549H52.4064ZM54.423 144.549H55.0623V145.371H54.3803C53.9846 145.371 53.7045 145.651 53.7045 146.072V147.582H52.8825V144.549H53.6619V145.024H53.6923C53.8019 144.726 54.0698 144.549 54.423 144.549ZM57.0153 146.851L57.7581 144.549H58.5922L57.3867 148.075C57.2284 148.531 56.8874 148.799 56.4125 148.799H55.5479V147.996H56.3881C56.4734 147.996 56.5403 147.977 56.5951 147.941L55.2008 144.549H56.102L57.0153 146.851Z" fill="#12143D"/>
<path d="M129.889 172.541C129.621 172.541 129.38 172.486 129.165 172.376C128.95 172.263 128.765 172.108 128.611 171.914C128.461 171.719 128.345 171.489 128.264 171.226C128.183 170.958 128.142 170.67 128.142 170.361C128.142 170.053 128.183 169.766 128.264 169.503C128.345 169.235 128.461 169.003 128.611 168.808C128.765 168.614 128.95 168.461 129.165 168.352C129.38 168.238 129.621 168.181 129.889 168.181C130.157 168.181 130.399 168.238 130.614 168.352C130.829 168.461 131.012 168.614 131.162 168.808C131.316 169.003 131.434 169.235 131.515 169.503C131.596 169.766 131.637 170.053 131.637 170.361C131.637 170.67 131.596 170.958 131.515 171.226C131.434 171.489 131.316 171.719 131.162 171.914C131.012 172.108 130.829 172.263 130.614 172.376C130.399 172.486 130.157 172.541 129.889 172.541ZM129.889 171.786C130.036 171.786 130.167 171.751 130.285 171.682C130.403 171.609 130.502 171.51 130.583 171.384C130.669 171.254 130.732 171.102 130.772 170.927C130.817 170.753 130.839 170.564 130.839 170.361C130.839 170.154 130.817 169.965 130.772 169.795C130.732 169.62 130.669 169.47 130.583 169.344C130.502 169.214 130.403 169.115 130.285 169.046C130.167 168.973 130.036 168.936 129.889 168.936C129.739 168.936 129.605 168.973 129.488 169.046C129.37 169.115 129.27 169.214 129.189 169.344C129.108 169.47 129.045 169.62 129 169.795C128.96 169.965 128.94 170.154 128.94 170.361C128.94 170.564 128.96 170.753 129 170.927C129.045 171.102 129.108 171.254 129.189 171.384C129.27 171.51 129.37 171.609 129.488 171.682C129.605 171.751 129.739 171.786 129.889 171.786ZM133.118 172.443V169.216L132.382 169.527L132.089 168.851L133.313 168.279H133.916V172.443H133.118Z" fill="#12143D"/>
<path d="M129.889 212.625C129.621 212.625 129.38 212.57 129.165 212.46C128.95 212.347 128.765 212.192 128.611 211.998C128.461 211.803 128.345 211.573 128.264 211.31C128.183 211.042 128.142 210.754 128.142 210.445C128.142 210.137 128.183 209.85 128.264 209.587C128.345 209.319 128.461 209.087 128.611 208.892C128.765 208.698 128.95 208.545 129.165 208.436C129.38 208.322 129.621 208.265 129.889 208.265C130.157 208.265 130.399 208.322 130.614 208.436C130.829 208.545 131.012 208.698 131.162 208.892C131.316 209.087 131.434 209.319 131.515 209.587C131.596 209.85 131.637 210.137 131.637 210.445C131.637 210.754 131.596 211.042 131.515 211.31C131.434 211.573 131.316 211.803 131.162 211.998C131.012 212.192 130.829 212.347 130.614 212.46C130.399 212.57 130.157 212.625 129.889 212.625ZM129.889 211.87C130.036 211.87 130.167 211.835 130.285 211.766C130.403 211.693 130.502 211.594 130.583 211.468C130.669 211.338 130.732 211.186 130.772 211.011C130.817 210.837 130.839 210.648 130.839 210.445C130.839 210.238 130.817 210.049 130.772 209.879C130.732 209.704 130.669 209.554 130.583 209.428C130.502 209.298 130.403 209.199 130.285 209.13C130.167 209.057 130.036 209.02 129.889 209.02C129.739 209.02 129.605 209.057 129.488 209.13C129.37 209.199 129.27 209.298 129.189 209.428C129.108 209.554 129.045 209.704 129 209.879C128.96 210.049 128.94 210.238 128.94 210.445C128.94 210.648 128.96 210.837 129 211.011C129.045 211.186 129.108 211.338 129.189 211.468C129.27 211.594 129.37 211.693 129.488 211.766C129.605 211.835 129.739 211.87 129.889 211.87ZM133.616 212.625C133.446 212.625 133.281 212.602 133.123 212.558C132.969 212.513 132.827 212.446 132.697 212.357C132.567 212.264 132.451 212.148 132.35 212.01C132.252 211.872 132.177 211.711 132.125 211.529L132.873 211.23C132.926 211.433 133.016 211.588 133.141 211.693C133.267 211.795 133.426 211.845 133.616 211.845C133.702 211.845 133.783 211.833 133.86 211.809C133.937 211.78 134.004 211.742 134.061 211.693C134.118 211.644 134.162 211.588 134.195 211.523C134.231 211.454 134.25 211.377 134.25 211.291C134.25 211.113 134.183 210.973 134.049 210.871C133.919 210.77 133.738 210.719 133.507 210.719H133.147V209.994H133.476C133.557 209.994 133.637 209.984 133.714 209.964C133.791 209.944 133.858 209.913 133.915 209.873C133.976 209.828 134.022 209.773 134.055 209.708C134.091 209.639 134.109 209.56 134.109 209.471C134.109 209.333 134.061 209.221 133.963 209.136C133.866 209.047 133.734 209.002 133.568 209.002C133.389 209.002 133.251 209.051 133.154 209.148C133.06 209.241 132.995 209.347 132.959 209.465L132.228 209.166C132.265 209.065 132.319 208.961 132.392 208.856C132.466 208.746 132.557 208.649 132.666 208.564C132.78 208.474 132.912 208.403 133.062 208.351C133.212 208.294 133.385 208.265 133.58 208.265C133.779 208.265 133.959 208.294 134.122 208.351C134.288 208.407 134.43 208.486 134.548 208.588C134.666 208.685 134.757 208.803 134.822 208.941C134.887 209.075 134.919 209.221 134.919 209.38C134.919 209.501 134.903 209.611 134.871 209.708C134.842 209.806 134.804 209.893 134.755 209.97C134.706 210.047 134.649 210.114 134.584 210.171C134.524 210.224 134.461 210.266 134.396 210.299V210.348C134.59 210.425 134.751 210.549 134.877 210.719C135.007 210.889 135.071 211.105 135.071 211.364C135.071 211.547 135.037 211.716 134.968 211.87C134.899 212.02 134.8 212.152 134.67 212.266C134.544 212.379 134.392 212.466 134.213 212.527C134.034 212.592 133.835 212.625 133.616 212.625Z" fill="#12143D"/>
<path d="M205.506 172.541C205.238 172.541 204.996 172.486 204.781 172.376C204.566 172.263 204.381 172.108 204.227 171.914C204.077 171.719 203.961 171.489 203.88 171.226C203.799 170.958 203.758 170.67 203.758 170.361C203.758 170.053 203.799 169.766 203.88 169.503C203.961 169.235 204.077 169.003 204.227 168.808C204.381 168.614 204.566 168.461 204.781 168.352C204.996 168.238 205.238 168.181 205.506 168.181C205.773 168.181 206.015 168.238 206.23 168.352C206.445 168.461 206.628 168.614 206.778 168.808C206.932 169.003 207.05 169.235 207.131 169.503C207.212 169.766 207.253 170.053 207.253 170.361C207.253 170.67 207.212 170.958 207.131 171.226C207.05 171.489 206.932 171.719 206.778 171.914C206.628 172.108 206.445 172.263 206.23 172.376C206.015 172.486 205.773 172.541 205.506 172.541ZM205.506 171.786C205.652 171.786 205.784 171.751 205.901 171.682C206.019 171.609 206.119 171.51 206.2 171.384C206.285 171.254 206.348 171.102 206.388 170.927C206.433 170.753 206.455 170.564 206.455 170.361C206.455 170.154 206.433 169.965 206.388 169.795C206.348 169.62 206.285 169.47 206.2 169.344C206.119 169.214 206.019 169.115 205.901 169.046C205.784 168.973 205.652 168.936 205.506 168.936C205.355 168.936 205.221 168.973 205.104 169.046C204.986 169.115 204.887 169.214 204.805 169.344C204.724 169.47 204.661 169.62 204.617 169.795C204.576 169.965 204.556 170.154 204.556 170.361C204.556 170.564 204.576 170.753 204.617 170.927C204.661 171.102 204.724 171.254 204.805 171.384C204.887 171.51 204.986 171.609 205.104 171.682C205.221 171.751 205.355 171.786 205.506 171.786ZM207.742 172.443V171.719C207.982 171.483 208.203 171.264 208.406 171.061C208.491 170.976 208.578 170.889 208.668 170.799C208.757 170.71 208.84 170.627 208.917 170.55C208.994 170.473 209.063 170.404 209.124 170.343C209.185 170.278 209.232 170.227 209.264 170.191C209.329 170.113 209.386 170.044 209.435 169.984C209.488 169.923 209.528 169.864 209.557 169.807C209.589 169.746 209.613 169.687 209.63 169.63C209.646 169.57 209.654 169.505 209.654 169.436C209.654 169.302 209.601 169.186 209.496 169.089C209.39 168.987 209.246 168.936 209.063 168.936C208.881 168.936 208.739 168.989 208.637 169.095C208.536 169.196 208.467 169.312 208.43 169.442L207.706 169.143C207.738 169.034 207.791 168.922 207.864 168.808C207.937 168.691 208.03 168.587 208.144 168.498C208.258 168.405 208.392 168.329 208.546 168.273C208.704 168.212 208.881 168.181 209.076 168.181C209.287 168.181 209.477 168.214 209.648 168.279C209.818 168.34 209.963 168.425 210.08 168.534C210.198 168.644 210.289 168.774 210.354 168.924C210.419 169.07 210.452 169.229 210.452 169.399C210.452 169.659 210.387 169.898 210.257 170.117C210.131 170.333 209.977 170.534 209.794 170.72L209.27 171.244C209.132 171.382 208.976 171.536 208.802 171.707L208.826 171.743H210.513V172.443H207.742Z" fill="#12143D"/>
<path d="M205.506 212.625C205.238 212.625 204.996 212.57 204.781 212.46C204.566 212.347 204.381 212.192 204.227 211.998C204.077 211.803 203.961 211.573 203.88 211.31C203.799 211.042 203.758 210.754 203.758 210.445C203.758 210.137 203.799 209.85 203.88 209.587C203.961 209.319 204.077 209.087 204.227 208.892C204.381 208.698 204.566 208.545 204.781 208.436C204.996 208.322 205.238 208.265 205.506 208.265C205.773 208.265 206.015 208.322 206.23 208.436C206.445 208.545 206.628 208.698 206.778 208.892C206.932 209.087 207.05 209.319 207.131 209.587C207.212 209.85 207.253 210.137 207.253 210.445C207.253 210.754 207.212 211.042 207.131 211.31C207.05 211.573 206.932 211.803 206.778 211.998C206.628 212.192 206.445 212.347 206.23 212.46C206.015 212.57 205.773 212.625 205.506 212.625ZM205.506 211.87C205.652 211.87 205.784 211.835 205.901 211.766C206.019 211.693 206.119 211.594 206.2 211.468C206.285 211.338 206.348 211.186 206.388 211.011C206.433 210.837 206.455 210.648 206.455 210.445C206.455 210.238 206.433 210.049 206.388 209.879C206.348 209.704 206.285 209.554 206.2 209.428C206.119 209.298 206.019 209.199 205.901 209.13C205.784 209.057 205.652 209.02 205.506 209.02C205.355 209.02 205.221 209.057 205.104 209.13C204.986 209.199 204.887 209.298 204.805 209.428C204.724 209.554 204.661 209.704 204.617 209.879C204.576 210.049 204.556 210.238 204.556 210.445C204.556 210.648 204.576 210.837 204.617 211.011C204.661 211.186 204.724 211.338 204.805 211.468C204.887 211.594 204.986 211.693 205.104 211.766C205.221 211.835 205.355 211.87 205.506 211.87ZM209.689 212.527V211.76H207.765V211.115L209.616 208.363H210.481V211.017H211.004V211.76H210.481V212.527H209.689ZM209.689 209.55H209.64L208.648 211.017H209.689V209.55Z" fill="#12143D"/>
<rect x="73.0615" y="249.163" width="24.2365" height="20.2956" rx="6.08867" fill="#F9FAFB"/>
<path d="M82.8906 257.451H83.8283L85.4661 261.81H84.5589L84.1997 260.769H82.5192L82.16 261.81H81.2528L82.8906 257.451ZM83.9318 260.014L83.5421 258.924L83.3838 258.395H83.3351L83.1768 258.924L82.7871 260.014H83.9318ZM85.9826 261.536L87.7178 258.437L87.6996 258.401H85.7816L85.7938 257.646H88.6189V258.437L86.6523 261.908L85.9826 261.536Z" fill="#12143D"/>
<line x1="66.2117" y1="165.968" x2="216.399" y2="165.968" stroke="#EBF1F8" stroke-width="0.507389" stroke-linecap="round"/>
<line x1="66.2117" y1="200.707" x2="216.399" y2="200.707" stroke="#EBF1F8" stroke-width="0.507389" stroke-linecap="round"/>
<line x1="66.2117" y1="240.283" x2="216.399" y2="240.283" stroke="#EBF1F8" stroke-width="0.507389" stroke-linecap="round"/>
<line x1="140.305" y1="240.283" x2="140.305" y2="161.638" stroke="#EBF1F8" stroke-width="0.507389" stroke-linecap="round"/>
<line x1="76.3885" y1="275.746" x2="216.881" y2="275.746" stroke="#EBF1F8" stroke-width="0.507389" stroke-linecap="round"/>
<path d="M86.1585 188.656C85.8067 188.649 85.4548 188.662 85.1045 188.696L80.9939 189.07C78.3193 189.333 74.8832 188.414 72.9834 186.512C71.3496 184.878 71.0967 182.339 71.0967 179.846L71.0967 178.769C71.0967 176.277 71.3602 173.734 72.9834 172.101C74.8832 170.202 78.3193 169.29 80.9939 169.538L85.1124 169.92C85.4628 169.952 85.8147 169.964 86.1664 169.957L105.732 169.459C108.722 169.459 117.002 171.882 117.002 174.872L117.002 183.74C117.002 186.733 108.722 189.157 105.732 189.157L86.1585 188.656Z" fill="#FCEBEF"/>
<path d="M87.7156 171.39C87.3836 171.39 85.8711 170.388 85.5286 170.359L81.605 169.996C79.0543 169.759 75.7816 170.628 73.9634 172.438C72.4114 173.995 72.1689 176.424 72.1689 178.795L72.1689 179.823C72.1689 182.194 72.4114 184.62 73.9687 186.177C75.7816 187.99 79.0543 188.856 81.6103 188.622L85.5338 188.258C85.8658 188.227 87.3784 187.22 87.7209 187.228L105.918 187.228C108.77 187.228 115.932 186.388 115.932 183.54L115.932 175.08C115.932 172.23 108.777 171.392 105.918 171.392L87.7156 171.39Z" fill="#E83A64"/>
<path d="M87.0068 188.015L87.9212 188.015L88.4271 190.065C88.4271 190.065 87.0068 190.413 87.0068 188.015Z" fill="#FCEBEF"/>
<path d="M96.6436 187.51L96.8148 187.51C101.368 187.51 105.914 187.225 105.914 187.225C105.914 187.225 102.599 186.09 101.368 186.09L96.9097 186.09C96.799 186.559 96.7068 187.033 96.6436 187.51Z" fill="#45474A"/>
<path d="M96.3824 186.09L92.2296 186.09C91.5208 186.09 87.7158 187.225 87.7158 187.225C87.7158 187.225 91.7105 187.489 95.9635 187.507C96.0794 187.028 96.227 186.556 96.3824 186.09Z" fill="#45474A"/>
<path d="M96.6436 171.104L96.8148 171.104C101.368 171.104 105.914 171.389 105.914 171.389C105.914 171.389 102.599 172.525 101.368 172.525L96.9097 172.525C96.799 172.056 96.7068 171.579 96.6436 171.104Z" fill="#45474A"/>
<path d="M96.3824 172.525L92.2296 172.525C91.5208 172.525 87.7158 171.389 87.7158 171.389C87.7158 171.389 91.7105 171.125 95.9635 171.107C96.0794 171.587 96.227 172.056 96.3824 172.525Z" fill="#45474A"/>
<path d="M87.0068 170.599L87.9212 170.599L88.4271 168.546C88.4271 168.546 87.0068 168.201 87.0068 170.599Z" fill="#FCEBEF"/>
<path d="M90.9985 185.569L84.4109 187.273C84.4109 187.273 81.9023 185.474 81.9023 179.306C81.9023 173.139 84.4109 171.342 84.4109 171.342L90.9985 173.044C90.9985 173.044 90.1922 176.469 90.1922 179.306C90.1922 182.144 90.9985 185.569 90.9985 185.569ZM105.568 173.579C105.994 175.46 106.236 177.378 106.292 179.306C106.236 181.235 105.994 183.154 105.568 185.037C105.553 185.101 105.553 185.169 105.567 185.234C105.581 185.299 105.61 185.36 105.651 185.413C105.692 185.465 105.744 185.508 105.803 185.539C105.862 185.569 105.928 185.585 105.994 185.587L111.997 185.798C112.078 185.8 112.158 185.781 112.229 185.742C112.3 185.703 112.359 185.646 112.4 185.577C113.828 183.169 113.631 179.306 113.631 179.306C113.631 179.306 113.828 175.447 112.4 173.039C112.359 172.97 112.3 172.912 112.229 172.873C112.158 172.835 112.078 172.815 111.997 172.818L105.994 173.026C105.928 173.028 105.862 173.045 105.803 173.075C105.743 173.106 105.691 173.149 105.651 173.202C105.61 173.255 105.581 173.316 105.567 173.381C105.553 173.446 105.553 173.514 105.568 173.579Z" fill="#45474A"/>
<path d="M74.5483 187.273C74.1978 185.861 72.5878 184.949 72.1768 185.007C72.401 185.418 72.6822 185.795 73.0121 186.127C73.4695 186.577 73.9864 186.963 74.5483 187.273V187.273Z" fill="#E9E8D8"/>
<path d="M74.5483 171.342C74.1978 172.752 72.5878 173.663 72.1768 173.608C72.3996 173.196 72.681 172.819 73.0121 172.488C73.4688 172.037 73.9858 171.651 74.5483 171.342V171.342Z" fill="#E9E8D8"/>
<path d="M163.866 228.252C163.514 228.245 163.162 228.258 162.812 228.291L158.701 228.666C156.026 228.929 152.59 228.01 150.69 226.107C149.057 224.474 148.804 221.934 148.804 219.442L148.804 218.365C148.804 215.872 149.067 213.33 150.69 211.697C152.59 209.797 156.026 208.886 158.701 209.133L162.819 209.515C163.17 209.548 163.522 209.56 163.873 209.552L183.439 209.054C186.429 209.054 194.709 211.478 194.709 214.468L194.709 223.336C194.709 226.329 186.429 228.752 183.439 228.752L163.866 228.252Z" fill="#FDF3ED"/>
<path d="M165.423 210.985C165.091 210.985 163.578 209.984 163.236 209.955L159.312 209.592C156.761 209.354 153.489 210.224 151.67 212.034C150.118 213.591 149.876 216.02 149.876 218.391L149.876 219.418C149.876 221.789 150.118 224.216 151.676 225.773C153.489 227.585 156.761 228.452 159.317 228.217L163.241 227.854C163.573 227.822 165.085 226.816 165.428 226.824L183.625 226.824C186.477 226.824 193.639 225.983 193.639 223.136L193.639 214.676C193.639 211.826 186.484 210.988 183.625 210.988L165.423 210.985Z" fill="#F18C53"/>
<path d="M164.714 227.611L165.628 227.611L166.134 229.661C166.134 229.661 164.714 230.009 164.714 227.611Z" fill="#FDF3ED"/>
<path d="M174.351 227.106L174.522 227.106C179.075 227.106 183.621 226.821 183.621 226.821C183.621 226.821 180.306 225.685 179.075 225.685L174.617 225.685C174.506 226.154 174.414 226.629 174.351 227.106Z" fill="#45474A"/>
<path d="M174.089 225.685L169.937 225.685C169.228 225.685 165.423 226.821 165.423 226.821C165.423 226.821 169.418 227.085 173.671 227.103C173.786 226.623 173.934 226.152 174.089 225.685Z" fill="#45474A"/>
<path d="M174.351 210.7L174.522 210.7C179.075 210.7 183.621 210.985 183.621 210.985C183.621 210.985 180.306 212.12 179.075 212.12L174.617 212.12C174.506 211.651 174.414 211.174 174.351 210.7Z" fill="#45474A"/>
<path d="M174.089 212.12L169.937 212.12C169.228 212.12 165.423 210.985 165.423 210.985C165.423 210.985 169.418 210.721 173.671 210.703C173.786 211.182 173.934 211.651 174.089 212.12Z" fill="#45474A"/>
<path d="M164.714 210.194L165.628 210.194L166.134 208.142C166.134 208.142 164.714 207.796 164.714 210.194Z" fill="#FDF3ED"/>
<path d="M168.706 225.164L162.118 226.869C162.118 226.869 159.609 225.07 159.609 218.902C159.609 212.735 162.118 210.938 162.118 210.938L168.706 212.64C168.706 212.64 167.899 216.065 167.899 218.902C167.899 221.74 168.706 225.164 168.706 225.164ZM183.275 213.175C183.701 215.056 183.943 216.974 183.999 218.902C183.943 220.831 183.701 222.75 183.275 224.632C183.26 224.697 183.26 224.765 183.274 224.83C183.288 224.895 183.317 224.956 183.358 225.008C183.399 225.061 183.451 225.104 183.51 225.134C183.569 225.164 183.635 225.181 183.701 225.183L189.704 225.394C189.785 225.396 189.865 225.377 189.936 225.338C190.007 225.299 190.066 225.242 190.107 225.172C191.535 222.764 191.338 218.902 191.338 218.902C191.338 218.902 191.535 215.043 190.107 212.635C190.066 212.565 190.007 212.508 189.936 212.469C189.865 212.43 189.785 212.411 189.704 212.413L183.701 212.622C183.635 212.624 183.569 212.641 183.51 212.671C183.45 212.702 183.399 212.745 183.358 212.798C183.317 212.85 183.288 212.912 183.274 212.977C183.26 213.042 183.26 213.11 183.275 213.175Z" fill="#45474A"/>
<path d="M152.255 226.869C151.905 225.457 150.295 224.545 149.884 224.603C150.108 225.014 150.389 225.391 150.719 225.723C151.177 226.173 151.693 226.559 152.255 226.869V226.869Z" fill="#E9E8D8"/>
<path d="M152.255 210.938C151.905 212.347 150.295 213.259 149.884 213.204C150.107 212.792 150.388 212.415 150.719 212.084C151.176 211.633 151.693 211.247 152.255 210.938V210.938Z" fill="#E9E8D8"/>
<path d="M163.866 303.239C163.514 303.232 163.162 303.245 162.812 303.278L158.701 303.652C156.026 303.916 152.59 302.996 150.69 301.094C149.057 299.461 148.804 296.921 148.804 294.429L148.804 293.351C148.804 290.859 149.067 288.317 150.69 286.684C152.59 284.784 156.026 283.873 158.701 284.12L162.819 284.502C163.17 284.535 163.522 284.547 163.873 284.539L183.439 284.041C186.429 284.041 194.709 286.465 194.709 289.455L194.709 298.323C194.709 301.316 186.429 303.739 183.439 303.739L163.866 303.239Z" fill="#E1E8EF"/>
<path d="M165.423 285.972C165.091 285.972 163.578 284.971 163.236 284.942L159.312 284.578C156.761 284.341 153.489 285.211 151.67 287.021C150.118 288.578 149.876 291.007 149.876 293.378L149.876 294.405C149.876 296.776 150.118 299.203 151.676 300.759C153.489 302.572 156.761 303.439 159.317 303.204L163.241 302.841C163.573 302.809 165.085 301.803 165.428 301.811L183.625 301.811C186.477 301.811 193.639 300.97 193.639 298.122L193.639 289.663C193.639 286.812 186.484 285.975 183.625 285.975L165.423 285.972Z" fill="#E9EDF0"/>
<path d="M174.351 285.687L174.522 285.687C179.075 285.687 183.621 285.971 183.621 285.971C183.621 285.971 180.306 287.107 179.075 287.107L174.617 287.107C174.506 286.638 174.414 286.161 174.351 285.687Z" fill="#45474A"/>
<path d="M174.089 287.107L169.937 287.107C169.228 287.107 165.423 285.971 165.423 285.971C165.423 285.971 169.418 285.708 173.671 285.69C173.786 286.169 173.934 286.638 174.089 287.107Z" fill="#45474A"/>
<path d="M164.714 285.181L165.628 285.181L166.134 283.128C166.134 283.128 164.714 282.783 164.714 285.181Z" fill="#E1E8EF"/>
<path d="M168.706 300.151L162.118 301.856C162.118 301.856 159.609 300.056 159.609 293.889C159.609 287.722 162.118 285.925 162.118 285.925L168.706 287.627C168.706 287.627 167.899 291.052 167.899 293.889C167.899 296.726 168.706 300.151 168.706 300.151ZM183.275 288.162C183.701 290.043 183.943 291.961 183.999 293.889C183.943 295.818 183.701 297.737 183.275 299.619C183.26 299.684 183.26 299.751 183.274 299.816C183.288 299.882 183.317 299.943 183.358 299.995C183.399 300.048 183.451 300.091 183.51 300.121C183.569 300.151 183.635 300.168 183.701 300.17L189.704 300.38C189.785 300.383 189.865 300.364 189.936 300.325C190.007 300.286 190.066 300.229 190.107 300.159C191.535 297.751 191.338 293.889 191.338 293.889C191.338 293.889 191.535 290.029 190.107 287.622C190.066 287.552 190.007 287.495 189.936 287.456C189.865 287.417 189.785 287.398 189.704 287.4L183.701 287.608C183.635 287.611 183.569 287.628 183.51 287.658C183.45 287.688 183.399 287.732 183.358 287.784C183.317 287.837 183.288 287.899 183.274 287.964C183.26 288.029 183.26 288.096 183.275 288.162Z" fill="#45474A"/>
<path d="M152.255 285.924C151.905 287.334 150.295 288.246 149.884 288.19C150.107 287.779 150.388 287.402 150.719 287.071C151.176 286.619 151.693 286.234 152.255 285.924V285.924Z" fill="#E9E8D8"/>
<rect x="65.958" y="275.547" width="75.601" height="39.5764" rx="8.11823" fill="#F18C53"/>
<path d="M129.889 286.703C129.621 286.703 129.38 286.649 129.165 286.539C128.95 286.425 128.765 286.271 128.611 286.076C128.461 285.881 128.345 285.652 128.264 285.388C128.183 285.12 128.142 284.832 128.142 284.524C128.142 284.215 128.183 283.929 128.264 283.665C128.345 283.397 128.461 283.166 128.611 282.971C128.765 282.776 128.95 282.624 129.165 282.514C129.38 282.401 129.621 282.344 129.889 282.344C130.157 282.344 130.399 282.401 130.614 282.514C130.829 282.624 131.012 282.776 131.162 282.971C131.316 283.166 131.434 283.397 131.515 283.665C131.596 283.929 131.637 284.215 131.637 284.524C131.637 284.832 131.596 285.12 131.515 285.388C131.434 285.652 131.316 285.881 131.162 286.076C131.012 286.271 130.829 286.425 130.614 286.539C130.399 286.649 130.157 286.703 129.889 286.703ZM129.889 285.948C130.036 285.948 130.167 285.914 130.285 285.845C130.403 285.772 130.502 285.672 130.583 285.547C130.669 285.417 130.732 285.264 130.772 285.09C130.817 284.915 130.839 284.727 130.839 284.524C130.839 284.317 130.817 284.128 130.772 283.957C130.732 283.783 130.669 283.633 130.583 283.507C130.502 283.377 130.403 283.277 130.285 283.208C130.167 283.135 130.036 283.099 129.889 283.099C129.739 283.099 129.605 283.135 129.488 283.208C129.37 283.277 129.27 283.377 129.189 283.507C129.108 283.633 129.045 283.783 129 283.957C128.96 284.128 128.94 284.317 128.94 284.524C128.94 284.727 128.96 284.915 129 285.09C129.045 285.264 129.108 285.417 129.189 285.547C129.27 285.672 129.37 285.772 129.488 285.845C129.605 285.914 129.739 285.948 129.889 285.948ZM133.118 286.606V283.379L132.382 283.689L132.089 283.014L133.313 282.441H133.916V286.606H133.118Z" fill="white"/>
</g>
</g>
<path d="M15 26.5H198.667C222.047 26.5 241 45.4533 241 68.8333V173.5C241 235.908 190.408 286.5 128 286.5C65.5918 286.5 15 235.908 15 173.5V26.5Z" stroke="white" stroke-width="3"/>
<defs>
<clipPath id="clip0_313_9006">
<rect x="34.5" y="48" width="188" height="407" rx="24" fill="white"/>
</clipPath>
</defs>
</svg>
