<svg width="266" height="302" viewBox="0 0 266 302" fill="none" xmlns="http://www.w3.org/2000/svg">
<path d="M37 1.5H219.572C244.109 1.5 264 21.3912 264 45.9283V161C264 223.684 213.184 274.5 150.5 274.5C87.8157 274.5 37 223.684 37 161V1.5Z" stroke="#F9FAFB" stroke-width="3"/>
<path d="M0.5 12H205.242C231.894 12 253.5 33.6059 253.5 60.258V175.5C253.5 245.364 196.864 302 127 302V302C57.136 302 0.5 245.364 0.5 175.5V12Z" fill="#F0F4F9"/>
<mask id="mask0_313_8516" style="mask-type:alpha" maskUnits="userSpaceOnUse" x="13" y="25" width="230" height="263">
<path d="M13.5 25H242.5V173.5C242.5 236.737 191.237 288 128 288V288C64.7634 288 13.5 236.737 13.5 173.5V25Z" fill="white"/>
</mask>
<g mask="url(#mask0_313_8516)">
<g clip-path="url(#clip0_313_8516)">
<rect x="34.5" y="48" width="188" height="407.083" rx="24" fill="white"/>
<path fill-rule="evenodd" clip-rule="evenodd" d="M256.5 32.793H30.2621L30.2621 62.9576H50.7484C51.912 58.193 55.6624 54.4426 60.427 53.2788V33.4211H66.7114V53.2788C71.476 54.4425 75.2265 58.193 76.3901 62.9576H115.73V33.4211H122.014V62.9576H161.353C162.517 58.1929 166.268 54.4424 171.032 53.2787V33.4211H177.317V53.2788C182.081 54.4426 185.832 58.1931 186.995 62.9576H226.335V33.4211H232.619V62.9576H256.5V69.242H232.619V147.797H256.5V154.081H232.619V232.636H256.5V238.921H232.619V317.474H256.5L256.5 32.793ZM256.5 323.759H232.619V536.171H226.335V323.759H177.347L90.1528 501.646L170.415 536.171H154.511L87.3835 507.296L73.2298 536.171H66.231L81.6035 504.81L40.8168 487.265L30.2621 508.798V494.52L35.0368 484.779L30.2621 482.725V475.884L37.8061 479.129L63.5412 426.626L30.2621 412.311V405.469L66.3105 420.976L92.1914 368.176L30.2621 341.536V334.695L94.9608 362.526L113.963 323.759H30.2621L30.2621 334.695L24.3206 332.139L21.8373 337.912L30.2621 341.536V405.469L30.2317 405.456L27.7484 411.229L30.2621 412.311V475.884L24.3206 473.328L21.8373 479.101L30.2621 482.725V494.52L21.0635 513.286L26.7064 516.052L30.2621 508.798V536.171H66.231L65.9089 536.829L71.5518 539.595L73.2298 536.171H154.511L174.741 544.874L177.225 539.101L170.415 536.171H256.5L256.5 422.424H232.619V416.14H256.5L256.5 323.759ZM30.2621 317.474H60.427V248.599C55.6627 247.435 51.9124 243.685 50.7486 238.921H30.2621V317.474ZM30.2621 232.636H50.7483C51.9119 227.872 55.6623 224.121 60.427 222.957V163.759C55.6629 162.595 51.9127 158.845 50.7487 154.081H30.2621V232.636ZM30.2621 147.797H50.7482C51.9115 143.032 55.6621 139.281 60.427 138.117V78.9204C55.6626 77.7567 51.9122 74.0064 50.7485 69.242H30.2621V147.797ZM66.7114 248.599V317.474H115.73V238.921H76.39C75.2261 243.685 71.4758 247.435 66.7114 248.599ZM76.3902 232.636H115.73V154.081H76.3898C75.2258 158.845 71.4756 162.595 66.7114 163.759V222.957C71.4761 224.121 75.2266 227.872 76.3902 232.636ZM76.39 69.242C75.2263 74.0065 71.4759 77.7568 66.7114 78.9205V138.117C71.4763 139.281 75.227 143.032 76.3904 147.797H115.73V69.242H76.39ZM122.014 69.242H161.354C162.517 74.0065 166.268 77.7569 171.032 78.9205V138.117C166.267 139.281 162.517 143.032 161.353 147.797H122.014V69.242ZM177.317 138.117V78.9204C182.081 77.7567 185.831 74.0064 186.995 69.242H226.335V147.797H186.995C185.832 143.032 182.082 139.281 177.317 138.117ZM122.014 154.081H161.354C162.518 158.845 166.268 162.595 171.032 163.759V222.957C166.268 224.121 162.517 227.871 161.353 232.636H122.014V154.081ZM186.995 232.636C185.832 227.872 182.081 224.121 177.317 222.957V163.759C182.081 162.595 185.831 158.845 186.995 154.081H226.335V232.636H186.995ZM177.317 248.599C182.081 247.435 185.831 243.685 186.995 238.921H226.335V317.474H177.317V248.599ZM161.354 238.921C162.517 243.685 166.268 247.435 171.032 248.599V317.474H122.014V238.921H161.354ZM120.962 323.759L100.741 365.012L141.528 382.557L170.348 323.759H120.962ZM97.9714 370.662L72.0905 423.462L112.877 441.007L138.758 388.207L97.9714 370.662ZM69.3212 429.112L43.5861 481.615L84.3728 499.16L110.108 446.657L69.3212 429.112ZM174.174 157.851C177.992 157.851 181.087 154.756 181.087 150.938C181.087 147.12 177.992 144.025 174.174 144.025C170.356 144.025 167.261 147.12 167.261 150.938C167.261 154.756 170.356 157.851 174.174 157.851ZM70.482 150.938C70.482 154.756 67.387 157.851 63.5692 157.851C59.7513 157.851 56.6564 154.756 56.6564 150.938C56.6564 147.12 59.7513 144.025 63.5692 144.025C67.387 144.025 70.482 147.12 70.482 150.938ZM174.174 73.0123C177.992 73.0123 181.087 69.9174 181.087 66.0995C181.087 62.2817 177.992 59.1867 174.174 59.1867C170.356 59.1867 167.261 62.2817 167.261 66.0995C167.261 69.9174 170.356 73.0123 174.174 73.0123ZM70.482 66.0995C70.482 69.9174 67.387 73.0123 63.5692 73.0123C59.7513 73.0123 56.6564 69.9174 56.6564 66.0995C56.6564 62.2817 59.7513 59.1867 63.5692 59.1867C67.387 59.1867 70.482 62.2817 70.482 66.0995ZM174.174 242.691C177.992 242.691 181.087 239.596 181.087 235.778C181.087 231.96 177.992 228.865 174.174 228.865C170.356 228.865 167.261 231.96 167.261 235.778C167.261 239.596 170.356 242.691 174.174 242.691ZM70.482 235.778C70.482 239.596 67.387 242.691 63.5692 242.691C59.7513 242.691 56.6564 239.596 56.6564 235.778C56.6564 231.96 59.7513 228.865 63.5692 228.865C67.387 228.865 70.482 231.96 70.482 235.778Z" fill="#F9FAFB"/>
<rect x="224.45" y="157.852" width="10.055" height="18.8531" transform="rotate(90 224.45 157.852)" fill="white"/>
<rect x="113.845" y="157.852" width="10.055" height="18.8531" transform="rotate(90 113.845 157.852)" fill="white"/>
<rect x="113.845" y="242.691" width="10.055" height="18.8531" transform="rotate(90 113.845 242.691)" fill="white"/>
<rect x="224.45" y="242.691" width="10.055" height="18.8531" transform="rotate(90 224.45 242.691)" fill="white"/>
<rect x="224.45" y="73.0122" width="10.055" height="18.8531" transform="rotate(90 224.45 73.0122)" fill="white"/>
<rect x="113.845" y="73.0122" width="10.055" height="18.8531" transform="rotate(90 113.845 73.0122)" fill="white"/>
<rect x="198.055" y="166.021" width="10.055" height="18.8531" transform="rotate(90 198.055 166.021)" fill="white"/>
<rect x="87.4502" y="166.021" width="10.055" height="18.8531" transform="rotate(90 87.4502 166.021)" fill="white"/>
<rect x="87.4502" y="250.861" width="10.055" height="18.8531" transform="rotate(90 87.4502 250.861)" fill="white"/>
<rect x="198.055" y="250.861" width="10.055" height="18.8531" transform="rotate(90 198.055 250.861)" fill="white"/>
<rect x="198.055" y="81.1829" width="10.055" height="18.8531" transform="rotate(90 198.055 81.1829)" fill="white"/>
<rect x="87.4502" y="81.1829" width="10.055" height="18.8531" transform="rotate(90 87.4502 81.1829)" fill="white"/>
<rect x="224.45" y="172.934" width="10.055" height="18.8531" transform="rotate(90 224.45 172.934)" fill="white"/>
<rect x="113.845" y="172.934" width="10.055" height="18.8531" transform="rotate(90 113.845 172.934)" fill="white"/>
<rect x="113.845" y="257.773" width="10.055" height="18.8531" transform="rotate(90 113.845 257.773)" fill="white"/>
<rect x="224.45" y="257.773" width="10.055" height="18.8531" transform="rotate(90 224.45 257.773)" fill="white"/>
<rect x="224.45" y="88.095" width="10.055" height="18.8531" transform="rotate(90 224.45 88.095)" fill="white"/>
<rect x="224.45" y="47.875" width="10.055" height="18.8531" transform="rotate(90 224.45 47.875)" fill="white"/>
<rect x="144.638" y="47.875" width="10.055" height="18.8531" transform="rotate(90 144.638 47.875)" fill="white"/>
<rect x="111.959" y="47.875" width="10.055" height="18.8531" transform="rotate(90 111.959 47.875)" fill="white"/>
<rect x="113.845" y="88.095" width="10.055" height="18.8531" transform="rotate(90 113.845 88.095)" fill="white"/>
<rect x="198.055" y="181.104" width="10.055" height="18.8531" transform="rotate(90 198.055 181.104)" fill="white"/>
<rect x="87.4502" y="181.104" width="10.055" height="18.8531" transform="rotate(90 87.4502 181.104)" fill="white"/>
<rect x="87.4502" y="265.943" width="10.055" height="18.8531" transform="rotate(90 87.4502 265.943)" fill="white"/>
<rect x="198.055" y="265.943" width="10.055" height="18.8531" transform="rotate(90 198.055 265.943)" fill="white"/>
<rect x="198.055" y="96.2646" width="10.055" height="18.8531" transform="rotate(90 198.055 96.2646)" fill="white"/>
<rect x="87.4502" y="96.2646" width="10.055" height="18.8531" transform="rotate(90 87.4502 96.2646)" fill="white"/>
<rect x="224.45" y="188.017" width="10.055" height="18.8531" transform="rotate(90 224.45 188.017)" fill="white"/>
<rect x="113.845" y="188.017" width="10.055" height="18.8531" transform="rotate(90 113.845 188.017)" fill="white"/>
<rect x="113.845" y="272.856" width="10.055" height="18.8531" transform="rotate(90 113.845 272.856)" fill="white"/>
<rect x="224.45" y="272.856" width="10.055" height="18.8531" transform="rotate(90 224.45 272.856)" fill="white"/>
<rect x="224.45" y="103.178" width="10.055" height="18.8531" transform="rotate(90 224.45 103.178)" fill="white"/>
<rect x="113.845" y="103.178" width="10.055" height="18.8531" transform="rotate(90 113.845 103.178)" fill="white"/>
<rect x="198.055" y="196.187" width="10.055" height="18.8531" transform="rotate(90 198.055 196.187)" fill="white"/>
<rect x="87.4502" y="196.187" width="10.055" height="18.8531" transform="rotate(90 87.4502 196.187)" fill="white"/>
<rect x="87.4502" y="281.026" width="10.055" height="18.8531" transform="rotate(90 87.4502 281.026)" fill="white"/>
<rect x="198.055" y="281.026" width="10.055" height="18.8531" transform="rotate(90 198.055 281.026)" fill="white"/>
<rect x="198.055" y="111.347" width="10.055" height="18.8531" transform="rotate(90 198.055 111.347)" fill="white"/>
<rect x="87.4502" y="111.347" width="10.055" height="18.8531" transform="rotate(90 87.4502 111.347)" fill="white"/>
<rect x="224.45" y="203.1" width="10.055" height="18.8531" transform="rotate(90 224.45 203.1)" fill="white"/>
<rect x="113.845" y="203.1" width="10.055" height="18.8531" transform="rotate(90 113.845 203.1)" fill="white"/>
<rect x="113.845" y="287.939" width="10.055" height="18.8531" transform="rotate(90 113.845 287.939)" fill="white"/>
<rect x="224.45" y="287.939" width="10.055" height="18.8531" transform="rotate(90 224.45 287.939)" fill="white"/>
<rect x="224.45" y="118.26" width="10.055" height="18.8531" transform="rotate(90 224.45 118.26)" fill="white"/>
<rect x="113.845" y="118.26" width="10.055" height="18.8531" transform="rotate(90 113.845 118.26)" fill="white"/>
<rect x="224.45" y="218.182" width="10.055" height="18.8531" transform="rotate(90 224.45 218.182)" fill="white"/>
<rect x="113.845" y="218.182" width="10.055" height="18.8531" transform="rotate(90 113.845 218.182)" fill="white"/>
<rect x="224.45" y="133.343" width="10.055" height="18.8531" transform="rotate(90 224.45 133.343)" fill="white"/>
<rect x="113.845" y="133.343" width="10.055" height="18.8531" transform="rotate(90 113.845 133.343)" fill="white"/>
<rect x="198.055" y="211.269" width="10.055" height="18.8531" transform="rotate(90 198.055 211.269)" fill="white"/>
<rect x="87.4502" y="211.269" width="10.055" height="18.8531" transform="rotate(90 87.4502 211.269)" fill="white"/>
<rect x="198.055" y="126.43" width="10.055" height="18.8531" transform="rotate(90 198.055 126.43)" fill="white"/>
<rect x="87.4502" y="126.43" width="10.055" height="18.8531" transform="rotate(90 87.4502 126.43)" fill="white"/>
<rect x="124.528" y="73.0122" width="18.8531" height="55.3025" fill="white"/>
<rect x="124.528" y="157.852" width="18.8531" height="10.055" fill="white"/>
<rect x="124.528" y="242.691" width="18.8531" height="10.055" fill="white"/>
<rect x="149.666" y="272.856" width="18.8531" height="10.055" fill="white"/>
<rect x="149.666" y="172.934" width="18.8531" height="10.055" fill="white"/>
<rect x="37.8037" y="81.1829" width="18.8531" height="10.055" fill="white"/>
<rect x="37.8037" y="166.021" width="18.8531" height="10.055" fill="white"/>
<rect x="37.8037" y="250.861" width="18.8531" height="10.055" fill="white"/>
<rect x="149.666" y="188.017" width="18.8531" height="10.055" fill="white"/>
<rect x="37.8037" y="126.43" width="18.8531" height="10.055" fill="white"/>
<rect x="37.8037" y="40.9626" width="18.8531" height="10.055" fill="white"/>
<rect x="37.8037" y="211.269" width="18.8531" height="10.055" fill="white"/>
<rect x="37.8037" y="111.347" width="18.8531" height="10.055" fill="white"/>
<rect x="37.8037" y="196.187" width="18.8531" height="10.055" fill="white"/>
<rect x="37.8037" y="281.026" width="18.8531" height="10.055" fill="white"/>
<rect x="37.8037" y="265.943" width="18.8531" height="10.055" fill="white"/>
<rect x="124.528" y="172.934" width="18.8531" height="10.055" fill="white"/>
<rect x="124.528" y="257.773" width="18.8531" height="10.055" fill="white"/>
<rect x="149.666" y="287.939" width="18.8531" height="10.055" fill="white"/>
<rect x="124.528" y="188.017" width="18.8531" height="10.055" fill="white"/>
<rect x="124.528" y="272.856" width="18.8531" height="10.055" fill="white"/>
<rect x="124.528" y="203.1" width="18.8531" height="25.1375" fill="white"/>
<rect x="124.528" y="133.343" width="18.8531" height="10.055" fill="white"/>
<rect x="157.207" y="83.0681" width="11.3119" height="52.7888" fill="white"/>
<g filter="url(#filter0_d_313_8516)">
<rect x="42.5215" y="72" width="171.957" height="24.064" rx="6.016" fill="white" shape-rendering="crispEdges"/>
<path d="M57.3527 87.7918C59.5446 87.7918 61.3216 86.0149 61.3216 83.8229C61.3216 81.6309 59.5446 79.854 57.3527 79.854C55.1607 79.854 53.3838 81.6309 53.3838 83.8229C53.3838 86.0149 55.1607 87.7918 57.3527 87.7918Z" stroke="#12143D" stroke-width="0.752" stroke-linecap="round" stroke-linejoin="round"/>
<path d="M61.7394 88.2096L60.9038 87.374" stroke="#12143D" stroke-width="0.752" stroke-linecap="round" stroke-linejoin="round"/>
<path d="M70.2548 87.5227H69.1188V82.1627H71.8628C72.9428 82.1627 73.7108 82.6907 73.7108 83.6587C73.7108 84.1707 73.5108 84.5467 73.1828 84.7867V84.8107C73.6148 84.9227 73.8388 85.2507 73.8388 85.8107V87.5227H72.7028V86.0187C72.7028 85.8027 72.5748 85.6987 72.3668 85.6987H70.2548V87.5227ZM70.2548 83.2667V84.6667H71.7748C72.2388 84.6667 72.5748 84.4107 72.5748 83.9627C72.5748 83.5307 72.2308 83.2667 71.7828 83.2667H70.2548ZM76.48 83.4187C77.808 83.4187 78.656 84.4827 78.512 85.8907H75.504C75.568 86.2987 75.92 86.6427 76.472 86.6667C76.84 86.6827 77.2 86.5147 77.344 86.2587H78.472C78.208 87.1467 77.416 87.6427 76.472 87.6427C75.128 87.6427 74.4 86.6507 74.4 85.5307C74.4 84.3467 75.256 83.4187 76.48 83.4187ZM76.472 84.3867C76 84.3867 75.624 84.6507 75.512 85.0507H77.416C77.296 84.6347 76.936 84.3867 76.472 84.3867ZM80.9956 83.4187C82.3236 83.4187 83.1716 84.4827 83.0276 85.8907H80.0196C80.0836 86.2987 80.4356 86.6427 80.9876 86.6667C81.3556 86.6827 81.7156 86.5147 81.8596 86.2587H82.9876C82.7236 87.1467 81.9316 87.6427 80.9876 87.6427C79.6436 87.6427 78.9156 86.6507 78.9156 85.5307C78.9156 84.3467 79.7716 83.4187 80.9956 83.4187ZM80.9876 84.3867C80.5156 84.3867 80.1396 84.6507 80.0276 85.0507H81.9316C81.8116 84.6347 81.4516 84.3867 80.9876 84.3867ZM85.9929 83.4187C87.0729 83.4107 87.8889 84.2667 87.8889 85.5227C87.8889 86.7547 87.1129 87.6427 85.9849 87.6427C85.4089 87.6347 84.9449 87.3627 84.6969 87.0027H84.6649V87.5227H83.5929V81.7627H84.6649V84.0667H84.6969C84.9529 83.6987 85.4089 83.4187 85.9929 83.4187ZM85.7289 86.6187C86.3609 86.6187 86.8009 86.1547 86.8009 85.5307C86.8009 84.9067 86.3609 84.4427 85.7289 84.4427C85.0889 84.4427 84.6649 84.9387 84.6649 85.5307C84.6649 86.1467 85.1049 86.6187 85.7289 86.6187ZM90.4268 87.6427C89.1308 87.6427 88.2828 86.7227 88.2828 85.5307C88.2828 84.3467 89.1228 83.4187 90.4268 83.4187C91.7308 83.4187 92.5708 84.3467 92.5708 85.5307C92.5708 86.7227 91.7228 87.6427 90.4268 87.6427ZM90.4268 86.5947C91.0588 86.5947 91.4908 86.1227 91.4908 85.5307C91.4908 84.9387 91.0668 84.4587 90.4268 84.4587C89.7868 84.4587 89.3628 84.9387 89.3628 85.5307C89.3628 86.1227 89.7868 86.5947 90.4268 86.5947ZM96.9726 83.5387L96.1486 84.9547C96.5806 85.0267 96.9006 85.3467 96.9006 85.8667V87.5227H95.8206V86.2267C95.8206 86.0347 95.7006 85.9307 95.5006 85.9307H94.1886V87.5227H93.1086V81.7627H94.1886V84.9387H95.0126L95.7966 83.5387H96.9726Z" fill="#12143D"/>
<path fill-rule="evenodd" clip-rule="evenodd" d="M203.951 84.0321C203.951 82.6477 202.829 81.5254 201.444 81.5254C200.06 81.5254 198.938 82.6477 198.938 84.0321C198.938 85.4165 200.06 86.5387 201.444 86.5387C202.829 86.5387 203.951 85.4165 203.951 84.0321ZM201.961 83.1965L201.444 83.7133L200.927 83.1965L200.609 83.5152L201.125 84.032L200.609 84.5488L200.927 84.8676L201.444 84.3507L201.961 84.8676L202.28 84.5488L201.763 84.032L202.28 83.5152L201.961 83.1965Z" fill="#12143D"/>
</g>
<g filter="url(#filter1_d_313_8516)">
<rect x="42.5215" y="241.109" width="41.1093" height="20.3728" rx="6.016" transform="rotate(-90 42.5215 241.109)" fill="white"/>
</g>
<rect x="42.5215" y="220.736" width="0.501333" height="20.3728" rx="0.250667" transform="rotate(-90 42.5215 220.736)" fill="white"/>
<path fill-rule="evenodd" clip-rule="evenodd" d="M55.982 209.368C55.982 210.724 54.8826 211.823 53.5263 211.823C52.9594 211.823 52.4373 211.631 52.0216 211.309C52.006 211.342 51.9844 211.373 51.9571 211.4L49.9925 213.365C49.8647 213.492 49.6574 213.492 49.5295 213.365C49.4016 213.237 49.4016 213.029 49.5295 212.902L51.494 210.937C51.5214 210.91 51.5524 210.888 51.5856 210.872C51.2628 210.457 51.0707 209.935 51.0707 209.368C51.0707 208.012 52.1701 206.912 53.5263 206.912C54.8826 206.912 55.982 208.012 55.982 209.368ZM55.3271 209.368C55.3271 208.373 54.5209 207.567 53.5263 207.567C52.5318 207.567 51.7255 208.373 51.7255 209.368C51.7255 210.362 52.5318 211.169 53.5263 211.169C54.5209 211.169 55.3271 210.362 55.3271 209.368ZM53.8538 208.549C53.8538 208.368 53.7072 208.222 53.5263 208.222C53.3455 208.222 53.1989 208.368 53.1989 208.549V209.04H52.7078C52.527 209.04 52.3804 209.187 52.3804 209.368C52.3804 209.549 52.527 209.695 52.7078 209.695H53.1989V210.186C53.1989 210.367 53.3455 210.514 53.5263 210.514C53.7072 210.514 53.8538 210.367 53.8538 210.186V209.695H54.3449C54.5257 209.695 54.6723 209.549 54.6723 209.368C54.6723 209.187 54.5257 209.04 54.3449 209.04H53.8538V208.549Z" fill="#12143D"/>
<path fill-rule="evenodd" clip-rule="evenodd" d="M53.5263 232.56C54.8826 232.56 55.982 231.461 55.982 230.105C55.982 228.748 54.8826 227.649 53.5263 227.649C52.1701 227.649 51.0707 228.748 51.0707 230.105C51.0707 230.672 51.2628 231.194 51.5856 231.609C51.5524 231.625 51.5214 231.646 51.494 231.674L49.5295 233.638C49.4016 233.766 49.4016 233.974 49.5295 234.101C49.6574 234.229 49.8647 234.229 49.9925 234.101L51.9571 232.137C51.9844 232.11 52.006 232.078 52.0216 232.045C52.4373 232.368 52.9594 232.56 53.5263 232.56ZM53.5263 228.304C54.5209 228.304 55.3271 229.11 55.3271 230.105C55.3271 231.099 54.5209 231.905 53.5263 231.905C52.5318 231.905 51.7255 231.099 51.7255 230.105C51.7255 229.11 52.5318 228.304 53.5263 228.304ZM52.3804 230.105C52.3804 230.285 52.527 230.432 52.7078 230.432H54.3449C54.5257 230.432 54.6723 230.285 54.6723 230.105C54.6723 229.924 54.5257 229.777 54.3449 229.777H52.7078C52.527 229.777 52.3804 229.924 52.3804 230.105Z" fill="#12143D"/>
<g filter="url(#filter2_d_313_8516)">
<rect x="194.425" y="241.109" width="20.0533" height="20.0533" rx="6.016" transform="rotate(-90 194.425 241.109)" fill="white"/>
</g>
<path d="M204.337 234.843C206.413 234.843 208.097 233.159 208.097 231.083C208.097 229.006 206.413 227.323 204.337 227.323C202.26 227.323 200.577 229.006 200.577 231.083C200.577 233.159 202.26 234.843 204.337 234.843Z" stroke="#292D32" stroke-width="0.752" stroke-linecap="round" stroke-linejoin="round"/>
<path d="M204.337 232.587C205.168 232.587 205.841 231.913 205.841 231.083C205.841 230.252 205.168 229.579 204.337 229.579C203.506 229.579 202.833 230.252 202.833 231.083C202.833 231.913 203.506 232.587 204.337 232.587Z" stroke="#292D32" stroke-width="0.752" stroke-linecap="round" stroke-linejoin="round"/>
<path d="M204.337 227.072V226.069" stroke="#292D32" stroke-width="0.752" stroke-linecap="round" stroke-linejoin="round"/>
<path d="M200.326 231.083H199.323" stroke="#292D32" stroke-width="0.752" stroke-linecap="round" stroke-linejoin="round"/>
<path d="M204.337 235.093V236.096" stroke="#292D32" stroke-width="0.752" stroke-linecap="round" stroke-linejoin="round"/>
<path d="M208.348 231.083H209.35" stroke="#292D32" stroke-width="0.752" stroke-linecap="round" stroke-linejoin="round"/>
<g filter="url(#filter3_bd_313_8516)">
<circle cx="152.815" cy="177.179" r="12.032" fill="white" fill-opacity="0.7" shape-rendering="crispEdges"/>
<circle cx="152.815" cy="177.179" r="11.7813" stroke="#12143D" stroke-opacity="0.1" stroke-width="0.501333" shape-rendering="crispEdges"/>
</g>
<g filter="url(#filter4_d_313_8516)">
<circle cx="152.815" cy="177.179" r="5.51467" fill="#F18C53"/>
<circle cx="152.815" cy="177.179" r="4.01067" stroke="white" stroke-width="3.008"/>
</g>
<g filter="url(#filter5_d_313_8516)">
<rect x="166.852" y="200" width="48.064" height="17.0213" rx="6.016" fill="white" shape-rendering="crispEdges"/>
<path d="M174.781 206.98V211.011H173.927V207.81H173.001V206.98H174.781ZM176.214 208.015H177.862V208.797H176.238C176.16 208.797 176.111 208.851 176.111 208.923C176.111 208.983 176.154 209.037 176.214 209.05L177.339 209.278C177.79 209.374 178.079 209.687 178.079 210.108C178.079 210.638 177.652 211.011 177.104 211.011H175.372V210.223H177.092C177.17 210.223 177.224 210.169 177.224 210.09C177.224 210.03 177.188 209.976 177.122 209.958L175.979 209.711C175.546 209.621 175.245 209.302 175.245 208.899C175.245 208.382 175.666 208.015 176.214 208.015ZM180.66 208.015V208.797H179.426V209.994C179.426 210.138 179.523 210.223 179.667 210.223H180.66V211.011H179.517C178.969 211.011 178.614 210.674 178.614 210.132V208.797H178.193V208.015H178.614V206.98H179.426V208.015H180.66ZM184.837 207.467H183.844C183.7 207.467 183.603 207.552 183.603 207.69V208.015H184.837V208.797H183.603V211.011H182.791V208.797H182.37V208.015H182.791V207.558C182.791 207.034 183.158 206.679 183.688 206.679H184.837V207.467ZM185.218 210.144V206.679H186.03V210C186.03 210.138 186.121 210.223 186.271 210.223H186.674V211.011H186.115C185.543 211.011 185.218 210.686 185.218 210.144ZM188.443 211.101C187.468 211.101 186.831 210.409 186.831 209.513C186.831 208.622 187.462 207.925 188.443 207.925C189.423 207.925 190.055 208.622 190.055 209.513C190.055 210.409 189.417 211.101 188.443 211.101ZM188.443 210.313C188.918 210.313 189.243 209.958 189.243 209.513C189.243 209.068 188.924 208.707 188.443 208.707C187.962 208.707 187.643 209.068 187.643 209.513C187.643 209.958 187.962 210.313 188.443 210.313ZM191.95 211.101C190.976 211.101 190.338 210.409 190.338 209.513C190.338 208.622 190.97 207.925 191.95 207.925C192.931 207.925 193.563 208.622 193.563 209.513C193.563 210.409 192.925 211.101 191.95 211.101ZM191.95 210.313C192.425 210.313 192.75 209.958 192.75 209.513C192.75 209.068 192.431 208.707 191.95 208.707C191.469 208.707 191.15 209.068 191.15 209.513C191.15 209.958 191.469 210.313 191.95 210.313ZM195.495 208.015H196.126V208.827H195.453C195.062 208.827 194.785 209.104 194.785 209.519V211.011H193.973V208.015H194.743V208.484H194.773C194.881 208.189 195.146 208.015 195.495 208.015Z" fill="#232528"/>
<path d="M207.536 207.508L205.357 209.687C205.1 209.944 204.679 209.944 204.421 209.687L202.242 207.508" stroke="#12143D" stroke-width="0.752" stroke-miterlimit="10" stroke-linecap="round" stroke-linejoin="round"/>
</g>
<path d="M113.393 117.06C112.516 113.2 109.149 111.462 106.191 111.462C106.191 111.462 106.191 111.462 106.182 111.462C103.233 111.462 99.8572 113.192 98.9799 117.052C98.0023 121.363 100.643 125.015 103.032 127.313C103.918 128.165 105.054 128.591 106.191 128.591C107.327 128.591 108.463 128.165 109.341 127.313C111.73 125.015 114.371 121.372 113.393 117.06ZM106.191 121.247C104.737 121.247 103.559 120.068 103.559 118.615C103.559 117.161 104.737 115.983 106.191 115.983C107.645 115.983 108.823 117.161 108.823 118.615C108.823 120.068 107.645 121.247 106.191 121.247Z" fill="#F18C53"/>
<path d="M150.057 177.429H123.737C121.799 177.429 120.228 175.858 120.228 173.92V126.293C120.228 124.355 118.657 122.784 116.719 122.784H113.46" stroke="#F18C53" stroke-width="1.504" stroke-linecap="round"/>
</g>
<rect x="35" y="48.5" width="187" height="406.083" rx="23.5" stroke="white"/>
</g>
<path d="M15 26.5H198.667C222.047 26.5 241 45.4533 241 68.8333V173.5C241 235.908 190.408 286.5 128 286.5C65.5918 286.5 15 235.908 15 173.5V26.5Z" stroke="white" stroke-width="3"/>
<defs>
<filter id="filter0_d_313_8516" x="-8.11318" y="36.4053" width="273.227" height="125.333" filterUnits="userSpaceOnUse" color-interpolation-filters="sRGB">
<feFlood flood-opacity="0" result="BackgroundImageFix"/>
<feColorMatrix in="SourceAlpha" type="matrix" values="0 0 0 0 0 0 0 0 0 0 0 0 0 0 0 0 0 0 127 0" result="hardAlpha"/>
<feOffset dy="15.04"/>
<feGaussianBlur stdDeviation="25.3173"/>
<feComposite in2="hardAlpha" operator="out"/>
<feColorMatrix type="matrix" values="0 0 0 0 0.0156863 0 0 0 0 0.0235294 0 0 0 0 0.0588235 0 0 0 0.08 0"/>
<feBlend mode="normal" in2="BackgroundImageFix" result="effect1_dropShadow_313_8516"/>
<feBlend mode="normal" in="SourceGraphic" in2="effect1_dropShadow_313_8516" result="shape"/>
</filter>
<filter id="filter1_d_313_8516" x="-8.11318" y="175.936" width="121.642" height="142.379" filterUnits="userSpaceOnUse" color-interpolation-filters="sRGB">
<feFlood flood-opacity="0" result="BackgroundImageFix"/>
<feColorMatrix in="SourceAlpha" type="matrix" values="0 0 0 0 0 0 0 0 0 0 0 0 0 0 0 0 0 0 127 0" result="hardAlpha"/>
<feOffset dy="26.5707"/>
<feGaussianBlur stdDeviation="25.3173"/>
<feComposite in2="hardAlpha" operator="out"/>
<feColorMatrix type="matrix" values="0 0 0 0 0.0156863 0 0 0 0 0.0235294 0 0 0 0 0.0588235 0 0 0 0.08 0"/>
<feBlend mode="normal" in2="BackgroundImageFix" result="effect1_dropShadow_313_8516"/>
<feBlend mode="normal" in="SourceGraphic" in2="effect1_dropShadow_313_8516" result="shape"/>
</filter>
<filter id="filter2_d_313_8516" x="143.791" y="196.992" width="121.323" height="121.323" filterUnits="userSpaceOnUse" color-interpolation-filters="sRGB">
<feFlood flood-opacity="0" result="BackgroundImageFix"/>
<feColorMatrix in="SourceAlpha" type="matrix" values="0 0 0 0 0 0 0 0 0 0 0 0 0 0 0 0 0 0 127 0" result="hardAlpha"/>
<feOffset dy="26.5707"/>
<feGaussianBlur stdDeviation="25.3173"/>
<feComposite in2="hardAlpha" operator="out"/>
<feColorMatrix type="matrix" values="0 0 0 0 0.0156863 0 0 0 0 0.0235294 0 0 0 0 0.0588235 0 0 0 0.08 0"/>
<feBlend mode="normal" in2="BackgroundImageFix" result="effect1_dropShadow_313_8516"/>
<feBlend mode="normal" in="SourceGraphic" in2="effect1_dropShadow_313_8516" result="shape"/>
</filter>
<filter id="filter3_bd_313_8516" x="128.751" y="157.125" width="56.1493" height="56.1493" filterUnits="userSpaceOnUse" color-interpolation-filters="sRGB">
<feFlood flood-opacity="0" result="BackgroundImageFix"/>
<feGaussianBlur in="BackgroundImageFix" stdDeviation="0.501333"/>
<feComposite in2="SourceAlpha" operator="in" result="effect1_backgroundBlur_313_8516"/>
<feColorMatrix in="SourceAlpha" type="matrix" values="0 0 0 0 0 0 0 0 0 0 0 0 0 0 0 0 0 0 127 0" result="hardAlpha"/>
<feOffset dx="4.01067" dy="8.02133"/>
<feGaussianBlur stdDeviation="8.02133"/>
<feComposite in2="hardAlpha" operator="out"/>
<feColorMatrix type="matrix" values="0 0 0 0 0.419608 0 0 0 0 0.447059 0 0 0 0 0.501961 0 0 0 0.1 0"/>
<feBlend mode="normal" in2="effect1_backgroundBlur_313_8516" result="effect2_dropShadow_313_8516"/>
<feBlend mode="normal" in="SourceGraphic" in2="effect2_dropShadow_313_8516" result="shape"/>
</filter>
<filter id="filter4_d_313_8516" x="131.258" y="157.627" width="43.1146" height="43.1146" filterUnits="userSpaceOnUse" color-interpolation-filters="sRGB">
<feFlood flood-opacity="0" result="BackgroundImageFix"/>
<feColorMatrix in="SourceAlpha" type="matrix" values="0 0 0 0 0 0 0 0 0 0 0 0 0 0 0 0 0 0 127 0" result="hardAlpha"/>
<feOffset dy="2.00533"/>
<feGaussianBlur stdDeviation="8.02133"/>
<feComposite in2="hardAlpha" operator="out"/>
<feColorMatrix type="matrix" values="0 0 0 0 0.419608 0 0 0 0 0.447059 0 0 0 0 0.501961 0 0 0 0.4 0"/>
<feBlend mode="normal" in2="BackgroundImageFix" result="effect1_dropShadow_313_8516"/>
<feBlend mode="normal" in="SourceGraphic" in2="effect1_dropShadow_313_8516" result="shape"/>
</filter>
<filter id="filter5_d_313_8516" x="141.785" y="175.936" width="98.1973" height="67.1546" filterUnits="userSpaceOnUse" color-interpolation-filters="sRGB">
<feFlood flood-opacity="0" result="BackgroundImageFix"/>
<feColorMatrix in="SourceAlpha" type="matrix" values="0 0 0 0 0 0 0 0 0 0 0 0 0 0 0 0 0 0 127 0" result="hardAlpha"/>
<feOffset dy="1.00267"/>
<feGaussianBlur stdDeviation="12.5333"/>
<feComposite in2="hardAlpha" operator="out"/>
<feColorMatrix type="matrix" values="0 0 0 0 0.419608 0 0 0 0 0.447059 0 0 0 0 0.501961 0 0 0 0.12 0"/>
<feBlend mode="normal" in2="BackgroundImageFix" result="effect1_dropShadow_313_8516"/>
<feBlend mode="normal" in="SourceGraphic" in2="effect1_dropShadow_313_8516" result="shape"/>
</filter>
<clipPath id="clip0_313_8516">
<rect x="34.5" y="48" width="188" height="407.083" rx="24" fill="white"/>
</clipPath>
</defs>
</svg>
