<svg width="33" height="33" viewBox="0 0 33 33" fill="none" xmlns="http://www.w3.org/2000/svg">
<rect x="2.5" y="2.49988" width="28" height="28" rx="8" fill="url(#paint0_radial_417_51707)"/>
<rect x="2.5" y="2.49988" width="28" height="28" rx="8" fill="url(#paint1_radial_417_51707)"/>
<rect x="2.5" y="2.49988" width="28" height="28" rx="8" fill="url(#paint2_radial_417_51707)"/>
<path d="M23.5 10.9999C23.5 11.8283 22.8284 12.4999 22 12.4999C21.1716 12.4999 20.5 11.8283 20.5 10.9999C20.5 10.1715 21.1716 9.49988 22 9.49988C22.8284 9.49988 23.5 10.1715 23.5 10.9999Z" fill="white"/>
<path fill-rule="evenodd" clip-rule="evenodd" d="M16.5 21.4999C19.2614 21.4999 21.5 19.2613 21.5 16.4999C21.5 13.7385 19.2614 11.4999 16.5 11.4999C13.7386 11.4999 11.5 13.7385 11.5 16.4999C11.5 19.2613 13.7386 21.4999 16.5 21.4999ZM16.5 19.4999C18.1569 19.4999 19.5 18.1567 19.5 16.4999C19.5 14.843 18.1569 13.4999 16.5 13.4999C14.8431 13.4999 13.5 14.843 13.5 16.4999C13.5 18.1567 14.8431 19.4999 16.5 19.4999Z" fill="white"/>
<path fill-rule="evenodd" clip-rule="evenodd" d="M6.5 16.0999C6.5 12.7396 6.5 11.0594 7.15396 9.77593C7.7292 8.64696 8.64708 7.72908 9.77606 7.15384C11.0595 6.49988 12.7397 6.49988 16.1 6.49988H16.9C20.2603 6.49988 21.9405 6.49988 23.2239 7.15384C24.3529 7.72908 25.2708 8.64696 25.846 9.77593C26.5 11.0594 26.5 12.7396 26.5 16.0999V16.8999C26.5 20.2602 26.5 21.9404 25.846 23.2238C25.2708 24.3528 24.3529 25.2707 23.2239 25.8459C21.9405 26.4999 20.2603 26.4999 16.9 26.4999H16.1C12.7397 26.4999 11.0595 26.4999 9.77606 25.8459C8.64708 25.2707 7.7292 24.3528 7.15396 23.2238C6.5 21.9404 6.5 20.2602 6.5 16.8999V16.0999ZM16.1 8.49988H16.9C18.6132 8.49988 19.7777 8.50143 20.6779 8.57498C21.5548 8.64662 22.0032 8.77647 22.316 8.93585C23.0686 9.31935 23.6805 9.93127 24.064 10.6839C24.2234 10.9967 24.3533 11.4451 24.4249 12.322C24.4984 13.2221 24.5 14.3867 24.5 16.0999V16.8999C24.5 18.613 24.4984 19.7776 24.4249 20.6778C24.3533 21.5546 24.2234 22.003 24.064 22.3158C23.6805 23.0685 23.0686 23.6804 22.316 24.0639C22.0032 24.2233 21.5548 24.3531 20.6779 24.4248C19.7777 24.4983 18.6132 24.4999 16.9 24.4999H16.1C14.3868 24.4999 13.2223 24.4983 12.3221 24.4248C11.4452 24.3531 10.9968 24.2233 10.684 24.0639C9.93139 23.6804 9.31947 23.0685 8.93597 22.3158C8.77659 22.003 8.64674 21.5546 8.5751 20.6778C8.50156 19.7776 8.5 18.613 8.5 16.8999V16.0999C8.5 14.3867 8.50156 13.2221 8.5751 12.322C8.64674 11.4451 8.77659 10.9967 8.93597 10.6839C9.31947 9.93127 9.93139 9.31935 10.684 8.93585C10.9968 8.77647 11.4452 8.64662 12.3221 8.57498C13.2223 8.50143 14.3868 8.49988 16.1 8.49988Z" fill="white"/>
<defs>
<radialGradient id="paint0_radial_417_51707" cx="0" cy="0" r="1" gradientUnits="userSpaceOnUse" gradientTransform="translate(12.5 23.4999) rotate(-55.3758) scale(25.5196)">
<stop stop-color="#B13589"/>
<stop offset="0.79309" stop-color="#C62F94"/>
<stop offset="1" stop-color="#8A3AC8"/>
</radialGradient>
<radialGradient id="paint1_radial_417_51707" cx="0" cy="0" r="1" gradientUnits="userSpaceOnUse" gradientTransform="translate(11.5 31.4999) rotate(-65.1363) scale(22.5942)">
<stop stop-color="#E0E8B7"/>
<stop offset="0.444662" stop-color="#FB8A2E"/>
<stop offset="0.71474" stop-color="#E2425C"/>
<stop offset="1" stop-color="#E2425C" stop-opacity="0"/>
</radialGradient>
<radialGradient id="paint2_radial_417_51707" cx="0" cy="0" r="1" gradientUnits="userSpaceOnUse" gradientTransform="translate(1 3.49988) rotate(-8.1301) scale(38.8909 8.31836)">
<stop offset="0.156701" stop-color="#406ADC"/>
<stop offset="0.467799" stop-color="#6A45BE"/>
<stop offset="1" stop-color="#6A45BE" stop-opacity="0"/>
</radialGradient>
</defs>
</svg>
