<svg width="52" height="52" viewBox="0 0 52 52" fill="none" xmlns="http://www.w3.org/2000/svg">
<path d="M32.5984 45.2125C32.5743 45.3113 32.5501 45.4349 32.5501 45.5584C29.5292 37.2074 21.8683 24.5081 8.84235 23.7421C8.84235 23.7421 9.7607 19.3196 16.8658 16.0089C16.6724 16.7995 16.5033 17.4913 16.2374 18.5537C15.9474 19.789 15.9233 21.2467 16.1891 22.5068C16.2374 22.7044 16.3099 23.3221 16.5999 23.3221C16.8899 23.3221 17.0108 22.655 17.0349 22.5068C17.4216 20.8267 17.6391 20.0361 18.0258 18.3807C18.2433 17.4419 18.3158 16.4042 18.2191 15.4159C19.8866 14.7488 21.82 14.1558 24.1159 13.6617C23.5358 16.6018 22.9558 19.6161 22.3758 22.5315C22.1342 23.7916 22.1583 25.2246 22.4725 26.4846C22.5208 26.6823 22.6417 27.2999 22.9075 27.2999C23.1733 27.2999 23.2942 26.6081 23.3183 26.4846C23.9709 23.1739 24.6475 19.6902 25.3 16.3548C25.4692 15.4406 25.5175 14.4029 25.3967 13.4393C26.025 13.3158 26.6534 13.217 27.3301 13.1181C28.8042 12.8958 30.1093 12.6734 31.2934 12.451C30.4234 16.9477 29.3359 22.6303 28.5142 26.8799C28.3934 27.5223 28.2726 28.1894 28.1276 28.8318C27.8859 30.0918 27.9101 31.5248 28.2242 32.7849C28.2726 32.9825 28.3934 33.6002 28.6592 33.6002C28.9492 33.6002 29.0459 32.9084 29.0701 32.7849C29.9643 28.1153 31.2209 21.6668 32.1151 17.0218C32.2359 16.3795 32.3568 15.7124 32.5018 15.07C32.6709 14.1558 32.7193 13.1676 32.5984 12.204C35.3051 11.5616 37.3835 10.771 39.4619 9.60975C38.8577 12.7722 38.2293 16.0336 37.6977 18.7019L37.746 18.5784L33.6376 39.9499C33.2993 41.63 32.9609 43.4089 32.5984 45.2125ZM44.7544 2.61767C44.4644 2.51885 43.0869 4.61894 41.7819 5.97782L41.7577 6.00253C41.8785 4.94013 41.806 3.82832 41.5644 2.81533C41.516 2.61767 41.3952 2 41.1294 2C40.8394 2 40.7427 2.6918 40.7185 2.81533C40.4527 4.14951 40.1627 5.63192 39.8727 7.16376C34.6043 10.1286 29.4326 10.2274 22.98 11.7098C9.47069 14.8476 7.34401 22.5809 7.00567 24.9528C6.95733 25.3234 7.22317 25.6446 7.60984 25.6446C21.0225 25.6693 29.6501 40.4193 32.7676 49.3633C33.0818 50.1539 33.4443 50.2774 33.6135 49.3386C36.0302 36.9604 38.3743 24.5575 40.7427 12.1546C41.0085 10.8204 41.2502 9.46151 41.516 8.12733C43.1594 6.74374 44.5127 4.74247 44.7786 3.97656C44.8752 3.72949 45.2378 2.76592 44.7544 2.61767Z" fill="#17181B"/>
</svg>
