<svg width="48" height="48" viewBox="0 0 48 48" fill="none" xmlns="http://www.w3.org/2000/svg">
<circle cx="24" cy="24" r="24" fill="#F9FAFB"/>
<mask id="mask0_377_25935" style="mask-type:alpha" maskUnits="userSpaceOnUse" x="0" y="0" width="48" height="48">
<circle cx="24" cy="24" r="24" fill="#EFF4FF"/>
</mask>
<g mask="url(#mask0_377_25935)">
<path d="M40.6593 38.5068C40.282 38.8818 39.999 39.2568 39.6216 39.538C35.3766 43.4755 29.7165 45.8192 23.396 45.8192C18.3963 45.8192 13.6795 44.3192 9.81178 41.6005C8.67976 40.8505 7.64208 39.913 6.69873 38.9755C7.17041 38.3193 8.11375 37.8506 10.0005 37.1006L10.7551 36.8193C12.1702 36.2569 14.1512 35.5069 16.6982 34.4756C17.0756 34.2881 17.4529 34.1006 17.6416 33.7257C17.7359 33.5382 17.9246 33.3507 17.9246 33.1632C18.1133 32.8819 18.1133 32.5069 18.1133 32.1319V27.3508C18.0189 27.257 18.0189 27.1633 17.9246 27.0695C17.5473 26.4133 17.2642 25.7571 17.1699 25.0071L16.7926 24.8196C15.5662 25.1008 15.6606 23.7884 15.3775 21.2572C15.2832 20.2259 15.3775 20.0384 15.8492 19.8509L16.2266 19.2884C15.2832 17.226 14.9059 15.5385 14.9059 14.0386C14.9059 11.6949 15.9436 10.1011 17.3586 9.35115C16.6982 7.85118 16.6039 7.19495 16.6039 7.19495C16.6039 7.19495 21.6037 8.03868 23.3017 7.66369C25.4714 7.19495 28.8674 7.75744 30.0938 10.6636C30.3768 10.7574 30.5655 10.8511 30.8485 10.9449C32.4522 11.7886 33.0182 12.9136 33.2069 14.1323C33.4899 16.3823 32.2635 18.8197 31.9805 19.8509C31.9805 19.8509 31.9805 19.9447 32.0748 19.9447C32.4522 20.1322 32.5465 20.4134 32.3578 21.3509C32.0748 23.7884 32.1692 25.1946 30.9428 24.9133L29.8108 26.7883C29.8108 26.9758 29.7165 27.0695 29.7165 27.257C29.7165 27.632 29.7165 28.2883 29.7165 32.2257C29.7165 32.3194 29.7165 32.5069 29.7165 32.6007C29.7165 32.9757 29.9051 33.2569 30.0938 33.5382C30.1881 33.6319 30.2825 33.7257 30.3768 33.8194C30.6598 34.1006 30.9428 34.2881 31.3202 34.4756C34.1502 35.6944 36.2256 36.4443 37.7349 37.0068C39.15 37.6631 40.0933 38.1318 40.6593 38.5068Z" fill="#F9FAFB"/>
<path d="M42.9234 45.5379C38.6783 49.4753 29.7165 45.9129 23.3961 45.9129C18.3963 45.9129 7.92515 49.8503 4.05741 47.2254C3.30273 46.6629 4.24608 44.5067 4.52909 43.8504C5.00076 42.538 5.47244 41.2255 6.13278 40.0068C7.54781 37.2881 14.0569 35.9756 16.6983 34.5694C17.17 34.2881 17.453 34.1006 17.6416 33.8194C20.7547 38.1318 27.1695 38.1318 30.2825 33.9131C30.5655 34.1944 30.8485 34.3819 31.2259 34.5694C31.3202 34.5694 31.4146 34.6631 31.5089 34.6631C40.282 38.2256 40.848 37.7568 41.9801 41.038C42.1687 41.6005 43.3008 45.1629 42.9234 45.5379Z" fill="#EEF1F4"/>
<path d="M42.9234 45.5379C38.6783 49.4753 29.7165 45.9129 23.3961 45.9129C18.3963 45.9129 7.92515 49.8503 4.05741 47.2253C3.30273 46.6628 4.24608 44.5066 4.52909 43.8504C5.00076 42.5379 5.47244 41.2255 6.13278 40.0067C7.54781 37.288 14.0569 35.9756 16.6983 34.5693C16.6983 34.5693 16.6983 34.5693 16.7926 34.5693C20.3774 39.538 27.8298 39.538 31.4146 34.6631H31.5089C40.282 38.2255 40.848 37.7568 41.9801 41.038C42.1687 41.6004 43.3008 45.1629 42.9234 45.5379Z" fill="#EEF1F4"/>
<path d="M31.9804 19.8509C32.0748 19.2884 31.7918 18.5385 31.6031 17.976C31.6031 17.8822 31.5087 17.7885 31.5087 17.6947C30.5654 15.8198 28.3957 14.976 26.4147 14.8823C21.2262 14.601 20.7546 15.6323 19.0565 14.1323C19.5282 14.8823 19.6225 16.101 18.8679 17.601C18.3019 18.6322 17.2642 19.101 16.3208 19.3822C13.9624 14.0386 15.0945 10.6636 17.4528 9.4449C16.6982 7.85118 16.6038 7.19495 16.6038 7.19495C16.6038 7.19495 21.6036 8.03868 23.3016 7.66369C25.4713 7.19495 28.8674 7.75744 30.0937 10.6636C32.1691 11.5074 33.0181 12.8198 33.2068 14.2261C33.5841 16.476 32.2634 18.9135 31.9804 19.8509Z" fill="#17181B"/>
<path d="M18.2077 32.3195V27.5384C18.1134 27.4446 18.019 27.3509 18.019 27.2571V26.9759C18.302 27.4446 18.5851 27.8196 19.0567 28.1009L22.8301 30.7258C23.6791 31.4758 24.9998 31.4758 25.8488 30.7258L29.3392 27.5384C29.4336 27.4446 29.6222 27.3509 29.7166 27.1634C29.7166 27.5384 29.7166 28.1946 29.7166 32.132C29.7166 32.4133 29.7166 32.6008 29.8109 32.7883H18.1134C18.2077 32.7883 18.2077 32.507 18.2077 32.3195Z" fill="url(#paint0_linear_377_25935)"/>
</g>
<defs>
<linearGradient id="paint0_linear_377_25935" x1="23.915" y1="26.9759" x2="23.915" y2="32.7883" gradientUnits="userSpaceOnUse">
<stop stop-color="#EEF1F4"/>
<stop offset="1" stop-color="#EEF1F4" stop-opacity="0"/>
</linearGradient>
</defs>
</svg>
