<svg width="1344" height="600" viewBox="0 0 1344 600" fill="none" xmlns="http://www.w3.org/2000/svg">
<mask id="mask0_471_102827" style="mask-type:alpha" maskUnits="userSpaceOnUse" x="0" y="0" width="1344" height="600">
<rect width="1344" height="600" rx="24" fill="#D9D9D9"/>
</mask>
<g mask="url(#mask0_471_102827)">
<path fill-rule="evenodd" clip-rule="evenodd" d="M1462.99 657.102L1462.99 -56.8439L1367.8 -56.844L1347.97 -56.844L1347.97 -56.8439L1100.07 -56.844L1100.07 7.80466C1115.11 11.4759 1126.94 23.3118 1130.62 38.3486L1317.43 38.3486C1321.1 23.3133 1332.93 11.4783 1347.97 7.80577L1347.97 -56.8439L1367.8 -56.844L1367.8 7.80541C1382.84 11.4775 1394.67 23.3128 1398.34 38.3486L1461.01 38.3486L1461.01 58.1804L1398.34 58.1804C1394.67 73.2164 1382.84 85.0519 1367.8 88.724L1367.8 212.869L1461.01 212.869L1461.01 232.701L1367.8 232.701L1367.8 356.846C1382.84 360.518 1394.67 372.353 1398.34 387.389L1461.01 387.389L1461.01 407.221L1398.34 407.221C1394.67 422.257 1382.84 434.092 1367.8 437.764L1367.8 561.909L1461.01 561.909L1461.01 581.741L1367.8 581.741L1367.8 657.102L1462.99 657.102ZM1347.97 657.102L1347.97 581.741L1100.07 581.741L1100.07 657.102L1347.97 657.102ZM1080.24 657.102L1080.24 581.741L832.339 581.741L832.339 657.102L1080.24 657.102ZM812.507 657.102L812.507 581.741L564.612 581.741L564.612 657.102L812.507 657.102ZM544.78 657.102L544.78 581.741L253.25 581.741L253.25 657.102L233.418 657.102L233.418 581.741L-125.537 581.741L-125.537 561.909L544.78 561.909L544.78 407.316L-16.5853 132.155L-125.538 385.44L-125.538 335.252L-34.4148 123.416L-125.538 78.7504L-125.538 56.6643L-26.5686 105.176L28.7978 -23.5363L-39.1541 -56.844L5.90442 -56.844L36.644 -41.7765L43.1255 -56.844L64.7144 -56.844L54.4736 -33.0371L220.159 48.1758L265.334 -56.844L286.923 -56.844L237.988 56.9152L404.612 138.589L488.679 -56.844L510.268 -56.844L422.442 147.328L544.78 207.294L544.78 -56.844L510.268 -56.844L518.334 -75.594L500.116 -83.4306L488.679 -56.844L286.923 -56.844L286.964 -56.9402L268.746 -64.7767L265.334 -56.844L64.7144 -56.844L72.7799 -75.5942L54.562 -83.4308L43.1255 -56.844L5.90442 -56.844L-53.3173 -85.8724L-62.0459 -68.0648L-39.1541 -56.844L-125.538 -56.844L-125.538 56.6643L-127.612 55.6476L-136.341 73.4553L-125.538 78.7504L-125.538 335.252L-153 399.094L-134.782 406.931L-125.538 385.44L-125.538 657.102L544.78 657.102ZM564.612 -56.844L564.612 38.3486L781.965 38.3486C785.637 23.3134 797.472 11.4784 812.507 7.80582L812.507 -56.844L564.612 -56.844ZM832.339 -56.844L832.339 7.80536C847.375 11.4774 859.211 23.3127 862.883 38.3486L1049.7 38.3486C1053.37 23.3143 1065.2 11.4799 1080.24 7.80651L1080.24 -56.844L832.339 -56.844ZM862.883 58.1804C859.211 73.2165 847.375 85.052 832.339 88.7241L832.339 212.869L1080.24 212.869L1080.24 88.7229C1065.2 85.0495 1053.37 73.2149 1049.7 58.1804L862.883 58.1804ZM812.507 88.7236C797.472 85.051 785.637 73.2159 781.965 58.1804L564.612 58.1804L564.612 212.869L812.507 212.869L812.507 88.7236ZM1347.97 88.7237C1332.93 85.0511 1321.1 73.2159 1317.43 58.1804L1130.62 58.1804C1126.94 73.2174 1115.11 85.0535 1100.07 88.7248L1100.07 212.869L1347.97 212.869L1347.97 88.7237ZM1317.43 407.221C1321.1 422.256 1332.93 434.091 1347.97 437.764L1347.97 561.909L1100.07 561.909L1100.07 437.765C1115.11 434.094 1126.94 422.258 1130.62 407.221L1317.43 407.221ZM1347.97 356.846C1332.93 360.519 1321.1 372.354 1317.43 387.389L1130.62 387.389C1126.94 372.352 1115.11 360.516 1100.07 356.845L1100.07 232.701L1347.97 232.701L1347.97 356.846ZM1080.24 232.701L1080.24 356.847C1065.2 360.52 1053.37 372.355 1049.7 387.389L862.883 387.389C859.211 372.353 847.375 360.518 832.339 356.846L832.339 232.701L1080.24 232.701ZM832.339 437.764C847.375 434.092 859.211 422.257 862.883 407.221L1049.7 407.221C1053.37 422.255 1065.2 434.09 1080.24 437.763L1080.24 561.909L832.339 561.909L832.339 437.764ZM781.965 407.221C785.637 422.256 797.472 434.091 812.507 437.764L812.507 561.909L564.612 561.909L564.612 407.221L781.965 407.221ZM812.507 356.846C797.472 360.519 785.637 372.354 781.965 387.389L564.612 387.389L564.612 232.7L812.507 232.701L812.507 356.846ZM544.78 229.38L414.596 165.568L359.229 294.28L544.78 385.23L544.78 229.38ZM396.766 156.829L230.142 75.1554L174.776 203.867L341.4 285.541L396.766 156.829ZM212.312 66.416L46.6274 -14.797L-8.73914 113.915L156.946 195.128L212.312 66.416ZM1068.34 397.305C1068.34 409.353 1078.11 419.12 1090.16 419.12C1102.21 419.12 1111.97 409.353 1111.97 397.305C1111.97 385.257 1102.21 375.49 1090.16 375.49C1078.11 375.49 1068.34 385.257 1068.34 397.305ZM1090.16 70.0797C1078.11 70.0797 1068.34 60.3128 1068.34 48.2647C1068.34 36.2166 1078.11 26.4497 1090.16 26.4497C1102.21 26.4497 1111.97 36.2166 1111.97 48.2647C1111.97 60.3128 1102.21 70.0797 1090.16 70.0797ZM1336.07 397.305C1336.07 409.353 1345.84 419.12 1357.88 419.12C1369.93 419.12 1379.7 409.353 1379.7 397.305C1379.7 385.257 1369.93 375.49 1357.88 375.49C1345.84 375.49 1336.07 385.257 1336.07 397.305ZM1357.88 70.0797C1345.84 70.0797 1336.07 60.3128 1336.07 48.2647C1336.07 36.2166 1345.84 26.4497 1357.88 26.4497C1369.93 26.4497 1379.7 36.2166 1379.7 48.2647C1379.7 60.3128 1369.93 70.0797 1357.88 70.0797ZM800.609 397.305C800.609 409.353 810.376 419.12 822.424 419.12C834.472 419.12 844.239 409.353 844.239 397.305C844.239 385.257 834.472 375.49 822.424 375.49C810.376 375.49 800.609 385.257 800.609 397.305ZM822.424 70.0797C810.376 70.0797 800.609 60.3128 800.609 48.2647C800.609 36.2166 810.376 26.4497 822.424 26.4497C834.472 26.4497 844.239 36.2166 844.239 48.2647C844.239 60.3128 834.472 70.0797 822.424 70.0797Z" fill="#EEF1F4"/>
<rect x="1068.34" y="555.959" width="31.7309" height="59.4955" transform="rotate(-180 1068.34 555.959)" fill="white"/>
<rect x="1068.34" y="206.919" width="31.7309" height="59.4955" transform="rotate(-180 1068.34 206.919)" fill="white"/>
<rect x="800.609" y="206.919" width="31.7309" height="59.4955" transform="rotate(-180 800.609 206.919)" fill="white"/>
<rect x="800.609" y="555.959" width="31.7309" height="59.4955" transform="rotate(-180 800.609 555.959)" fill="white"/>
<rect x="800.609" y="647.186" width="31.7309" height="59.4955" transform="rotate(-180 800.609 647.186)" fill="white"/>
<rect x="1336.07" y="555.959" width="31.7309" height="59.4955" transform="rotate(-180 1336.07 555.959)" fill="white"/>
<rect x="1336.07" y="647.186" width="31.7309" height="59.4955" transform="rotate(-180 1336.07 647.186)" fill="white"/>
<rect x="1336.07" y="206.919" width="31.7309" height="59.4955" transform="rotate(-180 1336.07 206.919)" fill="white"/>
<rect x="1042.56" y="472.666" width="31.7309" height="59.4955" transform="rotate(-180 1042.56 472.666)" fill="white"/>
<rect x="1042.56" y="123.625" width="31.7309" height="59.4955" transform="rotate(-180 1042.56 123.625)" fill="white"/>
<rect x="774.828" y="123.625" width="31.7309" height="59.4955" transform="rotate(-180 774.828 123.625)" fill="white"/>
<rect x="774.828" y="472.666" width="31.7309" height="59.4955" transform="rotate(-180 774.828 472.666)" fill="white"/>
<rect x="1310.29" y="472.666" width="31.7309" height="59.4955" transform="rotate(-180 1310.29 472.666)" fill="white"/>
<rect x="1310.29" y="123.625" width="31.7309" height="59.4955" transform="rotate(-180 1310.29 123.625)" fill="white"/>
<rect x="1020.74" y="555.959" width="31.7309" height="59.4955" transform="rotate(-180 1020.74 555.959)" fill="white"/>
<rect x="1020.74" y="647.186" width="31.7309" height="59.4955" transform="rotate(-180 1020.74 647.186)" fill="white"/>
<rect x="1020.74" y="206.919" width="31.7309" height="59.4955" transform="rotate(-180 1020.74 206.919)" fill="white"/>
<rect x="753.012" y="206.919" width="31.7309" height="59.4955" transform="rotate(-180 753.012 206.919)" fill="white"/>
<rect x="753.012" y="555.959" width="31.7309" height="59.4955" transform="rotate(-180 753.012 555.959)" fill="white"/>
<rect x="753.012" y="647.186" width="31.7309" height="59.4955" transform="rotate(-180 753.012 647.186)" fill="white"/>
<rect x="1288.47" y="555.959" width="31.7309" height="59.4955" transform="rotate(-180 1288.47 555.959)" fill="white"/>
<rect x="1288.47" y="206.919" width="31.7309" height="59.4955" transform="rotate(-180 1288.47 206.919)" fill="white"/>
<rect x="994.961" y="472.666" width="31.7309" height="59.4955" transform="rotate(-180 994.961 472.666)" fill="white"/>
<rect x="994.961" y="123.625" width="31.7309" height="59.4955" transform="rotate(-180 994.961 123.625)" fill="white"/>
<rect x="727.231" y="123.625" width="31.7309" height="59.4955" transform="rotate(-180 727.231 123.625)" fill="white"/>
<rect x="727.231" y="472.666" width="31.7309" height="59.4955" transform="rotate(-180 727.231 472.666)" fill="white"/>
<rect x="1262.69" y="472.666" width="31.7309" height="59.4955" transform="rotate(-180 1262.69 472.666)" fill="white"/>
<rect x="1262.69" y="123.625" width="31.7309" height="59.4955" transform="rotate(-180 1262.69 123.625)" fill="white"/>
<rect x="973.146" y="555.959" width="31.7309" height="59.4955" transform="rotate(-180 973.146 555.959)" fill="white"/>
<rect x="973.146" y="647.186" width="31.7309" height="59.4955" transform="rotate(-180 973.146 647.186)" fill="white"/>
<rect x="973.146" y="206.919" width="31.7309" height="59.4955" transform="rotate(-180 973.146 206.919)" fill="white"/>
<rect x="705.415" y="206.919" width="31.7309" height="59.4955" transform="rotate(-180 705.415 206.919)" fill="white"/>
<rect x="705.415" y="555.959" width="31.7309" height="59.4955" transform="rotate(-180 705.415 555.959)" fill="white"/>
<rect x="705.415" y="647.186" width="31.7309" height="59.4955" transform="rotate(-180 705.415 647.186)" fill="white"/>
<rect x="1240.88" y="555.959" width="31.7309" height="59.4955" transform="rotate(-180 1240.88 555.959)" fill="white"/>
<rect x="1240.88" y="206.919" width="31.7309" height="59.4955" transform="rotate(-180 1240.88 206.919)" fill="white"/>
<rect x="947.365" y="472.666" width="31.7309" height="59.4955" transform="rotate(-180 947.365 472.666)" fill="white"/>
<rect x="947.365" y="123.625" width="31.7309" height="59.4955" transform="rotate(-180 947.365 123.625)" fill="white"/>
<rect x="679.634" y="123.625" width="31.7309" height="59.4955" transform="rotate(-180 679.634 123.625)" fill="white"/>
<rect x="679.634" y="472.666" width="31.7309" height="59.4955" transform="rotate(-180 679.634 472.666)" fill="white"/>
<rect x="1215.09" y="472.666" width="31.7309" height="59.4955" transform="rotate(-180 1215.09 472.666)" fill="white"/>
<rect x="1215.09" y="123.625" width="31.7309" height="59.4955" transform="rotate(-180 1215.09 123.625)" fill="white"/>
<rect x="925.549" y="555.959" width="31.7309" height="59.4955" transform="rotate(-180 925.549 555.959)" fill="white"/>
<rect x="925.549" y="647.186" width="31.7309" height="59.4955" transform="rotate(-180 925.549 647.186)" fill="white"/>
<rect x="925.549" y="206.919" width="31.7309" height="59.4955" transform="rotate(-180 925.549 206.919)" fill="white"/>
<rect x="657.819" y="206.919" width="31.7309" height="59.4955" transform="rotate(-180 657.819 206.919)" fill="white"/>
<rect x="657.819" y="555.959" width="31.7309" height="59.4955" transform="rotate(-180 657.819 555.959)" fill="white"/>
<rect x="1193.28" y="555.959" width="31.7309" height="59.4955" transform="rotate(-180 1193.28 555.959)" fill="white"/>
<rect x="1193.28" y="647.186" width="31.7309" height="59.4955" transform="rotate(-180 1193.28 647.186)" fill="white"/>
<rect x="1193.28" y="206.919" width="31.7309" height="59.4955" transform="rotate(-180 1193.28 206.919)" fill="white"/>
<rect x="877.952" y="555.959" width="31.7309" height="59.4955" transform="rotate(-180 877.952 555.959)" fill="white"/>
<rect x="877.952" y="206.919" width="31.7309" height="59.4955" transform="rotate(-180 877.952 206.919)" fill="white"/>
<rect x="610.225" y="206.919" width="31.7309" height="59.4955" transform="rotate(-180 610.225 206.919)" fill="white"/>
<rect x="610.225" y="555.959" width="31.7309" height="59.4955" transform="rotate(-180 610.225 555.959)" fill="white"/>
<rect x="610.225" y="647.186" width="31.7309" height="59.4955" transform="rotate(-180 610.225 647.186)" fill="white"/>
<rect x="1145.68" y="555.959" width="31.7309" height="59.4955" transform="rotate(-180 1145.68 555.959)" fill="white"/>
<rect x="1145.68" y="647.186" width="31.7309" height="59.4955" transform="rotate(-180 1145.68 647.186)" fill="white"/>
<rect x="1145.68" y="206.919" width="31.7309" height="59.4955" transform="rotate(-180 1145.68 206.919)" fill="white"/>
<rect x="899.768" y="472.666" width="31.7309" height="59.4955" transform="rotate(-180 899.768 472.666)" fill="white"/>
<rect x="899.768" y="123.625" width="31.7309" height="59.4955" transform="rotate(-180 899.768 123.625)" fill="white"/>
<rect x="632.038" y="123.625" width="31.7309" height="59.4955" transform="rotate(-180 632.038 123.625)" fill="white"/>
<rect x="632.038" y="472.666" width="31.7309" height="59.4955" transform="rotate(-180 632.038 472.666)" fill="white"/>
<rect x="1167.5" y="472.666" width="31.7309" height="59.4955" transform="rotate(-180 1167.5 472.666)" fill="white"/>
<rect x="1167.5" y="123.625" width="31.7309" height="59.4955" transform="rotate(-180 1167.5 123.625)" fill="white"/>
<rect x="1336.07" y="240.633" width="59.4955" height="174.52" transform="rotate(90 1336.07 240.633)" fill="white"/>
<rect x="1068.34" y="240.633" width="59.4955" height="31.7309" transform="rotate(90 1068.34 240.633)" fill="white"/>
<rect x="800.609" y="240.633" width="59.4955" height="31.7309" transform="rotate(90 800.609 240.633)" fill="white"/>
<rect x="705.415" y="319.961" width="59.4955" height="31.7309" transform="rotate(90 705.415 319.961)" fill="white"/>
<rect x="1020.74" y="319.961" width="59.4955" height="31.7309" transform="rotate(90 1020.74 319.961)" fill="white"/>
<rect x="1310.29" y="-33.0459" width="59.4955" height="31.7309" transform="rotate(90 1310.29 -33.0459)" fill="white"/>
<rect x="1042.56" y="-33.0459" width="59.4955" height="31.7309" transform="rotate(90 1042.56 -33.0459)" fill="white"/>
<rect x="774.828" y="-33.0459" width="59.4955" height="31.7309" transform="rotate(90 774.828 -33.0459)" fill="white"/>
<rect x="973.146" y="319.961" width="59.4955" height="31.7309" transform="rotate(90 973.146 319.961)" fill="white"/>
<rect x="1167.5" y="-33.0459" width="59.4955" height="31.7309" transform="rotate(90 1167.5 -33.0459)" fill="white"/>
<rect x="899.768" y="-33.0459" width="59.4955" height="31.7309" transform="rotate(90 899.768 -33.0459)" fill="white"/>
<rect x="632.038" y="-33.0459" width="59.4955" height="31.7309" transform="rotate(90 632.038 -33.0459)" fill="white"/>
<rect x="1215.09" y="-33.0459" width="59.4955" height="31.7309" transform="rotate(90 1215.09 -33.0459)" fill="white"/>
<rect x="947.365" y="-33.0459" width="59.4955" height="31.7309" transform="rotate(90 947.365 -33.0459)" fill="white"/>
<rect x="679.634" y="-33.0459" width="59.4955" height="31.7309" transform="rotate(90 679.634 -33.0459)" fill="white"/>
<rect x="727.231" y="-33.0459" width="59.4955" height="31.7309" transform="rotate(90 727.231 -33.0459)" fill="white"/>
<rect x="1020.74" y="240.633" width="59.4955" height="31.7309" transform="rotate(90 1020.74 240.633)" fill="white"/>
<rect x="753.012" y="240.633" width="59.4955" height="31.7309" transform="rotate(90 753.012 240.633)" fill="white"/>
<rect x="657.819" y="319.961" width="59.4955" height="31.7309" transform="rotate(90 657.819 319.961)" fill="white"/>
<rect x="973.146" y="240.633" width="59.4955" height="31.7309" transform="rotate(90 973.146 240.633)" fill="white"/>
<rect x="705.415" y="240.633" width="59.4955" height="31.7309" transform="rotate(90 705.415 240.633)" fill="white"/>
<rect x="610.225" y="319.961" width="59.4955" height="31.7309" transform="rotate(90 610.225 319.961)" fill="white"/>
<rect x="925.549" y="240.633" width="59.4955" height="79.3273" transform="rotate(90 925.549 240.633)" fill="white"/>
<rect x="1145.68" y="240.633" width="59.4955" height="31.7309" transform="rotate(90 1145.68 240.633)" fill="white"/>
<rect x="1304.34" y="343.759" width="35.6973" height="166.587" transform="rotate(90 1304.34 343.759)" fill="white"/>
<rect x="394.695" y="242.616" width="43.63" height="49.5796" transform="rotate(26.5582 394.695 242.616)" fill="white"/>
<rect x="203.28" y="155.356" width="30.7726" height="49.5796" transform="rotate(23.7963 203.28 155.356)" fill="white"/>
<rect x="330.204" y="216.835" width="30.7726" height="49.5796" transform="rotate(23.7963 330.204 216.835)" fill="white"/>
<rect x="420.035" y="181.138" width="43.63" height="49.5796" transform="rotate(26.5582 420.035 181.138)" fill="white"/>
<rect x="444.275" y="268.398" width="43.63" height="49.5796" transform="rotate(26.5582 444.275 268.398)" fill="white"/>
<rect x="469.616" y="206.919" width="43.63" height="49.5796" transform="rotate(26.5582 469.616 206.919)" fill="white"/>
<rect x="237.651" y="93.4705" width="96.8069" height="40.2491" transform="rotate(24.9898 237.651 93.4705)" fill="white"/>
<rect x="538.828" y="141.474" width="35.6973" height="29.7477" transform="rotate(90 538.828 141.474)" fill="white"/>
<rect x="538.828" y="97.844" width="35.6973" height="55.5291" transform="rotate(90 538.828 97.844)" fill="white"/>
<rect x="538.828" y="68.0962" width="21.815" height="55.5291" transform="rotate(90 538.828 68.0962)" fill="white"/>
<rect x="538.828" y="38.3489" width="21.815" height="29.7477" transform="rotate(90 538.828 38.3489)" fill="white"/>
<rect x="538.828" y="8.60107" width="21.815" height="29.7477" transform="rotate(90 538.828 8.60107)" fill="white"/>
<rect x="493.856" y="294.179" width="21.9509" height="49.5796" transform="rotate(26.5582 493.856 294.179)" fill="white"/>
<rect x="459.501" y="-10.1206" width="37.6805" height="53.5459" transform="rotate(113.023 459.501 -10.1206)" fill="white"/>
<rect x="437.685" y="41.4421" width="37.6805" height="53.5459" transform="rotate(113.023 437.685 41.4421)" fill="white"/>
<rect x="334.561" y="-8.13721" width="37.6805" height="53.5459" transform="rotate(113.023 334.561 -8.13721)" fill="white"/>
<rect x="415.872" y="91.0217" width="37.6805" height="53.5459" transform="rotate(113.023 415.872 91.0217)" fill="white"/>
<rect x="312.745" y="41.4421" width="37.6805" height="53.5459" transform="rotate(113.023 312.745 41.4421)" fill="white"/>
<rect x="532.879" y="587.69" width="59.4955" height="105.109" transform="rotate(90 532.879 587.69)" fill="white"/>
<rect x="45.0151" y="587.69" width="59.4955" height="33.7141" transform="rotate(90 45.0151 587.69)" fill="white"/>
<path d="M532.879 548.027L532.88 416.145L-11.5042 153.373L-139.419 437.96L-139.419 548.027L532.879 548.027Z" fill="#EEF1F4"/>
<g filter="url(#filter0_d_471_102827)">
<path d="M44 471C44 464.373 49.3726 459 56 459H80C86.6274 459 92 464.373 92 471V507H44V471Z" fill="white"/>
<path d="M65.6667 482.75H69.8333" stroke="#17181B" stroke-width="1.5" stroke-linecap="round" stroke-linejoin="round"/>
<path d="M67.75 484.833V480.667" stroke="#17181B" stroke-width="1.5" stroke-linecap="round" stroke-linejoin="round"/>
<path d="M67.5833 490.5C71.9556 490.5 75.5 486.956 75.5 482.583C75.5 478.211 71.9556 474.667 67.5833 474.667C63.2111 474.667 59.6667 478.211 59.6667 482.583C59.6667 486.956 63.2111 490.5 67.5833 490.5Z" stroke="#17181B" stroke-width="1.5" stroke-linecap="round" stroke-linejoin="round"/>
<path d="M76.3333 491.333L74.6667 489.667" stroke="#17181B" stroke-width="1.5" stroke-linecap="round" stroke-linejoin="round"/>
</g>
<g filter="url(#filter1_d_471_102827)">
<path d="M44 507H92V543C92 549.627 86.6274 555 80 555H56C49.3726 555 44 549.627 44 543V507Z" fill="white"/>
<path d="M65.5 530.75H69.6667" stroke="#17181B" stroke-width="1.5" stroke-linecap="round" stroke-linejoin="round"/>
<path d="M67.5833 538.5C71.9556 538.5 75.5 534.956 75.5 530.583C75.5 526.211 71.9556 522.667 67.5833 522.667C63.2111 522.667 59.6667 526.211 59.6667 530.583C59.6667 534.956 63.2111 538.5 67.5833 538.5Z" stroke="#17181B" stroke-width="1.5" stroke-linecap="round" stroke-linejoin="round"/>
<path d="M76.3333 539.333L74.6667 537.667" stroke="#17181B" stroke-width="1.5" stroke-linecap="round" stroke-linejoin="round"/>
</g>
<g filter="url(#filter2_d_471_102827)">
<rect x="1181" y="506" width="119" height="50" rx="12" fill="white" shape-rendering="crispEdges"/>
<path d="M1208.82 527.96H1205.26V529.616H1207.11V536H1208.82V527.96ZM1211.67 530.024C1210.58 530.024 1209.74 530.756 1209.74 531.788C1209.74 532.592 1210.34 533.228 1211.21 533.408L1213.49 533.9C1213.62 533.936 1213.69 534.044 1213.69 534.164C1213.69 534.32 1213.58 534.428 1213.43 534.428H1209.99V536H1213.45C1214.54 536 1215.39 535.256 1215.39 534.2C1215.39 533.36 1214.82 532.736 1213.92 532.544L1211.67 532.088C1211.55 532.064 1211.47 531.956 1211.47 531.836C1211.47 531.692 1211.57 531.584 1211.72 531.584H1214.96V530.024H1211.67ZM1220.54 530.024H1218.08V527.96H1216.46V530.024H1215.62V531.584H1216.46V534.248C1216.46 535.328 1217.17 536 1218.26 536H1220.54V534.428H1218.56C1218.27 534.428 1218.08 534.26 1218.08 533.972V531.584H1220.54V530.024ZM1228.87 528.932V527.36H1226.58C1225.53 527.36 1224.79 528.068 1224.79 529.112V530.024H1223.95V531.584H1224.79V536H1226.41V531.584H1228.87V530.024H1226.41V529.376C1226.41 529.1 1226.61 528.932 1226.89 528.932H1228.87ZM1229.63 534.272C1229.63 535.352 1230.28 536 1231.42 536H1232.54V534.428H1231.73C1231.43 534.428 1231.25 534.26 1231.25 533.984V527.36H1229.63V534.272ZM1236.07 536.18C1238.01 536.18 1239.28 534.8 1239.28 533.012C1239.28 531.236 1238.02 529.844 1236.07 529.844C1234.11 529.844 1232.85 531.236 1232.85 533.012C1232.85 534.8 1234.12 536.18 1236.07 536.18ZM1236.07 534.608C1235.11 534.608 1234.47 533.9 1234.47 533.012C1234.47 532.124 1235.11 531.404 1236.07 531.404C1237.03 531.404 1237.66 532.124 1237.66 533.012C1237.66 533.9 1237.01 534.608 1236.07 534.608ZM1243.06 536.18C1245.01 536.18 1246.28 534.8 1246.28 533.012C1246.28 531.236 1245.02 529.844 1243.06 529.844C1241.11 529.844 1239.85 531.236 1239.85 533.012C1239.85 534.8 1241.12 536.18 1243.06 536.18ZM1243.06 534.608C1242.1 534.608 1241.47 533.9 1241.47 533.012C1241.47 532.124 1242.1 531.404 1243.06 531.404C1244.02 531.404 1244.66 532.124 1244.66 533.012C1244.66 533.9 1244.01 534.608 1243.06 534.608ZM1250.13 530.024C1249.44 530.024 1248.91 530.372 1248.69 530.96H1248.63V530.024H1247.1V536H1248.72V533.024C1248.72 532.196 1249.27 531.644 1250.05 531.644H1251.39V530.024H1250.13Z" fill="#17181B"/>
<path d="M1273.28 529L1268.93 533.347C1268.42 533.86 1267.58 533.86 1267.07 533.347L1262.72 529" stroke="#17181B" stroke-width="1.5" stroke-miterlimit="10" stroke-linecap="round" stroke-linejoin="round"/>
<rect x="1181.5" y="506.5" width="118" height="49" rx="11.5" stroke="#F9FAFB" shape-rendering="crispEdges"/>
</g>
<g filter="url(#filter3_d_471_102827)">
<rect x="754" y="283" width="92" height="40" rx="12" fill="white" shape-rendering="crispEdges"/>
<path d="M768.269 294.079C768.115 294.103 767.967 294.667 767.669 294.961C767.451 295.174 767.179 295.16 767.034 295.423C766.98 295.521 766.997 295.688 766.935 295.849C766.813 296.17 766.385 296.199 766.385 296.549C766.384 296.927 766.742 296.999 767.053 297.268C767.295 297.484 767.319 297.632 767.613 297.737C767.863 297.822 768.236 297.545 768.572 297.644C768.848 297.726 769.111 297.785 769.174 298.067C769.229 298.326 769.17 298.728 768.836 298.682C768.723 298.67 768.235 298.506 767.634 298.569C766.91 298.651 766.083 298.886 766.002 299.689C765.958 300.138 766.516 300.667 767.055 300.559C767.428 300.486 767.252 300.049 767.455 299.837C767.721 299.565 769.229 300.786 770.63 300.786C771.22 300.786 771.659 300.638 772.095 300.184C772.136 300.15 772.186 300.075 772.249 300.071C772.308 300.075 772.412 300.133 772.446 300.158C773.575 301.06 774.428 302.87 778.577 302.891C779.16 302.894 779.825 303.171 780.368 303.664C780.852 304.109 781.135 304.801 781.41 305.503C781.825 306.557 782.57 307.583 783.698 308.724C783.759 308.785 784.688 309.503 784.762 309.556C784.774 309.564 784.842 309.726 784.819 309.817C784.791 310.501 784.691 312.49 786.183 312.58C786.547 312.598 786.452 312.343 786.452 312.168C786.451 311.821 786.387 311.477 786.571 311.123C786.822 310.635 786.038 310.41 786.061 309.355C786.077 308.569 785.413 308.703 785.076 308.104C784.882 307.756 784.709 307.572 784.721 307.148C784.797 304.758 784.21 303.188 783.917 302.803C783.689 302.512 783.5 302.396 783.709 302.261C784.954 301.444 785.236 300.683 785.236 300.683C785.898 299.136 786.493 297.723 787.314 297.101C787.479 296.973 787.903 296.658 788.163 296.534C788.929 296.175 789.332 295.958 789.555 295.743C789.907 295.401 790.185 294.69 789.847 294.259C789.428 293.727 788.702 294.149 788.382 294.338C786.094 295.688 785.756 298.07 784.964 299.438C784.332 300.531 783.303 301.334 782.384 301.4C781.695 301.45 780.952 301.312 780.212 300.989C778.413 300.205 777.429 299.192 777.197 299.013C776.713 298.642 772.961 294.98 769.921 294.83C769.921 294.83 769.544 294.079 769.449 294.067C769.226 294.039 768.999 294.516 768.836 294.571C768.682 294.622 768.424 294.054 768.269 294.079Z" fill="#17181B"/>
<path d="M804.024 304.52V299.96H801.564L798.264 304.844V306.068H802.308V308H804.024V306.068H805.308V304.52H804.024ZM802.308 301.544V304.52H800.376L802.308 301.544ZM805.992 304.904C805.992 306.836 807.372 308.18 809.22 308.18C811.068 308.18 812.52 306.86 812.52 304.904V303.044C812.52 301.088 811.08 299.78 809.244 299.78C807.396 299.78 805.992 301.1 805.992 303.056V304.904ZM807.696 303.056C807.696 302.06 808.356 301.472 809.244 301.472C810.144 301.472 810.804 302.072 810.804 303.044V304.904C810.804 305.888 810.12 306.476 809.22 306.476C808.344 306.476 807.696 305.9 807.696 304.904V303.056ZM813.469 304.904C813.469 306.836 814.849 308.18 816.697 308.18C818.545 308.18 819.997 306.86 819.997 304.904V303.044C819.997 301.088 818.557 299.78 816.721 299.78C814.873 299.78 813.469 301.1 813.469 303.056V304.904ZM815.173 303.056C815.173 302.06 815.833 301.472 816.721 301.472C817.621 301.472 818.281 302.072 818.281 303.044V304.904C818.281 305.888 817.597 306.476 816.697 306.476C815.821 306.476 815.173 305.9 815.173 304.904V303.056ZM830.932 301.856C830.104 301.856 829.444 302.216 829 302.828H828.952C828.628 302.216 828.028 301.856 827.26 301.856C826.516 301.856 825.928 302.216 825.556 302.78H825.508V302.024H823.96V308H825.58V304.892C825.58 304.016 826.048 303.452 826.732 303.44C827.308 303.44 827.764 303.8 827.764 304.652V308H829.384V304.82C829.384 303.824 829.984 303.428 830.536 303.428C831.112 303.428 831.58 303.788 831.58 304.64V308H833.2V304.388C833.2 302.66 832.144 301.856 830.932 301.856Z" fill="#17181B"/>
</g>
<g filter="url(#filter4_d_471_102827)">
<rect x="518" y="170" width="91" height="40" rx="12" fill="white" shape-rendering="crispEdges"/>
<path d="M546.866 183.103C547.738 182.677 548.17 182.733 548.18 183.164C548.191 183.725 548.108 184.471 548.048 185.011C547.725 187.943 547.184 190.34 547.143 193.351C548.567 189.684 549.761 187.136 551.299 183.997C551.787 182.997 552.099 183.184 552.5 183.006C554.061 182.314 554.119 182.738 553.916 183.584C553.158 186.718 551.219 196.584 550.923 198.103C550.838 198.543 550.357 198.356 550.233 198.185C549.677 197.42 549.05 197.408 549.119 196.899C549.468 194.366 550.723 188.011 551.051 186.514C549.383 189.915 547.653 194.168 546.764 196.579C546.576 197.091 546.233 197.054 546.02 196.679C545.719 196.153 545.136 195.884 545.04 195.262C544.735 193.285 545.388 189.516 545.479 187.132C544.571 189.737 543.046 194.793 542.378 197.078C542.103 198.023 541.184 197.869 541.429 196.948C542.444 193.114 544.631 186.333 545.576 183.895C545.799 183.32 546.382 183.34 546.866 183.103Z" fill="#17181B"/>
<path d="M541.33 182.632C541.035 182.561 540.181 183.02 539.656 183.11C539.489 183.139 539.33 183.315 539.274 183.44C538.433 185.361 537.68 187.193 537.027 188.861C536.192 189.003 535.216 189.19 534.123 189.434C534.906 187.437 535.696 185.467 536.467 183.573C536.847 182.64 535.847 182.552 535.46 183.496C534.956 184.723 534.013 187.023 532.969 189.704C532.201 189.891 531.388 190.105 530.537 190.35C529.919 190.527 529.894 190.691 530.162 191.06C530.309 191.265 530.613 191.244 530.752 191.391C531.113 191.77 531.332 192.223 531.977 192.292C531.401 193.823 530.826 195.402 530.305 196.922C529.978 197.876 530.909 198.071 531.268 197.062C531.845 195.434 532.453 193.786 533.079 192.144C533.6 192.023 534.861 191.753 536.025 191.502C535.101 194.021 534.493 195.935 534.263 196.866C534.22 197.045 534.292 197.145 534.33 197.218C534.642 197.669 534.939 197.688 535.34 198.246C535.448 198.398 535.812 198.48 535.936 198.106C536.793 195.533 537.674 193.119 538.495 190.954C538.836 190.88 539.45 190.733 539.826 190.175C540.495 189.185 540.686 189.385 540.847 189.084C541.049 188.707 540.915 188.352 540.202 188.439C540.202 188.439 539.933 188.458 539.435 188.515C540.225 186.49 540.917 184.773 541.415 183.465C541.585 183.022 541.607 182.698 541.33 182.632Z" fill="#17181B"/>
<path d="M540.164 195.763C540.348 196.225 540.923 196.085 540.704 195.527C540.481 194.958 539.927 193.245 539.782 192.694C539.584 191.95 540.441 192.153 540.007 192.639C539.635 193.057 539.387 193.225 538.699 194.02C538.035 194.787 538.215 195.782 538.926 196.002C539.728 196.25 540.435 195.371 540.873 194.726C541.297 194.102 540.886 193.735 540.458 194.105C540.183 194.342 539.865 194.707 539.544 194.903C539.282 195.061 539.077 194.891 539.426 194.414C539.83 193.861 540.284 193.398 540.621 192.875C541.308 191.811 539.949 191.197 539.363 191.888C539.05 192.257 539.129 192.619 539.214 192.93C539.352 193.427 539.863 195.016 540.164 195.763Z" fill="#17181B"/>
<path d="M562.264 188.616H566.02L562.948 195H564.808L567.964 188.232V186.96H562.264V188.616ZM568.48 191.904C568.48 193.836 569.86 195.18 571.708 195.18C573.556 195.18 575.008 193.86 575.008 191.904V190.044C575.008 188.088 573.568 186.78 571.732 186.78C569.884 186.78 568.48 188.1 568.48 190.056V191.904ZM570.184 190.056C570.184 189.06 570.844 188.472 571.732 188.472C572.632 188.472 573.292 189.072 573.292 190.044V191.904C573.292 192.888 572.608 193.476 571.708 193.476C570.832 193.476 570.184 192.9 570.184 191.904V190.056ZM575.957 191.904C575.957 193.836 577.337 195.18 579.185 195.18C581.033 195.18 582.485 193.86 582.485 191.904V190.044C582.485 188.088 581.045 186.78 579.209 186.78C577.361 186.78 575.957 188.1 575.957 190.056V191.904ZM577.661 190.056C577.661 189.06 578.321 188.472 579.209 188.472C580.109 188.472 580.769 189.072 580.769 190.044V191.904C580.769 192.888 580.085 193.476 579.185 193.476C578.309 193.476 577.661 192.9 577.661 191.904V190.056ZM593.421 188.856C592.592 188.856 591.933 189.216 591.489 189.828H591.441C591.117 189.216 590.517 188.856 589.749 188.856C589.005 188.856 588.417 189.216 588.045 189.78H587.997V189.024H586.449V195H588.069V191.892C588.069 191.016 588.537 190.452 589.221 190.44C589.797 190.44 590.253 190.8 590.253 191.652V195H591.872V191.82C591.872 190.824 592.473 190.428 593.025 190.428C593.601 190.428 594.069 190.788 594.069 191.64V195H595.689V191.388C595.689 189.66 594.633 188.856 593.421 188.856Z" fill="#17181B"/>
</g>
<g filter="url(#filter5_d_471_102827)">
<rect x="592" y="259" width="91" height="40" rx="12" fill="white" shape-rendering="crispEdges"/>
<path d="M606.647 282.997C605.932 282.97 605.347 282.787 604.89 282.447C604.802 282.382 604.594 282.188 604.525 282.106C604.339 281.887 604.213 281.675 604.129 281.439C603.87 280.714 604.003 279.763 604.51 278.718C604.944 277.824 605.613 276.937 606.781 275.709C606.953 275.529 607.465 275 607.469 275C607.47 275 607.442 275.045 607.407 275.1C607.103 275.576 606.843 276.136 606.702 276.622C606.474 277.4 606.502 278.068 606.782 278.586C606.976 278.943 607.307 279.252 607.68 279.423C608.332 279.722 609.288 279.747 610.454 279.495C610.535 279.478 614.515 278.49 619.3 277.299C624.084 276.108 627.999 275.135 628 275.136C628.001 275.137 616.884 279.586 611.113 281.895C610.199 282.26 609.955 282.352 609.525 282.493C608.427 282.854 607.443 283.026 606.647 282.997Z" fill="#17181B"/>
<path d="M642.024 280.52V275.96H639.564L636.264 280.844V282.068H640.308V284H642.024V282.068H643.308V280.52H642.024ZM640.308 277.544V280.52H638.376L640.308 277.544ZM645.672 279.092L645.816 277.616H649.296V275.96H644.448L644.028 280.652H647.244C647.808 280.652 648.108 281.06 648.096 281.492C648.096 281.924 647.796 282.344 647.244 282.344H644.136V284H647.352C648.804 284 649.824 282.908 649.824 281.48C649.824 280.124 648.84 279.092 647.352 279.092H645.672ZM650.508 280.904C650.508 282.836 651.888 284.18 653.736 284.18C655.584 284.18 657.036 282.86 657.036 280.904V279.044C657.036 277.088 655.596 275.78 653.76 275.78C651.912 275.78 650.508 277.1 650.508 279.056V280.904ZM652.212 279.056C652.212 278.06 652.872 277.472 653.76 277.472C654.66 277.472 655.32 278.072 655.32 279.044V280.904C655.32 281.888 654.636 282.476 653.736 282.476C652.86 282.476 652.212 281.9 652.212 280.904V279.056ZM667.971 277.856C667.143 277.856 666.483 278.216 666.039 278.828H665.991C665.667 278.216 665.067 277.856 664.299 277.856C663.555 277.856 662.967 278.216 662.595 278.78H662.547V278.024H660.999V284H662.619V280.892C662.619 280.016 663.087 279.452 663.771 279.44C664.347 279.44 664.803 279.8 664.803 280.652V284H666.423V280.82C666.423 279.824 667.023 279.428 667.575 279.428C668.151 279.428 668.619 279.788 668.619 280.64V284H670.239V280.388C670.239 278.66 669.183 277.856 667.971 277.856Z" fill="#17181B"/>
</g>
<g filter="url(#filter6_d_471_102827)">
<rect x="665" y="107" width="92" height="40" rx="12" fill="white" shape-rendering="crispEdges"/>
<path d="M690.037 117.526C690.028 117.477 690.021 117.427 690.017 117.376C689.968 116.667 690.501 116.053 691.21 116.003C691.919 115.954 692.533 116.488 692.582 117.196C692.632 117.904 692.099 118.519 691.39 118.569C691.345 118.572 691.301 118.573 691.257 118.571C691.228 118.578 691.211 118.582 691.187 118.604C691.114 118.717 691.372 118.696 691.196 119.193C691.196 119.193 691.195 119.247 691.176 119.301C691.162 119.492 691.089 120.057 691.078 120.358C691.115 120.402 691.126 120.423 691.122 120.528C691.105 120.671 691.072 121.021 691.02 121.246C690.975 121.438 690.897 121.475 690.833 121.522C690.744 121.92 690.721 122.251 690.492 122.734C690.472 123.101 690.446 123.201 690.369 123.38C690.36 123.92 690.398 124.001 690.033 124.856C689.939 125.256 690.028 125.533 690.128 125.949C690.229 126.376 690.511 126.554 690.553 126.992C690.652 128.022 690.627 128.724 690.406 129.531L690.599 129.988C690.838 130.097 691.432 130.398 691.103 130.873C691.567 131.117 692.268 131.376 692.846 131.871C693.078 132.064 693.324 132.276 693.544 132.523C693.964 132.589 693.919 132.622 694.23 132.813C695.145 133.374 696.611 134.487 697.462 135.274C697.608 135.36 697.668 135.421 697.786 135.484C697.804 135.519 697.809 135.527 697.805 135.537C697.765 135.64 697.766 135.643 697.729 135.724C697.775 135.775 697.861 135.822 697.912 135.867C697.96 135.882 697.96 135.858 698.042 135.839C698.149 135.939 698.281 136.019 698.329 136.014C698.474 135.978 698.448 136.008 698.571 135.871C698.614 135.826 698.688 135.871 698.688 135.871C698.734 135.817 698.833 135.71 698.965 135.633C699.069 135.57 699.27 135.564 699.27 135.564C699.337 135.565 699.325 135.633 699.318 135.656C699.243 135.695 699.082 135.738 698.992 135.804C698.796 136.008 698.642 136.281 698.642 136.281C699.037 136.227 699.28 136.326 699.61 136.287C699.79 136.277 699.923 136.289 700.111 136.152C700.111 136.152 700.292 136.023 700.455 135.954C700.613 135.885 700.763 135.922 700.902 136.023C700.999 136.134 701.059 136.135 700.91 136.291C700.856 136.352 700.778 136.419 700.679 136.517C700.504 136.69 700.269 136.92 700.026 137.11C699.78 137.302 699.5 137.475 699.325 137.554C698.885 137.87 698.989 137.787 698.643 138.101C698.599 138.14 698.483 138.21 698.427 138.248C698.29 138.337 698.248 138.263 698.159 138.098C698.159 138.098 698.118 138.037 698.051 137.906C697.978 137.763 697.922 137.6 697.945 137.602C697.863 137.592 697.494 137.159 697.492 137.066C697.414 137.048 697.081 136.726 697.07 136.664L696.775 136.428C696.438 136.498 696.36 136.288 695.469 135.656C695.367 135.654 695.21 135.599 694.984 135.432C694.582 135.11 693.617 134.381 693.453 134.298C693.277 134.208 693.067 134.124 692.939 134.018C692.746 133.983 692.641 133.963 692.544 133.935C692.446 133.909 692.356 133.874 692.106 133.84C691.7 133.79 691.278 133.621 690.877 133.421C690.687 133.331 690.522 133.285 690.359 133.215C689.992 133.06 689.677 132.921 689.434 132.864C689.341 132.855 688.899 132.722 688.667 132.587C688.587 132.545 688.54 132.506 688.487 132.494C688.365 132.466 688.287 132.514 688.233 132.532C687.935 132.687 687.656 132.821 687.399 132.959C687.16 133.087 686.939 133.22 686.706 133.355C686.495 133.476 686.251 133.591 686.002 133.71C686.002 133.71 685.288 134.068 684.898 134.207C684.56 134.483 683.869 134.96 683.447 135.197C683.238 135.296 682.832 135.553 682.645 135.611C682.538 135.697 682.158 135.969 681.86 136.192C681.63 136.365 681.455 136.51 681.455 136.51C681.322 136.63 681.331 136.686 681.076 136.578C681.006 136.636 680.951 136.673 680.906 136.705C680.723 136.839 680.707 136.807 680.64 136.803C680.512 136.914 680.496 136.857 680.384 136.985C680.311 137.098 680.385 137.071 680.231 137.126C680.198 137.139 680.183 137.178 680.158 137.2C680.033 137.303 680.032 137.593 679.734 137.613C679.561 137.736 679.605 137.886 679.473 137.879C679.482 138.007 679.239 138.193 679.196 138.193C678.816 138.324 678.789 138.044 678.332 138.253C678.273 138.28 678.187 138.355 678.072 138.376C677.871 138.414 677.628 138.374 677.48 138.26C677.247 138.08 677.033 137.734 677.033 137.734C676.959 137.559 677.002 137.448 677.233 137.282C677.33 137.221 677.348 137.175 677.51 137.164C677.59 137.134 677.569 137.18 677.712 137.128C677.795 137.098 677.795 137.119 677.963 137.105C678.001 137.079 678.055 137.07 678.128 137.046C678.26 137.002 678.39 136.954 678.39 136.954C678.39 136.954 678.423 136.92 678.551 136.932C678.659 136.887 678.77 136.822 678.827 136.802C678.812 136.631 678.831 136.639 678.91 136.57C679.009 136.485 679.027 136.499 679.101 136.552C679.131 136.534 679.146 136.528 679.143 136.502C679.131 136.413 679.055 136.371 679.077 136.175C679.043 136.096 678.993 135.999 679.004 135.941C679.02 135.878 679.036 135.847 679.074 135.827C679.115 135.805 679.128 135.835 679.15 135.859C679.189 135.904 679.22 136.039 679.22 136.039C679.234 136.191 679.281 136.387 679.431 136.277C679.519 136.187 679.536 135.948 679.717 135.999L679.846 136.111C679.954 136.008 679.96 136.008 680.025 135.967C680.025 135.967 679.924 135.864 680.013 135.783C680.075 135.729 680.149 135.69 680.28 135.544C680.641 135.145 680.827 134.968 681.217 134.647C681.995 134.007 682.882 133.557 683.445 133.333C683.628 133.1 683.807 132.945 684.215 132.906C684.699 132.088 685.627 131.358 685.839 131.241C686.012 130.927 686.088 130.961 686.315 130.898C686.495 130.753 686.535 130.753 686.616 130.604C686.694 130.293 686.436 129.464 687.095 129.422C687.235 129.224 687.2 129.272 687.356 129.085C687.251 128.824 687.207 128.606 687.178 128.418C687.173 128.396 686.916 128.216 686.989 127.98C686.881 127.85 686.677 127.547 686.613 127.406C686.584 127.407 686.56 127.396 686.528 127.391C686.494 127.385 686.453 127.387 686.407 127.383C686.304 127.648 686.192 127.668 686.009 127.727C685.683 128.422 685.568 128.715 684.646 129.29C684.28 129.7 684.163 130.157 684.164 130.15C684.101 130.285 684.123 130.475 684.156 130.576C684.108 130.727 684.121 130.742 684.121 130.742C684.141 130.799 684.193 130.874 684.258 130.89C684.368 130.919 684.479 130.914 684.473 131.037C684.458 131.192 684.256 131.167 684.16 131.15C683.79 131.091 683.907 130.851 683.671 130.931C683.491 131.049 683.423 131.398 683.127 131.353C683.088 131.327 683.101 131.251 683.127 131.195C683.168 131.109 683.242 131.038 683.198 131.006C683.006 131.066 682.622 131.194 682.622 131.194C682.441 131.243 682.243 131.153 682.421 131.035C682.503 131.002 682.622 130.962 682.768 130.869C682.768 130.869 682.843 130.767 682.698 130.818C682.541 130.874 682.309 130.909 682.143 130.89C682.143 130.89 681.798 130.845 681.754 130.818C681.709 130.79 681.668 130.684 681.776 130.684C681.913 130.686 682.255 130.645 682.52 130.575C682.648 130.525 682.891 130.381 683.028 130.313C683.028 130.313 683.176 130.097 683.258 130.054C683.394 129.898 683.509 129.805 683.63 129.645C683.747 129.402 683.869 129.018 684.259 128.422C684.439 128.148 684.663 127.829 684.945 127.543C684.945 127.543 685.018 127.085 685.385 126.76C685.466 126.569 685.589 126.345 685.71 126.137C685.757 126.057 685.802 125.988 685.847 125.912C685.96 125.734 686.08 125.401 686.523 125.349C686.523 125.349 686.712 125.209 686.785 125.11C686.898 125.013 686.872 124.862 686.965 124.755C686.824 124.618 686.463 124.359 686.428 123.999C686.39 123.617 686.526 123.303 686.758 123.07C687.013 122.815 687.284 122.687 687.611 122.706C688.02 122.767 688.098 122.902 688.228 123.036C688.354 123.163 688.4 123.081 688.453 123.23C688.796 123.321 688.777 123.282 688.774 123.534C688.827 123.605 688.915 123.672 688.915 123.819C689.03 123.579 689.053 123.536 689.361 123.272C689.435 123.057 689.484 122.847 689.548 122.633C689.608 122.435 689.683 122.231 689.741 122.078C689.68 121.645 689.806 121.573 689.974 121.194C689.944 121.142 689.951 121.127 689.963 121.041C690.029 120.79 690.131 120.458 690.192 120.242C690.192 120.242 690.212 120.156 690.301 120.15C690.378 119.876 690.493 119.366 690.513 119.262C690.592 118.976 690.541 118.884 690.48 118.723C690.46 118.67 690.47 118.595 690.435 118.536C690.34 118.369 690.236 118.152 690.167 117.997C690.121 117.898 690.05 117.526 690.05 117.526C689.983 117.336 690.037 117.526 690.037 117.526Z" fill="#17181B"/>
<path d="M715.732 126.468C715.732 124.92 714.448 123.792 712.48 123.792C710.572 123.792 709.264 124.932 709.264 126.48C709.264 128.028 710.26 129.12 712.132 129.084C712.696 129.072 713.296 128.904 713.68 128.616H713.728L713.512 129.888C713.452 130.2 713.248 130.344 712.948 130.344H710.176V132H713.116C714.232 132 714.952 131.364 715.12 130.356L715.696 126.936C715.72 126.78 715.732 126.636 715.732 126.468ZM714.052 126.468C714.052 127.116 713.476 127.56 712.504 127.56C711.496 127.56 710.932 127.116 710.932 126.48C710.932 125.868 711.484 125.412 712.48 125.412C713.512 125.412 714.052 125.868 714.052 126.468ZM716.547 128.904C716.547 130.836 717.927 132.18 719.775 132.18C721.623 132.18 723.075 130.86 723.075 128.904V127.044C723.075 125.088 721.635 123.78 719.799 123.78C717.951 123.78 716.547 125.1 716.547 127.056V128.904ZM718.251 127.056C718.251 126.06 718.911 125.472 719.799 125.472C720.699 125.472 721.359 126.072 721.359 127.044V128.904C721.359 129.888 720.675 130.476 719.775 130.476C718.899 130.476 718.251 129.9 718.251 128.904V127.056ZM724.023 128.904C724.023 130.836 725.403 132.18 727.251 132.18C729.099 132.18 730.551 130.86 730.551 128.904V127.044C730.551 125.088 729.111 123.78 727.275 123.78C725.427 123.78 724.023 125.1 724.023 127.056V128.904ZM725.727 127.056C725.727 126.06 726.387 125.472 727.275 125.472C728.175 125.472 728.835 126.072 728.835 127.044V128.904C728.835 129.888 728.151 130.476 727.251 130.476C726.375 130.476 725.727 129.9 725.727 128.904V127.056ZM741.487 125.856C740.659 125.856 739.999 126.216 739.555 126.828H739.507C739.183 126.216 738.583 125.856 737.815 125.856C737.071 125.856 736.483 126.216 736.111 126.78H736.063V126.024H734.515V132H736.135V128.892C736.135 128.016 736.603 127.452 737.287 127.44C737.863 127.44 738.319 127.8 738.319 128.652V132H739.939V128.82C739.939 127.824 740.539 127.428 741.091 127.428C741.667 127.428 742.135 127.788 742.135 128.64V132H743.755V128.388C743.755 126.66 742.699 125.856 741.487 125.856Z" fill="#17181B"/>
</g>
</g>
<defs>
<filter id="filter0_d_471_102827" x="-76" y="355" width="288" height="288" filterUnits="userSpaceOnUse" color-interpolation-filters="sRGB">
<feFlood flood-opacity="0" result="BackgroundImageFix"/>
<feColorMatrix in="SourceAlpha" type="matrix" values="0 0 0 0 0 0 0 0 0 0 0 0 0 0 0 0 0 0 127 0" result="hardAlpha"/>
<feOffset dy="16"/>
<feGaussianBlur stdDeviation="60"/>
<feComposite in2="hardAlpha" operator="out"/>
<feColorMatrix type="matrix" values="0 0 0 0 0.0666667 0 0 0 0 0.0941176 0 0 0 0 0.152941 0 0 0 0.08 0"/>
<feBlend mode="normal" in2="BackgroundImageFix" result="effect1_dropShadow_471_102827"/>
<feBlend mode="normal" in="SourceGraphic" in2="effect1_dropShadow_471_102827" result="shape"/>
</filter>
<filter id="filter1_d_471_102827" x="-76" y="403" width="288" height="288" filterUnits="userSpaceOnUse" color-interpolation-filters="sRGB">
<feFlood flood-opacity="0" result="BackgroundImageFix"/>
<feColorMatrix in="SourceAlpha" type="matrix" values="0 0 0 0 0 0 0 0 0 0 0 0 0 0 0 0 0 0 127 0" result="hardAlpha"/>
<feOffset dy="16"/>
<feGaussianBlur stdDeviation="60"/>
<feComposite in2="hardAlpha" operator="out"/>
<feColorMatrix type="matrix" values="0 0 0 0 0.0666667 0 0 0 0 0.0941176 0 0 0 0 0.152941 0 0 0 0.08 0"/>
<feBlend mode="normal" in2="BackgroundImageFix" result="effect1_dropShadow_471_102827"/>
<feBlend mode="normal" in="SourceGraphic" in2="effect1_dropShadow_471_102827" result="shape"/>
</filter>
<filter id="filter2_d_471_102827" x="1127" y="476" width="227" height="158" filterUnits="userSpaceOnUse" color-interpolation-filters="sRGB">
<feFlood flood-opacity="0" result="BackgroundImageFix"/>
<feColorMatrix in="SourceAlpha" type="matrix" values="0 0 0 0 0 0 0 0 0 0 0 0 0 0 0 0 0 0 127 0" result="hardAlpha"/>
<feMorphology radius="16" operator="erode" in="SourceAlpha" result="effect1_dropShadow_471_102827"/>
<feOffset dy="24"/>
<feGaussianBlur stdDeviation="35"/>
<feComposite in2="hardAlpha" operator="out"/>
<feColorMatrix type="matrix" values="0 0 0 0 0.735503 0 0 0 0 0.760865 0 0 0 0 0.770833 0 0 0 0.12 0"/>
<feBlend mode="normal" in2="BackgroundImageFix" result="effect1_dropShadow_471_102827"/>
<feBlend mode="normal" in="SourceGraphic" in2="effect1_dropShadow_471_102827" result="shape"/>
</filter>
<filter id="filter3_d_471_102827" x="729" y="282" width="142" height="90" filterUnits="userSpaceOnUse" color-interpolation-filters="sRGB">
<feFlood flood-opacity="0" result="BackgroundImageFix"/>
<feColorMatrix in="SourceAlpha" type="matrix" values="0 0 0 0 0 0 0 0 0 0 0 0 0 0 0 0 0 0 127 0" result="hardAlpha"/>
<feMorphology radius="8" operator="erode" in="SourceAlpha" result="effect1_dropShadow_471_102827"/>
<feOffset dy="24"/>
<feGaussianBlur stdDeviation="16.5"/>
<feComposite in2="hardAlpha" operator="out"/>
<feColorMatrix type="matrix" values="0 0 0 0 0.735503 0 0 0 0 0.760865 0 0 0 0 0.770833 0 0 0 0.24 0"/>
<feBlend mode="normal" in2="BackgroundImageFix" result="effect1_dropShadow_471_102827"/>
<feBlend mode="normal" in="SourceGraphic" in2="effect1_dropShadow_471_102827" result="shape"/>
</filter>
<filter id="filter4_d_471_102827" x="493" y="169" width="141" height="90" filterUnits="userSpaceOnUse" color-interpolation-filters="sRGB">
<feFlood flood-opacity="0" result="BackgroundImageFix"/>
<feColorMatrix in="SourceAlpha" type="matrix" values="0 0 0 0 0 0 0 0 0 0 0 0 0 0 0 0 0 0 127 0" result="hardAlpha"/>
<feMorphology radius="8" operator="erode" in="SourceAlpha" result="effect1_dropShadow_471_102827"/>
<feOffset dy="24"/>
<feGaussianBlur stdDeviation="16.5"/>
<feComposite in2="hardAlpha" operator="out"/>
<feColorMatrix type="matrix" values="0 0 0 0 0.735503 0 0 0 0 0.760865 0 0 0 0 0.770833 0 0 0 0.24 0"/>
<feBlend mode="normal" in2="BackgroundImageFix" result="effect1_dropShadow_471_102827"/>
<feBlend mode="normal" in="SourceGraphic" in2="effect1_dropShadow_471_102827" result="shape"/>
</filter>
<filter id="filter5_d_471_102827" x="567" y="258" width="141" height="90" filterUnits="userSpaceOnUse" color-interpolation-filters="sRGB">
<feFlood flood-opacity="0" result="BackgroundImageFix"/>
<feColorMatrix in="SourceAlpha" type="matrix" values="0 0 0 0 0 0 0 0 0 0 0 0 0 0 0 0 0 0 127 0" result="hardAlpha"/>
<feMorphology radius="8" operator="erode" in="SourceAlpha" result="effect1_dropShadow_471_102827"/>
<feOffset dy="24"/>
<feGaussianBlur stdDeviation="16.5"/>
<feComposite in2="hardAlpha" operator="out"/>
<feColorMatrix type="matrix" values="0 0 0 0 0.735503 0 0 0 0 0.760865 0 0 0 0 0.770833 0 0 0 0.24 0"/>
<feBlend mode="normal" in2="BackgroundImageFix" result="effect1_dropShadow_471_102827"/>
<feBlend mode="normal" in="SourceGraphic" in2="effect1_dropShadow_471_102827" result="shape"/>
</filter>
<filter id="filter6_d_471_102827" x="640" y="106" width="142" height="90" filterUnits="userSpaceOnUse" color-interpolation-filters="sRGB">
<feFlood flood-opacity="0" result="BackgroundImageFix"/>
<feColorMatrix in="SourceAlpha" type="matrix" values="0 0 0 0 0 0 0 0 0 0 0 0 0 0 0 0 0 0 127 0" result="hardAlpha"/>
<feMorphology radius="8" operator="erode" in="SourceAlpha" result="effect1_dropShadow_471_102827"/>
<feOffset dy="24"/>
<feGaussianBlur stdDeviation="16.5"/>
<feComposite in2="hardAlpha" operator="out"/>
<feColorMatrix type="matrix" values="0 0 0 0 0.735503 0 0 0 0 0.760865 0 0 0 0 0.770833 0 0 0 0.24 0"/>
<feBlend mode="normal" in2="BackgroundImageFix" result="effect1_dropShadow_471_102827"/>
<feBlend mode="normal" in="SourceGraphic" in2="effect1_dropShadow_471_102827" result="shape"/>
</filter>
</defs>
</svg>
