<svg width="136" height="136" viewBox="0 0 136 136" fill="none" xmlns="http://www.w3.org/2000/svg">
<mask id="mask0_501_17481" style="mask-type:alpha" maskUnits="userSpaceOnUse" x="0" y="0" width="136" height="136">
<circle cx="68" cy="68" r="68" fill="#EFF4FF"/>
</mask>
<g mask="url(#mask0_501_17481)">
<g filter="url(#filter0_d_501_17481)">
<path d="M126 46.4545V46.636C125.725 78.9997 124.44 100 116.639 116.546C108.839 133 94.5222 144.818 68.4589 158.818C68.2754 158.909 68.1836 159 68.0001 159C15.2311 130.818 10.4589 111.273 10 46.4545C10.4589 46.4545 11.0096 46.4545 11.4684 46.4545C26.2438 46.4545 50.6551 38.7273 68.0001 27C85.8956 39.0909 111.408 47 126 46.4545Z" fill="white"/>
</g>
<g filter="url(#filter1_d_501_17481)">
<path d="M116.548 55.1819C116.548 55.5455 116.548 55.9089 116.548 56.2725C116.089 82.9089 114.345 99.5452 108.196 112.545C102.048 125.454 90.9432 135.636 69.285 147.818C68.9179 148 68.5508 148.182 68.1837 148.454C68.1837 148.454 68.092 148.545 68.0002 148.545C53.9591 140.727 44.2312 133.818 37.44 126.546C33.3103 122.091 30.19 117.545 27.804 112.636C21.5634 99.4544 19.8198 82.5452 19.361 55.2724C34.4116 53.4542 53.0414 46.9089 67.9084 38.0907C69.1015 38.8179 70.2944 39.4546 71.4875 40.1818C75.8008 42.5455 80.3894 44.7269 85.0698 46.636C85.0698 46.636 85.0698 46.636 85.1615 46.636C94.3387 50.4542 103.883 53.2727 112.51 54.6363C113.703 54.8181 114.896 55.0001 116.089 55.1819C116.272 55.091 116.456 55.1819 116.548 55.1819Z" fill="#F18C53"/>
</g>
<path fill-rule="evenodd" clip-rule="evenodd" d="M74.9249 76.6236V84.2935C79.1 86.9361 81.862 91.5126 81.7978 96.7978C81.7978 104.854 75.3103 111.429 67.217 111.429C59.188 111.429 52.6364 104.919 52.6364 96.7978C52.6364 91.5126 55.3983 86.8717 59.5734 84.2935V76.6236C59.5734 74.4966 60.4084 72.6275 61.8215 71.2095C63.2346 69.7916 65.1616 68.9537 67.2812 68.9537C71.4563 68.9537 74.9249 72.3696 74.9249 76.6236ZM64.3266 73.7877C63.5558 74.5611 63.1062 75.657 63.1062 76.8171H63.0419V82.6822C64.3266 82.2955 65.7397 82.1022 67.1528 82.1022C68.6944 82.1022 70.1717 82.36 71.5849 82.8112V76.8171C71.5849 74.4968 69.7221 72.5631 67.3455 72.5631C66.1894 72.5631 65.0974 73.0142 64.3266 73.7877ZM65.3545 98.4735V99.9561L65.4188 102.405C65.4188 102.921 65.8684 103.372 66.3822 103.372H68.0523C68.5661 103.372 69.0158 102.985 69.0158 102.405V98.4735C70.0435 97.8289 70.8142 96.6688 70.8142 95.3153C70.8142 92.995 68.7588 91.1902 66.3822 91.7058C65.0334 92.0281 63.8772 93.1241 63.6202 94.5421C63.2991 96.2179 64.0698 97.7 65.3545 98.4735Z" fill="white"/>
</g>
<defs>
<filter id="filter0_d_501_17481" x="-60" y="-44" width="256" height="272" filterUnits="userSpaceOnUse" color-interpolation-filters="sRGB">
<feFlood flood-opacity="0" result="BackgroundImageFix"/>
<feColorMatrix in="SourceAlpha" type="matrix" values="0 0 0 0 0 0 0 0 0 0 0 0 0 0 0 0 0 0 127 0" result="hardAlpha"/>
<feOffset dy="-1"/>
<feGaussianBlur stdDeviation="35"/>
<feComposite in2="hardAlpha" operator="out"/>
<feColorMatrix type="matrix" values="0 0 0 0 0 0 0 0 0 0.170527 0 0 0 0 0.504167 0 0 0 0.14 0"/>
<feBlend mode="normal" in2="BackgroundImageFix" result="effect1_dropShadow_501_17481"/>
<feBlend mode="normal" in="SourceGraphic" in2="effect1_dropShadow_501_17481" result="shape"/>
</filter>
<filter id="filter1_d_501_17481" x="11.361" y="35.0907" width="113.187" height="126.455" filterUnits="userSpaceOnUse" color-interpolation-filters="sRGB">
<feFlood flood-opacity="0" result="BackgroundImageFix"/>
<feColorMatrix in="SourceAlpha" type="matrix" values="0 0 0 0 0 0 0 0 0 0 0 0 0 0 0 0 0 0 127 0" result="hardAlpha"/>
<feOffset dy="5"/>
<feGaussianBlur stdDeviation="4"/>
<feColorMatrix type="matrix" values="0 0 0 0 0.968627 0 0 0 0 0.254902 0 0 0 0 0.564706 0 0 0 0.3 0"/>
<feBlend mode="normal" in2="BackgroundImageFix" result="effect1_dropShadow_501_17481"/>
<feBlend mode="normal" in="SourceGraphic" in2="effect1_dropShadow_501_17481" result="shape"/>
</filter>
</defs>
</svg>
