<svg width="36" height="24" viewBox="0 0 36 24" fill="none" xmlns="http://www.w3.org/2000/svg">
<path d="M12.3572 12.4093L15.0628 5.11818H13.2744L12.0362 8.28226L12.3114 5.11818H10.4313L7.72577 12.4093H9.4683L10.7981 8.87839L10.5688 12.3176L12.3572 12.4093ZM14.4666 12.4093L17.1721 5.11818H15.4755L12.7241 12.4093H14.4666ZM19.3732 11.9508L19.2815 8.28226L21.8495 5.30161L19.3732 11.9508ZM31.8461 9.38281L23.1334 11.6298L23.3627 10.9419H21.5285L22.1246 9.19938H23.6837L24.1423 7.86955L22.5832 7.96127L23.1334 6.49387H24.6467L25.1511 5.16404H20.2445L18.4561 7.27342L19.3274 5.11818H17.5848L14.8793 12.4093H16.6677L17.8141 9.29109V12.4093H20.1069L11.8987 14.5646C11.0427 14.8091 10.2784 14.9161 9.60587 14.8855C8.9333 14.855 8.41361 14.6715 8.04676 14.3353C7.22135 13.7239 6.93089 12.7914 7.17549 11.538C7.32833 10.7126 7.66459 9.91781 8.18433 9.15353C6.96148 10.4375 6.05963 11.5228 5.47881 12.4093C4.83683 13.357 4.42412 14.2894 4.2407 15.2065C4.05727 16.1237 4.16425 16.8726 4.56169 17.4535C5.63165 19.2266 7.97032 19.3489 11.5777 17.8203L31.8461 9.38281Z" fill="black"/>
</svg>
