<svg width="137" height="136" viewBox="0 0 137 136" fill="none" xmlns="http://www.w3.org/2000/svg">
<circle cx="68.5" cy="68" r="68" fill="#F9FAFB"/>
<mask id="mask0_417_25416" style="mask-type:alpha" maskUnits="userSpaceOnUse" x="0" y="0" width="137" height="136">
<circle cx="68.5" cy="68" r="68" fill="#EFF4FF"/>
</mask>
<g mask="url(#mask0_417_25416)">
<g filter="url(#filter0_d_417_25416)">
<path d="M76.1452 48.418V123.466C76.1452 125.563 74.4032 127.428 72.1968 127.428H21.4484C19.2419 127.428 17.5 125.68 17.5 123.466V48.418C17.5 46.2038 19.2419 44.4558 21.4484 44.4558H72.1968C74.4032 44.5723 76.1452 46.3203 76.1452 48.418Z" fill="white"/>
</g>
<path d="M56.9836 81.9796H25.3965C24.5836 81.9796 24.0029 81.397 24.0029 80.5812V54.7108C24.0029 53.895 24.5836 53.3124 25.3965 53.3124H56.9836C57.7965 53.3124 58.3771 53.895 58.3771 54.7108V80.4647C58.4933 81.2804 57.7965 81.9796 56.9836 81.9796Z" fill="#EEF1F4"/>
<path d="M43.1641 75.6868H29.3447L36.1963 67.8791L43.1641 75.6868Z" fill="#EEF1F4"/>
<path d="M54.5446 75.6868H34.6865L44.5575 64.3831L54.5446 75.6868Z" fill="white"/>
<path d="M34.5704 64.9657C35.9639 64.9657 37.2413 63.8004 37.2413 62.2855C37.2413 60.7705 36.0801 59.6052 34.5704 59.6052C33.1768 59.6052 31.8994 60.7705 31.8994 62.2855C31.8994 63.8004 33.0607 64.9657 34.5704 64.9657Z" fill="#EEF1F4"/>
<path d="M56.9836 117.755H25.3965C24.5836 117.755 24.0029 117.173 24.0029 116.357V90.4866C24.0029 89.6708 24.5836 89.0882 25.3965 89.0882H56.9836C57.7965 89.0882 58.3771 89.6708 58.3771 90.4866V116.24C58.4933 117.056 57.7965 117.755 56.9836 117.755Z" fill="#EEF1F4"/>
<path d="M43.1641 111.346H29.3447L36.1963 103.538L43.1641 111.346Z" fill="#EEF1F4"/>
<path d="M54.5446 111.346H34.6865L44.5575 100.042L54.5446 111.346Z" fill="white"/>
<path d="M34.5704 100.742C35.9639 100.742 37.2413 99.5762 37.2413 98.0613C37.2413 96.5463 36.0801 95.381 34.5704 95.381C33.1768 95.381 31.8994 96.5463 31.8994 98.0613C31.8994 99.5762 33.0607 100.742 34.5704 100.742Z" fill="#EEF1F4"/>
<g filter="url(#filter1_d_417_25416)">
<path d="M118.765 41.5424V131.506C118.765 134.07 116.675 136.168 114.12 136.168H53.152C50.5972 136.168 48.5068 134.07 48.5068 131.506V41.5424C48.5068 38.9787 50.5972 36.8811 53.152 36.8811H114.004C116.558 36.8811 118.765 38.9787 118.765 41.5424Z" fill="white"/>
</g>
<g filter="url(#filter2_d_417_25416)">
<path d="M67.6548 43.5012C67.3843 44.4506 66.9784 45.5358 66.4375 46.3496C65.0851 49.6046 61.4337 53.5376 56.2948 55.572C53.1843 56.7927 49.5331 57.3354 45.6113 56.5217C35.3333 54.3516 28.8421 44.3151 30.8707 34.143C33.9811 19.3596 52.1025 13.9343 62.7862 24.5133C68.0604 29.6672 69.6833 36.9911 67.6548 43.5012Z" fill="#F18C53"/>
</g>
<path d="M57.7719 33.7214C55.9614 30.5729 51.6939 30.1622 49.4955 33.037C47.2971 30.0253 43.0296 30.436 41.2191 33.7214C39.6673 36.4593 40.8311 38.9233 42.7709 41.2505C44.7107 43.7146 47.4264 45.9049 48.8489 46.7262C49.1075 46.8631 49.3662 47 49.6248 47C49.8835 47 50.1421 47 50.4007 46.7262C51.6939 45.9049 54.5389 43.7146 56.4787 41.2505C58.1599 38.9233 59.3237 36.4593 57.7719 33.7214Z" fill="url(#paint0_linear_417_25416)"/>
<path d="M100.067 98.6439H67.203C66.2739 98.6439 65.5771 97.9447 65.5771 97.0124C65.5771 96.0802 66.2739 95.381 67.203 95.381H100.067C100.997 95.381 101.693 96.0802 101.693 97.0124C101.693 97.9447 100.997 98.6439 100.067 98.6439Z" fill="#EEF1F4"/>
<path d="M89.4999 106.102H77.7708C76.8418 106.102 76.145 105.403 76.145 104.471C76.145 103.538 76.8418 102.839 77.7708 102.839H89.4999C90.4289 102.839 91.1257 103.538 91.1257 104.471C91.1257 105.286 90.4289 106.102 89.4999 106.102Z" fill="#EEF1F4"/>
<path d="M100.765 70.5593V65.7814C100.765 60.654 98.5581 56.1091 95.0742 52.9627L95.5388 52.3801C95.771 52.0305 95.771 51.5643 95.4226 51.3313C92.171 48.651 87.9904 47.0195 83.4613 47.0195C78.8162 47.0195 74.5194 48.7675 71.2678 51.5643C70.9194 51.7974 70.9194 52.3801 71.2678 52.6131L71.7323 53.0793C68.3646 56.2257 66.1581 60.7705 66.1581 65.7814V70.6758C64.4162 71.7246 63.2549 73.5892 63.2549 75.8033V79.1828C63.2549 82.4457 65.9258 85.126 69.1775 85.126V85.5921C69.1775 86.9905 70.3388 88.1559 71.7323 88.1559C73.1258 88.1559 74.2871 86.9905 74.2871 85.5921V69.394C74.2871 67.9956 73.1258 66.8302 71.7323 66.8302C70.3388 66.8302 69.1775 67.9956 69.1775 69.394V69.8601C68.9452 69.8601 68.7129 69.8601 68.5968 69.8601V65.7814C68.5968 61.4697 70.4549 57.5076 73.4742 54.7107L74.0549 55.2934C74.2871 55.5265 74.7517 55.5265 74.9839 55.2934C77.3065 53.4289 80.2097 52.2635 83.4613 52.2635C86.5968 52.2635 89.5 53.4289 91.8226 55.1769C92.171 55.4099 92.5194 55.4099 92.7517 55.0603L93.3323 54.4777C96.3517 57.158 98.3259 61.1201 98.3259 65.5484V69.627C98.2097 69.627 97.9775 69.627 97.8613 69.627V69.1609C97.8613 67.7625 96.7 66.5972 95.3065 66.5972C93.9129 66.5972 92.7517 67.7625 92.7517 69.1609V85.2425C92.7517 86.6409 93.9129 87.8063 95.3065 87.8063C96.7 87.8063 97.8613 86.6409 97.8613 85.2425V84.7764C101.113 84.7764 103.784 82.0961 103.784 78.8332V75.4537C103.784 73.4727 102.623 71.4916 100.765 70.5593Z" fill="#EEF1F4"/>
<path d="M99.6035 76.2694C98.9067 76.2694 98.4422 75.6868 98.4422 75.1041V65.7814C98.4422 57.5075 91.8229 50.8651 83.5777 50.8651C75.3326 50.8651 68.7132 57.5075 68.7132 65.7814V75.1041C68.7132 75.8033 68.1326 76.2694 67.5519 76.2694C66.8551 76.2694 66.3906 75.6868 66.3906 75.1041V65.7814C66.3906 56.2257 74.1713 48.5345 83.5777 48.5345C92.9842 48.5345 100.765 56.2257 100.765 65.7814V75.1041C100.765 75.6868 100.3 76.2694 99.6035 76.2694Z" fill="#A7B5C7"/>
<path d="M67.0878 84.5434C64.9975 83.6111 63.4878 81.5135 63.4878 79.0663V75.6868C63.4878 72.4239 66.1588 69.7436 69.4104 69.7436V85.0095" fill="#EEF1F4"/>
<path d="M97.8613 85.0095H97.9775C101.113 85.0095 103.784 82.4457 103.784 79.1828V75.4537C103.784 72.3073 101.229 69.627 97.9775 69.627H97.8613V85.0095Z" fill="#EEF1F4"/>
<path d="M95.771 52.0305C95.771 52.147 95.6548 52.2636 95.5387 52.3801L92.8677 55.1769C92.7516 55.2934 92.6355 55.41 92.4032 55.41C92.171 55.41 92.0548 55.41 91.8226 55.2934C91.0097 54.5942 90.0806 54.0116 89.1516 53.662C87.4097 52.8462 85.4355 52.3801 83.4613 52.3801C80.3258 52.3801 77.4226 53.4289 75.1 55.2934C75.1 55.2934 74.9839 55.2934 74.9839 55.41C74.7516 55.643 74.2871 55.643 74.0548 55.41L71.2677 52.7297C70.9193 52.3801 71.0355 51.914 71.2677 51.6809C74.5193 48.8841 78.8161 47.1361 83.4613 47.1361C87.9903 47.1361 92.171 48.7675 95.4226 51.4478C95.771 51.4478 95.771 51.7974 95.771 52.0305Z" fill="#EEF1F4"/>
<g filter="url(#filter3_d_417_25416)">
<path d="M108.662 119.736C108.662 121.834 107.849 123.699 106.455 125.097C105.062 126.495 103.203 127.311 101.113 127.311H64.1841C60.0035 127.311 56.6357 123.932 56.6357 119.736C56.6357 117.639 57.4486 115.774 58.8422 114.376C60.2357 112.978 62.0938 112.162 64.1841 112.162H100.997C105.178 112.162 108.662 115.541 108.662 119.736Z" fill="#F18C53"/>
</g>
<path d="M89.0358 120.319L86.597 122.766C86.3648 122.999 85.9003 122.999 85.4358 122.766C85.2035 122.533 85.2035 122.067 85.4358 121.601L86.597 120.436H76.7261C76.2616 120.436 76.0293 120.086 76.0293 119.736C76.0293 119.387 76.3777 119.037 76.7261 119.037H86.597L85.4358 117.872C85.2035 117.639 85.2035 117.173 85.4358 116.707C85.668 116.474 85.7841 116.474 86.0164 116.474C86.2487 116.474 86.3648 116.59 86.597 116.707L89.0358 119.154C89.268 119.387 89.268 119.503 89.268 119.736C89.268 119.97 89.1519 120.203 89.0358 120.319Z" fill="url(#paint1_linear_417_25416)"/>
</g>
<defs>
<filter id="filter0_d_417_25416" x="-52.5" y="-26.5442" width="198.645" height="222.972" filterUnits="userSpaceOnUse" color-interpolation-filters="sRGB">
<feFlood flood-opacity="0" result="BackgroundImageFix"/>
<feColorMatrix in="SourceAlpha" type="matrix" values="0 0 0 0 0 0 0 0 0 0 0 0 0 0 0 0 0 0 127 0" result="hardAlpha"/>
<feOffset dy="-1"/>
<feGaussianBlur stdDeviation="35"/>
<feComposite in2="hardAlpha" operator="out"/>
<feColorMatrix type="matrix" values="0 0 0 0 0 0 0 0 0 0.170527 0 0 0 0 0.504167 0 0 0 0.14 0"/>
<feBlend mode="normal" in2="BackgroundImageFix" result="effect1_dropShadow_417_25416"/>
<feBlend mode="normal" in="SourceGraphic" in2="effect1_dropShadow_417_25416" result="shape"/>
</filter>
<filter id="filter1_d_417_25416" x="-21.4932" y="-34.1189" width="210.258" height="239.287" filterUnits="userSpaceOnUse" color-interpolation-filters="sRGB">
<feFlood flood-opacity="0" result="BackgroundImageFix"/>
<feColorMatrix in="SourceAlpha" type="matrix" values="0 0 0 0 0 0 0 0 0 0 0 0 0 0 0 0 0 0 127 0" result="hardAlpha"/>
<feOffset dy="-1"/>
<feGaussianBlur stdDeviation="35"/>
<feComposite in2="hardAlpha" operator="out"/>
<feColorMatrix type="matrix" values="0 0 0 0 0 0 0 0 0 0.170527 0 0 0 0 0.504167 0 0 0 0.14 0"/>
<feBlend mode="normal" in2="BackgroundImageFix" result="effect1_dropShadow_417_25416"/>
<feBlend mode="normal" in="SourceGraphic" in2="effect1_dropShadow_417_25416" result="shape"/>
</filter>
<filter id="filter2_d_417_25416" x="22.5" y="16" width="54" height="53.9085" filterUnits="userSpaceOnUse" color-interpolation-filters="sRGB">
<feFlood flood-opacity="0" result="BackgroundImageFix"/>
<feColorMatrix in="SourceAlpha" type="matrix" values="0 0 0 0 0 0 0 0 0 0 0 0 0 0 0 0 0 0 127 0" result="hardAlpha"/>
<feOffset dy="5"/>
<feGaussianBlur stdDeviation="4"/>
<feColorMatrix type="matrix" values="0 0 0 0 0.968627 0 0 0 0 0.254902 0 0 0 0 0.564706 0 0 0 0.18 0"/>
<feBlend mode="normal" in2="BackgroundImageFix" result="effect1_dropShadow_417_25416"/>
<feBlend mode="normal" in="SourceGraphic" in2="effect1_dropShadow_417_25416" result="shape"/>
</filter>
<filter id="filter3_d_417_25416" x="48.6357" y="109.162" width="68.0259" height="31.1494" filterUnits="userSpaceOnUse" color-interpolation-filters="sRGB">
<feFlood flood-opacity="0" result="BackgroundImageFix"/>
<feColorMatrix in="SourceAlpha" type="matrix" values="0 0 0 0 0 0 0 0 0 0 0 0 0 0 0 0 0 0 127 0" result="hardAlpha"/>
<feOffset dy="5"/>
<feGaussianBlur stdDeviation="4"/>
<feColorMatrix type="matrix" values="0 0 0 0 0.968627 0 0 0 0 0.254902 0 0 0 0 0.564706 0 0 0 0.3 0"/>
<feBlend mode="normal" in2="BackgroundImageFix" result="effect1_dropShadow_417_25416"/>
<feBlend mode="normal" in="SourceGraphic" in2="effect1_dropShadow_417_25416" result="shape"/>
</filter>
<linearGradient id="paint0_linear_417_25416" x1="55.6478" y1="42.4293" x2="42.9212" y2="32.065" gradientUnits="userSpaceOnUse">
<stop offset="0.0113208" stop-color="#FFC9E3"/>
<stop offset="1" stop-color="white"/>
</linearGradient>
<linearGradient id="paint1_linear_417_25416" x1="84.7903" y1="123.532" x2="81.8058" y2="118.304" gradientUnits="userSpaceOnUse">
<stop offset="0.0113208" stop-color="#FFC9E3"/>
<stop offset="1" stop-color="white"/>
</linearGradient>
</defs>
</svg>
