<svg width="48" height="48" viewBox="0 0 48 48" fill="none" xmlns="http://www.w3.org/2000/svg">
<circle cx="24" cy="24" r="24" fill="#F9FAFB"/>
<mask id="mask0_377_25969" style="mask-type:alpha" maskUnits="userSpaceOnUse" x="0" y="0" width="48" height="48">
<circle cx="24" cy="24" r="24" fill="#EFF4FF"/>
</mask>
<g mask="url(#mask0_377_25969)">
<path d="M24.1926 12.8687L30.1764 0.352905" stroke="white" stroke-width="0.705882" stroke-miterlimit="10" stroke-linecap="round" stroke-linejoin="round"/>
<g filter="url(#filter0_d_377_25969)">
<path d="M38.2677 10.2664V46.1412C38.2677 47.1635 37.426 48 36.3973 48H11.8946C10.8659 48 10.0242 47.1635 10.0242 46.1412V10.2664C10.0242 9.24405 10.8659 8.40759 11.8946 8.40759H36.3973C37.426 8.40759 38.2677 9.24405 38.2677 10.2664Z" fill="white"/>
</g>
<path d="M11.7544 25.0438H10.866V25.9268H11.7544V25.0438Z" fill="#F9FAFB"/>
<path d="M11.7544 23.278H10.866V24.1609H11.7544V23.278Z" fill="#F9FAFB"/>
<path d="M11.7544 21.5121H10.866V22.395H11.7544V21.5121Z" fill="#F9FAFB"/>
<path d="M11.7544 19.7927H10.866V20.6757H11.7544V19.7927Z" fill="#F9FAFB"/>
<path d="M11.7544 16.261H10.866V17.1439H11.7544V16.261Z" fill="#F9FAFB"/>
<path d="M13.5782 26.7632H12.6897V27.6461H13.5782V26.7632Z" fill="#F9FAFB"/>
<path d="M13.5782 25.0438H12.6897V25.9268H13.5782V25.0438Z" fill="#F9FAFB"/>
<path d="M13.5782 19.7927H12.6897V20.6757H13.5782V19.7927Z" fill="#F9FAFB"/>
<path d="M13.5782 12.7758H12.6897V13.6587H13.5782V12.7758Z" fill="#F9FAFB"/>
<path d="M15.4019 26.7632H14.5134V27.6461H15.4019V26.7632Z" fill="#F9FAFB"/>
<path d="M15.4019 23.278H14.5134V24.1609H15.4019V23.278Z" fill="#F9FAFB"/>
<path d="M15.4019 21.5121H14.5134V22.395H15.4019V21.5121Z" fill="#F9FAFB"/>
<path d="M15.4019 19.7927H14.5134V20.6757H15.4019V19.7927Z" fill="#F9FAFB"/>
<path d="M15.4019 18.0269H14.5134V18.9098H15.4019V18.0269Z" fill="#F9FAFB"/>
<path d="M15.4019 16.261H14.5134V17.1439H15.4019V16.261Z" fill="#F9FAFB"/>
<path d="M15.4019 12.7758H14.5134V13.6587H15.4019V12.7758Z" fill="#F9FAFB"/>
<path d="M15.4019 11.0099H14.5134V11.8928H15.4019V11.0099Z" fill="#F9FAFB"/>
<path d="M17.2254 25.0438H16.3369V25.9268H17.2254V25.0438Z" fill="#F9FAFB"/>
<path d="M17.2254 23.278H16.3369V24.1609H17.2254V23.278Z" fill="#F9FAFB"/>
<path d="M17.2254 18.0269H16.3369V18.9098H17.2254V18.0269Z" fill="#F9FAFB"/>
<path d="M17.2254 14.5416H16.3369V15.4246H17.2254V14.5416Z" fill="#F9FAFB"/>
<path d="M19.0957 26.7632H18.2073V27.6461H19.0957V26.7632Z" fill="#F9FAFB"/>
<path d="M19.0957 25.0438H18.2073V25.9268H19.0957V25.0438Z" fill="#F9FAFB"/>
<path d="M19.0957 19.7927H18.2073V20.6757H19.0957V19.7927Z" fill="#F9FAFB"/>
<path d="M19.0957 18.0269H18.2073V18.9098H19.0957V18.0269Z" fill="#F9FAFB"/>
<path d="M19.0957 16.261H18.2073V17.1439H19.0957V16.261Z" fill="#F9FAFB"/>
<path d="M20.9195 26.7632H20.031V27.6461H20.9195V26.7632Z" fill="#F9FAFB"/>
<path d="M20.9195 25.0438H20.031V25.9268H20.9195V25.0438Z" fill="#F9FAFB"/>
<path d="M20.9195 23.278H20.031V24.1609H20.9195V23.278Z" fill="#F9FAFB"/>
<path d="M20.9195 21.5121H20.031V22.395H20.9195V21.5121Z" fill="#F9FAFB"/>
<path d="M20.9195 19.7927H20.031V20.6757H20.9195V19.7927Z" fill="#F9FAFB"/>
<path d="M20.9195 18.0269H20.031V18.9098H20.9195V18.0269Z" fill="#F9FAFB"/>
<path d="M20.9195 12.7758H20.031V13.6587H20.9195V12.7758Z" fill="#F9FAFB"/>
<path d="M22.7432 26.7632H21.8547V27.6461H22.7432V26.7632Z" fill="#F9FAFB"/>
<path d="M22.7432 25.0438H21.8547V25.9268H22.7432V25.0438Z" fill="#F9FAFB"/>
<path d="M22.7432 23.278H21.8547V24.1609H22.7432V23.278Z" fill="#F9FAFB"/>
<path d="M22.7432 19.7927H21.8547V20.6757H22.7432V19.7927Z" fill="#F9FAFB"/>
<path d="M22.7432 18.0269H21.8547V18.9098H22.7432V18.0269Z" fill="#F9FAFB"/>
<path d="M24.5669 26.7632H23.6785V27.6461H24.5669V26.7632Z" fill="#F9FAFB"/>
<path d="M24.5669 25.0438H23.6785V25.9268H24.5669V25.0438Z" fill="#F9FAFB"/>
<path d="M24.5669 23.278H23.6785V24.1609H24.5669V23.278Z" fill="#F9FAFB"/>
<path d="M24.5669 21.5121H23.6785V22.395H24.5669V21.5121Z" fill="#F9FAFB"/>
<path d="M24.5669 19.7927H23.6785V20.6757H24.5669V19.7927Z" fill="#F9FAFB"/>
<path d="M24.5669 16.261H23.6785V17.1439H24.5669V16.261Z" fill="#F9FAFB"/>
<path d="M26.3907 26.7632H25.5022V27.6461H26.3907V26.7632Z" fill="#F9FAFB"/>
<path d="M26.3907 25.0438H25.5022V25.9268H26.3907V25.0438Z" fill="#F9FAFB"/>
<path d="M26.3907 23.278H25.5022V24.1609H26.3907V23.278Z" fill="#F9FAFB"/>
<path d="M26.3907 21.5121H25.5022V22.395H26.3907V21.5121Z" fill="#F9FAFB"/>
<path d="M26.3907 19.7927H25.5022V20.6757H26.3907V19.7927Z" fill="#F9FAFB"/>
<path d="M26.3907 18.0269H25.5022V18.9098H26.3907V18.0269Z" fill="#F9FAFB"/>
<path d="M28.2141 26.7632H27.3257V27.6461H28.2141V26.7632Z" fill="#F9FAFB"/>
<path d="M28.2141 25.0438H27.3257V25.9268H28.2141V25.0438Z" fill="#F9FAFB"/>
<path d="M28.2141 23.278H27.3257V24.1609H28.2141V23.278Z" fill="#F9FAFB"/>
<path d="M28.2141 19.7927H27.3257V20.6757H28.2141V19.7927Z" fill="#F9FAFB"/>
<path d="M28.2141 16.261H27.3257V17.1439H28.2141V16.261Z" fill="#F9FAFB"/>
<path d="M28.2141 11.0099H27.3257V11.8928H28.2141V11.0099Z" fill="#F9FAFB"/>
<path d="M30.0379 25.0438H29.1494V25.9268H30.0379V25.0438Z" fill="#F9FAFB"/>
<path d="M30.0379 23.278H29.1494V24.1609H30.0379V23.278Z" fill="#F9FAFB"/>
<path d="M30.0379 21.5121H29.1494V22.395H30.0379V21.5121Z" fill="#F9FAFB"/>
<path d="M30.0379 14.5416H29.1494V15.4246H30.0379V14.5416Z" fill="#F9FAFB"/>
<path d="M31.8616 26.7632H30.9731V27.6461H31.8616V26.7632Z" fill="#F9FAFB"/>
<path d="M31.8616 23.278H30.9731V24.1609H31.8616V23.278Z" fill="#F9FAFB"/>
<path d="M31.8616 21.5121H30.9731V22.395H31.8616V21.5121Z" fill="#F9FAFB"/>
<path d="M31.8616 19.7927H30.9731V20.6757H31.8616V19.7927Z" fill="#F9FAFB"/>
<path d="M31.8616 18.0269H30.9731V18.9098H31.8616V18.0269Z" fill="#F9FAFB"/>
<path d="M31.8616 16.261H30.9731V17.1439H31.8616V16.261Z" fill="#F9FAFB"/>
<path d="M33.7322 26.7632H32.8438V27.6461H33.7322V26.7632Z" fill="#F9FAFB"/>
<path d="M33.7322 21.5121H32.8438V22.395H33.7322V21.5121Z" fill="#F9FAFB"/>
<path d="M33.7322 18.0269H32.8438V18.9098H33.7322V18.0269Z" fill="#F9FAFB"/>
<path d="M35.5557 26.7632H34.6672V27.6461H35.5557V26.7632Z" fill="#F9FAFB"/>
<path d="M35.5557 25.0438H34.6672V25.9268H35.5557V25.0438Z" fill="#F9FAFB"/>
<path d="M35.5557 23.278H34.6672V24.1609H35.5557V23.278Z" fill="#F9FAFB"/>
<path d="M35.5557 21.5121H34.6672V22.395H35.5557V21.5121Z" fill="#F9FAFB"/>
<path d="M35.5557 19.7927H34.6672V20.6757H35.5557V19.7927Z" fill="#F9FAFB"/>
<path d="M35.5557 14.5416H34.6672V15.4246H35.5557V14.5416Z" fill="#F9FAFB"/>
<path d="M37.3794 26.7632H36.491V27.6461H37.3794V26.7632Z" fill="#F9FAFB"/>
<path d="M37.3794 23.278H36.491V24.1609H37.3794V23.278Z" fill="#F9FAFB"/>
<path d="M37.3794 21.5121H36.491V22.395H37.3794V21.5121Z" fill="#F9FAFB"/>
<path d="M36.4756 32.9328L37.364 32.9328L37.364 32.0499L36.4756 32.0499L36.4756 32.9328Z" fill="#F9FAFB"/>
<path d="M36.4756 31.1536L37.364 31.1536L37.364 30.2707L36.4756 30.2707L36.4756 31.1536Z" fill="#F9FAFB"/>
<path d="M36.4756 29.4208L37.364 29.4208L37.364 28.5379L36.4756 28.5379L36.4756 29.4208Z" fill="#F9FAFB"/>
<path d="M34.6408 34.6656L35.5293 34.6656L35.5293 33.7827L34.6408 33.7827L34.6408 34.6656Z" fill="#F9FAFB"/>
<path d="M34.6408 32.9328L35.5293 32.9328L35.5293 32.0499L34.6408 32.0499L34.6408 32.9328Z" fill="#F9FAFB"/>
<path d="M34.6408 29.4208L35.5293 29.4208L35.5293 28.5379L34.6408 28.5379L34.6408 29.4208Z" fill="#F9FAFB"/>
<path d="M32.8059 34.6656L33.6943 34.6656L33.6943 33.7827L32.8059 33.7827L32.8059 34.6656Z" fill="#F9FAFB"/>
<path d="M32.8059 32.9328L33.6943 32.9328L33.6943 32.0499L32.8059 32.0499L32.8059 32.9328Z" fill="#F9FAFB"/>
<path d="M32.8059 31.1536L33.6943 31.1536L33.6943 30.2707L32.8059 30.2707L32.8059 31.1536Z" fill="#F9FAFB"/>
<path d="M32.8059 29.4208L33.6943 29.4208L33.6943 28.5379L32.8059 28.5379L32.8059 29.4208Z" fill="#F9FAFB"/>
<path d="M31.0175 34.6656L31.906 34.6656L31.906 33.7827L31.0175 33.7827L31.0175 34.6656Z" fill="#F9FAFB"/>
<path d="M31.0175 32.9328L31.906 32.9328L31.906 32.0499L31.0175 32.0499L31.0175 32.9328Z" fill="#F9FAFB"/>
<path d="M31.0175 31.1536L31.906 31.1536L31.906 30.2707L31.0175 30.2707L31.0175 31.1536Z" fill="#F9FAFB"/>
<path d="M31.0175 29.4208L31.906 29.4208L31.906 28.5379L31.0175 28.5379L31.0175 29.4208Z" fill="#F9FAFB"/>
<path d="M29.1828 34.6656L30.0713 34.6656L30.0713 33.7827L29.1828 33.7827L29.1828 34.6656Z" fill="#F9FAFB"/>
<path d="M29.1828 32.9328L30.0713 32.9328L30.0713 32.0499L29.1828 32.0499L29.1828 32.9328Z" fill="#F9FAFB"/>
<path d="M29.1828 31.1536L30.0713 31.1536L30.0713 30.2707L29.1828 30.2707L29.1828 31.1536Z" fill="#F9FAFB"/>
<path d="M27.3479 34.6656L28.2363 34.6656L28.2363 33.7827L27.3479 33.7827L27.3479 34.6656Z" fill="#F9FAFB"/>
<path d="M27.3479 32.9328L28.2363 32.9328L28.2363 32.0499L27.3479 32.0499L27.3479 32.9328Z" fill="#F9FAFB"/>
<path d="M27.3479 31.1536L28.2363 31.1536L28.2363 30.2707L27.3479 30.2707L27.3479 31.1536Z" fill="#F9FAFB"/>
<path d="M27.3479 29.4208L28.2363 29.4208L28.2363 28.5379L27.3479 28.5379L27.3479 29.4208Z" fill="#F9FAFB"/>
<path d="M25.5129 34.6656L26.4014 34.6656L26.4014 33.7827L25.5129 33.7827L25.5129 34.6656Z" fill="#F9FAFB"/>
<path d="M25.5129 32.9328L26.4014 32.9328L26.4014 32.0499L25.5129 32.0499L25.5129 32.9328Z" fill="#F9FAFB"/>
<path d="M25.5129 31.1536L26.4014 31.1536L26.4014 30.2707L25.5129 30.2707L25.5129 31.1536Z" fill="#F9FAFB"/>
<path d="M23.6785 34.6631H24.5669V33.7802H23.6785V34.6631Z" fill="#F9FAFB"/>
<path d="M23.6782 32.9328L24.5667 32.9328L24.5667 32.0499L23.6782 32.0499L23.6782 32.9328Z" fill="#F9FAFB"/>
<path d="M23.6782 31.1536L24.5667 31.1536L24.5667 30.2707L23.6782 30.2707L23.6782 31.1536Z" fill="#F9FAFB"/>
<path d="M23.6782 29.4208L24.5667 29.4208L24.5667 28.5379L23.6782 28.5379L23.6782 29.4208Z" fill="#F9FAFB"/>
<path d="M21.8432 34.6656L22.7317 34.6656L22.7317 33.7827L21.8432 33.7827L21.8432 34.6656Z" fill="#F9FAFB"/>
<path d="M21.8432 32.9328L22.7317 32.9328L22.7317 32.0499L21.8432 32.0499L21.8432 32.9328Z" fill="#F9FAFB"/>
<path d="M21.8547 31.1779H22.7432V30.2949H21.8547V31.1779Z" fill="#F9FAFB"/>
<path d="M21.8432 29.4208L22.7317 29.4208L22.7317 28.5379L21.8432 28.5379L21.8432 29.4208Z" fill="#F9FAFB"/>
<path d="M20.0085 34.6656L20.897 34.6656L20.897 33.7827L20.0085 33.7827L20.0085 34.6656Z" fill="#F9FAFB"/>
<path d="M20.0085 32.9328L20.897 32.9328L20.897 32.0499L20.0085 32.0499L20.0085 32.9328Z" fill="#F9FAFB"/>
<path d="M20.0085 31.1536L20.897 31.1536L20.897 30.2707L20.0085 30.2707L20.0085 31.1536Z" fill="#F9FAFB"/>
<path d="M18.1736 32.9328L19.062 32.9328L19.062 32.0499L18.1736 32.0499L18.1736 32.9328Z" fill="#F9FAFB"/>
<path d="M18.1736 31.1536L19.062 31.1536L19.062 30.2707L18.1736 30.2707L18.1736 31.1536Z" fill="#F9FAFB"/>
<path d="M18.1736 29.4208L19.062 29.4208L19.062 28.5379L18.1736 28.5379L18.1736 29.4208Z" fill="#F9FAFB"/>
<path d="M16.3852 34.6656L17.2737 34.6656L17.2737 33.7827L16.3852 33.7827L16.3852 34.6656Z" fill="#F9FAFB"/>
<path d="M16.3852 31.1536L17.2737 31.1536L17.2737 30.2707L16.3852 30.2707L16.3852 31.1536Z" fill="#F9FAFB"/>
<path d="M16.3369 29.412H17.2721V28.5291H16.3369V29.412Z" fill="#F9FAFB"/>
<path d="M14.5503 34.6656L15.4387 34.6656L15.4387 33.7827L14.5503 33.7827L14.5503 34.6656Z" fill="#F9FAFB"/>
<path d="M14.5503 29.4208L15.4387 29.4208L15.4387 28.5379L14.5503 28.5379L14.5503 29.4208Z" fill="#F9FAFB"/>
<path d="M12.7155 34.6656L13.604 34.6656L13.604 33.7827L12.7155 33.7827L12.7155 34.6656Z" fill="#F9FAFB"/>
<path d="M12.7155 32.9328L13.604 32.9328L13.604 32.0499L12.7155 32.0499L12.7155 32.9328Z" fill="#F9FAFB"/>
<path d="M12.7155 31.1536L13.604 31.1536L13.604 30.2707L12.7155 30.2707L12.7155 31.1536Z" fill="#F9FAFB"/>
<path d="M10.8806 34.6656L11.769 34.6656L11.769 33.7827L10.8806 33.7827L10.8806 34.6656Z" fill="#F9FAFB"/>
<path d="M10.8806 31.1536L11.769 31.1536L11.769 30.2707L10.8806 30.2707L10.8806 31.1536Z" fill="#F9FAFB"/>
<path d="M10.8806 29.4208L11.769 29.4208L11.769 28.5379L10.8806 28.5379L10.8806 29.4208Z" fill="#F9FAFB"/>
<path d="M24.1458 14.6811C25.2305 14.6811 26.1098 13.8072 26.1098 12.7293C26.1098 11.6514 25.2305 10.7776 24.1458 10.7776C23.0612 10.7776 22.1819 11.6514 22.1819 12.7293C22.1819 13.8072 23.0612 14.6811 24.1458 14.6811Z" fill="#F9FAFB"/>
<path d="M24.0992 12.8687L17.8235 0.176453" stroke="white" stroke-width="0.705882" stroke-miterlimit="10" stroke-linecap="round" stroke-linejoin="round"/>
<path d="M32.5629 31.9806C32.3759 32.1665 32.2356 32.3524 32.0485 32.4918C29.9443 34.4435 27.1387 35.6053 24.0057 35.6053C21.5274 35.6053 19.1893 34.8618 17.2721 33.5141C16.711 33.1424 16.1966 32.6777 15.729 32.213C15.9628 31.8877 16.4304 31.6553 17.3656 31.2836L17.7397 31.1442C18.4411 30.8653 19.4231 30.4936 20.6857 29.9824C20.8727 29.8895 21.0597 29.7965 21.1533 29.6107C21.2 29.5177 21.2935 29.4248 21.2935 29.3318C21.3871 29.1924 21.3871 29.0065 21.3871 28.8207V26.4507C21.3403 26.4042 21.3403 26.3578 21.2935 26.3113C21.1065 25.986 20.9662 25.6607 20.9195 25.2889L20.7324 25.196C20.1245 25.3354 20.1713 24.6848 20.031 23.4301C19.9842 22.919 20.031 22.826 20.2648 22.7331L20.4519 22.4543C19.9842 21.4319 19.7972 20.5955 19.7972 19.852C19.7972 18.6902 20.3116 17.9002 21.013 17.5285C20.6857 16.7849 20.6389 16.4597 20.6389 16.4597C20.6389 16.4597 23.1172 16.8779 23.9589 16.692C25.0344 16.4597 26.7178 16.7385 27.3257 18.179C27.466 18.2255 27.5595 18.272 27.6998 18.3185C28.4947 18.7367 28.7753 19.2943 28.8688 19.8984C29.0091 21.0137 28.4012 22.2219 28.2609 22.7331C28.2609 22.7331 28.2609 22.7796 28.3077 22.7796C28.4947 22.8725 28.5415 23.0119 28.448 23.4766C28.3077 24.6848 28.3544 25.3819 27.7465 25.2425L27.1854 26.1719C27.1854 26.2648 27.1387 26.3113 27.1387 26.4042C27.1387 26.5901 27.1387 26.9154 27.1387 28.8671C27.1387 28.9136 27.1387 29.0065 27.1387 29.053C27.1387 29.2389 27.2322 29.3783 27.3257 29.5177C27.3725 29.5642 27.4192 29.6107 27.466 29.6571C27.6063 29.7965 27.7465 29.8895 27.9336 29.9824C29.3364 30.5865 30.3652 30.9583 31.1133 31.2371C31.8147 31.5624 32.2824 31.7947 32.5629 31.9806Z" fill="#F9FAFB"/>
<path d="M33.6853 35.4659C31.581 37.4176 27.1388 35.6518 24.0058 35.6518C21.5275 35.6518 16.337 37.6035 14.4198 36.3024C14.0457 36.0235 14.5133 34.9547 14.6536 34.6295C14.8874 33.9789 15.1212 33.3283 15.4485 32.7242C16.15 31.3766 19.3765 30.726 20.6858 30.0289C20.9196 29.8895 21.0598 29.7966 21.1534 29.6572C22.6965 31.7948 25.8762 31.7948 27.4193 29.7036C27.5596 29.843 27.6999 29.936 27.8869 30.0289C27.9337 30.0289 27.9805 30.0754 28.0272 30.0754C32.376 31.8413 32.6565 31.6089 33.2177 33.2354C33.3112 33.5142 33.8723 35.28 33.6853 35.4659Z" fill="#E4E7EA"/>
<path d="M33.6853 35.4659C31.581 37.4176 27.1388 35.6517 24.0058 35.6517C21.5275 35.6517 16.337 37.6035 14.4198 36.3023C14.0457 36.0235 14.5133 34.9547 14.6536 34.6294C14.8874 33.9788 15.1212 33.3282 15.4485 32.7241C16.15 31.3765 19.3765 30.7259 20.6858 30.0289C20.6858 30.0289 20.6858 30.0289 20.7325 30.0289C22.5094 32.4918 26.2035 32.4918 27.9805 30.0753H28.0272C32.376 31.8412 32.6565 31.6088 33.2177 33.2353C33.3112 33.5141 33.8723 35.28 33.6853 35.4659Z" fill="#EEF1F4"/>
<path d="M28.261 22.7331C28.3077 22.4543 28.1675 22.0825 28.0739 21.8037C28.0739 21.7572 28.0272 21.7108 28.0272 21.6643C27.5596 20.7349 26.4841 20.3167 25.5021 20.2702C22.9302 20.1308 22.6964 20.642 21.8547 19.8984C22.0885 20.2702 22.1353 20.8743 21.7612 21.6178C21.4807 22.129 20.9663 22.3613 20.4987 22.5007C19.3297 19.852 19.8908 18.179 21.0598 17.5749C20.6857 16.7849 20.639 16.4597 20.639 16.4597C20.639 16.4597 23.1173 16.8779 23.959 16.692C25.0345 16.4597 26.7179 16.7385 27.3258 18.179C28.3545 18.5973 28.7753 19.2479 28.8689 19.9449C29.0559 21.0602 28.4013 22.2684 28.261 22.7331Z" fill="#EEF1F4"/>
<path d="M21.4341 28.9136V26.5437C21.3873 26.4972 21.3406 26.4507 21.3406 26.4042V26.2648C21.4809 26.4972 21.6211 26.6831 21.8549 26.8225L23.7254 28.1236C24.1462 28.4954 24.8009 28.4954 25.2217 28.1236L26.9519 26.5437C26.9986 26.4972 27.0922 26.4507 27.1389 26.3578C27.1389 26.5436 27.1389 26.8689 27.1389 28.8207C27.1389 28.9601 27.1389 29.053 27.1857 29.146H21.3873C21.4341 29.146 21.4341 29.0066 21.4341 28.9136Z" fill="url(#paint0_linear_377_25969)"/>
<path d="M38.2677 34.756V46.1412C38.2677 47.1635 37.426 48 36.3973 48H11.8946C10.8659 48 10.0242 47.1635 10.0242 46.1412V34.756H38.2677Z" fill="white"/>
<path d="M27.7931 39.1242H20.4984C20.1243 39.1242 19.8438 38.8454 19.8438 38.4736C19.8438 38.1019 20.1243 37.8231 20.4984 37.8231H27.7931C28.1672 37.8231 28.4477 38.1019 28.4477 38.4736C28.4477 38.8454 28.1672 39.1242 27.7931 39.1242Z" fill="#EEF1F4"/>
<path d="M30.7859 42.0054H17.5526C17.1785 42.0054 16.8979 41.7266 16.8979 41.3548C16.8979 40.983 17.1785 40.7042 17.5526 40.7042H30.7859C31.16 40.7042 31.4406 40.983 31.4406 41.3548C31.4406 41.7266 31.1133 42.0054 30.7859 42.0054Z" fill="#EEF1F4"/>
<path d="M26.7646 44.933H21.5742C21.3404 44.933 21.1533 44.7471 21.1533 44.5148V44.0501C21.1533 43.8177 21.3404 43.6318 21.5742 43.6318H26.7646C26.9984 43.6318 27.1855 43.8177 27.1855 44.0501V44.5148C27.1855 44.7471 26.9984 44.933 26.7646 44.933Z" fill="#EEF1F4"/>
</g>
<defs>
<filter id="filter0_d_377_25969" x="-14.6817" y="-16.6512" width="77.6554" height="89.0042" filterUnits="userSpaceOnUse" color-interpolation-filters="sRGB">
<feFlood flood-opacity="0" result="BackgroundImageFix"/>
<feColorMatrix in="SourceAlpha" type="matrix" values="0 0 0 0 0 0 0 0 0 0 0 0 0 0 0 0 0 0 127 0" result="hardAlpha"/>
<feOffset dy="-0.352941"/>
<feGaussianBlur stdDeviation="12.3529"/>
<feComposite in2="hardAlpha" operator="out"/>
<feColorMatrix type="matrix" values="0 0 0 0 0 0 0 0 0 0.170527 0 0 0 0 0.504167 0 0 0 0.14 0"/>
<feBlend mode="normal" in2="BackgroundImageFix" result="effect1_dropShadow_377_25969"/>
<feBlend mode="normal" in="SourceGraphic" in2="effect1_dropShadow_377_25969" result="shape"/>
</filter>
<linearGradient id="paint0_linear_377_25969" x1="24.2631" y1="26.2648" x2="24.2631" y2="29.146" gradientUnits="userSpaceOnUse">
<stop stop-color="#EEF1F4"/>
<stop offset="1" stop-color="#EEF1F4" stop-opacity="0"/>
</linearGradient>
</defs>
</svg>
