<svg width="136" height="136" viewBox="0 0 136 136" fill="none" xmlns="http://www.w3.org/2000/svg">
<circle cx="68" cy="68" r="68" fill="#F9FAFB"/>
<mask id="mask0_337_6014" style="mask-type:alpha" maskUnits="userSpaceOnUse" x="0" y="0" width="136" height="136">
<circle cx="68" cy="68" r="68" fill="#EFF4FF"/>
</mask>
<g mask="url(#mask0_337_6014)">
<path d="M100.21 135.155C100.21 139.736 96.4709 143.574 91.7346 143.574H46.4906C41.879 143.574 38.0151 139.86 38.0151 135.155V29.4192C38.0151 24.8382 41.7543 21 46.4906 21H92.1086C96.7202 21 100.584 24.7144 100.584 29.4192V135.279H100.21V135.155Z" fill="#EEF1F4"/>
<g filter="url(#filter0_d_337_6014)">
<path d="M91.9839 21C96.5956 21 100.459 24.7144 100.459 29.4192V135.526C100.459 140.107 96.7202 143.946 91.9839 143.946H46.4906C41.879 143.946 38.0151 140.231 38.0151 135.526V29.4192C38.0151 24.8382 41.7543 21 46.4906 21H91.9839Z" fill="white"/>
</g>
<path d="M96.0969 29.0478V135.155C96.0969 136.764 95.2245 138.003 93.9781 138.745C93.3549 138.993 92.7317 139.241 91.9839 139.241H46.4905C45.992 139.241 45.4934 139.117 44.9949 138.993C43.3746 138.498 42.3774 137.012 42.3774 135.155V29.4192C42.3774 27.562 43.4992 26.2001 44.9949 25.581C45.4934 25.4572 45.992 25.3334 46.4905 25.3334H53.2211C54.0935 25.3334 54.7167 25.9525 54.7167 26.8192C54.7167 28.5525 56.2124 30.0383 57.9573 30.0383H81.0156C82.7606 30.0383 84.2562 28.5525 84.2562 26.8192C84.2562 25.9525 85.1275 25 86 25H92.1085C92.8563 25 93.4795 25.2096 94.1027 25.581C95.2245 26.2001 96.0969 27.4382 96.0969 29.0478Z" fill="white"/>
<path d="M41.4844 113.246H7.33323C4.59116 113.246 2.34766 111.017 2.34766 108.293V66.8162C2.34766 64.0923 4.59116 61.8637 7.33323 61.8637H41.4844C44.2264 61.8637 46.4699 64.0923 46.4699 66.8162V108.293C46.5946 111.017 44.3511 113.246 41.4844 113.246Z" fill="white"/>
<path d="M32.7599 99.0074H9.07842C8.33059 99.0074 7.83203 98.3883 7.83203 97.7693C7.83203 97.0264 8.45523 96.5311 9.07842 96.5311H32.8845C33.6324 96.5311 34.1309 97.1502 34.1309 97.7693C34.0063 98.3883 33.5077 99.0074 32.7599 99.0074Z" fill="#EEF1F4"/>
<path d="M19.5481 106.065H9.07842C8.33059 106.065 7.83203 105.446 7.83203 104.827C7.83203 104.208 8.45523 103.588 9.07842 103.588H19.5481C20.296 103.588 20.7945 104.208 20.7945 104.827C20.6699 105.569 20.1713 106.065 19.5481 106.065Z" fill="#EEF1F4"/>
<path d="M36.6236 73.6258C36.499 73.502 36.3744 73.3782 36.2497 73.3782C34.7541 72.1401 33.383 70.902 31.8874 69.7877C31.7627 69.6639 31.5134 69.54 31.2642 69.54C30.1424 69.54 29.0206 69.54 27.8989 69.54C27.4003 69.54 27.1511 69.7877 27.1511 70.2829C27.0264 71.3972 26.1539 72.3877 25.0322 72.3877C23.7858 72.3877 22.7887 71.521 22.664 70.4067C22.5394 69.2924 22.2901 69.6639 18.8002 69.54C18.4263 69.54 18.177 69.6639 17.8031 69.9115C16.3074 71.1496 14.8118 72.3877 13.4407 73.502C13.3161 73.502 13.3161 73.6258 13.1915 73.6258C12.6929 73.9973 12.6929 74.2449 13.0668 74.7402C13.8147 75.6068 14.5625 76.4735 15.1857 77.3402C15.5596 77.7116 15.6843 77.8355 16.4321 77.464C16.806 77.3402 17.4292 76.9688 18.177 76.5973V87.6166C18.177 88.3595 18.3017 88.6071 19.1741 88.6071C22.9133 88.6071 26.6525 88.6071 30.3917 88.6071C31.2642 88.6071 31.3888 88.4833 31.3888 87.6166V76.5973C32.2613 76.9688 32.8845 77.3402 33.2584 77.464C34.0062 77.8355 34.1309 77.7116 34.5048 77.3402C35.2526 76.4735 36.0004 75.6068 36.7483 74.7402C37.1222 74.3687 37.1222 73.9973 36.6236 73.6258Z" fill="#EEF1F4"/>
<path d="M29.8935 77.3402L28.6471 78.2069C28.5224 78.3307 28.1485 78.3307 28.0239 78.2069L26.7775 77.3402C26.6528 77.2164 26.6528 77.0926 26.6528 77.0926V75.1116C26.6528 74.9878 26.7775 74.864 26.9021 74.864H29.7688C29.8935 74.864 30.0181 74.9878 30.0181 75.1116V77.0926C30.0181 77.2164 29.8935 77.3402 29.8935 77.3402Z" fill="#F9FAFB"/>
<path d="M16.6811 77.464C15.9333 77.8354 15.8086 77.7116 15.4347 77.3402C14.6869 76.4735 13.939 75.6068 13.3159 74.7401C12.9419 74.2449 12.9419 73.9973 13.4405 73.6258C13.5651 73.6258 13.5651 73.502 13.6898 73.502L16.6811 77.464Z" fill="#F9FAFB"/>
<path d="M36.8727 74.7402C36.1249 75.6069 35.377 76.4735 34.6292 77.3402C34.2553 77.7117 34.1306 77.7117 33.3828 77.464L36.3742 73.3782C36.4988 73.502 36.6234 73.6259 36.7481 73.6259C37.2466 73.9973 37.2466 74.3687 36.8727 74.7402Z" fill="#F9FAFB"/>
<path d="M132.782 113.246H98.6311C95.889 113.246 93.6455 111.017 93.6455 108.293V66.8162C93.6455 64.0923 95.889 61.8637 98.6311 61.8637H132.782C135.524 61.8637 137.768 64.0923 137.768 66.8162V108.293C137.768 111.017 135.524 113.246 132.782 113.246Z" fill="white"/>
<path d="M124.058 99.0074H100.252C99.5039 99.0074 99.0054 98.3883 99.0054 97.7693C99.0054 97.0264 99.6286 96.5311 100.252 96.5311H124.058C124.806 96.5311 125.304 97.1502 125.304 97.7693C125.304 98.3883 124.681 99.0074 124.058 99.0074Z" fill="#EEF1F4"/>
<path d="M110.721 106.065H100.252C99.5039 106.065 99.0054 105.446 99.0054 104.827C99.0054 104.208 99.6286 103.588 100.252 103.588H110.721C111.469 103.588 111.968 104.208 111.968 104.827C111.968 105.569 111.469 106.065 110.721 106.065Z" fill="#EEF1F4"/>
<path d="M122.686 89.35L118.449 89.9691C118.199 89.9691 118.075 89.8453 117.95 89.7215L117.825 89.2262L115.083 78.5784L114.834 76.5974L112.092 88.9786L111.967 89.5977C111.967 89.8453 111.718 89.9691 111.469 89.8453L107.854 89.4738H107.48C107.231 89.4738 107.106 89.2262 107.106 88.9786L107.231 88.4833L109.973 70.902L110.098 70.1591C110.098 70.0353 110.222 69.9115 110.472 69.9115H119.072C119.196 69.9115 119.446 70.0353 119.446 70.1591L119.57 70.7782V70.902L123.06 88.4833V88.731C123.06 89.1024 122.936 89.2262 122.686 89.35Z" fill="#EEF1F4"/>
<path d="M119.571 74.1211C118.449 73.6259 117.576 72.883 116.828 71.8925C116.704 71.7687 116.828 71.6449 116.953 71.5211C117.078 71.3973 117.202 71.5211 117.327 71.6449C117.95 72.6354 118.698 73.2544 119.695 73.6259C119.82 73.7497 119.944 73.8735 119.82 73.9973C119.82 73.9973 119.695 74.1211 119.571 74.1211Z" fill="#F9FAFB"/>
<path d="M110.222 74.1211C111.344 73.6259 112.216 72.883 112.964 71.8925C113.089 71.7687 112.964 71.6449 112.839 71.5211C112.715 71.3973 112.59 71.5211 112.465 71.6449C111.842 72.6354 111.094 73.2544 110.097 73.6259C109.973 73.7497 109.848 73.8735 109.973 73.9973C109.973 73.9973 110.097 74.1211 110.222 74.1211Z" fill="#F9FAFB"/>
<path d="M114.834 75.1116C114.71 75.1116 114.585 74.9878 114.585 74.864V71.1496C114.585 71.0258 114.71 70.902 114.834 70.902C114.959 70.902 115.084 71.0258 115.084 71.1496V74.864C115.084 74.9878 114.959 75.1116 114.834 75.1116Z" fill="#F9FAFB"/>
<path d="M119.571 71.0266H109.974L110.098 70.2838C110.098 70.1599 110.223 70.0361 110.472 70.0361H119.072C119.197 70.0361 119.446 70.1599 119.446 70.2838L119.571 71.0266Z" fill="#F9FAFB"/>
<path d="M111.968 89.1024L111.843 89.7215C111.843 89.9691 111.594 90.0929 111.344 89.9691L107.73 89.5977H107.356C107.107 89.5977 106.982 89.35 106.982 89.1024L107.107 88.6072L111.968 89.1024Z" fill="#F9FAFB"/>
<path d="M122.687 89.35L118.449 89.9691C118.2 89.9691 118.075 89.8453 117.95 89.7215L117.826 89.2262L122.936 88.731V88.9786C123.061 89.1024 122.936 89.2262 122.687 89.35Z" fill="#F9FAFB"/>
<g filter="url(#filter1_d_337_6014)">
<path d="M92.2751 122.41H46.8216C43.0836 122.41 40.0933 119.44 40.0933 115.727V60.4748C40.0933 56.7617 43.0836 53.7911 46.8216 53.7911H92.2751C96.013 53.7911 99.0034 56.7617 99.0034 60.4748V115.727C98.8539 119.44 95.8635 122.41 92.2751 122.41Z" fill="white"/>
</g>
<path d="M80.6129 103.399H49.0646C48.1675 103.399 47.4199 102.656 47.4199 101.765C47.4199 100.874 48.1675 100.131 49.0646 100.131H80.6129C81.5101 100.131 82.2577 100.874 82.2577 101.765C82.2577 102.656 81.5101 103.399 80.6129 103.399Z" fill="#EEF1F4"/>
<path d="M62.9698 112.756H49.0646C48.1675 112.756 47.4199 112.013 47.4199 111.122C47.4199 110.231 48.1675 109.488 49.0646 109.488H62.9698C63.8669 109.488 64.6145 110.231 64.6145 111.122C64.465 112.013 63.8669 112.756 62.9698 112.756Z" fill="#EEF1F4"/>
<path d="M88.2383 82.0111C88.0888 81.714 87.9393 81.417 87.7897 81.2685C87.1917 80.5258 86.4441 79.7832 85.0984 79.3376C83.3042 78.7435 81.809 78.595 80.4633 78.4465C80.1643 78.4465 79.7158 78.4465 79.4167 78.2979C75.3797 77.8524 72.0903 77.2583 64.9135 68.3467C64.1659 67.4555 63.8668 66.5644 62.9697 65.6732C62.2221 64.9306 60.8765 65.8217 59.2318 66.1188C58.9327 66.2673 58.4842 66.2673 58.1851 66.2673C56.8395 66.2673 55.3443 66.1188 53.9986 65.9703C52.0549 65.8217 53.251 64.7821 50.8588 79.3376C50.7092 80.3773 50.5597 81.5655 50.4102 82.6052C50.4102 83.4963 50.2607 84.536 50.4102 85.4272C50.4102 85.8728 50.4102 86.4669 51.0083 86.4669C57.1385 87.061 61.026 86.7639 70.7447 86.7639C75.6788 86.7639 80.4634 86.7639 85.2479 85.8728L86.4441 85.7242C87.3412 85.5757 88.5373 85.2787 88.5373 84.536C88.6868 83.7934 88.5373 82.9022 88.2383 82.0111Z" fill="#F18C53"/>
<path d="M80.6125 78.4475L79.5659 81.7151C73.2861 81.418 66.8569 77.5563 63.5675 72.5064C62.3713 70.7241 61.4742 68.7933 60.1286 67.308C60.1286 67.308 59.68 66.8624 59.2314 66.4169C60.8761 66.1198 62.0723 65.0801 62.9694 65.9713C63.5675 66.5654 63.8665 67.1595 64.3151 67.7536C64.4646 67.9021 64.6141 68.1992 64.7636 68.3477L64.9131 68.4962C65.3617 69.0903 65.8102 69.5359 66.2588 69.9815C66.4083 70.13 66.5578 70.2785 66.7074 70.4271C67.1559 71.0212 67.6045 71.4668 68.053 71.9123C68.2025 72.0609 68.352 72.2094 68.5016 72.3579C68.9501 72.8035 69.3987 73.2491 69.8472 73.6946C69.9967 73.8432 70.1463 73.9917 70.2958 74.1402C70.7443 74.5858 71.1929 74.8829 71.6414 75.1799C71.791 75.3284 72.09 75.477 72.2395 75.6255C72.5386 75.9225 72.9871 76.0711 73.2861 76.3681C73.5852 76.5166 73.7347 76.6652 74.0337 76.8137C74.7813 77.1107 75.3794 77.4078 75.9775 77.7048C76.2765 77.8534 76.426 77.8534 76.7251 77.8534C77.7717 78.1504 78.6688 78.1504 79.7154 78.299C79.8649 78.4475 80.164 78.4475 80.6125 78.4475Z" fill="#F18C53"/>
<path d="M88.6867 84.8331C88.6867 85.5757 87.4905 85.8728 86.5934 86.0213L85.3973 86.1699C80.6127 87.061 75.6786 87.061 70.894 87.061C61.1754 87.061 57.2879 87.3581 51.1576 86.764C50.7091 86.764 50.7091 86.1699 50.5596 85.7243C50.5596 84.8331 50.5596 83.7934 50.5596 82.9023C53.9985 83.1993 68.6513 83.942 79.7156 82.7538C82.8555 82.4567 85.5468 82.0111 87.7896 81.2685C87.9391 81.5655 88.0886 81.7141 88.2381 82.0111C88.5372 82.9023 88.6867 83.7934 88.6867 84.8331Z" fill="#EEF1F4"/>
<path d="M88.2383 82.0111C85.9955 82.7537 83.6032 83.1993 81.2109 83.4964C80.7624 83.4964 80.4633 83.4964 80.1643 83.3478C80.0148 83.1993 79.8653 82.9023 79.8653 82.7537C79.8653 82.6052 79.8653 82.4567 79.8653 82.4567C79.7157 81.1199 79.5662 79.7832 79.7157 78.4465C81.3604 78.595 83.1547 78.7435 85.3974 79.4862C86.7431 79.9317 87.4907 80.5258 88.0888 81.417C87.9392 81.417 88.0888 81.714 88.2383 82.0111Z" fill="#F9FAFB"/>
<path d="M64.7636 68.1982C64.7636 68.3467 64.7636 68.3467 64.7636 68.1982L63.1189 69.5349C63.1189 69.5349 62.9694 69.6834 62.8199 69.6834C62.6703 69.6834 62.5208 69.6834 62.5208 69.5349C62.3713 69.3864 62.3713 69.0893 62.5208 68.9408L64.1655 67.6041C64.1655 67.6041 64.1655 67.6041 64.315 67.6041C64.4646 67.9011 64.6141 68.0496 64.7636 68.1982Z" fill="#F9FAFB"/>
<path d="M66.5581 70.426C66.5581 70.426 66.5581 70.5745 66.4086 70.5745C65.9601 71.1686 65.362 71.6142 64.7639 72.0598C64.7639 72.0598 64.6144 72.2083 64.4649 72.2083C64.3154 72.2083 64.1658 72.2083 64.1658 72.0598C64.0163 71.9113 64.0163 71.6142 64.1658 71.4657C64.7639 71.0201 65.2125 70.5745 65.8105 69.9804C65.9601 69.8319 65.9601 69.8319 66.1096 69.8319C66.2591 70.129 66.4086 70.2775 66.5581 70.426Z" fill="#F9FAFB"/>
<path d="M68.3526 72.3569C68.3526 72.5055 68.3526 72.5054 68.2031 72.5054C67.605 73.0996 67.1564 73.6937 66.5584 74.1392C66.4088 74.2878 66.4088 74.2878 66.2593 74.2878C66.1098 74.2878 66.1098 74.2878 65.9603 74.1392C65.8108 73.9907 65.8108 73.6937 65.9603 73.5451C66.5584 72.951 67.0069 72.3569 67.605 71.9113C67.605 71.9113 67.7545 71.7628 67.904 71.7628C68.0535 72.0599 68.2031 72.2084 68.3526 72.3569Z" fill="#F9FAFB"/>
<path d="M70.2955 74.1392C70.2955 74.2877 70.2956 74.2877 70.146 74.2877C69.548 74.7333 68.9499 75.3274 68.3518 76.07C68.2023 76.2186 68.2023 76.2186 68.0528 76.2186C67.9033 76.2186 67.9033 76.2186 67.7537 76.07C67.6042 75.9215 67.6042 75.6245 67.7537 75.4759C68.3518 74.7333 68.9499 74.1392 69.548 73.5451H69.6975C69.847 73.8422 69.9965 74.1392 70.2955 74.1392Z" fill="#F9FAFB"/>
<path d="M72.09 75.773C71.6415 76.5156 71.1929 77.2583 70.8939 78.0009C70.8939 78.1494 70.7444 78.1494 70.5949 78.1494H70.4453C70.2958 78.0009 70.1463 77.8524 70.2958 77.5553C70.7444 76.8127 71.0434 76.0701 71.492 75.3274C71.492 75.3274 71.492 75.1789 71.6415 75.1789C71.791 75.4759 71.9405 75.6245 72.09 75.773Z" fill="#F9FAFB"/>
<path d="M73.884 76.8127L73.585 79.1891C73.585 79.3376 73.4355 79.4862 73.1364 79.4862C72.9869 79.4862 72.8374 79.1891 72.8374 79.0406L73.286 76.5157C73.286 76.5157 73.286 76.3671 73.4355 76.3671C73.4355 76.5157 73.585 76.6642 73.884 76.8127Z" fill="#F9FAFB"/>
<path d="M76.5755 77.8524C76.426 78.595 76.426 79.1891 76.2765 79.9317C76.2765 80.0803 76.127 80.2288 75.8279 80.2288C75.8279 80.2288 75.828 80.2288 75.6784 80.2288C75.5289 80.2288 75.3794 79.9318 75.3794 79.7832C75.5289 79.0406 75.6784 78.4465 75.6784 77.7039C75.9775 77.7039 76.2765 77.8524 76.5755 77.8524Z" fill="#F9FAFB"/>
<path d="M57.4372 75.773C59.1714 75.773 60.5771 74.3766 60.5771 72.654C60.5771 70.9314 59.1714 69.5349 57.4372 69.5349C55.7031 69.5349 54.2974 70.9314 54.2974 72.654C54.2974 74.3766 55.7031 75.773 57.4372 75.773Z" fill="white"/>
<path d="M57.4375 73.9907C58.1807 73.9907 58.7831 73.3922 58.7831 72.6539C58.7831 71.9157 58.1807 71.3172 57.4375 71.3172C56.6943 71.3172 56.0918 71.9157 56.0918 72.6539C56.0918 73.3922 56.6943 73.9907 57.4375 73.9907Z" fill="#F18C53"/>
<path fill-rule="evenodd" clip-rule="evenodd" d="M82.7021 92.0967L85.6463 89.1525L89.9009 93.4071C91.5272 92.8949 93.3759 93.2834 94.665 94.5725L101.659 101.567C103.504 103.412 103.504 106.403 101.659 108.248C99.814 110.093 96.8225 110.093 94.9775 108.248L87.9834 101.254C86.6393 99.91 86.2743 97.9575 86.8885 96.2831L82.7021 92.0967Z" fill="white"/>
<g filter="url(#filter2_d_337_6014)">
<path d="M51.7365 59.883C48.5199 63.1695 46.3294 67.3568 45.4419 71.9154C44.5545 76.4739 45.01 81.199 46.7508 85.4931C48.4916 89.7871 51.4396 93.4573 55.2219 96.0395C59.0042 98.6217 63.451 100 68 100C72.549 100 76.9958 98.6217 80.7781 96.0395C84.5604 93.4573 87.5084 89.7871 89.2492 85.4931C90.99 81.199 91.4455 76.4739 90.5581 71.9154C89.6706 67.3568 87.4801 63.1695 84.2635 59.883C82.1277 57.7008 79.5922 55.9698 76.8017 54.7888C74.0112 53.6078 71.0204 53 68 53C64.9796 53 61.9888 53.6078 59.1983 54.7888C56.4078 55.9698 53.8723 57.7008 51.7365 59.883ZM81.2637 90.0521C78.6404 92.7325 75.2981 94.5578 71.6594 95.2973C68.0208 96.0368 64.2492 95.6573 60.8217 94.2067C57.3942 92.7561 54.4646 90.2996 52.4035 87.1478C50.3423 83.9961 49.2422 80.2906 49.2422 76.5C49.2422 72.7094 50.3424 69.004 52.4035 65.8522C54.4646 62.7004 57.3942 60.2439 60.8217 58.7933C64.2493 57.3428 68.0208 56.9632 71.6595 57.7027C75.2981 58.4422 78.6404 60.2676 81.2637 62.9479C84.7815 66.5422 86.7578 71.417 86.7578 76.5C86.7577 81.583 84.7815 86.4579 81.2637 90.0521Z" fill="#F18C53"/>
</g>
</g>
<defs>
<filter id="filter0_d_337_6014" x="-31.9849" y="-50" width="202.444" height="262.946" filterUnits="userSpaceOnUse" color-interpolation-filters="sRGB">
<feFlood flood-opacity="0" result="BackgroundImageFix"/>
<feColorMatrix in="SourceAlpha" type="matrix" values="0 0 0 0 0 0 0 0 0 0 0 0 0 0 0 0 0 0 127 0" result="hardAlpha"/>
<feOffset dy="-1"/>
<feGaussianBlur stdDeviation="35"/>
<feComposite in2="hardAlpha" operator="out"/>
<feColorMatrix type="matrix" values="0 0 0 0 0 0 0 0 0 0.170527 0 0 0 0 0.504167 0 0 0 0.14 0"/>
<feBlend mode="normal" in2="BackgroundImageFix" result="effect1_dropShadow_337_6014"/>
<feBlend mode="normal" in="SourceGraphic" in2="effect1_dropShadow_337_6014" result="shape"/>
</filter>
<filter id="filter1_d_337_6014" x="-29.9067" y="-17.2089" width="198.91" height="208.619" filterUnits="userSpaceOnUse" color-interpolation-filters="sRGB">
<feFlood flood-opacity="0" result="BackgroundImageFix"/>
<feColorMatrix in="SourceAlpha" type="matrix" values="0 0 0 0 0 0 0 0 0 0 0 0 0 0 0 0 0 0 127 0" result="hardAlpha"/>
<feOffset dy="-1"/>
<feGaussianBlur stdDeviation="35"/>
<feComposite in2="hardAlpha" operator="out"/>
<feColorMatrix type="matrix" values="0 0 0 0 0 0 0 0 0 0.170527 0 0 0 0 0.504167 0 0 0 0.14 0"/>
<feBlend mode="normal" in2="BackgroundImageFix" result="effect1_dropShadow_337_6014"/>
<feBlend mode="normal" in="SourceGraphic" in2="effect1_dropShadow_337_6014" result="shape"/>
</filter>
<filter id="filter2_d_337_6014" x="37" y="50" width="62" height="63" filterUnits="userSpaceOnUse" color-interpolation-filters="sRGB">
<feFlood flood-opacity="0" result="BackgroundImageFix"/>
<feColorMatrix in="SourceAlpha" type="matrix" values="0 0 0 0 0 0 0 0 0 0 0 0 0 0 0 0 0 0 127 0" result="hardAlpha"/>
<feOffset dy="5"/>
<feGaussianBlur stdDeviation="4"/>
<feColorMatrix type="matrix" values="0 0 0 0 0.968627 0 0 0 0 0.254902 0 0 0 0 0.564706 0 0 0 0.18 0"/>
<feBlend mode="normal" in2="BackgroundImageFix" result="effect1_dropShadow_337_6014"/>
<feBlend mode="normal" in="SourceGraphic" in2="effect1_dropShadow_337_6014" result="shape"/>
</filter>
</defs>
</svg>
