<svg width="136" height="136" viewBox="0 0 136 136" fill="none" xmlns="http://www.w3.org/2000/svg">
<circle cx="68" cy="68" r="68" fill="#F9FAFB"/>
<mask id="mask0_377_30434" style="mask-type:alpha" maskUnits="userSpaceOnUse" x="0" y="0" width="136" height="136">
<circle cx="68" cy="68" r="68" fill="#EFF4FF"/>
</mask>
<g mask="url(#mask0_377_30434)">
<path d="M76.8957 107.11H62.6684C59.3719 107.11 56.5958 110.151 56.5958 113.762V121.555C56.5958 129.538 62.4949 136 69.7821 136C77.0692 136 82.9684 129.538 82.9684 121.555V113.762C82.9684 109.961 80.1923 107.11 76.8957 107.11Z" fill="white"/>
<path d="M75.633 38.2229H61.4058V31.1115C61.4058 27.1221 64.5288 24 68.5194 24C72.51 24 75.633 27.1221 75.633 31.1115V38.2229Z" fill="#F18C53"/>
<g filter="url(#filter0_d_377_30434)">
<path d="M99.9236 67.016V63.0267C99.9236 45.6816 85.8698 31.6321 68.5195 31.6321C51.1691 31.6321 37.1154 45.6816 37.1154 63.0267V67.016C37.1154 100.665 11.6104 122.694 11.6104 122.694H125.255C125.255 122.694 99.9236 100.665 99.9236 67.016Z" fill="white"/>
</g>
</g>
<g filter="url(#filter1_d_377_30434)">
<path d="M86.7686 76.2266C85.6248 74.6141 85.1672 72.8865 85.396 70.9285C85.7392 68.1643 85.6248 68.0491 83.1084 66.8973C81.2783 66.0911 80.0201 64.8242 79.2195 62.9814C78.0757 60.4475 77.9613 60.3323 75.2162 60.6778C73.2717 60.9082 71.6704 60.4475 70.0691 59.2957C67.6671 57.5681 67.6671 57.5681 65.2651 59.2957C63.7782 60.4475 62.0625 60.9082 60.2324 60.6778C57.4873 60.3323 57.3729 60.4475 56.2291 62.9814C55.4284 64.8242 54.1702 66.0911 52.3402 66.8973C49.8238 68.0491 49.7094 68.1643 50.0526 70.9285C50.2813 72.8865 49.8238 74.6141 48.68 76.2266C47.0787 78.5301 47.0787 78.6453 48.68 80.9488C49.8238 82.5612 50.2813 84.2889 50.0526 86.2469C49.7094 89.0111 49.8238 89.1263 52.3402 90.278C54.1702 91.0842 55.4284 92.3512 56.2291 94.194C57.3729 96.7279 57.4873 96.843 60.2324 96.4975C62.1768 96.2671 63.7782 96.7279 65.3795 97.8796C67.7815 99.6072 67.7815 99.6072 70.1835 97.8796C70.7554 97.4189 71.4416 97.0734 72.0135 96.843C73.043 96.4975 74.0724 96.3823 75.2162 96.4975C75.5593 96.4975 75.9025 96.4975 76.2456 96.6127C77.6182 96.9582 78.4188 96.2672 78.8763 95.1154C78.9907 94.7699 79.2195 94.5395 79.3339 94.194C80.1345 92.3512 81.3927 91.0842 83.2228 90.278C85.7391 89.1263 85.8535 89.0111 85.5104 86.2469C85.396 84.9799 85.5104 83.8282 85.9679 82.7916C86.1967 82.1005 86.5398 81.5247 86.9973 80.9488C88.3699 78.6453 88.3699 78.5301 86.7686 76.2266Z" fill="#F18C53"/>
</g>
<path opacity="0.12" d="M67.667 96.2672C67.0951 96.2672 66.4088 95.9216 65.3794 95.1154C64.1212 94.194 62.863 93.8485 61.3761 94.0788C61.2617 94.0788 61.1473 94.0788 61.0329 94.0788C60.8042 94.0788 60.5754 93.9636 60.5754 93.6181C60.5754 93.3878 60.6898 93.1574 61.0329 93.1574C61.1473 93.1574 61.2617 93.1574 61.3761 93.1574C63.0918 92.9271 64.5787 93.3878 66.0656 94.3092C66.9807 95.0002 67.4382 95.3457 67.8957 95.3457C68.2389 95.3457 68.8108 95.0002 69.6114 94.3092C69.8402 94.194 70.069 94.194 70.2977 94.4243C70.4121 94.6547 70.4121 94.885 70.1833 95.1154C68.8108 95.9216 68.2389 96.2672 67.667 96.2672ZM75.3304 94.194C75.1017 94.194 74.9873 94.194 74.7585 94.0788C74.6442 94.0788 74.6442 94.0788 74.5298 94.0788C74.301 94.0788 74.0723 94.0788 73.8435 94.0788C73.386 93.9636 72.8141 93.9636 72.3566 94.0788C72.1278 94.0788 71.899 93.9636 71.7847 93.7333C71.6703 93.5029 71.899 93.2726 72.1278 93.1574C72.6997 93.0422 73.2716 93.0422 73.9579 93.1574C74.1866 93.1574 74.301 93.1574 74.5298 93.1574C74.6442 93.1574 74.7585 93.1574 74.8729 93.1574C74.8729 93.1574 74.8729 93.1574 74.9873 93.1574C75.2161 93.1574 75.4448 93.2726 75.5592 93.1574C75.788 93.1574 76.0167 93.2726 76.1311 93.5029C76.1311 93.7333 76.0167 93.9636 75.788 94.0788C75.5592 94.194 75.4448 94.194 75.3304 94.194ZM77.2749 92.3512C77.1605 92.3512 77.1605 92.3512 77.0461 92.3512C76.8174 92.236 76.703 92.0057 76.8174 91.7753C76.8174 91.6601 76.9318 91.6601 76.9318 91.5449C77.0461 91.3146 77.0461 91.1994 77.1605 90.9691C77.2749 90.7387 77.5037 90.6235 77.7324 90.7387C77.9612 90.8539 78.0756 91.0842 77.9612 91.3146C77.8468 91.4298 77.8468 91.6601 77.7324 91.7753C77.7324 91.8905 77.618 92.0057 77.618 92.0057C77.618 92.236 77.3893 92.3512 77.2749 92.3512ZM52.6832 84.1737C52.4544 84.1737 52.2257 83.9433 52.2257 83.713C52.1113 82.6764 51.7681 81.6398 51.0819 80.7184C50.5099 79.797 50.0524 79.2211 49.938 78.6453C49.938 78.4149 50.0524 78.1846 50.2812 78.0694C50.5099 78.0694 50.7387 78.1846 50.8531 78.4149C50.8531 78.7604 51.1962 79.2211 51.7681 80.0274C52.5688 81.1791 52.9119 82.2157 53.0263 83.4826C53.1407 83.9433 53.0263 84.1737 52.6832 84.1737ZM82.7651 74.9596C82.5364 74.9596 82.422 74.8445 82.3076 74.6141C82.0789 73.8079 82.0789 73.0017 82.1932 72.0802C82.422 70.0071 82.422 70.0071 80.4775 69.2009C78.8762 68.5098 77.7324 67.358 76.9318 65.6304C76.1311 63.6724 76.1311 63.6724 74.0723 63.9028C73.8435 63.9028 73.6147 63.7876 73.6147 63.4421C73.6147 63.2117 73.7291 62.9814 74.0723 62.9814C76.5886 62.6358 76.9318 62.8662 77.9612 65.1697C78.5331 66.5518 79.5625 67.5884 80.9351 68.1643C83.2227 69.2009 83.4514 69.5464 83.1083 72.0802C82.9939 72.8865 83.1083 73.5775 83.2227 74.2686C83.337 74.4989 83.1083 74.7293 82.8795 74.8445C82.7651 74.9596 82.7651 74.9596 82.7651 74.9596ZM52.6832 74.0382C52.34 74.0382 52.2257 73.8079 52.2257 73.5775C52.2257 73.1168 52.2257 72.7713 52.2257 72.3106C51.9969 69.8919 52.1113 69.4312 54.3989 68.5098C55.7714 67.8187 56.8009 66.8973 57.4871 65.4001C58.5166 63.0965 58.8597 62.8662 61.3761 63.2117C62.2911 63.3269 63.2061 63.2117 64.0068 62.8662H64.1212C64.3499 62.751 64.5787 62.8662 64.6931 63.0965C64.8075 63.3269 64.6931 63.5572 64.4643 63.6724H64.3499C63.3205 64.0179 62.2911 64.2483 61.2617 64.0179C59.2028 63.7876 59.2028 63.7876 58.2878 65.6304C57.6015 67.2429 56.3433 68.3946 54.742 69.2009C52.9119 70.0071 52.9119 70.0071 53.1407 72.0802C53.2551 72.6561 53.2551 73.1168 53.1407 73.5775C53.1407 73.8079 52.9119 74.0382 52.6832 74.0382ZM70.6409 63.4421C70.5265 63.4421 70.5265 63.4421 70.4121 63.4421C70.069 63.2117 69.7258 63.0965 69.3827 62.751C69.1539 62.5207 68.9252 62.4055 68.6964 62.2903C68.4676 62.1751 68.4676 61.8296 68.582 61.5993C68.6964 61.3689 69.0395 61.3689 69.2683 61.4841C69.4971 61.5993 69.7258 61.8296 69.9546 61.9448C70.2977 62.1751 70.5265 62.4055 70.8696 62.5207C71.0984 62.6358 71.2128 62.8662 71.0984 63.0965C70.984 63.3269 70.8696 63.4421 70.6409 63.4421Z" fill="white"/>
<path d="M65.2377 76.5293C66.5509 75.2069 66.5509 73.1725 65.2377 71.8502C64.6316 71.2398 63.8234 70.9347 62.9143 70.9347C62.0051 70.9347 61.197 71.2398 60.5909 71.9519C59.2776 73.2743 59.2776 75.3087 60.5909 76.631C61.197 77.2414 62.0051 77.6482 62.9143 77.6482C63.8234 77.4448 64.6316 77.1396 65.2377 76.5293ZM62.9143 72.9691C63.6214 72.9691 64.1265 73.5794 64.1265 74.1897C64.1265 74.9018 63.5204 75.4104 62.9143 75.4104C62.2072 75.4104 61.7021 74.9018 61.7021 74.1897C61.7021 73.4777 62.3082 72.9691 62.9143 72.9691Z" fill="white"/>
<path d="M74.6327 81.005C74.0266 80.3947 73.2185 79.9878 72.3093 79.9878C71.4001 79.9878 70.592 80.293 69.9859 81.005C69.3798 81.6154 68.9757 82.4291 68.9757 83.3446C68.9757 84.2601 69.2788 85.0739 69.9859 85.6842C70.592 86.2945 71.4001 86.7014 72.3093 86.7014C73.2185 86.7014 74.0266 86.3962 74.6327 85.6842C75.2388 85.0739 75.6429 84.2601 75.6429 83.3446C75.5419 82.5308 75.2388 81.6154 74.6327 81.005ZM72.3093 84.667C71.6022 84.667 71.0971 84.0566 71.0971 83.4463C71.0971 82.7343 71.7032 82.2257 72.3093 82.2257C73.0164 82.2257 73.5215 82.836 73.5215 83.4463C73.6225 84.0566 73.0164 84.667 72.3093 84.667Z" fill="white"/>
<path d="M73.9253 72.4605C73.7232 72.2571 73.4202 72.0536 73.0161 72.0536C72.612 72.0536 72.41 72.2571 72.208 72.4605L61.7021 83.0394C61.5001 83.2429 61.298 83.548 61.298 83.9549C61.298 84.2601 61.3991 84.5652 61.7021 84.8704C61.9041 85.0738 62.2072 85.2773 62.6113 85.2773C63.0153 85.2773 63.2174 85.1756 63.5204 84.8704L74.0263 74.2915C74.4303 73.7829 74.4303 72.9691 73.9253 72.4605Z" fill="white"/>
<defs>
<filter id="filter0_d_377_30434" x="-58.3896" y="-39.3679" width="253.645" height="231.062" filterUnits="userSpaceOnUse" color-interpolation-filters="sRGB">
<feFlood flood-opacity="0" result="BackgroundImageFix"/>
<feColorMatrix in="SourceAlpha" type="matrix" values="0 0 0 0 0 0 0 0 0 0 0 0 0 0 0 0 0 0 127 0" result="hardAlpha"/>
<feOffset dy="-1"/>
<feGaussianBlur stdDeviation="35"/>
<feComposite in2="hardAlpha" operator="out"/>
<feColorMatrix type="matrix" values="0 0 0 0 0 0 0 0 0 0.170527 0 0 0 0 0.504167 0 0 0 0.14 0"/>
<feBlend mode="normal" in2="BackgroundImageFix" result="effect1_dropShadow_377_30434"/>
<feBlend mode="normal" in="SourceGraphic" in2="effect1_dropShadow_377_30434" result="shape"/>
</filter>
<filter id="filter1_d_377_30434" x="39.479" y="55" width="56.5208" height="57.1753" filterUnits="userSpaceOnUse" color-interpolation-filters="sRGB">
<feFlood flood-opacity="0" result="BackgroundImageFix"/>
<feColorMatrix in="SourceAlpha" type="matrix" values="0 0 0 0 0 0 0 0 0 0 0 0 0 0 0 0 0 0 127 0" result="hardAlpha"/>
<feOffset dy="5"/>
<feGaussianBlur stdDeviation="4"/>
<feColorMatrix type="matrix" values="0 0 0 0 0.968627 0 0 0 0 0.254902 0 0 0 0 0.564706 0 0 0 0.18 0"/>
<feBlend mode="normal" in2="BackgroundImageFix" result="effect1_dropShadow_377_30434"/>
<feBlend mode="normal" in="SourceGraphic" in2="effect1_dropShadow_377_30434" result="shape"/>
</filter>
</defs>
</svg>
