<svg width="137" height="136" viewBox="0 0 137 136" fill="none" xmlns="http://www.w3.org/2000/svg">
<path d="M77.3957 107.11H63.1684C59.8719 107.11 57.0958 110.151 57.0958 113.762V121.555C57.0958 129.538 62.9949 136 70.2821 136C77.5692 136 83.4684 129.538 83.4684 121.555V113.762C83.4684 109.961 80.6923 107.11 77.3957 107.11Z" fill="white"/>
<path d="M76.133 38.2229H61.9058V31.1115C61.9058 27.1221 65.0288 24 69.0194 24C73.01 24 76.133 27.1221 76.133 31.1115V38.2229Z" fill="#F18C53"/>
<g filter="url(#filter0_d_594_2462)">
<path d="M100.424 67.016V63.0267C100.424 45.6816 86.3698 31.6321 69.0195 31.6321C51.6691 31.6321 37.6154 45.6816 37.6154 63.0267V67.016C37.6154 100.665 12.1104 122.694 12.1104 122.694H125.755C125.755 122.694 100.424 100.665 100.424 67.016Z" fill="white"/>
</g>
<path d="M62 74C59.4829 74 57.3685 72.7603 56.5631 70.9783C56.3617 70.5909 56.6638 70.2035 57.1672 70.0485C57.6706 69.8936 58.174 70.126 58.3754 70.5134C58.8788 71.6756 60.3891 72.5279 62 72.5279C63.6109 72.5279 65.1212 71.7531 65.6246 70.5134C65.826 70.126 66.3294 69.8936 66.8328 70.0485C67.3362 70.2035 67.6383 70.5909 67.4369 70.9783C66.6315 72.8378 64.5171 74 62 74Z" fill="#F9FAFB"/>
<path d="M76 74C73.4829 74 71.3685 72.7603 70.5631 70.9783C70.3617 70.5909 70.6638 70.2035 71.1672 70.0485C71.6706 69.8936 72.174 70.126 72.3754 70.5134C72.8788 71.6756 74.3891 72.5279 76 72.5279C77.6109 72.5279 79.1212 71.7531 79.6246 70.5134C79.826 70.126 80.3294 69.8936 80.8328 70.0485C81.3362 70.2035 81.6383 70.5909 81.4369 70.9783C80.6315 72.8378 78.5171 74 76 74Z" fill="#F9FAFB"/>
<path d="M69 86C69.8284 86 70.5 85.3284 70.5 84.5C70.5 83.6716 69.8284 83 69 83C68.1716 83 67.5 83.6716 67.5 84.5C67.5 85.3284 68.1716 86 69 86Z" fill="#F9FAFB"/>
<path fill-rule="evenodd" clip-rule="evenodd" d="M83.2021 92.0967L86.1463 89.1525L90.4009 93.4071C92.0272 92.8949 93.8759 93.2834 95.165 94.5725L102.159 101.567C104.004 103.412 104.004 106.403 102.159 108.248C100.314 110.093 97.3225 110.093 95.4775 108.248L88.4834 101.254C87.1393 99.91 86.7743 97.9575 87.3885 96.2831L83.2021 92.0967Z" fill="#F9FAFB"/>
<g filter="url(#filter1_d_594_2462)">
<path d="M52.2365 59.883C49.0199 63.1695 46.8294 67.3568 45.9419 71.9154C45.0545 76.4739 45.51 81.199 47.2508 85.4931C48.9916 89.7871 51.9396 93.4573 55.7219 96.0395C59.5042 98.6217 63.951 100 68.5 100C73.049 100 77.4958 98.6217 81.2781 96.0395C85.0604 93.4573 88.0084 89.7871 89.7492 85.4931C91.49 81.199 91.9455 76.4739 91.0581 71.9154C90.1706 67.3568 87.9801 63.1695 84.7635 59.883C82.6277 57.7008 80.0922 55.9698 77.3017 54.7888C74.5112 53.6078 71.5204 53 68.5 53C65.4796 53 62.4888 53.6078 59.6983 54.7888C56.9078 55.9698 54.3723 57.7008 52.2365 59.883ZM81.7637 90.0521C79.1404 92.7325 75.7981 94.5578 72.1594 95.2973C68.5208 96.0368 64.7492 95.6573 61.3217 94.2067C57.8942 92.7561 54.9646 90.2996 52.9035 87.1478C50.8423 83.9961 49.7422 80.2906 49.7422 76.5C49.7422 72.7094 50.8424 69.004 52.9035 65.8522C54.9646 62.7004 57.8942 60.2439 61.3217 58.7933C64.7493 57.3428 68.5208 56.9632 72.1595 57.7027C75.7981 58.4422 79.1404 60.2676 81.7637 62.9479C85.2815 66.5422 87.2578 71.417 87.2578 76.5C87.2577 81.583 85.2815 86.4579 81.7637 90.0521Z" fill="#F18C53"/>
</g>
<defs>
<filter id="filter0_d_594_2462" x="-57.8896" y="-39.3679" width="253.645" height="231.062" filterUnits="userSpaceOnUse" color-interpolation-filters="sRGB">
<feFlood flood-opacity="0" result="BackgroundImageFix"/>
<feColorMatrix in="SourceAlpha" type="matrix" values="0 0 0 0 0 0 0 0 0 0 0 0 0 0 0 0 0 0 127 0" result="hardAlpha"/>
<feOffset dy="-1"/>
<feGaussianBlur stdDeviation="35"/>
<feComposite in2="hardAlpha" operator="out"/>
<feColorMatrix type="matrix" values="0 0 0 0 0 0 0 0 0 0.170527 0 0 0 0 0.504167 0 0 0 0.14 0"/>
<feBlend mode="normal" in2="BackgroundImageFix" result="effect1_dropShadow_594_2462"/>
<feBlend mode="normal" in="SourceGraphic" in2="effect1_dropShadow_594_2462" result="shape"/>
</filter>
<filter id="filter1_d_594_2462" x="37.5" y="50" width="62" height="63" filterUnits="userSpaceOnUse" color-interpolation-filters="sRGB">
<feFlood flood-opacity="0" result="BackgroundImageFix"/>
<feColorMatrix in="SourceAlpha" type="matrix" values="0 0 0 0 0 0 0 0 0 0 0 0 0 0 0 0 0 0 127 0" result="hardAlpha"/>
<feOffset dy="5"/>
<feGaussianBlur stdDeviation="4"/>
<feColorMatrix type="matrix" values="0 0 0 0 0.968627 0 0 0 0 0.254902 0 0 0 0 0.564706 0 0 0 0.18 0"/>
<feBlend mode="normal" in2="BackgroundImageFix" result="effect1_dropShadow_594_2462"/>
<feBlend mode="normal" in="SourceGraphic" in2="effect1_dropShadow_594_2462" result="shape"/>
</filter>
</defs>
</svg>
