<svg width="136" height="136" viewBox="0 0 136 136" fill="none" xmlns="http://www.w3.org/2000/svg">
<circle cx="68" cy="68" r="68" fill="#F9FAFB"/>
<mask id="mask0_417_55397" style="mask-type:alpha" maskUnits="userSpaceOnUse" x="0" y="0" width="136" height="136">
<circle cx="68" cy="68" r="68" fill="#EFF4FF"/>
</mask>
<g mask="url(#mask0_417_55397)">
<g filter="url(#filter0_d_417_55397)">
<path d="M73.7058 84.3363V97.3065C73.7058 98.4151 74.701 99.4128 75.8067 99.4128C79.0132 99.4128 81.5564 96.9739 81.7775 93.7591L82.3304 82.4517" fill="white"/>
</g>
<g filter="url(#filter1_d_417_55397)">
<path d="M77.9077 86.2208L82.5517 109.612C82.7729 110.72 83.8786 111.496 84.9843 111.274C88.0803 110.609 90.1812 107.727 89.7389 104.512L86.9746 86.4426" fill="white"/>
</g>
<g filter="url(#filter2_d_417_55397)">
<path d="M21.7372 71.8095L83.989 90.8768C86.7533 91.7637 89.6281 90.2117 90.5127 87.4403L101.68 50.8576C102.565 48.0862 101.017 45.2039 98.2527 44.3171L35.8904 25.2497C33.1261 24.3629 30.2512 25.9149 29.3667 28.6863L18.199 65.269C17.425 68.0404 18.973 71.0335 21.7372 71.8095Z" fill="#9CA3AF"/>
</g>
<path d="M88.4119 82.1192C88.3014 82.1192 88.1908 82.1192 88.0802 82.1192L66.2976 75.4678C65.7448 75.2461 65.4131 74.6918 65.5236 74.1375C65.7448 73.5832 66.2976 73.2507 66.8505 73.3615L88.6331 80.0129C89.1859 80.2346 89.5176 80.7889 89.4071 81.3432C89.2965 81.7866 88.8542 82.1192 88.4119 82.1192Z" fill="#9CA3AF"/>
<path d="M85.8688 74.0266C85.7582 74.0266 85.6477 74.0266 85.5371 74.0266L59.6634 66.0449C59.1105 65.8232 58.7788 65.269 58.8893 64.7147C59.1105 64.1604 59.6634 63.8278 60.2162 63.9387L86.0899 71.9203C86.6428 72.1421 86.9745 72.6963 86.8639 73.2506C86.7534 73.694 86.3111 74.0266 85.8688 74.0266Z" fill="#9CA3AF"/>
<g filter="url(#filter3_d_417_55397)">
<path d="M97.1469 66.9319C104.997 68.7056 114.507 70.9227 119.814 72.1421C122.357 72.6964 124.237 74.581 125.011 77.1307C126.006 80.7889 127.444 86.11 128.218 90.1009C129.544 96.7523 129.544 102.517 134.078 109.39C134.52 110.055 135.073 110.831 135.515 111.496C136.51 112.826 136.4 114.711 135.405 116.041C135.405 116.041 126.006 124.91 121.694 129.012C120.367 130.231 118.377 130.453 116.829 129.455C112.516 126.794 104.002 121.473 101.349 119.145C97.6998 116.041 94.8249 112.161 92.6135 107.505C90.4021 102.849 89.1858 99.302 81.3352 91.542C77.4652 87.7729 74.5903 84.3363 72.4895 81.8975C70.6098 79.5695 70.7203 76.133 72.9318 74.0267C75.2538 71.6987 79.0132 71.6987 81.3352 74.0267L100.796 93.4266C100.796 93.4266 97.9209 90.3226 99.0266 82.2301L93.2769 79.3478" fill="white"/>
</g>
<path d="M102.897 95.2002C102.233 94.6459 101.459 93.87 100.796 92.9831L102.897 95.2002Z" fill="#F9FAFB"/>
<path d="M74.1503 80.6997C74.5934 81.24 75.1472 81.8884 75.701 82.5367C76.1441 83.077 77.0303 83.1851 77.5841 82.6448L81.7934 78.8627C82.3472 78.3224 82.3472 77.566 81.7934 77.0257L80.1318 75.1887C79.3564 74.4322 78.2487 74 77.2518 74C76.1441 74 75.0364 74.4322 74.261 75.2967C72.821 76.8096 72.9318 79.1869 74.1503 80.6997Z" fill="#EAEEF9"/>
<path d="M47.1687 61.8324C47.3898 61.8324 47.5004 61.8323 47.7215 61.7215C48.3849 61.3889 48.8272 60.6129 48.4955 59.9478C47.9427 58.3958 47.8321 56.7329 48.3849 55.181C48.9378 53.629 49.9329 52.2987 51.2598 51.4118C51.9232 50.9684 52.0338 50.0816 51.7021 49.5273C51.2598 48.8621 50.3752 48.7513 49.8224 49.0838C47.9427 50.3033 46.5052 52.1878 45.8418 54.405C45.1784 56.6221 45.1784 58.9501 46.0629 61.0564C46.1735 61.4998 46.6158 61.8324 47.1687 61.8324Z" fill="white"/>
<path d="M41.6401 64.7146C41.8612 64.7146 41.9718 64.7146 42.1929 64.6038C42.8564 64.2712 43.1881 63.4952 42.8564 62.7192C41.5295 59.7261 41.3084 56.2895 42.3035 53.1855C43.2987 50.0816 45.3995 47.421 48.2744 45.7582C48.9378 45.3147 49.159 44.5387 48.7167 43.8736C48.2744 43.2085 47.5004 42.9867 46.837 43.4302C43.4092 45.4256 40.8661 48.6404 39.6498 52.4095C38.4335 56.1787 38.6547 60.2804 40.3132 63.9386C40.5344 64.4929 41.0872 64.7146 41.6401 64.7146Z" fill="white"/>
<path d="M36.3328 67.4861C36.5539 67.4861 36.775 67.4861 36.8856 67.3752C37.549 67.0427 37.8808 66.2667 37.549 65.4907C35.5588 61.0564 35.227 56.0679 36.6645 51.4119C38.1019 46.7559 41.3085 42.8759 45.5102 40.4371C46.1736 40.1045 46.3948 39.2177 46.063 38.5525C45.7313 37.8874 44.8468 37.6657 44.1833 37.9983C39.3182 40.7697 35.7799 45.2039 34.1213 50.5251C32.4628 55.8462 32.7945 61.4999 35.1165 66.5993C35.3376 67.1535 35.8905 67.4861 36.3328 67.4861Z" fill="white"/>
<path d="M92.1229 56.8286C92.9745 54.0806 91.4428 51.1607 88.7018 50.307C85.9609 49.4532 83.0485 50.9888 82.1969 53.7369C81.3454 56.4849 82.877 59.4048 85.618 60.2585C88.359 61.1123 91.2714 59.5767 92.1229 56.8286Z" fill="#EEF1F4"/>
<path opacity="0.72" d="M80.5614 58.3959C83.4315 58.3959 85.7582 56.0632 85.7582 53.1856C85.7582 50.3081 83.4315 47.9754 80.5614 47.9754C77.6912 47.9754 75.3645 50.3081 75.3645 53.1856C75.3645 56.0632 77.6912 58.3959 80.5614 58.3959Z" fill="#EEF1F4"/>
</g>
<defs>
<filter id="filter0_d_417_55397" x="3.70581" y="11.4517" width="148.625" height="156.961" filterUnits="userSpaceOnUse" color-interpolation-filters="sRGB">
<feFlood flood-opacity="0" result="BackgroundImageFix"/>
<feColorMatrix in="SourceAlpha" type="matrix" values="0 0 0 0 0 0 0 0 0 0 0 0 0 0 0 0 0 0 127 0" result="hardAlpha"/>
<feOffset dy="-1"/>
<feGaussianBlur stdDeviation="35"/>
<feComposite in2="hardAlpha" operator="out"/>
<feColorMatrix type="matrix" values="0 0 0 0 0 0 0 0 0 0.170527 0 0 0 0 0.504167 0 0 0 0.14 0"/>
<feBlend mode="normal" in2="BackgroundImageFix" result="effect1_dropShadow_417_55397"/>
<feBlend mode="normal" in="SourceGraphic" in2="effect1_dropShadow_417_55397" result="shape"/>
</filter>
<filter id="filter1_d_417_55397" x="7.90771" y="15.2208" width="151.89" height="165.092" filterUnits="userSpaceOnUse" color-interpolation-filters="sRGB">
<feFlood flood-opacity="0" result="BackgroundImageFix"/>
<feColorMatrix in="SourceAlpha" type="matrix" values="0 0 0 0 0 0 0 0 0 0 0 0 0 0 0 0 0 0 127 0" result="hardAlpha"/>
<feOffset dy="-1"/>
<feGaussianBlur stdDeviation="35"/>
<feComposite in2="hardAlpha" operator="out"/>
<feColorMatrix type="matrix" values="0 0 0 0 0 0 0 0 0 0.170527 0 0 0 0 0.504167 0 0 0 0.14 0"/>
<feBlend mode="normal" in2="BackgroundImageFix" result="effect1_dropShadow_417_55397"/>
<feBlend mode="normal" in="SourceGraphic" in2="effect1_dropShadow_417_55397" result="shape"/>
</filter>
<filter id="filter2_d_417_55397" x="10" y="22" width="99.9294" height="82.1266" filterUnits="userSpaceOnUse" color-interpolation-filters="sRGB">
<feFlood flood-opacity="0" result="BackgroundImageFix"/>
<feColorMatrix in="SourceAlpha" type="matrix" values="0 0 0 0 0 0 0 0 0 0 0 0 0 0 0 0 0 0 127 0" result="hardAlpha"/>
<feOffset dy="5"/>
<feGaussianBlur stdDeviation="4"/>
<feColorMatrix type="matrix" values="0 0 0 0 0.5 0 0 0 0 0.5 0 0 0 0 0.5 0 0 0 0.18 0"/>
<feBlend mode="normal" in2="BackgroundImageFix" result="effect1_dropShadow_417_55397"/>
<feBlend mode="normal" in="SourceGraphic" in2="effect1_dropShadow_417_55397" result="shape"/>
</filter>
<filter id="filter3_d_417_55397" x="1.16943" y="-4.06814" width="205.039" height="203.151" filterUnits="userSpaceOnUse" color-interpolation-filters="sRGB">
<feFlood flood-opacity="0" result="BackgroundImageFix"/>
<feColorMatrix in="SourceAlpha" type="matrix" values="0 0 0 0 0 0 0 0 0 0 0 0 0 0 0 0 0 0 127 0" result="hardAlpha"/>
<feOffset dy="-1"/>
<feGaussianBlur stdDeviation="35"/>
<feComposite in2="hardAlpha" operator="out"/>
<feColorMatrix type="matrix" values="0 0 0 0 0 0 0 0 0 0.170527 0 0 0 0 0.504167 0 0 0 0.14 0"/>
<feBlend mode="normal" in2="BackgroundImageFix" result="effect1_dropShadow_417_55397"/>
<feBlend mode="normal" in="SourceGraphic" in2="effect1_dropShadow_417_55397" result="shape"/>
</filter>
</defs>
</svg>
