<svg width="137" height="136" viewBox="0 0 137 136" fill="none" xmlns="http://www.w3.org/2000/svg">
<circle cx="68.5" cy="68" r="68" fill="#F9FAFB"/>
<mask id="mask0_417_55320" style="mask-type:alpha" maskUnits="userSpaceOnUse" x="0" y="0" width="137" height="136">
<circle cx="68.5" cy="68" r="68" fill="#EFF4FF"/>
</mask>
<g mask="url(#mask0_417_55320)">
<g filter="url(#filter0_d_417_55320)">
<path d="M74.2059 84.3363V97.3065C74.2059 98.4151 75.201 99.4128 76.3067 99.4128C79.5133 99.4128 82.0564 96.9739 82.2776 93.7591L82.8304 82.4517" fill="white"/>
</g>
<g filter="url(#filter1_d_417_55320)">
<path d="M78.4076 86.2208L83.0516 109.612C83.2727 110.72 84.3785 111.496 85.4842 111.274C88.5802 110.609 90.681 107.727 90.2387 104.512L87.4745 86.4426" fill="white"/>
</g>
<g filter="url(#filter2_d_417_55320)">
<path d="M22.2372 71.8095L84.489 90.8768C87.2533 91.7637 90.1281 90.2117 91.0127 87.4403L102.18 50.8576C103.065 48.0862 101.517 45.2039 98.7527 44.3171L36.3904 25.2497C33.6261 24.3629 30.7512 25.9149 29.8667 28.6863L18.699 65.269C17.925 68.0404 19.473 71.0335 22.2372 71.8095Z" fill="#F18C53"/>
</g>
<path d="M88.9119 82.1192C88.8013 82.1192 88.6907 82.1192 88.5802 82.1192L66.7976 75.4678C66.2447 75.2461 65.913 74.6918 66.0236 74.1375C66.2447 73.5832 66.7976 73.2507 67.3504 73.3615L89.133 80.0129C89.6859 80.2346 90.0176 80.7889 89.907 81.3432C89.7964 81.7866 89.3542 82.1192 88.9119 82.1192Z" fill="#D0345A"/>
<path d="M86.3687 74.0266C86.2581 74.0266 86.1475 74.0266 86.037 74.0266L60.1632 66.045C59.6104 65.8232 59.2787 65.269 59.3892 64.7147C59.6104 64.1604 60.1632 63.8278 60.7161 63.9387L86.5898 71.9203C87.1427 72.1421 87.4744 72.6963 87.3638 73.2506C87.2532 73.6941 86.811 74.0266 86.3687 74.0266Z" fill="#D0345A"/>
<g filter="url(#filter3_d_417_55320)">
<path d="M97.647 66.9319C105.498 68.7056 115.007 70.9227 120.314 72.1421C122.857 72.6964 124.737 74.581 125.511 77.1307C126.506 80.7889 127.944 86.11 128.718 90.1009C130.044 96.7523 130.044 102.517 134.578 109.39C135.02 110.055 135.573 110.831 136.015 111.496C137.01 112.826 136.9 114.711 135.905 116.041C135.905 116.041 126.506 124.91 122.194 129.012C120.867 130.231 118.877 130.453 117.329 129.455C113.016 126.794 104.502 121.473 101.849 119.145C98.1999 116.041 95.325 112.161 93.1136 107.505C90.9022 102.849 89.6859 99.302 81.8353 91.542C77.9653 87.7729 75.0905 84.3363 72.9896 81.8975C71.1099 79.5695 71.2205 76.1329 73.4319 74.0267C75.7539 71.6987 79.5133 71.6987 81.8353 74.0267L101.296 93.4266C101.296 93.4266 98.421 90.3226 99.5268 82.2301L93.777 79.3478" fill="white"/>
</g>
<path d="M103.397 95.2002C102.733 94.6459 101.959 93.87 101.296 92.9831L103.397 95.2002Z" fill="#F9FAFB"/>
<path d="M74.6502 80.6997C75.0933 81.24 75.6471 81.8884 76.201 82.5367C76.6441 83.077 77.5302 83.1851 78.0841 82.6448L82.2933 78.8627C82.8471 78.3224 82.8471 77.566 82.2933 77.0257L80.6318 75.1887C79.8564 74.4322 78.7487 74 77.7518 74C76.6441 74 75.5364 74.4322 74.761 75.2967C73.321 76.8096 73.4318 79.1869 74.6502 80.6997Z" fill="#EAEEF9"/>
<path d="M47.6687 61.8324C47.8899 61.8324 48.0004 61.8323 48.2216 61.7215C48.885 61.3889 49.3273 60.6129 48.9956 59.9478C48.4427 58.3958 48.3321 56.7329 48.885 55.181C49.4379 53.629 50.433 52.2987 51.7599 51.4118C52.4233 50.9684 52.5339 50.0816 52.2021 49.5273C51.7599 48.8621 50.8753 48.7513 50.3224 49.0838C48.4427 50.3033 47.0053 52.1878 46.3419 54.405C45.6784 56.6221 45.6784 58.9501 46.563 61.0564C46.6736 61.4998 47.1159 61.8324 47.6687 61.8324Z" fill="white"/>
<path d="M42.1401 64.7146C42.3612 64.7146 42.4718 64.7146 42.6929 64.6038C43.3564 64.2712 43.6881 63.4952 43.3564 62.7192C42.0295 59.7261 41.8084 56.2895 42.8035 53.1856C43.7987 50.0816 45.8995 47.421 48.7744 45.7582C49.4378 45.3147 49.659 44.5387 49.2167 43.8736C48.7744 43.2085 48.0004 42.9867 47.337 43.4302C43.9092 45.4256 41.3661 48.6404 40.1498 52.4096C38.9335 56.1787 39.1547 60.2804 40.8132 63.9386C41.0344 64.4929 41.5872 64.7146 42.1401 64.7146Z" fill="white"/>
<path d="M36.8327 67.4861C37.0538 67.4861 37.275 67.4861 37.3856 67.3752C38.049 67.0427 38.3807 66.2667 38.049 65.4907C36.0587 61.0564 35.727 56.0679 37.1644 51.4119C38.6018 46.7559 41.8084 42.8759 46.0101 40.4371C46.6736 40.1045 46.8947 39.2177 46.563 38.5525C46.2313 37.8874 45.3467 37.6657 44.6833 37.9983C39.8181 40.7697 36.2798 45.2039 34.6213 50.525C32.9627 55.8462 33.2944 61.4998 35.6164 66.5992C35.8375 67.1535 36.3904 67.4861 36.8327 67.4861Z" fill="white"/>
<path d="M92.6228 56.8286C93.4744 54.0806 91.9427 51.1607 89.2017 50.307C86.4607 49.4532 83.5484 50.9888 82.6968 53.7369C81.8452 56.4849 83.3769 59.4048 86.1179 60.2585C88.8589 61.1123 91.7712 59.5767 92.6228 56.8286Z" fill="#FCEBEF"/>
<path opacity="0.72" d="M81.0613 58.3959C83.9314 58.3959 86.2582 56.0632 86.2582 53.1856C86.2582 50.3081 83.9314 47.9754 81.0613 47.9754C78.1912 47.9754 75.8644 50.3081 75.8644 53.1856C75.8644 56.0632 78.1912 58.3959 81.0613 58.3959Z" fill="#FCEBEF"/>
</g>
<defs>
<filter id="filter0_d_417_55320" x="4.20587" y="11.4517" width="148.625" height="156.961" filterUnits="userSpaceOnUse" color-interpolation-filters="sRGB">
<feFlood flood-opacity="0" result="BackgroundImageFix"/>
<feColorMatrix in="SourceAlpha" type="matrix" values="0 0 0 0 0 0 0 0 0 0 0 0 0 0 0 0 0 0 127 0" result="hardAlpha"/>
<feOffset dy="-1"/>
<feGaussianBlur stdDeviation="35"/>
<feComposite in2="hardAlpha" operator="out"/>
<feColorMatrix type="matrix" values="0 0 0 0 0 0 0 0 0 0.170527 0 0 0 0 0.504167 0 0 0 0.14 0"/>
<feBlend mode="normal" in2="BackgroundImageFix" result="effect1_dropShadow_417_55320"/>
<feBlend mode="normal" in="SourceGraphic" in2="effect1_dropShadow_417_55320" result="shape"/>
</filter>
<filter id="filter1_d_417_55320" x="8.40759" y="15.2208" width="151.89" height="165.092" filterUnits="userSpaceOnUse" color-interpolation-filters="sRGB">
<feFlood flood-opacity="0" result="BackgroundImageFix"/>
<feColorMatrix in="SourceAlpha" type="matrix" values="0 0 0 0 0 0 0 0 0 0 0 0 0 0 0 0 0 0 127 0" result="hardAlpha"/>
<feOffset dy="-1"/>
<feGaussianBlur stdDeviation="35"/>
<feComposite in2="hardAlpha" operator="out"/>
<feColorMatrix type="matrix" values="0 0 0 0 0 0 0 0 0 0.170527 0 0 0 0 0.504167 0 0 0 0.14 0"/>
<feBlend mode="normal" in2="BackgroundImageFix" result="effect1_dropShadow_417_55320"/>
<feBlend mode="normal" in="SourceGraphic" in2="effect1_dropShadow_417_55320" result="shape"/>
</filter>
<filter id="filter2_d_417_55320" x="10.5" y="22" width="99.9295" height="82.1266" filterUnits="userSpaceOnUse" color-interpolation-filters="sRGB">
<feFlood flood-opacity="0" result="BackgroundImageFix"/>
<feColorMatrix in="SourceAlpha" type="matrix" values="0 0 0 0 0 0 0 0 0 0 0 0 0 0 0 0 0 0 127 0" result="hardAlpha"/>
<feOffset dy="5"/>
<feGaussianBlur stdDeviation="4"/>
<feColorMatrix type="matrix" values="0 0 0 0 0.968627 0 0 0 0 0.254902 0 0 0 0 0.564706 0 0 0 0.18 0"/>
<feBlend mode="normal" in2="BackgroundImageFix" result="effect1_dropShadow_417_55320"/>
<feBlend mode="normal" in="SourceGraphic" in2="effect1_dropShadow_417_55320" result="shape"/>
</filter>
<filter id="filter3_d_417_55320" x="1.66956" y="-4.06815" width="205.039" height="203.151" filterUnits="userSpaceOnUse" color-interpolation-filters="sRGB">
<feFlood flood-opacity="0" result="BackgroundImageFix"/>
<feColorMatrix in="SourceAlpha" type="matrix" values="0 0 0 0 0 0 0 0 0 0 0 0 0 0 0 0 0 0 127 0" result="hardAlpha"/>
<feOffset dy="-1"/>
<feGaussianBlur stdDeviation="35"/>
<feComposite in2="hardAlpha" operator="out"/>
<feColorMatrix type="matrix" values="0 0 0 0 0 0 0 0 0 0.170527 0 0 0 0 0.504167 0 0 0 0.14 0"/>
<feBlend mode="normal" in2="BackgroundImageFix" result="effect1_dropShadow_417_55320"/>
<feBlend mode="normal" in="SourceGraphic" in2="effect1_dropShadow_417_55320" result="shape"/>
</filter>
</defs>
</svg>
