<svg width="20" height="20" viewBox="0 0 20 20" fill="none" xmlns="http://www.w3.org/2000/svg">
<path d="M10.852 4.42754L11.8971 5.47102L10.1698 7.19565L9.12475 6.15218L10.852 4.42754ZM7.0491 4.07971L8.09418 5.12319L9.82147 3.39855L8.77639 2.35507L7.0491 4.07971ZM7.61518 9.73189L8.66027 10.7754L11.2149 8.22464L10.1698 7.18116L7.61518 9.73189ZM5.53954 7.65942L6.58462 8.7029L9.13926 6.15218L8.09418 5.1087L5.53954 7.65942ZM11.8826 5.45652L12.9277 6.5L15.4823 3.94928L14.4372 2.9058L11.8826 5.45652ZM13.9002 7.58696L14.9453 8.63044L17.4999 6.07971L16.4548 5.03623L13.9002 7.58696ZM9.80695 3.38406L10.852 4.42754L13.4067 1.87681L12.3616 0.833336L9.80695 3.38406ZM10.0392 15.587L8.99411 14.5435L10.7214 12.8188L11.7665 13.8623L10.0392 15.587ZM13.8421 15.9348L12.797 14.8913L11.0698 16.6159L12.1148 17.6594L13.8421 15.9348ZM13.276 10.2826L12.231 9.23913L9.69083 11.7899L10.7359 12.8333L13.276 10.2826ZM15.3517 12.3551L14.3066 11.3116L11.752 13.8623L12.797 14.9058L15.3517 12.3551ZM8.99411 14.5435L7.94903 13.5L5.39439 16.0507L6.43947 17.0942L8.99411 14.5435ZM6.93298 12.4855L5.8879 11.442L3.33325 13.9928L4.37833 15.0362L6.93298 12.4855ZM11.0698 16.6159L10.0247 15.5725L7.47003 18.1232L8.51512 19.1667L11.0698 16.6159Z" fill="#F18C53"/>
</svg>
