<svg width="137" height="136" viewBox="0 0 137 136" fill="none" xmlns="http://www.w3.org/2000/svg">
<circle cx="68.5" cy="68" r="68" fill="white"/>
<mask id="mask0_417_33888" style="mask-type:alpha" maskUnits="userSpaceOnUse" x="0" y="0" width="137" height="136">
<circle cx="68.5" cy="68" r="68" fill="#EFF4FF"/>
</mask>
<g mask="url(#mask0_417_33888)">
<path d="M100.71 135.155C100.71 139.736 96.9713 143.574 92.235 143.574H46.991C42.3793 143.574 38.5155 139.86 38.5155 135.155V29.4192C38.5155 24.8382 42.2547 21 46.991 21H92.6089C97.2206 21 101.084 24.7144 101.084 29.4192V135.279H100.71V135.155Z" fill="#EEF1F4"/>
<g filter="url(#filter0_d_417_33888)">
<path d="M92.4843 21C97.0959 21 100.96 24.7144 100.96 29.4192V135.526C100.96 140.107 97.2206 143.946 92.4843 143.946H46.991C42.3793 143.946 38.5155 140.231 38.5155 135.526V29.4192C38.5155 24.8382 42.2547 21 46.991 21H92.4843Z" fill="#17181B"/>
</g>
<path d="M96.5972 29.0478V135.155C96.5972 136.764 95.7247 138.003 94.4783 138.745C93.8551 138.993 93.2319 139.241 92.4841 139.241H46.9908C46.4922 139.241 45.9937 139.117 45.4951 138.993C43.8748 138.498 42.8777 137.012 42.8777 135.155V29.4192C42.8777 27.562 43.9994 26.2001 45.4951 25.581C45.9937 25.4572 46.4922 25.3334 46.9908 25.3334H53.7213C54.5938 25.3334 55.217 25.9525 55.217 26.8192C55.217 28.5525 56.7126 30.0383 58.4576 30.0383H81.5158C83.2608 30.0383 84.7565 28.5525 84.7565 26.8192C84.7565 25.9525 85.6278 25 86.5002 25H92.6087C93.3566 25 93.9798 25.2096 94.603 25.581C95.7247 26.2001 96.5972 27.4382 96.5972 29.0478Z" fill="white"/>
<path d="M41.9845 113.246H7.83335C5.09128 113.246 2.84778 111.017 2.84778 108.293V66.8162C2.84778 64.0923 5.09128 61.8637 7.83335 61.8637H41.9845C44.7266 61.8637 46.9701 64.0923 46.9701 66.8162V108.293C47.0947 111.017 44.8512 113.246 41.9845 113.246Z" fill="white"/>
<path d="M33.2601 99.0074H9.57867C8.83083 99.0074 8.33228 98.3883 8.33228 97.7692C8.33228 97.0264 8.95547 96.5311 9.57867 96.5311H33.3848C34.1326 96.5311 34.6312 97.1502 34.6312 97.7692C34.5065 98.3883 34.008 99.0074 33.2601 99.0074Z" fill="#EEF1F4"/>
<path d="M20.0484 106.065H9.57867C8.83083 106.065 8.33228 105.446 8.33228 104.827C8.33228 104.207 8.95547 103.588 9.57867 103.588H20.0484C20.7962 103.588 21.2948 104.207 21.2948 104.827C21.1701 105.569 20.6716 106.065 20.0484 106.065Z" fill="#EEF1F4"/>
<path d="M37.1236 73.6258C36.999 73.502 36.8744 73.3782 36.7497 73.3782C35.2541 72.1401 33.883 70.902 32.3874 69.7877C32.2627 69.6639 32.0134 69.54 31.7642 69.54C30.6424 69.54 29.5206 69.54 28.3989 69.54C27.9003 69.54 27.6511 69.7877 27.6511 70.2829C27.5264 71.3972 26.6539 72.3877 25.5322 72.3877C24.2858 72.3877 23.2887 71.521 23.164 70.4067C23.0394 69.2924 22.7901 69.6639 19.3002 69.54C18.9263 69.54 18.677 69.6639 18.3031 69.9115C16.8074 71.1496 15.3118 72.3877 13.9407 73.502C13.8161 73.502 13.8161 73.6258 13.6915 73.6258C13.1929 73.9973 13.1929 74.2449 13.5668 74.7402C14.3147 75.6068 15.0625 76.4735 15.6857 77.3402C16.0596 77.7116 16.1843 77.8355 16.9321 77.464C17.306 77.3402 17.9292 76.9688 18.677 76.5973V87.6166C18.677 88.3595 18.8017 88.6071 19.6741 88.6071C23.4133 88.6071 27.1525 88.6071 30.8917 88.6071C31.7642 88.6071 31.8888 88.4833 31.8888 87.6166V76.5973C32.7613 76.9688 33.3845 77.3402 33.7584 77.464C34.5062 77.8355 34.6309 77.7116 35.0048 77.3402C35.7526 76.4735 36.5004 75.6068 37.2483 74.7402C37.6222 74.3687 37.6222 73.9973 37.1236 73.6258Z" fill="#EEF1F4"/>
<path d="M30.3935 77.3402L29.1471 78.2069C29.0224 78.3307 28.6485 78.3307 28.5239 78.2069L27.2775 77.3402C27.1528 77.2164 27.1528 77.0926 27.1528 77.0926V75.1116C27.1528 74.9878 27.2775 74.8639 27.4021 74.8639H30.2688C30.3935 74.8639 30.5181 74.9878 30.5181 75.1116V77.0926C30.5181 77.2164 30.3935 77.3402 30.3935 77.3402Z" fill="white"/>
<path d="M17.1811 77.464C16.4333 77.8354 16.3086 77.7116 15.9347 77.3402C15.1869 76.4735 14.439 75.6068 13.8159 74.7401C13.4419 74.2449 13.4419 73.9973 13.9405 73.6258C14.0651 73.6258 14.0651 73.502 14.1898 73.502L17.1811 77.464Z" fill="white"/>
<path d="M37.3728 74.7402C36.625 75.6068 35.8772 76.4735 35.1293 77.3402C34.7554 77.7116 34.6308 77.7116 33.8829 77.464L36.8743 73.3782C36.9989 73.502 37.1236 73.6258 37.2482 73.6258C37.7468 73.9973 37.7468 74.3687 37.3728 74.7402Z" fill="white"/>
<path d="M133.283 113.246H99.1314C96.3894 113.246 94.1459 111.017 94.1459 108.293V66.8162C94.1459 64.0923 96.3894 61.8637 99.1314 61.8637H133.283C136.025 61.8637 138.268 64.0923 138.268 66.8162V108.293C138.268 111.017 136.025 113.246 133.283 113.246Z" fill="white"/>
<path d="M124.558 99.0074H100.752C100.004 99.0074 99.5055 98.3883 99.5055 97.7692C99.5055 97.0264 100.129 96.5311 100.752 96.5311H124.558C125.306 96.5311 125.804 97.1502 125.804 97.7692C125.804 98.3883 125.181 99.0074 124.558 99.0074Z" fill="#EEF1F4"/>
<path d="M111.222 106.065H100.752C100.004 106.065 99.5055 105.446 99.5055 104.827C99.5055 104.207 100.129 103.588 100.752 103.588H111.222C111.969 103.588 112.468 104.207 112.468 104.827C112.468 105.569 111.969 106.065 111.222 106.065Z" fill="#EEF1F4"/>
<path d="M123.187 89.35L118.949 89.9691C118.7 89.9691 118.575 89.8453 118.451 89.7214L118.326 89.2262L115.584 78.5783L115.335 76.5973L112.593 88.9786L112.468 89.5976C112.468 89.8453 112.219 89.9691 111.97 89.8453L108.355 89.4738H107.981C107.732 89.4738 107.607 89.2262 107.607 88.9786L107.732 88.4833L110.474 70.902L110.599 70.1591C110.599 70.0353 110.723 69.9115 110.972 69.9115H119.573C119.697 69.9115 119.946 70.0353 119.946 70.1591L120.071 70.7782V70.902L123.561 88.4833V88.7309C123.561 89.1024 123.436 89.2262 123.187 89.35Z" fill="#EEF1F4"/>
<path d="M120.071 74.1211C118.949 73.6259 118.077 72.883 117.329 71.8925C117.204 71.7687 117.329 71.6449 117.454 71.5211C117.578 71.3972 117.703 71.5211 117.828 71.6449C118.451 72.6354 119.199 73.2544 120.196 73.6259C120.32 73.7497 120.445 73.8735 120.32 73.9973C120.32 73.9973 120.196 74.1211 120.071 74.1211Z" fill="white"/>
<path d="M110.723 74.1211C111.844 73.6259 112.717 72.883 113.465 71.8925C113.589 71.7687 113.465 71.6449 113.34 71.5211C113.215 71.3972 113.091 71.5211 112.966 71.6449C112.343 72.6354 111.595 73.2544 110.598 73.6259C110.473 73.7497 110.349 73.8735 110.473 73.9973C110.473 73.9973 110.598 74.1211 110.723 74.1211Z" fill="white"/>
<path d="M115.335 75.1116C115.21 75.1116 115.086 74.9878 115.086 74.864V71.1496C115.086 71.0258 115.21 70.902 115.335 70.902C115.46 70.902 115.584 71.0258 115.584 71.1496V74.864C115.584 74.9878 115.46 75.1116 115.335 75.1116Z" fill="white"/>
<path d="M120.071 71.0266H110.474L110.599 70.2837C110.599 70.1599 110.723 70.0361 110.973 70.0361H119.573C119.697 70.0361 119.947 70.1599 119.947 70.2837L120.071 71.0266Z" fill="white"/>
<path d="M112.468 89.1024L112.343 89.7215C112.343 89.9691 112.094 90.0929 111.845 89.9691L108.23 89.5976H107.856C107.607 89.5976 107.483 89.35 107.483 89.1024L107.607 88.6071L112.468 89.1024Z" fill="white"/>
<path d="M123.187 89.35L118.949 89.9691C118.7 89.9691 118.576 89.8453 118.451 89.7214L118.326 89.2262L123.437 88.7309V88.9786C123.561 89.1024 123.437 89.2262 123.187 89.35Z" fill="white"/>
<g filter="url(#filter1_d_417_33888)">
<path d="M92.7753 122.41H47.3218C43.5839 122.41 40.5935 119.44 40.5935 115.727V60.4748C40.5935 56.7616 43.5839 53.7911 47.3218 53.7911H92.7753C96.5133 53.7911 99.5036 56.7616 99.5036 60.4748V115.727C99.3541 119.44 96.3638 122.41 92.7753 122.41Z" fill="white"/>
</g>
<path d="M81.1131 103.399H49.5647C48.6676 103.399 47.92 102.656 47.92 101.765C47.92 100.874 48.6676 100.131 49.5647 100.131H81.1131C82.0102 100.131 82.7578 100.874 82.7578 101.765C82.7578 102.656 82.0102 103.399 81.1131 103.399Z" fill="#EEF1F4"/>
<path d="M63.4699 112.756H49.5647C48.6676 112.756 47.92 112.013 47.92 111.122C47.92 110.231 48.6676 109.488 49.5647 109.488H63.4699C64.367 109.488 65.1146 110.231 65.1146 111.122C64.9651 112.013 64.367 112.756 63.4699 112.756Z" fill="#EEF1F4"/>
<path d="M88.7384 82.0111C88.5889 81.714 88.4394 81.417 88.2899 81.2684C87.6918 80.5258 86.9442 79.7832 85.5985 79.3376C83.8043 78.7435 82.3091 78.595 80.9635 78.4464C80.6644 78.4464 80.2159 78.4464 79.9168 78.2979C75.8799 77.8523 72.5905 77.2582 65.4136 68.3467C64.666 67.4555 64.367 66.5643 63.4699 65.6732C62.7223 64.9306 61.3766 65.8217 59.7319 66.1188C59.4329 66.2673 58.9843 66.2673 58.6853 66.2673C57.3396 66.2673 55.8444 66.1188 54.4988 65.9702C52.555 65.8217 53.7512 64.782 51.3589 79.3376C51.2094 80.3773 51.0598 81.5655 50.9103 82.6052C50.9103 83.4963 50.7608 84.536 50.9103 85.4272C50.9103 85.8727 50.9103 86.4668 51.5084 86.4668C57.6386 87.0609 61.5261 86.7639 71.2448 86.7639C76.1789 86.7639 80.9635 86.7639 85.7481 85.8727L86.9442 85.7242C87.8413 85.5757 89.0375 85.2786 89.0375 84.536C89.187 83.7934 89.0375 82.9022 88.7384 82.0111Z" fill="#F18C53"/>
<path d="M81.1127 78.4475L80.066 81.715C73.7863 81.418 67.357 77.5563 64.0676 72.5064C62.8714 70.7241 61.9743 68.7933 60.6287 67.308C60.6287 67.308 60.1801 66.8624 59.7316 66.4169C61.3763 66.1198 62.5724 65.0801 63.4695 65.9713C64.0676 66.5654 64.3666 67.1595 64.8152 67.7536C64.9647 67.9021 65.1142 68.1992 65.2637 68.3477L65.4133 68.4962C65.8618 69.0903 66.3104 69.5359 66.7589 69.9815C66.9084 70.13 67.058 70.2785 67.2075 70.4271C67.656 71.0212 68.1046 71.4667 68.5531 71.9123C68.7027 72.0608 68.8522 72.2094 69.0017 72.3579C69.4502 72.8035 69.8988 73.249 70.3474 73.6946C70.4969 73.8432 70.6464 73.9917 70.7959 74.1402C71.2445 74.5858 71.693 74.8828 72.1416 75.1799C72.2911 75.3284 72.5901 75.4769 72.7396 75.6255C73.0387 75.9225 73.4872 76.071 73.7863 76.3681C74.0853 76.5166 74.2348 76.6652 74.5339 76.8137C75.2814 77.1107 75.8795 77.4078 76.4776 77.7048C76.7766 77.8534 76.9261 77.8534 77.2252 77.8534C78.2718 78.1504 79.1689 78.1504 80.2155 78.2989C80.3651 78.4475 80.6641 78.4475 81.1127 78.4475Z" fill="#F18C53"/>
<path d="M89.1866 84.8331C89.1866 85.5757 87.9904 85.8728 87.0933 86.0213L85.8972 86.1698C81.1126 87.061 76.1785 87.061 71.3939 87.061C61.6752 87.061 57.7878 87.358 51.6575 86.7639C51.209 86.7639 51.209 86.1698 51.0594 85.7242C51.0594 84.8331 51.0594 83.7934 51.0594 82.9022C54.4984 83.1993 69.1511 83.9419 80.2155 82.7537C83.3554 82.4567 86.0467 82.0111 88.2895 81.2684C88.439 81.5655 88.5885 81.714 88.738 82.0111C89.0371 82.9022 89.1866 83.7934 89.1866 84.8331Z" fill="#EEF1F4"/>
<path d="M88.7382 82.0111C86.4954 82.7537 84.1031 83.1993 81.7108 83.4963C81.2622 83.4963 80.9632 83.4963 80.6642 83.3478C80.5147 83.1993 80.3651 82.9022 80.3651 82.7537C80.3651 82.6052 80.3651 82.4566 80.3651 82.4566C80.2156 81.1199 80.0661 79.7832 80.2156 78.4464C81.8603 78.595 83.6545 78.7435 85.8973 79.4861C87.243 79.9317 87.9906 80.5258 88.5886 81.417C88.4391 81.417 88.5886 81.714 88.7382 82.0111Z" fill="white"/>
<path d="M65.2636 68.1982C65.2636 68.3467 65.2636 68.3467 65.2636 68.1982L63.6189 69.5349C63.6189 69.5349 63.4694 69.6834 63.3199 69.6834C63.1703 69.6834 63.0208 69.6834 63.0208 69.5349C62.8713 69.3864 62.8713 69.0893 63.0208 68.9408L64.6655 67.604C64.6655 67.604 64.6655 67.604 64.815 67.604C64.9646 67.9011 65.1141 68.0496 65.2636 68.1982Z" fill="white"/>
<path d="M67.0583 70.426C67.0583 70.426 67.0583 70.5745 66.9087 70.5745C66.4602 71.1686 65.8621 71.6142 65.264 72.0598C65.264 72.0598 65.1145 72.2083 64.965 72.2083C64.8155 72.2083 64.666 72.2083 64.666 72.0598C64.5165 71.9113 64.5165 71.6142 64.666 71.4657C65.264 71.0201 65.7126 70.5745 66.3107 69.9804C66.4602 69.8319 66.4602 69.8319 66.6097 69.8319C66.7592 70.129 66.9087 70.2775 67.0583 70.426Z" fill="white"/>
<path d="M68.8526 72.3569C68.8526 72.5054 68.8526 72.5054 68.7031 72.5054C68.105 73.0995 67.6564 73.6936 67.0584 74.1392C66.9088 74.2877 66.9088 74.2877 66.7593 74.2877C66.6098 74.2877 66.6098 74.2877 66.4603 74.1392C66.3108 73.9907 66.3108 73.6936 66.4603 73.5451C67.0584 72.951 67.5069 72.3569 68.105 71.9113C68.105 71.9113 68.2545 71.7628 68.404 71.7628C68.5535 72.0598 68.7031 72.2084 68.8526 72.3569Z" fill="white"/>
<path d="M70.7958 74.1392C70.7958 74.2877 70.7958 74.2877 70.6463 74.2877C70.0482 74.7333 69.4501 75.3274 68.8521 76.07C68.7025 76.2186 68.7025 76.2186 68.553 76.2186C68.4035 76.2186 68.4035 76.2186 68.254 76.07C68.1045 75.9215 68.1045 75.6245 68.254 75.4759C68.8521 74.7333 69.4501 74.1392 70.0482 73.5451H70.1977C70.3472 73.8421 70.4968 74.1392 70.7958 74.1392Z" fill="white"/>
<path d="M72.59 75.773C72.1415 76.5156 71.6929 77.2582 71.3939 78.0009C71.3939 78.1494 71.2444 78.1494 71.0949 78.1494H70.9453C70.7958 78.0009 70.6463 77.8524 70.7958 77.5553C71.2444 76.8127 71.5434 76.07 71.992 75.3274C71.992 75.3274 71.992 75.1789 72.1415 75.1789C72.291 75.4759 72.4405 75.6245 72.59 75.773Z" fill="white"/>
<path d="M74.3842 76.8127L74.0851 79.1891C74.0851 79.3376 73.9356 79.4861 73.6366 79.4861C73.487 79.4861 73.3375 79.1891 73.3375 79.0405L73.7861 76.5156C73.7861 76.5156 73.7861 76.3671 73.9356 76.3671C73.9356 76.5156 74.0851 76.6641 74.3842 76.8127Z" fill="white"/>
<path d="M77.0757 77.8523C76.9261 78.595 76.9261 79.1891 76.7766 79.9317C76.7766 80.0802 76.6271 80.2288 76.3281 80.2288C76.3281 80.2288 76.3281 80.2288 76.1786 80.2288C76.029 80.2288 75.8795 79.9317 75.8795 79.7832C76.029 79.0405 76.1786 78.4464 76.1786 77.7038C76.4776 77.7038 76.7766 77.8523 77.0757 77.8523Z" fill="white"/>
<path d="M57.9376 75.773C59.6717 75.773 61.0775 74.3765 61.0775 72.6539C61.0775 70.9313 59.6717 69.5349 57.9376 69.5349C56.2035 69.5349 54.7977 70.9313 54.7977 72.6539C54.7977 74.3765 56.2035 75.773 57.9376 75.773Z" fill="white"/>
<path d="M57.9376 73.9907C58.6808 73.9907 59.2832 73.3922 59.2832 72.6539C59.2832 71.9157 58.6808 71.3172 57.9376 71.3172C57.1944 71.3172 56.5919 71.9157 56.5919 72.6539C56.5919 73.3922 57.1944 73.9907 57.9376 73.9907Z" fill="#F18C53"/>
<path fill-rule="evenodd" clip-rule="evenodd" d="M83.2021 92.0967L86.1463 89.1525L90.4009 93.4071C92.0272 92.8949 93.8759 93.2834 95.165 94.5725L102.159 101.567C104.004 103.412 104.004 106.403 102.159 108.248C100.314 110.093 97.3225 110.093 95.4775 108.248L88.4834 101.254C87.1393 99.91 86.7743 97.9575 87.3885 96.2831L83.2021 92.0967Z" fill="#17181B"/>
<g filter="url(#filter2_d_417_33888)">
<path d="M52.2365 59.883C49.0199 63.1695 46.8294 67.3568 45.9419 71.9154C45.0545 76.4739 45.51 81.199 47.2508 85.4931C48.9916 89.7871 51.9396 93.4573 55.7219 96.0395C59.5042 98.6217 63.951 100 68.5 100C73.049 100 77.4958 98.6217 81.2781 96.0395C85.0604 93.4573 88.0084 89.7871 89.7492 85.4931C91.49 81.199 91.9455 76.4739 91.0581 71.9154C90.1706 67.3568 87.9801 63.1695 84.7635 59.883C82.6277 57.7008 80.0922 55.9698 77.3017 54.7888C74.5112 53.6078 71.5204 53 68.5 53C65.4796 53 62.4888 53.6078 59.6983 54.7888C56.9078 55.9698 54.3723 57.7008 52.2365 59.883ZM81.7637 90.0521C79.1404 92.7325 75.7981 94.5578 72.1594 95.2973C68.5208 96.0368 64.7492 95.6573 61.3217 94.2067C57.8942 92.7561 54.9646 90.2996 52.9035 87.1478C50.8423 83.9961 49.7422 80.2906 49.7422 76.5C49.7422 72.7094 50.8424 69.004 52.9035 65.8522C54.9646 62.7004 57.8942 60.2439 61.3217 58.7933C64.7493 57.3428 68.5208 56.9632 72.1595 57.7027C75.7981 58.4422 79.1404 60.2676 81.7637 62.9479C85.2815 66.5422 87.2578 71.417 87.2578 76.5C87.2577 81.583 85.2815 86.4579 81.7637 90.0521Z" fill="#F18C53"/>
</g>
</g>
<defs>
<filter id="filter0_d_417_33888" x="-31.4845" y="-50" width="202.444" height="262.946" filterUnits="userSpaceOnUse" color-interpolation-filters="sRGB">
<feFlood flood-opacity="0" result="BackgroundImageFix"/>
<feColorMatrix in="SourceAlpha" type="matrix" values="0 0 0 0 0 0 0 0 0 0 0 0 0 0 0 0 0 0 127 0" result="hardAlpha"/>
<feOffset dy="-1"/>
<feGaussianBlur stdDeviation="35"/>
<feComposite in2="hardAlpha" operator="out"/>
<feColorMatrix type="matrix" values="0 0 0 0 0 0 0 0 0 0.170527 0 0 0 0 0.504167 0 0 0 0.14 0"/>
<feBlend mode="normal" in2="BackgroundImageFix" result="effect1_dropShadow_417_33888"/>
<feBlend mode="normal" in="SourceGraphic" in2="effect1_dropShadow_417_33888" result="shape"/>
</filter>
<filter id="filter1_d_417_33888" x="-29.4065" y="-17.2089" width="198.91" height="208.619" filterUnits="userSpaceOnUse" color-interpolation-filters="sRGB">
<feFlood flood-opacity="0" result="BackgroundImageFix"/>
<feColorMatrix in="SourceAlpha" type="matrix" values="0 0 0 0 0 0 0 0 0 0 0 0 0 0 0 0 0 0 127 0" result="hardAlpha"/>
<feOffset dy="-1"/>
<feGaussianBlur stdDeviation="35"/>
<feComposite in2="hardAlpha" operator="out"/>
<feColorMatrix type="matrix" values="0 0 0 0 0 0 0 0 0 0.170527 0 0 0 0 0.504167 0 0 0 0.14 0"/>
<feBlend mode="normal" in2="BackgroundImageFix" result="effect1_dropShadow_417_33888"/>
<feBlend mode="normal" in="SourceGraphic" in2="effect1_dropShadow_417_33888" result="shape"/>
</filter>
<filter id="filter2_d_417_33888" x="37.5" y="50" width="62" height="63" filterUnits="userSpaceOnUse" color-interpolation-filters="sRGB">
<feFlood flood-opacity="0" result="BackgroundImageFix"/>
<feColorMatrix in="SourceAlpha" type="matrix" values="0 0 0 0 0 0 0 0 0 0 0 0 0 0 0 0 0 0 127 0" result="hardAlpha"/>
<feOffset dy="5"/>
<feGaussianBlur stdDeviation="4"/>
<feColorMatrix type="matrix" values="0 0 0 0 0.968627 0 0 0 0 0.254902 0 0 0 0 0.564706 0 0 0 0.18 0"/>
<feBlend mode="normal" in2="BackgroundImageFix" result="effect1_dropShadow_417_33888"/>
<feBlend mode="normal" in="SourceGraphic" in2="effect1_dropShadow_417_33888" result="shape"/>
</filter>
</defs>
</svg>
