<svg width="136" height="136" viewBox="0 0 136 136" fill="none" xmlns="http://www.w3.org/2000/svg">
<circle cx="68" cy="68" r="68" fill="white"/>
<mask id="mask0_417_34185" style="mask-type:alpha" maskUnits="userSpaceOnUse" x="0" y="0" width="136" height="136">
<circle cx="68" cy="68" r="68" fill="#EFF4FF"/>
</mask>
<g mask="url(#mask0_417_34185)">
<path d="M19.749 95.8034C17.7992 95.0692 15.8494 94.2126 13.7777 94.0903C10.731 93.8455 8.65933 96.2929 8.7812 99.352C8.90306 100.576 9.63426 101.555 10.9748 101.555C11.706 101.555 12.4372 101.187 12.9246 100.698C16.0931 97.6389 11.9497 93.7232 9.75612 91.7653C8.90307 90.9088 8.17188 90.0522 8.17188 88.8286" stroke="#F18C53" stroke-width="1.9" stroke-miterlimit="10" stroke-linecap="round" stroke-linejoin="round"/>
<path d="M98.8395 135.695C98.8395 135.939 96.8896 144.994 96.2803 148.176C96.1584 148.91 95.5491 149.399 94.9398 149.644C91.4057 150.623 88.9684 150.501 85.5562 149.399C85.1906 149.277 84.825 148.91 84.7031 148.543L82.3877 137.163" fill="#EEF1F4"/>
<path d="M62.8897 135.695C62.8897 135.939 60.9399 144.994 60.3306 148.176C60.2087 148.91 59.5994 149.399 58.99 149.644C55.2122 150.623 52.6531 150.501 48.9971 149.277L46.5598 137.285" fill="#EEF1F4"/>
<path d="M111.879 69.8619C111.026 65.9462 111.879 66.0686 110.173 64.9673C108.345 63.6213 102.861 60.3174 96.7679 64.4778C93.3557 66.8028 91.8933 69.2501 91.8933 69.2501L93.4775 74.3894C93.4775 74.3894 104.08 72.921 103.958 72.7987" fill="#EEF1F4"/>
<path d="M113.098 83.5668C114.56 77.8156 115.779 64.1107 106.761 63.9883C100.546 63.8659 96.2804 69.3724 93.4775 74.3894C93.4775 74.267 94.4525 74.3894 94.5743 74.3894C94.9399 74.3894 95.4274 74.5117 95.793 74.5117C96.5242 74.6341 97.3772 74.7565 98.1084 75.0012C99.6927 75.3683 101.277 75.7354 102.861 76.3472C104.567 76.959 106.273 77.8156 107.858 78.6722C108.954 79.284 109.929 80.0182 110.904 80.7524C111.635 81.3642 112.367 82.7102 113.098 83.5668Z" fill="#EEF1F4"/>
<g filter="url(#filter0_d_417_34185)">
<path d="M17.4338 100.208C17.4338 125.416 39.6133 145.973 67.0329 145.973C94.4525 145.973 116.632 125.538 116.632 100.208C116.632 99.719 116.632 99.2295 116.632 98.7401C115.779 74.1446 93.8432 54.5661 67.0329 54.5661C40.2226 54.5661 18.2869 74.267 17.4338 98.8624C17.4338 99.2295 17.4338 99.719 17.4338 100.208Z" fill="white"/>
</g>
<path d="M80.9255 61.0517L81.413 59.4609C81.5348 59.2162 81.2911 58.8491 81.0474 58.7267C72.0294 55.9123 61.9146 55.9123 52.8965 58.7267C52.6528 58.8491 52.4091 59.0938 52.5309 59.4609L53.0184 61.0517C53.1403 61.4188 53.5059 61.6635 53.8715 61.5411C62.2802 58.9714 71.5419 58.9714 79.9506 61.5411C80.438 61.6635 80.8036 61.4188 80.9255 61.0517Z" fill="#EEF1F4"/>
<path d="M109.686 91.3983H118.582V119.787H109.686C105.177 119.787 101.399 113.424 101.399 105.593C101.399 97.7613 105.177 91.3983 109.686 91.3983Z" fill="#EEF1F4"/>
<path d="M99.1918 89.6102C100.465 89.6102 101.497 88.0621 101.497 86.1525C101.497 84.2429 100.465 82.6949 99.1918 82.6949C97.9187 82.6949 96.8867 84.2429 96.8867 86.1525C96.8867 88.0621 97.9187 89.6102 99.1918 89.6102Z" fill="#EEF1F4"/>
<path d="M110.717 89.6102C111.99 89.6102 113.022 88.0621 113.022 86.1525C113.022 84.2429 111.99 82.6949 110.717 82.6949C109.444 82.6949 108.412 84.2429 108.412 86.1525C108.412 88.0621 109.444 89.6102 110.717 89.6102Z" fill="#EEF1F4"/>
<path d="M78.3661 64.233C74.5883 63.2541 74.8321 62.3975 72.8822 63.6212C70.9324 64.9672 65.8141 67.904 66.789 75.2459C67.2764 79.4063 68.7388 81.8537 68.7388 81.8537L73.979 82.7102C73.979 82.7102 77.5131 72.5539 77.2694 72.5539" fill="#EEF1F4"/>
<path d="M90.5528 69.0053C86.1656 65.0896 74.9541 58.3595 70.8106 66.3133C67.8859 71.8197 70.9325 78.1827 74.101 82.8326C73.9791 82.7103 74.5885 81.9761 74.5885 81.9761C74.8322 81.609 75.0759 81.2419 75.3197 80.9971C75.8071 80.3853 76.2946 79.7735 76.782 79.1617C77.8788 77.938 78.9756 76.7144 80.0724 75.4907C81.291 74.267 82.8753 73.1658 84.3377 72.0645C85.3126 71.4526 86.4094 70.8408 87.5062 70.3513C88.4811 69.7395 89.456 69.2501 90.5528 69.0053Z" fill="#EEF1F4"/>
<path d="M51.7995 134.96C51.7995 135.205 49.6059 145.361 48.8747 148.788C48.7528 149.522 48.1435 150.011 47.5342 150.256C43.5127 151.357 40.8316 151.235 37.1757 150.011C36.8101 149.889 36.4445 149.522 36.3226 149.155L32.9104 129.943" fill="#EEF1F4"/>
<path d="M118.582 119.665C123.159 119.665 126.869 113.31 126.869 105.47C126.869 97.6309 123.159 91.2758 118.582 91.2758C114.005 91.2758 110.295 97.6309 110.295 105.47C110.295 113.31 114.005 119.665 118.582 119.665Z" fill="white"/>
<path d="M122.603 110.243C123.882 110.243 124.918 108.106 124.918 105.47C124.918 102.835 123.882 100.698 122.603 100.698C121.324 100.698 120.288 102.835 120.288 105.47C120.288 108.106 121.324 110.243 122.603 110.243Z" fill="#EEF1F4"/>
<path d="M115.779 110.243C117.058 110.243 118.094 108.106 118.094 105.47C118.094 102.835 117.058 100.698 115.779 100.698C114.5 100.698 113.463 102.835 113.463 105.47C113.463 108.106 114.5 110.243 115.779 110.243Z" fill="#EEF1F4"/>
<g filter="url(#filter1_d_417_34185)">
<path d="M86.6532 36.7008C86.6532 39.1482 86.1657 41.5955 85.3127 43.798C83.2409 49.3045 78.7319 53.5873 73.1262 55.4228C71.1763 56.0346 69.1046 56.4017 67.0329 56.4017C56.1869 56.5241 47.2908 47.5914 47.2908 36.7008C47.4126 25.8103 56.1869 17 67.0329 17C77.8789 17 86.6532 25.8103 86.6532 36.7008Z" fill="#F18C53"/>
</g>
<path d="M66.9465 28.8862L68.3919 30.3294L66.0029 32.7147L64.5575 31.2715L66.9465 28.8862ZM61.6868 28.4052L63.1322 29.8483L65.5211 27.4631L64.0757 26.0199L61.6868 28.4052ZM62.4697 36.2224L63.9151 37.6656L67.4483 34.1378L66.0029 32.6946L62.4697 36.2224ZM59.599 33.3561L61.0444 34.7993L64.5776 31.2715L63.1322 29.8283L59.599 33.3561ZM68.3718 30.3094L69.8172 31.7525L73.3504 28.2248L71.905 26.7816L68.3718 30.3094ZM71.1622 33.2559L72.6076 34.699L76.1408 31.1713L74.6954 29.7281L71.1622 33.2559ZM65.5011 27.443L66.9465 28.8862L70.4797 25.3584L69.0343 23.9153L65.5011 27.443ZM65.8223 44.3203L64.3769 42.8771L66.7658 40.4918L68.2112 41.935L65.8223 44.3203ZM71.0819 44.8013L69.6365 43.3581L67.2476 45.7434L68.693 47.1866L71.0819 44.8013ZM70.299 36.9841L68.8536 35.5409L65.3405 39.0687L66.7859 40.5119L70.299 36.9841ZM73.1697 39.8504L71.7243 38.4072L68.1911 41.935L69.6365 43.3782L73.1697 39.8504ZM64.3769 42.8771L62.9315 41.4339L59.3983 44.9617L60.8437 46.4049L64.3769 42.8771ZM61.5262 40.0308L60.0808 38.5876L56.5476 42.1154L57.993 43.5586L61.5262 40.0308ZM67.2476 45.7434L65.8022 44.3002L62.269 47.828L63.7144 49.2712L67.2476 45.7434Z" fill="white"/>
</g>
<defs>
<filter id="filter0_d_417_34185" x="-52.5662" y="-16.4339" width="239.198" height="231.407" filterUnits="userSpaceOnUse" color-interpolation-filters="sRGB">
<feFlood flood-opacity="0" result="BackgroundImageFix"/>
<feColorMatrix in="SourceAlpha" type="matrix" values="0 0 0 0 0 0 0 0 0 0 0 0 0 0 0 0 0 0 127 0" result="hardAlpha"/>
<feOffset dy="-1"/>
<feGaussianBlur stdDeviation="35"/>
<feComposite in2="hardAlpha" operator="out"/>
<feColorMatrix type="matrix" values="0 0 0 0 0 0 0 0 0 0.170527 0 0 0 0 0.504167 0 0 0 0.14 0"/>
<feBlend mode="normal" in2="BackgroundImageFix" result="effect1_dropShadow_417_34185"/>
<feBlend mode="normal" in="SourceGraphic" in2="effect1_dropShadow_417_34185" result="shape"/>
</filter>
<filter id="filter1_d_417_34185" x="39.2908" y="14" width="55.3623" height="55.4029" filterUnits="userSpaceOnUse" color-interpolation-filters="sRGB">
<feFlood flood-opacity="0" result="BackgroundImageFix"/>
<feColorMatrix in="SourceAlpha" type="matrix" values="0 0 0 0 0 0 0 0 0 0 0 0 0 0 0 0 0 0 127 0" result="hardAlpha"/>
<feOffset dy="5"/>
<feGaussianBlur stdDeviation="4"/>
<feColorMatrix type="matrix" values="0 0 0 0 0.968627 0 0 0 0 0.254902 0 0 0 0 0.564706 0 0 0 0.18 0"/>
<feBlend mode="normal" in2="BackgroundImageFix" result="effect1_dropShadow_417_34185"/>
<feBlend mode="normal" in="SourceGraphic" in2="effect1_dropShadow_417_34185" result="shape"/>
</filter>
</defs>
</svg>
