<svg width="136" height="136" viewBox="0 0 136 136" fill="none" xmlns="http://www.w3.org/2000/svg">
<circle cx="68" cy="68" r="68" fill="#F9FAFB"/>
<mask id="mask0_337_6256" style="mask-type:alpha" maskUnits="userSpaceOnUse" x="0" y="0" width="136" height="136">
<circle cx="68" cy="68" r="68" fill="#EFF4FF"/>
</mask>
<g mask="url(#mask0_337_6256)">
<path d="M107.635 52.4479L110.338 51.6334C110.534 51.5765 110.534 51.2924 110.338 51.2356L107.635 50.4211C107.566 50.4021 107.515 50.3516 107.496 50.2821L106.682 47.586C106.625 47.3903 106.341 47.3903 106.284 47.586L105.47 50.2821C105.451 50.3516 105.4 50.4021 105.331 50.4211L102.635 51.2356C102.439 51.2924 102.439 51.5765 102.635 51.6334L105.337 52.4479C105.406 52.4668 105.457 52.5173 105.476 52.5868L106.29 55.2893C106.347 55.485 106.631 55.485 106.688 55.2893L107.503 52.5868C107.515 52.5173 107.566 52.4668 107.635 52.4479Z" fill="#EEF1F4"/>
<path d="M91.6353 23.4484L94.3378 22.6339C94.5335 22.5771 94.5335 22.2929 94.3378 22.2361L91.6353 21.4216C91.5659 21.4027 91.5154 21.3522 91.4964 21.2827L90.6819 18.5867C90.6251 18.391 90.3409 18.391 90.2841 18.5867L89.4696 21.2827C89.4506 21.3522 89.4001 21.4027 89.3307 21.4216L86.6345 22.2361C86.4388 22.2929 86.4388 22.5771 86.6345 22.6339L89.337 23.4484C89.4064 23.4673 89.457 23.5178 89.4759 23.5873L90.2904 26.2896C90.3472 26.4853 90.6314 26.4853 90.6882 26.2896L91.5027 23.5873C91.5154 23.5178 91.5659 23.4673 91.6353 23.4484Z" fill="#F18C53"/>
<path d="M30.5041 38.3838L32.8688 37.6711C33.0401 37.6214 33.0401 37.3728 32.8688 37.3231L30.5041 36.6104C30.4434 36.5939 30.3992 36.5497 30.3826 36.4889L29.6699 34.1299C29.6202 33.9586 29.3715 33.9586 29.3218 34.1299L28.6091 36.4889C28.5925 36.5497 28.5483 36.5939 28.4876 36.6104L26.1285 37.3231C25.9572 37.3728 25.9572 37.6214 26.1285 37.6711L28.4931 38.3838C28.5539 38.4004 28.5981 38.4446 28.6146 38.5054L29.3273 40.8699C29.3771 41.0411 29.6257 41.0411 29.6754 40.8699L30.3881 38.5054C30.3992 38.4446 30.4434 38.4004 30.5041 38.3838Z" fill="#F18C53"/>
<path d="M48.2055 56.1598L49.8946 55.6508C50.0169 55.6153 50.0169 55.4377 49.8946 55.4022L48.2055 54.8932C48.1621 54.8813 48.1305 54.8498 48.1187 54.8064L47.6096 53.1214C47.5741 52.9991 47.3965 52.9991 47.361 53.1214L46.8519 54.8064C46.8401 54.8498 46.8085 54.8813 46.7651 54.8932L45.08 55.4022C44.9577 55.4377 44.9577 55.6153 45.08 55.6508L46.7691 56.1598C46.8125 56.1717 46.844 56.2032 46.8559 56.2467L47.365 57.9356C47.4005 58.0579 47.5781 58.0579 47.6136 57.9356L48.1227 56.2467C48.1305 56.2032 48.1621 56.1717 48.2055 56.1598Z" fill="#ADB6C8"/>
<path d="M42.0395 20.1302L43.7285 19.6211C43.8509 19.5856 43.8509 19.4081 43.7285 19.3725L42.0395 18.8635C41.9961 18.8517 41.9645 18.8201 41.9527 18.7767L41.4436 17.0917C41.4081 16.9694 41.2305 16.9694 41.195 17.0917L40.6859 18.7767C40.6741 18.8201 40.6425 18.8517 40.5991 18.8635L38.914 19.3725C38.7917 19.4081 38.7917 19.5856 38.914 19.6211L40.603 20.1302C40.6465 20.142 40.678 20.1736 40.6899 20.217L41.1989 21.9059C41.2345 22.0282 41.412 22.0282 41.4476 21.9059L41.9566 20.217C41.9645 20.1736 41.9961 20.142 42.0395 20.1302Z" fill="#EEF1F4"/>
<path d="M44.7803 77.6172C38.3938 82.2911 30 89.0728 30 95.0296C30 99.0228 30 104.951 30 108.426C30 109.369 31.3158 109.906 32.0549 109.32C34.8601 107.099 40.5553 103.853 49.2509 104.652C62.2065 105.844 46.97 84.0323 46.97 84.0323L44.7803 77.6172Z" fill="#EEF1F4"/>
<path d="M91.2193 77.6172C97.6058 82.3827 106 89.0728 106 95.0296C106 99.0228 106 104.951 106 108.426C106 109.369 104.684 109.906 103.945 109.32C101.139 107.099 95.4443 103.853 86.7487 104.652C73.7931 105.844 89.0296 84.0323 89.0296 84.0323L91.2193 77.6172Z" fill="#EEF1F4"/>
<g filter="url(#filter0_d_337_6256)">
<path d="M67.9546 12C55.9114 20.6146 41.496 41.7844 44.1419 68.7278C46.6965 95.6712 48.9774 108.96 53.9042 112.167C58.9222 115.375 63.849 116.108 67.9546 116.108C72.0602 116.108 76.987 115.375 82.005 112.167C87.023 108.96 89.2127 95.6712 91.7673 68.7278C94.3219 41.7844 79.9066 20.6146 67.9546 12Z" fill="#F9FAFB"/>
</g>
<path d="M77.0783 118.865H58.831C57.3712 118.865 56.2764 117.674 56.2764 116.299V111.809H79.7241V116.208C79.6329 117.674 78.4468 118.865 77.0783 118.865Z" fill="#F9FAFB"/>
<path d="M69.2324 76.1511H66.6777V109.968H69.2324V76.1511Z" fill="#EEF1F4"/>
<g filter="url(#filter1_d_337_6256)">
<path d="M68.0324 63.1456C73.0209 63.1456 77.0648 59.0835 77.0648 54.0728C77.0648 49.062 73.0209 45 68.0324 45C63.0439 45 59 49.062 59 54.0728C59 59.0835 63.0439 63.1456 68.0324 63.1456Z" fill="#F18C53"/>
</g>
<g filter="url(#filter2_d_337_6256)">
<path d="M80.453 136.38C80.453 143.803 74.5227 181.011 67.1325 181.011C59.7424 181.011 53.812 143.803 53.812 136.38C53.812 128.957 59.7424 123 67.1325 123C74.5227 123 80.453 129.049 80.453 136.38Z" fill="#F9FAFB"/>
</g>
<g filter="url(#filter3_d_337_6256)">
<path d="M67.1332 163.873C64.4874 158.191 61.4766 142.429 61.4766 137.388C61.4766 134.272 64.0312 131.706 67.1332 131.706C70.2353 131.706 72.7899 134.272 72.7899 137.388C72.7899 142.429 69.7791 158.1 67.1332 163.873Z" fill="#F18C53"/>
</g>
</g>
<defs>
<filter id="filter0_d_337_6256" x="-26.1756" y="-59" width="188.24" height="244.108" filterUnits="userSpaceOnUse" color-interpolation-filters="sRGB">
<feFlood flood-opacity="0" result="BackgroundImageFix"/>
<feColorMatrix in="SourceAlpha" type="matrix" values="0 0 0 0 0 0 0 0 0 0 0 0 0 0 0 0 0 0 127 0" result="hardAlpha"/>
<feOffset dy="-1"/>
<feGaussianBlur stdDeviation="35"/>
<feComposite in2="hardAlpha" operator="out"/>
<feColorMatrix type="matrix" values="0 0 0 0 0 0 0 0 0 0.170527 0 0 0 0 0.504167 0 0 0 0.14 0"/>
<feBlend mode="normal" in2="BackgroundImageFix" result="effect1_dropShadow_337_6256"/>
<feBlend mode="normal" in="SourceGraphic" in2="effect1_dropShadow_337_6256" result="shape"/>
</filter>
<filter id="filter1_d_337_6256" x="51" y="42" width="34.0648" height="34.1456" filterUnits="userSpaceOnUse" color-interpolation-filters="sRGB">
<feFlood flood-opacity="0" result="BackgroundImageFix"/>
<feColorMatrix in="SourceAlpha" type="matrix" values="0 0 0 0 0 0 0 0 0 0 0 0 0 0 0 0 0 0 127 0" result="hardAlpha"/>
<feOffset dy="5"/>
<feGaussianBlur stdDeviation="4"/>
<feColorMatrix type="matrix" values="0 0 0 0 0.968627 0 0 0 0 0.254902 0 0 0 0 0.564706 0 0 0 0.3 0"/>
<feBlend mode="normal" in2="BackgroundImageFix" result="effect1_dropShadow_337_6256"/>
<feBlend mode="normal" in="SourceGraphic" in2="effect1_dropShadow_337_6256" result="shape"/>
</filter>
<filter id="filter2_d_337_6256" x="-16.188" y="52" width="166.641" height="198.011" filterUnits="userSpaceOnUse" color-interpolation-filters="sRGB">
<feFlood flood-opacity="0" result="BackgroundImageFix"/>
<feColorMatrix in="SourceAlpha" type="matrix" values="0 0 0 0 0 0 0 0 0 0 0 0 0 0 0 0 0 0 127 0" result="hardAlpha"/>
<feOffset dy="-1"/>
<feGaussianBlur stdDeviation="35"/>
<feComposite in2="hardAlpha" operator="out"/>
<feColorMatrix type="matrix" values="0 0 0 0 0 0 0 0 0 0.170527 0 0 0 0 0.504167 0 0 0 0.14 0"/>
<feBlend mode="normal" in2="BackgroundImageFix" result="effect1_dropShadow_337_6256"/>
<feBlend mode="normal" in="SourceGraphic" in2="effect1_dropShadow_337_6256" result="shape"/>
</filter>
<filter id="filter3_d_337_6256" x="53.4766" y="128.706" width="27.3133" height="48.1671" filterUnits="userSpaceOnUse" color-interpolation-filters="sRGB">
<feFlood flood-opacity="0" result="BackgroundImageFix"/>
<feColorMatrix in="SourceAlpha" type="matrix" values="0 0 0 0 0 0 0 0 0 0 0 0 0 0 0 0 0 0 127 0" result="hardAlpha"/>
<feOffset dy="5"/>
<feGaussianBlur stdDeviation="4"/>
<feColorMatrix type="matrix" values="0 0 0 0 0.968627 0 0 0 0 0.254902 0 0 0 0 0.564706 0 0 0 0.3 0"/>
<feBlend mode="normal" in2="BackgroundImageFix" result="effect1_dropShadow_337_6256"/>
<feBlend mode="normal" in="SourceGraphic" in2="effect1_dropShadow_337_6256" result="shape"/>
</filter>
</defs>
</svg>
