<svg width="87" height="57" viewBox="0 0 87 57" fill="none" xmlns="http://www.w3.org/2000/svg">
<path d="M40.6122 31.8902C40.1989 31.9692 39.7504 31.9174 39.3912 31.6933C38.9718 31.4447 38.6922 30.9992 38.6389 30.5239C38.6323 30.4271 38.632 30.33 38.6379 30.2331C38.6992 29.6867 39.1188 29.1864 39.6726 29.0607C40.353 29.7914 41.0334 30.5214 41.7177 31.2483C41.4384 31.5779 41.0407 31.8064 40.6122 31.8902ZM43.6845 30.9638C43.7078 30.664 43.7297 30.3606 43.8287 30.0729C43.945 29.7107 44.1504 29.3359 44.5166 29.1667C44.5915 29.1448 44.669 29.1289 44.747 29.122C44.7478 29.0531 44.7435 28.9833 44.7613 28.9156C44.7401 28.821 44.7698 28.7245 44.7595 28.6286C44.7453 28.4847 44.7471 28.3401 44.7512 28.1958C44.7621 28.0158 44.7362 27.8318 44.7613 27.6533C44.7504 27.6081 44.747 27.5625 44.746 27.5168C44.2913 27.5125 43.8374 27.6362 43.446 27.8605C42.856 28.1988 42.4097 28.7755 42.2539 29.4288C41.374 28.5017 40.5109 27.5596 39.6334 26.6311C39.4467 26.4258 39.3641 26.1417 39.4 25.871C39.4556 25.5785 39.6445 25.3087 39.9207 25.1752C40.105 25.0763 40.322 25.0611 40.5272 25.0864C40.8433 25.1371 41.1167 25.3567 41.2464 25.6409C41.7347 25.3933 42.2337 25.1644 42.7201 24.9112C42.6358 24.757 42.5479 24.6035 42.4373 24.4657C41.9516 23.8387 41.1549 23.4475 40.3473 23.4665C39.4134 23.451 38.5046 23.9874 38.0648 24.7888C37.7862 25.2822 37.6828 25.8679 37.7788 26.4234C37.8632 26.9413 38.1178 27.4309 38.496 27.8022C38.058 28.0556 37.6828 28.4141 37.4203 28.8406C37.1185 29.3265 36.9683 29.8987 36.9856 30.4661C37.004 31.0257 37.1735 31.5817 37.4808 32.055C37.9392 32.7756 38.7087 33.2986 39.5602 33.4685C39.9938 33.5568 40.444 33.5517 40.8805 33.4823C41.6239 33.3483 42.3141 32.978 42.8405 32.4492C43.0599 32.6961 43.2912 32.9326 43.5152 33.1757C44.26 33.1744 45.005 33.1787 45.75 33.1736C45.0585 32.4399 44.3719 31.7016 43.6845 30.9638H43.6845ZM14.101 28.6771C13.8219 28.9681 13.4281 29.1346 13.0255 29.1788C12.7361 29.1907 12.4464 29.1818 12.1567 29.1844V25.2797C12.4966 25.2881 12.8428 25.2509 13.1759 25.3335C13.5783 25.4198 13.9519 25.6351 14.2119 25.9483C14.8569 26.7199 14.8076 27.9585 14.101 28.6771ZM16.273 26.3817C16.0882 25.5947 15.6293 24.8632 14.9628 24.3793C14.3253 23.91 13.5225 23.6818 12.7292 23.6783C11.9603 23.6785 11.1916 23.6783 10.423 23.6783C10.4228 26.8444 10.4228 30.0098 10.423 33.1757H12.1567C12.1567 32.3832 12.1565 31.5903 12.1567 30.798C12.5715 30.7902 12.9898 30.8213 13.4017 30.7607C14.077 30.6681 14.7215 30.3682 15.2143 29.9076C15.875 29.3 16.2758 28.4436 16.3583 27.565C16.379 27.169 16.3725 26.7684 16.273 26.3818V26.3817ZM23.1996 23.6785C23.7825 23.6782 24.3655 23.6789 24.9485 23.6782C24.9524 23.7309 24.9557 23.7837 24.9572 23.8367C24.956 23.9417 24.9564 24.0467 24.956 24.1522C24.9562 24.2572 24.957 24.3625 24.956 24.4677C24.956 24.6207 24.957 24.7736 24.956 24.9266C24.9562 24.9746 24.9562 25.0225 24.9565 25.0705C24.9495 25.2999 24.9598 25.5296 24.956 25.7593C24.9586 26.0751 24.9495 26.3905 24.956 26.706C24.9575 27.1942 24.9562 27.6821 24.956 28.1697C24.9562 28.2556 24.956 28.3414 24.957 28.4279C24.9508 28.5332 24.9508 28.6387 24.957 28.7439C24.956 28.8204 24.9562 28.8967 24.9562 28.9732C24.9446 29.3063 24.9726 29.64 24.9368 29.9724C24.8865 30.5474 24.726 31.1178 24.4326 31.6201C24.1326 32.1401 23.6869 32.5785 23.1546 32.8715C22.5605 33.2007 21.8723 33.3498 21.1924 33.3498C20.436 33.3579 19.6667 33.1812 19.0246 32.7819C18.4068 32.4026 17.9299 31.8187 17.6663 31.1557C17.4477 30.6185 17.3635 30.0362 17.3679 29.4608C17.3682 27.5334 17.3679 25.6061 17.3679 23.6785C17.9553 23.6782 18.5427 23.6782 19.13 23.6782C19.1303 25.6452 19.13 27.6116 19.1303 29.5782C19.1479 30.1297 19.2693 30.7122 19.6473 31.1406C19.9567 31.4989 20.4288 31.69 20.9004 31.7261C21.392 31.7733 21.9168 31.7084 22.3411 31.4467C22.6819 31.2372 22.9158 30.8932 23.0393 30.5239C23.1341 30.2571 23.169 29.9749 23.1925 29.695C23.2078 29.0047 23.1948 28.3143 23.199 27.6235C23.199 26.309 23.199 24.9935 23.1995 23.6785H23.1996ZM31.5856 23.6802C32.1691 23.6765 32.7526 23.6792 33.3355 23.6782C33.336 26.299 33.3355 28.9188 33.336 31.5388C34.3341 31.5401 35.3326 31.5361 36.3308 31.5406C36.33 32.0853 36.3303 32.6297 36.3308 33.1744C34.7488 33.1769 33.1673 33.1769 31.5858 33.1744C31.5858 30.0098 31.5858 26.8448 31.5856 23.6802V23.6802ZM50.9033 30.64C50.8594 30.8649 50.7345 31.0769 50.548 31.217C50.3262 31.3899 50.0492 31.4763 49.7748 31.5242C49.2482 31.6092 48.7127 31.5653 48.1814 31.5764C48.1822 30.7526 48.1809 29.9285 48.1822 29.1049C48.5783 29.1074 48.9742 29.0981 49.3701 29.1112C49.7541 29.1346 50.1551 29.1914 50.4803 29.4053C50.7108 29.5504 50.8671 29.7965 50.9084 30.0603C50.9387 30.2525 50.9369 30.4483 50.9033 30.64V30.64ZM48.1814 25.2267C48.5711 25.232 48.9639 25.206 49.3503 25.2716C49.6275 25.3216 49.9102 25.4284 50.0975 25.6434C50.2746 25.8499 50.3329 26.128 50.3262 26.3915C50.3329 26.6906 50.2314 27.0051 49.9988 27.2083C49.7533 27.4201 49.4208 27.5021 49.1016 27.5248C48.7946 27.5314 48.4884 27.5258 48.1814 27.5276V25.2267V25.2267ZM52.4439 29.1574C52.2057 28.6733 51.7806 28.2884 51.2888 28.0551C51.2908 28.0457 51.2926 28.0362 51.294 28.0266C51.6527 27.7215 51.9124 27.3047 52.0127 26.8494C52.0881 26.5185 52.0708 26.1752 52.017 25.8423C51.9478 25.5178 51.8232 25.2025 51.6346 24.9259C51.3625 24.5247 50.9731 24.204 50.5312 23.9935C50.1759 23.8316 49.7857 23.764 49.3993 23.7183C49.1642 23.7022 48.9295 23.6835 48.6943 23.6794C47.9431 23.6767 47.1912 23.6792 46.4392 23.6782V33.1757C47.5439 33.1703 48.6486 33.1868 49.7526 33.1673C50.5363 33.1042 51.3175 32.8094 51.8839 32.2662C52.3241 31.8574 52.6212 31.3016 52.6946 30.7114C52.7489 30.1851 52.6837 29.6362 52.4439 29.1574V29.1574ZM53.6365 23.6782C55.6284 23.6782 57.62 23.6782 59.6113 23.6785C59.6105 24.2123 59.6139 24.7461 59.6097 25.28C58.2009 25.281 56.792 25.2767 55.3829 25.2822C55.3837 26.03 55.3837 26.7778 55.3829 27.5256C56.7202 27.5307 58.0575 27.5264 59.3947 27.5276C59.3953 28.0534 59.3947 28.5794 59.3953 29.1044C58.058 29.1061 56.7209 29.1031 55.3837 29.1061C55.3829 29.9285 55.3841 30.7513 55.3829 31.5739C56.792 31.5797 58.2014 31.5747 59.6113 31.5764C59.6118 32.1098 59.6113 32.6423 59.6113 33.1757H53.6365V23.6782V23.6782ZM63.5677 29.0986C63.9575 28.144 64.3499 27.1904 64.7341 26.2338C65.123 27.1879 65.5055 28.1447 65.8977 29.0981C65.121 29.1005 64.3443 29.1007 63.5677 29.0985V29.0986ZM65.4308 23.6999C65.4209 23.6499 65.3595 23.6615 65.3241 23.659C64.93 23.66 64.5359 23.66 64.1426 23.659C64.1051 23.6632 64.0496 23.6486 64.0312 23.6893C62.7107 26.8511 61.3884 30.0127 60.0687 33.1748C60.6958 33.1769 61.3233 33.1756 61.9504 33.1756C62.2787 32.3525 62.605 31.5284 62.9324 30.705C64.1323 30.7058 65.3318 30.705 66.5313 30.7058C66.8586 31.5292 67.1825 32.354 67.5122 33.1761C68.1808 33.1744 68.8493 33.1774 69.5181 33.1744C68.1563 30.016 66.7931 26.858 65.4308 23.6999V23.6999ZM74.1921 27.2235C74.1024 27.5327 73.8909 27.8063 73.6067 27.969C73.1948 28.2114 72.6992 28.2707 72.2263 28.2702C72.0428 28.2694 71.8598 28.2694 71.6772 28.2694V25.2797C72.1754 25.2819 72.6816 25.2522 73.1687 25.3804C73.378 25.4407 73.5855 25.5192 73.7626 25.647C73.9895 25.8022 74.1484 26.0422 74.2156 26.3035C74.291 26.6051 74.2773 26.9254 74.192 27.2235H74.1921ZM75.6542 31.6246C75.244 30.8685 74.8518 30.1019 74.4939 29.3207C74.7742 29.1667 75.0345 28.9756 75.257 28.7472C75.5405 28.4663 75.742 28.1162 75.8751 27.7452C76.1503 26.909 76.1206 25.9476 75.6714 25.1735C75.4668 24.8236 75.1727 24.5258 74.8278 24.3049C74.3086 23.9659 73.6936 23.7978 73.0803 23.7176C72.8641 23.7009 72.6488 23.6759 72.4325 23.6782C71.5971 23.6792 70.7623 23.6769 69.9269 23.6794C69.9277 26.8446 69.9277 30.0098 69.9269 33.1749C70.5112 33.1761 71.0936 33.1769 71.6772 33.1749V29.9853C71.7327 29.9846 71.789 29.9841 71.8456 29.9815C71.989 29.9611 72.1351 29.9707 72.2792 29.9518C72.4278 29.9396 72.5739 29.9109 72.723 29.9033C72.7853 30.0623 72.8651 30.2137 72.9369 30.3682C73.3899 31.3208 73.8789 32.2566 74.4029 33.1737C75.1278 33.1782 75.8518 33.1762 76.5767 33.1745C76.2485 32.6696 75.9436 32.1507 75.6542 31.6246ZM26.1346 23.6782H27.8809C27.8809 26.2984 27.8804 28.9188 27.8809 31.5388H30.8723C30.8723 32.0845 30.8726 32.6305 30.8723 33.1757H26.1346C26.1343 30.0102 26.1346 26.8444 26.1346 23.6782" fill="#161413"/>
</svg>
