<svg width="433" height="423" viewBox="0 0 433 423" fill="none" xmlns="http://www.w3.org/2000/svg">
<path d="M49.9859 2.05132H300.125C333.681 2.05132 360.883 29.2536 360.883 62.8093V219.944C360.883 305.796 291.287 375.392 205.435 375.392C119.583 375.392 49.9859 305.796 49.9859 219.944V2.05132Z" stroke="url(#paint0_radial_377_7380)" stroke-width="4.10265"/>
<path d="M-0.000183105 16.4106H280.505C316.953 16.4106 346.5 45.9577 346.5 82.4059V239.75C346.5 335.433 268.933 413 173.25 413C77.5665 413 -0.000183105 335.433 -0.000183105 239.75V16.4106Z" fill="#F0F4F9"/>
<mask id="mask0_377_7380" style="mask-type:alpha" maskUnits="userSpaceOnUse" x="17" y="34" width="315" height="360">
<path d="M17.8041 34.1887H331.435V237.039C331.435 323.646 261.226 393.854 174.619 393.854C88.0127 393.854 17.8041 323.646 17.8041 237.039V34.1887Z" fill="white"/>
</mask>
<g mask="url(#mask0_377_7380)">
<g clip-path="url(#clip0_377_7380)">
<rect x="46.5651" y="65.6422" width="257.478" height="556.593" rx="32.8212" fill="white"/>
<rect x="57.6669" y="92.7034" width="31.9185" height="31.9185" rx="15.9592" stroke="#EEF1F4" stroke-width="0.69388"/>
<path d="M75.0137 112.326L71.9976 109.31C71.6414 108.954 71.6414 108.371 71.9976 108.015L75.0137 104.999" stroke="#12143D" stroke-width="1.04082" stroke-miterlimit="10" stroke-linecap="round" stroke-linejoin="round"/>
<path d="M136.433 105.286H132.702V112.724H134.279V110.393H136.433C137.865 110.393 139.019 109.349 139.019 107.839C139.019 106.374 137.887 105.286 136.433 105.286ZM134.279 108.894V106.818H136.31C136.921 106.818 137.421 107.228 137.421 107.839C137.421 108.483 136.932 108.894 136.31 108.894H134.279ZM139.523 104.731V106.485H141.021V104.731H139.523ZM139.523 107.195V112.724H141.021V107.195H139.523ZM147.264 109.293C147.042 107.972 145.977 107.029 144.456 107.029C142.668 107.029 141.547 108.316 141.547 109.96C141.547 111.603 142.668 112.891 144.456 112.891C145.966 112.891 147.031 111.936 147.264 110.615H145.699C145.521 111.103 145.055 111.436 144.467 111.436C143.59 111.436 143.046 110.77 143.046 109.96C143.046 109.149 143.59 108.472 144.467 108.472C145.066 108.472 145.521 108.816 145.699 109.293H147.264ZM153.079 107.195H151.447L150.359 109.138H149.216V104.731H147.717V112.724H149.216V110.515H151.037C151.314 110.515 151.481 110.659 151.481 110.925V112.724H152.979V110.426C152.979 109.704 152.535 109.26 151.936 109.16L153.079 107.195ZM160.057 105.286H156.327V112.724H157.903V110.393H160.057C161.489 110.393 162.644 109.349 162.644 107.839C162.644 106.374 161.511 105.286 160.057 105.286ZM157.903 108.894V106.818H159.935C160.545 106.818 161.045 107.228 161.045 107.839C161.045 108.483 160.557 108.894 159.935 108.894H157.903ZM167.126 107.906H167.071C166.726 107.406 166.094 107.029 165.294 107.029C163.729 107.018 162.652 108.261 162.652 109.971C162.652 111.714 163.784 112.891 165.283 112.891C166.094 112.879 166.726 112.502 167.071 111.991H167.126V112.724H168.614V107.195H167.126V107.906ZM165.65 111.469C164.772 111.469 164.162 110.826 164.162 109.96C164.162 109.094 164.772 108.45 165.65 108.45C166.516 108.45 167.126 109.105 167.126 109.96C167.126 110.781 166.538 111.469 165.65 111.469ZM172.324 107.195C171.681 107.195 171.192 107.517 170.992 108.061H170.937V107.195H169.516V112.724H171.014V109.971C171.014 109.205 171.525 108.694 172.247 108.694H173.49V107.195H172.324ZM179.23 107.195H177.598L176.51 109.138H175.366V104.731H173.868V112.724H175.366V110.515H177.187C177.465 110.515 177.631 110.659 177.631 110.925V112.724H179.13V110.426C179.13 109.704 178.686 109.26 178.086 109.16L179.23 107.195ZM179.976 104.731V106.485H181.475V104.731H179.976ZM179.976 107.195V112.724H181.475V107.195H179.976ZM185.552 107.04C184.863 107.04 184.242 107.351 183.875 107.861H183.82V107.195H182.365V112.724H183.864V109.86C183.864 109.027 184.442 108.505 185.119 108.505C185.74 108.505 186.251 108.949 186.251 109.749V112.724H187.75V109.527C187.75 107.939 186.895 107.04 185.552 107.04ZM192.659 107.906H192.603C192.259 107.406 191.626 107.029 190.827 107.029C189.261 107.018 188.185 108.261 188.185 109.971C188.185 111.714 189.317 112.891 190.816 112.891C191.626 112.879 192.259 112.502 192.603 111.991H192.659V112.946C192.659 113.268 192.459 113.446 192.137 113.446H188.906V114.944H192.459C193.536 114.944 194.146 114.356 194.146 113.29V107.195H192.659V107.906ZM191.182 111.469C190.305 111.469 189.694 110.826 189.694 109.96C189.694 109.094 190.305 108.45 191.182 108.45C192.048 108.45 192.659 109.105 192.659 109.96C192.659 110.781 192.07 111.469 191.182 111.469ZM199.381 105.286C197.938 105.286 197.183 106.318 197.183 107.384C197.183 108.239 197.716 109.116 198.86 109.393L201.524 110.026C201.868 110.104 202.024 110.348 202.024 110.592C202.024 110.892 201.791 111.181 201.402 111.181H197.472V112.724H201.458C202.934 112.724 203.7 111.658 203.7 110.57C203.7 109.693 203.167 108.794 202.013 108.527L199.359 107.906C199.048 107.828 198.893 107.584 198.893 107.351C198.893 107.073 199.093 106.818 199.492 106.818H203.212V105.286H199.381ZM207.581 107.029C206.793 107.029 206.149 107.406 205.805 107.906H205.749V107.195H204.262V114.944H205.749V111.991H205.805C206.149 112.502 206.782 112.879 207.592 112.891C209.091 112.891 210.224 111.714 210.224 109.971C210.224 108.261 209.147 107.018 207.581 107.029ZM207.226 111.469C206.338 111.469 205.749 110.781 205.749 109.96C205.749 109.105 206.36 108.45 207.226 108.45C208.103 108.45 208.714 109.094 208.714 109.96C208.714 110.826 208.103 111.469 207.226 111.469ZM213.468 112.891C215.266 112.891 216.443 111.614 216.443 109.96C216.443 108.316 215.278 107.029 213.468 107.029C211.658 107.029 210.493 108.316 210.493 109.96C210.493 111.614 211.669 112.891 213.468 112.891ZM213.468 111.436C212.58 111.436 211.991 110.781 211.991 109.96C211.991 109.138 212.58 108.472 213.468 108.472C214.356 108.472 214.945 109.138 214.945 109.96C214.945 110.781 214.345 111.436 213.468 111.436ZM221.009 107.195H218.734V105.286H217.235V107.195H216.458V108.638H217.235V111.103C217.235 112.102 217.89 112.724 218.9 112.724H221.009V111.27H219.178C218.911 111.27 218.734 111.114 218.734 110.848V108.638H221.009V107.195Z" fill="#12143D"/>
<rect x="57.667" y="139.193" width="56.2042" height="27.7552" rx="5.55104" fill="#E83A64"/>
<path d="M71.4169 150.492H68.9522V151.641H70.2345V156.071H71.4169V150.492ZM73.3996 151.924C72.6419 151.924 72.059 152.432 72.059 153.148C72.059 153.706 72.4753 154.147 73.0748 154.272L74.6569 154.614C74.7485 154.639 74.7984 154.714 74.7984 154.797C74.7984 154.905 74.7235 154.98 74.6153 154.98H72.2339V156.071H74.6319C75.3896 156.071 75.9808 155.555 75.9808 154.822C75.9808 154.239 75.5811 153.806 74.9567 153.673L73.3996 153.356C73.3163 153.34 73.258 153.265 73.258 153.181C73.258 153.082 73.3246 153.007 73.4329 153.007H75.6811V151.924H73.3996ZM79.5529 151.924H77.846V150.492H76.7219V151.924H76.139V153.007H76.7219V154.855C76.7219 155.605 77.2131 156.071 77.9709 156.071H79.5529V154.98H78.179C77.9792 154.98 77.846 154.863 77.846 154.664V153.007H79.5529V151.924ZM86.6083 150.492H82.3451V156.071H83.5275V153.914H86.3002V152.815H83.5275V151.641H86.6083V150.492ZM87.0983 154.872C87.0983 155.621 87.5479 156.071 88.3389 156.071H89.1133V154.98H88.5554C88.3473 154.98 88.2224 154.863 88.2224 154.672V150.076H87.0983V154.872ZM91.5614 156.196C92.9103 156.196 93.793 155.238 93.793 153.997C93.793 152.765 92.9187 151.799 91.5614 151.799C90.2042 151.799 89.3299 152.765 89.3299 153.997C89.3299 155.238 90.2125 156.196 91.5614 156.196ZM91.5614 155.105C90.8953 155.105 90.454 154.614 90.454 153.997C90.454 153.381 90.8953 152.882 91.5614 152.882C92.2276 152.882 92.6689 153.381 92.6689 153.997C92.6689 154.614 92.2192 155.105 91.5614 155.105ZM96.4159 156.196C97.7648 156.196 98.6474 155.238 98.6474 153.997C98.6474 152.765 97.7731 151.799 96.4159 151.799C95.0587 151.799 94.1844 152.765 94.1844 153.997C94.1844 155.238 95.067 156.196 96.4159 156.196ZM96.4159 155.105C95.7498 155.105 95.3085 154.614 95.3085 153.997C95.3085 153.381 95.7498 152.882 96.4159 152.882C97.082 152.882 97.5233 153.381 97.5233 153.997C97.5233 154.614 97.0737 155.105 96.4159 155.105ZM101.322 151.924C100.839 151.924 100.473 152.166 100.323 152.574H100.281V151.924H99.2152V156.071H100.339V154.006C100.339 153.431 100.722 153.048 101.264 153.048H102.196V151.924H101.322Z" fill="white"/>
<rect x="119.422" y="139.193" width="60.3675" height="27.7552" rx="5.55104" fill="#F9FAFB"/>
<rect x="185.341" y="139.193" width="58.9798" height="27.7552" rx="5.55104" fill="#F9FAFB"/>
<rect x="249.872" y="139.193" width="59.6737" height="27.7552" rx="5.55104" fill="#F9FAFB"/>
<rect x="99.2998" y="184.619" width="33.2042" height="27.7552" rx="8.32656" fill="#F9FAFB"/>
<path d="M112.742 195.535H114.024L116.264 201.496H115.023L114.532 200.073H112.234L111.742 201.496H110.502L112.742 195.535ZM114.165 199.04L113.633 197.55L113.416 196.825H113.349L113.133 197.55L112.6 199.04H114.165ZM119.043 197.833C119.26 197.833 119.471 197.88 119.676 197.974C119.882 198.063 120.065 198.188 120.226 198.349C120.387 198.51 120.514 198.704 120.609 198.932C120.709 199.159 120.759 199.409 120.759 199.681C120.759 199.964 120.703 200.225 120.592 200.464C120.481 200.703 120.331 200.908 120.142 201.08C119.959 201.252 119.746 201.388 119.501 201.488C119.263 201.582 119.01 201.63 118.744 201.63C118.433 201.63 118.152 201.577 117.903 201.471C117.653 201.36 117.436 201.216 117.253 201.038C117.075 200.855 116.937 200.644 116.837 200.406C116.742 200.161 116.695 199.906 116.695 199.64C116.695 199.257 116.77 198.907 116.92 198.59C117.075 198.268 117.27 197.941 117.503 197.608L118.885 195.635L119.726 196.217L118.56 197.866L118.602 197.916C118.73 197.86 118.877 197.833 119.043 197.833ZM118.727 200.622C118.849 200.622 118.968 200.6 119.085 200.555C119.202 200.511 119.304 200.447 119.393 200.364C119.482 200.281 119.551 200.184 119.601 200.073C119.657 199.956 119.684 199.828 119.684 199.69C119.684 199.551 119.657 199.423 119.601 199.307C119.551 199.19 119.482 199.09 119.393 199.007C119.304 198.923 119.202 198.86 119.085 198.815C118.968 198.771 118.849 198.749 118.727 198.749C118.599 198.749 118.477 198.771 118.361 198.815C118.25 198.86 118.147 198.923 118.052 199.007C117.964 199.09 117.891 199.19 117.836 199.307C117.786 199.423 117.761 199.551 117.761 199.69C117.761 199.828 117.786 199.956 117.836 200.073C117.891 200.184 117.964 200.281 118.052 200.364C118.147 200.447 118.25 200.511 118.361 200.555C118.477 200.6 118.599 200.622 118.727 200.622Z" fill="#12143D"/>
<path d="M62.4881 201.252V200.103H59.3989V198.962H62.13V197.863H59.3989V196.822H62.4881V195.673H58.2165V201.252H62.4881ZM65.5801 196.989C65.0639 196.989 64.5976 197.222 64.3228 197.605H64.2812V197.105H63.1904V201.252H64.3145V199.104C64.3145 198.479 64.7475 198.088 65.2554 198.088C65.7217 198.088 66.1047 198.421 66.1047 199.02V201.252H67.2288V198.854C67.2288 197.663 66.5877 196.989 65.5801 196.989ZM71.0529 197.105H69.346V195.673H68.2219V197.105H67.639V198.188H68.2219V200.036C68.2219 200.786 68.7131 201.252 69.4709 201.252H71.0529V200.161H69.679C69.4792 200.161 69.346 200.044 69.346 199.845V198.188H71.0529V197.105ZM73.8106 197.105C73.3277 197.105 72.9613 197.347 72.8114 197.755H72.7698V197.105H71.704V201.252H72.8281V199.187C72.8281 198.612 73.2111 198.229 73.7523 198.229H74.6849V197.105H73.8106ZM77.3557 200.253L76.1067 197.105H74.8744L76.7812 201.743C76.7063 201.793 76.6147 201.818 76.4981 201.818H75.349V202.917H76.5314C77.1809 202.917 77.6472 202.551 77.8636 201.926L79.5123 197.105H78.3716L77.3557 200.253Z" fill="#12143D"/>
<path d="M177.015 235.385C176.648 235.385 176.318 235.31 176.024 235.16C175.73 235.005 175.477 234.794 175.266 234.527C175.061 234.261 174.903 233.947 174.792 233.586C174.681 233.22 174.625 232.826 174.625 232.404C174.625 231.982 174.681 231.591 174.792 231.23C174.903 230.863 175.061 230.547 175.266 230.281C175.477 230.014 175.73 229.806 176.024 229.656C176.318 229.501 176.648 229.423 177.015 229.423C177.381 229.423 177.711 229.501 178.006 229.656C178.3 229.806 178.55 230.014 178.755 230.281C178.966 230.547 179.127 230.863 179.238 231.23C179.349 231.591 179.404 231.982 179.404 232.404C179.404 232.826 179.349 233.22 179.238 233.586C179.127 233.947 178.966 234.261 178.755 234.527C178.55 234.794 178.3 235.005 178.006 235.16C177.711 235.31 177.381 235.385 177.015 235.385ZM177.015 234.352C177.215 234.352 177.395 234.305 177.556 234.211C177.717 234.111 177.853 233.975 177.964 233.803C178.081 233.625 178.167 233.417 178.222 233.178C178.283 232.94 178.314 232.681 178.314 232.404C178.314 232.121 178.283 231.863 178.222 231.63C178.167 231.391 178.081 231.185 177.964 231.013C177.853 230.836 177.717 230.7 177.556 230.605C177.395 230.505 177.215 230.455 177.015 230.455C176.809 230.455 176.626 230.505 176.465 230.605C176.304 230.7 176.168 230.836 176.057 231.013C175.946 231.185 175.86 231.391 175.799 231.63C175.744 231.863 175.716 232.121 175.716 232.404C175.716 232.681 175.744 232.94 175.799 233.178C175.86 233.417 175.946 233.625 176.057 233.803C176.168 233.975 176.304 234.111 176.465 234.211C176.626 234.305 176.809 234.352 177.015 234.352ZM181.431 235.252V230.839L180.423 231.263L180.024 230.339L181.697 229.556H182.521V235.252H181.431Z" fill="#12143D"/>
<path d="M177.015 290.202C176.648 290.202 176.318 290.127 176.024 289.977C175.73 289.821 175.477 289.61 175.266 289.344C175.061 289.078 174.903 288.764 174.792 288.403C174.681 288.037 174.625 287.643 174.625 287.221C174.625 286.799 174.681 286.408 174.792 286.047C174.903 285.68 175.061 285.364 175.266 285.097C175.477 284.831 175.73 284.623 176.024 284.473C176.318 284.318 176.648 284.24 177.015 284.24C177.381 284.24 177.711 284.318 178.006 284.473C178.3 284.623 178.55 284.831 178.755 285.097C178.966 285.364 179.127 285.68 179.238 286.047C179.349 286.408 179.404 286.799 179.404 287.221C179.404 287.643 179.349 288.037 179.238 288.403C179.127 288.764 178.966 289.078 178.755 289.344C178.55 289.61 178.3 289.821 178.006 289.977C177.711 290.127 177.381 290.202 177.015 290.202ZM177.015 289.169C177.215 289.169 177.395 289.122 177.556 289.028C177.717 288.928 177.853 288.792 177.964 288.62C178.081 288.442 178.167 288.234 178.222 287.995C178.283 287.756 178.314 287.498 178.314 287.221C178.314 286.938 178.283 286.68 178.222 286.446C178.167 286.208 178.081 286.002 177.964 285.83C177.853 285.653 177.717 285.517 177.556 285.422C177.395 285.322 177.215 285.272 177.015 285.272C176.809 285.272 176.626 285.322 176.465 285.422C176.304 285.517 176.168 285.653 176.057 285.83C175.946 286.002 175.86 286.208 175.799 286.446C175.744 286.68 175.716 286.938 175.716 287.221C175.716 287.498 175.744 287.756 175.799 287.995C175.86 288.234 175.946 288.442 176.057 288.62C176.168 288.792 176.304 288.928 176.465 289.028C176.626 289.122 176.809 289.169 177.015 289.169ZM182.112 290.202C181.878 290.202 181.654 290.171 181.437 290.11C181.226 290.049 181.032 289.957 180.854 289.835C180.677 289.708 180.518 289.549 180.38 289.361C180.246 289.172 180.144 288.953 180.072 288.703L181.096 288.295C181.168 288.572 181.29 288.783 181.462 288.928C181.634 289.066 181.851 289.136 182.112 289.136C182.228 289.136 182.339 289.119 182.445 289.086C182.55 289.047 182.642 288.994 182.719 288.928C182.797 288.861 182.858 288.783 182.903 288.695C182.953 288.6 182.977 288.495 182.977 288.378C182.977 288.134 182.886 287.942 182.703 287.804C182.525 287.665 182.278 287.595 181.962 287.595H181.47V286.605H181.92C182.031 286.605 182.139 286.591 182.245 286.563C182.35 286.535 182.442 286.494 182.52 286.438C182.603 286.377 182.667 286.302 182.711 286.213C182.761 286.119 182.786 286.011 182.786 285.888C182.786 285.7 182.719 285.547 182.586 285.431C182.453 285.308 182.273 285.247 182.045 285.247C181.801 285.247 181.612 285.314 181.479 285.447C181.351 285.575 181.262 285.719 181.212 285.88L180.213 285.472C180.263 285.333 180.338 285.192 180.438 285.048C180.538 284.898 180.663 284.764 180.813 284.648C180.968 284.526 181.148 284.429 181.354 284.356C181.559 284.279 181.795 284.24 182.062 284.24C182.334 284.24 182.581 284.279 182.803 284.356C183.03 284.434 183.225 284.542 183.385 284.681C183.546 284.814 183.671 284.975 183.76 285.164C183.849 285.347 183.893 285.547 183.893 285.764C183.893 285.93 183.871 286.08 183.827 286.213C183.788 286.346 183.735 286.466 183.669 286.571C183.602 286.677 183.524 286.768 183.435 286.846C183.352 286.918 183.266 286.976 183.177 287.021V287.088C183.444 287.193 183.663 287.362 183.835 287.595C184.013 287.829 184.102 288.123 184.102 288.478C184.102 288.728 184.054 288.958 183.96 289.169C183.866 289.375 183.73 289.555 183.552 289.71C183.38 289.866 183.172 289.985 182.928 290.068C182.683 290.157 182.411 290.202 182.112 290.202Z" fill="#12143D"/>
<path d="M280.423 235.385C280.057 235.385 279.726 235.31 279.432 235.16C279.138 235.005 278.885 234.794 278.674 234.527C278.469 234.261 278.311 233.947 278.2 233.586C278.089 233.22 278.033 232.826 278.033 232.404C278.033 231.982 278.089 231.591 278.2 231.23C278.311 230.863 278.469 230.547 278.674 230.281C278.885 230.014 279.138 229.806 279.432 229.656C279.726 229.501 280.057 229.423 280.423 229.423C280.789 229.423 281.12 229.501 281.414 229.656C281.708 229.806 281.958 230.014 282.163 230.281C282.374 230.547 282.535 230.863 282.646 231.23C282.757 231.591 282.813 231.982 282.813 232.404C282.813 232.826 282.757 233.22 282.646 233.586C282.535 233.947 282.374 234.261 282.163 234.527C281.958 234.794 281.708 235.005 281.414 235.16C281.12 235.31 280.789 235.385 280.423 235.385ZM280.423 234.352C280.623 234.352 280.803 234.305 280.964 234.211C281.125 234.111 281.261 233.975 281.372 233.803C281.489 233.625 281.575 233.417 281.63 233.178C281.691 232.94 281.722 232.681 281.722 232.404C281.722 232.121 281.691 231.863 281.63 231.63C281.575 231.391 281.489 231.185 281.372 231.013C281.261 230.836 281.125 230.7 280.964 230.605C280.803 230.505 280.623 230.455 280.423 230.455C280.218 230.455 280.034 230.505 279.873 230.605C279.712 230.7 279.576 230.836 279.465 231.013C279.354 231.185 279.268 231.391 279.207 231.63C279.152 231.863 279.124 232.121 279.124 232.404C279.124 232.681 279.152 232.94 279.207 233.178C279.268 233.417 279.354 233.625 279.465 233.803C279.576 233.975 279.712 234.111 279.873 234.211C280.034 234.305 280.218 234.352 280.423 234.352ZM283.482 235.252V234.261C283.809 233.939 284.112 233.639 284.389 233.361C284.506 233.245 284.625 233.126 284.747 233.003C284.869 232.881 284.983 232.767 285.089 232.662C285.194 232.557 285.289 232.462 285.372 232.379C285.455 232.29 285.519 232.221 285.563 232.171C285.652 232.065 285.73 231.971 285.796 231.888C285.869 231.804 285.924 231.724 285.963 231.646C286.007 231.563 286.041 231.482 286.063 231.405C286.085 231.321 286.096 231.233 286.096 231.138C286.096 230.955 286.024 230.797 285.88 230.664C285.735 230.525 285.538 230.455 285.289 230.455C285.039 230.455 284.844 230.528 284.706 230.672C284.567 230.811 284.473 230.969 284.423 231.147L283.432 230.739C283.476 230.589 283.548 230.436 283.648 230.281C283.748 230.12 283.876 229.978 284.031 229.856C284.187 229.728 284.37 229.626 284.581 229.548C284.797 229.465 285.039 229.423 285.305 229.423C285.594 229.423 285.855 229.467 286.088 229.556C286.321 229.639 286.518 229.756 286.679 229.906C286.84 230.056 286.965 230.233 287.054 230.439C287.143 230.639 287.187 230.855 287.187 231.088C287.187 231.444 287.098 231.771 286.921 232.071C286.748 232.365 286.538 232.64 286.288 232.895L285.572 233.611C285.383 233.8 285.169 234.011 284.93 234.244L284.964 234.294H287.27V235.252H283.482Z" fill="#12143D"/>
<path d="M280.423 290.202C280.057 290.202 279.726 290.127 279.432 289.977C279.138 289.821 278.885 289.61 278.674 289.344C278.469 289.078 278.311 288.764 278.2 288.403C278.089 288.037 278.033 287.643 278.033 287.221C278.033 286.799 278.089 286.408 278.2 286.047C278.311 285.68 278.469 285.364 278.674 285.097C278.885 284.831 279.138 284.623 279.432 284.473C279.726 284.318 280.057 284.24 280.423 284.24C280.789 284.24 281.12 284.318 281.414 284.473C281.708 284.623 281.958 284.831 282.163 285.097C282.374 285.364 282.535 285.68 282.646 286.047C282.757 286.408 282.813 286.799 282.813 287.221C282.813 287.643 282.757 288.037 282.646 288.403C282.535 288.764 282.374 289.078 282.163 289.344C281.958 289.61 281.708 289.821 281.414 289.977C281.12 290.127 280.789 290.202 280.423 290.202ZM280.423 289.169C280.623 289.169 280.803 289.122 280.964 289.028C281.125 288.928 281.261 288.792 281.372 288.62C281.489 288.442 281.575 288.234 281.63 287.995C281.691 287.756 281.722 287.498 281.722 287.221C281.722 286.938 281.691 286.68 281.63 286.446C281.575 286.208 281.489 286.002 281.372 285.83C281.261 285.653 281.125 285.517 280.964 285.422C280.803 285.322 280.623 285.272 280.423 285.272C280.218 285.272 280.034 285.322 279.873 285.422C279.712 285.517 279.576 285.653 279.465 285.83C279.354 286.002 279.268 286.208 279.207 286.446C279.152 286.68 279.124 286.938 279.124 287.221C279.124 287.498 279.152 287.756 279.207 287.995C279.268 288.234 279.354 288.442 279.465 288.62C279.576 288.792 279.712 288.928 279.873 289.028C280.034 289.122 280.218 289.169 280.423 289.169ZM286.144 290.068V289.019H283.513V288.137L286.044 284.373H287.227V288.003H287.943V289.019H287.227V290.068H286.144ZM286.144 285.997H286.078L284.72 288.003H286.144V285.997Z" fill="#12143D"/>
<rect x="99.2998" y="340.742" width="33.2042" height="27.7552" rx="8.32656" fill="#F9FAFB"/>
<path d="M112.742 351.658H114.024L116.264 357.619H115.023L114.532 356.196H112.234L111.742 357.619H110.502L112.742 351.658ZM114.165 355.163L113.633 353.673L113.416 352.948H113.349L113.133 353.673L112.6 355.163H114.165ZM116.97 357.245L119.343 353.006L119.318 352.957H116.695L116.712 351.924H120.575V353.006L117.886 357.753L116.97 357.245Z" fill="#12143D"/>
<line x1="89.932" y1="226.969" x2="295.32" y2="226.969" stroke="#EBF1F8" stroke-width="0.69388" stroke-linecap="round"/>
<line x1="89.932" y1="274.476" x2="295.32" y2="274.476" stroke="#EBF1F8" stroke-width="0.69388" stroke-linecap="round"/>
<line x1="89.932" y1="328.599" x2="295.32" y2="328.599" stroke="#EBF1F8" stroke-width="0.69388" stroke-linecap="round"/>
<line x1="191.259" y1="328.599" x2="191.259" y2="221.048" stroke="#EBF1F8" stroke-width="0.69388" stroke-linecap="round"/>
<line x1="103.85" y1="377.096" x2="295.981" y2="377.096" stroke="#EBF1F8" stroke-width="0.69388" stroke-linecap="round"/>
<path d="M117.315 257.996C116.834 257.987 116.352 258.005 115.872 258.051L110.242 258.562C106.579 258.922 101.873 257.665 99.2712 255.064C97.0337 252.83 96.6873 249.357 96.6873 245.949L96.6873 244.475C96.6873 241.067 97.0481 237.59 99.2712 235.356C101.873 232.759 106.579 231.512 110.242 231.851L115.883 232.373C116.363 232.418 116.845 232.434 117.326 232.424L144.122 231.743C148.218 231.743 159.557 235.057 159.557 239.147L159.557 251.274C159.557 255.366 148.218 258.681 144.122 258.681L117.315 257.996Z" fill="#FCEBEF"/>
<path d="M119.449 234.383C118.994 234.383 116.923 233.014 116.453 232.974L111.08 232.477C107.586 232.153 103.104 233.342 100.614 235.817C98.4885 237.946 98.1565 241.268 98.1565 244.511L98.1565 245.916C98.1565 249.158 98.4885 252.476 100.621 254.606C103.104 257.084 107.586 258.27 111.087 257.949L116.461 257.452C116.915 257.409 118.987 256.032 119.456 256.043L144.379 256.043C148.283 256.043 158.092 254.894 158.092 250.999L158.092 239.431C158.092 235.532 148.294 234.387 144.379 234.387L119.449 234.383Z" fill="#EA4D73"/>
<path d="M118.478 257.12L119.73 257.12L120.423 259.924C120.423 259.924 118.478 260.399 118.478 257.12Z" fill="#FCEBEF"/>
<path d="M131.675 256.429L131.909 256.429C138.145 256.429 144.371 256.04 144.371 256.04C144.371 256.04 139.831 254.487 138.145 254.487L132.039 254.487C131.888 255.129 131.761 255.777 131.675 256.429Z" fill="#45474A"/>
<path d="M131.318 254.487L125.631 254.487C124.66 254.487 119.449 256.04 119.449 256.04C119.449 256.04 124.92 256.4 130.745 256.425C130.903 255.77 131.106 255.124 131.318 254.487Z" fill="#45474A"/>
<path d="M131.675 233.994L131.909 233.994C138.145 233.994 144.371 234.383 144.371 234.383C144.371 234.383 139.831 235.936 138.145 235.936L132.039 235.936C131.888 235.295 131.761 234.642 131.675 233.994Z" fill="#45474A"/>
<path d="M131.318 235.936L125.631 235.936C124.66 235.936 119.449 234.383 119.449 234.383C119.449 234.383 124.92 234.023 130.745 233.997C130.903 234.653 131.106 235.295 131.318 235.936Z" fill="#45474A"/>
<path d="M118.478 233.302L119.73 233.302L120.423 230.495C120.423 230.495 118.478 230.023 118.478 233.302Z" fill="#FCEBEF"/>
<path d="M123.945 253.774L114.923 256.105C114.923 256.105 111.487 253.644 111.487 245.21C111.487 236.776 114.923 234.319 114.923 234.319L123.945 236.646C123.945 236.646 122.84 241.33 122.84 245.21C122.84 249.09 123.945 253.774 123.945 253.774ZM143.898 237.377C144.481 239.95 144.814 242.573 144.89 245.21C144.814 247.848 144.481 250.472 143.898 253.046C143.878 253.135 143.877 253.227 143.897 253.316C143.917 253.405 143.956 253.489 144.012 253.561C144.068 253.633 144.139 253.691 144.22 253.733C144.302 253.774 144.391 253.797 144.483 253.799L152.704 254.087C152.814 254.091 152.924 254.064 153.021 254.011C153.118 253.958 153.199 253.88 153.256 253.785C155.212 250.492 154.941 245.21 154.941 245.21C154.941 245.21 155.212 239.932 153.256 236.639C153.199 236.544 153.118 236.466 153.021 236.412C152.924 236.359 152.814 236.333 152.704 236.336L144.483 236.621C144.391 236.624 144.302 236.647 144.22 236.689C144.139 236.73 144.068 236.789 144.012 236.862C143.956 236.934 143.917 237.018 143.897 237.107C143.877 237.196 143.878 237.288 143.898 237.377Z" fill="#45474A"/>
<path d="M101.414 256.105C100.934 254.173 98.7295 252.927 98.1665 253.006C98.4736 253.568 98.8587 254.083 99.3105 254.537C99.937 255.153 100.645 255.681 101.414 256.105Z" fill="#E9E8D8"/>
<path d="M101.414 234.318C100.934 236.246 98.7295 237.493 98.1665 237.417C98.4718 236.854 98.8571 236.338 99.3105 235.886C99.9361 235.269 100.644 234.741 101.414 234.318Z" fill="#E9E8D8"/>
<path d="M223.74 312.145C223.258 312.136 222.776 312.154 222.296 312.199L216.666 312.711C213.003 313.071 208.297 311.814 205.695 309.213C203.458 306.979 203.111 303.506 203.111 300.097L203.111 298.624C203.111 295.216 203.472 291.739 205.695 289.505C208.297 286.908 213.003 285.661 216.666 286L222.307 286.522C222.787 286.566 223.269 286.583 223.75 286.573L250.546 285.892C254.642 285.892 265.981 289.206 265.981 293.295L265.981 305.422C265.981 309.515 254.642 312.83 250.546 312.83L223.74 312.145Z" fill="#FDF3ED"/>
<path d="M225.873 288.532C225.418 288.532 223.347 287.163 222.878 287.123L217.504 286.626C214.011 286.302 209.528 287.491 207.038 289.966C204.913 292.095 204.581 295.417 204.581 298.659L204.581 300.065C204.581 303.307 204.913 306.625 207.046 308.754C209.528 311.233 214.011 312.419 217.511 312.098L222.885 311.601C223.339 311.557 225.411 310.181 225.88 310.192L250.803 310.192C254.708 310.192 264.516 309.043 264.516 305.148L264.516 293.579C264.516 289.681 254.718 288.536 250.803 288.536L225.873 288.532Z" fill="#F18C53"/>
<path d="M224.902 311.269L226.154 311.269L226.847 314.072C226.847 314.072 224.902 314.548 224.902 311.269Z" fill="#FDF3ED"/>
<path d="M238.099 310.578L238.333 310.578C244.57 310.578 250.795 310.189 250.795 310.189C250.795 310.189 246.255 308.636 244.57 308.636L238.463 308.636C238.312 309.277 238.185 309.926 238.099 310.578Z" fill="#45474A"/>
<path d="M237.743 308.635L232.055 308.635C231.084 308.635 225.873 310.189 225.873 310.189C225.873 310.189 231.344 310.549 237.169 310.574C237.328 309.918 237.53 309.273 237.743 308.635Z" fill="#45474A"/>
<path d="M238.099 288.143L238.333 288.143C244.57 288.143 250.795 288.532 250.795 288.532C250.795 288.532 246.255 290.085 244.57 290.085L238.463 290.085C238.312 289.443 238.185 288.791 238.099 288.143Z" fill="#45474A"/>
<path d="M237.743 290.085L232.055 290.085C231.084 290.085 225.873 288.532 225.873 288.532C225.873 288.532 231.344 288.171 237.169 288.146C237.328 288.802 237.53 289.443 237.743 290.085Z" fill="#45474A"/>
<path d="M224.902 287.451L226.154 287.451L226.847 284.643C226.847 284.643 224.902 284.171 224.902 287.451Z" fill="#FDF3ED"/>
<path d="M230.369 307.923L221.347 310.254C221.347 310.254 217.911 307.793 217.911 299.359C217.911 290.925 221.347 288.467 221.347 288.467L230.369 290.795C230.369 290.795 229.265 295.478 229.265 299.359C229.265 303.239 230.369 307.923 230.369 307.923ZM250.322 291.526C250.906 294.099 251.238 296.722 251.315 299.359C251.238 301.997 250.906 304.621 250.322 307.195C250.302 307.284 250.302 307.376 250.321 307.465C250.341 307.554 250.38 307.637 250.436 307.709C250.492 307.781 250.563 307.84 250.645 307.881C250.726 307.923 250.816 307.945 250.907 307.948L259.128 308.236C259.239 308.239 259.348 308.213 259.445 308.16C259.542 308.107 259.623 308.028 259.68 307.933C261.636 304.64 261.365 299.359 261.365 299.359C261.365 299.359 261.636 294.081 259.68 290.788C259.623 290.693 259.542 290.614 259.445 290.561C259.348 290.508 259.239 290.482 259.128 290.485L250.907 290.77C250.815 290.773 250.726 290.796 250.644 290.837C250.563 290.879 250.492 290.938 250.436 291.01C250.38 291.083 250.341 291.166 250.321 291.256C250.302 291.345 250.302 291.437 250.322 291.526Z" fill="#45474A"/>
<path d="M207.839 310.254C207.359 308.322 205.154 307.075 204.591 307.155C204.898 307.716 205.283 308.232 205.735 308.686C206.361 309.302 207.069 309.829 207.839 310.254Z" fill="#E9E8D8"/>
<path d="M207.839 288.467C207.359 290.395 205.154 291.642 204.591 291.566C204.896 291.003 205.281 290.487 205.735 290.035C206.36 289.418 207.068 288.89 207.839 288.467Z" fill="#E9E8D8"/>
<path d="M223.74 414.694C223.258 414.684 222.776 414.702 222.296 414.748L216.666 415.259C213.003 415.62 208.297 414.362 205.695 411.761C203.458 409.527 203.111 406.054 203.111 402.646L203.111 401.172C203.111 397.764 203.472 394.287 205.695 392.054C208.297 389.456 213.003 388.21 216.666 388.548L222.307 389.071C222.787 389.115 223.269 389.132 223.75 389.121L250.546 388.44C254.642 388.44 265.981 391.755 265.981 395.844L265.981 407.971C265.981 412.064 254.642 415.378 250.546 415.378L223.74 414.694Z" fill="#E1E8EF"/>
<path d="M225.873 391.08C225.418 391.08 223.347 389.711 222.878 389.672L217.504 389.175C214.011 388.85 209.528 390.039 207.038 392.514C204.913 394.644 204.581 397.965 204.581 401.208L204.581 402.613C204.581 405.856 204.913 409.174 207.046 411.303C209.528 413.782 214.011 414.967 217.511 414.646L222.885 414.149C223.339 414.106 225.411 412.73 225.88 412.741L250.803 412.741C254.708 412.741 264.516 411.591 264.516 407.697L264.516 396.128C264.516 392.23 254.718 391.084 250.803 391.084L225.873 391.08Z" fill="#E9EDF0"/>
<path d="M238.099 390.691L238.333 390.691C244.57 390.691 250.795 391.08 250.795 391.08C250.795 391.08 246.255 392.633 244.57 392.633L238.463 392.633C238.312 391.992 238.185 391.34 238.099 390.691Z" fill="#45474A"/>
<path d="M237.743 392.633L232.055 392.633C231.084 392.633 225.873 391.08 225.873 391.08C225.873 391.08 231.344 390.72 237.169 390.695C237.328 391.351 237.53 391.992 237.743 392.633Z" fill="#45474A"/>
<path d="M224.902 389.999L226.154 389.999L226.847 387.192C226.847 387.192 224.902 386.72 224.902 389.999Z" fill="#E1E8EF"/>
<path d="M230.369 410.471L221.347 412.802C221.347 412.802 217.911 410.341 217.911 401.907C217.911 393.473 221.347 391.016 221.347 391.016L230.369 393.343C230.369 393.343 229.265 398.027 229.265 401.907C229.265 405.787 230.369 410.471 230.369 410.471ZM250.322 394.075C250.906 396.647 251.238 399.271 251.315 401.907C251.238 404.545 250.906 407.169 250.322 409.743C250.302 409.832 250.302 409.924 250.321 410.013C250.341 410.102 250.38 410.186 250.436 410.258C250.492 410.33 250.563 410.389 250.645 410.43C250.726 410.471 250.816 410.494 250.907 410.496L259.128 410.785C259.239 410.788 259.348 410.762 259.445 410.708C259.542 410.655 259.623 410.577 259.68 410.482C261.636 407.189 261.365 401.907 261.365 401.907C261.365 401.907 261.636 396.629 259.68 393.336C259.623 393.241 259.542 393.163 259.445 393.11C259.348 393.057 259.239 393.03 259.128 393.034L250.907 393.318C250.815 393.321 250.726 393.344 250.644 393.386C250.563 393.428 250.492 393.487 250.436 393.559C250.38 393.631 250.341 393.715 250.321 393.804C250.302 393.893 250.302 393.986 250.322 394.075Z" fill="#45474A"/>
<path d="M207.839 391.016C207.359 392.943 205.154 394.19 204.591 394.115C204.896 393.552 205.281 393.036 205.735 392.583C206.36 391.966 207.068 391.439 207.839 391.016Z" fill="#E9E8D8"/>
<rect x="89.5853" y="376.824" width="103.388" height="54.1226" rx="11.1021" fill="#F18C53"/>
<path d="M177.015 391.508C176.648 391.508 176.318 391.433 176.024 391.283C175.73 391.128 175.477 390.917 175.266 390.65C175.061 390.384 174.903 390.07 174.792 389.709C174.681 389.343 174.625 388.949 174.625 388.527C174.625 388.105 174.681 387.714 174.792 387.353C174.903 386.987 175.061 386.67 175.266 386.404C175.477 386.137 175.73 385.929 176.024 385.779C176.318 385.624 176.648 385.546 177.015 385.546C177.381 385.546 177.711 385.624 178.006 385.779C178.3 385.929 178.55 386.137 178.755 386.404C178.966 386.67 179.127 386.987 179.238 387.353C179.349 387.714 179.404 388.105 179.404 388.527C179.404 388.949 179.349 389.343 179.238 389.709C179.127 390.07 178.966 390.384 178.755 390.65C178.55 390.917 178.3 391.128 178.006 391.283C177.711 391.433 177.381 391.508 177.015 391.508ZM177.015 390.475C177.215 390.475 177.395 390.428 177.556 390.334C177.717 390.234 177.853 390.098 177.964 389.926C178.081 389.748 178.167 389.54 178.222 389.301C178.283 389.063 178.314 388.804 178.314 388.527C178.314 388.244 178.283 387.986 178.222 387.753C178.167 387.514 178.081 387.308 177.964 387.136C177.853 386.959 177.717 386.823 177.556 386.728C177.395 386.628 177.215 386.579 177.015 386.579C176.809 386.579 176.626 386.628 176.465 386.728C176.304 386.823 176.168 386.959 176.057 387.136C175.946 387.308 175.86 387.514 175.799 387.753C175.744 387.986 175.716 388.244 175.716 388.527C175.716 388.804 175.744 389.063 175.799 389.301C175.86 389.54 175.946 389.748 176.057 389.926C176.168 390.098 176.304 390.234 176.465 390.334C176.626 390.428 176.809 390.475 177.015 390.475ZM181.431 391.375V386.962L180.423 387.386L180.024 386.462L181.697 385.679H182.521V391.375H181.431Z" fill="white"/>
</g>
</g>
<path d="M19.8555 36.24H271.49C303.464 36.24 329.383 62.1596 329.383 94.133V237.039C329.383 322.513 260.093 391.803 174.619 391.803C89.1456 391.803 19.8555 322.513 19.8555 237.039V36.24Z" stroke="white" stroke-width="4.10265"/>
<g filter="url(#filter0_bdii_377_7380)">
<rect x="108.195" y="300.861" width="269.804" height="73.8477" rx="21.8808" fill="#17181B" fill-opacity="0.85" shape-rendering="crispEdges"/>
<rect x="108.879" y="301.545" width="268.437" height="72.4801" rx="21.197" stroke="#D8D8D8" stroke-opacity="0.2" stroke-width="1.36755" shape-rendering="crispEdges"/>
</g>
<rect x="121.891" y="309.066" width="56.8313" height="56.8313" rx="28.4157" fill="white"/>
<path d="M162.576 338.703H138.644" stroke="#F18C53" stroke-width="2.05132" stroke-linecap="round" stroke-linejoin="round"/>
<path d="M160.444 333.904V332.18C160.444 329.831 158.54 327.927 156.19 327.927H154.817" stroke="#F18C53" stroke-width="2.05132" stroke-linecap="round" stroke-linejoin="round"/>
<path d="M140.775 333.904V332.18C140.775 329.831 142.679 327.927 145.029 327.927H146.438" stroke="#F18C53" stroke-width="2.05132" stroke-linecap="round" stroke-linejoin="round"/>
<path d="M160.444 338.702V343.344C160.444 345.694 158.54 347.599 156.19 347.599H154.817" stroke="#F18C53" stroke-width="2.05132" stroke-linecap="round" stroke-linejoin="round"/>
<path d="M140.775 338.702V343.344C140.775 345.694 142.679 347.599 145.029 347.599H146.438" stroke="#F18C53" stroke-width="2.05132" stroke-linecap="round" stroke-linejoin="round"/>
<path d="M193.345 321.009V323.296H197.058V332.114H199.428V323.296H203.158V321.009H193.345ZM209.023 323.628C207.996 323.628 207.117 324.092 206.57 324.854H206.504V320.18H204.266V332.114H206.504V327.838C206.504 326.595 207.366 325.816 208.377 325.816C209.305 325.816 210.068 326.479 210.068 327.672V332.114H212.305V327.341C212.305 324.97 211.029 323.628 209.023 323.628ZM217.662 323.611C215.126 323.611 213.352 325.534 213.352 327.987C213.352 330.308 214.86 332.363 217.645 332.363C219.601 332.363 221.242 331.335 221.789 329.495H219.452C219.154 330.026 218.408 330.374 217.645 330.341C216.501 330.291 215.772 329.578 215.64 328.733H221.872C222.17 325.816 220.413 323.611 217.662 323.611ZM217.645 325.617C218.607 325.617 219.353 326.131 219.601 326.993H215.656C215.888 326.164 216.667 325.617 217.645 325.617ZM233.338 324.921H233.256C232.742 324.175 231.797 323.611 230.603 323.611C228.266 323.594 226.658 325.451 226.658 328.004C226.658 330.606 228.349 332.363 230.587 332.363C231.797 332.347 232.742 331.783 233.256 331.02H233.338V332.446C233.338 332.927 233.04 333.192 232.559 333.192H227.736V335.43H233.04C234.648 335.43 235.56 334.551 235.56 332.96V323.86H233.338V324.921ZM231.134 330.241C229.824 330.241 228.913 329.28 228.913 327.987C228.913 326.694 229.824 325.733 231.134 325.733C232.427 325.733 233.338 326.711 233.338 327.987C233.338 329.214 232.46 330.241 231.134 330.241ZM243.358 324.921H243.276C242.762 324.175 241.817 323.611 240.623 323.611C238.286 323.594 236.678 325.451 236.678 328.004C236.678 330.606 238.369 332.363 240.607 332.363C241.817 332.347 242.762 331.783 243.276 331.02H243.358V332.114H245.58V323.86H243.358V324.921ZM241.154 330.241C239.844 330.241 238.933 329.28 238.933 327.987C238.933 326.694 239.844 325.733 241.154 325.733C242.447 325.733 243.358 326.711 243.358 327.987C243.358 329.214 242.48 330.241 241.154 330.241ZM253.507 323.86H250.109V321.009H247.871V323.86H246.711V326.015H247.871V329.694C247.871 331.186 248.849 332.114 250.357 332.114H253.507V329.943H250.772C250.374 329.943 250.109 329.711 250.109 329.313V326.015H253.507V323.86ZM258.486 323.611C255.95 323.611 254.176 325.534 254.176 327.987C254.176 330.308 255.685 332.363 258.47 332.363C260.426 332.363 262.067 331.335 262.614 329.495H260.276C259.978 330.026 259.232 330.374 258.47 330.341C257.326 330.291 256.597 329.578 256.464 328.733H262.696C262.995 325.816 261.238 323.611 258.486 323.611ZM258.47 325.617C259.431 325.617 260.177 326.131 260.426 326.993H256.48C256.713 326.164 257.492 325.617 258.47 325.617ZM267.947 320.18V322.799H270.185V320.18H267.947ZM267.947 323.86V332.114H270.185V323.86H267.947ZM274.02 323.86C272.512 323.86 271.352 324.871 271.352 326.296C271.352 327.407 272.18 328.285 273.374 328.534L276.523 329.214C276.706 329.263 276.805 329.413 276.805 329.578C276.805 329.794 276.656 329.943 276.44 329.943H271.7V332.114H276.473C277.982 332.114 279.159 331.087 279.159 329.628C279.159 328.468 278.363 327.606 277.12 327.341L274.02 326.711C273.855 326.678 273.738 326.528 273.738 326.363C273.738 326.164 273.871 326.015 274.087 326.015H278.562V323.86H274.02ZM288.274 332.363C290.959 332.363 292.716 330.457 292.716 327.987C292.716 325.534 290.976 323.611 288.274 323.611C285.572 323.611 283.832 325.534 283.832 327.987C283.832 330.457 285.589 332.363 288.274 332.363ZM288.274 330.192C286.948 330.192 286.069 329.214 286.069 327.987C286.069 326.76 286.948 325.766 288.274 325.766C289.6 325.766 290.479 326.76 290.479 327.987C290.479 329.214 289.583 330.192 288.274 330.192ZM298.803 323.611C297.626 323.611 296.665 324.175 296.151 324.921H296.068V323.86H293.847V335.43H296.068V331.02H296.151C296.665 331.783 297.609 332.347 298.819 332.363C301.057 332.363 302.748 330.606 302.748 328.004C302.748 325.451 301.14 323.594 298.803 323.611ZM298.272 330.241C296.946 330.241 296.068 329.214 296.068 327.987C296.068 326.711 296.979 325.733 298.272 325.733C299.582 325.733 300.494 326.694 300.494 327.987C300.494 329.28 299.582 330.241 298.272 330.241ZM307.874 323.611C305.338 323.611 303.564 325.534 303.564 327.987C303.564 330.308 305.072 332.363 307.857 332.363C309.813 332.363 311.454 331.335 312.001 329.495H309.664C309.365 330.026 308.62 330.374 307.857 330.341C306.713 330.291 305.984 329.578 305.851 328.733H312.084C312.382 325.816 310.625 323.611 307.874 323.611ZM307.857 325.617C308.818 325.617 309.564 326.131 309.813 326.993H305.868C306.1 326.164 306.879 325.617 307.857 325.617ZM318.029 323.628C317.001 323.628 316.073 324.092 315.526 324.854H315.443V323.86H313.271V332.114H315.509V327.838C315.509 326.595 316.371 325.816 317.382 325.816C318.31 325.816 319.073 326.479 319.073 327.672V332.114H321.311V327.341C321.311 324.97 320.034 323.628 318.029 323.628Z" fill="white"/>
<path d="M193.783 350.536C193.783 348.897 194.058 347.618 194.607 346.7C195.166 345.771 196.123 345.307 197.477 345.307C198.832 345.307 199.783 345.771 200.333 346.7C200.892 347.618 201.171 348.897 201.171 350.536C201.171 352.193 200.892 353.491 200.333 354.429C199.783 355.357 198.832 355.821 197.477 355.821C196.123 355.821 195.166 355.357 194.607 354.429C194.058 353.491 193.783 352.193 193.783 350.536ZM199.58 350.536C199.58 349.769 199.528 349.12 199.424 348.589C199.329 348.059 199.13 347.628 198.827 347.296C198.524 346.955 198.074 346.785 197.477 346.785C196.88 346.785 196.43 346.955 196.127 347.296C195.824 347.628 195.621 348.059 195.516 348.589C195.422 349.12 195.374 349.769 195.374 350.536C195.374 351.331 195.422 351.999 195.516 352.539C195.611 353.079 195.81 353.515 196.113 353.846C196.426 354.178 196.88 354.344 197.477 354.344C198.074 354.344 198.524 354.178 198.827 353.846C199.139 353.515 199.343 353.079 199.438 352.539C199.532 351.999 199.58 351.331 199.58 350.536ZM202.885 350.536C202.885 348.897 203.16 347.618 203.709 346.7C204.268 345.771 205.224 345.307 206.579 345.307C207.933 345.307 208.885 345.771 209.435 346.7C209.994 347.618 210.273 348.897 210.273 350.536C210.273 352.193 209.994 353.491 209.435 354.429C208.885 355.357 207.933 355.821 206.579 355.821C205.224 355.821 204.268 355.357 203.709 354.429C203.16 353.491 202.885 352.193 202.885 350.536ZM208.682 350.536C208.682 349.769 208.63 349.12 208.525 348.589C208.431 348.059 208.232 347.628 207.929 347.296C207.626 346.955 207.176 346.785 206.579 346.785C205.982 346.785 205.532 346.955 205.229 347.296C204.926 347.628 204.722 348.059 204.618 348.589C204.524 349.12 204.476 349.769 204.476 350.536C204.476 351.331 204.524 351.999 204.618 352.539C204.713 353.079 204.912 353.515 205.215 353.846C205.528 354.178 205.982 354.344 206.579 354.344C207.176 354.344 207.626 354.178 207.929 353.846C208.241 353.515 208.445 353.079 208.54 352.539C208.634 351.999 208.682 351.331 208.682 350.536ZM212.853 355.949C212.56 355.949 212.314 355.85 212.115 355.651C211.916 355.452 211.816 355.205 211.816 354.912C211.816 354.618 211.916 354.372 212.115 354.173C212.314 353.974 212.56 353.875 212.853 353.875C213.138 353.875 213.379 353.974 213.578 354.173C213.777 354.372 213.876 354.618 213.876 354.912C213.876 355.205 213.777 355.452 213.578 355.651C213.379 355.85 213.138 355.949 212.853 355.949ZM212.853 349.982C212.56 349.982 212.314 349.882 212.115 349.683C211.916 349.484 211.816 349.238 211.816 348.945C211.816 348.651 211.916 348.405 212.115 348.206C212.314 348.007 212.56 347.907 212.853 347.907C213.138 347.907 213.379 348.007 213.578 348.206C213.777 348.405 213.876 348.651 213.876 348.945C213.876 349.238 213.777 349.484 213.578 349.683C213.379 349.882 213.138 349.982 212.853 349.982ZM216.364 353.647C217.274 352.861 217.989 352.217 218.51 351.715C219.04 351.204 219.481 350.673 219.831 350.124C220.182 349.574 220.357 349.025 220.357 348.476C220.357 347.907 220.22 347.462 219.945 347.14C219.68 346.818 219.258 346.657 218.68 346.657C218.122 346.657 217.686 346.837 217.373 347.197C217.07 347.547 216.909 348.021 216.89 348.618H215.327C215.356 347.538 215.678 346.714 216.293 346.146C216.919 345.568 217.709 345.279 218.666 345.279C219.699 345.279 220.504 345.563 221.081 346.131C221.669 346.7 221.962 347.457 221.962 348.405C221.962 349.087 221.787 349.745 221.437 350.38C221.096 351.005 220.684 351.568 220.201 352.07C219.727 352.563 219.121 353.136 218.382 353.789L217.743 354.358H222.247V355.707H215.342V354.528L216.364 353.647ZM223.471 353.69V352.468L228.244 345.62H230.205V352.283H231.526V353.69H230.205V355.85H228.614V353.69H223.471ZM228.685 347.268L225.332 352.283H228.685V347.268Z" fill="#9CA3AF"/>
<defs>
<filter id="filter0_bdii_377_7380" x="53.4934" y="239.321" width="379.208" height="183.252" filterUnits="userSpaceOnUse" color-interpolation-filters="sRGB">
<feFlood flood-opacity="0" result="BackgroundImageFix"/>
<feGaussianBlur in="BackgroundImageFix" stdDeviation="6.15397"/>
<feComposite in2="SourceAlpha" operator="in" result="effect1_backgroundBlur_377_7380"/>
<feColorMatrix in="SourceAlpha" type="matrix" values="0 0 0 0 0 0 0 0 0 0 0 0 0 0 0 0 0 0 127 0" result="hardAlpha"/>
<feOffset dy="-6.83775"/>
<feGaussianBlur stdDeviation="27.351"/>
<feComposite in2="hardAlpha" operator="out"/>
<feColorMatrix type="matrix" values="0 0 0 0 0.392157 0 0 0 0 0.454902 0 0 0 0 0.545098 0 0 0 0.05 0"/>
<feBlend mode="normal" in2="effect1_backgroundBlur_377_7380" result="effect2_dropShadow_377_7380"/>
<feBlend mode="normal" in="SourceGraphic" in2="effect2_dropShadow_377_7380" result="shape"/>
<feColorMatrix in="SourceAlpha" type="matrix" values="0 0 0 0 0 0 0 0 0 0 0 0 0 0 0 0 0 0 127 0" result="hardAlpha"/>
<feOffset dx="-12.2168" dy="12.2168"/>
<feGaussianBlur stdDeviation="6.10839"/>
<feComposite in2="hardAlpha" operator="arithmetic" k2="-1" k3="1"/>
<feColorMatrix type="matrix" values="0 0 0 0 1 0 0 0 0 1 0 0 0 0 1 0 0 0 0.1 0"/>
<feBlend mode="normal" in2="shape" result="effect3_innerShadow_377_7380"/>
<feColorMatrix in="SourceAlpha" type="matrix" values="0 0 0 0 0 0 0 0 0 0 0 0 0 0 0 0 0 0 127 0" result="hardAlpha"/>
<feOffset dx="12.2168" dy="-12.2168"/>
<feGaussianBlur stdDeviation="11.6242"/>
<feComposite in2="hardAlpha" operator="arithmetic" k2="-1" k3="1"/>
<feColorMatrix type="matrix" values="0 0 0 0 0.76 0 0 0 0 0.76 0 0 0 0 0.76 0 0 0 0.03 0"/>
<feBlend mode="normal" in2="effect3_innerShadow_377_7380" result="effect4_innerShadow_377_7380"/>
</filter>
<radialGradient id="paint0_radial_377_7380" cx="0" cy="0" r="1" gradientUnits="userSpaceOnUse" gradientTransform="translate(47.9346 322.025) rotate(-16.4883) scale(316.635 313.538)">
<stop stop-color="#F18C53"/>
<stop offset="1" stop-color="#E83A64"/>
</radialGradient>
<clipPath id="clip0_377_7380">
<rect x="46.5651" y="65.6422" width="257.478" height="556.593" rx="32.8212" fill="white"/>
</clipPath>
</defs>
</svg>
