<svg width="48" height="32" viewBox="0 0 48 32" fill="none" xmlns="http://www.w3.org/2000/svg">
<path d="M36.525 17.5342L37.8962 15.1699L38.0753 12.3107L37.7679 12.3103L33.9702 18.8571L34.1307 19.1336L36.525 17.5342ZM36.8497 18.0884L34.2725 19.3766L34.4316 19.6539L41.9987 19.6678L42.1515 19.4032L39.5679 18.0909L36.8497 18.0884ZM38.6899 12.312L38.3602 12.3107L38.5232 15.1703L39.885 17.5427L42.2921 19.1611L42.4614 18.8724L38.6899 12.312Z" fill="#D01931"/>
<path d="M27.9639 16.9007L27.9631 17.8764C27.961 19.0177 27.1783 19.6574 26.0861 19.6883H25.8498C24.7568 19.643 23.9817 19.0042 23.9838 17.8701V16.8943C23.9876 15.7505 24.7703 15.1159 25.8676 15.0846C25.9231 15.0837 26.0306 15.0846 26.0848 15.0846C27.1859 15.1197 27.9669 15.7657 27.9639 16.9007ZM25.8981 16.0315C25.4676 16.0553 25.054 16.2775 25.0523 16.8985V17.8764C25.0506 18.4738 25.4633 18.7142 25.8943 18.7405C25.9163 18.743 26.0247 18.743 26.0484 18.7417C26.4709 18.718 26.8895 18.4886 26.8904 17.879L26.8917 16.9007C26.8938 16.2864 26.4747 16.0565 26.0454 16.0315C25.9925 16.0277 25.9476 16.0277 25.8981 16.0315ZM29.6095 17.0197C29.6095 17.0197 31.214 15.1939 31.3096 15.0923L32.6508 15.0956L30.7013 17.2982L32.7469 19.5669L31.3879 19.5648L29.6078 17.5853L29.6045 19.5618L28.5254 19.5597L28.5355 13.9984L29.6138 14.0001L29.6095 17.0197ZM14.3524 17.6695L14.3545 16.8825C14.3575 15.7391 13.5587 15.099 12.4643 15.0618L12.2582 15.0605C11.1567 15.0948 10.3735 15.7315 10.3727 16.8741L10.3705 17.8448C10.3684 18.9336 11.1791 19.6096 12.2269 19.6643C12.3382 19.6664 12.3962 19.6634 12.4711 19.6643C13.783 19.6664 14.2737 19.0017 14.3338 18.2414L13.3466 18.2389C13.3203 18.3828 13.2716 18.752 12.4449 18.7511C12.2997 18.7494 12.0986 18.7139 11.9542 18.6665C11.3412 18.4611 11.439 17.7046 11.439 17.6632L14.3524 17.6695ZM11.4382 16.8013C11.4382 16.2132 11.8289 15.9842 12.2921 15.966C12.3416 15.9647 12.392 15.9635 12.4356 15.9669C12.905 15.9863 13.2979 16.2344 13.2966 16.8055V16.8813L11.4365 16.8796L11.4382 16.8013ZM18.8729 17.6762L18.8746 16.8909C18.8776 15.7475 18.0779 15.1074 16.9827 15.0684H16.7783C15.6751 15.1023 14.8898 15.7394 14.8881 16.8816L14.8868 17.8531C14.8847 18.9398 15.6945 19.6188 16.744 19.6726C16.8583 19.6747 16.9137 19.6726 16.9895 19.6726C18.3035 19.6747 18.7908 19.0084 18.8513 18.2502L17.8696 18.2464C17.8374 18.3907 17.793 18.7595 16.9611 18.7582C16.8172 18.7569 16.6182 18.7209 16.476 18.6731C15.8575 18.4691 15.9591 17.7121 15.9583 17.6715L18.8729 17.6762ZM15.9553 16.8104C15.957 16.2207 16.3495 15.9913 16.8092 15.9739C16.8574 15.9722 16.9099 15.9731 16.9552 15.9752C17.423 15.9938 17.8163 16.2423 17.815 16.8126V16.8888L15.954 16.8862L15.9553 16.8104ZM21.5579 15.0849C21.0579 15.0836 20.7154 15.2199 20.527 15.3812L20.5283 13.9838L19.4573 13.9821L19.4484 19.5434H19.6355C19.6355 19.5434 20.1114 19.2771 20.1372 19.2682C20.2062 19.3415 20.6752 19.6856 21.3238 19.6856C21.4063 19.6865 21.4825 19.6928 21.563 19.6877C22.6467 19.6653 23.432 18.9926 23.4345 17.8759L23.4353 16.9056C23.4375 15.8134 22.6505 15.0857 21.5579 15.0849ZM22.3626 17.8797C22.3622 18.4884 21.9393 18.7175 21.5185 18.745C21.4965 18.745 21.3847 18.7441 21.3648 18.7429C20.9347 18.7141 20.522 18.477 20.522 17.878L20.5245 16.9005C20.5254 16.2774 20.9398 16.0589 21.3686 16.0306C21.4203 16.0268 21.4668 16.0251 21.5193 16.031C21.9444 16.0602 22.3648 16.2846 22.3639 16.9035L22.3626 17.8797ZM10.235 19.5271L8.17637 17.2305C8.27882 17.2364 8.3804 17.2407 8.48454 17.2407C9.19193 17.2415 10.0725 16.7953 10.0737 15.6625C10.0776 14.304 8.9498 13.9641 7.95031 13.9632L5.54999 13.9573L5.53857 19.5182L6.62613 19.5207V17.0387L8.85708 19.5246L10.235 19.5271ZM6.6329 14.9102L7.93718 14.914C8.53959 14.914 9.07257 15.105 9.07257 15.6777C9.07087 16.2522 8.73812 16.4579 7.93421 16.4541L6.62951 16.4533L6.6329 14.9102Z" fill="#2B2C2B"/>
</svg>
