<svg width="136" height="136" viewBox="0 0 136 136" fill="none" xmlns="http://www.w3.org/2000/svg">
<circle cx="68" cy="68" r="68" fill="#F9FAFB"/>
<mask id="mask0_417_39160" style="mask-type:alpha" maskUnits="userSpaceOnUse" x="0" y="0" width="136" height="136">
<circle cx="68" cy="68" r="68" fill="#EFF4FF"/>
</mask>
<g mask="url(#mask0_417_39160)">
<g filter="url(#filter0_d_417_39160)">
<path d="M115.188 29.4731V148.266C115.188 150.319 112.852 151.345 111.392 149.879L108.91 147.532C108.034 146.652 106.575 146.652 105.699 147.532L101.027 152.079C100.151 152.959 98.6911 152.959 97.8152 152.079L93.1435 147.532C92.2676 146.652 90.8077 146.652 89.9318 147.532L85.2601 152.079C84.3842 152.959 82.9243 152.959 82.0484 152.079L77.3767 147.532C76.5008 146.652 75.0409 146.652 74.1649 147.532L69.6393 152.079C68.7634 152.959 67.3035 152.959 66.4275 152.079L61.7559 147.532C60.8799 146.652 59.42 146.652 58.5441 147.532L53.8725 152.079C52.9965 152.959 51.5366 152.959 50.6607 152.079L45.989 147.532C45.1131 146.652 43.6532 146.652 42.7773 147.532L38.1056 152.079C37.2297 152.959 35.7698 152.959 34.8939 152.079L29.2003 146.359C28.9587 146.116 28.5659 146.116 28.3244 146.359L24.6746 149.879C23.2147 151.345 20.8789 150.319 20.8789 148.266V29.4731C20.8789 27.4198 23.2147 26.3932 24.6746 27.8598L27.1564 30.2063C28.0324 31.0863 29.4923 31.0863 30.3682 30.2063L35.0399 25.66C35.9158 24.78 37.3757 24.78 38.2516 25.66L42.9233 30.2063C43.7992 31.0863 45.2591 31.0863 46.135 30.2063L50.8067 25.66C51.6826 24.78 53.1425 24.78 54.0184 25.66L58.6901 30.2063C59.566 31.0863 61.0259 31.0863 61.9019 30.2063L66.5735 25.66C67.4495 24.78 68.9093 24.78 69.7853 25.66L74.3109 30.2063C75.1869 31.0863 76.6468 31.0863 77.5227 30.2063L82.1944 25.66C83.0703 24.78 84.5302 24.78 85.4061 25.66L90.0778 30.2063C90.9537 31.0863 92.4136 31.0863 93.2895 30.2063L97.9612 25.66C98.8371 24.78 100.297 24.78 101.173 25.66L105.845 30.2063C106.721 31.0863 108.18 31.0863 109.056 30.2063L111.538 27.8598C112.852 26.3932 115.188 27.4198 115.188 29.4731Z" fill="white"/>
</g>
<path d="M97.5224 56.1647H87.3031C86.2812 56.1647 85.4053 55.2848 85.4053 54.2582C85.4053 53.2316 86.2812 52.3516 87.3031 52.3516H97.5224C98.5443 52.3516 99.4202 53.2316 99.4202 54.2582C99.4202 55.2848 98.5443 56.1647 97.5224 56.1647Z" fill="#EEF1F4"/>
<path d="M77.9604 56.1647H37.6674C36.6455 56.1647 35.7695 55.2848 35.7695 54.2582C35.7695 53.2316 36.6455 52.3516 37.6674 52.3516H77.9604C78.9823 52.3516 79.8583 53.2316 79.8583 54.2582C79.8583 55.2848 78.9823 56.1647 77.9604 56.1647Z" fill="#EEF1F4"/>
<path d="M97.523 74.3502H80.0043C78.9824 74.3502 78.1064 73.4703 78.1064 72.4437C78.1064 71.4171 78.9824 70.5371 80.0043 70.5371H97.523C98.5449 70.5371 99.4209 71.4171 99.4209 72.4437C99.4209 73.4703 98.5449 74.3502 97.523 74.3502Z" fill="#EEF1F4"/>
<path d="M70.6612 74.3502H52.7045C51.6826 74.3502 50.8066 73.4703 50.8066 72.4437C50.8066 71.4171 51.6826 70.5371 52.7045 70.5371H70.8072C71.8291 70.5371 72.705 71.4171 72.705 72.4437C72.705 73.4703 71.6831 74.3502 70.6612 74.3502Z" fill="#EEF1F4"/>
<path d="M45.6968 74.3502H37.6674C36.6455 74.3502 35.7695 73.4703 35.7695 72.4437C35.7695 71.4171 36.6455 70.5371 37.6674 70.5371H45.6968C46.7187 70.5371 47.5947 71.4171 47.5947 72.4437C47.5947 73.4703 46.7187 74.3502 45.6968 74.3502Z" fill="#EEF1F4"/>
<path d="M67.595 92.6824H53.726C52.7041 92.6824 51.8281 91.8025 51.8281 90.7759C51.8281 89.7493 52.7041 88.8693 53.726 88.8693H67.595C68.6169 88.8693 69.4928 89.7493 69.4928 90.7759C69.4928 91.8025 68.6169 92.6824 67.595 92.6824Z" fill="#EEF1F4"/>
<path d="M46.2808 92.6824H37.6674C36.6455 92.6824 35.7695 91.8025 35.7695 90.7759C35.7695 89.7493 36.6455 88.8693 37.6674 88.8693H46.2808C47.3027 88.8693 48.1786 89.7493 48.1786 90.7759C48.1786 91.8025 47.3027 92.6824 46.2808 92.6824Z" fill="#EEF1F4"/>
<path d="M67.5952 110.868H37.6674C36.6455 110.868 35.7695 109.988 35.7695 108.961C35.7695 107.935 36.6455 107.055 37.6674 107.055H67.5952C68.6171 107.055 69.493 107.935 69.493 108.961C69.493 109.988 68.6171 110.868 67.5952 110.868Z" fill="#EEF1F4"/>
<path d="M67.5958 125.387C57.0846 125.387 48.1792 125.387 37.668 125.387C35.1862 125.387 35.1862 129.054 37.668 129.054C49.2011 129.054 56.2086 129.054 67.5958 129.054C68.6177 129.054 69.4936 128.174 69.4936 127.147C69.4936 126.12 68.6177 125.387 67.5958 125.387Z" fill="#EEF1F4"/>
<path d="M91.9749 131.107C90.515 131.107 89.347 129.933 89.347 128.467V125.68C87.1572 125.534 85.1134 124.947 83.3615 124.214C82.0476 123.627 81.4636 122.161 81.9016 120.694C82.3396 119.521 83.3615 118.787 84.5294 118.787C84.9674 118.787 85.2593 118.934 85.6973 119.081C86.8652 119.667 88.7631 120.254 91.0989 120.254C94.3107 120.254 96.5005 118.494 96.5005 116.001C96.5005 113.654 94.8946 112.188 91.0989 110.575C86.2813 108.668 81.9016 106.175 81.9016 100.602C81.9016 96.0556 84.9674 92.3891 89.785 91.3625V88.4294C89.785 86.9628 90.9529 85.7895 92.4128 85.7895C93.8727 85.7895 95.0406 86.9628 95.0406 88.4294V91.0692C96.7925 91.2159 98.2524 91.5092 99.7123 92.0958C101.026 92.6824 101.756 94.2957 101.172 95.6156C100.734 96.6422 99.7123 97.3755 98.5444 97.3755C98.1064 97.3755 97.8144 97.3755 97.5224 97.2288C96.0625 96.6422 94.6027 96.3489 92.9968 96.3489C89.493 96.3489 88.3251 98.2554 88.3251 100.015C88.3251 102.069 89.639 103.242 94.3107 105.148C100.442 107.641 103.07 110.868 103.07 115.708C103.07 120.547 99.7123 124.36 94.7486 125.387V128.467C94.6027 129.933 93.4347 131.107 91.9749 131.107Z" fill="#E4E7EA"/>
</g>
<defs>
<filter id="filter0_d_417_39160" x="-49.1211" y="-46" width="234.309" height="267.739" filterUnits="userSpaceOnUse" color-interpolation-filters="sRGB">
<feFlood flood-opacity="0" result="BackgroundImageFix"/>
<feColorMatrix in="SourceAlpha" type="matrix" values="0 0 0 0 0 0 0 0 0 0 0 0 0 0 0 0 0 0 127 0" result="hardAlpha"/>
<feOffset dy="-1"/>
<feGaussianBlur stdDeviation="35"/>
<feComposite in2="hardAlpha" operator="out"/>
<feColorMatrix type="matrix" values="0 0 0 0 0 0 0 0 0 0.170527 0 0 0 0 0.504167 0 0 0 0.14 0"/>
<feBlend mode="normal" in2="BackgroundImageFix" result="effect1_dropShadow_417_39160"/>
<feBlend mode="normal" in="SourceGraphic" in2="effect1_dropShadow_417_39160" result="shape"/>
</filter>
</defs>
</svg>
