<svg width="559" height="443" viewBox="0 0 559 443" fill="none" xmlns="http://www.w3.org/2000/svg">
<path d="M123.443 19.0464H433.319V236.546C433.319 322.116 363.951 391.483 278.381 391.483C192.811 391.483 123.443 322.115 123.443 236.546V19.0464Z" stroke="url(#paint0_radial_201_9514)" stroke-width="4.09272"/>
<path d="M137.778 33.3708H483.143V256.317C483.143 351.687 405.83 429 310.46 429C215.09 429 137.778 351.687 137.778 256.317V33.3708Z" fill="#F0F4F9"/>
<mask id="mask0_201_9514" style="mask-type:alpha" maskUnits="userSpaceOnUse" x="155" y="51" width="314" height="359">
<path d="M155.524 51.106H468.127V253.599C468.127 339.922 398.148 409.901 311.825 409.901C225.502 409.901 155.524 339.922 155.524 253.599V51.106Z" fill="white"/>
</mask>
<g mask="url(#mask0_201_9514)">
<g clip-path="url(#clip0_201_9514)">
<rect x="184.191" y="82.4834" width="256.635" height="552.517" rx="32.7417" fill="white"/>
<g clip-path="url(#clip1_201_9514)">
<rect x="196.102" y="111.518" width="34.2454" height="34.2454" rx="17.1227" fill="#EEF1F4"/>
<path d="M214.715 132.572L211.479 129.336C211.096 128.954 211.096 128.328 211.479 127.946L214.715 124.71" stroke="#12143D" stroke-width="1.1167" stroke-miterlimit="10" stroke-linecap="round" stroke-linejoin="round"/>
<path d="M258.044 133.197V125.217H261.403C263.774 125.217 265.489 126.884 265.489 129.183V129.219C265.489 131.518 263.774 133.197 261.403 133.197H258.044ZM261.38 126.861H259.736V131.542H261.38C262.785 131.542 263.762 130.613 263.762 129.219V129.183C263.762 127.79 262.785 126.861 261.38 126.861ZM268.928 127.087C270.905 127.087 272.168 128.671 271.953 130.767H267.475C267.57 131.375 268.094 131.887 268.916 131.923C269.464 131.947 270 131.697 270.214 131.315H271.894C271.501 132.638 270.322 133.376 268.916 133.376C266.915 133.376 265.831 131.899 265.831 130.231C265.831 128.469 267.105 127.087 268.928 127.087ZM268.916 128.528C268.213 128.528 267.653 128.921 267.487 129.517H270.322C270.143 128.897 269.607 128.528 268.916 128.528ZM276.894 127.265V128.814H274.452V131.184C274.452 131.47 274.642 131.637 274.928 131.637H276.894V133.197H274.63C273.546 133.197 272.844 132.53 272.844 131.458V128.814H272.01V127.265H272.844V125.217H274.452V127.265H276.894ZM281.889 128.028V127.265H283.485V133.197H281.889V132.411H281.83C281.46 132.959 280.782 133.364 279.912 133.376C278.304 133.376 277.089 132.113 277.089 130.243C277.089 128.409 278.244 127.075 279.924 127.087C280.782 127.087 281.46 127.492 281.83 128.028H281.889ZM280.305 131.851C281.258 131.851 281.889 131.113 281.889 130.231C281.889 129.314 281.234 128.611 280.305 128.611C279.364 128.611 278.709 129.302 278.709 130.231C278.709 131.161 279.364 131.851 280.305 131.851ZM284.453 124.621H286.061V126.503H284.453V124.621ZM284.453 127.265H286.061V133.197H284.453V127.265ZM286.945 131.482V124.621H288.553V131.196C288.553 131.47 288.732 131.637 289.03 131.637H289.828V133.197H288.72C287.589 133.197 286.945 132.554 286.945 131.482ZM295.712 133.376C293.783 133.376 292.52 132.006 292.52 130.231C292.52 128.469 293.771 127.087 295.712 127.087C297.654 127.087 298.905 128.469 298.905 130.231C298.905 132.006 297.642 133.376 295.712 133.376ZM295.712 131.816C296.653 131.816 297.297 131.113 297.297 130.231C297.297 129.35 296.665 128.635 295.712 128.635C294.759 128.635 294.128 129.35 294.128 130.231C294.128 131.113 294.759 131.816 295.712 131.816ZM303.92 126.182H301.955C301.669 126.182 301.478 126.348 301.478 126.622V127.265H303.92V128.814H301.478V133.197H299.87V128.814H299.036V127.265H299.87V126.36C299.87 125.324 300.597 124.621 301.645 124.621H303.92V126.182ZM311.409 127.265V128.814H308.967V131.184C308.967 131.47 309.158 131.637 309.443 131.637H311.409V133.197H309.146C308.062 133.197 307.359 132.53 307.359 131.458V128.814H306.525V127.265H307.359V125.217H308.967V127.265H311.409ZM315.542 127.099C316.984 127.099 317.901 128.064 317.901 129.767V133.197H316.293V130.005C316.293 129.147 315.745 128.671 315.078 128.671C314.351 128.671 313.732 129.231 313.732 130.124V133.197H312.124V124.621H313.732V127.98H313.78C314.173 127.432 314.804 127.099 315.542 127.099ZM321.452 127.087C323.43 127.087 324.692 128.671 324.478 130.767H319.999C320.094 131.375 320.618 131.887 321.44 131.923C321.988 131.947 322.524 131.697 322.739 131.315H324.418C324.025 132.638 322.846 133.376 321.44 133.376C319.439 133.376 318.355 131.899 318.355 130.231C318.355 128.469 319.63 127.087 321.452 127.087ZM321.44 128.528C320.738 128.528 320.178 128.921 320.011 129.517H322.846C322.667 128.897 322.131 128.528 321.44 128.528ZM330.669 127.265H331.92V128.874H330.585C329.811 128.874 329.263 129.421 329.263 130.243V133.197H327.655V127.265H329.18V128.195H329.239C329.454 127.611 329.978 127.265 330.669 127.265ZM335.018 127.087C336.995 127.087 338.258 128.671 338.043 130.767H333.565C333.66 131.375 334.184 131.887 335.006 131.923C335.554 131.947 336.09 131.697 336.304 131.315H337.984C337.591 132.638 336.411 133.376 335.006 133.376C333.005 133.376 331.921 131.899 331.921 130.231C331.921 128.469 333.195 127.087 335.018 127.087ZM335.006 128.528C334.303 128.528 333.743 128.921 333.577 129.517H336.411C336.233 128.897 335.697 128.528 335.006 128.528ZM344.481 129.517H342.801C342.611 129.005 342.122 128.635 341.479 128.635C340.538 128.635 339.955 129.362 339.955 130.231C339.955 131.101 340.538 131.816 341.479 131.816C342.111 131.816 342.611 131.458 342.801 130.934H344.481C344.231 132.352 343.087 133.376 341.467 133.376C339.55 133.376 338.346 131.994 338.346 130.231C338.346 128.469 339.55 127.087 341.467 127.087C343.099 127.087 344.243 128.099 344.481 129.517ZM347.799 127.087C349.777 127.087 351.039 128.671 350.825 130.767H346.346C346.441 131.375 346.966 131.887 347.787 131.923C348.335 131.947 348.871 131.697 349.086 131.315H350.765C350.372 132.638 349.193 133.376 347.787 133.376C345.786 133.376 344.702 131.899 344.702 130.231C344.702 128.469 345.977 127.087 347.799 127.087ZM347.787 128.528C347.085 128.528 346.525 128.921 346.358 129.517H349.193C349.014 128.897 348.478 128.528 347.787 128.528ZM351.473 124.621H353.082V126.503H351.473V124.621ZM351.473 127.265H353.082V133.197H351.473V127.265ZM357.599 127.087C359.278 127.075 360.434 128.409 360.434 130.243C360.434 132.113 359.219 133.376 357.611 133.376C356.741 133.364 356.062 132.959 355.693 132.411H355.633V135.58H354.037V127.265H355.633V128.028H355.693C356.062 127.492 356.753 127.087 357.599 127.087ZM357.218 131.851C358.159 131.851 358.814 131.161 358.814 130.231C358.814 129.302 358.159 128.611 357.218 128.611C356.288 128.611 355.633 129.314 355.633 130.231C355.633 131.113 356.265 131.851 357.218 131.851ZM365.359 127.265V128.814H362.917V131.184C362.917 131.47 363.108 131.637 363.394 131.637H365.359V133.197H363.096C362.012 133.197 361.309 132.53 361.309 131.458V128.814H360.476V127.265H361.309V125.217H362.917V127.265H365.359Z" fill="#12143D"/>
</g>
<mask id="path-8-inside-1_201_9514" fill="white">
<path fill-rule="evenodd" clip-rule="evenodd" d="M196.469 179.477C196.469 173.926 196.469 171.151 197.375 168.962C198.584 166.044 200.903 163.725 203.822 162.516C206.011 161.609 208.786 161.609 214.336 161.609H415.979C421.529 161.609 424.304 161.609 426.493 162.516C429.412 163.725 431.731 166.044 432.939 168.962C433.846 171.151 433.846 173.926 433.846 179.477V256.974C433.846 262.524 433.846 265.299 432.939 267.488C431.731 270.407 429.412 272.725 426.493 273.934C424.304 274.841 421.529 274.841 415.979 274.841H214.336C208.786 274.841 206.011 274.841 203.822 273.934C200.903 272.725 198.584 270.407 197.375 267.488C196.469 265.299 196.469 262.524 196.469 256.974V229.727C201.587 228.859 205.473 224.595 205.473 219.466C205.473 214.338 201.587 210.074 196.469 209.206V179.477Z"/>
</mask>
<path d="M197.375 168.962L195.69 168.264H195.69L197.375 168.962ZM203.822 162.516L203.124 160.83V160.83L203.822 162.516ZM426.493 162.516L425.795 164.202V164.202L426.493 162.516ZM432.939 168.962L431.254 169.661V169.661L432.939 168.962ZM432.939 267.488L431.254 266.79L432.939 267.488ZM426.493 273.934L425.795 272.249V272.249L426.493 273.934ZM203.822 273.934L204.52 272.249H204.52L203.822 273.934ZM197.375 267.488L195.69 268.186H195.69L197.375 267.488ZM196.469 229.727L196.163 227.928L194.644 228.186V229.727H196.469ZM196.469 209.206H194.644V210.747L196.163 211.005L196.469 209.206ZM195.69 168.264C195.129 169.618 194.881 171.081 194.762 172.835C194.643 174.573 194.644 176.726 194.644 179.477H198.293C198.293 176.677 198.294 174.668 198.402 173.083C198.509 171.515 198.715 170.496 199.061 169.661L195.69 168.264ZM203.124 160.83C199.758 162.224 197.084 164.898 195.69 168.264L199.061 169.661C200.085 167.189 202.049 165.226 204.52 164.202L203.124 160.83ZM214.336 159.785C211.586 159.785 209.432 159.784 207.694 159.902C205.94 160.022 204.477 160.269 203.124 160.83L204.52 164.202C205.355 163.856 206.374 163.65 207.943 163.543C209.527 163.435 211.536 163.434 214.336 163.434V159.785ZM415.979 159.785H214.336V163.434H415.979V159.785ZM427.191 160.83C425.837 160.269 424.375 160.022 422.621 159.902C420.883 159.784 418.729 159.785 415.979 159.785V163.434C418.779 163.434 420.788 163.435 422.372 163.543C423.94 163.65 424.96 163.856 425.795 164.202L427.191 160.83ZM434.625 168.264C433.231 164.898 430.557 162.224 427.191 160.83L425.795 164.202C428.266 165.226 430.23 167.189 431.254 169.661L434.625 168.264ZM435.671 179.477C435.671 176.726 435.672 174.573 435.553 172.835C435.434 171.081 435.186 169.618 434.625 168.264L431.254 169.661C431.6 170.496 431.805 171.515 431.912 173.083C432.021 174.668 432.022 176.677 432.022 179.477H435.671ZM435.671 256.974V179.477H432.022V256.974H435.671ZM434.625 268.186C435.186 266.832 435.434 265.37 435.553 263.616C435.672 261.878 435.671 259.724 435.671 256.974H432.022C432.022 259.774 432.021 261.783 431.912 263.367C431.805 264.935 431.6 265.955 431.254 266.79L434.625 268.186ZM427.191 275.62C430.557 274.226 433.231 271.552 434.625 268.186L431.254 266.79C430.23 269.261 428.266 271.225 425.795 272.249L427.191 275.62ZM415.979 276.666C418.729 276.666 420.883 276.667 422.621 276.548C424.375 276.429 425.837 276.181 427.191 275.62L425.795 272.249C424.96 272.595 423.94 272.8 422.372 272.907C420.788 273.015 418.779 273.016 415.979 273.016V276.666ZM214.336 276.666H415.979V273.016H214.336V276.666ZM203.124 275.62C204.477 276.181 205.94 276.429 207.694 276.548C209.432 276.667 211.586 276.666 214.336 276.666V273.016C211.536 273.016 209.527 273.015 207.943 272.907C206.374 272.8 205.355 272.595 204.52 272.249L203.124 275.62ZM195.69 268.186C197.084 271.552 199.758 274.226 203.124 275.62L204.52 272.249C202.049 271.225 200.085 269.261 199.061 266.79L195.69 268.186ZM194.644 256.974C194.644 259.724 194.643 261.878 194.762 263.616C194.881 265.37 195.129 266.832 195.69 268.186L199.061 266.79C198.715 265.955 198.509 264.935 198.402 263.367C198.294 261.783 198.293 259.774 198.293 256.974H194.644ZM194.644 229.727V256.974H198.293V229.727H194.644ZM203.648 219.466C203.648 223.629 200.482 227.196 196.163 227.928L196.774 231.526C202.691 230.522 207.297 225.562 207.297 219.466H203.648ZM196.163 211.005C200.482 211.737 203.648 215.304 203.648 219.466H207.297C207.297 213.371 202.691 208.411 196.774 207.407L196.163 211.005ZM194.644 179.477V209.206H198.293V179.477H194.644Z" fill="#EEF1F4" mask="url(#path-8-inside-1_201_9514)"/>
<path d="M213.732 200.955L216.904 201.714C218.363 202.056 219.092 203.173 219.063 204.32C219.033 205.645 217.991 206.985 216.129 206.985H216.01V208.295H214.045V206.985H211.335V204.96H216.114C216.576 204.96 216.859 204.647 216.874 204.335C216.874 204.052 216.695 203.769 216.308 203.665L213.137 202.905C211.663 202.548 210.963 201.446 210.978 200.359C210.993 199.034 212.035 197.739 213.866 197.739H214.045V196.443H216.01V197.739H218.422V199.778H213.926C213.494 199.778 213.211 200.002 213.196 200.329C213.196 200.597 213.36 200.865 213.732 200.955ZM226.161 202.637L223.362 205.377H227.308V207.432H220.191V205.779L224.791 201.238C225.059 200.97 225.164 200.642 225.164 200.404C225.164 199.912 224.762 199.51 224.151 199.51H220.28V197.456H224.151C226.042 197.456 227.263 198.706 227.263 200.24C227.263 201.029 226.891 201.922 226.161 202.637ZM234.822 203.114H236.415V205.034H234.822V207.432H232.693V205.034H227.675V203.516L231.77 197.456H234.822V203.114ZM232.693 199.421L230.296 203.114H232.693V199.421ZM244.026 199.004L241.733 201.565C243.103 201.654 244.428 202.607 244.428 204.364C244.428 206.151 243.088 207.432 241.405 207.432H237.102V205.377H241.182C241.852 205.377 242.284 204.871 242.284 204.32C242.284 203.769 241.867 203.277 241.182 203.277H238.964V201.982L241.167 199.51H237.102V197.456H244.026V199.004ZM244.893 205.198H247.052V207.432H244.893V205.198ZM247.748 203.59V201.297C247.748 198.87 249.49 197.232 251.783 197.232C254.061 197.232 255.848 198.855 255.848 201.282V203.59C255.848 206.017 254.046 207.655 251.753 207.655C249.46 207.655 247.748 205.987 247.748 203.59ZM249.862 201.297V203.59C249.862 204.826 250.666 205.541 251.753 205.541C252.87 205.541 253.718 204.811 253.718 203.59V201.282C253.718 200.076 252.899 199.332 251.783 199.332C250.681 199.332 249.862 200.061 249.862 201.297ZM257.024 203.59V201.297C257.024 198.87 258.767 197.232 261.059 197.232C263.338 197.232 265.124 198.855 265.124 201.282V203.59C265.124 206.017 263.323 207.655 261.03 207.655C258.737 207.655 257.024 205.987 257.024 203.59ZM259.139 201.297V203.59C259.139 204.826 259.943 205.541 261.03 205.541C262.146 205.541 262.995 204.811 262.995 203.59V201.282C262.995 200.076 262.176 199.332 261.059 199.332C259.958 199.332 259.139 200.061 259.139 201.297Z" fill="#12143D"/>
<rect x="361.561" y="235.843" width="62.8672" height="23.4225" rx="5.95572" fill="#EAFFF4"/>
<path d="M374.908 249.786H372.309L371.862 251.055H370.799L373.023 244.837H374.202L376.427 251.055H375.355L374.908 249.786ZM374.622 248.955L373.613 246.07L372.594 248.955H374.622ZM378.413 246.856C378.585 246.63 378.821 246.439 379.118 246.284C379.416 246.129 379.753 246.052 380.128 246.052C380.557 246.052 380.947 246.159 381.298 246.373C381.655 246.582 381.935 246.877 382.138 247.258C382.34 247.639 382.442 248.077 382.442 248.571C382.442 249.065 382.34 249.509 382.138 249.902C381.935 250.289 381.655 250.593 381.298 250.813C380.947 251.028 380.557 251.135 380.128 251.135C379.753 251.135 379.419 251.061 379.127 250.912C378.835 250.757 378.597 250.566 378.413 250.34V253.395H377.394V246.132H378.413V246.856ZM381.405 248.571C381.405 248.232 381.334 247.94 381.191 247.696C381.054 247.445 380.869 247.258 380.637 247.133C380.411 247.002 380.166 246.936 379.904 246.936C379.648 246.936 379.404 247.002 379.172 247.133C378.946 247.264 378.761 247.454 378.618 247.705C378.481 247.955 378.413 248.25 378.413 248.589C378.413 248.928 378.481 249.226 378.618 249.482C378.761 249.732 378.946 249.923 379.172 250.054C379.404 250.185 379.648 250.251 379.904 250.251C380.166 250.251 380.411 250.185 380.637 250.054C380.869 249.917 381.054 249.721 381.191 249.464C381.334 249.208 381.405 248.911 381.405 248.571ZM384.467 246.856C384.64 246.63 384.875 246.439 385.173 246.284C385.471 246.129 385.807 246.052 386.182 246.052C386.611 246.052 387.001 246.159 387.353 246.373C387.71 246.582 387.99 246.877 388.192 247.258C388.395 247.639 388.496 248.077 388.496 248.571C388.496 249.065 388.395 249.509 388.192 249.902C387.99 250.289 387.71 250.593 387.353 250.813C387.001 251.028 386.611 251.135 386.182 251.135C385.807 251.135 385.474 251.061 385.182 250.912C384.89 250.757 384.652 250.566 384.467 250.34V253.395H383.449V246.132H384.467V246.856ZM387.46 248.571C387.46 248.232 387.388 247.94 387.245 247.696C387.108 247.445 386.924 247.258 386.692 247.133C386.465 247.002 386.221 246.936 385.959 246.936C385.703 246.936 385.459 247.002 385.226 247.133C385 247.264 384.816 247.454 384.673 247.705C384.536 247.955 384.467 248.25 384.467 248.589C384.467 248.928 384.536 249.226 384.673 249.482C384.816 249.732 385 249.923 385.226 250.054C385.459 250.185 385.703 250.251 385.959 250.251C386.221 250.251 386.465 250.185 386.692 250.054C386.924 249.917 387.108 249.721 387.245 249.464C387.388 249.208 387.46 248.911 387.46 248.571ZM390.522 246.847C390.671 246.597 390.867 246.403 391.111 246.266C391.361 246.123 391.656 246.052 391.996 246.052V247.106H391.737C391.338 247.106 391.034 247.207 390.825 247.41C390.623 247.612 390.522 247.964 390.522 248.464V251.055H389.503V246.132H390.522V246.847ZM395.067 251.135C394.602 251.135 394.183 251.031 393.807 250.822C393.432 250.608 393.137 250.31 392.923 249.929C392.709 249.542 392.601 249.095 392.601 248.589C392.601 248.089 392.712 247.645 392.932 247.258C393.152 246.871 393.453 246.573 393.834 246.365C394.215 246.156 394.641 246.052 395.112 246.052C395.582 246.052 396.008 246.156 396.389 246.365C396.77 246.573 397.071 246.871 397.291 247.258C397.512 247.645 397.622 248.089 397.622 248.589C397.622 249.089 397.509 249.533 397.283 249.92C397.056 250.307 396.747 250.608 396.353 250.822C395.966 251.031 395.538 251.135 395.067 251.135ZM395.067 250.251C395.329 250.251 395.573 250.188 395.8 250.063C396.032 249.938 396.219 249.75 396.362 249.5C396.505 249.25 396.577 248.946 396.577 248.589C396.577 248.232 396.508 247.931 396.371 247.687C396.234 247.437 396.053 247.249 395.826 247.124C395.6 246.999 395.356 246.936 395.094 246.936C394.832 246.936 394.588 246.999 394.361 247.124C394.141 247.249 393.965 247.437 393.834 247.687C393.703 247.931 393.638 248.232 393.638 248.589C393.638 249.119 393.772 249.53 394.04 249.822C394.314 250.108 394.656 250.251 395.067 250.251ZM400.532 250.143L401.925 246.132H403.006L401.13 251.055H399.915L398.048 246.132H399.138L400.532 250.143ZM408.288 248.473C408.288 248.657 408.276 248.824 408.252 248.973H404.491C404.521 249.366 404.666 249.682 404.929 249.92C405.191 250.158 405.512 250.277 405.893 250.277C406.441 250.277 406.828 250.048 407.055 249.59H408.154C408.005 250.042 407.734 250.414 407.341 250.706C406.953 250.992 406.471 251.135 405.893 251.135C405.423 251.135 405 251.031 404.625 250.822C404.256 250.608 403.964 250.31 403.749 249.929C403.541 249.542 403.437 249.095 403.437 248.589C403.437 248.083 403.538 247.639 403.74 247.258C403.949 246.871 404.238 246.573 404.607 246.365C404.982 246.156 405.411 246.052 405.893 246.052C406.358 246.052 406.772 246.153 407.135 246.356C407.498 246.558 407.781 246.844 407.984 247.213C408.186 247.577 408.288 247.996 408.288 248.473ZM407.224 248.151C407.218 247.776 407.084 247.475 406.822 247.249C406.56 247.023 406.236 246.909 405.849 246.909C405.497 246.909 405.197 247.023 404.946 247.249C404.696 247.469 404.547 247.77 404.5 248.151H407.224ZM408.95 248.571C408.95 248.077 409.052 247.639 409.254 247.258C409.462 246.877 409.742 246.582 410.094 246.373C410.451 246.159 410.847 246.052 411.282 246.052C411.604 246.052 411.919 246.123 412.229 246.266C412.545 246.403 412.795 246.588 412.979 246.82V244.444H414.007V251.055H412.979V250.313C412.813 250.551 412.58 250.748 412.283 250.903C411.991 251.058 411.654 251.135 411.273 251.135C410.844 251.135 410.451 251.028 410.094 250.813C409.742 250.593 409.462 250.289 409.254 249.902C409.052 249.509 408.95 249.065 408.95 248.571ZM412.979 248.589C412.979 248.25 412.908 247.955 412.765 247.705C412.628 247.454 412.446 247.264 412.22 247.133C411.994 247.002 411.749 246.936 411.487 246.936C411.225 246.936 410.981 247.002 410.755 247.133C410.529 247.258 410.344 247.445 410.201 247.696C410.064 247.94 409.996 248.232 409.996 248.571C409.996 248.911 410.064 249.208 410.201 249.464C410.344 249.721 410.529 249.917 410.755 250.054C410.987 250.185 411.231 250.251 411.487 250.251C411.749 250.251 411.994 250.185 412.22 250.054C412.446 249.923 412.628 249.732 412.765 249.482C412.908 249.226 412.979 248.928 412.979 248.589Z" fill="#00D261"/>
<path d="M216.442 182.515V179.816H217.933V186.799H216.442V183.954H213.159V186.799H211.679V179.816H213.159V182.515H216.442ZM224.514 184.944L226.223 186.799H224.399L223.378 185.715L222.19 186.528C221.231 187.174 219.99 187.018 219.386 186.205C218.771 185.392 218.979 184.141 219.834 183.568L220.772 182.943L220.282 182.421C219.23 181.296 219.917 179.816 221.45 179.816H223.951V181.15H221.533C221.293 181.15 221.21 181.358 221.366 181.536L223.597 183.954L225.473 182.682V184.287L224.514 184.944ZM221.408 185.454L222.461 184.735L221.658 183.891L220.741 184.506C220.439 184.714 220.376 185.069 220.553 185.319C220.73 185.569 221.085 185.663 221.408 185.454ZM235.091 179.816V186.799H233.611V182.005L231.62 186.799H230.672L228.691 182.025V186.799H227.211V179.816H229.264L231.161 184.464L233.058 179.816H235.091Z" fill="#12143D"/>
<rect x="388.694" y="173.309" width="35.7343" height="35.7343" rx="17.8672" fill="white"/>
<path d="M410.63 185.118C411.358 184.77 411.72 184.815 411.728 185.169C411.737 185.628 411.668 186.239 411.618 186.682C411.347 189.085 410.895 191.048 410.861 193.515C412.052 190.511 413.049 188.423 414.335 185.851C414.743 185.032 415.004 185.185 415.339 185.039C416.644 184.473 416.693 184.82 416.523 185.513C415.889 188.081 414.268 196.164 414.021 197.409C413.949 197.769 413.548 197.616 413.444 197.475C412.979 196.848 412.455 196.839 412.513 196.422C412.805 194.347 413.854 189.14 414.128 187.913C412.733 190.7 411.287 194.184 410.544 196.16C410.387 196.579 410.1 196.549 409.922 196.242C409.671 195.811 409.184 195.59 409.103 195.081C408.848 193.461 409.394 190.373 409.47 188.42C408.711 190.554 407.436 194.697 406.878 196.568C406.648 197.343 405.88 197.217 406.084 196.462C406.933 193.32 408.761 187.765 409.551 185.767C409.737 185.297 410.225 185.313 410.63 185.118ZM406.002 184.733C405.755 184.675 405.041 185.051 404.602 185.125C404.463 185.148 404.33 185.292 404.283 185.395C403.58 186.969 402.951 188.47 402.405 189.837C401.707 189.953 400.891 190.106 399.977 190.306C400.632 188.67 401.292 187.056 401.937 185.504C402.254 184.739 401.419 184.667 401.095 185.441C400.674 186.446 399.885 188.331 399.012 190.527C398.331 190.69 397.653 190.866 396.98 191.056C396.463 191.201 396.442 191.336 396.666 191.638C396.789 191.806 397.043 191.789 397.16 191.909C397.461 192.219 397.644 192.591 398.183 192.647C397.702 193.901 397.221 195.195 396.785 196.441C396.512 197.223 397.291 197.382 397.59 196.555C398.073 195.221 398.581 193.872 399.104 192.526C399.54 192.427 400.594 192.206 401.568 192C400.795 194.064 400.287 195.632 400.094 196.395C400.058 196.542 400.118 196.623 400.151 196.683C400.411 197.053 400.659 197.068 400.994 197.525C401.085 197.65 401.389 197.717 401.493 197.41C402.209 195.302 402.946 193.324 403.632 191.551C403.917 191.491 404.431 191.37 404.745 190.913C405.303 190.101 405.464 190.266 405.598 190.019C405.767 189.71 405.655 189.419 405.059 189.491C405.059 189.491 404.834 189.506 404.418 189.553C405.078 187.894 405.657 186.487 406.073 185.415C406.215 185.052 406.233 184.787 406.002 184.733Z" fill="#CC071E"/>
<path d="M405.027 195.49C405.18 195.869 405.661 195.754 405.478 195.297C405.292 194.831 404.829 193.428 404.708 192.976C404.542 192.366 405.258 192.533 404.895 192.931C404.585 193.274 404.377 193.411 403.802 194.062C403.247 194.691 403.398 195.506 403.992 195.686C404.662 195.89 405.253 195.169 405.619 194.641C405.974 194.129 405.631 193.829 405.273 194.132C405.043 194.326 404.777 194.625 404.508 194.786C404.29 194.916 404.118 194.776 404.41 194.385C404.748 193.932 405.127 193.553 405.409 193.124C405.984 192.252 404.847 191.749 404.358 192.316C404.095 192.618 404.162 192.914 404.233 193.169C404.348 193.577 404.776 194.878 405.027 195.49" fill="#CC071E"/>
<rect x="210.991" y="248.5" width="58.8127" height="14.1448" rx="5.21125" fill="#EEF1F4"/>
<rect x="210.991" y="229.145" width="34.2454" height="14.1448" rx="5.21125" fill="#EEF1F4"/>
<rect x="275.76" y="248.5" width="58.8127" height="14.1448" rx="5.21125" fill="#EEF1F4"/>
<rect x="275.76" y="229.145" width="34.2454" height="14.1448" rx="5.21125" fill="#EEF1F4"/>
<path d="M196.912 296.026V287.8H198.656V296.026H196.912ZM204.188 289.912V291.508H201.671V293.951C201.671 294.246 201.867 294.418 202.162 294.418H204.188V296.026H201.855C200.738 296.026 200.013 295.339 200.013 294.234V291.508H199.154V289.912H200.013V287.8H201.671V289.912H204.188ZM207.579 289.728C209.617 289.728 210.918 291.361 210.697 293.522H206.081C206.179 294.148 206.719 294.676 207.566 294.713C208.131 294.737 208.684 294.479 208.905 294.087H210.636C210.231 295.449 209.015 296.211 207.566 296.211C205.504 296.211 204.386 294.688 204.386 292.969C204.386 291.152 205.7 289.728 207.579 289.728ZM207.566 291.213C206.842 291.213 206.265 291.619 206.093 292.233H209.015C208.831 291.594 208.278 291.213 207.566 291.213ZM218.413 289.74C219.653 289.74 220.733 290.563 220.733 292.331V296.026H219.076V292.589C219.076 291.717 218.597 291.349 218.007 291.349C217.443 291.349 216.829 291.754 216.829 292.773V296.026H215.171V292.601C215.171 291.729 214.705 291.361 214.115 291.361C213.415 291.373 212.937 291.95 212.937 292.846V296.026H211.279V289.912H212.863V290.685H212.912C213.293 290.108 213.894 289.74 214.656 289.74C215.441 289.74 216.055 290.108 216.387 290.735H216.436C216.89 290.108 217.565 289.74 218.413 289.74ZM223.25 289.912H226.614V291.508H223.299C223.139 291.508 223.041 291.619 223.041 291.766C223.041 291.889 223.127 291.999 223.25 292.024L225.546 292.49C226.467 292.687 227.056 293.325 227.056 294.185C227.056 295.265 226.184 296.026 225.067 296.026H221.531V294.418H225.042C225.202 294.418 225.312 294.308 225.312 294.148C225.312 294.025 225.239 293.915 225.104 293.878L222.771 293.374C221.887 293.19 221.273 292.539 221.273 291.717C221.273 290.661 222.132 289.912 223.25 289.912Z" fill="#12143D"/>
<rect x="196.102" y="315.502" width="128.048" height="17.8672" rx="5.21125" fill="#F7F7F7"/>
<path d="M380.367 319.326L383.538 320.086C384.997 320.428 385.727 321.545 385.697 322.691C385.667 324.016 384.625 325.356 382.764 325.356H382.645V326.667H380.679V325.356H377.969V323.332H382.749C383.21 323.332 383.493 323.019 383.508 322.706C383.508 322.423 383.329 322.14 382.942 322.036L379.771 321.277C378.297 320.919 377.597 319.818 377.612 318.731C377.627 317.406 378.669 316.11 380.501 316.11H380.679V314.815H382.645V316.11H385.057V318.15H380.56C380.128 318.15 379.845 318.373 379.83 318.701C379.83 318.969 379.994 319.237 380.367 319.326ZM391.083 315.827V325.803H388.969V317.882H386.676V315.827H391.083ZM392.542 321.962V319.669C392.542 317.242 394.285 315.604 396.577 315.604C398.856 315.604 400.642 317.227 400.642 319.654V321.962C400.642 324.389 398.841 326.027 396.548 326.027C394.255 326.027 392.542 324.359 392.542 321.962ZM394.657 319.669V321.962C394.657 323.198 395.461 323.912 396.548 323.912C397.664 323.912 398.513 323.183 398.513 321.962V319.654C398.513 318.448 397.694 317.703 396.577 317.703C395.476 317.703 394.657 318.433 394.657 319.669ZM401.819 321.962V319.669C401.819 317.242 403.561 315.604 405.854 315.604C408.132 315.604 409.919 317.227 409.919 319.654V321.962C409.919 324.389 408.117 326.027 405.824 326.027C403.531 326.027 401.819 324.359 401.819 321.962ZM403.933 319.669V321.962C403.933 323.198 404.737 323.912 405.824 323.912C406.941 323.912 407.79 323.183 407.79 321.962V319.654C407.79 318.448 406.971 317.703 405.854 317.703C404.752 317.703 403.933 318.433 403.933 319.669ZM410.437 323.57H412.596V325.803H410.437V323.57ZM413.292 321.962V319.669C413.292 317.242 415.034 315.604 417.327 315.604C419.605 315.604 421.391 317.227 421.391 319.654V321.962C421.391 324.389 419.59 326.027 417.297 326.027C415.004 326.027 413.292 324.359 413.292 321.962ZM415.406 319.669V321.962C415.406 323.198 416.21 323.912 417.297 323.912C418.413 323.912 419.262 323.183 419.262 321.962V319.654C419.262 318.448 418.443 317.703 417.327 317.703C416.225 317.703 415.406 318.433 415.406 319.669ZM422.568 321.962V319.669C422.568 317.242 424.31 315.604 426.603 315.604C428.881 315.604 430.668 317.227 430.668 319.654V321.962C430.668 324.389 428.866 326.027 426.573 326.027C424.281 326.027 422.568 324.359 422.568 321.962ZM424.683 319.669V321.962C424.683 323.198 425.487 323.912 426.573 323.912C427.69 323.912 428.539 323.183 428.539 321.962V319.654C428.539 318.448 427.72 317.703 426.603 317.703C425.501 317.703 424.683 318.433 424.683 319.669Z" fill="#12143D"/>
<line x1="196.474" y1="361.286" x2="451.081" y2="361.286" stroke="#F9F9F9" stroke-width="0.744465" stroke-linecap="round"/>
<rect x="196.102" y="315.502" width="128.048" height="17.8672" rx="5.21125" fill="#EEF1F4"/>
<rect x="196.102" y="336.346" width="58.8127" height="17.8672" rx="5.21125" fill="#EEF1F4"/>
<path d="M387.279 387.97L390.451 388.729C391.91 389.072 392.64 390.188 392.61 391.335C392.58 392.66 391.538 394 389.677 394H389.557V395.31H387.592V394H384.882V391.975H389.662C390.123 391.975 390.406 391.662 390.421 391.35C390.421 391.067 390.242 390.784 389.855 390.68L386.684 389.92C385.21 389.563 384.51 388.461 384.525 387.374C384.54 386.049 385.582 384.754 387.413 384.754H387.592V383.458H389.557V384.754H391.969V386.794H387.473C387.041 386.794 386.758 387.017 386.743 387.344C386.743 387.612 386.907 387.88 387.279 387.97ZM399.708 389.652L396.909 392.392H400.855V394.447H393.738V392.794L398.339 388.253C398.607 387.985 398.711 387.657 398.711 387.419C398.711 386.928 398.309 386.526 397.698 386.526H393.827V384.471H397.698C399.589 384.471 400.81 385.722 400.81 387.255C400.81 388.044 400.438 388.938 399.708 389.652ZM408.369 390.129H409.963V392.049H408.369V394.447H406.24V392.049H401.223V390.531L405.317 384.471H408.369V390.129ZM406.24 386.436L403.843 390.129H406.24V386.436ZM410.894 392.213H413.053V394.447H410.894V392.213ZM413.748 390.605V388.312C413.748 385.885 415.491 384.247 417.783 384.247C420.062 384.247 421.848 385.87 421.848 388.297V390.605C421.848 393.032 420.047 394.67 417.754 394.67C415.461 394.67 413.748 393.002 413.748 390.605ZM415.863 388.312V390.605C415.863 391.841 416.667 392.556 417.754 392.556C418.87 392.556 419.719 391.826 419.719 390.605V388.297C419.719 387.091 418.9 386.347 417.783 386.347C416.682 386.347 415.863 387.076 415.863 388.312ZM423.025 390.605V388.312C423.025 385.885 424.767 384.247 427.06 384.247C429.338 384.247 431.125 385.87 431.125 388.297V390.605C431.125 393.032 429.323 394.67 427.03 394.67C424.737 394.67 423.025 393.002 423.025 390.605ZM425.139 388.312V390.605C425.139 391.841 425.944 392.556 427.03 392.556C428.147 392.556 428.996 391.826 428.996 390.605V388.297C428.996 387.091 428.177 386.347 427.06 386.347C425.958 386.347 425.139 387.076 425.139 388.312Z" fill="#12143D"/>
<rect x="196.102" y="384.145" width="128.048" height="17.8672" rx="5.21125" fill="#EEF1F4"/>
<rect x="196.102" y="404.99" width="58.8127" height="17.8672" rx="5.21125" fill="#EEF1F4"/>
</g>
</g>
<path d="M157.57 53.1523H408.328C440.224 53.1523 466.081 79.0091 466.081 110.905V253.599C466.081 338.792 397.018 407.854 311.825 407.854C226.633 407.854 157.57 338.792 157.57 253.599V53.1523Z" stroke="white" stroke-width="4.09272"/>
<g filter="url(#filter0_bdii_201_9514)">
<rect x="55.0156" y="313.04" width="309.873" height="81.8543" rx="21.8278" fill="#17181B" fill-opacity="0.85" shape-rendering="crispEdges"/>
</g>
<mask id="mask1_201_9514" style="mask-type:alpha" maskUnits="userSpaceOnUse" x="55" y="313" width="310" height="82">
<rect x="55.0156" y="313.04" width="309.873" height="81.8543" rx="21.8278" fill="white"/>
</mask>
<g mask="url(#mask1_201_9514)">
<path d="M323.936 339.87C317.668 339.87 312.561 344.974 312.561 351.239C312.561 357.503 317.668 362.607 323.936 362.607C330.204 362.607 335.312 357.503 335.312 351.239C335.312 344.974 330.204 339.87 323.936 339.87ZM329.374 348.624L322.924 355.07C322.765 355.229 322.549 355.32 322.321 355.32C322.094 355.32 321.877 355.229 321.718 355.07L318.499 351.852C318.169 351.523 318.169 350.977 318.499 350.647C318.829 350.318 319.375 350.318 319.705 350.647L322.321 353.262L328.168 347.419C328.498 347.089 329.044 347.089 329.374 347.419C329.704 347.748 329.704 348.283 329.374 348.624Z" fill="#00D261"/>
<rect x="68.6664" y="322.59" width="56.6937" height="56.6937" rx="28.3469" fill="white"/>
<path d="M111.639 352.338H82.9901" stroke="url(#paint1_radial_201_9514)" stroke-width="2.04636" stroke-linecap="round" stroke-linejoin="round"/>
<path d="M109.088 346.594V344.53C109.088 341.718 106.808 339.438 103.995 339.438H102.351" stroke="url(#paint2_radial_201_9514)" stroke-width="2.04636" stroke-linecap="round" stroke-linejoin="round"/>
<path d="M85.5413 346.594V344.53C85.5413 341.718 87.8209 339.438 90.634 339.438H92.3202" stroke="url(#paint3_radial_201_9514)" stroke-width="2.04636" stroke-linecap="round" stroke-linejoin="round"/>
<path d="M109.088 352.336V357.894C109.088 360.707 106.808 362.987 103.995 362.987H102.351" stroke="url(#paint4_radial_201_9514)" stroke-width="2.04636" stroke-linecap="round" stroke-linejoin="round"/>
<path d="M85.5413 352.336V357.894C85.5413 360.707 87.8209 362.987 90.634 362.987H92.3202" stroke="url(#paint5_radial_201_9514)" stroke-width="2.04636" stroke-linecap="round" stroke-linejoin="round"/>
<path d="M143.353 334.493H149.058V336.775H143.519C142.923 336.775 142.626 337.156 142.626 337.569C142.626 337.916 142.857 338.28 143.32 338.396L147.272 339.322C148.992 339.719 149.786 341.058 149.786 342.364C149.786 343.985 148.645 345.572 146.445 345.572H140.509V343.274H146.363C146.941 343.274 147.289 342.844 147.289 342.397C147.289 342.034 147.057 341.67 146.545 341.554L142.576 340.612C140.873 340.198 140.079 338.892 140.079 337.619C140.079 336.031 141.204 334.493 143.353 334.493ZM159.136 340.463H156.805C156.54 339.752 155.862 339.239 154.969 339.239C153.663 339.239 152.853 340.248 152.853 341.455C152.853 342.662 153.663 343.654 154.969 343.654C155.846 343.654 156.54 343.158 156.805 342.43H159.136C158.789 344.398 157.202 345.82 154.953 345.82C152.291 345.82 150.62 343.902 150.62 341.455C150.62 339.008 152.291 337.089 154.953 337.089C157.218 337.089 158.806 338.495 159.136 340.463ZM166.538 338.396V337.337H168.753V345.572H166.538V344.481H166.455C165.942 345.241 165 345.804 163.793 345.82C161.56 345.82 159.874 344.067 159.874 341.471C159.874 338.925 161.478 337.073 163.809 337.089C165 337.089 165.942 337.652 166.455 338.396H166.538ZM164.338 343.704C165.661 343.704 166.538 342.678 166.538 341.455C166.538 340.182 165.628 339.206 164.338 339.206C163.032 339.206 162.123 340.165 162.123 341.455C162.123 342.745 163.032 343.704 164.338 343.704ZM175.256 337.106C177.257 337.106 178.53 338.445 178.53 340.81V345.572H176.297V341.141C176.297 339.95 175.537 339.289 174.611 339.289C173.602 339.289 172.742 340.066 172.742 341.306V345.572H170.51V337.337H172.676V338.33H172.759C173.305 337.569 174.231 337.106 175.256 337.106ZM186.589 345.572H184.241V334.493H189.913C192.145 334.493 193.732 335.585 193.732 337.585C193.732 338.644 193.319 339.421 192.641 339.917V339.967C193.534 340.198 193.997 340.876 193.997 342.034V345.572H191.649V342.463C191.649 342.017 191.384 341.802 190.954 341.802H186.589V345.572ZM186.589 336.775V339.669H189.731C190.69 339.669 191.384 339.14 191.384 338.214C191.384 337.321 190.673 336.775 189.747 336.775H186.589ZM199.456 337.089C202.201 337.089 203.954 339.289 203.656 342.199H197.439C197.571 343.042 198.299 343.753 199.44 343.803C200.2 343.836 200.944 343.489 201.242 342.96H203.574C203.028 344.795 201.391 345.82 199.44 345.82C196.662 345.82 195.157 343.77 195.157 341.455C195.157 339.008 196.926 337.089 199.456 337.089ZM199.44 339.09C198.464 339.09 197.687 339.636 197.455 340.463H201.391C201.143 339.603 200.399 339.09 199.44 339.09ZM213.006 340.463H210.675C210.41 339.752 209.732 339.239 208.839 339.239C207.533 339.239 206.723 340.248 206.723 341.455C206.723 342.662 207.533 343.654 208.839 343.654C209.716 343.654 210.41 343.158 210.675 342.43H213.006C212.659 344.398 211.072 345.82 208.823 345.82C206.161 345.82 204.491 343.902 204.491 341.455C204.491 339.008 206.161 337.089 208.823 337.089C211.088 337.089 212.676 338.495 213.006 340.463ZM218.027 337.089C220.771 337.089 222.524 339.289 222.227 342.199H216.009C216.141 343.042 216.869 343.753 218.01 343.803C218.771 343.836 219.515 343.489 219.812 342.96H222.144C221.598 344.795 219.961 345.82 218.01 345.82C215.232 345.82 213.727 343.77 213.727 341.455C213.727 339.008 215.497 337.089 218.027 337.089ZM218.01 339.09C217.034 339.09 216.257 339.636 216.026 340.463H219.961C219.713 339.603 218.969 339.09 218.01 339.09ZM223.54 333.667H225.773V336.279H223.54V333.667ZM223.54 337.337H225.773V345.572H223.54V337.337ZM232.457 337.089C234.789 337.073 236.392 338.925 236.392 341.471C236.392 344.067 234.706 345.82 232.474 345.82C231.266 345.804 230.324 345.241 229.811 344.481H229.729V348.879H227.513V337.337H229.729V338.396H229.811C230.324 337.652 231.283 337.089 232.457 337.089ZM231.928 343.704C233.234 343.704 234.144 342.745 234.144 341.455C234.144 340.165 233.234 339.206 231.928 339.206C230.638 339.206 229.729 340.182 229.729 341.455C229.729 342.678 230.605 343.704 231.928 343.704ZM243.644 337.337V339.487H240.254V342.778C240.254 343.175 240.518 343.406 240.915 343.406H243.644V345.572H240.502C238.997 345.572 238.022 344.646 238.022 343.158V339.487H236.864V337.337H238.022V334.493H240.254V337.337H243.644Z" fill="white"/>
<path d="M148.208 364.864H145.345V367.798H143.842V364.864H140.979V363.504H143.842V360.57H145.345V363.504H148.208V364.864ZM157.163 360.357H152.415V363.178C152.614 362.913 152.907 362.691 153.294 362.512C153.691 362.332 154.111 362.242 154.555 362.242C155.349 362.242 155.992 362.412 156.483 362.753C156.984 363.093 157.338 363.523 157.546 364.042C157.763 364.562 157.872 365.11 157.872 365.686C157.872 366.386 157.735 367.009 157.461 367.557C157.196 368.096 156.795 368.521 156.256 368.833C155.727 369.145 155.075 369.301 154.3 369.301C153.27 369.301 152.444 369.046 151.82 368.535C151.196 368.025 150.823 367.349 150.7 366.508H152.274C152.377 366.953 152.609 367.307 152.968 367.572C153.327 367.827 153.776 367.954 154.315 367.954C154.985 367.954 155.486 367.751 155.817 367.345C156.157 366.938 156.327 366.4 156.327 365.729C156.327 365.049 156.157 364.529 155.817 364.17C155.477 363.801 154.976 363.617 154.315 363.617C153.852 363.617 153.459 363.735 153.138 363.971C152.826 364.198 152.6 364.51 152.458 364.907H150.927V358.94H157.163V360.357ZM159.554 364C159.554 362.365 159.828 361.09 160.376 360.173C160.934 359.247 161.888 358.784 163.239 358.784C164.59 358.784 165.54 359.247 166.088 360.173C166.645 361.09 166.924 362.365 166.924 364C166.924 365.653 166.645 366.948 166.088 367.883C165.54 368.809 164.59 369.272 163.239 369.272C161.888 369.272 160.934 368.809 160.376 367.883C159.828 366.948 159.554 365.653 159.554 364ZM165.337 364C165.337 363.234 165.285 362.587 165.181 362.058C165.086 361.529 164.888 361.099 164.586 360.768C164.283 360.428 163.834 360.258 163.239 360.258C162.644 360.258 162.195 360.428 161.893 360.768C161.59 361.099 161.387 361.529 161.283 362.058C161.189 362.587 161.141 363.234 161.141 364C161.141 364.794 161.189 365.46 161.283 365.998C161.378 366.537 161.576 366.971 161.878 367.302C162.19 367.633 162.644 367.798 163.239 367.798C163.834 367.798 164.283 367.633 164.586 367.302C164.897 366.971 165.101 366.537 165.195 365.998C165.29 365.46 165.337 364.794 165.337 364ZM179.417 362.384C179.417 362.885 179.298 363.357 179.062 363.801C178.826 364.245 178.448 364.609 177.928 364.893C177.409 365.167 176.742 365.304 175.93 365.304H174.144V369.301H172.528V359.45H175.93C176.686 359.45 177.324 359.582 177.843 359.847C178.372 360.102 178.765 360.452 179.02 360.896C179.284 361.34 179.417 361.836 179.417 362.384ZM175.93 363.986C176.544 363.986 177.002 363.849 177.305 363.575C177.607 363.291 177.758 362.894 177.758 362.384C177.758 361.307 177.149 360.768 175.93 360.768H174.144V363.986H175.93ZM184.345 369.428C183.608 369.428 182.942 369.263 182.347 368.932C181.751 368.592 181.284 368.12 180.943 367.515C180.603 366.901 180.433 366.192 180.433 365.389C180.433 364.595 180.608 363.891 180.958 363.277C181.307 362.663 181.784 362.19 182.389 361.86C182.994 361.529 183.669 361.364 184.416 361.364C185.162 361.364 185.838 361.529 186.443 361.86C187.047 362.19 187.525 362.663 187.874 363.277C188.224 363.891 188.399 364.595 188.399 365.389C188.399 366.183 188.219 366.886 187.86 367.501C187.501 368.115 187.01 368.592 186.386 368.932C185.772 369.263 185.091 369.428 184.345 369.428ZM184.345 368.025C184.761 368.025 185.148 367.926 185.507 367.727C185.876 367.529 186.173 367.231 186.4 366.834C186.627 366.438 186.74 365.956 186.74 365.389C186.74 364.822 186.632 364.345 186.414 363.957C186.197 363.56 185.909 363.263 185.55 363.064C185.191 362.866 184.803 362.767 184.388 362.767C183.972 362.767 183.584 362.866 183.225 363.064C182.876 363.263 182.597 363.56 182.389 363.957C182.181 364.345 182.077 364.822 182.077 365.389C182.077 366.23 182.29 366.882 182.715 367.345C183.15 367.798 183.693 368.025 184.345 368.025ZM190.818 360.456C190.525 360.456 190.279 360.357 190.081 360.159C189.883 359.96 189.783 359.715 189.783 359.422C189.783 359.129 189.883 358.883 190.081 358.685C190.279 358.486 190.525 358.387 190.818 358.387C191.101 358.387 191.342 358.486 191.541 358.685C191.739 358.883 191.838 359.129 191.838 359.422C191.838 359.715 191.739 359.96 191.541 360.159C191.342 360.357 191.101 360.456 190.818 360.456ZM191.612 361.491V369.301H189.996V361.491H191.612ZM197.673 361.364C198.287 361.364 198.835 361.491 199.317 361.746C199.809 362.001 200.191 362.379 200.465 362.88C200.739 363.381 200.876 363.986 200.876 364.694V369.301H199.275V364.935C199.275 364.236 199.1 363.702 198.75 363.334C198.401 362.956 197.924 362.767 197.319 362.767C196.714 362.767 196.232 362.956 195.873 363.334C195.524 363.702 195.349 364.236 195.349 364.935V369.301H193.733V361.491H195.349V362.384C195.613 362.063 195.949 361.812 196.355 361.633C196.771 361.453 197.21 361.364 197.673 361.364ZM204.823 362.809V367.132C204.823 367.425 204.889 367.638 205.021 367.77C205.163 367.893 205.399 367.954 205.73 367.954H206.722V369.301H205.446C204.719 369.301 204.161 369.131 203.774 368.79C203.386 368.45 203.193 367.897 203.193 367.132V362.809H202.271V361.491H203.193V359.549H204.823V361.491H206.722V362.809H204.823ZM211.046 369.428C210.431 369.428 209.879 369.32 209.387 369.102C208.905 368.875 208.523 368.573 208.239 368.195C207.956 367.808 207.805 367.378 207.786 366.905H209.458C209.487 367.236 209.642 367.515 209.926 367.742C210.219 367.959 210.583 368.068 211.017 368.068C211.471 368.068 211.82 367.983 212.066 367.812C212.321 367.633 212.449 367.406 212.449 367.132C212.449 366.839 212.307 366.622 212.024 366.48C211.75 366.338 211.31 366.183 210.706 366.012C210.12 365.852 209.642 365.696 209.274 365.545C208.905 365.394 208.584 365.162 208.31 364.85C208.046 364.538 207.913 364.127 207.913 363.617C207.913 363.201 208.036 362.823 208.282 362.483C208.528 362.134 208.877 361.86 209.331 361.661C209.794 361.463 210.323 361.364 210.918 361.364C211.806 361.364 212.52 361.59 213.058 362.044C213.606 362.488 213.899 363.097 213.937 363.872H212.321C212.293 363.523 212.151 363.244 211.896 363.036C211.641 362.828 211.296 362.724 210.861 362.724C210.436 362.724 210.11 362.805 209.883 362.965C209.657 363.126 209.543 363.338 209.543 363.603C209.543 363.811 209.619 363.986 209.77 364.127C209.921 364.269 210.105 364.382 210.323 364.468C210.54 364.543 210.861 364.642 211.287 364.765C211.854 364.916 212.317 365.072 212.676 365.233C213.044 365.384 213.361 365.611 213.625 365.913C213.89 366.216 214.027 366.617 214.036 367.118C214.036 367.562 213.913 367.959 213.668 368.309C213.422 368.658 213.072 368.932 212.619 369.131C212.175 369.329 211.65 369.428 211.046 369.428Z" fill="#9CA3AF"/>
<rect x="55.0157" y="392.166" width="316.698" height="2.72848" rx="1.36424" fill="#C4E0D1"/>
<rect x="55.0157" y="392.166" width="203.397" height="2.72848" rx="1.36424" fill="#00D261"/>
</g>
<g filter="url(#filter1_d_201_9514)">
<ellipse cx="487.238" cy="240.735" rx="32.7619" ry="32.7417" fill="white"/>
</g>
<path d="M492.98 226.183C495.047 226.183 497.114 226.183 499.181 226.184C499.183 226.649 499.179 227.114 499.183 227.58C498.658 227.603 498.121 227.662 497.638 227.881C497.147 228.101 496.736 228.502 496.524 228.998C494.011 234.903 491.499 240.808 488.989 246.714C488.945 246.811 488.91 246.912 488.86 247.005C487.961 246.995 487.061 247.004 486.162 247.001C485.766 246.213 485.375 245.422 484.975 244.635C484.516 245.864 484.055 247.09 483.597 248.318C486.562 248.318 489.528 248.318 492.494 248.318C493.037 248.326 493.596 248.303 494.104 248.091C494.948 247.752 495.62 247.097 496.167 246.387C496.827 245.526 497.328 244.558 497.775 243.573C498.275 243.569 498.776 243.575 499.276 243.574C498.327 245.6 497.373 247.624 496.416 249.646C489.582 249.646 482.748 249.646 475.914 249.646C476.081 249.212 476.239 248.774 476.418 248.344C476.428 248.3 476.484 248.311 476.517 248.307C477.37 248.301 478.229 248.268 479.066 248.09C479.502 247.988 479.953 247.852 480.288 247.541C480.465 247.372 480.52 247.125 480.579 246.897C481.386 244.739 482.194 242.581 483.002 240.423C481.295 236.788 479.582 233.155 477.875 229.521C477.737 229.203 477.556 228.888 477.27 228.681C476.679 228.239 475.911 228.183 475.2 228.154C475.199 227.633 475.2 227.113 475.2 226.592C477.599 226.591 479.998 226.591 482.398 226.591C482.398 227.112 482.398 227.633 482.397 228.154C482.085 228.174 481.753 228.169 481.47 228.324C481.329 228.39 481.247 228.557 481.283 228.709C481.327 228.957 481.524 229.135 481.623 229.359C482.636 231.54 483.65 233.721 484.666 235.902C485.175 234.479 485.684 233.056 486.196 231.634C486.271 231.436 486.297 231.208 486.212 231.009C486.144 230.852 485.992 230.755 485.841 230.69C485.549 230.569 485.228 230.57 484.918 230.548C485.076 230.108 485.235 229.669 485.399 229.232C485.437 229.207 485.49 229.226 485.534 229.22C487.968 229.221 490.403 229.22 492.838 229.221C492.669 229.662 492.502 230.104 492.336 230.546C491.749 230.574 491.145 230.588 490.595 230.817C490.343 230.923 490.104 231.084 489.955 231.317C489.852 231.488 489.788 231.679 489.718 231.865C488.701 234.637 487.675 237.406 486.669 240.183C487.226 241.441 487.807 242.689 488.375 243.943C490.439 239.072 492.502 234.202 494.568 229.333C494.707 229.04 494.934 228.772 494.952 228.436C494.969 228.172 494.773 227.944 494.546 227.836C494.058 227.611 493.508 227.6 492.98 227.581C492.98 227.115 492.98 226.649 492.98 226.183ZM496.733 252.406C497.384 253.08 498.031 253.759 498.676 254.439C498.675 253.807 498.678 253.175 498.678 252.543C498.789 252.543 498.901 252.542 499.013 252.54C499.013 253.443 499.013 254.345 499.013 255.248C498.361 254.577 497.718 253.897 497.069 253.222C497.07 253.858 497.068 254.495 497.068 255.131C496.956 255.132 496.844 255.132 496.733 255.132C496.732 254.223 496.732 253.314 496.733 252.406ZM477.767 252.499C478.485 252.389 479.244 252.95 479.308 253.682C479.368 254.1 479.206 254.537 478.899 254.825C478.395 255.318 477.489 255.309 476.999 254.798C476.735 254.542 476.584 254.173 476.6 253.805C476.608 253.164 477.138 252.591 477.767 252.499ZM477.767 252.83C477.349 252.898 477.009 253.265 476.951 253.681C476.871 254.153 477.163 254.661 477.619 254.815C478.018 254.966 478.504 254.824 478.76 254.483C479.091 254.068 479.035 253.397 478.628 253.052C478.399 252.844 478.067 252.776 477.767 252.83ZM482.951 252.638C483.318 252.362 483.919 252.477 484.131 252.894C484.043 252.944 483.954 252.994 483.866 253.044C483.706 252.795 483.318 252.734 483.103 252.945C483.012 253.012 483.022 253.133 483.032 253.233C483.058 253.363 483.197 253.418 483.299 253.479C483.562 253.618 483.879 253.698 484.064 253.949C484.27 254.23 484.236 254.647 484.011 254.907C483.776 255.192 483.345 255.261 483.016 255.112C482.763 254.987 482.607 254.723 482.557 254.453C482.67 254.426 482.783 254.402 482.897 254.376C482.908 254.623 483.1 254.872 483.36 254.876C483.712 254.915 483.991 254.458 483.786 254.167C483.568 253.869 483.146 253.865 482.895 253.608C482.599 253.366 482.629 252.845 482.951 252.638ZM494.952 252.497C495.422 252.438 495.908 252.655 496.197 253.027C496.613 253.548 496.546 254.378 496.052 254.826C495.77 255.105 495.355 255.22 494.966 255.178C494.581 255.153 494.22 254.937 493.998 254.625C493.759 254.292 493.697 253.847 493.81 253.456C493.958 252.949 494.43 252.563 494.952 252.497ZM494.894 252.835C494.375 252.923 494.005 253.475 494.096 253.988C494.153 254.482 494.622 254.884 495.118 254.875C495.456 254.881 495.779 254.689 495.961 254.409C496.238 254.007 496.165 253.415 495.808 253.084C495.575 252.848 495.214 252.768 494.894 252.835ZM475.469 252.541C475.576 252.54 475.683 252.54 475.79 252.541C475.79 253.306 475.79 254.071 475.79 254.836C476.056 254.837 476.322 254.836 476.588 254.836C476.589 254.935 476.589 255.033 476.588 255.131C476.215 255.132 475.842 255.132 475.469 255.131C475.469 254.268 475.469 253.404 475.469 252.541ZM479.568 252.543C479.681 252.542 479.794 252.542 479.908 252.543C479.909 253.052 479.907 253.562 479.909 254.072C479.914 254.296 479.942 254.543 480.101 254.716C480.353 254.963 480.849 254.928 481.025 254.607C481.114 254.456 481.14 254.278 481.137 254.106C481.135 253.585 481.135 253.064 481.135 252.543C481.249 252.542 481.362 252.542 481.475 252.543C481.475 253.074 481.477 253.606 481.475 254.138C481.476 254.379 481.434 254.634 481.28 254.829C480.948 255.288 480.178 255.314 479.815 254.88C479.642 254.699 479.571 254.444 479.568 254.199C479.567 253.647 479.568 253.095 479.568 252.543ZM481.894 252.541C482.006 252.54 482.118 252.54 482.229 252.541C482.229 253.404 482.23 254.268 482.229 255.132C482.118 255.132 482.006 255.132 481.894 255.131C481.895 254.268 481.895 253.404 481.894 252.541ZM485.251 252.543C485.374 252.54 485.497 252.54 485.62 252.541C485.878 253.17 486.131 253.801 486.384 254.433C486.636 253.804 486.896 253.177 487.143 252.546C487.269 252.535 487.396 252.542 487.522 252.541C487.146 253.457 486.768 254.372 486.388 255.287C486.001 254.376 485.629 253.458 485.251 252.543ZM487.676 252.54C487.787 252.542 487.899 252.543 488.011 252.543C488.015 253.045 488.01 253.547 488.014 254.049C488.022 254.287 488.04 254.557 488.223 254.734C488.433 254.914 488.767 254.925 488.992 254.765C489.122 254.672 489.194 254.518 489.222 254.364C489.267 254.1 489.251 253.831 489.254 253.564C489.256 253.224 489.256 252.883 489.255 252.543C489.363 252.542 489.47 252.542 489.578 252.543C489.583 253.014 489.579 253.486 489.58 253.958C489.588 254.25 489.578 254.568 489.4 254.815C489.088 255.265 488.37 255.313 487.975 254.948C487.778 254.765 487.678 254.496 487.677 254.23C487.674 253.667 487.676 253.104 487.676 252.54ZM489.999 252.543C490.115 252.543 490.232 252.542 490.348 252.541C490.348 253.404 490.348 254.268 490.348 255.131C490.231 255.132 490.114 255.132 489.997 255.131C489.996 254.268 490 253.406 489.999 252.543ZM490.558 252.543C491.603 252.544 492.648 252.541 493.693 252.541C493.693 252.644 493.693 252.748 493.693 252.851C493.492 252.852 493.292 252.851 493.092 252.852C493.091 253.612 493.092 254.371 493.092 255.131C492.975 255.132 492.859 255.132 492.742 255.131C492.741 254.371 492.744 253.612 492.741 252.852C492.331 252.852 491.92 252.851 491.51 252.852C491.509 253.612 491.51 254.371 491.51 255.131C491.403 255.132 491.296 255.132 491.189 255.131C491.189 254.371 491.189 253.612 491.189 252.852C490.978 252.851 490.768 252.852 490.558 252.851C490.557 252.748 490.557 252.645 490.558 252.543Z" fill="black"/>
<g filter="url(#filter2_d_201_9514)">
<ellipse cx="122.762" cy="49.7417" rx="32.7619" ry="32.7417" fill="white"/>
</g>
<path fill-rule="evenodd" clip-rule="evenodd" d="M135.506 56.0837C135.506 60.7694 131.702 64.5707 127.014 64.5707C125.663 64.5707 124.39 64.2605 123.241 63.6863C122.108 64.245 120.819 64.5707 119.484 64.5707C114.795 64.5707 110.992 60.7694 110.992 56.0837C110.992 51.398 114.795 47.5968 119.484 47.5968C120.835 47.5968 122.108 47.9071 123.241 48.4656C124.374 47.9071 125.663 47.5968 127.014 47.5968C131.702 47.5968 135.506 51.398 135.506 56.0837ZM133.829 56.0837C133.829 52.329 130.771 49.2725 127.014 49.2725C126.3 49.2725 125.601 49.3811 124.964 49.5829C126.268 50.6688 127.216 52.1273 127.681 53.803H125.927C125.434 52.4041 124.496 51.2051 123.257 50.3896C122.03 51.1962 121.099 52.3912 120.602 53.803H118.848C119.307 52.1505 120.254 50.6745 121.564 49.5673C120.895 49.3613 120.199 49.2567 119.499 49.257C115.743 49.257 112.684 52.3135 112.684 56.0682C112.684 59.8228 115.743 62.8796 119.499 62.8796C120.214 62.8796 120.897 62.771 121.533 62.5692C119.841 61.1574 118.739 59.0783 118.568 56.751H122.605V58.411L120.633 58.4421C121.145 59.8075 122.061 60.9558 123.257 61.747C124.452 60.9556 125.368 59.8075 125.88 58.4421L123.909 58.411V56.751H127.945C127.759 59.0783 126.641 61.1419 124.949 62.5537C125.601 62.7555 126.3 62.8796 127.014 62.8796C130.786 62.8951 133.829 59.8539 133.829 56.0837Z" fill="black"/>
<path d="M134.096 37.2401L134.044 37.2575C133.841 36.817 133.551 36.4664 133.174 36.2056C132.803 35.9449 132.336 35.8146 131.774 35.8146C131.461 35.8146 131.162 35.8812 130.878 36.0145C130.594 36.1419 130.344 36.3244 130.13 36.5621C129.921 36.7938 129.753 37.0749 129.626 37.4053C129.498 37.7355 129.434 38.1005 129.434 38.5004C129.434 38.9002 129.498 39.2652 129.626 39.5955C129.753 39.9258 129.921 40.2098 130.13 40.4475C130.344 40.6792 130.594 40.8588 130.878 40.9863C131.162 41.1138 131.461 41.1776 131.774 41.1776C132.33 41.1776 132.783 41.0907 133.131 40.9169C133.484 40.7371 133.783 40.4647 134.026 40.0996L134.079 40.117L134.061 40.6732C133.928 40.8123 133.774 40.937 133.6 41.0471C133.426 41.1515 133.238 41.2414 133.035 41.3168C132.838 41.3861 132.632 41.4382 132.418 41.4731C132.203 41.5136 131.988 41.5339 131.774 41.5339C131.327 41.5339 130.901 41.4615 130.495 41.3168C130.089 41.1717 129.733 40.9689 129.425 40.7082C129.118 40.4416 128.875 40.1229 128.695 39.7521C128.515 39.3755 128.425 38.9582 128.425 38.5004C128.425 38.0426 128.515 37.6282 128.695 37.2573C128.875 36.8806 129.118 36.5591 129.425 36.2927C129.733 36.026 130.089 35.8232 130.495 35.6841C130.901 35.5394 131.327 35.467 131.774 35.467C131.988 35.467 132.203 35.4843 132.418 35.5189C132.632 35.5538 132.838 35.6088 133.035 35.6841C133.238 35.7537 133.426 35.8436 133.6 35.9538C133.774 36.058 133.928 36.1796 134.061 36.3187L134.096 37.2401ZM114.93 38.9003C114.866 38.9293 114.806 38.9669 114.748 39.0132C114.69 39.0596 114.661 39.1233 114.661 39.2045V40.2738C114.382 40.6735 114.026 40.9836 113.591 41.2039C113.156 41.424 112.675 41.5341 112.147 41.5341C111.701 41.5341 111.274 41.4617 110.868 41.3168C110.463 41.1719 110.106 40.969 109.799 40.7082C109.491 40.4416 109.248 40.123 109.068 39.7523C108.888 39.3755 108.798 38.9582 108.798 38.5004C108.798 38.0428 108.888 37.6285 109.068 37.2575C109.248 36.8809 109.491 36.5593 109.799 36.2927C110.106 36.026 110.463 35.8233 110.868 35.6843C111.274 35.5394 111.701 35.467 112.147 35.467C112.362 35.467 112.576 35.4844 112.791 35.5191C113.005 35.5538 113.211 35.6089 113.408 35.6843C113.611 35.7538 113.799 35.8436 113.973 35.9538C114.147 36.0581 114.301 36.1798 114.434 36.3187L114.469 37.2401L114.417 37.2575C114.214 36.8172 113.924 36.4666 113.547 36.2058C113.176 35.945 112.709 35.8146 112.147 35.8146C111.834 35.8146 111.535 35.8812 111.251 36.0145C110.967 36.1421 110.718 36.3246 110.503 36.5621C110.295 36.794 110.126 37.075 109.999 37.4053C109.871 37.7356 109.807 38.1007 109.807 38.5004C109.807 38.8944 109.868 39.2565 109.99 39.5868C110.118 39.9173 110.286 40.2013 110.495 40.4388C110.709 40.6705 110.958 40.853 111.242 40.9863C111.527 41.1138 111.828 41.1776 112.147 41.1776C112.75 41.1776 113.266 41.0617 113.695 40.83V39.2045C113.695 39.1235 113.663 39.0597 113.6 39.0132C113.542 38.9669 113.484 38.9292 113.426 38.9001L113.434 38.8567C113.463 38.862 113.515 38.8678 113.59 38.8741C113.666 38.8794 113.744 38.8852 113.825 38.8914H114.573C114.643 38.8861 114.709 38.8803 114.773 38.8741C114.837 38.8687 114.886 38.8629 114.921 38.8567L114.93 38.9003ZM121.23 35.6494C121.172 35.6783 121.114 35.716 121.056 35.7625C120.998 35.8088 120.966 35.8957 120.96 36.0232C120.955 36.1623 120.949 36.339 120.943 36.5534C120.943 36.7621 120.94 36.9998 120.935 37.2664C120.935 37.5329 120.932 37.8226 120.927 38.1355V39.109C120.922 39.4856 120.875 39.8072 120.788 40.0738C120.701 40.3404 120.585 40.5635 120.44 40.7429C120.301 40.9227 120.144 41.0647 119.97 41.1689C119.802 41.2733 119.634 41.3515 119.466 41.4036C119.304 41.4615 119.15 41.4963 119.005 41.508C118.86 41.5254 118.747 41.5341 118.666 41.5341C118.335 41.5341 118.016 41.4907 117.709 41.4038C117.402 41.3226 117.132 41.1893 116.9 41.0039C116.668 40.8184 116.483 40.5779 116.344 40.2825C116.204 39.9869 116.135 39.6276 116.135 39.2045V37.3183C116.135 37.0402 116.132 36.7911 116.127 36.571C116.127 36.3449 116.124 36.1623 116.119 36.0232C116.114 35.8957 116.082 35.8089 116.023 35.7627C115.965 35.7162 115.907 35.6785 115.849 35.6494L115.857 35.6059C115.886 35.6113 115.933 35.6171 115.997 35.6233C116.066 35.6286 116.136 35.6344 116.205 35.6407C116.281 35.6407 116.353 35.6433 116.422 35.6487H116.736C116.805 35.6433 116.878 35.6407 116.953 35.6407C117.029 35.6353 117.098 35.6296 117.162 35.6233C117.231 35.618 117.281 35.6122 117.31 35.6059L117.318 35.6494C117.254 35.6783 117.193 35.716 117.135 35.7625C117.083 35.8088 117.054 35.8957 117.048 36.0232C117.043 36.1623 117.037 36.3448 117.031 36.5708V39.2045C117.031 39.8362 117.179 40.3027 117.474 40.604C117.77 40.9053 118.208 41.056 118.788 41.056C118.956 41.056 119.147 41.0357 119.361 40.995C119.576 40.9487 119.776 40.856 119.962 40.7169C120.153 40.5778 120.312 40.3808 120.44 40.1259C120.573 39.8709 120.64 39.5319 120.64 39.109C120.64 38.6512 120.637 38.26 120.632 37.9355C120.632 37.6052 120.629 37.3241 120.624 37.0923C120.624 36.8546 120.621 36.6518 120.616 36.4839C120.611 36.3159 120.605 36.1623 120.599 36.0232C120.594 35.8957 120.562 35.8088 120.503 35.7625C120.445 35.7162 120.387 35.6785 120.329 35.6494L120.337 35.6059C120.401 35.6175 120.474 35.6292 120.555 35.6409C120.636 35.6461 120.711 35.6487 120.781 35.6487C120.845 35.6487 120.917 35.6461 120.998 35.6409C121.085 35.6293 121.161 35.6177 121.224 35.6059L121.23 35.6494ZM127.541 37.2401L127.489 37.2575C127.286 36.817 126.996 36.4664 126.619 36.2056C126.248 35.9449 125.781 35.8146 125.219 35.8146C124.906 35.8146 124.607 35.8812 124.323 36.0145C124.039 36.1419 123.79 36.3244 123.575 36.5621C123.366 36.7938 123.198 37.0749 123.071 37.4053C122.943 37.7355 122.879 38.1005 122.879 38.5004C122.879 38.9002 122.943 39.2652 123.071 39.5955C123.198 39.9258 123.366 40.2098 123.575 40.4475C123.79 40.6792 124.039 40.8588 124.323 40.9863C124.607 41.1138 124.906 41.1776 125.219 41.1776C125.775 41.1776 126.228 41.0907 126.576 40.9169C126.929 40.7371 127.228 40.4647 127.472 40.0996L127.524 40.117L127.506 40.6732C127.373 40.8123 127.219 40.937 127.045 41.0471C126.872 41.1515 126.683 41.2414 126.48 41.3168C126.283 41.3861 126.077 41.4382 125.863 41.4731C125.648 41.5136 125.433 41.5339 125.219 41.5339C124.772 41.5339 124.346 41.4615 123.94 41.3168C123.534 41.1717 123.178 40.9689 122.871 40.7082C122.563 40.4416 122.32 40.1229 122.14 39.7521C121.96 39.3755 121.87 38.9582 121.87 38.5004C121.87 38.0426 121.96 37.6282 122.14 37.2573C122.32 36.8806 122.563 36.5591 122.871 36.2927C123.178 36.026 123.534 35.8232 123.94 35.6841C124.346 35.5394 124.772 35.467 125.219 35.467C125.433 35.467 125.648 35.4843 125.862 35.5189C126.077 35.5538 126.283 35.6088 126.48 35.6841C126.683 35.7537 126.871 35.8436 127.045 35.9538C127.219 36.058 127.373 36.1796 127.506 36.3187L127.541 37.2401ZM136.717 41.386C136.688 41.3808 136.639 41.3751 136.57 41.3689C136.506 41.3689 136.436 41.3662 136.361 41.3609C136.285 41.3609 136.213 41.3583 136.143 41.3531H135.622C135.552 41.3583 135.483 41.364 135.413 41.3702C135.349 41.3756 135.3 41.3814 135.265 41.3876L135.257 41.3529C135.315 41.3239 135.373 41.2862 135.431 41.2398C135.489 41.1934 135.521 41.1065 135.527 40.979C135.532 40.8399 135.535 40.695 135.535 40.5444C135.54 40.3937 135.543 40.2227 135.543 40.0315V36.9634C135.543 36.772 135.54 36.6039 135.535 36.459C135.535 36.3083 135.532 36.1635 135.527 36.0246C135.521 35.8971 135.49 35.8102 135.431 35.7638C135.373 35.7116 135.315 35.671 135.257 35.642L135.265 35.6073C135.3 35.6189 135.349 35.6276 135.413 35.6334C135.483 35.6334 135.552 35.636 135.622 35.6414C135.697 35.6467 135.77 35.6494 135.839 35.6494H136.143C136.213 35.644 136.285 35.6414 136.361 35.6414C136.436 35.636 136.506 35.6302 136.57 35.624C136.639 35.6187 136.688 35.6129 136.717 35.6066L136.725 35.6416C136.662 35.6705 136.601 35.7111 136.543 35.7632C136.491 35.8095 136.462 35.8963 136.456 36.0237C136.45 36.1629 136.445 36.3079 136.438 36.4586V40.5439C136.444 40.6944 136.45 40.8392 136.456 40.9783C136.461 41.1058 136.49 41.1928 136.543 41.2391C136.601 41.2854 136.662 41.3231 136.725 41.3522L136.717 41.386Z" fill="black"/>
<g filter="url(#filter3_d_201_9514)">
<ellipse cx="468.127" cy="60.6557" rx="32.7619" ry="32.7417" fill="white"/>
</g>
<path d="M475.41 48.1713C478.279 48.1713 480.607 60.2681 480.607 75.2076H484.793C484.793 59.1236 480.57 46.1039 475.398 46.1039C472.443 46.1039 469.832 50.0049 468.108 56.1333C466.385 50.0049 463.774 46.1039 460.843 46.1039C455.672 46.1039 451.46 59.1113 451.46 75.1953H455.647C455.647 60.2558 457.95 48.1713 460.819 48.1713C463.688 48.1713 466.015 59.3452 466.015 73.1279H470.177C470.177 59.3452 472.517 48.1713 475.386 48.1713" fill="#FFCC00"/>
<defs>
<filter id="filter0_bdii_201_9514" x="0.446091" y="251.649" width="419.012" height="190.993" filterUnits="userSpaceOnUse" color-interpolation-filters="sRGB">
<feFlood flood-opacity="0" result="BackgroundImageFix"/>
<feGaussianBlur in="BackgroundImageFix" stdDeviation="6.13907"/>
<feComposite in2="SourceAlpha" operator="in" result="effect1_backgroundBlur_201_9514"/>
<feColorMatrix in="SourceAlpha" type="matrix" values="0 0 0 0 0 0 0 0 0 0 0 0 0 0 0 0 0 0 127 0" result="hardAlpha"/>
<feOffset dy="-6.82119"/>
<feGaussianBlur stdDeviation="27.2848"/>
<feComposite in2="hardAlpha" operator="out"/>
<feColorMatrix type="matrix" values="0 0 0 0 0.392157 0 0 0 0 0.454902 0 0 0 0 0.545098 0 0 0 0.05 0"/>
<feBlend mode="normal" in2="effect1_backgroundBlur_201_9514" result="effect2_dropShadow_201_9514"/>
<feBlend mode="normal" in="SourceGraphic" in2="effect2_dropShadow_201_9514" result="shape"/>
<feColorMatrix in="SourceAlpha" type="matrix" values="0 0 0 0 0 0 0 0 0 0 0 0 0 0 0 0 0 0 127 0" result="hardAlpha"/>
<feOffset dx="-12.1872" dy="12.1872"/>
<feGaussianBlur stdDeviation="6.0936"/>
<feComposite in2="hardAlpha" operator="arithmetic" k2="-1" k3="1"/>
<feColorMatrix type="matrix" values="0 0 0 0 1 0 0 0 0 1 0 0 0 0 1 0 0 0 0.1 0"/>
<feBlend mode="normal" in2="shape" result="effect3_innerShadow_201_9514"/>
<feColorMatrix in="SourceAlpha" type="matrix" values="0 0 0 0 0 0 0 0 0 0 0 0 0 0 0 0 0 0 127 0" result="hardAlpha"/>
<feOffset dx="12.1872" dy="-12.1872"/>
<feGaussianBlur stdDeviation="11.596"/>
<feComposite in2="hardAlpha" operator="arithmetic" k2="-1" k3="1"/>
<feColorMatrix type="matrix" values="0 0 0 0 0.76 0 0 0 0 0.76 0 0 0 0 0.76 0 0 0 0.03 0"/>
<feBlend mode="normal" in2="effect3_innerShadow_201_9514" result="effect4_innerShadow_201_9514"/>
</filter>
<filter id="filter1_d_201_9514" x="427.191" y="191.623" width="131.007" height="130.967" filterUnits="userSpaceOnUse" color-interpolation-filters="sRGB">
<feFlood flood-opacity="0" result="BackgroundImageFix"/>
<feColorMatrix in="SourceAlpha" type="matrix" values="0 0 0 0 0 0 0 0 0 0 0 0 0 0 0 0 0 0 127 0" result="hardAlpha"/>
<feOffset dx="5.45695" dy="16.3709"/>
<feGaussianBlur stdDeviation="16.3709"/>
<feComposite in2="hardAlpha" operator="out"/>
<feColorMatrix type="matrix" values="0 0 0 0 0.443137 0 0 0 0 0.501961 0 0 0 0 0.588235 0 0 0 0.1 0"/>
<feBlend mode="normal" in2="BackgroundImageFix" result="effect1_dropShadow_201_9514"/>
<feBlend mode="normal" in="SourceGraphic" in2="effect1_dropShadow_201_9514" result="shape"/>
</filter>
<filter id="filter2_d_201_9514" x="62.7152" y="0.629139" width="131.007" height="130.967" filterUnits="userSpaceOnUse" color-interpolation-filters="sRGB">
<feFlood flood-opacity="0" result="BackgroundImageFix"/>
<feColorMatrix in="SourceAlpha" type="matrix" values="0 0 0 0 0 0 0 0 0 0 0 0 0 0 0 0 0 0 127 0" result="hardAlpha"/>
<feOffset dx="5.45695" dy="16.3709"/>
<feGaussianBlur stdDeviation="16.3709"/>
<feComposite in2="hardAlpha" operator="out"/>
<feColorMatrix type="matrix" values="0 0 0 0 0.443137 0 0 0 0 0.501961 0 0 0 0 0.588235 0 0 0 0.1 0"/>
<feBlend mode="normal" in2="BackgroundImageFix" result="effect1_dropShadow_201_9514"/>
<feBlend mode="normal" in="SourceGraphic" in2="effect1_dropShadow_201_9514" result="shape"/>
</filter>
<filter id="filter3_d_201_9514" x="408.08" y="11.5431" width="131.007" height="130.967" filterUnits="userSpaceOnUse" color-interpolation-filters="sRGB">
<feFlood flood-opacity="0" result="BackgroundImageFix"/>
<feColorMatrix in="SourceAlpha" type="matrix" values="0 0 0 0 0 0 0 0 0 0 0 0 0 0 0 0 0 0 127 0" result="hardAlpha"/>
<feOffset dx="5.45695" dy="16.3709"/>
<feGaussianBlur stdDeviation="16.3709"/>
<feComposite in2="hardAlpha" operator="out"/>
<feColorMatrix type="matrix" values="0 0 0 0 0.443137 0 0 0 0 0.501961 0 0 0 0 0.588235 0 0 0 0.1 0"/>
<feBlend mode="normal" in2="BackgroundImageFix" result="effect1_dropShadow_201_9514"/>
<feBlend mode="normal" in="SourceGraphic" in2="effect1_dropShadow_201_9514" result="shape"/>
</filter>
<radialGradient id="paint0_radial_201_9514" cx="0" cy="0" r="1" gradientUnits="userSpaceOnUse" gradientTransform="translate(121.397 338.246) rotate(-16.5017) scale(315.62 312.757)">
<stop stop-color="#F18C53"/>
<stop offset="1" stop-color="#E83A64"/>
</radialGradient>
<radialGradient id="paint1_radial_201_9514" cx="0" cy="0" r="1" gradientUnits="userSpaceOnUse" gradientTransform="translate(84.8522 352.943) rotate(-2.75153) scale(26.8177 2.86668)">
<stop stop-color="#F18C53"/>
<stop offset="1" stop-color="#E83A64"/>
</radialGradient>
<radialGradient id="paint2_radial_201_9514" cx="0" cy="0" r="1" gradientUnits="userSpaceOnUse" gradientTransform="translate(102.789 346.191) rotate(-46.9905) scale(9.23405 10.268)">
<stop stop-color="#F18C53"/>
<stop offset="1" stop-color="#E83A64"/>
</radialGradient>
<radialGradient id="paint3_radial_201_9514" cx="0" cy="0" r="1" gradientUnits="userSpaceOnUse" gradientTransform="translate(85.9819 346.191) rotate(-46.8116) scale(9.26107 10.3023)">
<stop stop-color="#F18C53"/>
<stop offset="1" stop-color="#E83A64"/>
</radialGradient>
<radialGradient id="paint4_radial_201_9514" cx="0" cy="0" r="1" gradientUnits="userSpaceOnUse" gradientTransform="translate(102.789 362.387) rotate(-57.9245) scale(11.8612 11.8984)">
<stop stop-color="#F18C53"/>
<stop offset="1" stop-color="#E83A64"/>
</radialGradient>
<radialGradient id="paint5_radial_201_9514" cx="0" cy="0" r="1" gradientUnits="userSpaceOnUse" gradientTransform="translate(85.9819 362.387) rotate(-57.7629) scale(11.8822 11.9519)">
<stop stop-color="#F18C53"/>
<stop offset="1" stop-color="#E83A64"/>
</radialGradient>
<clipPath id="clip0_201_9514">
<rect x="184.191" y="82.4834" width="256.635" height="552.517" rx="32.7417" fill="white"/>
</clipPath>
<clipPath id="clip1_201_9514">
<rect width="279.174" height="41.69" fill="white" transform="translate(184.191 107.798)"/>
</clipPath>
</defs>
</svg>
