<svg width="292" height="245" viewBox="0 0 292 245" fill="none" xmlns="http://www.w3.org/2000/svg">
<rect x="33" y="10" width="218" height="218" rx="109" fill="#F9FAFB"/>
<path d="M129.377 143.016C129.347 143.139 129.316 143.294 129.316 143.448C125.495 133.009 115.806 117.135 99.3303 116.178C99.3303 116.178 100.492 110.649 109.478 106.511C109.234 107.499 109.02 108.364 108.684 109.692C108.317 111.236 108.286 113.058 108.623 114.633C108.684 114.881 108.775 115.653 109.142 115.653C109.509 115.653 109.662 114.819 109.692 114.633C110.181 112.533 110.457 111.545 110.946 109.476C111.221 108.302 111.312 107.005 111.19 105.77C113.299 104.936 115.745 104.195 118.649 103.577C117.915 107.252 117.181 111.02 116.448 114.664C116.142 116.239 116.173 118.031 116.57 119.606C116.631 119.853 116.784 120.625 117.12 120.625C117.456 120.625 117.609 119.76 117.64 119.606C118.465 115.467 119.321 111.113 120.146 106.943C120.36 105.801 120.421 104.504 120.269 103.299C121.063 103.145 121.858 103.021 122.714 102.898C124.578 102.62 126.229 102.342 127.727 102.064C126.626 107.685 125.251 114.788 124.212 120.1C124.059 120.903 123.906 121.737 123.723 122.54C123.417 124.115 123.448 125.906 123.845 127.481C123.906 127.728 124.059 128.5 124.395 128.5C124.762 128.5 124.884 127.636 124.915 127.481C126.046 121.644 127.635 113.583 128.766 107.777C128.919 106.974 129.072 106.14 129.255 105.337C129.469 104.195 129.53 102.959 129.377 101.755C132.801 100.952 135.43 99.9637 138.058 98.5122C137.294 102.465 136.5 106.542 135.827 109.877L135.888 109.723L130.692 136.437C130.264 138.537 129.836 140.761 129.377 143.016ZM144.753 89.7721C144.386 89.6486 142.643 92.2737 140.993 93.9723L140.962 94.0032C141.115 92.6752 141.023 91.2854 140.718 90.0192C140.657 89.7721 140.504 89 140.168 89C139.801 89 139.679 89.8647 139.648 90.0192C139.312 91.6869 138.945 93.5399 138.578 95.4547C131.915 99.1607 125.373 99.2843 117.212 101.137C100.125 105.06 97.4351 114.726 97.0072 117.691C96.946 118.154 97.2823 118.556 97.7713 118.556C114.736 118.587 125.648 137.024 129.591 148.204C129.989 149.192 130.447 149.347 130.661 148.173C133.718 132.7 136.683 117.197 139.679 101.693C140.015 100.025 140.32 98.3269 140.657 96.6592C142.735 94.9297 144.447 92.4281 144.783 91.4707C144.905 91.1619 145.364 89.9574 144.753 89.7721Z" fill="#17181B"/>
<path d="M154.198 105.801C156.032 105.801 156.949 106.727 156.949 106.727L156.154 107.685C156.154 107.685 155.451 107.067 154.228 107.067C152.333 107.067 151.141 108.642 151.141 110.279C151.141 111.607 152.027 112.348 153.189 112.348C154.32 112.348 155.206 111.545 155.206 111.545L155.359 110.711H154.198L154.442 109.538H156.796L156.032 113.491H154.87L154.931 113.12C154.962 112.966 154.992 112.811 154.992 112.811H154.962C154.962 112.811 154.198 113.614 152.822 113.614C151.11 113.614 149.674 112.379 149.674 110.372C149.735 107.87 151.722 105.801 154.198 105.801ZM158.08 113.429L159.088 111.514H161.687L161.962 113.429H163.307L162.176 105.924H160.647L156.613 113.429H158.08ZM159.608 110.402L160.678 108.395C160.892 107.994 161.167 107.221 161.167 107.221H161.198C161.198 107.221 161.228 107.963 161.289 108.395L161.564 110.402H159.608ZM164.224 113.429H168.778L169.023 112.255H165.783L167.005 105.924H165.66L164.224 113.429ZM169.787 113.429H174.402L174.616 112.255H171.346L171.743 110.248H174.25L174.494 109.074H171.988L172.354 107.098H175.442L175.686 105.924H171.254L169.787 113.429ZM175.808 113.429H177.153L177.673 110.619H179.018L179.966 113.429H181.402L180.394 110.65C180.302 110.372 180.21 110.279 180.21 110.279V110.248C181.341 109.877 181.922 108.766 181.922 107.746C181.922 106.974 181.555 106.388 180.913 106.11C180.607 105.986 180.241 105.924 179.843 105.924H177.215L175.808 113.429ZM177.918 109.445L178.376 107.098H179.599C180.21 107.098 180.577 107.407 180.577 107.963C180.577 108.889 179.904 109.445 179.11 109.445H177.918ZM182.625 113.429H183.97L185.406 105.924H184.062L182.625 113.429ZM185.834 113.429H190.45L190.664 112.255H187.393L187.791 110.248H190.297L190.542 109.074H188.035L188.402 107.098H191.489L191.734 105.924H187.302L185.834 113.429Z" fill="#17181B"/>
<path d="M146.984 131.496H150.132L151.08 126.431H155.726L154.748 131.496H157.866L160.342 118.586H157.224L156.246 123.744H151.599L152.608 118.586H149.49L146.984 131.496Z" fill="#DD1037"/>
<path d="M159.394 131.496H162.726L164.01 128.778H167.983L168.258 131.496H171.376L169.603 118.617H166.027L159.394 131.496ZM165.232 126.245L166.455 123.744C166.852 122.941 167.372 121.52 167.372 121.52H167.403C167.403 121.52 167.433 122.941 167.525 123.744L167.769 126.245H165.232Z" fill="#EA5423"/>
<path d="M172.813 131.496H175.931L176.756 127.141H178.315L179.752 131.496H183.114L181.463 127.048C181.28 126.493 181.127 126.276 181.127 126.276V126.245C183.083 125.473 183.786 123.404 183.786 121.891C183.786 120.439 183.083 119.42 181.891 118.926C181.341 118.71 180.699 118.617 180.027 118.617H175.289L172.813 131.496ZM177.276 124.423L177.887 121.273H179.293C180.088 121.273 180.608 121.675 180.608 122.416C180.608 123.682 179.721 124.392 178.621 124.392H177.276V124.423Z" fill="#3EAD5A"/>
<path d="M184.948 131.496H188.035L188.983 126.709H192.865L193.354 123.991H189.503L190.022 121.304H194.699L195.188 118.586H187.394L184.948 131.496Z" fill="#0092D2"/>
<path d="M193.018 131.496H196.35L197.634 128.778H201.607L201.882 131.496H205L203.227 118.617H199.651L193.018 131.496ZM198.856 126.245L200.079 123.744C200.476 122.941 200.996 121.52 200.996 121.52H201.027C201.027 121.52 201.057 122.941 201.149 123.744L201.393 126.245H198.856Z" fill="#F9B226"/>
<rect x="44.5" y="21.5" width="195" height="195" rx="97.5" stroke="white" stroke-width="3"/>
<g filter="url(#filter0_d_377_18859)">
<circle cx="240" cy="177" r="24" fill="white"/>
</g>
<path d="M244.206 166.333C245.721 166.333 247.235 166.333 248.749 166.334C248.75 166.675 248.747 167.016 248.751 167.357C248.366 167.374 247.973 167.417 247.618 167.578C247.259 167.739 246.958 168.033 246.803 168.397C244.962 172.725 243.122 177.054 241.282 181.383C241.251 181.454 241.225 181.527 241.188 181.596C240.529 181.588 239.871 181.595 239.212 181.593C238.921 181.015 238.635 180.435 238.342 179.859C238.006 180.759 237.668 181.658 237.332 182.558C239.505 182.559 241.678 182.558 243.85 182.559C244.248 182.564 244.657 182.547 245.03 182.392C245.648 182.143 246.14 181.663 246.541 181.143C247.025 180.512 247.392 179.802 247.719 179.08C248.085 179.077 248.452 179.082 248.819 179.081C248.123 180.566 247.425 182.05 246.723 183.532C241.717 183.532 236.711 183.532 231.705 183.532C231.827 183.213 231.943 182.893 232.073 182.578C232.081 182.545 232.122 182.553 232.146 182.55C232.771 182.546 233.4 182.521 234.014 182.391C234.333 182.316 234.663 182.217 234.909 181.989C235.039 181.865 235.079 181.684 235.122 181.517C235.713 179.935 236.305 178.353 236.897 176.771C235.647 174.106 234.392 171.444 233.141 168.78C233.04 168.547 232.907 168.316 232.698 168.164C232.265 167.84 231.703 167.799 231.181 167.778C231.181 167.396 231.181 167.015 231.181 166.633C232.939 166.632 234.696 166.632 236.454 166.632C236.454 167.014 236.455 167.396 236.454 167.778C236.225 167.793 235.982 167.789 235.774 167.902C235.671 167.951 235.611 168.073 235.637 168.184C235.67 168.367 235.814 168.497 235.887 168.661C236.629 170.26 237.371 171.859 238.116 173.457C238.489 172.414 238.862 171.371 239.236 170.329C239.291 170.184 239.311 170.016 239.248 169.871C239.199 169.756 239.087 169.684 238.977 169.636C238.763 169.548 238.527 169.549 238.3 169.533C238.416 169.21 238.533 168.888 238.653 168.568C238.681 168.55 238.719 168.564 238.751 168.559C240.535 168.56 242.318 168.559 244.102 168.56C243.979 168.884 243.856 169.207 243.734 169.532C243.305 169.551 242.862 169.562 242.459 169.73C242.274 169.807 242.1 169.926 241.991 170.096C241.915 170.222 241.868 170.362 241.817 170.498C241.072 172.53 240.32 174.56 239.583 176.595C239.991 177.518 240.417 178.432 240.833 179.351C242.345 175.781 243.856 172.211 245.369 168.642C245.472 168.427 245.638 168.231 245.651 167.984C245.663 167.791 245.52 167.624 245.354 167.545C244.996 167.38 244.593 167.372 244.206 167.358C244.206 167.016 244.206 166.675 244.206 166.333ZM246.955 185.555C247.433 186.049 247.906 186.547 248.379 187.045C248.378 186.582 248.381 186.118 248.38 185.655C248.462 185.655 248.544 185.654 248.626 185.653C248.626 186.315 248.626 186.976 248.626 187.638C248.148 187.146 247.677 186.647 247.202 186.153C247.203 186.619 247.201 187.086 247.201 187.552C247.119 187.553 247.037 187.553 246.955 187.553C246.955 186.887 246.955 186.221 246.955 185.555ZM233.062 185.623C233.588 185.542 234.144 185.954 234.191 186.49C234.235 186.797 234.116 187.117 233.891 187.328C233.522 187.689 232.858 187.683 232.5 187.308C232.306 187.121 232.196 186.85 232.207 186.58C232.213 186.11 232.601 185.69 233.062 185.623ZM233.062 185.866C232.756 185.916 232.507 186.185 232.464 186.489C232.406 186.835 232.619 187.208 232.953 187.321C233.246 187.431 233.602 187.327 233.789 187.077C234.032 186.773 233.991 186.282 233.692 186.029C233.525 185.876 233.282 185.826 233.062 185.866ZM236.859 185.725C237.129 185.523 237.569 185.607 237.724 185.912C237.659 185.949 237.594 185.986 237.529 186.022C237.413 185.84 237.128 185.795 236.971 185.95C236.904 185.999 236.912 186.088 236.919 186.161C236.938 186.256 237.039 186.297 237.114 186.342C237.307 186.443 237.539 186.502 237.675 186.686C237.826 186.892 237.801 187.198 237.636 187.388C237.464 187.597 237.148 187.647 236.907 187.538C236.722 187.447 236.608 187.253 236.571 187.055C236.653 187.036 236.737 187.018 236.82 186.999C236.828 187.18 236.968 187.362 237.159 187.366C237.417 187.394 237.621 187.059 237.471 186.845C237.311 186.627 237.003 186.624 236.818 186.436C236.601 186.259 236.623 185.876 236.859 185.725ZM245.651 185.622C245.995 185.579 246.351 185.738 246.563 186.01C246.868 186.392 246.819 187.001 246.457 187.329C246.25 187.533 245.946 187.617 245.661 187.587C245.379 187.568 245.115 187.41 244.952 187.181C244.777 186.937 244.731 186.611 244.814 186.324C244.923 185.953 245.269 185.67 245.651 185.622ZM245.608 185.869C245.229 185.934 244.957 186.338 245.024 186.715C245.066 187.077 245.409 187.371 245.773 187.365C246.02 187.369 246.257 187.228 246.39 187.023C246.593 186.729 246.54 186.294 246.278 186.052C246.107 185.879 245.843 185.82 245.608 185.869ZM231.379 185.654C231.457 185.653 231.535 185.653 231.614 185.654C231.614 186.214 231.614 186.775 231.614 187.336C231.809 187.337 232.003 187.336 232.198 187.336C232.199 187.408 232.199 187.48 232.198 187.553C231.925 187.553 231.652 187.553 231.379 187.553C231.379 186.92 231.379 186.287 231.379 185.654ZM234.381 185.655C234.464 185.655 234.547 185.655 234.63 185.655C234.631 186.029 234.629 186.403 234.631 186.776C234.635 186.941 234.655 187.121 234.772 187.248C234.956 187.429 235.319 187.403 235.448 187.168C235.514 187.058 235.533 186.927 235.531 186.801C235.529 186.419 235.529 186.037 235.529 185.655C235.613 185.655 235.696 185.655 235.779 185.655C235.779 186.045 235.779 186.435 235.778 186.824C235.779 187.001 235.748 187.188 235.635 187.331C235.392 187.667 234.828 187.687 234.562 187.368C234.435 187.236 234.383 187.049 234.381 186.869C234.38 186.465 234.381 186.06 234.381 185.655ZM236.085 185.654C236.167 185.653 236.249 185.653 236.331 185.654C236.331 186.287 236.331 186.92 236.331 187.553C236.249 187.553 236.167 187.553 236.085 187.552C236.086 186.92 236.086 186.287 236.085 185.654ZM238.545 185.655C238.634 185.653 238.725 185.653 238.815 185.653C239.003 186.115 239.189 186.578 239.374 187.041C239.559 186.579 239.749 186.12 239.93 185.657C240.023 185.649 240.115 185.655 240.208 185.653C239.932 186.325 239.655 186.996 239.377 187.667C239.094 186.999 238.821 186.326 238.545 185.655ZM240.321 185.653C240.402 185.654 240.484 185.655 240.566 185.655C240.569 186.023 240.566 186.391 240.569 186.759C240.574 186.934 240.588 187.132 240.721 187.261C240.875 187.393 241.12 187.401 241.285 187.284C241.38 187.216 241.433 187.103 241.454 186.99C241.486 186.796 241.475 186.599 241.477 186.403C241.478 186.154 241.478 185.905 241.478 185.655C241.556 185.655 241.635 185.655 241.714 185.655C241.718 186.001 241.715 186.346 241.716 186.692C241.721 186.907 241.714 187.14 241.584 187.321C241.355 187.65 240.829 187.686 240.54 187.418C240.395 187.284 240.323 187.087 240.321 186.892C240.319 186.479 240.321 186.066 240.321 185.653ZM242.022 185.655C242.108 185.655 242.193 185.654 242.278 185.653C242.278 186.286 242.278 186.919 242.278 187.553C242.193 187.553 242.107 187.553 242.021 187.553C242.02 186.92 242.023 186.287 242.022 185.655ZM242.432 185.655C243.197 185.656 243.963 185.654 244.729 185.654C244.728 185.73 244.728 185.805 244.729 185.881C244.582 185.882 244.435 185.881 244.288 185.882C244.288 186.439 244.288 186.996 244.288 187.553C244.203 187.553 244.117 187.553 244.032 187.553C244.032 186.996 244.034 186.439 244.031 185.882C243.731 185.882 243.43 185.881 243.129 185.882C243.129 186.439 243.129 186.996 243.129 187.553C243.051 187.553 242.972 187.553 242.894 187.553C242.894 186.996 242.894 186.439 242.894 185.882C242.74 185.881 242.586 185.882 242.432 185.881C242.431 185.806 242.431 185.73 242.432 185.655Z" fill="black"/>
<g filter="url(#filter1_d_377_18859)">
<circle cx="44" cy="39" r="24" fill="white"/>
</g>
<path fill-rule="evenodd" clip-rule="evenodd" d="M53.3359 43.6488C53.3359 47.0834 50.5495 49.8698 47.1149 49.8698C46.1254 49.8698 45.1929 49.6425 44.3513 49.2215C43.521 49.6311 42.577 49.8698 41.5991 49.8698C38.1643 49.8698 35.3779 47.0834 35.3779 43.6488C35.3779 40.2141 38.1643 37.4278 41.5989 37.4278C42.5884 37.4278 43.521 37.6552 44.3511 38.0646C45.1815 37.6552 46.1254 37.4278 47.1149 37.4278C50.5495 37.4278 53.3359 40.2141 53.3359 43.6488ZM52.1077 43.6488C52.1077 40.8966 49.8671 38.6561 47.1149 38.6561C46.5918 38.6561 46.08 38.7357 45.6137 38.8836C46.569 39.6796 47.2628 40.7487 47.6039 41.977H46.3187C45.9577 40.9516 45.2707 40.0727 44.3627 39.4749C43.4642 40.0662 42.7817 40.9421 42.4179 41.977H41.1328C41.4693 40.7657 42.1628 39.6838 43.123 38.8722C42.633 38.7212 42.1231 38.6445 41.6103 38.6447C38.8581 38.6447 36.6177 40.8852 36.6177 43.6374C36.6177 46.3896 38.8581 48.6302 41.6103 48.6302C42.1335 48.6302 42.6338 48.5506 43.1002 48.4027C41.8606 47.3679 41.0532 45.8438 40.9281 44.1379H43.885V45.3547L42.4405 45.3775C42.8159 46.3784 43.487 47.2201 44.3627 47.8C45.2383 47.2199 45.9093 46.3784 46.2847 45.3775L44.8403 45.3547V44.1379H47.7973C47.6608 45.8438 46.842 47.3565 45.6023 48.3913C46.08 48.5393 46.5918 48.6302 47.1149 48.6302C49.8785 48.6416 52.1077 46.4124 52.1077 43.6488Z" fill="black"/>
<path d="M52.3029 29.8362L52.2647 29.8489C52.116 29.5261 51.9036 29.269 51.6275 29.0779C51.3557 28.8868 51.0138 28.7913 50.6018 28.7913C50.3724 28.7913 50.1537 28.8401 49.9455 28.9378C49.7373 29.0312 49.5547 29.165 49.3976 29.3392C49.2446 29.509 49.1214 29.7151 49.028 29.9573C48.9346 30.1993 48.8878 30.4669 48.8878 30.76C48.8878 31.053 48.9346 31.3206 49.028 31.5627C49.1215 31.8048 49.2447 32.013 49.3976 32.1872C49.5547 32.3571 49.7373 32.4887 49.9453 32.5822C50.1536 32.6757 50.3724 32.7224 50.6018 32.7224C51.0095 32.7224 51.3408 32.6587 51.5956 32.5313C51.8547 32.3995 52.0735 32.1998 52.252 31.9322L52.2901 31.945L52.2774 32.3527C52.1797 32.4547 52.0671 32.546 51.9397 32.6267C51.8124 32.7032 51.6744 32.7691 51.5256 32.8244C51.3812 32.8752 51.2305 32.9134 51.0733 32.939C50.9161 32.9687 50.7589 32.9835 50.6018 32.9835C50.2747 32.9835 49.9625 32.9305 49.6653 32.8244C49.3679 32.7181 49.1066 32.5694 48.8815 32.3783C48.6563 32.1829 48.4779 31.9493 48.3463 31.6775C48.2146 31.4014 48.1488 31.0956 48.1488 30.76C48.1488 30.4244 48.2147 30.1207 48.3464 29.8487C48.478 29.5727 48.6563 29.337 48.8815 29.1417C49.1066 28.9463 49.3679 28.7976 49.6653 28.6956C49.9625 28.5895 50.2747 28.5365 50.6016 28.5365C50.7589 28.5365 50.9161 28.5491 51.0733 28.5745C51.2305 28.6001 51.3812 28.6404 51.5256 28.6956C51.6743 28.7466 51.8123 28.8125 51.9397 28.8933C52.0671 28.9697 52.1797 29.0588 52.2774 29.1608L52.3029 29.8362ZM38.2628 31.0532C38.2161 31.0744 38.1716 31.102 38.1291 31.1359C38.0867 31.1698 38.0655 31.2166 38.0655 31.2761V32.0599C37.8614 32.3529 37.6001 32.5802 37.2815 32.7417C36.963 32.903 36.6105 32.9837 36.224 32.9837C35.8969 32.9837 35.5847 32.9306 35.2873 32.8244C34.99 32.7182 34.7288 32.5695 34.5037 32.3783C34.2786 32.1829 34.1002 31.9493 33.9685 31.6776C33.8368 31.4015 33.771 31.0956 33.771 30.76C33.771 30.4245 33.8369 30.1208 33.9687 29.8489C34.1002 29.5729 34.2786 29.3371 34.5037 29.1417C34.7288 28.9463 34.99 28.7976 35.2873 28.6958C35.5847 28.5896 35.8969 28.5365 36.224 28.5365C36.3811 28.5365 36.5383 28.5492 36.6954 28.5747C36.8526 28.6001 37.0034 28.6405 37.1477 28.6958C37.2964 28.7467 37.4345 28.8125 37.5619 28.8933C37.6894 28.9698 37.8019 29.0589 37.8996 29.1608L37.9253 29.8362L37.8869 29.8489C37.7384 29.5262 37.526 29.2692 37.2499 29.078C36.9779 28.8868 36.636 28.7913 36.224 28.7913C35.9946 28.7913 35.7759 28.8401 35.5677 28.9378C35.3597 29.0313 35.1771 29.1651 35.02 29.3392C34.867 29.5091 34.7437 29.7152 34.6503 29.9573C34.5568 30.1994 34.5101 30.467 34.5101 30.76C34.5101 31.0488 34.5547 31.3142 34.6441 31.5564C34.7374 31.7986 34.8605 32.0067 35.0134 32.1808C35.1707 32.3507 35.3533 32.4845 35.5614 32.5822C35.7695 32.6757 35.9904 32.7224 36.224 32.7224C36.6658 32.7224 37.0438 32.6375 37.3581 32.4676V31.2761C37.3581 31.2167 37.3347 31.17 37.2881 31.1359C37.2456 31.102 37.2032 31.0743 37.1607 31.053L37.1664 31.0212C37.1877 31.0251 37.2259 31.0293 37.2812 31.0339C37.3365 31.0378 37.3938 31.042 37.4532 31.0466H38.0011C38.0522 31.0427 38.101 31.0385 38.1477 31.0339C38.1944 31.03 38.2305 31.0257 38.2559 31.0212L38.2628 31.0532ZM42.8777 28.6701C42.8353 28.6914 42.7928 28.719 42.7504 28.7531C42.7079 28.787 42.6845 28.8507 42.6802 28.9442C42.6763 29.0461 42.6721 29.1757 42.6675 29.3328C42.6675 29.4858 42.6656 29.66 42.6618 29.8554C42.6618 30.0508 42.6598 30.2631 42.6559 30.4925V31.2061C42.652 31.4821 42.618 31.7179 42.5539 31.9133C42.4903 32.1087 42.4053 32.2722 42.2991 32.4038C42.1972 32.5356 42.0825 32.6396 41.9551 32.716C41.8319 32.7925 41.7087 32.8499 41.5855 32.8881C41.4666 32.9305 41.354 32.956 41.2478 32.9646C41.1416 32.9773 41.0588 32.9837 40.9993 32.9837C40.7571 32.9837 40.5235 32.9519 40.2984 32.8882C40.0733 32.8287 39.8758 32.731 39.7059 32.5951C39.536 32.4591 39.4001 32.2828 39.2982 32.0663C39.1962 31.8496 39.1452 31.5862 39.1452 31.2761V29.8935C39.1452 29.6897 39.1433 29.5071 39.1394 29.3457C39.1394 29.18 39.1374 29.0461 39.1335 28.9442C39.1297 28.8507 39.1064 28.7871 39.0635 28.7532C39.0211 28.7192 38.9786 28.6915 38.9362 28.6701L38.9419 28.6383C38.9631 28.6422 38.9972 28.6465 39.0441 28.651C39.095 28.655 39.1459 28.6592 39.1968 28.6638C39.2521 28.6638 39.3052 28.6657 39.356 28.6696H39.5855C39.6365 28.6657 39.6896 28.6638 39.7448 28.6638C39.8 28.6599 39.851 28.6556 39.8977 28.651C39.9486 28.6471 39.9847 28.6429 40.0059 28.6383L40.0118 28.6701C39.9651 28.6914 39.9205 28.719 39.8779 28.7531C39.8397 28.787 39.8185 28.8507 39.8143 28.9442C39.8104 29.0461 39.8061 29.1799 39.8016 29.3455V31.2761C39.8016 31.7391 39.9099 32.0811 40.1265 32.3019C40.3432 32.5228 40.6638 32.6333 41.0885 32.6333C41.2117 32.6333 41.3519 32.6184 41.509 32.5886C41.6662 32.5546 41.8128 32.4867 41.9487 32.3847C42.0889 32.2827 42.2057 32.1383 42.2991 31.9515C42.3969 31.7646 42.4457 31.5161 42.4457 31.2061C42.4457 30.8705 42.4438 30.5838 42.4398 30.3459C42.4398 30.1038 42.4379 29.8978 42.434 29.7278C42.434 29.5536 42.432 29.405 42.4281 29.2819C42.4243 29.1587 42.4201 29.0461 42.4154 28.9442C42.4116 28.8507 42.3883 28.787 42.3454 28.7531C42.3029 28.7191 42.2605 28.6915 42.2181 28.6701L42.2238 28.6383C42.2705 28.6468 42.3236 28.6553 42.3831 28.6639C42.4426 28.6677 42.4979 28.6696 42.5489 28.6696C42.5955 28.6696 42.6485 28.6677 42.708 28.6639C42.7717 28.6555 42.8269 28.6469 42.8737 28.6383L42.8777 28.6701ZM47.501 29.8362L47.4628 29.8489C47.3141 29.5261 47.1017 29.269 46.8256 29.0779C46.5538 28.8868 46.2119 28.7913 45.7998 28.7913C45.5705 28.7913 45.3518 28.8401 45.1436 28.9378C44.9355 29.0312 44.7528 29.165 44.5957 29.3392C44.4427 29.509 44.3195 29.7151 44.2262 29.9573C44.1327 30.1993 44.086 30.4669 44.086 30.76C44.086 31.053 44.1327 31.3206 44.2262 31.5627C44.3195 31.8048 44.4427 32.013 44.5957 32.1872C44.7528 32.3571 44.9354 32.4887 45.1435 32.5822C45.3517 32.6757 45.5705 32.7224 45.7998 32.7224C46.2076 32.7224 46.5389 32.6587 46.7938 32.5313C47.0529 32.3995 47.2716 32.1998 47.4501 31.9322L47.4883 31.945L47.4756 32.3527C47.3778 32.4547 47.2653 32.546 47.1379 32.6267C47.0105 32.7032 46.8725 32.7691 46.7238 32.8244C46.5794 32.8752 46.4286 32.9134 46.2715 32.939C46.1142 32.9687 45.9571 32.9835 45.7999 32.9835C45.4727 32.9835 45.1605 32.9305 44.8632 32.8244C44.5659 32.7181 44.3047 32.5694 44.0796 32.3783C43.8545 32.1829 43.6761 31.9493 43.5444 31.6775C43.4126 31.4014 43.3467 31.0956 43.3467 30.76C43.3467 30.4244 43.4126 30.1207 43.5444 29.8487C43.6762 29.5727 43.8546 29.337 44.0796 29.1417C44.3047 28.9463 44.5659 28.7976 44.8632 28.6956C45.1606 28.5895 45.4728 28.5365 45.7999 28.5365C45.9571 28.5365 46.1142 28.5491 46.2713 28.5745C46.4286 28.6001 46.5793 28.6404 46.7236 28.6956C46.8723 28.7466 47.0104 28.8125 47.1379 28.8933C47.2653 28.9697 47.3778 29.0588 47.4756 29.1608L47.501 29.8362ZM54.2232 32.8752C54.202 32.8714 54.1659 32.8672 54.115 32.8626C54.0683 32.8626 54.0174 32.8606 53.9621 32.8567C53.9068 32.8567 53.8537 32.8548 53.8028 32.851H53.4207C53.3696 32.8548 53.3186 32.859 53.2676 32.8636C53.2209 32.8675 53.1848 32.8718 53.1594 32.8763L53.1535 32.8509C53.1959 32.8297 53.2384 32.802 53.2808 32.768C53.3234 32.734 53.3467 32.6703 53.351 32.5768C53.3549 32.4749 53.3569 32.3687 53.3569 32.2582C53.3608 32.1478 53.3627 32.0225 53.3627 31.8823V29.6333C53.3627 29.4931 53.3608 29.3698 53.3569 29.2636C53.3569 29.1532 53.3549 29.047 53.351 28.9452C53.3471 28.8517 53.3237 28.788 53.281 28.7541C53.2385 28.7158 53.1961 28.686 53.1537 28.6648L53.1594 28.6393C53.1848 28.6478 53.2209 28.6542 53.2676 28.6584C53.3186 28.6584 53.3696 28.6604 53.4205 28.6643C53.4758 28.6682 53.5289 28.6701 53.5798 28.6701H53.8028C53.8537 28.6662 53.9067 28.6643 53.9619 28.6643C54.0173 28.6604 54.0683 28.6561 54.115 28.6515C54.1659 28.6476 54.202 28.6434 54.2232 28.6388L54.2291 28.6644C54.1824 28.6857 54.1378 28.7154 54.0952 28.7536C54.0571 28.7875 54.0358 28.8512 54.0316 28.9445C54.0277 29.0466 54.0234 29.1529 54.0189 29.2633V32.2579C54.0228 32.3682 54.027 32.4744 54.0316 32.5763C54.0354 32.6698 54.0566 32.7335 54.0952 32.7675C54.1377 32.8014 54.1823 32.829 54.2291 32.8504L54.2232 32.8752Z" fill="black"/>
<g filter="url(#filter2_d_377_18859)">
<circle cx="231" cy="36" r="24" fill="white"/>
</g>
<path d="M236.336 26.8488C238.438 26.8488 240.142 35.7159 240.142 46.6667H243.209C243.209 34.877 240.115 25.3333 236.327 25.3333C234.162 25.3333 232.25 28.1928 230.987 32.685C229.724 28.1928 227.811 25.3333 225.665 25.3333C221.876 25.3333 218.791 34.8679 218.791 46.6577H221.858C221.858 35.7068 223.545 26.8488 225.647 26.8488C227.748 26.8488 229.453 35.0393 229.453 45.1422H232.502C232.502 35.0393 234.216 26.8488 236.318 26.8488" fill="#FFCC00"/>
<g filter="url(#filter3_d_377_18859)">
<circle cx="48" cy="185" r="24" fill="white"/>
</g>
<path d="M53.3368 177.334C53.3874 177.212 53.2862 177.096 53.2862 177.096C53.2862 177.096 52.4907 175.751 49.6921 175.447C48.1879 175.288 46.1486 175.592 44.7167 176.365C42.1133 177.761 41.7228 180.068 41.7228 180.068C41.7084 180.126 41.6867 180.299 41.7445 180.372C41.8024 180.444 41.8891 180.444 41.9976 180.408C42.916 180.097 45.6424 179.193 47.3635 178.737C49.815 178.087 51.8326 177.689 53.1199 177.472C53.2211 177.45 53.3007 177.421 53.3368 177.334Z" fill="#FAAF18"/>
<path d="M56.1357 188.196C54.6677 191.494 51.8545 193.786 48.1592 193.837C45.4762 193.873 43.1043 192.955 41.3904 191.349L40.3562 191.79V190.185C39.2281 188.666 38.57 186.736 38.57 184.552C38.57 178.947 42.8584 174.536 48.8462 174.536C49.8225 174.536 50.7047 174.688 51.37 174.84C50.3431 174.514 49.3235 174.333 48.1881 174.333C41.7664 174.333 37.4419 179.54 37.4419 184.913C37.4419 190.764 42.034 195.667 48.0579 195.667C53.8143 195.667 56.9167 191.61 57.9147 189.165L56.1357 188.196Z" fill="#185494"/>
<path d="M54.646 187.039C55.4921 186.945 56.0779 186.605 56.3961 186.287C56.6853 185.998 56.7576 185.607 56.7576 185.311C56.7721 184.877 56.7576 183.518 56.7576 183.518L54.5231 184.002V184.523C54.5303 184.87 54.6966 185.058 55.0582 184.993C55.1739 184.971 55.3475 184.92 55.3475 184.92V185.347C55.3475 185.333 55.3836 185.586 54.8196 185.694C54.0819 185.81 53.7493 185.354 53.7421 184.552C53.7565 183.691 54.241 183.199 54.834 183.062C55.4993 182.91 55.8754 183.069 56.0923 183.098C56.83 183.207 57.0397 182.1 56.3671 181.84C55.8682 181.637 55.2245 181.601 54.6098 181.724C53.7854 181.89 52.1728 182.577 52.1656 184.812C52.1583 186.591 53.4673 187.17 54.646 187.039Z" fill="#ED1D21"/>
<path d="M47.3779 188.941C47.3779 188.941 48.0649 188.703 48.1228 188.688C48.6724 188.5 48.8749 188.167 48.8749 187.603C48.8676 186.989 48.8676 185.788 48.8676 185.788L50.4658 187.625C50.7262 187.893 51.0516 187.914 51.3481 187.828C51.6518 187.741 51.9122 187.459 51.9194 187.061V182.498C51.9194 182.498 51.5072 182.585 51.1673 182.679C50.7768 182.787 50.4731 183.04 50.4731 183.706V185.289C50.4731 185.289 49.5619 184.154 48.9761 183.568C48.6652 183.257 48.1445 183.445 48.1445 183.445L47.3779 183.677V188.941Z" fill="#EE1C23"/>
<path d="M46.8937 183.792C46.8937 183.792 46.4164 183.93 46.0259 184.074C45.5196 184.255 45.2231 184.552 45.2231 185.318V189.693C45.2231 189.693 45.6643 189.541 46.0837 189.382C46.6695 189.158 46.8937 188.854 46.8937 188.24V183.792Z" fill="#ED1C23"/>
<path d="M44.5145 184.834C44.0734 184.631 43.6973 184.855 43.5382 185.101L42.1859 187.408V185.55L40.5805 186.208L40.5732 191.458L41.7014 190.988C41.7014 190.988 41.9256 190.923 42.0557 190.713C42.1787 190.518 42.1714 190.2 42.1714 190.2V188.536L43.4297 189.874C43.7045 190.163 44.2108 190.308 44.6591 189.946C45.0641 189.621 44.999 189.064 44.7748 188.811L43.6322 187.661C43.6322 187.661 44.6374 186.07 44.8038 185.81C45.0207 185.448 44.9122 185.014 44.5145 184.834Z" fill="#EE1D23"/>
<path d="M43.8853 191.009C43.8275 191.147 43.9649 191.284 43.9649 191.284C44.5434 192.015 47.1251 192.94 49.931 192.261C54.2121 191.226 55.116 188.196 55.2173 187.77C55.239 187.683 55.2534 187.546 55.1739 187.459C55.1088 187.386 55.0076 187.386 54.8774 187.415C51.898 188.117 46.9588 189.628 44.1023 190.85C43.9793 190.901 43.9287 190.923 43.8853 191.009Z" fill="#FAAF18"/>
<path d="M41.3468 184.125C41.3396 183.836 41.1154 183.677 40.7321 183.872V184.805C40.7321 184.805 40.8551 184.747 40.9491 184.704C41.1805 184.595 41.3541 184.407 41.3468 184.125ZM40.7249 183.279C40.7972 183.25 40.8478 183.228 40.9057 183.199C41.1154 183.098 41.2673 182.903 41.2673 182.657C41.2673 182.375 41.0359 182.303 40.7249 182.462V183.279ZM42.3737 183.988C42.3882 184.725 41.8603 185.116 41.166 185.398L39.7559 185.998V182.172C39.7559 182.172 40.6454 181.811 40.9346 181.702C41.759 181.399 42.2435 181.767 42.2435 182.317C42.2435 182.686 42.0844 182.997 41.7446 183.272C42.0772 183.33 42.3665 183.604 42.3737 183.988Z" fill="#EE1C23"/>
<path d="M45.0494 180.762C45.0494 180.437 44.8252 180.357 44.5576 180.43C44.3407 180.495 44.0875 180.589 44.0875 180.589V182.968C44.0875 183.207 44.0514 183.503 43.7549 183.575C43.5307 183.633 43.4222 183.481 43.4222 183.243V181.297C43.4222 180.972 43.1981 180.878 42.9305 180.965C42.6268 181.066 42.4532 181.138 42.4532 181.138V183.496C42.446 184.284 42.9956 184.682 43.82 184.436C44.5504 184.219 45.0421 183.807 45.0494 182.758V180.762Z" fill="#ED1D1F"/>
<path d="M52.9031 181.746C53.1128 181.702 53.243 181.551 53.243 181.29V180.878L52.1004 181.131V180.459C52.1004 180.459 52.6645 180.343 52.8163 180.307C53.0116 180.263 53.1128 180.155 53.1128 179.931V179.54L52.1004 179.757V179.222L52.9103 179.056C53.1345 179.012 53.2068 178.86 53.2068 178.651V178.246C52.7006 178.332 51.7388 178.528 51.1386 178.665L51.1313 182.151C51.1313 182.151 52.2739 181.883 52.9031 181.746Z" fill="#EE1C23"/>
<path d="M46.2788 181.601C46.2788 181.601 46.8429 181.305 46.8429 180.842C46.8356 180.444 46.474 180.531 46.286 180.603L46.2788 181.601ZM46.286 182.144V183.084C46.286 183.337 46.1125 183.518 45.8955 183.604C45.8955 183.597 45.8955 183.612 45.8955 183.604C45.7147 183.669 45.3242 183.8 45.3242 183.8V180.205C45.3242 180.205 46.1269 179.923 46.597 179.815C47.3202 179.641 47.8408 179.974 47.8336 180.567C47.8264 181.131 47.5154 181.471 47.2334 181.71L47.8553 182.303C48.0433 182.491 48.0578 182.823 47.8481 183.026C47.7179 183.149 47.378 183.272 47.1177 182.997C47.1104 182.997 46.286 182.144 46.286 182.144ZM54.3927 179.67C54.3927 179.67 54.9495 179.461 54.9423 179.012C54.9351 178.636 54.5663 178.701 54.3855 178.745L54.3927 179.67ZM53.4526 181.637V178.195C53.4526 178.195 54.4578 178.014 54.7181 177.985C55.4413 177.891 55.9258 178.296 55.9113 178.86C55.9041 179.359 55.5931 179.663 55.3256 179.844C55.3256 179.844 55.8173 180.393 55.9475 180.545C56.1211 180.741 56.1138 181.08 55.8535 181.247C55.6004 181.406 55.34 181.326 55.1954 181.16L54.3927 180.205V181.044C54.3927 181.297 54.2408 181.485 53.9805 181.536L53.4526 181.637Z" fill="#EE1D23"/>
<path d="M50.9071 180.191L49.4824 180.516V180.914C49.4824 181.102 49.6126 181.218 49.8006 181.182C49.9163 181.16 50.0103 181.138 50.0103 181.138V181.536C50.0103 181.695 49.7789 181.796 49.533 181.789C49.1859 181.775 48.9979 181.507 48.9907 181.001C48.9979 180.336 49.3161 179.945 49.7428 179.837C49.9525 179.779 50.1477 179.808 50.2996 179.829C50.6684 179.887 50.8781 179.714 50.8854 179.41C50.8926 179.085 50.6033 178.882 49.9886 178.904C48.6435 178.947 47.9565 179.916 47.9565 181.066C47.9565 182.245 48.7303 182.765 49.6704 182.599C50.1984 182.491 50.4659 182.317 50.6467 182.158C50.8275 181.999 50.9071 181.76 50.9071 181.551V180.191Z" fill="#EE1D23"/>
<path d="M45.2882 176.337C43.7117 177.031 42.6486 178.687 42.5908 179.381C42.5691 179.656 42.9379 179.699 42.974 179.403C43.3067 178.13 44.3191 176.93 45.2882 176.337ZM50.5022 177.522C51.3483 177.313 51.8183 177.284 51.8256 176.901C51.84 176.264 50.0321 175.527 48.3688 175.664C50.061 175.78 51.0735 176.431 51.0735 176.879C51.0807 177.168 50.8276 177.421 50.5022 177.522ZM51.0229 191.552C52.2956 191.053 53.5178 190.091 54.1975 188.659C54.3928 188.247 53.8287 188.03 53.6696 188.522C53.2719 189.541 52.462 190.735 51.0229 191.552Z" fill="white"/>
<path d="M57.4372 187.249H57.6107C57.7047 187.249 57.8277 187.263 57.8277 187.379C57.8277 187.509 57.7409 187.524 57.6252 187.524H57.4444L57.4372 187.249ZM57.2275 188.124H57.4299V187.683H57.5601L57.8132 188.124H58.0302L57.7554 187.668C57.9072 187.654 58.0302 187.582 58.0302 187.394C58.0302 187.169 57.8855 187.083 57.6252 187.083H57.2275V188.124ZM56.6489 187.603C56.6489 188.167 57.0973 188.536 57.6035 188.536C58.1097 188.536 58.5581 188.175 58.5581 187.603C58.5581 187.039 58.1097 186.678 57.6035 186.678C57.0973 186.678 56.6489 187.039 56.6489 187.603ZM56.902 187.603C56.902 187.184 57.213 186.873 57.6035 186.873C57.9868 186.873 58.305 187.177 58.305 187.603C58.305 188.03 57.9868 188.334 57.6035 188.334C57.213 188.341 56.902 188.03 56.902 187.603Z" fill="#EE1D23"/>
<defs>
<filter id="filter0_d_377_18859" x="196" y="141" width="96" height="96" filterUnits="userSpaceOnUse" color-interpolation-filters="sRGB">
<feFlood flood-opacity="0" result="BackgroundImageFix"/>
<feColorMatrix in="SourceAlpha" type="matrix" values="0 0 0 0 0 0 0 0 0 0 0 0 0 0 0 0 0 0 127 0" result="hardAlpha"/>
<feOffset dx="4" dy="12"/>
<feGaussianBlur stdDeviation="12"/>
<feComposite in2="hardAlpha" operator="out"/>
<feColorMatrix type="matrix" values="0 0 0 0 0.443137 0 0 0 0 0.501961 0 0 0 0 0.588235 0 0 0 0.1 0"/>
<feBlend mode="normal" in2="BackgroundImageFix" result="effect1_dropShadow_377_18859"/>
<feBlend mode="normal" in="SourceGraphic" in2="effect1_dropShadow_377_18859" result="shape"/>
</filter>
<filter id="filter1_d_377_18859" x="0" y="3" width="96" height="96" filterUnits="userSpaceOnUse" color-interpolation-filters="sRGB">
<feFlood flood-opacity="0" result="BackgroundImageFix"/>
<feColorMatrix in="SourceAlpha" type="matrix" values="0 0 0 0 0 0 0 0 0 0 0 0 0 0 0 0 0 0 127 0" result="hardAlpha"/>
<feOffset dx="4" dy="12"/>
<feGaussianBlur stdDeviation="12"/>
<feComposite in2="hardAlpha" operator="out"/>
<feColorMatrix type="matrix" values="0 0 0 0 0.443137 0 0 0 0 0.501961 0 0 0 0 0.588235 0 0 0 0.1 0"/>
<feBlend mode="normal" in2="BackgroundImageFix" result="effect1_dropShadow_377_18859"/>
<feBlend mode="normal" in="SourceGraphic" in2="effect1_dropShadow_377_18859" result="shape"/>
</filter>
<filter id="filter2_d_377_18859" x="187" y="0" width="96" height="96" filterUnits="userSpaceOnUse" color-interpolation-filters="sRGB">
<feFlood flood-opacity="0" result="BackgroundImageFix"/>
<feColorMatrix in="SourceAlpha" type="matrix" values="0 0 0 0 0 0 0 0 0 0 0 0 0 0 0 0 0 0 127 0" result="hardAlpha"/>
<feOffset dx="4" dy="12"/>
<feGaussianBlur stdDeviation="12"/>
<feComposite in2="hardAlpha" operator="out"/>
<feColorMatrix type="matrix" values="0 0 0 0 0.443137 0 0 0 0 0.501961 0 0 0 0 0.588235 0 0 0 0.1 0"/>
<feBlend mode="normal" in2="BackgroundImageFix" result="effect1_dropShadow_377_18859"/>
<feBlend mode="normal" in="SourceGraphic" in2="effect1_dropShadow_377_18859" result="shape"/>
</filter>
<filter id="filter3_d_377_18859" x="4" y="149" width="96" height="96" filterUnits="userSpaceOnUse" color-interpolation-filters="sRGB">
<feFlood flood-opacity="0" result="BackgroundImageFix"/>
<feColorMatrix in="SourceAlpha" type="matrix" values="0 0 0 0 0 0 0 0 0 0 0 0 0 0 0 0 0 0 127 0" result="hardAlpha"/>
<feOffset dx="4" dy="12"/>
<feGaussianBlur stdDeviation="12"/>
<feComposite in2="hardAlpha" operator="out"/>
<feColorMatrix type="matrix" values="0 0 0 0 0.443137 0 0 0 0 0.501961 0 0 0 0 0.588235 0 0 0 0.1 0"/>
<feBlend mode="normal" in2="BackgroundImageFix" result="effect1_dropShadow_377_18859"/>
<feBlend mode="normal" in="SourceGraphic" in2="effect1_dropShadow_377_18859" result="shape"/>
</filter>
</defs>
</svg>
