<svg width="218" height="218" viewBox="0 0 218 218" fill="none" xmlns="http://www.w3.org/2000/svg">
<rect width="218" height="218" rx="109" fill="#F9FAFB"/>
<path d="M96.3775 133.016C96.3469 133.139 96.3163 133.294 96.3163 133.448C92.4955 123.009 82.8058 107.135 66.3303 106.178C66.3303 106.178 67.4918 100.649 76.4785 96.5111C76.2339 97.4993 76.0199 98.3641 75.6837 99.6921C75.3169 101.236 75.2863 103.058 75.6226 104.633C75.6837 104.881 75.7754 105.653 76.1422 105.653C76.509 105.653 76.6619 104.819 76.6924 104.633C77.1815 102.533 77.4566 101.545 77.9457 99.4759C78.2208 98.3023 78.3125 97.0052 78.1902 95.7699C80.2993 94.936 82.7447 94.1948 85.6485 93.5771C84.9149 97.2523 84.1813 101.02 83.4477 104.664C83.142 106.239 83.1726 108.031 83.57 109.606C83.6311 109.853 83.7839 110.625 84.1202 110.625C84.4564 110.625 84.6092 109.76 84.6398 109.606C85.4651 105.467 86.321 101.113 87.1463 96.9434C87.3603 95.8007 87.4214 94.5036 87.2686 93.2992C88.0633 93.1447 88.858 93.0212 89.7139 92.8977C91.5785 92.6197 93.2291 92.3418 94.7269 92.0638C93.6265 97.6846 92.251 104.788 91.2117 110.1C91.0588 110.903 90.906 111.737 90.7226 112.54C90.4169 114.115 90.4475 115.906 90.8449 117.481C90.906 117.728 91.0588 118.5 91.3951 118.5C91.7619 118.5 91.8842 117.636 91.9147 117.481C93.0457 111.644 94.6352 103.583 95.7661 97.7773C95.919 96.9743 96.0718 96.1405 96.2552 95.3375C96.4692 94.1948 96.5303 92.9594 96.3775 91.755C99.801 90.952 102.43 89.9637 105.058 88.5122C104.294 92.4653 103.5 96.542 102.827 99.8774L102.888 99.723L97.6919 126.437C97.2639 128.537 96.836 130.761 96.3775 133.016ZM111.753 79.7721C111.386 79.6486 109.643 82.2737 107.993 83.9723L107.962 84.0032C108.115 82.6752 108.023 81.2854 107.718 80.0192C107.657 79.7721 107.504 79 107.168 79C106.801 79 106.679 79.8647 106.648 80.0192C106.312 81.6869 105.945 83.5399 105.578 85.4547C98.9145 89.1607 92.3732 89.2843 84.2119 91.1373C67.125 95.0595 64.4351 104.726 64.0072 107.691C63.946 108.154 64.2823 108.556 64.7713 108.556C81.736 108.587 92.6483 127.024 96.5914 138.204C96.9888 139.192 97.4473 139.347 97.6613 138.173C100.718 122.7 103.683 107.197 106.679 91.6932C107.015 90.0255 107.32 88.3269 107.657 86.6592C109.735 84.9297 111.447 82.4281 111.783 81.4707C111.905 81.1619 112.364 79.9574 111.753 79.7721Z" fill="#17181B"/>
<path d="M121.198 95.8008C123.032 95.8008 123.949 96.7273 123.949 96.7273L123.154 97.6847C123.154 97.6847 122.451 97.067 121.228 97.067C119.333 97.067 118.141 98.6421 118.141 100.279C118.141 101.607 119.027 102.348 120.189 102.348C121.32 102.348 122.206 101.545 122.206 101.545L122.359 100.711H121.198L121.442 99.5377H123.796L123.032 103.491H121.87L121.931 103.12C121.962 102.966 121.992 102.811 121.992 102.811H121.962C121.962 102.811 121.198 103.614 119.822 103.614C118.11 103.614 116.674 102.379 116.674 100.372C116.735 97.87 118.722 95.8008 121.198 95.8008ZM125.08 103.429L126.088 101.514H128.687L128.962 103.429H130.307L129.176 95.9243H127.647L123.613 103.429H125.08ZM126.608 100.402L127.678 98.395C127.892 97.9935 128.167 97.2214 128.167 97.2214H128.198C128.198 97.2214 128.228 97.9626 128.289 98.395L128.564 100.402H126.608ZM131.224 103.429H135.778L136.023 102.255H132.783L134.005 95.9243H132.66L131.224 103.429ZM136.787 103.429H141.402L141.616 102.255H138.346L138.743 100.248H141.25L141.494 99.0745H138.988L139.354 97.0979H142.442L142.686 95.9243H138.254L136.787 103.429ZM142.808 103.429H144.153L144.673 100.619H146.018L146.966 103.429H148.402L147.394 100.65C147.302 100.372 147.21 100.279 147.21 100.279V100.248C148.341 99.8774 148.922 98.7656 148.922 97.7465C148.922 96.9744 148.555 96.3876 147.913 96.1096C147.607 95.9861 147.241 95.9243 146.843 95.9243H144.215L142.808 103.429ZM144.918 99.4451L145.376 97.0979H146.599C147.21 97.0979 147.577 97.4067 147.577 97.9626C147.577 98.8892 146.904 99.4451 146.11 99.4451H144.918ZM149.625 103.429H150.97L152.406 95.9243H151.062L149.625 103.429ZM152.834 103.429H157.45L157.664 102.255H154.393L154.791 100.248H157.297L157.542 99.0745H155.035L155.402 97.0979H158.489L158.734 95.9243H154.302L152.834 103.429Z" fill="#17181B"/>
<path d="M113.984 121.496H117.132L118.08 116.431H122.726L121.748 121.496H124.866L127.342 108.586H124.224L123.246 113.744H118.599L119.608 108.586H116.49L113.984 121.496Z" fill="#DD1037"/>
<path d="M126.394 121.496H129.726L131.01 118.778H134.983L135.258 121.496H138.376L136.603 108.617H133.027L126.394 121.496ZM132.232 116.245L133.455 113.744C133.852 112.941 134.372 111.52 134.372 111.52H134.403C134.403 111.52 134.433 112.941 134.525 113.744L134.769 116.245H132.232Z" fill="#EA5423"/>
<path d="M139.813 121.496H142.931L143.756 117.141H145.315L146.752 121.496H150.114L148.463 117.048C148.28 116.493 148.127 116.276 148.127 116.276V116.245C150.083 115.473 150.786 113.404 150.786 111.891C150.786 110.439 150.083 109.42 148.891 108.926C148.341 108.71 147.699 108.617 147.027 108.617H142.289L139.813 121.496ZM144.276 114.423L144.887 111.273H146.293C147.088 111.273 147.608 111.675 147.608 112.416C147.608 113.682 146.721 114.392 145.621 114.392H144.276V114.423Z" fill="#3EAD5A"/>
<path d="M151.948 121.496H155.035L155.983 116.709H159.865L160.354 113.991H156.503L157.022 111.304H161.699L162.188 108.586H154.394L151.948 121.496Z" fill="#0092D2"/>
<path d="M160.018 121.496H163.35L164.634 118.778H168.607L168.882 121.496H172L170.227 108.617H166.651L160.018 121.496ZM165.856 116.245L167.079 113.744C167.476 112.941 167.996 111.52 167.996 111.52H168.027C168.027 111.52 168.057 112.941 168.149 113.744L168.393 116.245H165.856Z" fill="#F9B226"/>
<rect x="11.5" y="11.5" width="195" height="195" rx="97.5" stroke="white" stroke-width="3"/>
</svg>
