<svg width="509" height="443" viewBox="0 0 509 443" fill="none" xmlns="http://www.w3.org/2000/svg">
<path d="M73.4431 19.0464H383.319V236.546C383.319 322.116 313.951 391.483 228.381 391.483C142.811 391.483 73.4431 322.115 73.4431 236.546V19.0464Z" stroke="url(#paint0_radial_367_13634)" stroke-width="4.09272"/>
<path d="M87.7778 33.3708H433.143V256.317C433.143 351.687 355.83 429 260.46 429V429C165.09 429 87.7778 351.687 87.7778 256.317V33.3708Z" fill="#F0F4F9"/>
<mask id="mask0_367_13634" style="mask-type:alpha" maskUnits="userSpaceOnUse" x="105" y="51" width="314" height="359">
<path d="M105.524 51.106H418.127V253.599C418.127 339.922 348.148 409.901 261.825 409.901V409.901C175.502 409.901 105.524 339.922 105.524 253.599V51.106Z" fill="white"/>
</mask>
<g mask="url(#mask0_367_13634)">
<g clip-path="url(#clip0_367_13634)">
<rect x="134.191" y="82.4834" width="256.635" height="552.517" rx="32.7417" fill="white"/>
<g clip-path="url(#clip1_367_13634)">
<rect x="146.102" y="111.518" width="34.2454" height="34.2454" rx="17.1227" fill="#F9FAFB"/>
<path d="M164.714 132.572L161.478 129.336C161.095 128.954 161.095 128.328 161.478 127.946L164.714 124.71" stroke="#12143D" stroke-width="1.1167" stroke-miterlimit="10" stroke-linecap="round" stroke-linejoin="round"/>
<path d="M208.044 133.197H211.403C213.774 133.197 215.489 131.518 215.489 129.219V129.183C215.489 126.884 213.774 125.217 211.403 125.217H208.044V133.197ZM211.38 126.861C212.785 126.861 213.762 127.79 213.762 129.183V129.219C213.762 130.613 212.785 131.542 211.38 131.542H209.736V126.861H211.38ZM218.928 127.087C217.105 127.087 215.831 128.469 215.831 130.231C215.831 131.899 216.915 133.376 218.916 133.376C220.322 133.376 221.501 132.638 221.894 131.315H220.214C220 131.697 219.464 131.947 218.916 131.923C218.094 131.887 217.57 131.375 217.475 130.767H221.953C222.168 128.671 220.905 127.087 218.928 127.087ZM218.916 128.528C219.607 128.528 220.143 128.897 220.322 129.517H217.487C217.653 128.921 218.213 128.528 218.916 128.528ZM226.894 127.265H224.452V125.217H222.844V127.265H222.01V128.814H222.844V131.458C222.844 132.53 223.546 133.197 224.63 133.197H226.894V131.637H224.928C224.642 131.637 224.452 131.47 224.452 131.184V128.814H226.894V127.265ZM231.889 128.028H231.83C231.46 127.492 230.782 127.087 229.924 127.087C228.244 127.075 227.089 128.409 227.089 130.243C227.089 132.113 228.304 133.376 229.912 133.376C230.782 133.364 231.46 132.959 231.83 132.411H231.889V133.197H233.485V127.265H231.889V128.028ZM230.305 131.851C229.364 131.851 228.709 131.161 228.709 130.231C228.709 129.302 229.364 128.611 230.305 128.611C231.234 128.611 231.889 129.314 231.889 130.231C231.889 131.113 231.258 131.851 230.305 131.851ZM234.453 124.621V126.503H236.061V124.621H234.453ZM234.453 127.265V133.197H236.061V127.265H234.453ZM236.945 131.482C236.945 132.554 237.589 133.197 238.72 133.197H239.828V131.637H239.03C238.732 131.637 238.553 131.47 238.553 131.196V124.621H236.945V131.482ZM245.712 133.376C247.642 133.376 248.905 132.006 248.905 130.231C248.905 128.469 247.654 127.087 245.712 127.087C243.771 127.087 242.52 128.469 242.52 130.231C242.52 132.006 243.783 133.376 245.712 133.376ZM245.712 131.816C244.759 131.816 244.128 131.113 244.128 130.231C244.128 129.35 244.759 128.635 245.712 128.635C246.665 128.635 247.297 129.35 247.297 130.231C247.297 131.113 246.653 131.816 245.712 131.816ZM253.92 126.182V124.621H251.645C250.597 124.621 249.87 125.324 249.87 126.36V127.265H249.036V128.814H249.87V133.197H251.478V128.814H253.92V127.265H251.478V126.622C251.478 126.348 251.669 126.182 251.955 126.182H253.92ZM261.409 127.265H258.967V125.217H257.359V127.265H256.525V128.814H257.359V131.458C257.359 132.53 258.062 133.197 259.146 133.197H261.409V131.637H259.443C259.158 131.637 258.967 131.47 258.967 131.184V128.814H261.409V127.265ZM265.542 127.099C264.804 127.099 264.173 127.432 263.78 127.98H263.732V124.621H262.124V133.197H263.732V130.124C263.732 129.231 264.351 128.671 265.078 128.671C265.745 128.671 266.293 129.147 266.293 130.005V133.197H267.901V129.767C267.901 128.064 266.984 127.099 265.542 127.099ZM271.452 127.087C269.63 127.087 268.355 128.469 268.355 130.231C268.355 131.899 269.439 133.376 271.44 133.376C272.846 133.376 274.025 132.638 274.418 131.315H272.739C272.524 131.697 271.988 131.947 271.44 131.923C270.618 131.887 270.094 131.375 269.999 130.767H274.478C274.692 128.671 273.43 127.087 271.452 127.087ZM271.44 128.528C272.131 128.528 272.667 128.897 272.846 129.517H270.011C270.178 128.921 270.738 128.528 271.44 128.528ZM280.669 127.265C279.978 127.265 279.454 127.611 279.239 128.195H279.18V127.265H277.655V133.197H279.263V130.243C279.263 129.421 279.811 128.874 280.585 128.874H281.92V127.265H280.669ZM285.018 127.087C283.195 127.087 281.921 128.469 281.921 130.231C281.921 131.899 283.005 133.376 285.006 133.376C286.411 133.376 287.591 132.638 287.984 131.315H286.304C286.09 131.697 285.554 131.947 285.006 131.923C284.184 131.887 283.66 131.375 283.565 130.767H288.043C288.258 128.671 286.995 127.087 285.018 127.087ZM285.006 128.528C285.697 128.528 286.233 128.897 286.411 129.517H283.577C283.743 128.921 284.303 128.528 285.006 128.528ZM294.481 129.517C294.243 128.099 293.099 127.087 291.467 127.087C289.55 127.087 288.346 128.469 288.346 130.231C288.346 131.994 289.55 133.376 291.467 133.376C293.087 133.376 294.231 132.352 294.481 130.934H292.801C292.611 131.458 292.111 131.816 291.479 131.816C290.538 131.816 289.955 131.101 289.955 130.231C289.955 129.362 290.538 128.635 291.479 128.635C292.122 128.635 292.611 129.005 292.801 129.517H294.481ZM297.799 127.087C295.977 127.087 294.702 128.469 294.702 130.231C294.702 131.899 295.786 133.376 297.787 133.376C299.193 133.376 300.372 132.638 300.765 131.315H299.086C298.871 131.697 298.335 131.947 297.787 131.923C296.966 131.887 296.441 131.375 296.346 130.767H300.825C301.039 128.671 299.777 127.087 297.799 127.087ZM297.787 128.528C298.478 128.528 299.014 128.897 299.193 129.517H296.358C296.525 128.921 297.085 128.528 297.787 128.528ZM301.473 124.621V126.503H303.082V124.621H301.473ZM301.473 127.265V133.197H303.082V127.265H301.473ZM307.599 127.087C306.753 127.087 306.062 127.492 305.693 128.028H305.633V127.265H304.037V135.58H305.633V132.411H305.693C306.062 132.959 306.741 133.364 307.611 133.376C309.219 133.376 310.434 132.113 310.434 130.243C310.434 128.409 309.278 127.075 307.599 127.087ZM307.218 131.851C306.265 131.851 305.633 131.113 305.633 130.231C305.633 129.314 306.288 128.611 307.218 128.611C308.159 128.611 308.814 129.302 308.814 130.231C308.814 131.161 308.159 131.851 307.218 131.851ZM315.359 127.265H312.917V125.217H311.309V127.265H310.476V128.814H311.309V131.458C311.309 132.53 312.012 133.197 313.096 133.197H315.359V131.637H313.394C313.108 131.637 312.917 131.47 312.917 131.184V128.814H315.359V127.265Z" fill="#12143D"/>
</g>
<mask id="path-8-inside-1_367_13634" fill="white">
<path fill-rule="evenodd" clip-rule="evenodd" d="M146.469 179.477C146.469 173.926 146.469 171.151 147.375 168.962C148.584 166.044 150.903 163.725 153.822 162.516C156.011 161.609 158.786 161.609 164.336 161.609H365.979C371.529 161.609 374.304 161.609 376.493 162.516C379.412 163.725 381.731 166.044 382.939 168.962C383.846 171.151 383.846 173.926 383.846 179.477V256.974C383.846 262.524 383.846 265.299 382.939 267.488C381.731 270.407 379.412 272.725 376.493 273.934C374.304 274.841 371.529 274.841 365.979 274.841H164.336C158.786 274.841 156.011 274.841 153.822 273.934C150.903 272.725 148.584 270.407 147.375 267.488C146.469 265.299 146.469 262.524 146.469 256.974V229.727C151.587 228.859 155.473 224.595 155.473 219.466C155.473 214.338 151.587 210.074 146.469 209.206V179.477Z"/>
</mask>
<path d="M147.375 168.962L145.69 168.264H145.69L147.375 168.962ZM153.822 162.516L153.124 160.83V160.83L153.822 162.516ZM376.493 162.516L375.795 164.202V164.202L376.493 162.516ZM382.939 168.962L381.254 169.661V169.661L382.939 168.962ZM382.939 267.488L381.254 266.79L382.939 267.488ZM376.493 273.934L375.795 272.249V272.249L376.493 273.934ZM153.822 273.934L154.52 272.249H154.52L153.822 273.934ZM147.375 267.488L145.69 268.186H145.69L147.375 267.488ZM146.469 229.727L146.163 227.928L144.644 228.186V229.727H146.469ZM146.469 209.206H144.644V210.747L146.163 211.005L146.469 209.206ZM145.69 168.264C145.129 169.618 144.881 171.081 144.762 172.835C144.643 174.573 144.644 176.726 144.644 179.477H148.293C148.293 176.677 148.294 174.668 148.402 173.083C148.509 171.515 148.715 170.496 149.061 169.661L145.69 168.264ZM153.124 160.83C149.758 162.224 147.084 164.898 145.69 168.264L149.061 169.661C150.085 167.189 152.049 165.226 154.52 164.202L153.124 160.83ZM164.336 159.785C161.586 159.785 159.432 159.784 157.694 159.902C155.94 160.022 154.477 160.269 153.124 160.83L154.52 164.202C155.355 163.856 156.374 163.65 157.943 163.543C159.527 163.435 161.536 163.434 164.336 163.434V159.785ZM365.979 159.785H164.336V163.434H365.979V159.785ZM377.191 160.83C375.837 160.269 374.375 160.022 372.621 159.902C370.883 159.784 368.729 159.785 365.979 159.785V163.434C368.779 163.434 370.788 163.435 372.372 163.543C373.94 163.65 374.96 163.856 375.795 164.202L377.191 160.83ZM384.625 168.264C383.231 164.898 380.557 162.224 377.191 160.83L375.795 164.202C378.266 165.226 380.23 167.189 381.254 169.661L384.625 168.264ZM385.671 179.477C385.671 176.726 385.672 174.573 385.553 172.835C385.434 171.081 385.186 169.618 384.625 168.264L381.254 169.661C381.6 170.496 381.805 171.515 381.912 173.083C382.021 174.668 382.022 176.677 382.022 179.477H385.671ZM385.671 256.974V179.477H382.022V256.974H385.671ZM384.625 268.186C385.186 266.832 385.434 265.37 385.553 263.616C385.672 261.878 385.671 259.724 385.671 256.974H382.022C382.022 259.774 382.021 261.783 381.912 263.367C381.805 264.935 381.6 265.955 381.254 266.79L384.625 268.186ZM377.191 275.62C380.557 274.226 383.231 271.552 384.625 268.186L381.254 266.79C380.23 269.261 378.266 271.225 375.795 272.249L377.191 275.62ZM365.979 276.666C368.729 276.666 370.883 276.667 372.621 276.548C374.375 276.429 375.837 276.181 377.191 275.62L375.795 272.249C374.96 272.595 373.94 272.8 372.372 272.907C370.788 273.015 368.779 273.016 365.979 273.016V276.666ZM164.336 276.666H365.979V273.016H164.336V276.666ZM153.124 275.62C154.477 276.181 155.94 276.429 157.694 276.548C159.432 276.667 161.586 276.666 164.336 276.666V273.016C161.536 273.016 159.527 273.015 157.943 272.907C156.374 272.8 155.355 272.595 154.52 272.249L153.124 275.62ZM145.69 268.186C147.084 271.552 149.758 274.226 153.124 275.62L154.52 272.249C152.049 271.225 150.085 269.261 149.061 266.79L145.69 268.186ZM144.644 256.974C144.644 259.724 144.643 261.878 144.762 263.616C144.881 265.37 145.129 266.832 145.69 268.186L149.061 266.79C148.715 265.955 148.509 264.935 148.402 263.367C148.294 261.783 148.293 259.774 148.293 256.974H144.644ZM144.644 229.727V256.974H148.293V229.727H144.644ZM153.648 219.466C153.648 223.629 150.482 227.196 146.163 227.928L146.774 231.526C152.691 230.522 157.297 225.562 157.297 219.466H153.648ZM146.163 211.005C150.482 211.737 153.648 215.304 153.648 219.466H157.297C157.297 213.371 152.691 208.411 146.774 207.407L146.163 211.005ZM144.644 179.477V209.206H148.293V179.477H144.644Z" fill="#F9FAFB" mask="url(#path-8-inside-1_367_13634)"/>
<path d="M163.732 200.955C163.36 200.865 163.196 200.597 163.196 200.329C163.211 200.002 163.494 199.778 163.926 199.778H168.422V197.739H166.01V196.443H164.045V197.739H163.866C162.035 197.739 160.993 199.034 160.978 200.359C160.963 201.446 161.663 202.548 163.137 202.905L166.308 203.665C166.695 203.769 166.874 204.052 166.874 204.335C166.859 204.647 166.576 204.96 166.114 204.96H161.335V206.985H164.045V208.295H166.01V206.985H166.129C167.991 206.985 169.033 205.645 169.063 204.32C169.092 203.173 168.363 202.056 166.904 201.714L163.732 200.955ZM176.161 202.637C176.891 201.922 177.263 201.029 177.263 200.24C177.263 198.706 176.042 197.456 174.151 197.456H170.28V199.51H174.151C174.762 199.51 175.164 199.912 175.164 200.404C175.164 200.642 175.059 200.97 174.791 201.238L170.191 205.779V207.432H177.308V205.377H173.362L176.161 202.637ZM184.822 203.114V197.456H181.77L177.675 203.516V205.034H182.693V207.432H184.822V205.034H186.415V203.114H184.822ZM182.693 199.421V203.114H180.296L182.693 199.421ZM194.026 199.004V197.456H187.102V199.51H191.167L188.964 201.982V203.277H191.182C191.867 203.277 192.284 203.769 192.284 204.32C192.284 204.871 191.852 205.377 191.182 205.377H187.102V207.432H191.405C193.088 207.432 194.428 206.151 194.428 204.364C194.428 202.607 193.103 201.654 191.733 201.565L194.026 199.004ZM194.893 205.198V207.432H197.052V205.198H194.893ZM197.748 203.59C197.748 205.987 199.46 207.655 201.753 207.655C204.046 207.655 205.848 206.017 205.848 203.59V201.282C205.848 198.855 204.061 197.232 201.783 197.232C199.49 197.232 197.748 198.87 197.748 201.297V203.59ZM199.862 201.297C199.862 200.061 200.681 199.332 201.783 199.332C202.899 199.332 203.718 200.076 203.718 201.282V203.59C203.718 204.811 202.87 205.541 201.753 205.541C200.666 205.541 199.862 204.826 199.862 203.59V201.297ZM207.024 203.59C207.024 205.987 208.737 207.655 211.03 207.655C213.323 207.655 215.124 206.017 215.124 203.59V201.282C215.124 198.855 213.338 197.232 211.059 197.232C208.767 197.232 207.024 198.87 207.024 201.297V203.59ZM209.139 201.297C209.139 200.061 209.958 199.332 211.059 199.332C212.176 199.332 212.995 200.076 212.995 201.282V203.59C212.995 204.811 212.146 205.541 211.03 205.541C209.943 205.541 209.139 204.826 209.139 203.59V201.297Z" fill="#12143D"/>
<rect x="311.561" y="235.843" width="62.8672" height="23.4225" rx="5.95572" fill="#EAFFF4"/>
<path d="M324.908 249.786H322.309L321.862 251.055H320.799L323.023 244.837H324.202L326.427 251.055H325.355L324.908 249.786ZM324.622 248.955L323.613 246.07L322.594 248.955H324.622ZM328.413 246.856C328.585 246.63 328.82 246.439 329.118 246.284C329.416 246.129 329.753 246.052 330.128 246.052C330.557 246.052 330.947 246.159 331.298 246.373C331.655 246.582 331.935 246.877 332.138 247.258C332.34 247.639 332.442 248.077 332.442 248.571C332.442 249.065 332.34 249.509 332.138 249.902C331.935 250.289 331.655 250.593 331.298 250.813C330.947 251.028 330.557 251.135 330.128 251.135C329.753 251.135 329.419 251.061 329.127 250.912C328.835 250.757 328.597 250.566 328.413 250.34V253.395H327.394V246.132H328.413V246.856ZM331.405 248.571C331.405 248.232 331.334 247.94 331.191 247.696C331.054 247.445 330.869 247.258 330.637 247.133C330.411 247.002 330.166 246.936 329.904 246.936C329.648 246.936 329.404 247.002 329.172 247.133C328.946 247.264 328.761 247.454 328.618 247.705C328.481 247.955 328.413 248.25 328.413 248.589C328.413 248.928 328.481 249.226 328.618 249.482C328.761 249.732 328.946 249.923 329.172 250.054C329.404 250.185 329.648 250.251 329.904 250.251C330.166 250.251 330.411 250.185 330.637 250.054C330.869 249.917 331.054 249.721 331.191 249.464C331.334 249.208 331.405 248.911 331.405 248.571ZM334.467 246.856C334.64 246.63 334.875 246.439 335.173 246.284C335.471 246.129 335.807 246.052 336.182 246.052C336.611 246.052 337.001 246.159 337.353 246.373C337.71 246.582 337.99 246.877 338.192 247.258C338.395 247.639 338.496 248.077 338.496 248.571C338.496 249.065 338.395 249.509 338.192 249.902C337.99 250.289 337.71 250.593 337.353 250.813C337.001 251.028 336.611 251.135 336.182 251.135C335.807 251.135 335.474 251.061 335.182 250.912C334.89 250.757 334.652 250.566 334.467 250.34V253.395H333.449V246.132H334.467V246.856ZM337.46 248.571C337.46 248.232 337.388 247.94 337.245 247.696C337.108 247.445 336.924 247.258 336.692 247.133C336.465 247.002 336.221 246.936 335.959 246.936C335.703 246.936 335.459 247.002 335.226 247.133C335 247.264 334.816 247.454 334.673 247.705C334.536 247.955 334.467 248.25 334.467 248.589C334.467 248.928 334.536 249.226 334.673 249.482C334.816 249.732 335 249.923 335.226 250.054C335.459 250.185 335.703 250.251 335.959 250.251C336.221 250.251 336.465 250.185 336.692 250.054C336.924 249.917 337.108 249.721 337.245 249.464C337.388 249.208 337.46 248.911 337.46 248.571ZM340.522 246.847C340.671 246.597 340.867 246.403 341.111 246.266C341.361 246.123 341.656 246.052 341.996 246.052V247.106H341.737C341.338 247.106 341.034 247.207 340.825 247.41C340.623 247.612 340.522 247.964 340.522 248.464V251.055H339.503V246.132H340.522V246.847ZM345.067 251.135C344.602 251.135 344.183 251.031 343.807 250.822C343.432 250.608 343.137 250.31 342.923 249.929C342.709 249.542 342.601 249.095 342.601 248.589C342.601 248.089 342.712 247.645 342.932 247.258C343.152 246.871 343.453 246.573 343.834 246.365C344.215 246.156 344.641 246.052 345.112 246.052C345.582 246.052 346.008 246.156 346.389 246.365C346.77 246.573 347.071 246.871 347.291 247.258C347.512 247.645 347.622 248.089 347.622 248.589C347.622 249.089 347.509 249.533 347.283 249.92C347.056 250.307 346.747 250.608 346.353 250.822C345.966 251.031 345.538 251.135 345.067 251.135ZM345.067 250.251C345.329 250.251 345.573 250.188 345.8 250.063C346.032 249.938 346.219 249.75 346.362 249.5C346.505 249.25 346.577 248.946 346.577 248.589C346.577 248.232 346.508 247.931 346.371 247.687C346.234 247.437 346.053 247.249 345.826 247.124C345.6 246.999 345.356 246.936 345.094 246.936C344.832 246.936 344.588 246.999 344.361 247.124C344.141 247.249 343.965 247.437 343.834 247.687C343.703 247.931 343.638 248.232 343.638 248.589C343.638 249.119 343.772 249.53 344.04 249.822C344.314 250.108 344.656 250.251 345.067 250.251ZM350.532 250.143L351.925 246.132H353.006L351.13 251.055H349.915L348.048 246.132H349.138L350.532 250.143ZM358.288 248.473C358.288 248.657 358.276 248.824 358.252 248.973H354.491C354.521 249.366 354.666 249.682 354.928 249.92C355.191 250.158 355.512 250.277 355.893 250.277C356.441 250.277 356.828 250.048 357.055 249.59H358.154C358.005 250.042 357.734 250.414 357.341 250.706C356.953 250.992 356.471 251.135 355.893 251.135C355.423 251.135 355 251.031 354.625 250.822C354.255 250.608 353.964 250.31 353.749 249.929C353.541 249.542 353.437 249.095 353.437 248.589C353.437 248.083 353.538 247.639 353.74 247.258C353.949 246.871 354.238 246.573 354.607 246.365C354.982 246.156 355.411 246.052 355.893 246.052C356.358 246.052 356.772 246.153 357.135 246.356C357.498 246.558 357.781 246.844 357.984 247.213C358.186 247.577 358.288 247.996 358.288 248.473ZM357.224 248.151C357.218 247.776 357.084 247.475 356.822 247.249C356.56 247.023 356.236 246.909 355.849 246.909C355.497 246.909 355.197 247.023 354.946 247.249C354.696 247.469 354.547 247.77 354.5 248.151H357.224ZM358.95 248.571C358.95 248.077 359.052 247.639 359.254 247.258C359.462 246.877 359.742 246.582 360.094 246.373C360.451 246.159 360.847 246.052 361.282 246.052C361.604 246.052 361.919 246.123 362.229 246.266C362.545 246.403 362.795 246.588 362.979 246.82V244.444H364.007V251.055H362.979V250.313C362.813 250.551 362.58 250.748 362.283 250.903C361.991 251.058 361.654 251.135 361.273 251.135C360.844 251.135 360.451 251.028 360.094 250.813C359.742 250.593 359.462 250.289 359.254 249.902C359.052 249.509 358.95 249.065 358.95 248.571ZM362.979 248.589C362.979 248.25 362.908 247.955 362.765 247.705C362.628 247.454 362.446 247.264 362.22 247.133C361.994 247.002 361.749 246.936 361.487 246.936C361.225 246.936 360.981 247.002 360.755 247.133C360.529 247.258 360.344 247.445 360.201 247.696C360.064 247.94 359.996 248.232 359.996 248.571C359.996 248.911 360.064 249.208 360.201 249.464C360.344 249.721 360.529 249.917 360.755 250.054C360.987 250.185 361.231 250.251 361.487 250.251C361.749 250.251 361.994 250.185 362.22 250.054C362.446 249.923 362.628 249.732 362.765 249.482C362.908 249.226 362.979 248.928 362.979 248.589Z" fill="#00D261"/>
<path d="M166.442 182.515H163.159V179.816H161.679V186.799H163.159V183.954H166.442V186.799H167.933V179.816H166.442V182.515ZM174.514 184.944L175.473 184.287V182.682L173.597 183.954L171.366 181.536C171.21 181.358 171.293 181.15 171.533 181.15H173.951V179.816H171.45C169.917 179.816 169.23 181.296 170.282 182.421L170.772 182.943L169.834 183.568C168.979 184.141 168.771 185.392 169.386 186.205C169.99 187.018 171.231 187.174 172.19 186.528L173.378 185.715L174.399 186.799H176.223L174.514 184.944ZM171.408 185.454C171.085 185.663 170.73 185.569 170.553 185.319C170.376 185.069 170.439 184.714 170.741 184.506L171.658 183.891L172.461 184.735L171.408 185.454ZM185.091 179.816H183.058L181.161 184.464L179.264 179.816H177.211V186.799H178.691V182.025L180.672 186.799H181.62L183.611 182.005V186.799H185.091V179.816Z" fill="#12143D"/>
<rect x="338.694" y="173.309" width="35.7343" height="35.7343" rx="17.8672" fill="white"/>
<path d="M360.63 185.118C361.358 184.77 361.72 184.815 361.728 185.169C361.737 185.628 361.668 186.239 361.618 186.682C361.347 189.085 360.895 191.048 360.861 193.515C362.052 190.511 363.049 188.423 364.335 185.851C364.743 185.032 365.004 185.185 365.339 185.039C366.644 184.473 366.693 184.82 366.523 185.513C365.89 188.081 364.268 196.164 364.021 197.409C363.949 197.769 363.548 197.616 363.444 197.475C362.979 196.848 362.455 196.839 362.513 196.422C362.805 194.347 363.854 189.14 364.128 187.913C362.733 190.7 361.287 194.184 360.544 196.16C360.387 196.579 360.1 196.549 359.922 196.242C359.671 195.811 359.184 195.59 359.103 195.081C358.848 193.461 359.394 190.373 359.47 188.42C358.711 190.554 357.436 194.697 356.878 196.568C356.648 197.343 355.88 197.217 356.084 196.462C356.933 193.32 358.761 187.765 359.551 185.767C359.737 185.297 360.225 185.313 360.63 185.118V185.118ZM356.002 184.733C355.755 184.675 355.041 185.051 354.602 185.125C354.463 185.148 354.33 185.292 354.283 185.395C353.58 186.969 352.951 188.47 352.405 189.837C351.707 189.953 350.891 190.106 349.977 190.306C350.632 188.67 351.292 187.056 351.937 185.504C352.254 184.739 351.419 184.667 351.095 185.441C350.674 186.446 349.885 188.331 349.012 190.527C348.331 190.69 347.653 190.866 346.98 191.056C346.463 191.201 346.442 191.336 346.666 191.638C346.789 191.806 347.043 191.789 347.16 191.909C347.461 192.219 347.644 192.591 348.183 192.647C347.702 193.901 347.221 195.195 346.785 196.441C346.512 197.223 347.291 197.382 347.59 196.555C348.073 195.221 348.581 193.872 349.104 192.526C349.54 192.427 350.594 192.206 351.568 192C350.795 194.064 350.287 195.632 350.094 196.395C350.058 196.542 350.118 196.623 350.151 196.683C350.411 197.053 350.659 197.068 350.994 197.525C351.085 197.65 351.389 197.717 351.493 197.41C352.209 195.302 352.946 193.324 353.632 191.551C353.917 191.491 354.431 191.37 354.745 190.913C355.303 190.101 355.464 190.266 355.598 190.019C355.767 189.71 355.655 189.419 355.059 189.491C355.059 189.491 354.834 189.506 354.418 189.553C355.078 187.894 355.657 186.487 356.073 185.415C356.215 185.052 356.233 184.787 356.002 184.733Z" fill="#CC071E"/>
<path d="M355.027 195.49C355.181 195.869 355.661 195.754 355.479 195.297C355.292 194.831 354.829 193.428 354.708 192.976C354.542 192.366 355.258 192.533 354.895 192.931C354.585 193.274 354.377 193.411 353.802 194.062C353.247 194.691 353.398 195.506 353.992 195.686C354.662 195.89 355.253 195.169 355.619 194.641C355.974 194.129 355.631 193.829 355.273 194.132C355.043 194.326 354.777 194.625 354.508 194.786C354.29 194.916 354.118 194.776 354.41 194.385C354.748 193.932 355.127 193.553 355.409 193.124C355.984 192.252 354.847 191.749 354.358 192.316C354.095 192.618 354.162 192.914 354.233 193.169C354.348 193.577 354.776 194.878 355.027 195.49" fill="#CC071E"/>
<rect x="160.991" y="248.5" width="58.8127" height="14.1448" rx="5.21125" fill="#F9FAFB"/>
<rect x="160.991" y="229.145" width="34.2454" height="14.1448" rx="5.21125" fill="#F9FAFB"/>
<rect x="225.76" y="248.5" width="58.8127" height="14.1448" rx="5.21125" fill="#F9FAFB"/>
<rect x="225.76" y="229.145" width="34.2454" height="14.1448" rx="5.21125" fill="#F9FAFB"/>
<path d="M146.912 296.026H148.656V287.8H146.912V296.026ZM154.188 289.912H151.671V287.8H150.013V289.912H149.154V291.508H150.013V294.234C150.013 295.339 150.738 296.026 151.855 296.026H154.188V294.418H152.162C151.867 294.418 151.671 294.246 151.671 293.951V291.508H154.188V289.912ZM157.579 289.728C155.7 289.728 154.386 291.152 154.386 292.969C154.386 294.688 155.504 296.211 157.566 296.211C159.015 296.211 160.231 295.449 160.636 294.087H158.905C158.684 294.479 158.131 294.737 157.566 294.713C156.719 294.676 156.179 294.148 156.081 293.522H160.697C160.918 291.361 159.617 289.728 157.579 289.728ZM157.566 291.213C158.278 291.213 158.831 291.594 159.015 292.233H156.093C156.265 291.619 156.842 291.213 157.566 291.213ZM168.413 289.74C167.565 289.74 166.89 290.108 166.436 290.735H166.387C166.055 290.108 165.441 289.74 164.656 289.74C163.894 289.74 163.293 290.108 162.912 290.685H162.863V289.912H161.279V296.026H162.937V292.846C162.937 291.95 163.415 291.373 164.115 291.361C164.705 291.361 165.171 291.729 165.171 292.601V296.026H166.829V292.773C166.829 291.754 167.443 291.349 168.007 291.349C168.597 291.349 169.076 291.717 169.076 292.589V296.026H170.733V292.331C170.733 290.563 169.653 289.74 168.413 289.74ZM173.25 289.912C172.132 289.912 171.273 290.661 171.273 291.717C171.273 292.539 171.887 293.19 172.771 293.374L175.104 293.878C175.239 293.915 175.312 294.025 175.312 294.148C175.312 294.308 175.202 294.418 175.042 294.418H171.531V296.026H175.067C176.184 296.026 177.056 295.265 177.056 294.185C177.056 293.325 176.467 292.687 175.546 292.49L173.25 292.024C173.127 291.999 173.041 291.889 173.041 291.766C173.041 291.619 173.139 291.508 173.299 291.508H176.614V289.912H173.25Z" fill="#12143D"/>
<rect x="146.102" y="315.502" width="128.048" height="17.8672" rx="5.21125" fill="#F7F7F7"/>
<path d="M330.367 319.326C329.994 319.237 329.831 318.969 329.831 318.701C329.845 318.373 330.128 318.15 330.56 318.15H335.057V316.11H332.645V314.815H330.679V316.11H330.501C328.669 316.11 327.627 317.406 327.612 318.731C327.597 319.818 328.297 320.919 329.771 321.277L332.942 322.036C333.329 322.14 333.508 322.423 333.508 322.706C333.493 323.019 333.21 323.332 332.749 323.332H327.969V325.356H330.679V326.667H332.645V325.356H332.764C334.625 325.356 335.667 324.016 335.697 322.691C335.727 321.545 334.997 320.428 333.538 320.086L330.367 319.326ZM341.083 315.827H336.676V317.882H338.969V325.803H341.083V315.827ZM342.542 321.962C342.542 324.359 344.255 326.027 346.548 326.027C348.841 326.027 350.642 324.389 350.642 321.962V319.654C350.642 317.227 348.856 315.604 346.577 315.604C344.285 315.604 342.542 317.242 342.542 319.669V321.962ZM344.657 319.669C344.657 318.433 345.476 317.703 346.577 317.703C347.694 317.703 348.513 318.448 348.513 319.654V321.962C348.513 323.183 347.664 323.912 346.548 323.912C345.461 323.912 344.657 323.198 344.657 321.962V319.669ZM351.819 321.962C351.819 324.359 353.531 326.027 355.824 326.027C358.117 326.027 359.919 324.389 359.919 321.962V319.654C359.919 317.227 358.132 315.604 355.854 315.604C353.561 315.604 351.819 317.242 351.819 319.669V321.962ZM353.933 319.669C353.933 318.433 354.752 317.703 355.854 317.703C356.971 317.703 357.79 318.448 357.79 319.654V321.962C357.79 323.183 356.941 323.912 355.824 323.912C354.738 323.912 353.933 323.198 353.933 321.962V319.669ZM360.437 323.57V325.803H362.596V323.57H360.437ZM363.292 321.962C363.292 324.359 365.004 326.027 367.297 326.027C369.59 326.027 371.391 324.389 371.391 321.962V319.654C371.391 317.227 369.605 315.604 367.327 315.604C365.034 315.604 363.292 317.242 363.292 319.669V321.962ZM365.406 319.669C365.406 318.433 366.225 317.703 367.327 317.703C368.443 317.703 369.262 318.448 369.262 319.654V321.962C369.262 323.183 368.413 323.912 367.297 323.912C366.21 323.912 365.406 323.198 365.406 321.962V319.669ZM372.568 321.962C372.568 324.359 374.281 326.027 376.573 326.027C378.866 326.027 380.668 324.389 380.668 321.962V319.654C380.668 317.227 378.881 315.604 376.603 315.604C374.31 315.604 372.568 317.242 372.568 319.669V321.962ZM374.683 319.669C374.683 318.433 375.501 317.703 376.603 317.703C377.72 317.703 378.539 318.448 378.539 319.654V321.962C378.539 323.183 377.69 323.912 376.573 323.912C375.487 323.912 374.683 323.198 374.683 321.962V319.669Z" fill="#12143D"/>
<line x1="146.474" y1="361.286" x2="401.081" y2="361.286" stroke="#F9F9F9" stroke-width="0.744465" stroke-linecap="round"/>
<rect x="146.102" y="315.502" width="128.048" height="17.8672" rx="5.21125" fill="#F9FAFB"/>
<rect x="146.102" y="336.346" width="58.8127" height="17.8672" rx="5.21125" fill="#F9FAFB"/>
<path d="M337.279 387.97C336.907 387.88 336.743 387.612 336.743 387.344C336.758 387.017 337.041 386.794 337.473 386.794H341.97V384.754H339.557V383.458H337.592V384.754H337.413C335.582 384.754 334.54 386.049 334.525 387.374C334.51 388.461 335.21 389.563 336.684 389.92L339.855 390.68C340.242 390.784 340.421 391.067 340.421 391.35C340.406 391.662 340.123 391.975 339.662 391.975H334.882V394H337.592V395.31H339.557V394H339.677C341.538 394 342.58 392.66 342.61 391.335C342.64 390.188 341.91 389.072 340.451 388.729L337.279 387.97ZM349.708 389.652C350.438 388.938 350.81 388.044 350.81 387.255C350.81 385.722 349.589 384.471 347.698 384.471H343.827V386.526H347.698C348.309 386.526 348.711 386.928 348.711 387.419C348.711 387.657 348.607 387.985 348.339 388.253L343.738 392.794V394.447H350.855V392.392H346.909L349.708 389.652ZM358.37 390.129V384.471H355.317L351.223 390.531V392.049H356.24V394.447H358.37V392.049H359.963V390.129H358.37ZM356.24 386.436V390.129H353.843L356.24 386.436ZM360.894 392.213V394.447H363.053V392.213H360.894ZM363.748 390.605C363.748 393.002 365.461 394.67 367.754 394.67C370.047 394.67 371.848 393.032 371.848 390.605V388.297C371.848 385.87 370.062 384.247 367.783 384.247C365.491 384.247 363.748 385.885 363.748 388.312V390.605ZM365.863 388.312C365.863 387.076 366.682 386.347 367.783 386.347C368.9 386.347 369.719 387.091 369.719 388.297V390.605C369.719 391.826 368.87 392.556 367.754 392.556C366.667 392.556 365.863 391.841 365.863 390.605V388.312ZM373.025 390.605C373.025 393.002 374.737 394.67 377.03 394.67C379.323 394.67 381.125 393.032 381.125 390.605V388.297C381.125 385.87 379.338 384.247 377.06 384.247C374.767 384.247 373.025 385.885 373.025 388.312V390.605ZM375.14 388.312C375.14 387.076 375.958 386.347 377.06 386.347C378.177 386.347 378.996 387.091 378.996 388.297V390.605C378.996 391.826 378.147 392.556 377.03 392.556C375.944 392.556 375.14 391.841 375.14 390.605V388.312Z" fill="#12143D"/>
<rect x="146.102" y="384.145" width="128.048" height="17.8672" rx="5.21125" fill="#F9FAFB"/>
<rect x="146.102" y="404.99" width="58.8127" height="17.8672" rx="5.21125" fill="#F9FAFB"/>
</g>
</g>
<path d="M107.57 53.1523H358.328C390.224 53.1523 416.081 79.0091 416.081 110.905V253.599C416.081 338.792 347.018 407.854 261.825 407.854C176.633 407.854 107.57 338.792 107.57 253.599V53.1523Z" stroke="white" stroke-width="4.09272"/>
<g filter="url(#filter0_bdii_367_13634)">
<rect x="55.0158" y="313.04" width="309.873" height="81.8543" rx="21.8278" fill="#17181B" fill-opacity="0.85" shape-rendering="crispEdges"/>
</g>
<mask id="mask1_367_13634" style="mask-type:alpha" maskUnits="userSpaceOnUse" x="55" y="313" width="310" height="82">
<rect x="55.0158" y="313.04" width="309.873" height="81.8543" rx="21.8278" fill="white"/>
</mask>
<g mask="url(#mask1_367_13634)">
<path d="M323.937 339.87C317.669 339.87 312.561 344.974 312.561 351.238C312.561 357.502 317.669 362.607 323.937 362.607C330.205 362.607 335.312 357.502 335.312 351.238C335.312 344.974 330.205 339.87 323.937 339.87ZM329.374 348.624L322.924 355.07C322.765 355.229 322.549 355.32 322.321 355.32C322.094 355.32 321.878 355.229 321.718 355.07L318.499 351.852C318.169 351.523 318.169 350.977 318.499 350.647C318.829 350.317 319.375 350.317 319.705 350.647L322.321 353.262L328.168 347.418C328.498 347.089 329.044 347.089 329.374 347.418C329.704 347.748 329.704 348.282 329.374 348.624Z" fill="#00D261"/>
<rect x="68.6666" y="322.589" width="56.6937" height="56.6937" rx="28.3469" fill="white"/>
<path d="M111.64 352.337H82.9911" stroke="url(#paint1_radial_367_13634)" stroke-width="2.04636" stroke-linecap="round" stroke-linejoin="round"/>
<path d="M109.089 346.593V344.529C109.089 341.718 106.809 339.438 103.996 339.438H102.352" stroke="url(#paint2_radial_367_13634)" stroke-width="2.04636" stroke-linecap="round" stroke-linejoin="round"/>
<path d="M85.5424 346.593V344.529C85.5424 341.718 87.822 339.438 90.6351 339.438H92.3213" stroke="url(#paint3_radial_367_13634)" stroke-width="2.04636" stroke-linecap="round" stroke-linejoin="round"/>
<path d="M109.089 352.336V357.894C109.089 360.707 106.809 362.987 103.996 362.987H102.352" stroke="url(#paint4_radial_367_13634)" stroke-width="2.04636" stroke-linecap="round" stroke-linejoin="round"/>
<path d="M85.5424 352.336V357.894C85.5424 360.707 87.822 362.987 90.6351 362.987H92.3213" stroke="url(#paint5_radial_367_13634)" stroke-width="2.04636" stroke-linecap="round" stroke-linejoin="round"/>
<path d="M143.353 334.493C141.204 334.493 140.079 336.031 140.079 337.618C140.079 338.892 140.873 340.198 142.576 340.611L146.545 341.554C147.057 341.67 147.289 342.033 147.289 342.397C147.289 342.844 146.942 343.274 146.363 343.274H140.509V345.572H146.446C148.645 345.572 149.786 343.985 149.786 342.364C149.786 341.058 148.992 339.718 147.272 339.321L143.32 338.395C142.857 338.28 142.626 337.916 142.626 337.569C142.626 337.155 142.924 336.775 143.519 336.775H149.058V334.493H143.353ZM159.137 340.462C158.806 338.495 157.218 337.089 154.953 337.089C152.291 337.089 150.621 339.007 150.621 341.455C150.621 343.902 152.291 345.82 154.953 345.82C157.202 345.82 158.789 344.398 159.137 342.43H156.805C156.54 343.158 155.846 343.654 154.97 343.654C153.663 343.654 152.853 342.662 152.853 341.455C152.853 340.247 153.663 339.239 154.97 339.239C155.862 339.239 156.54 339.751 156.805 340.462H159.137ZM166.538 338.395H166.455C165.942 337.651 165 337.089 163.809 337.089C161.478 337.073 159.874 338.925 159.874 341.471C159.874 344.067 161.561 345.82 163.793 345.82C165 345.803 165.942 345.241 166.455 344.481H166.538V345.572H168.754V337.337H166.538V338.395ZM164.339 343.703C163.032 343.703 162.123 342.744 162.123 341.455C162.123 340.165 163.032 339.206 164.339 339.206C165.628 339.206 166.538 340.181 166.538 341.455C166.538 342.678 165.661 343.703 164.339 343.703ZM175.256 337.106C174.231 337.106 173.305 337.569 172.759 338.329H172.676V337.337H170.51V345.572H172.743V341.306C172.743 340.066 173.602 339.288 174.611 339.288C175.537 339.288 176.298 339.95 176.298 341.14V345.572H178.53V340.81C178.53 338.445 177.257 337.106 175.256 337.106ZM186.589 345.572V341.802H190.955C191.385 341.802 191.649 342.017 191.649 342.463V345.572H193.997V342.033C193.997 340.876 193.534 340.198 192.641 339.966V339.917C193.319 339.421 193.733 338.644 193.733 337.585C193.733 335.584 192.145 334.493 189.913 334.493H184.241V345.572H186.589ZM186.589 336.775H189.748C190.674 336.775 191.385 337.321 191.385 338.214C191.385 339.14 190.69 339.669 189.731 339.669H186.589V336.775ZM199.456 337.089C196.926 337.089 195.157 339.007 195.157 341.455C195.157 343.77 196.662 345.82 199.44 345.82C201.391 345.82 203.028 344.795 203.574 342.959H201.242C200.945 343.488 200.201 343.836 199.44 343.803C198.299 343.753 197.571 343.042 197.439 342.199H203.656C203.954 339.288 202.201 337.089 199.456 337.089ZM199.44 339.09C200.399 339.09 201.143 339.603 201.391 340.462H197.456C197.687 339.636 198.464 339.09 199.44 339.09ZM213.007 340.462C212.676 338.495 211.088 337.089 208.823 337.089C206.161 337.089 204.491 339.007 204.491 341.455C204.491 343.902 206.161 345.82 208.823 345.82C211.072 345.82 212.659 344.398 213.007 342.43H210.675C210.411 343.158 209.716 343.654 208.84 343.654C207.533 343.654 206.723 342.662 206.723 341.455C206.723 340.247 207.533 339.239 208.84 339.239C209.733 339.239 210.411 339.751 210.675 340.462H213.007ZM218.027 337.089C215.497 337.089 213.727 339.007 213.727 341.455C213.727 343.77 215.232 345.82 218.01 345.82C219.961 345.82 221.598 344.795 222.144 342.959H219.813C219.515 343.488 218.771 343.836 218.01 343.803C216.869 343.753 216.142 343.042 216.009 342.199H222.227C222.524 339.288 220.772 337.089 218.027 337.089ZM218.01 339.09C218.969 339.09 219.713 339.603 219.961 340.462H216.026C216.257 339.636 217.035 339.09 218.01 339.09ZM223.541 333.666V336.279H225.773V333.666H223.541ZM223.541 337.337V345.572H225.773V337.337H223.541ZM232.457 337.089C231.283 337.089 230.324 337.651 229.812 338.395H229.729V337.337H227.513V348.879H229.729V344.481H229.812C230.324 345.241 231.267 345.803 232.474 345.82C234.706 345.82 236.393 344.067 236.393 341.471C236.393 338.925 234.789 337.073 232.457 337.089ZM231.928 343.703C230.605 343.703 229.729 342.678 229.729 341.455C229.729 340.181 230.638 339.206 231.928 339.206C233.234 339.206 234.144 340.165 234.144 341.455C234.144 342.744 233.234 343.703 231.928 343.703ZM243.644 337.337H240.254V334.493H238.022V337.337H236.864V339.487H238.022V343.158C238.022 344.646 238.997 345.572 240.502 345.572H243.644V343.406H240.915C240.519 343.406 240.254 343.174 240.254 342.777V339.487H243.644V337.337Z" fill="white"/>
<path d="M148.208 364.864H145.345V367.798H143.842V364.864H140.979V363.504H143.842V360.57H145.345V363.504H148.208V364.864ZM157.164 360.357H152.415V363.178C152.614 362.913 152.907 362.691 153.294 362.511C153.691 362.332 154.112 362.242 154.556 362.242C155.349 362.242 155.992 362.412 156.483 362.752C156.984 363.092 157.338 363.522 157.546 364.042C157.764 364.562 157.872 365.11 157.872 365.686C157.872 366.385 157.735 367.009 157.461 367.557C157.197 368.096 156.795 368.521 156.256 368.833C155.727 369.145 155.075 369.3 154.301 369.3C153.271 369.3 152.444 369.045 151.82 368.535C151.197 368.025 150.823 367.349 150.701 366.508H152.274C152.378 366.952 152.609 367.307 152.968 367.571C153.327 367.826 153.776 367.954 154.315 367.954C154.986 367.954 155.486 367.751 155.817 367.345C156.157 366.938 156.327 366.4 156.327 365.729C156.327 365.048 156.157 364.529 155.817 364.17C155.477 363.801 154.976 363.617 154.315 363.617C153.852 363.617 153.46 363.735 153.138 363.971C152.827 364.198 152.6 364.51 152.458 364.907H150.927V358.94H157.164V360.357ZM159.554 364C159.554 362.365 159.828 361.089 160.376 360.173C160.934 359.247 161.888 358.784 163.239 358.784C164.591 358.784 165.54 359.247 166.088 360.173C166.646 361.089 166.924 362.365 166.924 364C166.924 365.653 166.646 366.948 166.088 367.883C165.54 368.809 164.591 369.272 163.239 369.272C161.888 369.272 160.934 368.809 160.376 367.883C159.828 366.948 159.554 365.653 159.554 364ZM165.337 364C165.337 363.234 165.285 362.587 165.181 362.058C165.087 361.529 164.888 361.099 164.586 360.768C164.283 360.428 163.835 360.258 163.239 360.258C162.644 360.258 162.195 360.428 161.893 360.768C161.59 361.099 161.387 361.529 161.283 362.058C161.189 362.587 161.142 363.234 161.142 364C161.142 364.793 161.189 365.459 161.283 365.998C161.378 366.537 161.576 366.971 161.879 367.302C162.191 367.633 162.644 367.798 163.239 367.798C163.835 367.798 164.283 367.633 164.586 367.302C164.898 366.971 165.101 366.537 165.195 365.998C165.29 365.459 165.337 364.793 165.337 364ZM179.417 362.384C179.417 362.885 179.299 363.357 179.062 363.801C178.826 364.245 178.448 364.609 177.929 364.893C177.409 365.167 176.743 365.304 175.93 365.304H174.144V369.3H172.528V359.45H175.93C176.686 359.45 177.324 359.582 177.844 359.847C178.373 360.102 178.765 360.451 179.02 360.896C179.284 361.34 179.417 361.836 179.417 362.384ZM175.93 363.985C176.544 363.985 177.003 363.848 177.305 363.574C177.607 363.291 177.758 362.894 177.758 362.384C177.758 361.307 177.149 360.768 175.93 360.768H174.144V363.985H175.93ZM184.345 369.428C183.608 369.428 182.942 369.263 182.347 368.932C181.751 368.592 181.284 368.119 180.944 367.515C180.603 366.9 180.433 366.192 180.433 365.389C180.433 364.595 180.608 363.891 180.958 363.277C181.307 362.663 181.785 362.19 182.389 361.859C182.994 361.529 183.67 361.363 184.416 361.363C185.163 361.363 185.838 361.529 186.443 361.859C187.048 362.19 187.525 362.663 187.874 363.277C188.224 363.891 188.399 364.595 188.399 365.389C188.399 366.182 188.219 366.886 187.86 367.5C187.501 368.115 187.01 368.592 186.386 368.932C185.772 369.263 185.092 369.428 184.345 369.428ZM184.345 368.025C184.761 368.025 185.148 367.926 185.507 367.727C185.876 367.529 186.174 367.231 186.4 366.834C186.627 366.437 186.741 365.956 186.741 365.389C186.741 364.822 186.632 364.344 186.415 363.957C186.197 363.56 185.909 363.263 185.55 363.064C185.191 362.866 184.804 362.766 184.388 362.766C183.972 362.766 183.585 362.866 183.226 363.064C182.876 363.263 182.597 363.56 182.389 363.957C182.181 364.344 182.077 364.822 182.077 365.389C182.077 366.23 182.29 366.882 182.715 367.345C183.15 367.798 183.693 368.025 184.345 368.025ZM190.818 360.456C190.525 360.456 190.28 360.357 190.081 360.159C189.883 359.96 189.784 359.714 189.784 359.422C189.784 359.129 189.883 358.883 190.081 358.685C190.28 358.486 190.525 358.387 190.818 358.387C191.102 358.387 191.343 358.486 191.541 358.685C191.739 358.883 191.839 359.129 191.839 359.422C191.839 359.714 191.739 359.96 191.541 360.159C191.343 360.357 191.102 360.456 190.818 360.456ZM191.612 361.491V369.3H189.996V361.491H191.612ZM197.673 361.363C198.288 361.363 198.836 361.491 199.318 361.746C199.809 362.001 200.192 362.379 200.466 362.88C200.74 363.381 200.877 363.985 200.877 364.694V369.3H199.275V364.935C199.275 364.236 199.1 363.702 198.751 363.333C198.401 362.955 197.924 362.766 197.319 362.766C196.714 362.766 196.233 362.955 195.873 363.333C195.524 363.702 195.349 364.236 195.349 364.935V369.3H193.733V361.491H195.349V362.384C195.614 362.063 195.949 361.812 196.355 361.633C196.771 361.453 197.21 361.363 197.673 361.363ZM204.823 362.809V367.132C204.823 367.425 204.889 367.637 205.021 367.77C205.163 367.893 205.399 367.954 205.73 367.954H206.722V369.3H205.446C204.719 369.3 204.161 369.13 203.774 368.79C203.387 368.45 203.193 367.897 203.193 367.132V362.809H202.272V361.491H203.193V359.549H204.823V361.491H206.722V362.809H204.823ZM211.046 369.428C210.432 369.428 209.879 369.319 209.388 369.102C208.906 368.875 208.523 368.573 208.24 368.195C207.956 367.808 207.805 367.378 207.786 366.905H209.458C209.487 367.236 209.643 367.515 209.926 367.741C210.219 367.959 210.583 368.067 211.018 368.067C211.471 368.067 211.821 367.982 212.066 367.812C212.321 367.633 212.449 367.406 212.449 367.132C212.449 366.839 212.307 366.622 212.024 366.48C211.75 366.338 211.31 366.182 210.706 366.012C210.12 365.852 209.643 365.696 209.274 365.544C208.906 365.393 208.584 365.162 208.31 364.85C208.046 364.538 207.914 364.127 207.914 363.617C207.914 363.201 208.036 362.823 208.282 362.483C208.528 362.133 208.877 361.859 209.331 361.661C209.794 361.463 210.323 361.363 210.918 361.363C211.807 361.363 212.52 361.59 213.059 362.044C213.607 362.488 213.899 363.097 213.937 363.872H212.321C212.293 363.522 212.151 363.244 211.896 363.036C211.641 362.828 211.296 362.724 210.862 362.724C210.436 362.724 210.11 362.804 209.884 362.965C209.657 363.126 209.543 363.338 209.543 363.603C209.543 363.811 209.619 363.985 209.77 364.127C209.921 364.269 210.106 364.382 210.323 364.467C210.54 364.543 210.862 364.642 211.287 364.765C211.854 364.916 212.317 365.072 212.676 365.233C213.044 365.384 213.361 365.611 213.625 365.913C213.89 366.215 214.027 366.617 214.036 367.118C214.036 367.562 213.914 367.959 213.668 368.308C213.422 368.658 213.073 368.932 212.619 369.13C212.175 369.329 211.651 369.428 211.046 369.428Z" fill="#9CA3AF"/>
<rect x="55.0159" y="392.166" width="316.698" height="2.72848" rx="1.36424" fill="#C4E0D1"/>
<rect x="55.0159" y="392.166" width="203.397" height="2.72848" rx="1.36424" fill="#00D261"/>
</g>
<g filter="url(#filter1_d_367_13634)">
<ellipse cx="437.238" cy="240.735" rx="32.7619" ry="32.7417" fill="white"/>
</g>
<path d="M442.98 226.183C445.047 226.183 447.114 226.183 449.181 226.184C449.182 226.649 449.179 227.114 449.183 227.58C448.658 227.603 448.121 227.662 447.638 227.881C447.147 228.101 446.736 228.502 446.524 228.998C444.011 234.903 441.499 240.808 438.989 246.714C438.945 246.811 438.91 246.912 438.86 247.005C437.961 246.995 437.061 247.004 436.162 247.001C435.765 246.213 435.375 245.422 434.975 244.635C434.516 245.864 434.055 247.09 433.597 248.318C436.562 248.318 439.528 248.318 442.494 248.318C443.037 248.326 443.596 248.303 444.104 248.091C444.948 247.752 445.62 247.097 446.167 246.387C446.827 245.526 447.328 244.558 447.775 243.573C448.275 243.569 448.776 243.575 449.276 243.574C448.327 245.6 447.373 247.624 446.416 249.646C439.582 249.646 432.748 249.646 425.914 249.646C426.081 249.212 426.239 248.774 426.418 248.344C426.428 248.3 426.484 248.311 426.517 248.307C427.37 248.301 428.229 248.268 429.066 248.09C429.502 247.988 429.953 247.852 430.288 247.541C430.465 247.372 430.52 247.125 430.579 246.897C431.386 244.739 432.194 242.581 433.002 240.423C431.295 236.788 429.582 233.155 427.875 229.521C427.737 229.203 427.556 228.888 427.27 228.681C426.679 228.239 425.911 228.183 425.2 228.154C425.199 227.633 425.2 227.113 425.2 226.592C427.599 226.591 429.998 226.591 432.398 226.591C432.398 227.112 432.398 227.633 432.397 228.154C432.085 228.174 431.753 228.169 431.47 228.324C431.329 228.39 431.247 228.557 431.283 228.709C431.327 228.957 431.524 229.135 431.623 229.359C432.636 231.54 433.65 233.721 434.666 235.902C435.175 234.479 435.684 233.056 436.196 231.634C436.271 231.436 436.297 231.208 436.212 231.009C436.144 230.852 435.992 230.755 435.841 230.69C435.549 230.569 435.228 230.57 434.918 230.548C435.076 230.108 435.235 229.669 435.399 229.232C435.437 229.207 435.49 229.226 435.534 229.22C437.968 229.221 440.403 229.22 442.838 229.221C442.669 229.662 442.502 230.104 442.336 230.546C441.749 230.574 441.145 230.588 440.595 230.817C440.343 230.923 440.104 231.084 439.955 231.317C439.852 231.488 439.788 231.679 439.718 231.865C438.701 234.637 437.675 237.406 436.669 240.183C437.226 241.441 437.807 242.689 438.375 243.943C440.439 239.072 442.502 234.202 444.568 229.333C444.707 229.04 444.934 228.772 444.952 228.436C444.969 228.172 444.773 227.944 444.546 227.836C444.058 227.611 443.508 227.6 442.98 227.581C442.98 227.115 442.98 226.649 442.98 226.183V226.183ZM446.733 252.406C447.384 253.08 448.031 253.759 448.676 254.439C448.675 253.807 448.678 253.175 448.678 252.543C448.789 252.543 448.901 252.542 449.013 252.54C449.013 253.443 449.013 254.345 449.013 255.248C448.361 254.577 447.718 253.897 447.069 253.222C447.07 253.858 447.068 254.495 447.068 255.131C446.956 255.132 446.844 255.132 446.733 255.132C446.732 254.223 446.732 253.314 446.733 252.406V252.406ZM427.767 252.499C428.485 252.389 429.244 252.95 429.308 253.682C429.368 254.1 429.206 254.537 428.899 254.825C428.395 255.318 427.489 255.309 426.999 254.798C426.735 254.542 426.584 254.173 426.6 253.805C426.607 253.164 427.138 252.591 427.767 252.499V252.499ZM427.767 252.83C427.349 252.898 427.009 253.265 426.951 253.681C426.871 254.153 427.163 254.661 427.619 254.815C428.018 254.966 428.504 254.824 428.76 254.483C429.091 254.068 429.035 253.397 428.628 253.052C428.399 252.844 428.067 252.776 427.767 252.83V252.83ZM432.951 252.638C433.318 252.362 433.919 252.477 434.131 252.894C434.043 252.944 433.954 252.994 433.866 253.044C433.706 252.795 433.317 252.734 433.103 252.945C433.012 253.012 433.022 253.133 433.032 253.233C433.058 253.363 433.197 253.418 433.299 253.479C433.562 253.618 433.879 253.698 434.064 253.949C434.27 254.23 434.236 254.647 434.011 254.907C433.776 255.192 433.345 255.261 433.016 255.112C432.763 254.987 432.607 254.723 432.557 254.453C432.67 254.426 432.783 254.402 432.897 254.376C432.908 254.623 433.1 254.872 433.36 254.876C433.712 254.915 433.991 254.458 433.786 254.167C433.568 253.869 433.146 253.865 432.895 253.608C432.599 253.366 432.629 252.845 432.951 252.638V252.638ZM444.952 252.497C445.422 252.438 445.908 252.655 446.197 253.027C446.613 253.548 446.546 254.378 446.052 254.826C445.77 255.105 445.355 255.22 444.966 255.178C444.581 255.153 444.22 254.937 443.998 254.625C443.759 254.292 443.697 253.847 443.81 253.456C443.958 252.949 444.43 252.563 444.952 252.497ZM444.894 252.835C444.375 252.923 444.005 253.475 444.096 253.988C444.153 254.482 444.622 254.884 445.118 254.875C445.456 254.881 445.779 254.689 445.961 254.409C446.238 254.007 446.165 253.415 445.808 253.084C445.575 252.848 445.214 252.768 444.894 252.835V252.835ZM425.469 252.541C425.576 252.54 425.683 252.54 425.79 252.541C425.79 253.306 425.79 254.071 425.79 254.836C426.056 254.837 426.322 254.836 426.588 254.836C426.588 254.935 426.588 255.033 426.588 255.131C426.215 255.132 425.842 255.132 425.469 255.131C425.469 254.268 425.469 253.404 425.469 252.541V252.541ZM429.568 252.543C429.681 252.542 429.794 252.542 429.908 252.543C429.909 253.052 429.907 253.562 429.909 254.072C429.914 254.296 429.942 254.543 430.101 254.716C430.353 254.963 430.849 254.928 431.025 254.607C431.114 254.456 431.14 254.278 431.137 254.106C431.135 253.585 431.135 253.064 431.135 252.543C431.249 252.542 431.362 252.542 431.475 252.543C431.475 253.074 431.477 253.606 431.475 254.138C431.476 254.379 431.434 254.634 431.279 254.829C430.948 255.288 430.178 255.314 429.815 254.88C429.642 254.699 429.571 254.444 429.568 254.199C429.567 253.647 429.568 253.095 429.568 252.543V252.543ZM431.894 252.541C432.006 252.54 432.118 252.54 432.229 252.541C432.229 253.404 432.23 254.268 432.229 255.132C432.118 255.132 432.006 255.132 431.894 255.131C431.895 254.268 431.895 253.404 431.894 252.541ZM435.251 252.543C435.374 252.54 435.497 252.54 435.62 252.541C435.878 253.17 436.131 253.801 436.384 254.433C436.636 253.804 436.896 253.177 437.143 252.546C437.269 252.535 437.396 252.542 437.522 252.541C437.146 253.457 436.768 254.372 436.388 255.287C436.001 254.376 435.629 253.458 435.251 252.543ZM437.676 252.54C437.787 252.542 437.899 252.543 438.011 252.543C438.015 253.045 438.01 253.547 438.014 254.049C438.022 254.287 438.04 254.557 438.223 254.734C438.433 254.914 438.767 254.925 438.992 254.765C439.122 254.672 439.194 254.518 439.222 254.364C439.267 254.1 439.251 253.831 439.254 253.564C439.256 253.224 439.256 252.883 439.255 252.543C439.363 252.542 439.47 252.542 439.578 252.543C439.583 253.014 439.579 253.486 439.58 253.958C439.588 254.25 439.578 254.568 439.4 254.815C439.088 255.265 438.37 255.313 437.975 254.948C437.778 254.765 437.678 254.496 437.677 254.23C437.674 253.667 437.676 253.104 437.676 252.54ZM439.999 252.543C440.115 252.543 440.232 252.542 440.348 252.541C440.348 253.404 440.348 254.268 440.348 255.131C440.231 255.132 440.114 255.132 439.997 255.131C439.996 254.268 440 253.406 439.999 252.543ZM440.557 252.543C441.603 252.544 442.648 252.541 443.693 252.541C443.693 252.644 443.693 252.748 443.693 252.851C443.492 252.852 443.292 252.851 443.092 252.852C443.091 253.612 443.092 254.371 443.092 255.131C442.975 255.132 442.859 255.132 442.742 255.131C442.741 254.371 442.744 253.612 442.741 252.852C442.33 252.852 441.92 252.851 441.51 252.852C441.509 253.612 441.51 254.371 441.51 255.131C441.403 255.132 441.296 255.132 441.189 255.131C441.188 254.371 441.189 253.612 441.188 252.852C440.978 252.851 440.768 252.852 440.557 252.851C440.557 252.748 440.557 252.645 440.557 252.543V252.543Z" fill="black"/>
<g filter="url(#filter2_d_367_13634)">
<ellipse cx="72.7619" cy="49.7417" rx="32.7619" ry="32.7417" fill="white"/>
</g>
<path fill-rule="evenodd" clip-rule="evenodd" d="M85.5058 56.0837C85.5058 60.7694 81.7022 64.5707 77.0137 64.5707C75.6629 64.5707 74.39 64.2605 73.2411 63.6863C72.1076 64.245 70.8191 64.5707 69.4842 64.5707C64.7954 64.5707 60.9918 60.7694 60.9918 56.0837C60.9918 51.398 64.7954 47.5968 69.4839 47.5968C70.8347 47.5968 72.1076 47.9071 73.2409 48.4656C74.3744 47.9071 75.6629 47.5968 77.0137 47.5968C81.7022 47.5968 85.5058 51.398 85.5058 56.0837V56.0837ZM83.8293 56.0837C83.8293 52.329 80.7706 49.2725 77.0137 49.2725C76.2995 49.2725 75.601 49.3811 74.9644 49.5829C76.2684 50.6688 77.2156 52.1273 77.6811 53.803H75.9268C75.434 52.4041 74.4962 51.2051 73.2567 50.3896C72.0301 51.1962 71.0985 52.3912 70.6019 53.803H68.8476C69.307 52.1505 70.2537 50.6745 71.5643 49.5673C70.8955 49.3613 70.1994 49.2567 69.4995 49.257C65.7425 49.257 62.6841 52.3135 62.6841 56.0682C62.6841 59.8228 65.7425 62.8796 69.4995 62.8796C70.2136 62.8796 70.8966 62.771 71.5332 62.5692C69.8411 61.1574 68.7389 59.0783 68.5681 56.751H72.6045V58.411L70.6328 58.4421C71.1452 59.8075 72.0612 60.9558 73.2567 61.747C74.4519 60.9556 75.368 59.8075 75.8804 58.4421L73.9086 58.411V56.751H77.9452C77.7589 59.0783 76.6412 61.1419 74.9488 62.5537C75.601 62.7555 76.2995 62.8796 77.0137 62.8796C80.7862 62.8951 83.8293 59.8539 83.8293 56.0837Z" fill="black"/>
<path d="M84.096 37.2401L84.0438 37.2575C83.8409 36.817 83.551 36.4664 83.174 36.2056C82.803 35.9449 82.3362 35.8146 81.7739 35.8146C81.4608 35.8146 81.1621 35.8812 80.878 36.0145C80.5938 36.1419 80.3445 36.3244 80.13 36.5621C79.9212 36.7938 79.753 37.0749 79.6256 37.4053C79.498 37.7355 79.4342 38.1005 79.4342 38.5004C79.4342 38.9002 79.498 39.2652 79.6256 39.5955C79.7532 39.9258 79.9213 40.2098 80.13 40.4475C80.3445 40.6792 80.5937 40.8588 80.8777 40.9863C81.1621 41.1138 81.4608 41.1776 81.7739 41.1776C82.3305 41.1776 82.7827 41.0907 83.1306 40.9169C83.4842 40.7371 83.7829 40.4647 84.0265 40.0996L84.0786 40.117L84.0612 40.6732C83.9278 40.8123 83.7742 40.937 83.6002 41.0471C83.4264 41.1515 83.238 41.2414 83.035 41.3168C82.8379 41.3861 82.6321 41.4382 82.4176 41.4731C82.2029 41.5136 81.9884 41.5339 81.7739 41.5339C81.3274 41.5339 80.9012 41.4615 80.4954 41.3168C80.0895 41.1717 79.7328 40.9689 79.4255 40.7082C79.1182 40.4416 78.8746 40.1229 78.6949 39.7521C78.5152 39.3755 78.4253 38.9582 78.4253 38.5004C78.4253 38.0426 78.5152 37.6282 78.6951 37.2573C78.8747 36.8806 79.1182 36.5591 79.4255 36.2927C79.7328 36.026 80.0895 35.8232 80.4954 35.6841C80.9012 35.5394 81.3273 35.467 81.7737 35.467C81.9883 35.467 82.2029 35.4843 82.4176 35.5189C82.6321 35.5538 82.8379 35.6088 83.035 35.6841C83.2379 35.7537 83.4263 35.8436 83.6002 35.9538C83.7742 36.058 83.9278 36.1796 84.0612 36.3187L84.096 37.2401ZM64.9302 38.9003C64.8664 38.9293 64.8056 38.9669 64.7477 39.0132C64.6898 39.0596 64.6608 39.1233 64.6608 39.2045V40.2738C64.3823 40.6735 64.0256 40.9836 63.5906 41.2039C63.1559 41.424 62.6747 41.5341 62.1471 41.5341C61.7006 41.5341 61.2743 41.4617 60.8684 41.3168C60.4626 41.1719 60.106 40.969 59.7987 40.7082C59.4913 40.4416 59.2478 40.123 59.0681 39.7523C58.8884 39.3755 58.7985 38.9582 58.7985 38.5004C58.7985 38.0428 58.8884 37.6285 59.0683 37.2575C59.2479 36.8809 59.4913 36.5593 59.7987 36.2927C60.106 36.026 60.4626 35.8233 60.8684 35.6843C61.2743 35.5394 61.7006 35.467 62.1471 35.467C62.3616 35.467 62.576 35.4844 62.7905 35.5191C63.0052 35.5538 63.211 35.6089 63.4079 35.6843C63.611 35.7538 63.7995 35.8436 63.9734 35.9538C64.1474 36.0581 64.301 36.1798 64.4344 36.3187L64.4694 37.2401L64.417 37.2575C64.2143 36.8172 63.9244 36.4666 63.5474 36.2058C63.1762 35.945 62.7094 35.8146 62.1471 35.8146C61.834 35.8146 61.5353 35.8812 61.2512 36.0145C60.9672 36.1421 60.7179 36.3246 60.5034 36.5621C60.2946 36.794 60.1264 37.075 59.9988 37.4053C59.8712 37.7356 59.8074 38.1007 59.8074 38.5004C59.8074 38.8944 59.8683 39.2565 59.9903 39.5868C60.1177 39.9173 60.2858 40.2013 60.4945 40.4388C60.7091 40.6705 60.9585 40.853 61.2425 40.9863C61.5266 41.1138 61.8282 41.1776 62.1471 41.1776C62.7501 41.1776 63.2662 41.0617 63.6951 40.83V39.2045C63.6951 39.1235 63.6633 39.0597 63.5996 39.0132C63.5416 38.9669 63.4837 38.9292 63.4258 38.9001L63.4335 38.8567C63.4625 38.862 63.5147 38.8678 63.5902 38.8741C63.6656 38.8794 63.7439 38.8852 63.825 38.8914H64.573C64.6426 38.8861 64.7093 38.8803 64.7731 38.8741C64.8368 38.8687 64.886 38.8629 64.9208 38.8567L64.9302 38.9003ZM71.2299 35.6494C71.172 35.6783 71.114 35.716 71.0561 35.7625C70.998 35.8088 70.9661 35.8957 70.9603 36.0232C70.955 36.1623 70.9492 36.339 70.9429 36.5534C70.9429 36.7621 70.9403 36.9998 70.9351 37.2664C70.9351 37.5329 70.9325 37.8226 70.9271 38.1355V39.109C70.9218 39.4856 70.8754 39.8072 70.7879 40.0738C70.701 40.3404 70.5851 40.5635 70.4401 40.7429C70.3009 40.9227 70.1443 41.0647 69.9704 41.1689C69.8023 41.2733 69.6341 41.3515 69.466 41.4036C69.3036 41.4615 69.1499 41.4963 69.005 41.508C68.86 41.5254 68.7469 41.5341 68.6656 41.5341C68.3351 41.5341 68.0162 41.4907 67.7089 41.4038C67.4016 41.3226 67.132 41.1893 66.9001 41.0039C66.6682 40.8184 66.4827 40.5779 66.3435 40.2825C66.2044 39.9869 66.1348 39.6276 66.1348 39.2045V37.3183C66.1348 37.0402 66.1321 36.7911 66.1268 36.571C66.1268 36.3449 66.1241 36.1623 66.1188 36.0232C66.1136 35.8957 66.0817 35.8089 66.0232 35.7627C65.9652 35.7162 65.9073 35.6785 65.8494 35.6494L65.8572 35.6059C65.8861 35.6113 65.9326 35.6171 65.9967 35.6233C66.0662 35.6286 66.1357 35.6344 66.2052 35.6407C66.2807 35.6407 66.3531 35.6433 66.4224 35.6487H66.7357C66.8054 35.6433 66.8779 35.6407 66.9532 35.6407C67.0286 35.6353 67.0982 35.6296 67.1619 35.6233C67.2314 35.618 67.2807 35.6122 67.3097 35.6059L67.3177 35.6494C67.2539 35.6783 67.193 35.716 67.1349 35.7625C67.0828 35.8088 67.0538 35.8957 67.0481 36.0232C67.0427 36.1623 67.0369 36.3448 67.0307 36.5708V39.2045C67.0307 39.8362 67.1785 40.3027 67.4743 40.604C67.77 40.9053 68.2078 41.056 68.7875 41.056C68.9557 41.056 69.147 41.0357 69.3615 40.995C69.5761 40.9487 69.7762 40.856 69.9617 40.7169C70.153 40.5778 70.3125 40.3808 70.4401 40.1259C70.5735 39.8709 70.6402 39.5319 70.6402 39.109C70.6402 38.6512 70.6375 38.26 70.6322 37.9355C70.6322 37.6052 70.6295 37.3241 70.6242 37.0923C70.6242 36.8546 70.6215 36.6518 70.6162 36.4839C70.611 36.3159 70.6052 36.1623 70.5988 36.0232C70.5936 35.8957 70.5617 35.8088 70.5032 35.7625C70.4453 35.7162 70.3873 35.6785 70.3294 35.6494L70.3372 35.6059C70.4011 35.6175 70.4735 35.6292 70.5546 35.6409C70.6359 35.6461 70.7114 35.6487 70.781 35.6487C70.8446 35.6487 70.917 35.6461 70.9983 35.6409C71.0851 35.6293 71.1605 35.6177 71.2244 35.6059L71.2299 35.6494ZM77.5411 37.2401L77.4889 37.2575C77.2859 36.817 76.9959 36.4664 76.6191 36.2056C76.248 35.9449 75.7812 35.8146 75.2187 35.8146C74.9058 35.8146 74.6072 35.8812 74.323 36.0145C74.0389 36.1419 73.7896 36.3244 73.5751 36.5621C73.3662 36.7938 73.1981 37.0749 73.0706 37.4053C72.9431 37.7355 72.8793 38.1005 72.8793 38.5004C72.8793 38.9002 72.9431 39.2652 73.0706 39.5955C73.1981 39.9258 73.3662 40.2098 73.5751 40.4475C73.7896 40.6792 74.0388 40.8588 74.3228 40.9863C74.6071 41.1138 74.9058 41.1776 75.2187 41.1776C75.7755 41.1776 76.2278 41.0907 76.5756 40.9169C76.9293 40.7371 77.2279 40.4647 77.4715 40.0996L77.5237 40.117L77.5063 40.6732C77.3729 40.8123 77.2192 40.937 77.0453 41.0471C76.8715 41.1515 76.6831 41.2414 76.48 41.3168C76.2829 41.3861 76.0771 41.4382 75.8627 41.4731C75.648 41.5136 75.4334 41.5339 75.219 41.5339C74.7723 41.5339 74.3461 41.4615 73.9403 41.3168C73.5345 41.1717 73.1779 40.9689 72.8706 40.7082C72.5632 40.4416 72.3197 40.1229 72.14 39.7521C71.9601 39.3755 71.8702 38.9582 71.8702 38.5004C71.8702 38.0426 71.9601 37.6282 72.14 37.2573C72.3199 36.8806 72.5634 36.5591 72.8706 36.2927C73.1779 36.026 73.5345 35.8232 73.9403 35.6841C74.3462 35.5394 74.7725 35.467 75.219 35.467C75.4334 35.467 75.6479 35.4843 75.8624 35.5189C76.0771 35.5538 76.2829 35.6088 76.4798 35.6841C76.6829 35.7537 76.8714 35.8436 77.0453 35.9538C77.2192 36.058 77.3729 36.1796 77.5063 36.3187L77.5411 37.2401ZM86.7174 41.386C86.6884 41.3808 86.6392 41.3751 86.5697 41.3689C86.506 41.3689 86.4364 41.3662 86.3609 41.3609C86.2855 41.3609 86.213 41.3583 86.1435 41.3531H85.6219C85.5522 41.3583 85.4825 41.364 85.4129 41.3702C85.3491 41.3756 85.2999 41.3814 85.2651 41.3876L85.2571 41.3529C85.3151 41.3239 85.373 41.2862 85.4309 41.2398C85.489 41.1934 85.5209 41.1065 85.5267 40.979C85.5321 40.8399 85.5347 40.695 85.5347 40.5444C85.5401 40.3937 85.5427 40.2227 85.5427 40.0315V36.9634C85.5427 36.772 85.5401 36.6039 85.5347 36.459C85.5347 36.3083 85.5321 36.1635 85.5267 36.0246C85.5214 35.8971 85.4895 35.8102 85.4312 35.7638C85.3732 35.7116 85.3153 35.671 85.2574 35.642L85.2651 35.6073C85.2999 35.6189 85.3491 35.6276 85.4129 35.6334C85.4825 35.6334 85.5521 35.636 85.6216 35.6414C85.6971 35.6467 85.7696 35.6494 85.8391 35.6494H86.1435C86.213 35.644 86.2854 35.6414 86.3607 35.6414C86.4363 35.636 86.506 35.6302 86.5697 35.624C86.6392 35.6187 86.6884 35.6129 86.7174 35.6066L86.7254 35.6416C86.6617 35.6705 86.6008 35.7111 86.5427 35.7632C86.4906 35.8095 86.4616 35.8963 86.4558 36.0237C86.4505 36.1629 86.4447 36.3079 86.4384 36.4586V40.5439C86.4438 40.6944 86.4496 40.8392 86.4558 40.9783C86.461 41.1058 86.49 41.1928 86.5427 41.2391C86.6006 41.2854 86.6615 41.3231 86.7254 41.3522L86.7174 41.386Z" fill="black"/>
<g filter="url(#filter3_d_367_13634)">
<ellipse cx="418.127" cy="60.6557" rx="32.7619" ry="32.7417" fill="white"/>
</g>
<path d="M425.41 48.1713C428.279 48.1713 430.607 60.2681 430.607 75.2076H434.793C434.793 59.1236 430.57 46.1039 425.398 46.1039C422.443 46.1039 419.832 50.0049 418.108 56.1333C416.385 50.0049 413.774 46.1039 410.843 46.1039C405.672 46.1039 401.46 59.1113 401.46 75.1953H405.647C405.647 60.2558 407.95 48.1713 410.819 48.1713C413.688 48.1713 416.015 59.3452 416.015 73.1279H420.177C420.177 59.3452 422.517 48.1713 425.386 48.1713" fill="#FFCC00"/>
<defs>
<filter id="filter0_bdii_367_13634" x="0.446304" y="251.649" width="419.012" height="190.993" filterUnits="userSpaceOnUse" color-interpolation-filters="sRGB">
<feFlood flood-opacity="0" result="BackgroundImageFix"/>
<feGaussianBlur in="BackgroundImageFix" stdDeviation="6.13907"/>
<feComposite in2="SourceAlpha" operator="in" result="effect1_backgroundBlur_367_13634"/>
<feColorMatrix in="SourceAlpha" type="matrix" values="0 0 0 0 0 0 0 0 0 0 0 0 0 0 0 0 0 0 127 0" result="hardAlpha"/>
<feOffset dy="-6.82119"/>
<feGaussianBlur stdDeviation="27.2848"/>
<feComposite in2="hardAlpha" operator="out"/>
<feColorMatrix type="matrix" values="0 0 0 0 0.392157 0 0 0 0 0.454902 0 0 0 0 0.545098 0 0 0 0.05 0"/>
<feBlend mode="normal" in2="effect1_backgroundBlur_367_13634" result="effect2_dropShadow_367_13634"/>
<feBlend mode="normal" in="SourceGraphic" in2="effect2_dropShadow_367_13634" result="shape"/>
<feColorMatrix in="SourceAlpha" type="matrix" values="0 0 0 0 0 0 0 0 0 0 0 0 0 0 0 0 0 0 127 0" result="hardAlpha"/>
<feOffset dx="-12.1872" dy="12.1872"/>
<feGaussianBlur stdDeviation="6.0936"/>
<feComposite in2="hardAlpha" operator="arithmetic" k2="-1" k3="1"/>
<feColorMatrix type="matrix" values="0 0 0 0 1 0 0 0 0 1 0 0 0 0 1 0 0 0 0.1 0"/>
<feBlend mode="normal" in2="shape" result="effect3_innerShadow_367_13634"/>
<feColorMatrix in="SourceAlpha" type="matrix" values="0 0 0 0 0 0 0 0 0 0 0 0 0 0 0 0 0 0 127 0" result="hardAlpha"/>
<feOffset dx="12.1872" dy="-12.1872"/>
<feGaussianBlur stdDeviation="11.596"/>
<feComposite in2="hardAlpha" operator="arithmetic" k2="-1" k3="1"/>
<feColorMatrix type="matrix" values="0 0 0 0 0.76 0 0 0 0 0.76 0 0 0 0 0.76 0 0 0 0.03 0"/>
<feBlend mode="normal" in2="effect3_innerShadow_367_13634" result="effect4_innerShadow_367_13634"/>
</filter>
<filter id="filter1_d_367_13634" x="377.191" y="191.623" width="131.007" height="130.967" filterUnits="userSpaceOnUse" color-interpolation-filters="sRGB">
<feFlood flood-opacity="0" result="BackgroundImageFix"/>
<feColorMatrix in="SourceAlpha" type="matrix" values="0 0 0 0 0 0 0 0 0 0 0 0 0 0 0 0 0 0 127 0" result="hardAlpha"/>
<feOffset dx="5.45695" dy="16.3709"/>
<feGaussianBlur stdDeviation="16.3709"/>
<feComposite in2="hardAlpha" operator="out"/>
<feColorMatrix type="matrix" values="0 0 0 0 0.443137 0 0 0 0 0.501961 0 0 0 0 0.588235 0 0 0 0.1 0"/>
<feBlend mode="normal" in2="BackgroundImageFix" result="effect1_dropShadow_367_13634"/>
<feBlend mode="normal" in="SourceGraphic" in2="effect1_dropShadow_367_13634" result="shape"/>
</filter>
<filter id="filter2_d_367_13634" x="12.7152" y="0.629139" width="131.007" height="130.967" filterUnits="userSpaceOnUse" color-interpolation-filters="sRGB">
<feFlood flood-opacity="0" result="BackgroundImageFix"/>
<feColorMatrix in="SourceAlpha" type="matrix" values="0 0 0 0 0 0 0 0 0 0 0 0 0 0 0 0 0 0 127 0" result="hardAlpha"/>
<feOffset dx="5.45695" dy="16.3709"/>
<feGaussianBlur stdDeviation="16.3709"/>
<feComposite in2="hardAlpha" operator="out"/>
<feColorMatrix type="matrix" values="0 0 0 0 0.443137 0 0 0 0 0.501961 0 0 0 0 0.588235 0 0 0 0.1 0"/>
<feBlend mode="normal" in2="BackgroundImageFix" result="effect1_dropShadow_367_13634"/>
<feBlend mode="normal" in="SourceGraphic" in2="effect1_dropShadow_367_13634" result="shape"/>
</filter>
<filter id="filter3_d_367_13634" x="358.08" y="11.5431" width="131.007" height="130.967" filterUnits="userSpaceOnUse" color-interpolation-filters="sRGB">
<feFlood flood-opacity="0" result="BackgroundImageFix"/>
<feColorMatrix in="SourceAlpha" type="matrix" values="0 0 0 0 0 0 0 0 0 0 0 0 0 0 0 0 0 0 127 0" result="hardAlpha"/>
<feOffset dx="5.45695" dy="16.3709"/>
<feGaussianBlur stdDeviation="16.3709"/>
<feComposite in2="hardAlpha" operator="out"/>
<feColorMatrix type="matrix" values="0 0 0 0 0.443137 0 0 0 0 0.501961 0 0 0 0 0.588235 0 0 0 0.1 0"/>
<feBlend mode="normal" in2="BackgroundImageFix" result="effect1_dropShadow_367_13634"/>
<feBlend mode="normal" in="SourceGraphic" in2="effect1_dropShadow_367_13634" result="shape"/>
</filter>
<radialGradient id="paint0_radial_367_13634" cx="0" cy="0" r="1" gradientUnits="userSpaceOnUse" gradientTransform="translate(71.3968 338.246) rotate(-16.5017) scale(315.62 312.757)">
<stop stop-color="#F18C53"/>
<stop offset="1" stop-color="#E83A64"/>
</radialGradient>
<radialGradient id="paint1_radial_367_13634" cx="0" cy="0" r="1" gradientUnits="userSpaceOnUse" gradientTransform="translate(84.8533 352.943) rotate(-2.75153) scale(26.8177 2.86668)">
<stop stop-color="#F18C53"/>
<stop offset="1" stop-color="#E83A64"/>
</radialGradient>
<radialGradient id="paint2_radial_367_13634" cx="0" cy="0" r="1" gradientUnits="userSpaceOnUse" gradientTransform="translate(102.79 346.19) rotate(-46.9905) scale(9.23405 10.268)">
<stop stop-color="#F18C53"/>
<stop offset="1" stop-color="#E83A64"/>
</radialGradient>
<radialGradient id="paint3_radial_367_13634" cx="0" cy="0" r="1" gradientUnits="userSpaceOnUse" gradientTransform="translate(85.983 346.19) rotate(-46.8116) scale(9.26107 10.3023)">
<stop stop-color="#F18C53"/>
<stop offset="1" stop-color="#E83A64"/>
</radialGradient>
<radialGradient id="paint4_radial_367_13634" cx="0" cy="0" r="1" gradientUnits="userSpaceOnUse" gradientTransform="translate(102.79 362.387) rotate(-57.9245) scale(11.8612 11.8984)">
<stop stop-color="#F18C53"/>
<stop offset="1" stop-color="#E83A64"/>
</radialGradient>
<radialGradient id="paint5_radial_367_13634" cx="0" cy="0" r="1" gradientUnits="userSpaceOnUse" gradientTransform="translate(85.983 362.387) rotate(-57.7629) scale(11.8822 11.9519)">
<stop stop-color="#F18C53"/>
<stop offset="1" stop-color="#E83A64"/>
</radialGradient>
<clipPath id="clip0_367_13634">
<rect x="134.191" y="82.4834" width="256.635" height="552.517" rx="32.7417" fill="white"/>
</clipPath>
<clipPath id="clip1_367_13634">
<rect width="279.174" height="41.69" fill="white" transform="translate(134.191 107.798)"/>
</clipPath>
</defs>
</svg>
