<svg width="36" height="24" viewBox="0 0 36 24" fill="none" xmlns="http://www.w3.org/2000/svg">
<path d="M16.7912 13.4527C16.6182 13.4866 16.4305 13.4644 16.2801 13.3683C16.1045 13.2618 15.9875 13.0709 15.9652 12.8672C15.9624 12.8257 15.9623 12.7841 15.9648 12.7426C15.9904 12.5084 16.1661 12.294 16.3979 12.2401C16.6827 12.5533 16.9675 12.8661 17.254 13.1776C17.1371 13.3189 16.9706 13.4168 16.7912 13.4527ZM18.0773 13.0557C18.087 12.9272 18.0962 12.7972 18.1377 12.6739C18.1863 12.5186 18.2723 12.358 18.4256 12.2855C18.457 12.2761 18.4894 12.2693 18.5221 12.2664C18.5224 12.2368 18.5206 12.2069 18.528 12.1779C18.5192 12.1373 18.5316 12.096 18.5273 12.0549C18.5213 11.9932 18.5221 11.9313 18.5238 11.8694C18.5284 11.7923 18.5175 11.7134 18.528 11.6369C18.5235 11.6176 18.5221 11.598 18.5217 11.5784C18.3313 11.5766 18.1413 11.6296 17.9775 11.7257C17.7305 11.8707 17.5437 12.1179 17.4784 12.3978C17.1101 12.0005 16.7488 11.5968 16.3815 11.1988C16.3033 11.1109 16.2687 10.9891 16.2838 10.8731C16.307 10.7477 16.3861 10.6321 16.5017 10.5749C16.5789 10.5325 16.6697 10.526 16.7556 10.5368C16.8879 10.5585 17.0024 10.6527 17.0567 10.7745C17.2611 10.6683 17.47 10.5702 17.6736 10.4617C17.6383 10.3956 17.6015 10.3299 17.5552 10.2708C17.3519 10.0021 17.0184 9.83443 16.6803 9.84257C16.2894 9.83592 15.909 10.0658 15.7249 10.4093C15.6082 10.6208 15.5649 10.8717 15.6051 11.1098C15.6405 11.3318 15.747 11.5416 15.9054 11.7008C15.722 11.8094 15.565 11.963 15.4551 12.1458C15.3287 12.354 15.2659 12.5992 15.2731 12.8424C15.2808 13.0822 15.3518 13.3205 15.4804 13.5234C15.6723 13.8322 15.9944 14.0563 16.3508 14.1291C16.5324 14.167 16.7208 14.1648 16.9035 14.1351C17.2147 14.0776 17.5036 13.919 17.724 13.6923C17.8158 13.7981 17.9127 13.8995 18.0064 14.0036C18.3182 14.0031 18.6301 14.0049 18.9419 14.0028C18.6525 13.6883 18.365 13.3719 18.0773 13.0557H18.0773ZM5.69351 12.0757C5.57668 12.2004 5.41184 12.2718 5.2433 12.2907C5.12215 12.2958 5.00088 12.292 4.87963 12.2931V10.6197C5.02188 10.6232 5.16682 10.6073 5.30625 10.6427C5.47469 10.6797 5.6311 10.772 5.73991 10.9062C6.00991 11.2369 5.98927 11.7677 5.69351 12.0757ZM6.60271 11.092C6.52536 10.7547 6.33325 10.4412 6.05427 10.2338C5.78741 10.0326 5.45132 9.93485 5.11924 9.93333C4.7974 9.93343 4.4756 9.93333 4.15389 9.93333C4.15378 11.2902 4.15378 12.6468 4.15389 14.0037H4.87963C4.87963 13.664 4.8795 13.3242 4.87963 12.9847C5.05324 12.9813 5.22836 12.9946 5.40079 12.9687C5.68346 12.929 5.95325 12.8004 6.15953 12.603C6.43612 12.3427 6.60389 11.9756 6.63841 11.5991C6.64707 11.4294 6.64435 11.2577 6.60271 11.092V11.092ZM9.5022 9.93341C9.74622 9.93331 9.99027 9.93362 10.2343 9.93331C10.2359 9.95591 10.2373 9.97852 10.238 10.0012C10.2374 10.0462 10.2376 10.0912 10.2374 10.1365C10.2375 10.1815 10.2379 10.2266 10.2374 10.2717C10.2374 10.3372 10.2379 10.4028 10.2374 10.4683C10.2375 10.4889 10.2375 10.5094 10.2377 10.53C10.2347 10.6283 10.239 10.7268 10.2374 10.8252C10.2385 10.9605 10.2347 11.0957 10.2374 11.231C10.2381 11.4402 10.2375 11.6492 10.2374 11.8582C10.2375 11.895 10.2374 11.9318 10.2379 11.9689C10.2353 12.014 10.2353 12.0592 10.2379 12.1043C10.2374 12.1371 10.2375 12.1698 10.2375 12.2026C10.2327 12.3453 10.2444 12.4884 10.2294 12.6308C10.2084 12.8772 10.1412 13.1217 10.0184 13.337C9.89278 13.5598 9.70621 13.7477 9.48336 13.8733C9.23469 14.0144 8.9466 14.0783 8.662 14.0783C8.34537 14.0817 8.02334 14.006 7.75453 13.8349C7.49591 13.6723 7.2963 13.4221 7.18597 13.1379C7.09446 12.9077 7.05919 12.6582 7.06102 12.4116C7.06115 11.5855 7.06102 10.7595 7.06102 9.93341C7.30691 9.93331 7.5528 9.93331 7.79866 9.93331C7.79879 10.7763 7.79866 11.6191 7.79879 12.4619C7.80614 12.6982 7.85698 12.9479 8.01522 13.1315C8.14472 13.2851 8.34234 13.3669 8.53977 13.3824C8.74553 13.4026 8.96521 13.3748 9.14283 13.2627C9.28551 13.1729 9.38342 13.0254 9.43511 12.8672C9.4748 12.7528 9.48942 12.6319 9.49925 12.5119C9.50565 12.2161 9.50022 11.9202 9.50197 11.6242C9.50197 11.0608 9.50197 10.497 9.50218 9.93341H9.5022ZM13.0126 9.93416C13.2569 9.93256 13.5011 9.93375 13.7451 9.93331C13.7454 11.0565 13.7451 12.1793 13.7454 13.3021C14.1631 13.3027 14.5811 13.301 14.999 13.3029C14.9987 13.5363 14.9988 13.7697 14.999 14.0031C14.3368 14.0042 13.6748 14.0042 13.0127 14.0031C13.0127 12.6468 13.0127 11.2904 13.0126 9.93416V9.93416ZM21.0991 12.9169C21.0807 13.0133 21.0285 13.1042 20.9504 13.1642C20.8575 13.2383 20.7416 13.2753 20.6267 13.2959C20.4063 13.3323 20.1821 13.3135 19.9597 13.3183C19.96 12.9652 19.9595 12.612 19.96 12.259C20.1259 12.2601 20.2916 12.2561 20.4573 12.2617C20.6181 12.2718 20.7859 12.2961 20.922 12.3878C21.0185 12.45 21.084 12.5554 21.1013 12.6685C21.1139 12.7509 21.1132 12.8348 21.0991 12.9169V12.9169ZM19.9597 10.5969C20.1228 10.5992 20.2873 10.5881 20.449 10.6162C20.5651 10.6376 20.6834 10.6834 20.7618 10.7755C20.8359 10.864 20.8604 10.9832 20.8576 11.0962C20.8604 11.2243 20.8179 11.3591 20.7205 11.4462C20.6177 11.537 20.4785 11.5721 20.3449 11.5819C20.2164 11.5847 20.0882 11.5823 19.9597 11.5831V10.5969V10.5969ZM21.744 12.2815C21.6443 12.0741 21.4663 11.9091 21.2605 11.8091C21.2613 11.8051 21.2621 11.801 21.2627 11.7969C21.4128 11.6661 21.5215 11.4875 21.5635 11.2924C21.5951 11.1506 21.5878 11.0034 21.5653 10.8608C21.5363 10.7217 21.4842 10.5866 21.4052 10.468C21.2913 10.2961 21.1283 10.1586 20.9433 10.0684C20.7946 9.99907 20.6313 9.97009 20.4695 9.95051C20.3711 9.94359 20.2729 9.93557 20.1744 9.93383C19.86 9.93265 19.5452 9.93375 19.2304 9.93331V14.0036C19.6929 14.0014 20.1553 14.0084 20.6174 14.0001C20.9455 13.973 21.2725 13.8467 21.5096 13.6139C21.6939 13.4387 21.8182 13.2005 21.849 12.9476C21.8717 12.722 21.8444 12.4867 21.744 12.2815V12.2815ZM22.2432 9.93331C23.0771 9.93331 23.9107 9.93331 24.7443 9.93341C24.744 10.1622 24.7454 10.391 24.7437 10.6198C24.1539 10.6202 23.5642 10.6184 22.9743 10.6208C22.9746 10.9412 22.9746 11.2617 22.9743 11.5822C23.5341 11.5844 24.0939 11.5825 24.6537 11.5831C24.6539 11.8084 24.6537 12.0338 24.6539 12.2588C24.0941 12.2596 23.5344 12.2583 22.9746 12.2596C22.9743 12.612 22.9748 12.9646 22.9743 13.3172C23.5642 13.3197 24.1541 13.3175 24.7443 13.3183C24.7445 13.5468 24.7443 13.7751 24.7443 14.0036H22.2432V9.93329V9.93331ZM26.4005 12.2563C26.5637 11.8472 26.7279 11.4385 26.8887 11.0286C27.0516 11.4375 27.2117 11.8475 27.3758 12.2561C27.0507 12.2571 26.7256 12.2572 26.4005 12.2563V12.2563ZM27.1804 9.94259C27.1763 9.92116 27.1505 9.92614 27.1357 9.92506C26.9707 9.9255 26.8058 9.9255 26.6412 9.92506C26.6255 9.92689 26.6022 9.92064 26.5945 9.93805C26.0417 11.2931 25.4882 12.6481 24.9358 14.0033C25.1983 14.0042 25.461 14.0036 25.7235 14.0036C25.8609 13.6509 25.9975 13.2977 26.1346 12.9448C26.6368 12.9451 27.139 12.9448 27.6411 12.9451C27.7781 13.298 27.9137 13.6515 28.0517 14.0038C28.3316 14.0031 28.6114 14.0044 28.8914 14.0031C28.3213 12.6495 27.7507 11.2961 27.1804 9.94259V9.94259ZM30.8479 11.4527C30.8104 11.5852 30.7219 11.7025 30.6029 11.7722C30.4305 11.8761 30.223 11.9015 30.025 11.9013C29.9482 11.901 29.8716 11.901 29.7952 11.901V10.6197C30.0037 10.6206 30.2156 10.6079 30.4195 10.6628C30.5071 10.6887 30.594 10.7223 30.6681 10.7771C30.7631 10.8436 30.8296 10.9465 30.8577 11.0584C30.8893 11.1877 30.8836 11.325 30.8479 11.4527H30.8479ZM31.4599 13.3389C31.2882 13.0148 31.1241 12.6863 30.9742 12.3515C31.0916 12.2855 31.2005 12.2036 31.2937 12.1058C31.4123 11.9854 31.4967 11.8353 31.5524 11.6763C31.6676 11.3179 31.6552 10.9059 31.4672 10.5741C31.3815 10.4242 31.2584 10.2965 31.114 10.2019C30.8967 10.0566 30.6392 9.98457 30.3825 9.95017C30.292 9.94303 30.2019 9.93233 30.1113 9.93331C29.7616 9.93375 29.4122 9.93275 29.0625 9.93383C29.0628 11.2904 29.0628 12.6468 29.0625 14.0033C29.3071 14.0039 29.5509 14.0042 29.7952 14.0033V12.6364C29.8184 12.636 29.842 12.6358 29.8657 12.6347C29.9257 12.626 29.9868 12.6301 30.0472 12.622C30.1094 12.6168 30.1705 12.6044 30.2329 12.6012C30.259 12.6693 30.2924 12.7343 30.3225 12.8005C30.5121 13.2087 30.7168 13.6097 30.9362 14.0028C31.2396 14.0047 31.5427 14.0039 31.8461 14.0031C31.7087 13.7868 31.5811 13.5644 31.4599 13.3389ZM10.7308 9.93331H11.4618C11.4618 11.0563 11.4616 12.1793 11.4618 13.3021H12.7141C12.7141 13.536 12.7142 13.77 12.7141 14.0036H10.7308C10.7307 12.647 10.7308 11.2902 10.7308 9.93329" fill="#161413"/>
</svg>
