<svg width="136" height="136" viewBox="0 0 136 136" fill="none" xmlns="http://www.w3.org/2000/svg">
<g filter="url(#filter0_d_501_27131)">
<path d="M117.869 131.141C117.869 130.576 117.586 129.728 117.304 129.163C117.021 128.033 116.739 127.185 116.456 126.337C116.173 125.49 115.891 124.924 115.608 124.359C112.782 118.425 108.261 112.774 102.044 109.665C98.9361 108.252 95.5452 107.122 91.8717 107.122C90.7413 107.122 89.8936 107.122 89.0459 107.122C86.5027 107.122 84.8072 106.839 83.9594 106.557C82.5466 106.274 82.264 105.709 82.264 105.709V95.2537C85.6549 92.4279 88.4807 89.6022 91.0239 86.2112C93.2845 82.8203 95.2626 79.1467 96.1103 75.1906C100.066 74.3429 102.892 70.6694 102.327 66.4307C102.044 64.4526 100.914 63.0398 100.914 61.0617C100.914 60.214 100.914 59.0837 100.914 58.2359C100.914 57.6708 100.914 57.1056 100.914 56.2579C100.914 55.6927 100.914 55.1276 100.632 54.2798C100.349 52.0192 99.7839 49.476 98.6535 46.6502C98.371 45.8025 97.8058 44.9547 97.5232 44.107C92.4368 34.4993 82.264 28 70.6782 28C68.4176 28 66.157 28.2826 63.8964 28.8477C59.9403 29.6955 55.9842 31.6735 52.5932 34.2167C52.0281 34.7819 51.1803 35.347 50.6152 35.9122C50.6152 35.9122 50.3326 36.1948 50.05 36.1948C46.3765 39.5857 43.5507 43.8244 42.1378 48.6282C40.4423 53.4321 40.1597 58.2359 40.7249 63.3223V63.6049V63.8875C40.7249 64.7352 41.0075 64.7352 40.4423 65.3004C40.1597 65.583 40.1598 65.8655 39.8772 66.1481C39.0294 67.561 38.4643 69.5391 39.312 71.7997C40.7249 76.0384 43.8333 75.4732 46.9416 78.0164C46.6591 78.0164 46.6591 78.299 46.3765 78.299L42.703 79.7119C30.2695 83.668 24.9005 93.5583 28.0089 101.188C28.574 102.036 28.8566 103.166 29.7043 104.014C31.965 106.839 35.6385 109.1 41.0075 110.23C39.5946 110.23 38.1817 111.078 37.334 111.926C31.1172 116.73 27.1611 124.359 26.0308 131.706C25.7482 133.967 27.4437 135.945 29.7043 135.945H113.913C116.456 135.662 118.434 133.402 117.869 131.141ZM52.3106 89.3196C53.1584 90.4499 54.0061 91.5802 55.1364 92.7105C55.9842 93.5583 56.8319 94.1234 57.9622 94.9712C58.5274 95.5363 59.3751 95.8189 59.9403 96.384L60.2228 96.6666C60.5054 96.6666 60.5054 96.9492 60.788 97.2318V103.449L60.5054 103.166C59.9403 102.601 59.3751 102.036 58.8099 101.753C57.9622 101.188 56.8319 100.623 55.9842 100.058C55.7016 99.775 55.419 99.775 55.1364 99.4924C52.3106 97.7969 49.4848 95.8189 49.4848 93.8408C49.4848 92.4279 50.3326 91.0151 52.3106 89.3196Z" fill="white"/>
</g>
<path d="M118.434 131.706C115.89 134.25 111.934 133.684 109.109 135.662H29.9865C28.0085 135.662 26.5956 134.25 26.313 132.554C26.313 132.271 26.313 131.706 26.313 131.424C27.4433 124.077 31.3994 116.73 37.6161 111.643C38.4639 110.796 39.8768 110.23 41.2897 109.948C35.9207 108.817 32.2471 106.557 29.9865 103.731C29.1388 102.883 28.8562 102.036 28.291 100.905H48.3541L49.2019 102.036C53.7231 108.252 60.7876 111.926 68.4172 111.926C74.0688 111.926 79.7204 109.948 83.959 106.274C84.8068 106.557 85.9371 106.557 87.6326 106.839C88.1977 106.839 88.4803 106.839 89.0455 106.839C89.8932 106.839 90.7409 106.839 91.8712 106.839C95.5448 106.839 98.9357 107.97 102.044 109.383C108.261 112.491 113.065 118.143 115.608 124.077C115.89 124.642 116.173 125.49 116.456 126.055C116.738 127.185 118.151 130.859 118.434 131.706Z" fill="white"/>
<path d="M118.434 131.707C115.89 134.25 111.934 133.685 109.108 135.663H30.8341C29.1386 134.815 27.7257 133.685 26.0303 132.554C26.0303 132.272 26.0303 131.707 26.0303 131.424C27.1606 124.077 31.1167 116.73 37.3334 111.643C38.1812 110.796 39.594 110.231 41.0069 109.948C35.6379 108.818 31.9644 106.557 29.7038 103.731H46.6585C51.4624 110.513 59.3746 114.752 68.1345 114.752C75.7641 114.752 82.2634 111.643 87.3498 106.557C87.915 106.557 88.1976 106.557 88.7627 106.557C89.6105 106.557 90.4582 106.557 91.5885 106.557C95.2621 106.557 98.653 107.687 101.761 109.1C107.978 112.209 112.782 117.86 115.325 123.794C115.608 124.359 115.89 125.207 116.173 125.772C116.738 127.185 118.151 130.859 118.434 131.707Z" fill="#EEF1F4"/>
<path d="M82.2631 95.2537C81.9805 95.2537 81.9805 95.2537 82.2631 95.2537L81.9805 106.557L53.7227 107.405L55.1355 99.4923C55.4181 99.7749 55.7007 99.7749 55.9833 100.058C56.831 100.623 57.9613 101.188 58.8091 101.753C59.3742 102.036 59.9394 102.601 60.5045 103.166L60.7871 103.448V97.2317C60.5045 97.2317 60.5045 96.9491 60.222 96.9491C65.8735 99.4923 72.6554 100.905 82.2631 95.2537Z" fill="url(#paint0_linear_501_27131)"/>
<path d="M100.349 56.5405C94.6978 58.5185 88.7637 59.0837 82.8295 58.8011C73.5044 57.9534 64.4619 54.2798 57.3975 48.0631C55.4194 54.845 49.4853 59.9314 42.986 62.7572C42.1382 63.0398 41.2905 63.6049 40.4427 63.8875V63.6049C39.8776 58.8011 40.1602 53.7147 41.8556 48.9108C43.5511 44.107 46.0943 39.8683 49.7678 36.4774C50.0504 36.1948 50.0504 36.1948 50.333 36.1948C50.8982 35.6296 51.7459 35.0645 52.311 34.4993C55.702 31.9561 59.3755 30.2607 63.6142 29.4129C65.8748 28.8478 68.1355 28.5652 70.3961 28.5652C81.9818 28.5652 92.1546 35.0645 97.2411 44.6722C99.2191 48.3457 100.067 51.7366 100.349 54.5624C100.349 55.4102 100.349 55.9753 100.349 56.5405Z" fill="#17181B"/>
<path d="M64.7441 122.381C62.2009 125.49 57.6796 125.49 53.7235 125.49C57.9622 121.533 55.419 108.535 41.0075 109.948H40.7249C20.9444 106.274 23.205 85.6459 42.4203 79.7118L45.5287 78.5815C45.8113 78.8641 45.8113 78.8641 46.0939 79.1466C47.5068 83.1027 49.7674 86.4937 52.028 89.3195C44.1158 95.8188 55.1364 98.0794 60.5054 102.883C65.3092 105.709 69.2653 117.012 64.7441 122.381Z" fill="#17181B"/>
<path d="M92.4549 90.7429H68.4714C67.5247 90.7429 66.8936 90.1143 66.8936 89.1715C66.8936 88.2286 67.5247 87.6 68.4714 87.6H92.4549C94.6639 87.6 96.5573 85.7143 96.5573 83.2V80.0572C96.5573 79.1143 97.1884 78.4857 98.1351 78.4857C99.0819 78.4857 99.713 79.1143 99.713 80.0572V83.2C99.713 87.2857 96.5573 90.7429 92.4549 90.7429Z" fill="#F18C53"/>
<g filter="url(#filter1_d_501_27131)">
<path d="M98.7663 80.0571H94.9795V59H98.7663C101.922 59 104.447 61.5143 104.447 64.6571V74.7143C104.447 77.5429 101.922 80.0571 98.7663 80.0571Z" fill="#F18C53"/>
</g>
<path d="M71.627 92H66.8934C65.9467 92 65 91.0572 65 90.1143V88.2286C65 87.2857 65.9467 86.3429 66.8934 86.3429H71.627C72.5737 86.3429 73.5204 87.2857 73.5204 88.2286V90.1143C73.5204 91.0572 72.5737 92 71.627 92Z" fill="#F18C53"/>
<defs>
<filter id="filter0_d_501_27131" x="-44" y="-43" width="231.966" height="247.945" filterUnits="userSpaceOnUse" color-interpolation-filters="sRGB">
<feFlood flood-opacity="0" result="BackgroundImageFix"/>
<feColorMatrix in="SourceAlpha" type="matrix" values="0 0 0 0 0 0 0 0 0 0 0 0 0 0 0 0 0 0 127 0" result="hardAlpha"/>
<feOffset dy="-1"/>
<feGaussianBlur stdDeviation="35"/>
<feComposite in2="hardAlpha" operator="out"/>
<feColorMatrix type="matrix" values="0 0 0 0 0 0 0 0 0 0.170527 0 0 0 0 0.504167 0 0 0 0.14 0"/>
<feBlend mode="normal" in2="BackgroundImageFix" result="effect1_dropShadow_501_27131"/>
<feBlend mode="normal" in="SourceGraphic" in2="effect1_dropShadow_501_27131" result="shape"/>
</filter>
<filter id="filter1_d_501_27131" x="86.9795" y="56" width="25.4673" height="37.0571" filterUnits="userSpaceOnUse" color-interpolation-filters="sRGB">
<feFlood flood-opacity="0" result="BackgroundImageFix"/>
<feColorMatrix in="SourceAlpha" type="matrix" values="0 0 0 0 0 0 0 0 0 0 0 0 0 0 0 0 0 0 127 0" result="hardAlpha"/>
<feOffset dy="5"/>
<feGaussianBlur stdDeviation="4"/>
<feColorMatrix type="matrix" values="0 0 0 0 0.968627 0 0 0 0 0.254902 0 0 0 0 0.564706 0 0 0 0.18 0"/>
<feBlend mode="normal" in2="BackgroundImageFix" result="effect1_dropShadow_501_27131"/>
<feBlend mode="normal" in="SourceGraphic" in2="effect1_dropShadow_501_27131" result="shape"/>
</filter>
<linearGradient id="paint0_linear_501_27131" x1="67.9929" y1="95.2537" x2="67.9929" y2="107.405" gradientUnits="userSpaceOnUse">
<stop stop-color="#EEF1F4"/>
<stop offset="1" stop-color="#EEF1F4" stop-opacity="0"/>
</linearGradient>
</defs>
</svg>
