<svg width="33" height="33" viewBox="0 0 33 33" fill="none" xmlns="http://www.w3.org/2000/svg">
<path d="M12.2887 28.4999C9.05374 28.4999 6.03817 27.559 3.5 25.9355C5.65499 26.0749 9.45807 25.741 11.8236 23.4847C8.26508 23.3214 6.66026 20.5922 6.45094 19.4258C6.75329 19.5425 8.1953 19.6824 9.00934 19.3559C4.9159 18.3295 4.28793 14.7372 4.42748 13.6409C5.195 14.1774 6.49745 14.364 7.00913 14.3173C3.19479 11.5881 4.56703 7.48264 5.24151 6.59623C7.97882 10.3885 12.0812 12.5184 17.1564 12.6369C17.0607 12.2172 17.0102 11.7803 17.0102 11.3315C17.0102 8.11079 19.6134 5.49988 22.8247 5.49988C24.5025 5.49988 26.0144 6.21263 27.0757 7.35272C28.1969 7.08998 29.8843 6.47495 30.7092 5.94308C30.2934 7.43598 28.9989 8.68137 28.2159 9.14295C28.2095 9.12718 28.2224 9.15866 28.2159 9.14295C28.9037 9.03891 30.7648 8.68125 31.5 8.18243C31.1364 9.02113 29.764 10.4156 28.6377 11.1963C28.8473 20.4379 21.7765 28.4999 12.2887 28.4999Z" fill="#47ACDF"/>
</svg>
