<svg width="48" height="32" viewBox="0 0 48 32" fill="none" xmlns="http://www.w3.org/2000/svg">
<path d="M32.5458 13.3106C35.5122 12.0055 37.4494 10.0456 37.555 7.87135C37.555 7.87135 36.7718 7.26795 34.2431 6.33758C32.0226 5.5205 30.3286 5.3335 30.3286 5.3335L30.3364 10.1779C30.3364 10.9017 30.0458 11.6406 29.4971 12.2947C27.8188 11.8895 25.9639 11.662 24.0182 11.6614H24.017C22.0702 11.662 20.2131 11.8901 18.5328 12.296C17.9842 11.6418 17.6929 10.9023 17.6929 10.1779L17.7003 5.3335C17.7003 5.3335 16.0074 5.5205 13.7855 6.33758C11.2569 7.26795 10.4751 7.87135 10.4751 7.87135C10.5798 10.0462 12.5177 12.0067 15.4874 13.3118C12.5203 14.6169 10.5833 16.5767 10.4782 18.7503C10.4782 18.7503 11.2608 19.3543 13.7894 20.2841C16.0107 21.1011 17.704 21.2881 17.704 21.2881L17.6962 16.4438C17.6962 15.7199 17.9868 14.9804 18.5361 14.327C20.2145 14.7329 22.0688 14.9596 24.0143 14.9596H24.015C25.9625 14.9596 27.8201 14.7322 29.4998 14.3249C30.0484 14.9791 30.339 15.7199 30.339 16.4438L30.3325 21.2881C30.3325 21.2881 32.0259 21.1011 34.247 20.2841C36.7757 19.3543 37.5582 18.7503 37.5582 18.7503C37.4527 16.5755 35.5149 14.615 32.5458 13.3105V13.3106ZM24.0156 14.4005H24.0137L23.9583 14.3993C22.2017 14.3993 20.7696 13.9693 19.7193 13.3118C20.7696 12.6531 22.2024 12.2224 23.9623 12.2224L24.0163 12.2217H24.0189L24.0742 12.2224C25.8316 12.2224 27.263 12.6525 28.3133 13.3098C27.263 13.9679 25.8302 14.3992 24.0711 14.3992L24.0156 14.4005ZM6.59203 26.6553C5.74109 26.6553 5.7261 26.0063 5.7261 25.7562V24.5755C5.7261 24.5038 5.72026 24.4087 5.87205 24.4087H6.31184C6.45462 24.4087 6.44548 24.5104 6.44548 24.5756V25.7561C6.44548 25.8401 6.46107 26.0656 6.77063 26.0656H7.50816C7.81174 26.0656 7.82941 25.8402 7.82941 25.7562V24.5755C7.82941 24.5104 7.82088 24.4087 7.96293 24.4087H8.406C8.56681 24.4087 8.55256 24.5104 8.55256 24.5756V25.7561C8.55256 26.0063 8.53757 26.6553 7.68346 26.6553H6.59203ZM10.6674 26.5127C10.367 26.1081 9.93831 25.5987 9.50121 25.0604V26.4977C9.50121 26.5604 9.5168 26.6555 9.36757 26.6555H8.95702C8.80851 26.6555 8.82618 26.5604 8.82618 26.4977V24.5757C8.82618 24.5105 8.8196 24.4088 8.95714 24.4088H9.75716C9.98327 24.4088 10.3051 24.8643 10.5163 25.1647C10.6791 25.394 10.9802 25.7386 11.1821 25.9974V24.5757C11.1821 24.5105 11.173 24.4088 11.3222 24.4088H11.7679C11.9113 24.4088 11.9021 24.5105 11.9021 24.5757V26.6555H11.0812C10.9052 26.6555 10.8278 26.6672 10.6674 26.5127ZM14.0497 26.0644C14.4093 26.0644 14.3832 25.7192 14.3832 25.5614C14.3832 25.0317 14.2341 25.0109 13.9962 25.0109H12.8658V26.0644H14.0497ZM12.1718 26.656V24.4127H14.1545C14.2758 24.4127 15.0876 24.3985 15.0876 25.2513C15.0876 26.1236 15.1826 26.656 14.1722 26.656H13.1036L12.8716 26.1862V26.656H12.1718ZM15.8642 24.4271H17.6905C17.8456 24.4271 17.8248 24.5282 17.8248 24.7158C17.8248 24.8904 17.8483 24.9887 17.6905 24.9887H16.2474C16.2089 24.9887 16.0786 24.968 16.0786 25.1047C16.0786 25.2416 16.0518 25.2957 16.1972 25.2957H17.4735C17.4735 25.2957 17.658 25.6468 17.6788 25.7061C17.7088 25.7596 17.7056 25.8104 17.5928 25.8104H16.2715L16.0662 25.4117V26.0006C16.0662 26.1375 16.1887 26.1107 16.2239 26.1107H17.7232C17.8723 26.1107 17.86 26.2143 17.86 26.3837C17.86 26.5662 17.8723 26.6665 17.7232 26.6665H15.8251C15.6675 26.6665 15.3585 26.619 15.3585 26.1257V24.8877C15.3585 24.76 15.427 24.4272 15.8642 24.4272V24.4271ZM19.9089 25.0045H19.0196C18.8717 25.0045 18.8768 25.0553 18.8768 25.1003V25.5017H19.793C20.2366 25.5017 20.2366 25.3908 20.2366 25.275C20.2366 25.043 20.2191 25.0045 19.9089 25.0045ZM18.3179 24.4123H20.3168C20.5846 24.4123 20.9736 24.4097 20.9736 25.1323C20.9736 25.6052 20.8733 25.6288 20.6589 25.7747C21.0192 25.8372 20.9716 26.2979 20.9716 26.5364C20.9716 26.6582 20.9273 26.6556 20.8908 26.6556H20.3051C20.1826 26.6556 20.2125 26.462 20.2125 26.361C20.2125 26.0841 20.0582 26.0966 19.9981 26.0966H19.1356C19.0528 25.9532 18.8919 25.632 18.8919 25.632V26.563C18.8919 26.6439 18.8111 26.6556 18.7817 26.6556H18.1934C18.2253 26.6556 18.1329 26.6615 18.1329 26.5807V24.6059C18.1329 24.4658 18.2312 24.4122 18.3178 24.4122L18.3179 24.4123ZM24.1777 25.0484L23.8089 25.7209L23.8414 25.7534H24.5289L24.5647 25.7209C24.5406 25.6701 24.2435 25.1052 24.2135 25.0451L24.1777 25.0484ZM24.4155 24.4274C24.5614 24.4274 24.7035 24.4926 24.8586 24.7929C24.9634 25.0067 25.6894 26.3183 25.8405 26.5926V26.667H25.0847L24.8671 26.2739H23.9483C23.9483 26.2739 23.7939 25.9202 23.7497 25.8225C23.6929 25.9143 23.3893 26.4916 23.2843 26.6668H22.5266V26.6193C22.6811 26.3282 23.7373 24.4274 23.7373 24.4274H24.4155ZM27.8227 25.0045H26.9333C26.7847 25.0045 26.7906 25.0553 26.7906 25.1003V25.5017H27.7067C28.1504 25.5017 28.1504 25.3908 28.1504 25.275C28.1504 25.043 28.1328 25.0045 27.8227 25.0045ZM26.2316 24.4123H28.2305C28.4983 24.4123 28.888 24.4097 28.888 25.1323C28.888 25.6052 28.7876 25.6288 28.5725 25.7747C28.9322 25.8372 28.8847 26.2979 28.8847 26.5364C28.8847 26.6582 28.8404 26.6556 28.8046 26.6556H28.2188C28.0963 26.6556 28.1263 26.462 28.1263 26.361C28.1263 26.0841 27.9719 26.0966 27.9118 26.0966H27.0493C26.9659 25.9532 26.8049 25.632 26.8049 25.632V26.563C26.8049 26.6439 26.7255 26.6556 26.6954 26.6556H26.1065C26.139 26.6556 26.0472 26.6615 26.0472 26.5807V24.6059C26.0472 24.4658 26.1456 24.4122 26.2315 24.4122L26.2316 24.4123ZM30.6344 26.6553C30.4851 26.3758 30.0716 25.605 29.792 25.1V26.4976C29.792 26.5601 29.8005 26.6553 29.6591 26.6553H29.2537C29.1019 26.6553 29.1136 26.5602 29.1136 26.4976V24.5755C29.1136 24.5104 29.1051 24.412 29.2537 24.412H29.9529C30.0571 24.412 30.2051 24.3879 30.3725 24.7214C30.4976 24.9886 30.7628 25.5431 30.9438 25.837C31.1308 25.5431 31.4019 24.9886 31.527 24.7214C31.6906 24.3879 31.8358 24.412 31.9518 24.412H32.6477C32.791 24.412 32.7761 24.5104 32.7761 24.5755V26.4976C32.7761 26.5601 32.7963 26.6553 32.6477 26.6553H32.2405C32.0919 26.6553 32.1036 26.5602 32.1036 26.4976V25.1C31.8216 25.605 31.4104 26.3758 31.2553 26.6553H30.6344ZM35.0067 26.0839C35.3435 26.0839 35.3311 25.7367 35.3311 25.504C35.3311 25.2956 35.3786 24.9685 34.9415 24.9685H34.2001C33.7661 24.9685 33.8169 25.2956 33.8169 25.504C33.8169 25.7367 33.7961 26.0839 34.1323 26.0839H35.0067ZM33.6743 26.6612C33.0109 26.6612 33.0403 25.9498 33.0403 25.4898C33.0403 25.0669 32.9928 24.4067 33.8228 24.4003H35.296C36.1287 24.4003 36.0745 25.0695 36.0745 25.4898C36.0745 25.9496 36.1078 26.6612 35.4348 26.6612H33.6743ZM37.1837 26.6553C36.3321 26.6553 36.3177 26.0063 36.3177 25.7562V24.5755C36.3177 24.5038 36.3119 24.4087 36.4637 24.4087H36.9042C37.0463 24.4087 37.0377 24.5104 37.0377 24.5756V25.7561C37.0377 25.8401 37.0527 26.0656 37.3622 26.0656H38.0998C38.4034 26.0656 38.4209 25.8402 38.4209 25.7562V24.5755C38.4209 24.5104 38.4119 24.4087 38.5546 24.4087H38.9976C39.1585 24.4087 39.1442 24.5104 39.1442 24.5756V25.7561C39.1442 26.0063 39.1292 26.6553 38.275 26.6553H37.1837ZM41.2075 25.0045H40.3182C40.1696 25.0045 40.1754 25.0553 40.1754 25.1003V25.5017H41.0916C41.5353 25.5017 41.5353 25.3908 41.5353 25.275C41.5353 25.043 41.5177 25.0045 41.2075 25.0045ZM39.6158 24.4123H41.6154C41.8832 24.4123 42.2735 24.4097 42.2735 25.1323C42.2735 25.6052 42.1719 25.6288 41.9575 25.7747C42.3179 25.8372 42.2702 26.2979 42.2702 26.5364C42.2702 26.6582 42.2259 26.6556 42.1895 26.6556H41.6037C41.4819 26.6556 41.5111 26.462 41.5111 26.361C41.5111 26.0841 41.3568 26.0966 41.2975 26.0966H40.4342C40.3514 25.9532 40.1906 25.632 40.1906 25.632V26.563C40.1906 26.6439 40.1097 26.6556 40.0803 26.6556H39.492C39.5239 26.6556 39.4321 26.6615 39.4321 26.5807V24.6059C39.4321 24.4658 39.5305 24.4122 39.6158 24.4122" fill="black"/>
</svg>
