<svg width="549" height="28" viewBox="0 0 549 28" fill="none" xmlns="http://www.w3.org/2000/svg">
<path d="M45.8158 14.8803L0.394043 28H549L531.74 21.6485C523.54 18.6306 508.065 17.9971 497.046 20.2279L494.87 20.6678C484.753 22.7156 470.453 21.9292 463.952 18.9676L427.512 2.36868C420.915 -0.636081 405.362 -0.816601 397.873 2.02465L383.962 7.30363C375.366 10.5656 364.059 13.2098 350.989 15.0136C340.947 16.3994 329.28 16.5846 318.728 15.5255L310.695 14.7193C301.02 13.7481 292.027 12.3212 284.117 10.5019L272.268 7.77657C267.715 6.72942 260.944 6.90473 257.176 8.1675L233.839 15.9887C227.926 17.9707 216.828 17.8825 211.337 15.8098L186.438 6.41066C182.383 4.87996 174.223 4.78773 169.728 6.22187L143.918 14.4565C134.73 17.3881 118.43 17.5297 108.592 14.7635C91.3016 9.90241 62.8664 9.95531 45.8158 14.8803Z" fill="#EEF1F4"/>
</svg>
