<svg width="87" height="57" viewBox="0 0 87 57" fill="none" xmlns="http://www.w3.org/2000/svg">
<path d="M51.0367 9.83359C53.7496 9.83359 56.4628 9.83321 59.1757 9.83398C59.1773 10.4307 59.1725 11.0278 59.1785 11.625C58.4892 11.6543 57.7844 11.7297 57.1498 12.0115C56.506 12.294 55.9662 12.808 55.6885 13.4446C52.3896 21.0189 49.0931 28.5941 45.7978 36.1701C45.7408 36.2945 45.6949 36.4232 45.6284 36.5434C44.4485 36.5299 43.2681 36.5415 42.0882 36.5372C41.5675 35.5266 41.055 34.5116 40.53 33.5033C39.9281 35.0786 39.3227 36.6524 38.7209 38.2273C42.6133 38.2277 46.5057 38.2273 50.3981 38.2277C51.1107 38.237 51.8447 38.208 52.5115 37.9359C53.6194 37.5011 54.5014 36.6609 55.2192 35.7499C56.0857 34.6461 56.7434 33.4036 57.3294 32.1409C57.9866 32.1355 58.6435 32.1429 59.3003 32.1417C58.0547 34.7404 56.8027 37.3369 55.546 39.9306C46.5765 39.931 37.6074 39.9306 28.6379 39.9306C28.8563 39.3737 29.064 38.8121 29.2983 38.261C29.3125 38.2041 29.385 38.2184 29.4289 38.213C30.5487 38.2049 31.676 38.1624 32.7748 37.9348C33.3466 37.8037 33.9382 37.6291 34.3782 37.2302C34.6108 37.0134 34.6832 36.6968 34.7604 36.4047C35.8197 33.6359 36.8805 30.8674 37.9406 28.099C35.7002 23.4364 33.4523 18.7765 31.2107 14.1143C31.0302 13.7066 30.792 13.3027 30.4173 13.0372C29.6418 12.4698 28.6339 12.3979 27.7001 12.3616C27.6993 11.6934 27.7001 11.0255 27.6997 10.3573C30.849 10.3561 33.9979 10.3565 37.1472 10.3569C37.1476 11.0251 37.148 11.6934 37.1468 12.3616C36.7365 12.3871 36.3008 12.3805 35.9293 12.5788C35.7449 12.6638 35.6365 12.878 35.6839 13.0728C35.7421 13.3916 36.0001 13.6192 36.1307 13.9072C37.4606 16.705 38.7905 19.5031 40.1244 22.2998C40.7927 20.4744 41.461 18.6494 42.1321 16.8252C42.2306 16.5716 42.2655 16.2787 42.1531 16.0236C42.0648 15.8222 41.8646 15.6978 41.6672 15.6139C41.2834 15.4593 40.8616 15.4609 40.4548 15.4323C40.6625 14.8684 40.8714 14.3045 41.0867 13.7437C41.1366 13.7124 41.2058 13.7364 41.2632 13.7286C44.4584 13.7306 47.654 13.7286 50.8496 13.7298C50.6288 14.2964 50.4092 14.863 50.1907 15.4303C49.4211 15.4651 48.6278 15.484 47.906 15.7778C47.5752 15.9131 47.2622 16.1198 47.0668 16.419C46.931 16.6381 46.8468 16.8828 46.7558 17.1216C45.4207 20.6781 44.0734 24.2299 42.7534 27.7918C43.4846 29.4061 44.2467 31.0066 44.9926 32.6144C47.7011 26.3672 50.4088 20.1192 53.1204 13.8732C53.3032 13.4975 53.6008 13.1547 53.6242 12.7226C53.6467 12.3844 53.3899 12.0926 53.0923 11.9539C52.4509 11.6648 51.73 11.6505 51.0367 11.6261C51.0359 11.0286 51.0359 10.4311 51.0367 9.83359ZM55.9619 43.4712C56.817 44.3361 57.6653 45.2069 58.5121 46.0792C58.5109 45.2683 58.5157 44.4571 58.5149 43.6462C58.6613 43.6466 58.8077 43.6451 58.9545 43.6432C58.9549 44.8007 58.9549 45.9586 58.9545 47.1161C58.0986 46.2554 57.2554 45.3831 56.4039 44.5182C56.4051 45.334 56.4019 46.1503 56.4015 46.9666C56.2547 46.9677 56.1083 46.9673 55.9619 46.9673C55.9615 45.8017 55.9611 44.6364 55.9619 43.4712ZM31.0694 43.5902C32.0115 43.4488 33.0083 44.1692 33.0922 45.1076C33.1713 45.6444 32.958 46.2041 32.5556 46.5739C31.894 47.2062 30.7042 47.1946 30.062 46.5399C29.715 46.2114 29.5171 45.738 29.5381 45.2653C29.5476 44.4428 30.2436 43.7081 31.0694 43.5902ZM31.0698 44.0154C30.5214 44.1027 30.075 44.5731 29.9983 45.1061C29.8938 45.7117 30.2764 46.3633 30.8751 46.5612C31.399 46.7544 32.0365 46.5724 32.3728 46.1357C32.8077 45.6027 32.7341 44.7428 32.1991 44.3002C31.8984 44.0332 31.4635 43.945 31.0698 44.0154ZM37.8729 43.7692C38.3556 43.4152 39.1443 43.5616 39.4228 44.0965C39.3065 44.1607 39.1902 44.2252 39.0738 44.2894C38.8645 43.9698 38.3545 43.8917 38.0731 44.163C37.954 44.2481 37.9671 44.4038 37.9797 44.5317C38.0138 44.6987 38.1958 44.7694 38.3299 44.8479C38.6758 45.0257 39.0912 45.1281 39.3342 45.4504C39.6052 45.8102 39.5605 46.3459 39.2649 46.6791C38.9559 47.0443 38.3909 47.1332 37.9588 46.9419C37.6272 46.7819 37.4222 46.4437 37.3557 46.097C37.5041 46.0626 37.6533 46.0309 37.8021 45.9985C37.8171 46.3146 38.0684 46.6342 38.4103 46.64C38.8716 46.6891 39.2384 46.1032 38.9698 45.7295C38.6829 45.348 38.1297 45.3426 37.7997 45.0129C37.4111 44.7026 37.4503 44.0335 37.8729 43.7692ZM53.6242 43.5879C54.2414 43.5125 54.8793 43.7908 55.2584 44.2677C55.8048 44.9356 55.7174 46.0011 55.0688 46.5754C54.6985 46.9329 54.154 47.0802 53.6427 47.0272C53.1375 46.9948 52.6646 46.7181 52.373 46.3177C52.0588 45.8906 51.9773 45.3197 52.1261 44.8177C52.3204 44.1672 52.94 43.6729 53.6242 43.5879ZM53.5486 44.0211C52.868 44.1344 52.3813 44.8424 52.5008 45.501C52.5764 46.1345 53.1917 46.65 53.8426 46.6381C54.2865 46.6454 54.7099 46.3996 54.9493 46.0402C55.313 45.5254 55.2172 44.7647 54.7487 44.3412C54.442 44.0378 53.9684 43.9353 53.5486 44.0211ZM28.0535 43.644C28.1939 43.6432 28.3344 43.6432 28.4749 43.644C28.4753 44.6253 28.4745 45.6069 28.4753 46.5882C28.8243 46.589 29.1729 46.5882 29.5219 46.5886C29.5227 46.7146 29.5227 46.8406 29.5223 46.967C29.0324 46.9674 28.5429 46.9678 28.0535 46.967C28.0538 45.8593 28.0538 44.7516 28.0535 43.644ZM33.4329 43.6467C33.5816 43.6455 33.7304 43.6459 33.8796 43.6463C33.8808 44.3002 33.8776 44.9546 33.8812 45.6085C33.8879 45.896 33.9243 46.2122 34.1324 46.4336C34.4636 46.7509 35.1142 46.7057 35.3452 46.2945C35.462 46.1013 35.496 45.8725 35.4928 45.6514C35.4901 44.9832 35.4901 44.3149 35.4905 43.6463C35.6392 43.6455 35.788 43.6459 35.9368 43.6463C35.9368 44.3284 35.9384 45.0106 35.9364 45.6927C35.9372 46.0023 35.8822 46.3297 35.6796 46.5786C35.2439 47.168 34.2341 47.2016 33.7569 46.6447C33.5302 46.4128 33.4368 46.0858 33.4337 45.7712C33.4317 45.0632 33.4333 44.3547 33.4329 43.6467ZM36.4864 43.6443C36.6328 43.6428 36.7796 43.6432 36.9264 43.6439C36.9264 44.7516 36.9268 45.8593 36.926 46.9673C36.7796 46.9673 36.6328 46.9677 36.486 46.9666C36.4868 45.8593 36.4868 44.7516 36.4864 43.6443ZM40.8924 43.6471C41.0535 43.6428 41.2153 43.6428 41.3767 43.6436C41.7147 44.4513 42.0474 45.261 42.3794 46.0711C42.7106 45.2637 43.0513 44.4602 43.375 43.6502C43.5408 43.6366 43.707 43.6459 43.8732 43.6436C43.3789 44.8189 42.8827 45.9934 42.3842 47.1668C41.8769 45.9977 41.3878 44.8208 40.8924 43.6471ZM44.0746 43.6432C44.221 43.6451 44.3674 43.6467 44.5142 43.6463C44.5193 44.2902 44.5134 44.9345 44.5189 45.5783C44.5292 45.8841 44.5533 46.2307 44.7923 46.4572C45.0681 46.688 45.5074 46.7023 45.8018 46.497C45.9731 46.378 46.0673 46.1801 46.1045 45.983C46.163 45.6437 46.142 45.2985 46.146 44.9561C46.1484 44.5198 46.1488 44.0834 46.148 43.6471C46.2888 43.6455 46.4301 43.6459 46.5714 43.6463C46.5777 44.2515 46.5726 44.8564 46.5741 45.4616C46.584 45.8369 46.5718 46.2443 46.3379 46.5612C45.9284 47.1382 44.9858 47.2004 44.4675 46.7316C44.2083 46.4974 44.0781 46.1519 44.0761 45.811C44.0722 45.0883 44.0754 44.3659 44.0746 43.6432ZM47.1238 43.6463C47.2765 43.6467 47.4292 43.6451 47.5824 43.6436C47.5824 44.7513 47.582 45.8589 47.5824 46.967C47.4284 46.9674 47.2749 46.9674 47.1214 46.967C47.1198 45.8601 47.1249 44.7532 47.1238 43.6463ZM47.857 43.6463C49.2288 43.6474 50.6003 43.644 51.9721 43.6444C51.9717 43.7769 51.9717 43.9095 51.9721 44.0424C51.709 44.0436 51.4463 44.0424 51.1835 44.0428C51.1823 45.0175 51.1831 45.9923 51.1831 46.967C51.03 46.9674 50.8773 46.9674 50.7241 46.967C50.7233 45.9923 50.7269 45.0175 50.7226 44.0428C50.184 44.0436 49.6455 44.0424 49.107 44.0432C49.1062 45.0179 49.107 45.9923 49.1066 46.967C48.9661 46.9674 48.8256 46.9674 48.6855 46.967C48.6851 45.9923 48.6859 45.0179 48.6851 44.0432C48.409 44.0424 48.1332 44.0436 47.857 44.0424C47.8566 43.9103 47.8566 43.7781 47.857 43.6463Z" fill="black"/>
</svg>
