<svg width="36" height="24" viewBox="0 0 36 24" fill="none" xmlns="http://www.w3.org/2000/svg">
<path d="M30.4257 17.4793L26.3229 6.18338L26.3201 6.1759H26.2391L25.3943 8.49718L23.8562 12.7231L23.8526 12.7198C23.3195 12.2494 22.5674 11.9554 21.6202 11.8459L21.3313 11.8161L21.6179 11.7793C23.1799 11.4986 24.2299 10.5121 24.2299 9.32355C24.2299 7.69369 22.6969 6.55606 20.5011 6.55606H15.9322V6.63859H17.2598V15.0604L14.0356 6.18335L14.0327 6.1759H13.9517L13.1068 8.49718L9.84818 17.4503L9.82813 17.4526C9.77244 17.4595 9.71736 17.4649 9.66286 17.469C9.58089 17.4755 9.49939 17.4793 9.41764 17.4793H6.12503L12.3839 6.63856L12.4304 6.55709H4.77558V9.91063H4.85681C4.87121 8.27717 5.82249 6.63856 7.92428 6.63856H10.4599L4.15381 17.5605H12.6494V14.3476H12.5681C12.5571 15.7713 11.75 17.1236 9.99497 17.4289L9.93917 17.4385L11.2758 13.7647H15.02L16.3692 17.4793H15.0383V17.5606H20.262V17.4793H18.9254V11.8759H20.4677C22.0371 11.8759 22.9373 12.5771 22.9373 13.7991V14.793C22.9373 14.9026 22.9447 15.0627 22.9529 15.1966V15.2015L22.124 17.4788H21.0411V17.56H23.2827V17.4788H22.2114L22.9663 15.4051C22.9679 15.4251 22.9686 15.4372 22.9686 15.4372L22.9895 15.624L23.0095 15.7477C23.1354 16.5124 23.4279 17.0745 23.8785 17.4184L23.9433 17.4654C24.2857 17.7035 24.7111 17.824 25.2084 17.824C25.8672 17.824 26.3065 17.6598 26.6692 17.2732L26.6216 17.2285C26.2875 17.5369 26.0071 17.6618 25.6557 17.6618C25.057 17.6618 24.7437 16.9357 24.7437 16.2196V14.827C24.7469 14.4814 24.6928 14.1377 24.5836 13.8099L24.5687 13.7667V13.7651H27.3073L28.6565 17.4798H27.3256V17.5611H31.8461V17.4798L30.4257 17.4793ZM11.3056 13.6834L13.1501 8.61596L14.9904 13.6834H11.3056ZM18.9262 11.7945V6.63856H20.1034C21.676 6.63856 22.5062 7.5734 22.5062 9.34105C22.5062 11.221 22.0296 11.7945 20.4677 11.7945H18.9262ZM24.5368 13.6834L24.5288 13.6634C24.4071 13.367 24.2299 13.0965 24.0068 12.8666L23.9297 12.7894L23.9214 12.7817L25.4364 8.61596L27.2768 13.6834H24.5368Z" fill="black"/>
</svg>
