<svg width="112" height="64" viewBox="0 0 112 64" fill="none" xmlns="http://www.w3.org/2000/svg">
<path d="M34.3775 56.0156C34.3469 56.1392 34.3163 56.2936 34.3163 56.448C30.4955 46.0093 20.8058 30.1351 4.33025 29.1777C4.33025 29.1777 5.49179 23.6495 14.4785 19.5111C14.2339 20.4993 14.0199 21.3641 13.6837 22.6921C13.3169 24.2363 13.2863 26.0584 13.6226 27.6335C13.6837 27.8806 13.7754 28.6526 14.1422 28.6526C14.509 28.6526 14.6619 27.8188 14.6924 27.6335C15.1815 25.5334 15.4566 24.5451 15.9457 22.4759C16.2208 21.3023 16.3125 20.0052 16.1902 18.7699C18.2993 17.936 20.7447 17.1948 23.6485 16.5771C22.9149 20.2523 22.1813 24.0201 21.4477 27.6644C21.142 29.2394 21.1726 31.0307 21.57 32.6058C21.6311 32.8528 21.7839 33.6249 22.1202 33.6249C22.4564 33.6249 22.6092 32.7602 22.6398 32.6058C23.4651 28.4673 24.321 24.1127 25.1463 19.9434C25.3603 18.8007 25.4214 17.5036 25.2686 16.2992C26.0633 16.1447 26.858 16.0212 27.7139 15.8977C29.5785 15.6197 31.2291 15.3418 32.7269 15.0638C31.6265 20.6846 30.251 27.7879 29.2117 33.0999C29.0588 33.9029 28.906 34.7367 28.7226 35.5397C28.4169 37.1148 28.4475 38.906 28.8449 40.4811C28.906 40.7282 29.0588 41.5003 29.3951 41.5003C29.7619 41.5003 29.8842 40.6355 29.9147 40.4811C31.0457 34.6441 32.6352 26.5834 33.7661 20.7773C33.919 19.9743 34.0718 19.1405 34.2552 18.3375C34.4692 17.1948 34.5303 15.9594 34.3775 14.755C37.801 13.952 40.4297 12.9637 43.0585 11.5122C42.2943 15.4653 41.4996 19.542 40.8271 22.8774L40.8882 22.723L35.6919 49.4374C35.2639 51.5375 34.836 53.7611 34.3775 56.0156ZM49.7526 2.77209C49.3858 2.64856 47.6435 5.27367 45.9929 6.97228L45.9623 7.00316C46.1152 5.67516 46.0235 4.28539 45.7178 3.01916C45.6567 2.77209 45.5038 2 45.1676 2C44.8008 2 44.6785 2.86474 44.6479 3.01916C44.3117 4.68688 43.9449 6.53991 43.5781 8.4547C36.9145 12.1607 30.3732 12.2843 22.2119 14.1373C5.12499 18.0595 2.43511 27.7261 2.00717 30.691C1.94604 31.1542 2.28227 31.5557 2.77134 31.5557C19.736 31.5866 30.6483 50.0242 34.5914 61.2041C34.9888 62.1924 35.4473 62.3468 35.6613 61.1732C38.718 45.7005 41.683 30.1968 44.6785 14.6932C45.0147 13.0255 45.3204 11.3269 45.6567 9.65916C47.7352 7.92967 49.4469 5.42809 49.7832 4.4707C49.9054 4.16186 50.3639 2.9574 49.7526 2.77209Z" fill="#17181B"/>
<path d="M59.1977 18.8008C61.0317 18.8008 61.9487 19.7273 61.9487 19.7273L61.154 20.6847C61.154 20.6847 60.451 20.067 59.2283 20.067C57.3331 20.067 56.141 21.6421 56.141 23.2789C56.141 24.6069 57.0275 25.3481 58.189 25.3481C59.32 25.3481 60.2064 24.5452 60.2064 24.5452L60.3593 23.7113H59.1977L59.4423 22.5377H61.7959L61.0317 26.4908H59.8702L59.9313 26.1202C59.9619 25.9658 59.9925 25.8114 59.9925 25.8114H59.9619C59.9619 25.8114 59.1977 26.6144 57.8222 26.6144C56.1105 26.6144 54.6738 25.379 54.6738 23.3716C54.735 20.87 56.7218 18.8008 59.1977 18.8008ZM63.0797 26.4291L64.0884 24.5143H66.6866L66.9617 26.4291H68.3066L67.1757 18.9243H65.6473L61.6125 26.4291H63.0797ZM64.6081 23.4025L65.6779 21.395C65.8919 20.9935 66.167 20.2214 66.167 20.2214H66.1975C66.1975 20.2214 66.2281 20.9626 66.2892 21.395L66.5643 23.4025H64.6081ZM69.2237 26.4291H73.7781L74.0227 25.2555H70.7826L72.0052 18.9243H70.6603L69.2237 26.4291ZM74.7868 26.4291H79.4024L79.6164 25.2555H76.3457L76.7431 23.248H79.2496L79.4941 22.0745H76.9876L77.3544 20.0979H80.4417L80.6862 18.9243H76.254L74.7868 26.4291ZM80.8085 26.4291H82.1534L82.6731 23.6186H84.018L84.9656 26.4291H86.4022L85.3935 23.6495C85.3018 23.3716 85.2101 23.2789 85.2101 23.2789V23.248C86.3411 22.8774 86.9219 21.7656 86.9219 20.7465C86.9219 19.9744 86.5551 19.3876 85.9132 19.1096C85.6075 18.9861 85.2407 18.9243 84.8433 18.9243H82.2146L80.8085 26.4291ZM82.9176 22.4451L83.3761 20.0979H84.5988C85.2101 20.0979 85.5769 20.4067 85.5769 20.9626C85.5769 21.8892 84.9045 22.4451 84.1097 22.4451H82.9176ZM87.6249 26.4291H88.9698L90.4065 18.9243H89.0615L87.6249 26.4291ZM90.8344 26.4291H95.45L95.664 25.2555H92.3933L92.7907 23.248H95.2972L95.5417 22.0745H93.0352L93.402 20.0979H96.4893L96.7338 18.9243H92.3016L90.8344 26.4291Z" fill="#17181B"/>
<path d="M51.9839 44.4958H55.1323L56.0798 39.4309H60.726L59.7479 44.4958H62.8657L65.3416 31.5864H62.2238L61.2456 36.744H56.5995L57.6082 31.5864H54.4904L51.9839 44.4958Z" fill="#DD1037"/>
<path d="M64.394 44.4957H67.7258L69.0096 41.7779H72.9833L73.2584 44.4957H76.3762L74.6034 31.6172H71.0271L64.394 44.4957ZM70.2323 39.2455L71.455 36.7439C71.8524 35.9409 72.372 34.5203 72.372 34.5203H72.4026C72.4026 34.5203 72.4331 35.9409 72.5248 36.7439L72.7694 39.2455H70.2323Z" fill="#EA5423"/>
<path d="M77.813 44.4957H80.9308L81.7561 40.1411H83.315L84.7517 44.4957H88.114L86.4634 40.0484C86.28 39.4925 86.1272 39.2763 86.1272 39.2763V39.2455C88.0835 38.4734 88.7865 36.4042 88.7865 34.8909C88.7865 33.4393 88.0835 32.4202 86.8914 31.926C86.3411 31.7098 85.6992 31.6172 85.0268 31.6172H80.2889L77.813 44.4957ZM82.2758 37.4233L82.8871 34.2732H84.2932C85.0879 34.2732 85.6075 34.6747 85.6075 35.4159C85.6075 36.6821 84.7211 37.3924 83.6207 37.3924H82.2758V37.4233Z" fill="#3EAD5A"/>
<path d="M89.9482 44.4958H93.0355L93.9831 39.7088H97.8651L98.3541 36.9911H94.5027L95.0223 34.3042H99.6991L100.188 31.5864H92.3936L89.9482 44.4958Z" fill="#0092D2"/>
<path d="M98.0181 44.4957H101.35L102.634 41.7779H106.607L106.882 44.4957H110L108.227 31.6172H104.651L98.0181 44.4957ZM103.856 39.2455L105.079 36.7439C105.476 35.9409 105.996 34.5203 105.996 34.5203H106.027C106.027 34.5203 106.057 35.9409 106.149 36.7439L106.393 39.2455H103.856Z" fill="#F9B226"/>
</svg>
